<?xml version="1.0" encoding="utf-8"?>
<!-- Generator: Adobe Illustrator 24.3.0, SVG Export Plug-In . SVG Version: 6.00 Build 0)  -->
<svg version="1.1" id="Layer_1" xmlns="http://www.w3.org/2000/svg" xmlns:xlink="http://www.w3.org/1999/xlink" x="0px" y="0px"
	 viewBox="0 0 595.3 841.9" style="enable-background:new 0 0 595.3 841.9;" xml:space="preserve">
<style type="text/css">
	.st0{fill:#4554A4;stroke:#000000;stroke-miterlimit:10;}
</style>
<g>
	<circle class="st0" cx="188.7" cy="132.8" r="7.1"/>
	<circle class="st0" cx="188.7" cy="132.8" r="7.1"/>
	<circle class="st0" cx="188.7" cy="153.3" r="7.1"/>
	<circle class="st0" cx="188.7" cy="173.7" r="7.1"/>
	<circle class="st0" cx="188.7" cy="194.2" r="7.1"/>
	<circle class="st0" cx="188.7" cy="214.6" r="7.1"/>
	<circle class="st0" cx="188.7" cy="235.1" r="7.1"/>
	<circle class="st0" cx="188.7" cy="255.5" r="7.1"/>
	<circle class="st0" cx="188.7" cy="276" r="7.1"/>
	<circle class="st0" cx="188.7" cy="296.5" r="7.1"/>
	<circle class="st0" cx="188.7" cy="316.9" r="7.1"/>
	<circle class="st0" cx="188.7" cy="337.4" r="7.1"/>
	<circle class="st0" cx="188.7" cy="357.8" r="7.1"/>
	<circle class="st0" cx="188.7" cy="378.3" r="7.1"/>
	<circle class="st0" cx="211.5" cy="132.8" r="7.1"/>
	<circle class="st0" cx="211.5" cy="153.3" r="7.1"/>
	<circle class="st0" cx="211.5" cy="173.7" r="7.1"/>
	<circle class="st0" cx="211.5" cy="194.2" r="7.1"/>
	<circle class="st0" cx="211.5" cy="214.6" r="7.1"/>
	<circle class="st0" cx="211.5" cy="235.1" r="7.1"/>
	<circle class="st0" cx="211.5" cy="255.5" r="7.1"/>
	<circle class="st0" cx="211.5" cy="276" r="7.1"/>
	<circle class="st0" cx="211.5" cy="296.5" r="7.1"/>
	<circle class="st0" cx="211.5" cy="316.9" r="7.1"/>
	<circle class="st0" cx="211.5" cy="337.4" r="7.1"/>
	<circle class="st0" cx="211.5" cy="357.8" r="7.1"/>
	<circle class="st0" cx="211.5" cy="378.3" r="7.1"/>
	<circle class="st0" cx="234.2" cy="132.8" r="7.1"/>
	<circle class="st0" cx="234.2" cy="153.3" r="7.1"/>
	<circle class="st0" cx="234.2" cy="173.7" r="7.1"/>
	<circle class="st0" cx="234.2" cy="194.2" r="7.1"/>
	<circle class="st0" cx="234.2" cy="214.6" r="7.1"/>
	<circle class="st0" cx="234.2" cy="235.1" r="7.1"/>
	<circle class="st0" cx="234.2" cy="255.5" r="7.1"/>
	<circle class="st0" cx="234.2" cy="276" r="7.1"/>
	<circle class="st0" cx="234.2" cy="296.5" r="7.1"/>
	<circle class="st0" cx="234.2" cy="316.9" r="7.1"/>
	<circle class="st0" cx="234.2" cy="337.4" r="7.1"/>
	<circle class="st0" cx="234.2" cy="357.8" r="7.1"/>
	<circle class="st0" cx="234.2" cy="378.3" r="7.1"/>
	<circle class="st0" cx="256.9" cy="132.8" r="7.1"/>
	<circle class="st0" cx="256.9" cy="153.3" r="7.1"/>
	<circle class="st0" cx="256.9" cy="173.7" r="7.1"/>
	<circle class="st0" cx="256.9" cy="194.2" r="7.1"/>
	<circle class="st0" cx="256.9" cy="214.6" r="7.1"/>
	<circle class="st0" cx="256.9" cy="235.1" r="7.1"/>
	<circle class="st0" cx="256.9" cy="255.5" r="7.1"/>
	<circle class="st0" cx="256.9" cy="276" r="7.1"/>
	<circle class="st0" cx="256.9" cy="296.5" r="7.1"/>
	<circle class="st0" cx="256.9" cy="316.9" r="7.1"/>
	<circle class="st0" cx="256.9" cy="337.4" r="7.1"/>
	<circle class="st0" cx="256.9" cy="357.8" r="7.1"/>
	<circle class="st0" cx="256.9" cy="378.3" r="7.1"/>
	<circle class="st0" cx="279.6" cy="132.8" r="7.1"/>
	<circle class="st0" cx="279.6" cy="153.3" r="7.1"/>
	<circle class="st0" cx="279.6" cy="173.7" r="7.1"/>
	<circle class="st0" cx="279.6" cy="194.2" r="7.1"/>
	<circle class="st0" cx="279.6" cy="214.6" r="7.1"/>
	<circle class="st0" cx="279.6" cy="235.1" r="7.1"/>
	<circle class="st0" cx="279.6" cy="255.5" r="7.1"/>
	<circle class="st0" cx="279.6" cy="276" r="7.1"/>
	<circle class="st0" cx="279.6" cy="296.5" r="7.1"/>
	<circle class="st0" cx="279.6" cy="316.9" r="7.1"/>
	<circle class="st0" cx="279.6" cy="337.4" r="7.1"/>
	<circle class="st0" cx="279.6" cy="357.8" r="7.1"/>
	<circle class="st0" cx="279.6" cy="378.3" r="7.1"/>
	<circle class="st0" cx="302.4" cy="132.8" r="7.1"/>
	<circle class="st0" cx="302.4" cy="153.3" r="7.1"/>
	<circle class="st0" cx="302.4" cy="173.7" r="7.1"/>
	<circle class="st0" cx="302.4" cy="194.2" r="7.1"/>
	<circle class="st0" cx="302.4" cy="214.6" r="7.1"/>
	<circle class="st0" cx="302.4" cy="235.1" r="7.1"/>
	<circle class="st0" cx="302.4" cy="255.5" r="7.1"/>
	<circle class="st0" cx="302.4" cy="276" r="7.1"/>
	<circle class="st0" cx="302.4" cy="296.5" r="7.1"/>
	<circle class="st0" cx="302.4" cy="316.9" r="7.1"/>
	<circle class="st0" cx="302.4" cy="337.4" r="7.1"/>
	<circle class="st0" cx="302.4" cy="357.8" r="7.1"/>
	<circle class="st0" cx="302.4" cy="378.3" r="7.1"/>
	<circle class="st0" cx="325.1" cy="132.8" r="7.1"/>
	<circle class="st0" cx="325.1" cy="153.3" r="7.1"/>
	<circle class="st0" cx="325.1" cy="173.7" r="7.1"/>
	<circle class="st0" cx="325.1" cy="194.2" r="7.1"/>
	<circle class="st0" cx="325.1" cy="214.6" r="7.1"/>
	<circle class="st0" cx="325.1" cy="235.1" r="7.1"/>
	<circle class="st0" cx="325.1" cy="255.5" r="7.1"/>
	<circle class="st0" cx="325.1" cy="276" r="7.1"/>
	<circle class="st0" cx="325.1" cy="296.5" r="7.1"/>
	<circle class="st0" cx="325.1" cy="316.9" r="7.1"/>
	<circle class="st0" cx="325.1" cy="337.4" r="7.1"/>
	<circle class="st0" cx="325.1" cy="357.8" r="7.1"/>
	<circle class="st0" cx="325.1" cy="378.3" r="7.1"/>
	<circle class="st0" cx="347.8" cy="132.8" r="7.1"/>
	<circle class="st0" cx="347.8" cy="153.3" r="7.1"/>
	<circle class="st0" cx="347.8" cy="173.7" r="7.1"/>
	<circle class="st0" cx="347.8" cy="194.2" r="7.1"/>
	<circle class="st0" cx="347.8" cy="214.6" r="7.1"/>
	<circle class="st0" cx="347.8" cy="235.1" r="7.1"/>
	<circle class="st0" cx="347.8" cy="255.5" r="7.1"/>
	<circle class="st0" cx="347.8" cy="276" r="7.1"/>
	<circle class="st0" cx="347.8" cy="296.5" r="7.1"/>
	<circle class="st0" cx="347.8" cy="316.9" r="7.1"/>
	<circle class="st0" cx="347.8" cy="337.4" r="7.1"/>
	<circle class="st0" cx="347.8" cy="357.8" r="7.1"/>
	<circle class="st0" cx="347.8" cy="378.3" r="7.1"/>
	<circle class="st0" cx="370.6" cy="132.8" r="7.1"/>
	<circle class="st0" cx="370.6" cy="153.3" r="7.1"/>
	<circle class="st0" cx="370.6" cy="173.7" r="7.1"/>
	<circle class="st0" cx="370.6" cy="194.2" r="7.1"/>
	<circle class="st0" cx="370.6" cy="214.6" r="7.1"/>
	<circle class="st0" cx="370.6" cy="235.1" r="7.1"/>
	<circle class="st0" cx="370.6" cy="255.5" r="7.1"/>
	<circle class="st0" cx="370.6" cy="276" r="7.1"/>
	<circle class="st0" cx="370.6" cy="296.5" r="7.1"/>
	<circle class="st0" cx="370.6" cy="316.9" r="7.1"/>
	<circle class="st0" cx="370.6" cy="337.4" r="7.1"/>
	<circle class="st0" cx="370.6" cy="357.8" r="7.1"/>
	<circle class="st0" cx="370.6" cy="378.3" r="7.1"/>
	<circle class="st0" cx="393.3" cy="132.8" r="7.1"/>
	<circle class="st0" cx="393.3" cy="153.3" r="7.1"/>
	<circle class="st0" cx="393.3" cy="173.7" r="7.1"/>
	<circle class="st0" cx="393.3" cy="194.2" r="7.1"/>
	<circle class="st0" cx="393.3" cy="214.6" r="7.1"/>
	<circle class="st0" cx="393.3" cy="235.1" r="7.1"/>
	<circle class="st0" cx="393.3" cy="255.5" r="7.1"/>
	<circle class="st0" cx="393.3" cy="276" r="7.1"/>
	<circle class="st0" cx="393.3" cy="296.5" r="7.1"/>
	<circle class="st0" cx="393.3" cy="316.9" r="7.1"/>
	<circle class="st0" cx="393.3" cy="337.4" r="7.1"/>
	<circle class="st0" cx="393.3" cy="357.8" r="7.1"/>
	<circle class="st0" cx="393.3" cy="378.3" r="7.1"/>
	<circle class="st0" cx="416" cy="132.8" r="7.1"/>
	<circle class="st0" cx="416" cy="153.3" r="7.1"/>
	<circle class="st0" cx="416" cy="173.7" r="7.1"/>
	<circle class="st0" cx="416" cy="194.2" r="7.1"/>
	<circle class="st0" cx="416" cy="214.6" r="7.1"/>
	<circle class="st0" cx="416" cy="235.1" r="7.1"/>
	<circle class="st0" cx="416" cy="255.5" r="7.1"/>
	<circle class="st0" cx="416" cy="276" r="7.1"/>
	<circle class="st0" cx="416" cy="296.5" r="7.1"/>
	<circle class="st0" cx="416" cy="316.9" r="7.1"/>
	<circle class="st0" cx="416" cy="337.4" r="7.1"/>
	<circle class="st0" cx="416" cy="357.8" r="7.1"/>
	<circle class="st0" cx="416" cy="378.3" r="7.1"/>
	<circle class="st0" cx="438.7" cy="132.8" r="7.1"/>
	<circle class="st0" cx="438.7" cy="153.3" r="7.1"/>
	<circle class="st0" cx="438.7" cy="173.7" r="7.1"/>
	<circle class="st0" cx="438.7" cy="194.2" r="7.1"/>
	<circle class="st0" cx="438.7" cy="214.6" r="7.1"/>
	<circle class="st0" cx="438.7" cy="235.1" r="7.1"/>
	<circle class="st0" cx="438.7" cy="255.5" r="7.1"/>
	<circle class="st0" cx="438.7" cy="276" r="7.1"/>
	<circle class="st0" cx="438.7" cy="296.5" r="7.1"/>
	<circle class="st0" cx="438.7" cy="316.9" r="7.1"/>
	<circle class="st0" cx="438.7" cy="337.4" r="7.1"/>
	<circle class="st0" cx="438.7" cy="357.8" r="7.1"/>
	<circle class="st0" cx="438.7" cy="378.3" r="7.1"/>
	<path class="st0" d="M250.8,132.8"/>
</g>
</svg>
