<?xml version="1.0" encoding="UTF-8"?> <!-- Generator: Adobe Illustrator 25.1.0, SVG Export Plug-In . SVG Version: 6.00 Build 0) --> <svg xmlns="http://www.w3.org/2000/svg" xmlns:xlink="http://www.w3.org/1999/xlink" version="1.1" id="Layer_1" x="0px" y="0px" viewBox="0 0 30 30" style="enable-background:new 0 0 30 30;" xml:space="preserve"> <style type="text/css"> .st0{fill:url(#SVGID_1_);} .st1{fill:#D8A1FF;} </style> <g> <radialGradient id="SVGID_1_" cx="-192.0568" cy="-292.646" r="9.119985e-03" gradientTransform="matrix(2291.6716 0 0 -2218.7549 440141.4688 -649302.375)" gradientUnits="userSpaceOnUse"> <stop offset="0" style="stop-color:#442F55;stop-opacity:0.98"></stop> <stop offset="1" style="stop-color:#12002C"></stop> </radialGradient> <path class="st0" d="M1.2,1.3h27.5v26.8H1.2V1.3z"></path> <path class="st1" d="M1.2,1.3h27.5v26.8H1.2V1.3z M0,29.3h30V0.1H0V29.3z M21.2,14.2c0.6,0,0.9,0,0.9,0c0-0.1,0-0.2,0-0.2 c0-0.7-0.3-1.9-1.6-1.9c-1.2,0-1.7,1-1.8,2.2H21.2L21.2,14.2z M18.7,15.9c0,1.7,0.8,2.8,2.7,2.8c0.7,0,1.4-0.1,2-0.4 c0.1,0,0.2,0,0.2,0.1V20c0,0.1,0,0.2-0.1,0.3c-0.7,0.3-1.5,0.5-2.5,0.5c-3.3,0-4.5-2.4-4.5-5.1c0-3,1.5-5.4,4.2-5.4 c2.7,0,3.7,2.3,3.7,4.1c0,0.6,0,1.1-0.1,1.3c0,0.1-0.1,0.1-0.2,0.2c-0.3,0-1,0.1-2.1,0.1L18.7,15.9L18.7,15.9z M12,14.6 c-0.4-1.4-1.2-4.4-1.5-5.9h0c-0.3,1.5-1,3.9-1.5,5.9H12z M8.5,16.6l-1,3.7c0,0.1-0.1,0.1-0.2,0.1H5.5c-0.1,0-0.2,0-0.1-0.2L8.9,7.9 C8.9,7.7,9,7.5,9,6.9c0-0.1,0-0.1,0.1-0.1h2.6c0.1,0,0.1,0,0.2,0.1l4,13.5c0,0.1,0,0.2-0.1,0.2h-2.1c-0.1,0-0.2,0-0.2-0.1l-1-3.8 L8.5,16.6L8.5,16.6z"></path> </g> </svg> 