<?xml version="1.0" encoding="UTF-8"?> <!-- Generator: Adobe Illustrator 25.1.0, SVG Export Plug-In . SVG Version: 6.00 Build 0) --> <svg xmlns="http://www.w3.org/2000/svg" xmlns:xlink="http://www.w3.org/1999/xlink" version="1.1" id="Layer_1" x="0px" y="0px" viewBox="0 0 30 30" style="enable-background:new 0 0 30 30;" xml:space="preserve"> <style type="text/css"> .st0{fill:#00979D;} .st1{opacity:0.5;fill:url(#SVGID_1_);enable-background:new ;} .st2{fill:#FFFFFF;} </style> <path class="st0" d="M30.1,15c0,8.3-6.7,15-15,15c-8.3,0-15-6.7-15-15c0-8.3,6.7-15,15-15C23.4,0,30.1,6.7,30.1,15L30.1,15z"></path> <linearGradient id="SVGID_1_" gradientUnits="userSpaceOnUse" x1="-16.2998" y1="-664.0382" x2="0.167" y2="-664.0382" gradientTransform="matrix(1.8212 0 0 1.8212 29.7744 1224.3273)"> <stop offset="0.117" style="stop-color:#FFFFFF;stop-opacity:0"></stop> <stop offset="0.252" style="stop-color:#C0D1D3;stop-opacity:0.153"></stop> <stop offset="0.387" style="stop-color:#91B3B7;stop-opacity:0.306"></stop> <stop offset="0.52" style="stop-color:#6D9FA3;stop-opacity:0.457"></stop> <stop offset="0.65" style="stop-color:#4D9195;stop-opacity:0.604"></stop> <stop offset="0.776" style="stop-color:#30888B;stop-opacity:0.746"></stop> <stop offset="0.895" style="stop-color:#148386;stop-opacity:0.881"></stop> <stop offset="1" style="stop-color:#008184"></stop> </linearGradient> <path class="st1" d="M30.1,15c0,8.3-6.7,15-15,15c-8.3,0-15-6.7-15-15c0-8.3,6.7-15,15-15C23.4,0,30.1,6.7,30.1,15L30.1,15z"></path> <g> <path class="st2" d="M20.8,20.4c-0.3,0-0.6,0-0.9-0.1c-2.4-0.3-4-2.1-4.9-3.4c-0.9,1.3-2.5,3-4.9,3.4c-0.3,0-0.6,0.1-0.9,0.1 c-1.5,0-2.9-0.6-3.9-1.6c-1.1-1-1.6-2.4-1.6-3.8c0-1.4,0.6-2.8,1.6-3.8c1-1,2.4-1.6,3.9-1.6c0.3,0,0.6,0,0.9,0.1 c2.4,0.3,4,2.1,4.9,3.4c0.9-1.3,2.5-3,4.9-3.4c0.3,0,0.6-0.1,0.9-0.1c1.5,0,2.9,0.6,3.9,1.6c1.1,1,1.6,2.4,1.6,3.8 c0,1.4-0.6,2.8-1.6,3.8C23.7,19.8,22.3,20.4,20.8,20.4 M16.1,15c0.5,0.9,1.8,3.1,4.1,3.4c0.2,0,0.4,0,0.6,0c2,0,3.7-1.6,3.7-3.5 s-1.6-3.5-3.7-3.5c-0.2,0-0.4,0-0.6,0C18,11.9,16.6,14.1,16.1,15 M9.4,11.5c-2,0-3.7,1.6-3.7,3.5c0,1.9,1.6,3.5,3.7,3.5 c0.2,0,0.4,0,0.6,0c2.2-0.3,3.6-2.5,4.1-3.4c-0.5-0.9-1.8-3.1-4.1-3.4C9.8,11.5,9.6,11.5,9.4,11.5"></path> <path class="st2" d="M7.8,14.5h3.3v1.1H7.8V14.5z M22.3,14.5h-1.1v-1.1h-1.1v1.1H19v1.1h1.1v1.1h1.1v-1.1h1.1V14.5z"></path> </g> </svg> 