<?xml version="1.0" encoding="UTF-8"?> <!-- Generator: Adobe Illustrator 25.1.0, SVG Export Plug-In . SVG Version: 6.00 Build 0) --> <svg xmlns="http://www.w3.org/2000/svg" xmlns:xlink="http://www.w3.org/1999/xlink" version="1.1" id="Layer_1" x="0px" y="0px" viewBox="0 0 48 37" style="enable-background:new 0 0 48 37;" xml:space="preserve"> <style type="text/css"> .st0{fill:#577BCC;} </style> <g> <path class="st0" d="M18.7,22.9l-7.4,3.4V15.8h0.1l7.3-3.4v2.8h2v-4.3c0-0.3-0.2-0.6-0.5-0.8l-9.3-4.3c-0.4-0.2-0.8-0.2-1.2,0 L0.6,10c-0.3,0.2-0.5,0.5-0.5,0.8v12.8c0,0.3,0.2,0.6,0.5,0.8l9.2,4.3c0.4,0.2,0.8,0.2,1.2,0l9.2-4.3c0.3-0.2,0.5-0.5,0.5-0.8V20 h-2L18.7,22.9L18.7,22.9z M9.4,26.3l-7.3-3.4V12.3l7.3,3.4h0.1L9.4,26.3L9.4,26.3z M10.6,14l-0.3,0.2L10.1,14l-6.6-3.1l6.9-3.3 l6.9,3.3L10.6,14z"></path> <path class="st0" d="M46,22.9l-7.4,3.4V15.8h0.1l7.3-3.4V22.9z M47.9,10.8c0-0.3-0.2-0.6-0.5-0.8l-9.2-4.3c-0.4-0.2-0.8-0.2-1.2,0 L27.9,10c-0.3,0.2-0.5,0.5-0.5,0.8v4.3h2v-2.8l7.3,3.4h0.1v10.5l-7.4-3.4V20h-2v3.6c0,0.3,0.2,0.6,0.5,0.8l9.2,4.3 c0.4,0.2,0.8,0.2,1.2,0l9.2-4.3c0.3-0.2,0.5-0.5,0.5-0.8L47.9,10.8L47.9,10.8z M38,14l-0.3,0.2L37.4,14l-6.6-3.1l6.9-3.3l6.9,3.3 L38,14z"></path> <path class="st0" d="M15.9,17.6c0,0.6,0.5,1,1,1h14.2c0.6,0,1-0.5,1-1s-0.5-1-1-1H16.9C16.4,16.6,15.9,17,15.9,17.6z"></path> </g> </svg> 