<?xml version="1.0" encoding="UTF-8"?> <svg xmlns="http://www.w3.org/2000/svg" xmlns:xlink="http://www.w3.org/1999/xlink" width="36pt" height="30pt" viewBox="0 0 36 30" version="1.1"><g id="surface1"><path style=" stroke:none;fill-rule:nonzero;fill:rgb(100%,25.098039%,50.588235%);fill-opacity:1;" d="M 29.128906 11.296875 L 10.425781 11.296875 C 10.078125 11.296875 9.800781 11.015625 9.800781 10.671875 L 9.800781 9.234375 C 9.800781 9 9.9375 8.78125 10.148438 8.675781 L 11.714844 7.890625 C 11.902344 7.183594 12.1875 6.511719 12.554688 5.871094 L 12 4.207031 C 11.925781 3.984375 11.984375 3.734375 12.148438 3.570312 L 13.296875 2.421875 C 13.460938 2.257812 13.710938 2.199219 13.933594 2.273438 L 15.601562 2.828125 C 16.238281 2.460938 16.914062 2.175781 17.617188 1.988281 L 18.40625 0.421875 C 18.511719 0.210938 18.726562 0.0742188 18.960938 0.0742188 L 20.585938 0.0742188 C 20.820312 0.0742188 21.039062 0.210938 21.140625 0.421875 L 21.929688 1.988281 C 22.636719 2.175781 23.308594 2.460938 23.949219 2.828125 L 25.613281 2.273438 C 25.835938 2.199219 26.085938 2.257812 26.25 2.421875 L 27.398438 3.570312 C 27.5625 3.734375 27.621094 3.984375 27.546875 4.207031 L 26.992188 5.871094 C 27.359375 6.511719 27.644531 7.183594 27.832031 7.890625 L 29.398438 8.675781 C 29.609375 8.78125 29.746094 9 29.746094 9.234375 L 29.746094 10.671875 C 29.753906 11.015625 29.476562 11.296875 29.128906 11.296875 Z M 11.046875 10.050781 L 28.507812 10.050781 L 28.507812 9.621094 L 27.023438 8.878906 C 26.859375 8.796875 26.738281 8.640625 26.691406 8.460938 C 26.511719 7.6875 26.210938 6.960938 25.785156 6.285156 C 25.6875 6.128906 25.664062 5.933594 25.726562 5.761719 L 26.25 4.183594 L 25.648438 3.570312 L 24.074219 4.09375 C 23.894531 4.15625 23.707031 4.132812 23.542969 4.035156 C 22.867188 3.609375 22.132812 3.308594 21.367188 3.128906 C 21.1875 3.082031 21.03125 2.960938 20.949219 2.796875 L 20.203125 1.3125 L 19.351562 1.3125 L 18.609375 2.796875 C 18.523438 2.960938 18.367188 3.082031 18.1875 3.128906 C 17.414062 3.300781 16.6875 3.609375 16.011719 4.035156 C 15.855469 4.132812 15.660156 4.15625 15.480469 4.09375 L 13.90625 3.570312 L 13.296875 4.175781 L 13.824219 5.753906 C 13.882812 5.933594 13.859375 6.121094 13.761719 6.285156 C 13.335938 6.960938 13.035156 7.695312 12.855469 8.460938 C 12.808594 8.640625 12.691406 8.796875 12.523438 8.878906 L 11.039062 9.621094 L 11.039062 10.050781 Z M 11.046875 10.050781 "></path><path style=" stroke:none;fill-rule:nonzero;fill:rgb(100%,25.098039%,50.588235%);fill-opacity:1;" d="M 28.507812 26.257812 L 8.558594 26.257812 C 8.242188 26.257812 7.980469 26.023438 7.941406 25.710938 L 4.890625 1.320312 L 2.949219 1.320312 C 2.601562 1.320312 2.324219 1.042969 2.324219 0.699219 C 2.324219 0.351562 2.601562 0.0742188 2.949219 0.0742188 L 4.890625 0.0742188 C 5.519531 0.0742188 6.050781 0.546875 6.128906 1.171875 L 9.105469 25.019531 L 28.507812 25.019531 C 28.851562 25.019531 29.128906 25.296875 29.128906 25.640625 C 29.128906 25.980469 28.851562 26.257812 28.507812 26.257812 Z M 28.507812 26.257812 "></path><path style=" stroke:none;fill-rule:nonzero;fill:rgb(100%,25.098039%,50.588235%);fill-opacity:1;" d="M 19.140625 22.515625 C 18.796875 22.515625 18.515625 22.238281 18.515625 21.890625 L 18.515625 10.671875 C 18.515625 10.328125 18.796875 10.050781 19.140625 10.050781 C 19.484375 10.050781 19.761719 10.328125 19.761719 10.671875 L 19.761719 21.890625 C 19.761719 22.238281 19.484375 22.515625 19.140625 22.515625 Z M 19.140625 22.515625 "></path><path style=" stroke:none;fill-rule:nonzero;fill:rgb(100%,25.098039%,50.588235%);fill-opacity:1;" d="M 24.128906 22.515625 C 24.089844 22.515625 24.058594 22.515625 24.023438 22.507812 C 23.683594 22.449219 23.453125 22.132812 23.511719 21.789062 L 25.378906 10.566406 C 25.441406 10.230469 25.753906 9.996094 26.101562 10.058594 C 26.4375 10.117188 26.671875 10.433594 26.609375 10.777344 L 24.742188 21.996094 C 24.691406 22.304688 24.425781 22.515625 24.128906 22.515625 Z M 24.128906 22.515625 "></path><path style=" stroke:none;fill-rule:nonzero;fill:rgb(100%,25.098039%,50.588235%);fill-opacity:1;" d="M 14.152344 22.515625 C 13.851562 22.515625 13.589844 22.296875 13.539062 21.996094 L 11.671875 10.777344 C 11.609375 10.441406 11.84375 10.117188 12.179688 10.058594 C 12.523438 9.996094 12.839844 10.230469 12.898438 10.566406 L 14.765625 21.789062 C 14.828125 22.125 14.59375 22.449219 14.257812 22.507812 C 14.21875 22.515625 14.191406 22.515625 14.152344 22.515625 Z M 14.152344 22.515625 "></path><path style=" stroke:none;fill-rule:nonzero;fill:rgb(100%,25.098039%,50.588235%);fill-opacity:1;" d="M 30.203125 16.90625 L 7.46875 16.90625 C 7.125 16.90625 6.847656 16.628906 6.847656 16.28125 C 6.847656 15.9375 7.125 15.660156 7.46875 15.660156 L 30.203125 15.660156 C 30.546875 15.660156 30.824219 15.9375 30.824219 16.28125 C 30.824219 16.628906 30.546875 16.90625 30.203125 16.90625 Z M 30.203125 16.90625 "></path><path style=" stroke:none;fill-rule:nonzero;fill:rgb(100%,25.098039%,50.588235%);fill-opacity:1;" d="M 12.300781 30 C 10.925781 30 9.800781 28.882812 9.800781 27.503906 C 9.800781 26.128906 10.921875 25.003906 12.300781 25.003906 C 13.679688 25.003906 14.796875 26.121094 14.796875 27.503906 C 14.789062 28.882812 13.671875 30 12.300781 30 Z M 12.300781 26.257812 C 11.609375 26.257812 11.054688 26.820312 11.054688 27.503906 C 11.054688 28.191406 11.617188 28.746094 12.300781 28.746094 C 12.984375 28.746094 13.546875 28.183594 13.546875 27.503906 C 13.546875 26.820312 12.984375 26.257812 12.300781 26.257812 Z M 12.300781 26.257812 "></path><path style=" stroke:none;fill-rule:nonzero;fill:rgb(100%,25.098039%,50.588235%);fill-opacity:1;" d="M 24.765625 30 C 23.390625 30 22.265625 28.882812 22.265625 27.503906 C 22.265625 26.128906 23.386719 25.003906 24.765625 25.003906 C 26.136719 25.003906 27.261719 26.121094 27.261719 27.503906 C 27.261719 28.882812 26.144531 30 24.765625 30 Z M 24.765625 26.257812 C 24.074219 26.257812 23.519531 26.820312 23.519531 27.503906 C 23.519531 28.191406 24.082031 28.746094 24.765625 28.746094 C 25.453125 28.746094 26.011719 28.183594 26.011719 27.503906 C 26.015625 26.820312 25.453125 26.257812 24.765625 26.257812 Z M 24.765625 26.257812 "></path><path style=" stroke:none;fill-rule:nonzero;fill:rgb(100%,25.098039%,50.588235%);fill-opacity:1;" d="M 29.128906 22.515625 L 8.175781 22.515625 C 7.859375 22.515625 7.597656 22.28125 7.558594 21.976562 L 6.039062 10.753906 C 6.015625 10.574219 6.066406 10.394531 6.1875 10.261719 C 6.308594 10.125 6.480469 10.050781 6.660156 10.050781 L 31.628906 10.050781 C 31.816406 10.050781 31.996094 10.132812 32.113281 10.28125 C 32.234375 10.433594 32.28125 10.621094 32.234375 10.808594 L 29.738281 22.027344 C 29.675781 22.3125 29.421875 22.515625 29.128906 22.515625 Z M 8.722656 21.269531 L 28.636719 21.269531 L 30.855469 11.296875 L 7.371094 11.296875 Z M 8.722656 21.269531 "></path><path style=" stroke:none;fill-rule:nonzero;fill:rgb(100%,25.098039%,50.588235%);fill-opacity:1;" d="M 24.097656 11.296875 L 15.464844 11.296875 C 15.15625 11.296875 14.894531 11.070312 14.851562 10.761719 C 14.8125 10.492188 14.796875 10.265625 14.796875 10.050781 C 14.796875 7.296875 17.03125 5.0625 19.785156 5.0625 C 22.539062 5.0625 24.773438 7.296875 24.773438 10.050781 C 24.773438 10.265625 24.757812 10.492188 24.71875 10.761719 C 24.667969 11.070312 24.40625 11.296875 24.097656 11.296875 Z M 16.042969 10.050781 L 23.527344 10.050781 C 23.527344 7.988281 21.847656 6.308594 19.785156 6.308594 C 17.722656 6.308594 16.042969 7.988281 16.042969 10.050781 Z M 16.042969 10.050781 "></path></g></svg> 