<?xml version="1.0" encoding="utf-8"?>
<!-- Generator: Adobe Illustrator 25.1.0, SVG Export Plug-In . SVG Version: 6.00 Build 0)  -->
<svg version="1.1" id="Layer_1" xmlns="http://www.w3.org/2000/svg" xmlns:xlink="http://www.w3.org/1999/xlink" x="0px" y="0px"
	 viewBox="0 0 66 59.3" style="enable-background:new 0 0 66 59.3;" xml:space="preserve">
<style type="text/css">
	.st0{fill:#FF9D5B;}
	.st1{fill:none;}
</style>
<path class="st0" d="M6.7,3.4C7,3.1,7.3,2.8,7.6,2.4c0.1-0.1,0.2-0.1,0.2-0.2c0.5-0.3,0.9-0.7,1.4-1c2.4-1.4,5-1.5,7.7-0.8
	c0.1,0,0.1,0.1,0.2,0.1c1.9,1.1,3.7,2.2,5.6,3.2c5,2.6,10.2,4.9,15.6,6.5c3.1,0.9,6.2,1.6,9.5,1.8c1.9,0.1,3.8,0.4,5.7,0.9
	c2.8,0.8,5.3,2,7.5,3.9c2.2,1.9,3.7,4.4,4.3,7.3c0.3,1.3,0.5,2.6,0.4,3.9c-0.4,3.3-1.2,6.5-2.4,9.6c-1.4,3.8-3.3,7.4-5.9,10.6
	c-1.6,1.9-3.4,3.7-5.4,5.1c-2.8,2-5.8,3.5-9,4.5c-5.7,1.6-11.4,1.8-17.2,0.8c-6-1-11.3-3.3-15.8-7.4c-2-1.8-3.7-3.9-5.1-6.2
	c-2.1-3.4-3.4-7.1-4.2-11c-0.3-1.2-0.5-2.5-0.5-3.8c-0.1-2.9,0.1-5.8,0.4-8.7c0.4-3.7,1-7.4,2.2-11c0.7-2.1,1.6-4.1,2.8-5.9
	C6,4.3,6.4,3.8,6.7,3.4z"/>
<g>
	<path class="st1" d="M45.9,49.5h16.9c0.7,0,1.3-0.6,1.3-1.3l1.7-9.8c0-0.7-0.6-1.3-1.3-1.3H47.5l-2.1,12.2
		C45.5,49.5,45.7,49.5,45.9,49.5z M54.3,42.6c0.3,0,0.6,0.3,0.6,0.6s-0.3,0.6-0.6,0.6c-0.3,0-0.6-0.3-0.6-0.6S53.9,42.6,54.3,42.6z"
		/>
	<path class="st1" d="M17.8,37L17.8,37c0-0.6,0.3-1.1,0.8-1.5C18.1,35.9,17.8,36.4,17.8,37z"/>
	<path class="st1" d="M46.4,35.4c0.6,0.3,1.1,0.9,1.1,1.6C47.5,36.3,47,35.7,46.4,35.4z"/>
	<path class="st1" d="M11.1,32.4c2.1,0,3.9-2.3,4.1-5.4c0-0.2,0-0.4,0-0.6l-0.7,0.8c0.4-0.8-0.9-2.9-0.9-2.9c-2.2,1.6-5.5,0-5.5,0
		c-1,0.4-0.5,3.2-0.5,3.2c-0.2-0.2-0.5-0.3-0.7-0.3C7.3,30.2,9,32.4,11.1,32.4z"/>
	<path class="st1" d="M54.1,32.4c2.1,0,3.9-2.3,4.1-5.4c0-0.2,0-0.4,0-0.6l-0.7,0.8c0.4-0.8-0.9-2.9-0.9-2.9c-2.2,1.6-5.5,0-5.5,0
		c-1,0.4-0.5,3.2-0.5,3.2c-0.2-0.2-0.5-0.3-0.7-0.3C50.3,30.2,52,32.4,54.1,32.4z"/>
	<path class="st1" d="M32.4,29.3c2.7,0,5-3,5.3-6.9c0-0.2,0.1-0.5,0.1-0.8l-0.9,1c0.5-1-1.2-3.7-1.2-3.7c-2.8,2-7,0-7,0
		C27.4,19.5,28,23,28,23c-0.3-0.2-0.6-0.3-0.8-0.4C27.5,26.4,29.7,29.3,32.4,29.3z"/>
	<path class="st1" d="M45.6,35.4h-26c-0.9,0-1.6,0.7-1.6,1.6l2.2,12.6c0,0.9,0.7,1.6,1.6,1.6h21.7c0.9,0,1.6-0.7,1.6-1.6L47.3,37
		C47.3,36.2,46.5,35.4,45.6,35.4z M32.6,43.9c-0.4,0-0.8-0.4-0.8-0.8c0-0.4,0.3-0.8,0.8-0.8c0.4,0,0.8,0.3,0.8,0.8
		C33.4,43.6,33.1,43.9,32.6,43.9z"/>
	<path class="st1" d="M1.2,37.2c-0.7,0-1.3,0.6-1.3,1.3l1.7,9.8c0,0.7,0.6,1.3,1.3,1.3h16.9c0.1,0,0.1,0,0.2,0l-2.1-12.3L1.2,37.2
		L1.2,37.2z M11.3,43.8c-0.3,0-0.6-0.3-0.6-0.6s0.3-0.6,0.6-0.6c0.3,0,0.6,0.3,0.6,0.6S11.6,43.8,11.3,43.8z"/>
	<path d="M46.4,35.4c0.6,0.3,1.1,0.9,1.1,1.6h15.9c-0.7-2.4-2.8-4.1-5.3-4.4c0,1.1-1.7,2-3.7,2c-2.1,0-3.7-0.9-3.7-2
		c-1.9,0.2-3.5,1.2-4.5,2.6h0C46.2,35.3,46.3,35.3,46.4,35.4z"/>
	<path d="M49.4,27.1c0,0,0,0.1,0,0.1c0.3,3.4,2.3,6,4.7,6c2.4,0,4.4-2.7,4.7-6.1c0-0.2,0.1-0.5,0.1-0.8c0-0.3,0-0.5-0.1-0.8
		c-0.3-2.4-2.3-4.2-4.7-4.2c-2.4,0-4.3,1.8-4.7,4.2c0,0.2-0.1,0.5-0.1,0.8c0,0.1,0,0.2,0,0.3C49.4,26.8,49.4,26.9,49.4,27.1z
		 M51.2,24.4c0,0,3.3,1.6,5.5,0c0,0,1.3,2.1,0.9,2.9l0.7-0.8c0,0.2,0,0.4,0,0.6c-0.2,3-2,5.4-4.1,5.4c-2.1,0-3.8-2.3-4.1-5.2
		c0.2,0,0.4,0.1,0.7,0.3C50.7,27.5,50.2,24.8,51.2,24.4z"/>
	<path d="M63.9,49.9H45.3c0-0.1,0-0.2,0-0.3l0-0.1c0.2,0.1,0.3,0.1,0.5,0.1h16.9c0.8,0,1.4-0.6,1.4-1.4l1.7-9.8
		c0-0.8-0.6-1.4-1.4-1.4h-1h0H47.5c0-0.7-0.5-1.4-1.1-1.6c-0.1,0-0.2-0.1-0.3-0.1h0c-0.1,0-0.3,0-0.4,0h-1.3H20.9h0h-1.3
		c0,0-0.1,0-0.1,0c-0.4,0-0.7,0.1-1,0.3c-0.5,0.3-0.8,0.8-0.8,1.5h0H2.2h0h-1c-0.8,0-1.4,0.6-1.4,1.4l1.7,9.8c0,0.8,0.6,1.4,1.4,1.4
		h16.9c0.1,0,0.1,0,0.2,0c0,0.1,0,0.2,0,0.3H1.7c-0.2,0-0.3,0.2-0.3,0.3c0,0.2,0.2,0.3,0.3,0.3h18.5c0.3,0.5,0.9,0.9,1.6,0.9h21.7
		c0.7,0,1.2-0.4,1.6-0.9h18.8c0.2,0,0.3-0.2,0.3-0.3C64.2,50.1,64,49.9,63.9,49.9z M64.4,37.2c0.7,0,1.3,0.6,1.3,1.3L64,48.2
		c0,0.7-0.6,1.3-1.3,1.3H45.9c-0.2,0-0.3,0-0.5-0.1l2.1-12.2H64.4z M19.7,49.5H2.9c-0.7,0-1.3-0.6-1.3-1.3l-1.7-9.8
		c0-0.7,0.6-1.3,1.3-1.3h16.6l2.1,12.3C19.9,49.5,19.8,49.5,19.7,49.5z M43.5,51.3H21.8c-0.9,0-1.6-0.7-1.6-1.6L18,37.1
		c0-0.9,0.7-1.6,1.6-1.6h26c0.9,0,1.6,0.7,1.6,1.6l-2.2,12.6C45.1,50.5,44.4,51.3,43.5,51.3z"/>
	<circle cx="54.3" cy="43.2" r="0.6"/>
	<path d="M17.8,37c0-0.6,0.3-1.1,0.8-1.5c0.3-0.2,0.6-0.3,1-0.3c-1-1.4-2.6-2.4-4.5-2.6c0,1.1-1.7,2-3.7,2s-3.7-0.9-3.7-2
		c-2.5,0.2-4.6,2-5.3,4.4h0H17.8z"/>
	<path d="M6.5,27.1c0,0,0,0.1,0,0.1c0.3,3.4,2.3,6,4.7,6c2.4,0,4.4-2.7,4.7-6.1c0-0.2,0.1-0.5,0.1-0.8c0-0.3,0-0.5-0.1-0.8
		c-0.3-2.4-2.3-4.2-4.7-4.2c-2.4,0-4.3,1.8-4.7,4.2c0,0.2-0.1,0.5-0.1,0.8c0,0.1,0,0.2,0,0.3C6.4,26.8,6.4,26.9,6.5,27.1z M8.2,24.4
		c0,0,3.3,1.6,5.5,0c0,0,1.3,2.1,0.9,2.9l0.7-0.8c0,0.2,0,0.4,0,0.6c-0.2,3-2,5.4-4.1,5.4c-2.1,0-3.8-2.3-4.1-5.2
		c0.2,0,0.4,0.1,0.7,0.3C7.7,27.5,7.2,24.8,8.2,24.4z"/>
	<circle cx="11.3" cy="43.2" r="0.6"/>
	<path d="M44.3,35.2c-0.9-3-3.6-5.3-6.9-5.6c0,1.4-2.2,2.6-4.8,2.6s-4.8-1.2-4.8-2.6c-3.3,0.3-6,2.6-6.9,5.6h0H44.3z"/>
	<path d="M26.4,22.4c0,0.1,0,0.1,0,0.2c0.4,4.3,2.9,7.7,6,7.7c3.1,0,5.7-3.4,6-7.8c0-0.3,0.1-0.6,0.1-1c0-0.3,0-0.7-0.1-1
		c-0.4-3.1-3-5.4-6-5.4c-3,0-5.6,2.4-6,5.4c0,0.3-0.1,0.6-0.1,1c0,0.1,0,0.3,0,0.4C26.4,22.1,26.4,22.2,26.4,22.4z M28.7,19
		c0,0,4.2,2,7,0c0,0,1.7,2.6,1.2,3.7l0.9-1c0,0.3,0,0.5-0.1,0.8c-0.3,3.9-2.5,6.9-5.3,6.9c-2.7,0-4.9-2.9-5.3-6.7
		c0.2,0.1,0.5,0.2,0.8,0.4C28,23,27.4,19.5,28.7,19z"/>
	<path d="M44.9,51.8H20.3c-0.2,0-0.4,0.2-0.4,0.4c0,0.2,0.2,0.4,0.4,0.4h24.6c0.2,0,0.4-0.2,0.4-0.4S45.2,51.8,44.9,51.8z"/>
	<circle cx="32.6" cy="43.1" r="0.8"/>
</g>
</svg>
