<svg width="1143" height="300" viewBox="0 0 1143 300" fill="none" xmlns="http://www.w3.org/2000/svg">
<path d="M10.2779 115.534V117.334C9.31786 117.898 8.24386 118.18 7.05586 118.18C5.26786 118.18 3.76786 117.58 2.55586 116.38C1.35586 115.168 0.755859 113.668 0.755859 111.88C0.755859 110.092 1.35586 108.598 2.55586 107.398C3.76786 106.186 5.26786 105.58 7.05586 105.58C8.24386 105.58 9.31786 105.862 10.2779 106.426V108.244C9.38986 107.488 8.31586 107.11 7.05586 107.11C5.72386 107.11 4.60786 107.572 3.70786 108.496C2.81986 109.42 2.37586 110.548 2.37586 111.88C2.37586 113.224 2.81986 114.358 3.70786 115.282C4.60786 116.194 5.72386 116.65 7.05586 116.65C8.32786 116.65 9.40186 116.278 10.2779 115.534Z" fill="white"/>
<path d="M11.617 113.608C11.617 112.336 12.055 111.262 12.931 110.386C13.819 109.498 14.899 109.054 16.171 109.054C17.467 109.054 18.547 109.492 19.411 110.368C20.287 111.244 20.725 112.324 20.725 113.608C20.725 114.904 20.287 115.99 19.411 116.866C18.547 117.742 17.467 118.18 16.171 118.18C14.887 118.18 13.807 117.742 12.931 116.866C12.055 115.99 11.617 114.904 11.617 113.608ZM14.029 111.43C13.453 112.018 13.165 112.744 13.165 113.608C13.165 114.472 13.453 115.21 14.029 115.822C14.605 116.422 15.319 116.722 16.171 116.722C17.035 116.722 17.755 116.422 18.331 115.822C18.907 115.21 19.195 114.472 19.195 113.608C19.195 112.744 18.907 112.018 18.331 111.43C17.755 110.83 17.035 110.53 16.171 110.53C15.319 110.53 14.605 110.83 14.029 111.43Z" fill="white"/>
<path d="M24.146 109.234V110.62C24.686 109.576 25.562 109.054 26.774 109.054C27.77 109.054 28.568 109.378 29.168 110.026C29.768 110.674 30.068 111.508 30.068 112.528V118H28.574V112.888C28.574 112.192 28.37 111.628 27.962 111.196C27.566 110.752 27.032 110.53 26.36 110.53C25.7 110.53 25.172 110.734 24.776 111.142C24.38 111.55 24.17 112.096 24.146 112.78V118H22.652V109.234H24.146Z" fill="white"/>
<path d="M38.7606 115.948V117.568C38.1006 117.976 37.3446 118.18 36.4926 118.18C35.1726 118.18 34.0746 117.748 33.1986 116.884C32.3346 116.008 31.9026 114.916 31.9026 113.608C31.9026 112.312 32.3346 111.232 33.1986 110.368C34.0746 109.492 35.1726 109.054 36.4926 109.054C37.3326 109.054 38.0886 109.252 38.7606 109.648V111.304C38.1246 110.788 37.3686 110.53 36.4926 110.53C35.6286 110.53 34.9026 110.83 34.3146 111.43C33.7266 112.018 33.4326 112.744 33.4326 113.608C33.4326 114.472 33.7266 115.21 34.3146 115.822C34.9026 116.422 35.6286 116.722 36.4926 116.722C37.3686 116.722 38.1246 116.464 38.7606 115.948Z" fill="white"/>
<path d="M48.5733 114.166H41.5533C41.6493 114.946 41.9733 115.582 42.5253 116.074C43.0893 116.566 43.7853 116.812 44.6133 116.812C45.7773 116.812 46.8273 116.446 47.7633 115.714V117.262C46.8153 117.874 45.7293 118.18 44.5053 118.18C43.2333 118.18 42.1713 117.748 41.3193 116.884C40.4673 116.02 40.0413 114.928 40.0413 113.608C40.0413 112.324 40.4553 111.244 41.2833 110.368C42.1233 109.492 43.1673 109.054 44.4153 109.054C45.6513 109.054 46.6653 109.468 47.4573 110.296C48.2493 111.124 48.6453 112.144 48.6453 113.356C48.6453 113.656 48.6213 113.926 48.5733 114.166ZM46.3773 111.088C45.8493 110.596 45.1953 110.35 44.4153 110.35C43.6353 110.35 42.9753 110.602 42.4353 111.106C41.9073 111.61 41.6133 112.234 41.5533 112.978H47.1873C47.1753 112.198 46.9053 111.568 46.3773 111.088Z" fill="white"/>
<path d="M51.9195 109.234V111.07C52.2435 110.434 52.6935 109.942 53.2695 109.594C53.8455 109.234 54.5055 109.054 55.2495 109.054C56.4975 109.054 57.5295 109.492 58.3455 110.368C59.1735 111.244 59.5875 112.324 59.5875 113.608C59.5875 114.916 59.1735 116.008 58.3455 116.884C57.5295 117.748 56.4915 118.18 55.2315 118.18C54.4995 118.18 53.8455 118.012 53.2695 117.676C52.6935 117.328 52.2435 116.854 51.9195 116.254V121.69H50.4255V109.234H51.9195ZM51.9195 113.608C51.9195 114.472 52.2135 115.204 52.8015 115.804C53.3895 116.404 54.1155 116.704 54.9795 116.704C55.8435 116.704 56.5635 116.404 57.1395 115.804C57.7275 115.204 58.0215 114.472 58.0215 113.608C58.0215 112.756 57.7275 112.03 57.1395 111.43C56.5515 110.83 55.8315 110.53 54.9795 110.53C54.1155 110.53 53.3895 110.83 52.8015 111.43C52.2135 112.03 51.9195 112.756 51.9195 113.608Z" fill="white"/>
<path d="M63.5375 118H62.0435V110.53H60.4055V109.234H62.1155V107.092L63.5375 106.714V109.234H65.2655V110.53H63.5375V118Z" fill="white"/>
<path d="M1085.59 118V105.76H1089.21C1090.37 105.76 1091.3 106.066 1092 106.678C1092.7 107.29 1093.06 108.13 1093.06 109.198C1093.06 110.038 1092.82 110.728 1092.36 111.268C1091.9 111.796 1091.29 112.15 1090.54 112.33C1091.28 112.678 1091.94 113.356 1092.52 114.364C1093.09 115.372 1093.49 116.584 1093.71 118H1092.1C1091.83 116.488 1091.34 115.258 1090.65 114.31C1089.96 113.362 1089.22 112.888 1088.41 112.888H1087.14V118H1085.59ZM1090.83 110.872C1091.25 110.5 1091.46 109.99 1091.46 109.342C1091.46 108.694 1091.25 108.184 1090.83 107.812C1090.41 107.428 1089.87 107.236 1089.21 107.236H1087.14V111.412H1089.21C1089.87 111.412 1090.41 111.232 1090.83 110.872Z" fill="white"/>
<path d="M1103.29 114.166H1096.27C1096.37 114.946 1096.69 115.582 1097.24 116.074C1097.81 116.566 1098.5 116.812 1099.33 116.812C1100.5 116.812 1101.55 116.446 1102.48 115.714V117.262C1101.53 117.874 1100.45 118.18 1099.22 118.18C1097.95 118.18 1096.89 117.748 1096.04 116.884C1095.19 116.02 1094.76 114.928 1094.76 113.608C1094.76 112.324 1095.17 111.244 1096 110.368C1096.84 109.492 1097.89 109.054 1099.13 109.054C1100.37 109.054 1101.38 109.468 1102.18 110.296C1102.97 111.124 1103.36 112.144 1103.36 113.356C1103.36 113.656 1103.34 113.926 1103.29 114.166ZM1101.1 111.088C1100.57 110.596 1099.91 110.35 1099.13 110.35C1098.35 110.35 1097.69 110.602 1097.15 111.106C1096.63 111.61 1096.33 112.234 1096.27 112.978H1101.91C1101.89 112.198 1101.62 111.568 1101.1 111.088Z" fill="white"/>
<path d="M1106.66 105.58V118H1105.16V105.58H1106.66Z" fill="white"/>
<path d="M1117.14 114.166H1110.12C1110.22 114.946 1110.54 115.582 1111.1 116.074C1111.66 116.566 1112.36 116.812 1113.18 116.812C1114.35 116.812 1115.4 116.446 1116.33 115.714V117.262C1115.39 117.874 1114.3 118.18 1113.08 118.18C1111.8 118.18 1110.74 117.748 1109.89 116.884C1109.04 116.02 1108.61 114.928 1108.61 113.608C1108.61 112.324 1109.03 111.244 1109.85 110.368C1110.69 109.492 1111.74 109.054 1112.99 109.054C1114.22 109.054 1115.24 109.468 1116.03 110.296C1116.82 111.124 1117.22 112.144 1117.22 113.356C1117.22 113.656 1117.19 113.926 1117.14 114.166ZM1114.95 111.088C1114.42 110.596 1113.77 110.35 1112.99 110.35C1112.21 110.35 1111.55 110.602 1111.01 111.106C1110.48 111.61 1110.18 112.234 1110.12 112.978H1115.76C1115.75 112.198 1115.48 111.568 1114.95 111.088Z" fill="white"/>
<path d="M1119.25 111.142V109.666C1120.06 109.258 1120.9 109.054 1121.77 109.054C1122.81 109.054 1123.63 109.336 1124.23 109.9C1124.85 110.452 1125.15 111.292 1125.15 112.42V118H1123.66V117.046C1123.14 117.802 1122.37 118.18 1121.35 118.18C1120.42 118.18 1119.67 117.904 1119.12 117.352C1118.57 116.788 1118.29 116.092 1118.29 115.264C1118.29 114.448 1118.58 113.764 1119.16 113.212C1119.75 112.66 1120.48 112.384 1121.37 112.384C1121.83 112.384 1122.27 112.486 1122.69 112.69C1123.11 112.882 1123.43 113.122 1123.66 113.41V112.402C1123.66 111.742 1123.46 111.25 1123.06 110.926C1122.68 110.59 1122.2 110.422 1121.62 110.422C1120.82 110.422 1120.03 110.662 1119.25 111.142ZM1119.79 115.264C1119.79 115.756 1119.97 116.176 1120.35 116.524C1120.73 116.86 1121.19 117.028 1121.71 117.028C1122.24 117.028 1122.69 116.86 1123.06 116.524C1123.45 116.176 1123.64 115.756 1123.64 115.264C1123.64 114.796 1123.45 114.394 1123.06 114.058C1122.68 113.71 1122.23 113.536 1121.71 113.536C1121.19 113.536 1120.73 113.704 1120.35 114.04C1119.97 114.376 1119.79 114.784 1119.79 115.264Z" fill="white"/>
<path d="M1132.09 109.504V111.088C1131.46 110.62 1130.79 110.386 1130.09 110.386C1129.64 110.386 1129.28 110.494 1129.03 110.71C1128.79 110.914 1128.67 111.178 1128.67 111.502C1128.67 111.73 1128.73 111.922 1128.85 112.078C1128.97 112.222 1129.17 112.378 1129.45 112.546L1130.99 113.464C1131.98 114.052 1132.47 114.808 1132.47 115.732C1132.47 116.476 1132.2 117.07 1131.66 117.514C1131.12 117.958 1130.39 118.18 1129.46 118.18C1128.65 118.18 1127.89 118.006 1127.2 117.658V116.038C1127.82 116.59 1128.55 116.866 1129.39 116.866C1129.87 116.866 1130.24 116.764 1130.51 116.56C1130.78 116.344 1130.92 116.068 1130.92 115.732C1130.92 115.3 1130.62 114.904 1130.02 114.544L1128.4 113.572C1127.54 113.068 1127.11 112.366 1127.11 111.466C1127.11 110.758 1127.36 110.182 1127.88 109.738C1128.41 109.282 1129.14 109.054 1130.08 109.054C1130.82 109.054 1131.49 109.204 1132.09 109.504Z" fill="white"/>
<path d="M1142.39 114.166H1135.37C1135.46 114.946 1135.79 115.582 1136.34 116.074C1136.9 116.566 1137.6 116.812 1138.43 116.812C1139.59 116.812 1140.64 116.446 1141.58 115.714V117.262C1140.63 117.874 1139.54 118.18 1138.32 118.18C1137.05 118.18 1135.98 117.748 1135.13 116.884C1134.28 116.02 1133.85 114.928 1133.85 113.608C1133.85 112.324 1134.27 111.244 1135.1 110.368C1135.94 109.492 1136.98 109.054 1138.23 109.054C1139.46 109.054 1140.48 109.468 1141.27 110.296C1142.06 111.124 1142.46 112.144 1142.46 113.356C1142.46 113.656 1142.43 113.926 1142.39 114.166ZM1140.19 111.088C1139.66 110.596 1139.01 110.35 1138.23 110.35C1137.45 110.35 1136.79 110.602 1136.25 111.106C1135.72 111.61 1135.43 112.234 1135.37 112.978H1141C1140.99 112.198 1140.72 111.568 1140.19 111.088Z" fill="white"/>
<circle cx="743" cy="150" r="149.5" stroke="#619CEF" stroke-linecap="round" stroke-dasharray="4 6"/>
<circle cx="403" cy="150" r="149.5" stroke="#619CEF" stroke-linecap="round" stroke-dasharray="4 6"/>
<line x1="33" y1="149.5" x2="1113" y2="149.5" stroke="#619CEF"/>
<circle cx="253" cy="150" r="100" fill="#5FB270"/>
<circle cx="33" cy="150" r="10" fill="#E0664C"/>
<circle cx="1113" cy="150" r="10" fill="#E0664C"/>
<circle cx="573" cy="150" r="100" fill="#619CEF"/>
<circle cx="893" cy="150" r="100" fill="#F5C844"/>
<line x1="413.5" y1="135" x2="413.5" y2="164" stroke="#619CEF"/>
<line x1="98.5" y1="135" x2="98.5" y2="164" stroke="#619CEF"/>
<line x1="733.5" y1="135" x2="733.5" y2="164" stroke="#619CEF"/>
<line x1="1048.5" y1="135" x2="1048.5" y2="164" stroke="#619CEF"/>
<path d="M219.483 155V138.68H225.243C227.659 138.68 229.587 139.44 231.027 140.96C232.483 142.464 233.211 144.424 233.211 146.84C233.211 149.256 232.483 151.224 231.027 152.744C229.587 154.248 227.659 155 225.243 155H219.483ZM225.219 140.648H221.547V153.032H225.219C227.011 153.032 228.435 152.456 229.491 151.304C230.547 150.152 231.075 148.664 231.075 146.84C231.075 145.032 230.547 143.552 229.491 142.4C228.435 141.232 227.011 140.648 225.219 140.648Z" fill="#191A2F"/>
<path d="M246.581 149.888H237.221C237.349 150.928 237.781 151.776 238.517 152.432C239.269 153.088 240.197 153.416 241.301 153.416C242.853 153.416 244.253 152.928 245.501 151.952V154.016C244.237 154.832 242.789 155.24 241.157 155.24C239.461 155.24 238.045 154.664 236.909 153.512C235.773 152.36 235.205 150.904 235.205 149.144C235.205 147.432 235.757 145.992 236.861 144.824C237.981 143.656 239.373 143.072 241.037 143.072C242.685 143.072 244.037 143.624 245.093 144.728C246.149 145.832 246.677 147.192 246.677 148.808C246.677 149.208 246.645 149.568 246.581 149.888ZM243.653 145.784C242.949 145.128 242.077 144.8 241.037 144.8C239.997 144.8 239.117 145.136 238.397 145.808C237.693 146.48 237.301 147.312 237.221 148.304H244.733C244.717 147.264 244.357 146.424 243.653 145.784Z" fill="#191A2F"/>
<path d="M255.122 143.672V145.784C254.274 145.16 253.386 144.848 252.458 144.848C251.85 144.848 251.378 144.992 251.042 145.28C250.722 145.552 250.562 145.904 250.562 146.336C250.562 146.64 250.642 146.896 250.802 147.104C250.962 147.296 251.226 147.504 251.594 147.728L253.658 148.952C254.97 149.736 255.626 150.744 255.626 151.976C255.626 152.968 255.266 153.76 254.546 154.352C253.826 154.944 252.85 155.24 251.618 155.24C250.53 155.24 249.522 155.008 248.594 154.544V152.384C249.426 153.12 250.402 153.488 251.522 153.488C252.162 153.488 252.658 153.352 253.01 153.08C253.378 152.792 253.562 152.424 253.562 151.976C253.562 151.4 253.162 150.872 252.362 150.392L250.202 149.096C249.05 148.424 248.474 147.488 248.474 146.288C248.474 145.344 248.818 144.576 249.506 143.984C250.21 143.376 251.186 143.072 252.434 143.072C253.426 143.072 254.322 143.272 255.122 143.672Z" fill="#191A2F"/>
<path d="M260.206 143.312V155H258.214V143.312H260.206ZM258.262 140.576C258.022 140.32 257.902 140.008 257.902 139.64C257.902 139.272 258.022 138.96 258.262 138.704C258.518 138.448 258.83 138.32 259.198 138.32C259.582 138.32 259.902 138.448 260.158 138.704C260.414 138.944 260.542 139.256 260.542 139.64C260.542 140.008 260.414 140.32 260.158 140.576C259.918 140.816 259.598 140.936 259.198 140.936C258.83 140.936 258.518 140.816 258.262 140.576Z" fill="#191A2F"/>
<path d="M272.847 143.312H274.839V154.112C274.839 155.984 274.287 157.456 273.183 158.528C272.079 159.616 270.607 160.16 268.767 160.16C267.199 160.16 265.831 159.824 264.663 159.152V156.992C265.847 157.84 267.223 158.264 268.791 158.264C269.959 158.264 270.927 157.896 271.695 157.16C272.463 156.44 272.847 155.504 272.847 154.352V152.456C272.415 153.208 271.815 153.808 271.047 154.256C270.295 154.688 269.431 154.904 268.455 154.904C266.823 154.904 265.463 154.344 264.375 153.224C263.303 152.088 262.767 150.68 262.767 149C262.767 147.32 263.303 145.912 264.375 144.776C265.463 143.64 266.823 143.072 268.455 143.072C269.431 143.072 270.295 143.304 271.047 143.768C271.815 144.216 272.415 144.832 272.847 145.616V143.312ZM271.623 151.832C272.375 151.064 272.751 150.12 272.751 149C272.751 147.88 272.375 146.944 271.623 146.192C270.887 145.44 269.951 145.064 268.815 145.064C267.711 145.064 266.783 145.448 266.031 146.216C265.279 146.968 264.903 147.896 264.903 149C264.903 150.12 265.271 151.064 266.007 151.832C266.759 152.584 267.695 152.96 268.815 152.96C269.951 152.96 270.887 152.584 271.623 151.832Z" fill="#191A2F"/>
<path d="M280.199 143.312V145.16C280.919 143.768 282.087 143.072 283.703 143.072C285.031 143.072 286.095 143.504 286.895 144.368C287.695 145.232 288.095 146.344 288.095 147.704V155H286.103V148.184C286.103 147.256 285.831 146.504 285.287 145.928C284.759 145.336 284.047 145.04 283.151 145.04C282.271 145.04 281.567 145.312 281.039 145.856C280.511 146.4 280.231 147.128 280.199 148.04V155H278.207V143.312H280.199Z" fill="#191A2F"/>
<path d="M505.237 155V138.68H510.997C513.413 138.68 515.341 139.44 516.781 140.96C518.237 142.464 518.965 144.424 518.965 146.84C518.965 149.256 518.237 151.224 516.781 152.744C515.341 154.248 513.413 155 510.997 155H505.237ZM510.973 140.648H507.301V153.032H510.973C512.765 153.032 514.189 152.456 515.245 151.304C516.301 150.152 516.829 148.664 516.829 146.84C516.829 145.032 516.301 143.552 515.245 142.4C514.189 141.232 512.765 140.648 510.973 140.648Z" fill="#191A2F"/>
<path d="M532.335 149.888H522.975C523.103 150.928 523.535 151.776 524.271 152.432C525.023 153.088 525.951 153.416 527.055 153.416C528.607 153.416 530.007 152.928 531.255 151.952V154.016C529.991 154.832 528.543 155.24 526.911 155.24C525.215 155.24 523.799 154.664 522.663 153.512C521.527 152.36 520.959 150.904 520.959 149.144C520.959 147.432 521.511 145.992 522.615 144.824C523.735 143.656 525.127 143.072 526.791 143.072C528.439 143.072 529.791 143.624 530.847 144.728C531.903 145.832 532.431 147.192 532.431 148.808C532.431 149.208 532.399 149.568 532.335 149.888ZM529.407 145.784C528.703 145.128 527.831 144.8 526.791 144.8C525.751 144.8 524.871 145.136 524.151 145.808C523.447 146.48 523.055 147.312 522.975 148.304H530.487C530.471 147.264 530.111 146.424 529.407 145.784Z" fill="#191A2F"/>
<path d="M533.203 143.312H535.315L538.915 152.552L542.539 143.312H544.651L539.971 155H537.859L533.203 143.312Z" fill="#191A2F"/>
<path d="M556.874 149.888H547.514C547.642 150.928 548.074 151.776 548.81 152.432C549.562 153.088 550.49 153.416 551.594 153.416C553.146 153.416 554.546 152.928 555.794 151.952V154.016C554.53 154.832 553.082 155.24 551.45 155.24C549.754 155.24 548.338 154.664 547.202 153.512C546.066 152.36 545.498 150.904 545.498 149.144C545.498 147.432 546.05 145.992 547.154 144.824C548.274 143.656 549.666 143.072 551.33 143.072C552.978 143.072 554.33 143.624 555.386 144.728C556.442 145.832 556.97 147.192 556.97 148.808C556.97 149.208 556.938 149.568 556.874 149.888ZM553.946 145.784C553.242 145.128 552.37 144.8 551.33 144.8C550.29 144.8 549.41 145.136 548.69 145.808C547.986 146.48 547.594 147.312 547.514 148.304H555.026C555.01 147.264 554.65 146.424 553.946 145.784Z" fill="#191A2F"/>
<path d="M561.359 138.44V155H559.367V138.44H561.359Z" fill="#191A2F"/>
<path d="M563.943 149.144C563.943 147.448 564.527 146.016 565.695 144.848C566.879 143.664 568.319 143.072 570.015 143.072C571.743 143.072 573.183 143.656 574.335 144.824C575.503 145.992 576.087 147.432 576.087 149.144C576.087 150.872 575.503 152.32 574.335 153.488C573.183 154.656 571.743 155.24 570.015 155.24C568.303 155.24 566.863 154.656 565.695 153.488C564.527 152.32 563.943 150.872 563.943 149.144ZM567.159 146.24C566.391 147.024 566.007 147.992 566.007 149.144C566.007 150.296 566.391 151.28 567.159 152.096C567.927 152.896 568.879 153.296 570.015 153.296C571.167 153.296 572.127 152.896 572.895 152.096C573.663 151.28 574.047 150.296 574.047 149.144C574.047 147.992 573.663 147.024 572.895 146.24C572.127 145.44 571.167 145.04 570.015 145.04C568.879 145.04 567.927 145.44 567.159 146.24Z" fill="#191A2F"/>
<path d="M580.648 143.312V145.76C581.08 144.912 581.68 144.256 582.448 143.792C583.216 143.312 584.096 143.072 585.088 143.072C586.752 143.072 588.128 143.656 589.216 144.824C590.32 145.992 590.872 147.432 590.872 149.144C590.872 150.888 590.32 152.344 589.216 153.512C588.128 154.664 586.744 155.24 585.064 155.24C584.088 155.24 583.216 155.016 582.448 154.568C581.68 154.104 581.08 153.472 580.648 152.672V159.92H578.656V143.312H580.648ZM580.648 149.144C580.648 150.296 581.04 151.272 581.824 152.072C582.608 152.872 583.576 153.272 584.728 153.272C585.88 153.272 586.84 152.872 587.608 152.072C588.392 151.272 588.784 150.296 588.784 149.144C588.784 148.008 588.392 147.04 587.608 146.24C586.824 145.44 585.864 145.04 584.728 145.04C583.576 145.04 582.608 145.44 581.824 146.24C581.04 147.04 580.648 148.008 580.648 149.144Z" fill="#191A2F"/>
<path d="M595.437 143.312V144.92C596.125 143.688 597.205 143.072 598.677 143.072C599.557 143.072 600.325 143.288 600.981 143.72C601.653 144.136 602.141 144.728 602.445 145.496C602.717 144.744 603.157 144.152 603.765 143.72C604.389 143.288 605.141 143.072 606.021 143.072C607.205 143.072 608.181 143.472 608.949 144.272C609.733 145.072 610.125 146.128 610.125 147.44V155H608.133V147.92C608.133 147.008 607.885 146.304 607.389 145.808C606.909 145.296 606.269 145.04 605.469 145.04C604.669 145.04 604.021 145.296 603.525 145.808C603.029 146.32 602.781 147.024 602.781 147.92V155H600.789V147.92C600.789 147.008 600.541 146.304 600.045 145.808C599.565 145.296 598.933 145.04 598.149 145.04C597.349 145.04 596.701 145.28 596.205 145.76C595.725 146.224 595.469 146.888 595.437 147.752V155H593.445V143.312H595.437Z" fill="#191A2F"/>
<path d="M623.952 149.888H614.592C614.72 150.928 615.152 151.776 615.888 152.432C616.64 153.088 617.568 153.416 618.672 153.416C620.224 153.416 621.624 152.928 622.872 151.952V154.016C621.608 154.832 620.16 155.24 618.528 155.24C616.832 155.24 615.416 154.664 614.28 153.512C613.144 152.36 612.576 150.904 612.576 149.144C612.576 147.432 613.128 145.992 614.232 144.824C615.352 143.656 616.744 143.072 618.408 143.072C620.056 143.072 621.408 143.624 622.464 144.728C623.52 145.832 624.048 147.192 624.048 148.808C624.048 149.208 624.016 149.568 623.952 149.888ZM621.024 145.784C620.32 145.128 619.448 144.8 618.408 144.8C617.368 144.8 616.488 145.136 615.768 145.808C615.064 146.48 614.672 147.312 614.592 148.304H622.104C622.088 147.264 621.728 146.424 621.024 145.784Z" fill="#191A2F"/>
<path d="M628.413 143.312V145.16C629.133 143.768 630.301 143.072 631.917 143.072C633.245 143.072 634.309 143.504 635.109 144.368C635.909 145.232 636.309 146.344 636.309 147.704V155H634.317V148.184C634.317 147.256 634.045 146.504 633.501 145.928C632.973 145.336 632.261 145.04 631.365 145.04C630.485 145.04 629.781 145.312 629.253 145.856C628.725 146.4 628.445 147.128 628.413 148.04V155H626.421V143.312H628.413Z" fill="#191A2F"/>
<path d="M642.264 155H640.271V145.04H638.088V143.312H640.368V140.456L642.264 139.952V143.312H644.568V145.04H642.264V155Z" fill="#191A2F"/>
<path d="M851.585 144V129.648H847.217V127.68H857.969V129.648H853.649V144H851.585Z" fill="#191A2F"/>
<path d="M869.128 138.888H859.768C859.896 139.928 860.328 140.776 861.064 141.432C861.816 142.088 862.744 142.416 863.848 142.416C865.4 142.416 866.8 141.928 868.048 140.952V143.016C866.784 143.832 865.336 144.24 863.704 144.24C862.008 144.24 860.592 143.664 859.456 142.512C858.32 141.36 857.752 139.904 857.752 138.144C857.752 136.432 858.304 134.992 859.408 133.824C860.528 132.656 861.92 132.072 863.584 132.072C865.232 132.072 866.584 132.624 867.64 133.728C868.696 134.832 869.224 136.192 869.224 137.808C869.224 138.208 869.192 138.568 869.128 138.888ZM866.2 134.784C865.496 134.128 864.624 133.8 863.584 133.8C862.544 133.8 861.664 134.136 860.944 134.808C860.24 135.48 859.848 136.312 859.768 137.304H867.28C867.264 136.264 866.904 135.424 866.2 134.784Z" fill="#191A2F"/>
<path d="M877.669 132.672V134.784C876.821 134.16 875.933 133.848 875.005 133.848C874.397 133.848 873.925 133.992 873.589 134.28C873.269 134.552 873.109 134.904 873.109 135.336C873.109 135.64 873.189 135.896 873.349 136.104C873.509 136.296 873.773 136.504 874.141 136.728L876.205 137.952C877.517 138.736 878.173 139.744 878.173 140.976C878.173 141.968 877.813 142.76 877.093 143.352C876.373 143.944 875.397 144.24 874.165 144.24C873.077 144.24 872.069 144.008 871.141 143.544V141.384C871.973 142.12 872.949 142.488 874.069 142.488C874.709 142.488 875.205 142.352 875.557 142.08C875.925 141.792 876.109 141.424 876.109 140.976C876.109 140.4 875.709 139.872 874.909 139.392L872.749 138.096C871.597 137.424 871.021 136.488 871.021 135.288C871.021 134.344 871.365 133.576 872.053 132.984C872.757 132.376 873.733 132.072 874.981 132.072C875.973 132.072 876.869 132.272 877.669 132.672Z" fill="#191A2F"/>
<path d="M883.642 144H881.65V134.04H879.466V132.312H881.746V129.456L883.642 128.952V132.312H885.946V134.04H883.642V144Z" fill="#191A2F"/>
<path d="M889.902 132.312V144H887.91V132.312H889.902ZM887.958 129.576C887.718 129.32 887.598 129.008 887.598 128.64C887.598 128.272 887.718 127.96 887.958 127.704C888.214 127.448 888.526 127.32 888.894 127.32C889.278 127.32 889.598 127.448 889.854 127.704C890.11 127.944 890.238 128.256 890.238 128.64C890.238 129.008 890.11 129.32 889.854 129.576C889.614 129.816 889.294 129.936 888.894 129.936C888.526 129.936 888.214 129.816 887.958 129.576Z" fill="#191A2F"/>
<path d="M895.199 132.312V134.16C895.919 132.768 897.087 132.072 898.703 132.072C900.031 132.072 901.095 132.504 901.895 133.368C902.695 134.232 903.095 135.344 903.095 136.704V144H901.103V137.184C901.103 136.256 900.831 135.504 900.287 134.928C899.759 134.336 899.047 134.04 898.151 134.04C897.271 134.04 896.567 134.312 896.039 134.856C895.511 135.4 895.231 136.128 895.199 137.04V144H893.207V132.312H895.199Z" fill="#191A2F"/>
<path d="M915.621 132.312H917.613V143.112C917.613 144.984 917.061 146.456 915.957 147.528C914.853 148.616 913.381 149.16 911.541 149.16C909.973 149.16 908.605 148.824 907.437 148.152V145.992C908.621 146.84 909.997 147.264 911.565 147.264C912.733 147.264 913.701 146.896 914.469 146.16C915.237 145.44 915.621 144.504 915.621 143.352V141.456C915.189 142.208 914.589 142.808 913.821 143.256C913.069 143.688 912.205 143.904 911.229 143.904C909.597 143.904 908.237 143.344 907.149 142.224C906.077 141.088 905.541 139.68 905.541 138C905.541 136.32 906.077 134.912 907.149 133.776C908.237 132.64 909.597 132.072 911.229 132.072C912.205 132.072 913.069 132.304 913.821 132.768C914.589 133.216 915.189 133.832 915.621 134.616V132.312ZM914.397 140.832C915.149 140.064 915.525 139.12 915.525 138C915.525 136.88 915.149 135.944 914.397 135.192C913.661 134.44 912.725 134.064 911.589 134.064C910.485 134.064 909.557 134.448 908.805 135.216C908.053 135.968 907.677 136.896 907.677 138C907.677 139.12 908.045 140.064 908.781 140.832C909.533 141.584 910.469 141.96 911.589 141.96C912.725 141.96 913.661 141.584 914.397 140.832Z" fill="#191A2F"/>
<path d="M925.789 139.464C925.789 138.728 925.901 138.072 926.125 137.496C926.365 136.904 926.701 136.4 927.133 135.984C927.581 135.568 928.021 135.224 928.453 134.952C928.901 134.664 929.437 134.384 930.061 134.112L929.941 133.968C929.029 132.832 928.573 131.832 928.573 130.968C928.573 129.976 928.933 129.144 929.653 128.472C930.389 127.784 931.309 127.44 932.413 127.44C933.549 127.44 934.445 127.792 935.101 128.496C935.757 129.184 936.085 130.016 936.085 130.992C936.085 131.904 935.805 132.648 935.245 133.224C934.701 133.8 933.925 134.328 932.917 134.808L936.133 138.672L940.045 134.256V137.064L937.357 140.16L940.549 144H938.029L936.109 141.624C934.397 143.368 932.661 144.24 930.901 144.24C929.269 144.24 928.005 143.76 927.109 142.8C926.229 141.824 925.789 140.712 925.789 139.464ZM930.901 142.32C932.149 142.32 933.477 141.584 934.885 140.112L931.213 135.552C930.141 136.048 929.309 136.576 928.717 137.136C928.141 137.696 927.853 138.44 927.853 139.368C927.853 140.12 928.125 140.8 928.669 141.408C929.229 142.016 929.973 142.32 930.901 142.32ZM931.645 133.248L931.741 133.392C932.525 133.04 933.117 132.696 933.517 132.36C933.933 132.008 934.141 131.576 934.141 131.064C934.141 130.584 933.989 130.168 933.685 129.816C933.381 129.448 932.965 129.264 932.437 129.264C931.861 129.264 931.397 129.432 931.045 129.768C930.709 130.104 930.541 130.536 930.541 131.064C930.541 131.56 930.909 132.288 931.645 133.248Z" fill="#191A2F"/>
<path d="M853.908 165.424H847.668V172H845.604V155.68H854.388V157.648H847.668V163.456H853.908V165.424Z" fill="#191A2F"/>
<path d="M867.452 166.888H858.092C858.22 167.928 858.652 168.776 859.388 169.432C860.14 170.088 861.068 170.416 862.172 170.416C863.724 170.416 865.124 169.928 866.372 168.952V171.016C865.108 171.832 863.66 172.24 862.028 172.24C860.332 172.24 858.916 171.664 857.78 170.512C856.644 169.36 856.076 167.904 856.076 166.144C856.076 164.432 856.628 162.992 857.732 161.824C858.852 160.656 860.244 160.072 861.908 160.072C863.556 160.072 864.908 160.624 865.964 161.728C867.02 162.832 867.548 164.192 867.548 165.808C867.548 166.208 867.516 166.568 867.452 166.888ZM864.524 162.784C863.82 162.128 862.948 161.8 861.908 161.8C860.868 161.8 859.988 162.136 859.268 162.808C858.564 163.48 858.172 164.312 858.092 165.304H865.604C865.588 164.264 865.228 163.424 864.524 162.784Z" fill="#191A2F"/>
<path d="M880.553 166.888H871.193C871.321 167.928 871.753 168.776 872.489 169.432C873.241 170.088 874.169 170.416 875.273 170.416C876.825 170.416 878.225 169.928 879.473 168.952V171.016C878.209 171.832 876.761 172.24 875.129 172.24C873.433 172.24 872.017 171.664 870.881 170.512C869.745 169.36 869.177 167.904 869.177 166.144C869.177 164.432 869.729 162.992 870.833 161.824C871.953 160.656 873.345 160.072 875.009 160.072C876.657 160.072 878.009 160.624 879.065 161.728C880.121 162.832 880.649 164.192 880.649 165.808C880.649 166.208 880.617 166.568 880.553 166.888ZM877.625 162.784C876.921 162.128 876.049 161.8 875.009 161.8C873.969 161.8 873.089 162.136 872.369 162.808C871.665 163.48 871.273 164.312 871.193 165.304H878.705C878.689 164.264 878.329 163.424 877.625 162.784Z" fill="#191A2F"/>
<path d="M892.479 172V169.672C892.047 170.472 891.447 171.104 890.679 171.568C889.911 172.016 889.047 172.24 888.087 172.24C886.407 172.24 885.015 171.664 883.911 170.512C882.823 169.344 882.279 167.888 882.279 166.144C882.279 164.432 882.823 162.992 883.911 161.824C885.015 160.656 886.407 160.072 888.087 160.072C889.047 160.072 889.911 160.304 890.679 160.768C891.447 161.232 892.047 161.864 892.479 162.664V155.44H894.495V172H892.479ZM892.479 166.144C892.479 165.008 892.087 164.04 891.303 163.24C890.535 162.44 889.575 162.04 888.423 162.04C887.271 162.04 886.303 162.44 885.519 163.24C884.735 164.04 884.343 165.008 884.343 166.144C884.343 167.296 884.735 168.272 885.519 169.072C886.303 169.872 887.271 170.272 888.423 170.272C889.575 170.272 890.535 169.872 891.303 169.072C892.087 168.272 892.479 167.296 892.479 166.144Z" fill="#191A2F"/>
<path d="M899.804 169.672V172H897.812V155.44H899.804V162.664C900.236 161.864 900.836 161.232 901.604 160.768C902.388 160.304 903.268 160.072 904.244 160.072C905.908 160.072 907.284 160.656 908.372 161.824C909.476 162.992 910.028 164.432 910.028 166.144C910.028 167.872 909.476 169.32 908.372 170.488C907.284 171.656 905.908 172.24 904.244 172.24C903.268 172.24 902.388 172.016 901.604 171.568C900.836 171.104 900.236 170.472 899.804 169.672ZM899.804 166.144C899.804 167.296 900.196 168.272 900.98 169.072C901.764 169.872 902.732 170.272 903.884 170.272C905.036 170.272 905.996 169.872 906.764 169.072C907.548 168.272 907.94 167.296 907.94 166.144C907.94 165.008 907.548 164.04 906.764 163.24C905.98 162.44 905.02 162.04 903.884 162.04C902.732 162.04 901.764 162.44 900.98 163.24C900.196 164.04 899.804 165.008 899.804 166.144Z" fill="#191A2F"/>
<path d="M912.937 162.856V160.888C914.025 160.344 915.145 160.072 916.297 160.072C917.689 160.072 918.785 160.448 919.585 161.2C920.401 161.936 920.809 163.056 920.809 164.56V172H918.817V170.728C918.129 171.736 917.105 172.24 915.745 172.24C914.497 172.24 913.505 171.872 912.769 171.136C912.033 170.384 911.665 169.456 911.665 168.352C911.665 167.264 912.049 166.352 912.817 165.616C913.601 164.88 914.585 164.512 915.769 164.512C916.377 164.512 916.961 164.648 917.521 164.92C918.081 165.176 918.513 165.496 918.817 165.88V164.536C918.817 163.656 918.553 163 918.025 162.568C917.513 162.12 916.873 161.896 916.105 161.896C915.033 161.896 913.977 162.216 912.937 162.856ZM913.657 168.352C913.657 169.008 913.905 169.568 914.401 170.032C914.913 170.48 915.521 170.704 916.225 170.704C916.929 170.704 917.529 170.48 918.025 170.032C918.537 169.568 918.793 169.008 918.793 168.352C918.793 167.728 918.537 167.192 918.025 166.744C917.513 166.28 916.913 166.048 916.225 166.048C915.521 166.048 914.913 166.272 914.401 166.72C913.905 167.168 913.657 167.712 913.657 168.352Z" fill="#191A2F"/>
<path d="M932.392 169.264V171.424C931.512 171.968 930.504 172.24 929.368 172.24C927.608 172.24 926.144 171.664 924.976 170.512C923.824 169.344 923.248 167.888 923.248 166.144C923.248 164.416 923.824 162.976 924.976 161.824C926.144 160.656 927.608 160.072 929.368 160.072C930.488 160.072 931.496 160.336 932.392 160.864V163.072C931.544 162.384 930.536 162.04 929.368 162.04C928.216 162.04 927.248 162.44 926.464 163.24C925.68 164.024 925.288 164.992 925.288 166.144C925.288 167.296 925.68 168.28 926.464 169.096C927.248 169.896 928.216 170.296 929.368 170.296C930.536 170.296 931.544 169.952 932.392 169.264Z" fill="#191A2F"/>
<path d="M935.054 172V155.44H937.046V165.88L941.75 160.312H944.15L940.262 164.992L944.246 172H941.894L938.774 166.408L937.046 168.424V172H935.054Z" fill="#191A2F"/>
</svg>
