<?xml version="1.0" encoding="UTF-8"?> <svg xmlns="http://www.w3.org/2000/svg" xmlns:xlink="http://www.w3.org/1999/xlink" width="36pt" height="30pt" viewBox="0 0 36 30" version="1.1"><g id="surface1"><path style=" stroke:none;fill-rule:nonzero;fill:rgb(100%,84.313725%,25.098039%);fill-opacity:1;" d="M 23.40625 30.007812 L 12.097656 30.007812 C 9.996094 30.007812 8.25 28.261719 8.25 26.160156 L 8.25 3.847656 C 8.25 1.746094 9.953125 0 12.097656 0 L 23.453125 0 C 25.550781 0 27.253906 1.746094 27.253906 3.847656 L 27.253906 26.152344 C 27.203125 28.304688 25.507812 30.007812 23.40625 30.007812 Z M 12.097656 0.996094 C 10.5 0.996094 9.246094 2.296875 9.246094 3.847656 L 9.246094 26.152344 C 9.246094 27.703125 10.5 29.003906 12.097656 29.003906 L 23.453125 29.003906 C 25.003906 29.003906 26.25 27.75 26.300781 26.152344 L 26.300781 3.847656 C 26.25 2.296875 25.003906 0.996094 23.398438 0.996094 Z M 12.097656 0.996094 "></path><path style=" stroke:none;fill-rule:nonzero;fill:rgb(100%,84.313725%,25.098039%);fill-opacity:1;" d="M 8.753906 5.101562 L 26.761719 5.101562 L 26.761719 6.097656 L 8.753906 6.097656 Z M 8.753906 5.101562 "></path><path style=" stroke:none;fill-rule:nonzero;fill:rgb(100%,84.313725%,25.098039%);fill-opacity:1;" d="M 8.753906 23.910156 L 26.761719 23.910156 L 26.761719 24.90625 L 8.753906 24.90625 Z M 8.753906 23.910156 "></path><path style=" stroke:none;fill-rule:nonzero;fill:rgb(100%,84.313725%,25.098039%);fill-opacity:1;" d="M 17.753906 28.605469 C 16.851562 28.605469 16.15625 27.90625 16.15625 27.007812 C 16.15625 26.109375 16.851562 25.410156 17.753906 25.410156 C 18.652344 25.410156 19.351562 26.109375 19.351562 27.007812 C 19.351562 27.90625 18.652344 28.605469 17.753906 28.605469 Z M 17.753906 26.355469 C 17.398438 26.355469 17.152344 26.601562 17.152344 26.953125 C 17.152344 27.308594 17.398438 27.554688 17.753906 27.554688 C 18.105469 27.554688 18.351562 27.308594 18.351562 26.953125 C 18.351562 26.601562 18.105469 26.355469 17.753906 26.355469 Z M 17.753906 26.355469 "></path><path style=" stroke:none;fill-rule:nonzero;fill:rgb(100%,84.313725%,25.098039%);fill-opacity:1;" d="M 20.152344 3.503906 L 15.398438 3.503906 C 15.097656 3.503906 14.894531 3.300781 14.894531 3 C 14.894531 2.699219 15.097656 2.496094 15.398438 2.496094 L 20.152344 2.496094 C 20.453125 2.496094 20.65625 2.699219 20.65625 3 C 20.65625 3.300781 20.398438 3.503906 20.152344 3.503906 Z M 20.152344 3.503906 "></path><path style=" stroke:none;fill-rule:nonzero;fill:rgb(100%,84.313725%,25.098039%);fill-opacity:1;" d="M 24.503906 19.402344 C 24.449219 19.402344 24.449219 19.402344 24.40625 19.402344 C 23.859375 19.253906 23.300781 19.101562 22.753906 18.953125 C 20.453125 18.300781 19.003906 17.953125 18.203125 19.199219 C 18.105469 19.351562 17.953125 19.402344 17.804688 19.402344 C 17.65625 19.402344 17.503906 19.351562 17.40625 19.199219 C 16.304688 17.902344 14.707031 17.902344 11.203125 19.351562 C 11.054688 19.402344 10.851562 19.402344 10.703125 19.296875 C 10.550781 19.199219 10.5 18.996094 10.5 18.847656 L 11.601562 11.144531 C 11.601562 10.996094 11.753906 10.84375 11.902344 10.746094 C 13.5 9.996094 15.449219 9.449219 17.707031 10.597656 C 19.410156 9.398438 21.511719 9.996094 23.609375 10.695312 C 23.8125 10.746094 23.910156 10.898438 23.960938 11.09375 L 25.066406 18.796875 C 25.066406 18.945312 25.011719 19.148438 24.914062 19.246094 C 24.757812 19.359375 24.652344 19.402344 24.503906 19.402344 Z M 19.851562 17.355469 C 20.851562 17.355469 21.953125 17.65625 23.003906 17.953125 C 23.300781 18.050781 23.601562 18.105469 23.902344 18.203125 L 22.949219 11.550781 C 21.097656 10.898438 19.296875 10.5 18.046875 11.550781 C 17.894531 11.699219 17.648438 11.699219 17.496094 11.601562 C 15.601562 10.5 13.996094 10.90625 12.546875 11.503906 L 11.59375 18.058594 C 13.84375 17.210938 16.09375 16.65625 17.699219 18.113281 C 18.300781 17.558594 19.050781 17.355469 19.851562 17.355469 Z M 19.851562 17.355469 "></path><path style=" stroke:none;fill-rule:nonzero;fill:rgb(100%,84.313725%,25.098039%);fill-opacity:1;" d="M 17.753906 19.402344 C 17.453125 19.402344 17.25 19.199219 17.25 18.898438 L 17.25 11.203125 C 17.25 10.90625 17.453125 10.703125 17.753906 10.703125 C 18.050781 10.703125 18.253906 10.90625 18.253906 11.203125 L 18.253906 18.90625 C 18.253906 19.207031 18.050781 19.402344 17.753906 19.402344 Z M 17.753906 19.402344 "></path><path style=" stroke:none;fill-rule:nonzero;fill:rgb(100%,84.313725%,25.098039%);fill-opacity:1;" d="M 15.953125 14.003906 L 13.351562 14.003906 C 13.050781 14.003906 12.847656 13.800781 12.847656 13.5 C 12.847656 13.199219 13.050781 12.996094 13.351562 12.996094 L 15.953125 12.996094 C 16.253906 12.996094 16.453125 13.199219 16.453125 13.5 C 16.453125 13.800781 16.253906 14.003906 15.953125 14.003906 Z M 15.953125 14.003906 "></path><path style=" stroke:none;fill-rule:nonzero;fill:rgb(100%,84.313725%,25.098039%);fill-opacity:1;" d="M 15.953125 15.855469 L 13.351562 15.855469 C 13.050781 15.855469 12.847656 15.652344 12.847656 15.351562 C 12.847656 15.050781 13.050781 14.851562 13.351562 14.851562 L 15.953125 14.851562 C 16.253906 14.851562 16.453125 15.050781 16.453125 15.351562 C 16.453125 15.652344 16.253906 15.855469 15.953125 15.855469 Z M 15.953125 15.855469 "></path><path style=" stroke:none;fill-rule:nonzero;fill:rgb(100%,84.313725%,25.098039%);fill-opacity:1;" d="M 22.15625 14.003906 L 19.550781 14.003906 C 19.253906 14.003906 19.050781 13.800781 19.050781 13.5 C 19.050781 13.199219 19.253906 12.996094 19.550781 12.996094 L 22.15625 12.996094 C 22.453125 12.996094 22.65625 13.199219 22.65625 13.5 C 22.65625 13.800781 22.453125 14.003906 22.15625 14.003906 Z M 22.15625 14.003906 "></path><path style=" stroke:none;fill-rule:nonzero;fill:rgb(100%,84.313725%,25.098039%);fill-opacity:1;" d="M 22.15625 15.855469 L 19.550781 15.855469 C 19.253906 15.855469 19.050781 15.652344 19.050781 15.351562 C 19.050781 15.050781 19.253906 14.851562 19.550781 14.851562 L 22.15625 14.851562 C 22.453125 14.851562 22.65625 15.050781 22.65625 15.351562 C 22.65625 15.652344 22.453125 15.855469 22.15625 15.855469 Z M 22.15625 15.855469 "></path></g></svg> 