<?xml version="1.0" encoding="UTF-8"?> <svg xmlns="http://www.w3.org/2000/svg" xmlns:xlink="http://www.w3.org/1999/xlink" width="36pt" height="30pt" viewBox="0 0 36 30" version="1.1"><g id="surface1"><path style=" stroke:none;fill-rule:nonzero;fill:rgb(25.098039%,76.862745%,100%);fill-opacity:1;" d="M 18.75 3 C 18.75 3.550781 18.304688 3.996094 17.753906 3.996094 C 17.203125 3.996094 16.753906 3.550781 16.753906 3 C 16.753906 2.449219 17.203125 2.003906 17.753906 2.003906 C 18.304688 2.003906 18.75 2.449219 18.75 3 Z M 18.75 3 "></path><path style=" stroke:none;fill-rule:nonzero;fill:rgb(25.098039%,76.862745%,100%);fill-opacity:1;" d="M 26.25 3.996094 L 23.25 3.996094 C 23.25 2.894531 22.359375 1.996094 21.246094 1.996094 L 20.574219 1.996094 C 20.015625 0.433594 18.308594 -0.382812 16.746094 0.164062 C 15.890625 0.464844 15.21875 1.140625 14.917969 1.996094 L 14.25 1.996094 C 13.148438 1.996094 12.246094 2.886719 12.246094 3.996094 L 9.246094 3.996094 C 7.867188 4.003906 6.75 5.121094 6.75 6.503906 L 6.75 27.503906 C 6.75 28.882812 7.867188 30 9.246094 30 L 26.25 30 C 27.628906 30 28.746094 28.882812 28.746094 27.503906 L 28.746094 6.503906 C 28.746094 5.121094 27.628906 4.003906 26.25 3.996094 Z M 13.253906 3.996094 C 13.253906 3.449219 13.695312 3 14.25 3 L 15.710938 3 L 15.796875 2.601562 C 16.011719 1.523438 17.070312 0.816406 18.148438 1.042969 C 18.9375 1.199219 19.550781 1.816406 19.710938 2.601562 L 19.792969 3 L 21.253906 3 C 21.808594 3 22.253906 3.449219 22.253906 3.996094 L 22.253906 5.496094 L 13.253906 5.496094 Z M 27.75 27.503906 C 27.75 28.328125 27.074219 29.003906 26.25 29.003906 L 9.246094 29.003906 C 8.421875 29.003906 7.746094 28.328125 7.746094 27.503906 L 7.746094 6.503906 C 7.746094 5.675781 8.421875 5.003906 9.246094 5.003906 L 12.246094 5.003906 L 12.246094 5.503906 C 12.246094 6.058594 12.699219 6.503906 13.246094 6.503906 L 22.246094 6.503906 C 22.800781 6.503906 23.242188 6.050781 23.242188 5.503906 L 23.242188 5.003906 L 26.242188 5.003906 C 27.066406 5.003906 27.742188 5.675781 27.742188 6.503906 L 27.742188 27.503906 Z M 27.75 27.503906 "></path><path style=" stroke:none;fill-rule:nonzero;fill:rgb(25.098039%,76.862745%,100%);fill-opacity:1;" d="M 14.25 8.003906 L 21.246094 8.003906 C 21.523438 8.003906 21.75 7.777344 21.75 7.5 C 21.75 7.222656 21.523438 6.996094 21.246094 6.996094 L 14.25 6.996094 C 13.972656 6.996094 13.746094 7.222656 13.746094 7.5 C 13.746094 7.777344 13.972656 8.003906 14.25 8.003906 Z M 14.25 8.003906 "></path><path style=" stroke:none;fill-rule:nonzero;fill:rgb(25.098039%,76.862745%,100%);fill-opacity:1;" d="M 24.75 17.496094 L 21.585938 17.496094 L 19.230469 11.609375 L 16.34375 19.3125 L 14.902344 13.558594 L 12.9375 17.488281 L 10.746094 17.488281 C 10.46875 17.488281 10.246094 17.714844 10.246094 17.992188 C 10.246094 18.269531 10.46875 18.496094 10.746094 18.496094 L 13.558594 18.496094 L 14.59375 16.425781 L 16.15625 22.671875 L 19.265625 14.378906 L 20.917969 18.496094 L 24.75 18.496094 C 25.027344 18.496094 25.253906 18.269531 25.253906 17.992188 C 25.253906 17.722656 25.027344 17.496094 24.75 17.496094 Z M 24.75 17.496094 "></path></g></svg> 