<?xml version="1.0" encoding="UTF-8"?> <!-- Generator: Adobe Illustrator 25.1.0, SVG Export Plug-In . SVG Version: 6.00 Build 0) --> <svg xmlns="http://www.w3.org/2000/svg" xmlns:xlink="http://www.w3.org/1999/xlink" version="1.1" id="Layer_1" x="0px" y="0px" viewBox="0 0 30 30" style="enable-background:new 0 0 30 30;" xml:space="preserve"> <style type="text/css"> .st0{fill:#663299;} </style> <path class="st0" d="M6.9,29.9c-0.4-0.3-0.9-0.7-1.3-1c-0.8-0.7-1.6-1.5-2.1-2.5c-0.8-1.2-1.4-2.6-1.6-4c-0.2-0.8-0.2-1.7-0.2-2.5 c0-1.2,0.3-2.4,0.8-3.6c0.6-1.3,1.3-2.5,2.3-3.6c0.7-0.8,1.4-1.6,2-2.5c0.7-0.9,1.5-1.8,2.2-2.7c0.8-1,1.5-2,2.1-3.1 c0.5-0.9,0.9-1.8,1.1-2.8c0.1-0.5,0.2-1.1,0.2-1.6c3.7,1.6,6.5,4.3,8.1,8c1.7,3.7,1.8,7.5,0.6,11.4c2.7-0.9,5.1-3.5,5.3-7 c0,0.1,0.1,0.1,0.1,0.1c0.6,1.2,1.1,2.4,1.3,3.8c0.2,1,0.2,2.1,0.1,3.1c-0.2,2.1-0.9,4-2.2,5.7c-0.8,1.2-1.8,2.1-3,2.9 c-1.3,0.9-2.7,1.4-4.2,1.7c-0.7,0.1-1.4,0.2-2.1,0.2c-0.9,0-1.8-0.2-2.7-0.6c-1.1-0.4-2-1.1-2.7-1.9c-0.8-0.9-1.4-1.9-1.7-3.1 C9.1,23.5,9,22.6,9,21.6c0-0.7,0.2-1.4,0.4-2.1c0,0,0-0.1,0-0.1c-0.8,0.6-2.2,2.6-2.8,4.9C6.3,26.2,6.4,28.1,6.9,29.9 C6.9,29.9,6.9,29.9,6.9,29.9z"></path> </svg> 