<?xml version="1.0" encoding="utf-8"?>
<!-- Generator: Adobe Illustrator 25.1.0, SVG Export Plug-In . SVG Version: 6.00 Build 0)  -->
<svg version="1.1" id="Layer_1" xmlns="http://www.w3.org/2000/svg" xmlns:xlink="http://www.w3.org/1999/xlink" x="0px" y="0px"
	 viewBox="0 0 29 30" style="enable-background:new 0 0 29 30;" xml:space="preserve">
<style type="text/css">
	.st0{fill:#FFFFFF;}
</style>
<g>
	<path class="st0" d="M2.3,10.6c0,0.1,0,0.1,0,0.2c0,0.8,0,1.6,0,2.4c0,0.5,0.2,0.8,0.5,1.1c2.3,1.7,4.6,3.3,6.8,5
		c1.1,0.8,2.3,1.7,3.4,2.5c0.4,0.3,0.9,0.5,1.4,0.5c0.5,0,0.9-0.2,1.3-0.5c0.9-0.7,1.9-1.4,2.8-2c2.5-1.8,5-3.6,7.5-5.5
		c0.4-0.3,0.5-0.6,0.5-1c0-0.8,0-1.6,0-2.4c0,0,0-0.1,0-0.2c0.1,0,0.1,0.1,0.2,0.1c0.4,0.3,0.8,0.6,1.1,0.9c0.7,0.6,1,1.4,1,2.2
		c0,4.6,0,9.3,0,13.9c0,0.8-0.3,1.4-0.9,1.8c-0.3,0.2-0.7,0.3-1.1,0.3c-0.1,0-0.3,0-0.4,0c-8,0-16,0-24,0c-0.4,0-0.8,0-1.2-0.2
		c-0.7-0.3-1.1-0.8-1.2-1.6c0-0.2,0-0.4,0-0.5c0-3.5,0-7,0-10.5c0-1,0-2,0-3c0-0.5,0.1-0.9,0.2-1.3c0.2-0.4,0.4-0.8,0.7-1.1
		C1.4,11.3,1.8,11,2.3,10.6z"/>
	<path class="st0" d="M15.6,10.2c0.1-0.1,0.1-0.2,0.2-0.3c0.1-0.2,0.3-0.3,0.6-0.3c0.2,0,0.3,0,0.5,0c0.4,0.1,0.6,0.3,0.5,0.7
		c0,0.6-0.1,1.1-0.1,1.7c0,0.5-0.1,1.1-0.1,1.6c0,0.2,0,0.5,0.1,0.7c0.1,0.4,0.4,0.5,0.8,0.3c0.3-0.2,0.5-0.4,0.7-0.7
		c0.3-0.7,0.5-1.4,0.4-2.2c-0.1-1.3-0.6-2.4-1.6-3.1c-0.5-0.4-1.1-0.5-1.7-0.6C14.8,7.9,13.9,8,13,8.3c-1.7,0.6-2.7,1.8-3.1,3.5
		c-0.1,0.6-0.2,1.1-0.1,1.7c0.2,2,1.4,3.4,3.3,3.8c0.7,0.2,1.4,0.2,2,0.1c0.6,0,1.1-0.1,1.7-0.3c0.5-0.1,0.9,0.3,0.8,0.8
		c-0.1,0.2-0.2,0.4-0.5,0.5c-0.6,0.1-1.2,0.2-1.7,0.3c-0.6,0.1-1.2,0.1-1.8,0c-1.6-0.2-3.1-0.7-4.2-1.9c-0.6-0.7-1-1.5-1.2-2.4
		C8,13.2,8,12,8.4,10.8c0.4-1.3,1.3-2.2,2.3-3c0.9-0.6,1.8-1,2.9-1.1C14.8,6.6,15.9,6.7,17,7c1.3,0.4,2.4,1.1,3.1,2.3
		c0.4,0.6,0.6,1.3,0.7,2.1c0.1,1-0.1,2-0.6,2.9c-0.5,0.9-1.2,1.5-2.2,1.7c-0.5,0.1-0.9,0.1-1.4,0c-0.5-0.1-0.7-0.4-0.9-0.9
		c-0.1-0.1-0.1-0.3-0.2-0.4c-0.1,0.1-0.1,0.2-0.2,0.3c-0.3,0.5-0.7,0.9-1.3,1c-1.2,0.3-2.3-0.4-2.6-1.5c-0.1-0.4-0.2-0.8-0.2-1.3
		c0-0.6,0.1-1.2,0.3-1.7c0.3-0.8,0.9-1.4,1.7-1.8c0.5-0.2,0.9-0.2,1.4-0.1c0.4,0.1,0.6,0.3,0.8,0.6C15.6,10.1,15.6,10.2,15.6,10.2z
		 M15.6,12.2c0-0.1,0-0.3-0.1-0.6c-0.1-0.5-0.4-0.8-0.8-0.9c-0.4-0.1-0.8,0.1-1,0.4c-0.4,0.5-0.6,1-0.6,1.7c-0.1,0.4,0,0.9,0.2,1.3
		c0.1,0.3,0.3,0.5,0.6,0.6c0.5,0.1,0.9-0.1,1.2-0.5C15.4,13.6,15.5,13,15.6,12.2z"/>
	<path class="st0" d="M24.2,14.3c0-0.1,0-0.1,0-0.2c0-2.7,0-5.5,0-8.2c0-0.1,0-0.3,0-0.4c0-0.3-0.2-0.4-0.4-0.4c-0.1,0-0.3,0-0.4,0
		C17.4,5,11.5,5,5.6,5C5.4,5,5.3,5,5.2,5c-0.3,0-0.4,0.2-0.4,0.5c0,0.1,0,0.3,0,0.4c0,2.7,0,5.4,0,8.2c0,0.1,0,0.1,0,0.2
		c-0.1-0.1-0.2-0.1-0.3-0.2c-0.3-0.2-0.6-0.4-0.9-0.6c-0.1-0.1-0.2-0.2-0.2-0.3c0-0.9,0-1.8,0-2.6c0-1.7,0-3.3,0-5
		c0-0.9,0.7-1.7,1.6-1.8c0.1,0,0.3,0,0.4,0c6,0,12,0,18,0c0.3,0,0.7,0,1,0.1C25,4,25.4,4.4,25.5,5.1c0,0.2,0.1,0.4,0.1,0.7
		c0,2.4,0,4.8,0,7.2c0,0.3-0.1,0.4-0.3,0.6C24.9,13.8,24.5,14,24.2,14.3z"/>
	<path class="st0" d="M11.9,2.4c0.4-0.3,0.7-0.5,1.1-0.8c0.3-0.2,0.6-0.4,1-0.5c0.5-0.1,1,0,1.4,0.2c0.5,0.3,1,0.7,1.5,1.1
		c0,0,0,0,0,0.1c-0.1,0-0.1,0-0.2,0c-1.6,0-3.1,0-4.7,0C12,2.5,12,2.5,11.9,2.4C11.9,2.5,11.9,2.5,11.9,2.4z"/>
</g>
</svg>
