<?xml version="1.0" encoding="utf-8"?>
<!-- Generator: Adobe Illustrator 25.1.0, SVG Export Plug-In . SVG Version: 6.00 Build 0)  -->
<svg version="1.1" id="Layer_1" xmlns="http://www.w3.org/2000/svg" xmlns:xlink="http://www.w3.org/1999/xlink" x="0px" y="0px"
	 viewBox="0 0 458 374" style="enable-background:new 0 0 458 374;" xml:space="preserve">
<style type="text/css">
	.st0{fill:url(#SVGID_1_);}
	.st1{fill:url(#SVGID_2_);}
	.st2{fill:#AEBECC;}
	.st3{fill:#F0F0F0;}
	.st4{fill:#FFFFFF;}
	.st5{fill:url(#SVGID_3_);}
	.st6{fill:#757575;}
	.st7{fill:#DFE1E8;}
	.st8{fill:#EEF0F7;}
	.st9{fill:#3C4145;}
	.st10{fill:#EEA886;}
	.st11{fill:#E55353;}
	.st12{fill:#A77860;}
	.st13{fill:#BD4444;}
	.st14{fill:#D9C7C1;}
	.st15{fill:#EEA987;}
	.st16{fill:#E8734D;}
	.st17{fill:#C78D71;}
	.st18{fill:#EDDAD3;}
	.st19{fill:#5073AB;}
	.st20{fill:#323657;}
	.st21{fill:#F5F7FF;}
	.st22{fill:#949494;}
	.st23{fill:url(#SVGID_4_);}
	.st24{fill:#F3F3F3;}
	.st25{fill:url(#SVGID_5_);}
	.st26{fill:url(#SVGID_6_);}
	.st27{fill:#131C24;}
	.st28{fill:#4F4946;}
	.st29{fill:#293E4F;}
	.st30{fill:#1A2833;}
	.st31{fill:#385369;}
	.st32{fill:#3E5E78;}
	.st33{fill:#263947;}
	.st34{fill:#706865;}
	.st35{fill:#BDAFAA;}
	.st36{fill:#B5DEFF;}
	.st37{fill:#E2D2CA;}
	.st38{fill:#CCBDB7;}
	.st39{fill:#4667A8;}
	.st40{fill:#B59074;}
	.st41{fill:#EAD8CF;}
	.st42{fill:#DA9B5B;}
	.st43{fill:#424773;}
	.st44{fill:#292C47;}
	.st45{fill:#3A3F47;}
	.st46{fill:#918783;}
	.st47{fill:#5E5854;}
	.st48{fill:#BFB2AC;}
	.st49{fill:#5F8BE3;}
	.st50{fill:#CECFD6;}
	.st51{fill:#59524F;}
	.st52{fill:#314875;}
	.st53{fill:#1D3B54;}
	.st54{fill:#DE9673;}
	.st55{fill:#EB4747;}
	.st56{fill:#754836;}
	.st57{fill:#DB9C7C;}
	.st58{fill:#4DA8F2;}
	.st59{fill:#EFAA88;}
	.st60{fill:#D88A51;}
</style>
<g>
	<g>
		<linearGradient id="SVGID_1_" gradientUnits="userSpaceOnUse" x1="341.7428" y1="40.1569" x2="418.9854" y2="40.1569">
			<stop  offset="0" style="stop-color:#1CBBE9"/>
			<stop  offset="1" style="stop-color:#2176FF"/>
		</linearGradient>
		<path class="st0" d="M412.6,31.8c-0.8-3-2-5.9-3.5-8.5l3.6-5.4l-5-5l-5-5l-5.4,3.6c-2.6-1.6-5.5-2.8-8.5-3.5l-1.3-6.4h-7.1h-7.1
			L372,7.9c-3,0.8-5.9,2-8.5,3.5l-5.4-3.6l-5,5l-5,5l3.6,5.4c-1.6,2.6-2.8,5.5-3.5,8.5l-6.4,1.3v7.1v7.1l6.4,1.3
			c0.8,3,2,5.9,3.5,8.5l-3.6,5.4l5,5l5,5l5.4-3.6c2.6,1.6,5.5,2.8,8.5,3.5l1.3,6.4h7.1h7.1l1.3-6.4c3-0.8,5.9-2,8.5-3.5l5.4,3.6l5-5
			l5-5l-3.6-5.4c1.6-2.6,2.8-5.5,3.5-8.5l6.4-1.3v-7.1v-7.1L412.6,31.8z M380.4,64.9c-13.7,0-24.8-11.1-24.8-24.8
			c0-13.7,11.1-24.8,24.8-24.8c13.7,0,24.8,11.1,24.8,24.8C405.1,53.8,394,64.9,380.4,64.9z"/>
	</g>
	<g>
		<linearGradient id="SVGID_2_" gradientUnits="userSpaceOnUse" x1="389.7674" y1="95.7657" x2="425.1796" y2="95.7657">
			<stop  offset="0" style="stop-color:#1CBBE9"/>
			<stop  offset="1" style="stop-color:#2176FF"/>
		</linearGradient>
		<path class="st1" d="M422.3,91.9c-0.4-1.4-0.9-2.7-1.6-3.9l1.7-2.5l-2.3-2.3l-2.3-2.3l-2.5,1.7c-1.2-0.7-2.5-1.3-3.9-1.6l-0.6-2.9
			h-3.2h-3.2l-0.6,2.9c-1.4,0.4-2.7,0.9-3.9,1.6l-2.5-1.7l-2.3,2.3l-2.3,2.3l1.7,2.5c-0.7,1.2-1.3,2.5-1.6,3.9l-2.9,0.6v3.2V99
			l2.9,0.6c0.4,1.4,0.9,2.7,1.6,3.9l-1.7,2.5l2.3,2.3l2.3,2.3l2.5-1.7c1.2,0.7,2.5,1.3,3.9,1.6l0.6,2.9h3.2h3.2l0.6-2.9
			c1.4-0.4,2.7-0.9,3.9-1.6l2.5,1.7l2.3-2.3l2.3-2.3l-1.7-2.5c0.7-1.2,1.3-2.5,1.6-3.9l2.9-0.6v-3.2v-3.2L422.3,91.9z M407.5,107.1
			c-6.3,0-11.4-5.1-11.4-11.4c0-6.3,5.1-11.4,11.4-11.4c6.3,0,11.4,5.1,11.4,11.4C418.8,102,413.7,107.1,407.5,107.1z"/>
	</g>
	<g>
		
			<rect x="216.8" y="211.6" transform="matrix(-1 -1.224647e-16 1.224647e-16 -1 468.3721 528.764)" class="st2" width="34.8" height="105.7"/>
	</g>
	<g>
		<path class="st3" d="M94.8,262.4h278.8c6,0,10.8-4.8,10.8-10.8V61.3c0-6-4.8-10.8-10.8-10.8H94.8c-6,0-10.8,4.8-10.8,10.8v190.3
			C84,257.6,88.8,262.4,94.8,262.4z"/>
	</g>
	<g>
		
			<rect x="95.8" y="28" transform="matrix(-1 -1.224647e-16 1.224647e-16 -1 468.3714 257.2475)" class="st4" width="276.8" height="201.2"/>
	</g>
	<g>
		<linearGradient id="SVGID_3_" gradientUnits="userSpaceOnUse" x1="95.7658" y1="40.1569" x2="372.6056" y2="40.1569">
			<stop  offset="0" style="stop-color:#1CBBE9"/>
			<stop  offset="1" style="stop-color:#2176FF"/>
		</linearGradient>
		<polygon class="st5" points="95.8,52.3 372.6,52.3 372.6,28 95.8,28 		"/>
	</g>
	<g>
		<path class="st6" d="M224.5,244.4c0,5.4,4.3,9.7,9.7,9.7c5.4,0,9.7-4.3,9.7-9.7c0-5.4-4.3-9.7-9.7-9.7
			C228.8,234.8,224.5,239.1,224.5,244.4z"/>
	</g>
	<g>
		<g>
			<g>
				<path class="st7" d="M180.4,76.8h92.3c1.4,0,2.5-1.1,2.5-2.5v-2.2c0-1.4-1.1-2.5-2.5-2.5h-92.3c-1.4,0-2.5,1.1-2.5,2.5v2.3
					C178,75.7,179.1,76.8,180.4,76.8z"/>
			</g>
		</g>
	</g>
	<g>
		<g>
			<g>
				<path class="st7" d="M180.4,89.8h92.3c1.4,0,2.5-1.1,2.5-2.5v-2.2c0-1.4-1.1-2.5-2.5-2.5h-92.3c-1.4,0-2.5,1.1-2.5,2.5v2.3
					C178,88.7,179.1,89.8,180.4,89.8z"/>
			</g>
		</g>
	</g>
	<g>
		<g>
			<g>
				<path class="st7" d="M180.4,102.8h92.3c1.4,0,2.5-1.1,2.5-2.5v-2.2c0-1.4-1.1-2.5-2.5-2.5h-92.3c-1.4,0-2.5,1.1-2.5,2.5v2.3
					C178,101.7,179.1,102.8,180.4,102.8z"/>
			</g>
		</g>
	</g>
	<g>
		<g>
			<g>
				<g>
					<path class="st7" d="M228,215.1H124.3c-8.7,0-15.7-7-15.7-15.7v-63.1c0-8.7,7-15.7,15.7-15.7H228c8.7,0,15.7,7,15.7,15.7v63.1
						C243.7,208,236.7,215.1,228,215.1z M124.3,122.5c-7.6,0-13.7,6.2-13.7,13.7v63.1c0,7.6,6.2,13.7,13.7,13.7H228
						c7.6,0,13.7-6.2,13.7-13.7v-63.1c0-7.6-6.2-13.7-13.7-13.7H124.3z"/>
				</g>
			</g>
		</g>
	</g>
	<g>
		<g>
			<g>
				<path class="st7" d="M130.4,144.4h91.4c2.7,0,4.9-2.2,4.9-4.9v-5.4c0-2.7-2.2-4.9-4.9-4.9h-91.4c-2.7,0-4.9,2.2-4.9,4.9v5.4
					C125.6,142.2,127.7,144.4,130.4,144.4z"/>
			</g>
		</g>
	</g>
	<rect x="155.9" y="313.2" class="st3" width="156.5" height="8"/>
	<g>
		<path class="st8" d="M341.5,141.3c0,8.3-4.5,15.5-11.2,19.4c-1.3,0.8-2.8,1.4-4.3,1.9c-0.1,0-0.3,0.1-0.4,0.1
			c-2.1,0.7-4.4,1-6.7,1c-3.6,0-7-0.8-10-2.3c-7.4-3.7-12.5-11.3-12.5-20.2c0-12.4,10.1-22.5,22.5-22.5
			C331.4,118.8,341.5,128.9,341.5,141.3z"/>
		<g>
			<path class="st9" d="M313.6,138.9c0,0-1.5-10,6.7-9.8c8.2,0.2,8.1,5.1,8,10c-0.1,4.9-3.3,4.5,0.3,11.3c3.6,6.8-3.1,6.8-3.1,6.8
				l-5.2-7.1L313.6,138.9z"/>
		</g>
		<g>
			<path class="st10" d="M319.4,130.1c0,0-5.6,0.9-5.8,8.8c-0.2,7.9,1.5,9.6,6.4,8c4.9-1.7,6.4-10,6.5-11.2
				C326.6,134.4,326.9,129.2,319.4,130.1z"/>
		</g>
		<g>
			<path class="st11" d="M329.2,157.7c0,2.4-1.3,4-3.1,5c-0.1,0-0.3,0.1-0.4,0.1c-2.1,0.7-4.4,1-6.7,1c-3.6,0-7-0.8-10-2.3
				c-0.7-1.4,0.3-3.3,2.3-6.2c1.4-2,2.7-4.1,5-5.1c3.4-0.5,7-0.6,9.5,0.9C327.8,152.2,329.1,154.2,329.2,157.7z"/>
		</g>
		<g>
			<path class="st11" d="M312.3,155.1l-2.6,4c0,0,0.2-0.6,0.5-2.4c0.1-0.3,0.1-0.7,0.2-1.1c0-0.1,0-0.3,0.1-0.4l0,0
				c1.1-2.5,4.5-4.4,4.7-4.5L312.3,155.1z"/>
		</g>
		<g>
			<path class="st10" d="M330.3,160.8c-1.3,0.8-2.8,1.4-4.3,1.9c-0.1,0-0.3,0.1-0.4,0.1c-0.6-1.5-1.1-2.7-1.2-3.1
				c0-0.1-0.1-0.3-0.2-0.5c-0.5-1.1-1.5-3.6-1.5-5.6c0-1.3,0.4-2.3,1.7-2.6c0.5-0.1,0.9-0.1,1.3,0c1.4,0.3,2.2,1.5,2.7,2.7
				c0,0,0,0,0,0.1c0.4,1,0.5,1.8,0.5,1.8s0,0.1,0.1,0.2c0.1,0.3,0.2,0.9,0.4,1.7C329.7,158.4,330,159.5,330.3,160.8z"/>
		</g>
		<g>
			<path class="st10" d="M323.1,143.3c-0.5,0.9-1,6.6-1,6.6s-6.8,2.6-6.1,1.1c0.3-0.7,0.4-1.5,0.4-2.3c0-0.6,0-1.1-0.1-1.4
				c0-0.1,0-0.2,0-0.2S323.6,142.4,323.1,143.3z"/>
		</g>
		<g>
			<path class="st9" d="M317.1,135.8c0,0,2.9,4.7,5.5,6.5c2.6,1.8,1.3,3.3,1.3,3.3s6.8-14.3,0.3-15.3c-6.5-1-10.4-1.1-10.6,8.6
				C313.6,138.9,316.5,135.7,317.1,135.8z"/>
		</g>
		<g>
			<path class="st12" d="M320.2,146.8c-1,1.5-3.8,2-3.8,2s0,0,0,0c0-0.6,0-1.1-0.1-1.4C318.1,147.7,320.2,146.8,320.2,146.8z"/>
		</g>
		<path class="st13" d="M310.5,155.2L310.5,155.2c0,0-0.1,0.3-0.3,1.5l1-1.5c0,0,1.8-2.6,2.4-3.2c0.6-0.7,1.5-1.3,1.5-1.3
			S311.6,152.5,310.5,155.2z"/>
		<path class="st11" d="M324.1,159.1c0,0,4.4-1.7,5.7-1.8c0,0-0.9-7-5.2-6.3C320.3,151.7,324.1,159.1,324.1,159.1z"/>
		<path class="st10" d="M316.3,150.2c0,0-3.2,4.9-2.1,5.4c1.1,0.4,7-0.6,9.5-5.3C323.6,150.3,319.9,148.3,316.3,150.2z"/>
	</g>
	<g>
		<path class="st8" d="M349.8,75.6c0,7.2-2.6,13.8-6.9,18.9c-1,1.2-2.1,2.3-3.3,3.3c-0.3,0.3-0.7,0.6-1,0.8
			c-0.4,0.3-0.8,0.6-1.2,0.9c-3.9,2.7-8.4,4.6-13.3,5.2c-0.9,0.1-1.7,0.2-2.6,0.2c-0.3,0-0.6,0-1,0c-0.9,0-1.9,0-2.8-0.1
			c-1-0.1-2.1-0.2-3.1-0.5c-4.4-0.9-8.5-2.8-12-5.5c-1-0.8-2-1.7-3-2.6c-0.2-0.2-0.4-0.4-0.5-0.6c-0.7-0.7-1.3-1.4-1.9-2.2
			c-3.8-5-6.1-11.2-6.1-17.9c0-16.2,13.1-29.3,29.3-29.3C336.7,46.3,349.8,59.4,349.8,75.6z"/>
		<g>
			<g>
				<path class="st14" d="M339.6,91.8l-2.2,7.8c-3.9,2.7-8.4,4.6-13.3,5.2c-0.9,0.1-1.7,0.2-2.6,0.2c-0.3,0-0.6,0-1,0
					c-0.9,0-1.9,0-2.8-0.1c-1-0.1-2.1-0.2-3.1-0.5c-4.4-0.9-8.5-2.8-12-5.5c-0.4-2.6-0.9-5.4-1.3-8.1c2.2-0.8,9-3.1,13.3-4.6
					c0.1,0,0.1,0,0.2-0.1c0.1,0,0.2-0.1,0.3-0.1c0.3-0.1,0.5-0.2,0.7-0.2c0.2-0.1,0.5-0.2,0.7-0.2c0.9-0.3,1.5-0.5,1.7-0.6
					c0,0,0,0,0,0c0.1,0,0.1,0,0.1,0l0,0l5.8,0.4l1,0.1l0.3,0c0,0,0,0,0.1,0c0.4,0.1,1.4,0.4,2.7,0.8c0,0,0,0,0,0
					C331.9,87.3,337.5,89.3,339.6,91.8z"/>
			</g>
			<g>
				<path class="st15" d="M322,61c0,0,7,1.2,5.8,12.1c-1.2,10.9-7.3,10-7.8,9.9c-0.4,0-6.2,0.1-6.5-13.2C313.5,69.9,313.5,60,322,61
					z"/>
			</g>
			<g>
				<path class="st15" d="M325.1,79.9c0,0-0.2,4.5,0.2,5.5c0.4,1-5.6,4.1-9.3,0.5c0,0,0.8-4.9,0.5-6.7
					C316.2,77.6,325.1,79.9,325.1,79.9z"/>
			</g>
			<g>
				<path class="st15" d="M327.9,70.1c0,0,0.8-0.8,1,0c0.3,0.8-1.2,4.5-1.1,4.7c0,0-0.1,0.3-0.3,0.1
					C327.3,74.7,327.9,70.1,327.9,70.1z"/>
			</g>
			<g>
				<path class="st15" d="M313.6,69.8c0,0-0.7-0.8-1,0c-0.3,0.8,0.8,4.5,0.9,4.7c0,0,0.2,0.4,0.4,0.2
					C314.1,74.5,313.6,69.8,313.6,69.8z"/>
			</g>
			<g>
				<path class="st16" d="M328.4,69.1c-0.2,1.5-0.5,2.6-0.5,2.6l-1,1.3c0,0,0.1-2.9-0.1-3.4c-0.1-0.2-0.1-0.5-0.2-0.8
					c-0.1-0.6-0.2-1.2-0.3-1.4c-0.1-0.3-6-2-11.2,0.4c0,0,0,0.5,0,1c0,0.6-0.1,1.2-0.3,1.3c-0.5,0.2-0.3,3.4-0.3,3.4l-0.8-0.9
					c0,0-0.2-1.7-0.5-3.6c0,0,0,0,0,0c-0.1-0.5-0.1-0.9-0.2-1.4c-0.1-2,0.1-5.5,2.6-7.6c1.7-0.7,4.5-1.4,9.1,0c0,0,1.1,0.1,1.3,0.4
					C329,63.5,328.4,69.1,328.4,69.1z"/>
			</g>
			<path class="st17" d="M316.9,81.6c0,0,1.1,1.5,3.7,1.5c2.6-0.1,3.7-1.4,3.7-1.4s-1.2,2.6-3.7,2.5
				C318.1,84.2,316.9,81.6,316.9,81.6z"/>
			<path class="st15" d="M315.2,86c0,0,1.9,3.3,5.4,3.6c2.3,0.2,4.2-2.7,5.1-4.1C325.7,85.5,320.7,83.4,315.2,86z"/>
			<path class="st18" d="M325.1,84.5c0,0-1.4,1.9-4.5,3.9l1.9,2.9l3.2-5.8L325.1,84.5z"/>
			<path class="st18" d="M316,84.9c0,0,1.8,2.3,4.6,3.4l-2.1,3l-3.6-5.2L316,84.9z"/>
			<path class="st19" d="M320.6,88.4l1.6,2.5c0,0-1.7,1-3.3-0.1L320.6,88.4z"/>
			<path class="st20" d="M341.4,91.3c0,0,0,0.1,0,0.2c-0.2,0.6-0.9,3.1-1.8,6.3c-0.3,0.3-0.7,0.6-1,0.8c-0.4,0.3-0.8,0.6-1.2,0.9
				c-3.9,2.7-8.4,4.6-13.3,5.2c0.4-10.1,1.6-19.1,1.6-19.1c1,0.3,1.9,0.5,2.7,0.7c0,0,0,0,0,0c7.4,2.1,11.2,4,12.5,4.7c0,0,0,0,0,0
				C341.3,91.2,341.4,91.3,341.4,91.3z"/>
			<path class="st20" d="M314.6,104.3c-4.4-0.9-8.5-2.8-12-5.5c-1-0.8-2-1.7-3-2.6c-0.2-0.2-0.4-0.4-0.5-0.6
				c-0.5-2.2-0.9-3.6-0.9-3.7l0,0c0,0,3.6-2.4,16.5-5.8c0,0,0,0,0,0C314.7,86.5,314.7,94.7,314.6,104.3z"/>
			<path class="st19" d="M321.5,91.1c-0.1,2.7-0.1,7.9-0.1,13.8c-0.3,0-0.6,0-1,0c-0.9,0-1.9,0-2.8-0.1c0.6-7.3,1.5-11.9,1.9-13.7
				c0.1-0.6,0.2-0.9,0.2-0.9l1.7,0.3C321.6,90.7,321.5,90.9,321.5,91.1z"/>
			<g>
				<path class="st20" d="M342.9,94.5c-1,1.2-2.1,2.3-3.3,3.3c-0.3,0.3-0.7,0.6-1,0.8l2.3-7.6l0,0c0,0,0,0,0,0
					c0.1,0.1,0.3,0.2,0.4,0.5C341.9,92.1,342.4,93.1,342.9,94.5z"/>
			</g>
			<g>
				<path class="st20" d="M299.7,96.2c-0.2-0.2-0.4-0.4-0.5-0.6c-0.7-0.7-1.3-1.4-1.9-2.2c0.3-0.8,0.7-1.3,1-1.5l0,0L299.7,96.2z"/>
			</g>
		</g>
	</g>
	<path class="st21" d="M144.5,44.7h-34.8c-1.3,0-2.3-1-2.3-2.3v-4.5c0-1.3,1-2.3,2.3-2.3h34.8c1.3,0,2.3,1,2.3,2.3v4.5
		C146.8,43.7,145.8,44.7,144.5,44.7z"/>
	<g>
		<path class="st8" d="M341.5,195c0,12.4-10,22.5-22.5,22.5c-12.5,0-22.5-10.1-22.5-22.5c0-12.4,10.1-22.5,22.5-22.5
			C331.4,172.5,341.5,182.6,341.5,195z"/>
		<g>
			<path class="st22" d="M318.9,204c-0.6,0-1.1-0.5-1.1-1.1v-15.7c0-0.6,0.5-1.1,1.1-1.1c0.6,0,1.1,0.5,1.1,1.1v15.7
				C320.1,203.5,319.6,204,318.9,204z"/>
		</g>
		<g>
			<path class="st22" d="M326.8,196.1h-15.7c-0.6,0-1.1-0.5-1.1-1.1c0-0.6,0.5-1.1,1.1-1.1h15.7c0.6,0,1.1,0.5,1.1,1.1
				C327.9,195.6,327.4,196.1,326.8,196.1z"/>
		</g>
	</g>
	<g>
		<linearGradient id="SVGID_4_" gradientUnits="userSpaceOnUse" x1="254.1274" y1="132.1206" x2="275.2535" y2="132.1206">
			<stop  offset="0" style="stop-color:#1CBBE9"/>
			<stop  offset="1" style="stop-color:#2176FF"/>
		</linearGradient>
		<path class="st23" d="M272.1,142.7h-14.9c-1.7,0-3.1-1.4-3.1-3.1v-14.9c0-1.7,1.4-3.1,3.1-3.1h14.9c1.7,0,3.1,1.4,3.1,3.1v14.9
			C275.3,141.3,273.9,142.7,272.1,142.7z"/>
	</g>
	<g>
		<g>
			<g>
				<path class="st24" d="M264,136.8l-5.3-4.7c-0.4-0.4-0.5-1-0.1-1.5c0.4-0.4,1-0.5,1.5-0.1l3.8,3.3l5.4-6c0.4-0.4,1.1-0.5,1.5-0.1
					c0.4,0.4,0.5,1.1,0.1,1.5L264,136.8z"/>
			</g>
		</g>
	</g>
	<g>
		<linearGradient id="SVGID_5_" gradientUnits="userSpaceOnUse" x1="254.1274" y1="159.1939" x2="275.2535" y2="159.1939">
			<stop  offset="0" style="stop-color:#1CBBE9"/>
			<stop  offset="1" style="stop-color:#2176FF"/>
		</linearGradient>
		<path class="st25" d="M272.1,169.8h-14.9c-1.7,0-3.1-1.4-3.1-3.1v-14.9c0-1.7,1.4-3.1,3.1-3.1h14.9c1.7,0,3.1,1.4,3.1,3.1v14.9
			C275.3,168.4,273.9,169.8,272.1,169.8z"/>
	</g>
	<g>
		<g>
			<g>
				<path class="st24" d="M264,163.8l-5.3-4.7c-0.4-0.4-0.5-1-0.1-1.5c0.4-0.4,1-0.5,1.5-0.1l3.8,3.3l5.4-6c0.4-0.4,1.1-0.5,1.5-0.1
					c0.4,0.4,0.5,1.1,0.1,1.5L264,163.8z"/>
			</g>
		</g>
	</g>
	<g>
		<g>
			<linearGradient id="SVGID_6_" gradientUnits="userSpaceOnUse" x1="254.1274" y1="186.2673" x2="275.2535" y2="186.2673">
				<stop  offset="0" style="stop-color:#1CBBE9"/>
				<stop  offset="1" style="stop-color:#2176FF"/>
			</linearGradient>
			<path class="st26" d="M272.1,196.8h-14.9c-1.7,0-3.1-1.4-3.1-3.1v-14.9c0-1.7,1.4-3.1,3.1-3.1h14.9c1.7,0,3.1,1.4,3.1,3.1v14.9
				C275.3,195.4,273.9,196.8,272.1,196.8z"/>
		</g>
	</g>
	<g>
		<path class="st27" d="M169.1,327.7c0,0-1.1,2.4-2,3.4c-0.9,1-4.4,2.7-4.4,5.5c0,3.1,5.8,2.2,8.1,2.1c2.3-0.1,2.5-1.8,3.4-3.5
			c1-1.7,1.9-1.5,2.1-2.9c0.2-1.4-0.7-4.6-0.7-4.6L169.1,327.7z"/>
		<path class="st28" d="M169,326.8l-0.2,1.5c0,0,3.6,1.2,7,0.1l-0.2-2L169,326.8z"/>
		<path class="st27" d="M211.4,327.7c0,0,1.1,2.4,2,3.4c0.9,1,4.4,2.7,4.4,5.5c0,3.1-5.8,2.2-8.1,2.1c-2.3-0.1-2.5-1.8-3.4-3.5
			c-1-1.7-1.9-1.5-2.1-2.9c-0.2-1.4,0.7-4.6,0.7-4.6L211.4,327.7z"/>
		<path class="st28" d="M211.5,326.8l0.2,1.5c0,0-3.6,1.2-7,0.1l0.2-2L211.5,326.8z"/>
		<path class="st29" d="M209.6,287.9c0,3.8,3.5,38.5,3.5,38.5c-0.4,1.3-9.1,1.1-10.5,0.5c-1.4-0.6-5.3-35-5.6-38.9
			c-0.3-3.8-5.9-37.2-7.1-37c-1.2,0.1-6.8,35.8-7.8,38.8c-1,2.9-5.3,37.5-5.3,37.5c-3,1.6-10.1-0.4-10.1-0.4s1.5-35.5,1.7-36.5
			c0.3-1.6,0-5.9,0.7-15.3c0.6-8.5,2.9-26.9,4.3-36.9c0.1-0.4,0.1-0.7,0.1-1c0.3-1.9,0.5-3.4,0.6-4.1c0-0.3,0.1-0.5,0.1-0.5
			c0.4-0.2,0.8-0.3,1.2-0.5c10-3.3,28.9-3.1,28.9-3.1s0.3,3.4,0.3,3.6c0,0.2,0.1,0.5,0.1,0.9c0.1,0.9,0.3,2.2,0.5,3.7c0,0,0,0,0,0
			c0,0,0,0.1,0,0.1c0.7,5.4,1.6,13.4,1.5,14.2C206.7,252.7,209.6,284.1,209.6,287.9z"/>
		<g>
			<path class="st14" d="M211,175.5l-4.9,17.5c-0.2,0.6-0.4,1.3-0.6,2.1l0,0c0,0,0,0,0,0c-0.8,3.1-1.8,7.9-2.1,13.2
				c-0.2,3.6,0.5,18.1,0.5,18.1s-7.4,2.8-18.5,2.1c0,0-11.9-0.3-10.9-7.6c2.6-19.3,0.1-27.3-0.3-29.2c0,0-1.4-8.9-2.6-16.8
				c3.4-1.2,17.5-6.5,17.5-6.5l7.4,0.6C196.5,169,207.8,171.8,211,175.5z"/>
		</g>
		<g>
			<path class="st15" d="M192.8,143.6c0,0,7.2,1.2,6,12.6c-1.2,11.3-7.6,10.3-8,10.3c-0.4,0-6.4,0.1-6.7-13.7
				C184.1,152.8,184,142.5,192.8,143.6z"/>
		</g>
		<g>
			<path class="st15" d="M196,163.2c0,0-0.2,4.7,0.2,5.7c0.4,1-5.8,4.2-9.7,0.6c0,0,0.8-5.1,0.5-6.9S196,163.2,196,163.2z"/>
		</g>
		<g>
			<path class="st15" d="M199,153c0,0,0.8-0.8,1.1,0c0.3,0.9-1.3,4.7-1.2,4.9c0,0-0.1,0.3-0.3,0.1C198.4,157.8,199,153,199,153z"/>
		</g>
		<g>
			<path class="st15" d="M184.1,152.7c0,0-0.8-0.9-1.1,0s0.8,4.7,1,4.9c0,0,0.2,0.4,0.4,0.2C184.7,157.6,184.1,152.7,184.1,152.7z"
				/>
		</g>
		<g>
			<path class="st16" d="M199.4,152c-0.3,1.6-0.5,2.7-0.5,2.7l-1.1,1.4c0,0,0.1-3-0.1-3.5c-0.1-0.2-0.1-0.5-0.2-0.8
				c-0.1-0.6-0.2-1.2-0.3-1.4c-0.1-0.3-6.2-2.1-11.6,0.4c0,0,0,0.5,0,1c0,0.6-0.1,1.3-0.3,1.4c-0.5,0.2-0.3,3.6-0.3,3.6l-0.8-1
				c0,0-0.2-1.8-0.5-3.8c0,0,0,0,0,0c-0.1-0.5-0.1-1-0.2-1.4c-0.1-2,0.1-5.7,2.7-7.9c1.8-0.8,6.7-1.5,9.4,0c0,0,1.5,0.9,1.8,1.2
				C200.4,147,199.4,152,199.4,152z"/>
		</g>
		<path class="st17" d="M187.5,165c0,0,1.2,1.6,3.8,1.5c2.7-0.1,3.8-1.5,3.8-1.5s-1.3,2.7-3.9,2.6C188.8,167.7,187.5,165,187.5,165z
			"/>
		<path class="st15" d="M185.8,169.6c0,0,1.9,3.4,5.6,3.7c2.3,0.2,4.3-2.8,5.3-4.2C196.7,169,191.5,166.8,185.8,169.6z"/>
		<path class="st18" d="M196,168c0,0-1.5,1.9-4.6,4l2,3l3.3-6L196,168z"/>
		<path class="st18" d="M186.6,168.4c0,0,1.9,2.4,4.7,3.6l-2.2,3.1l-3.7-5.3L186.6,168.4z"/>
		<path class="st19" d="M191.4,172l1.7,2.6c0,0-1.8,1-3.4-0.1L191.4,172z"/>
		<path class="st30" d="M174.1,229.9c0,0,9.1,3.4,29.6,0.2l-0.3-3.7c0,0-11.9,3.5-29,0.5L174.1,229.9z"/>
		<path class="st31" d="M196.7,169c0,0-2.1,15.9-1.8,29.6c0.3,13.7,4.7,39.3,4.7,39.3s7.9-0.8,9.9-3.3c0,0-4.5-24.7-4.4-28.4
			c0.1-3.7,5.8-31.2,5.8-31.2S208.7,172.2,196.7,169z"/>
		<path class="st31" d="M185.3,169.9c0,0,0,15.1-0.3,28.7c-0.3,13.7-2.1,39.2-2.1,39.2s-9.3-1.3-11.3-3.8c0,0,3.3-24,3.1-27.6
			c-0.1-3.7-4.2-30.9-4.2-30.9S172,173.4,185.3,169.9z"/>
		<rect x="186.5" y="227.5" class="st32" width="5.6" height="4.1"/>
		<path class="st19" d="M190.6,173.9c0,0-2.5,8.5-2.7,25.4c-0.2,16.9,0.3,21.7,0.3,21.7l1.9,3.8l2.6-4c0,0-0.8-38.9-0.3-46.7
			L190.6,173.9z"/>
		<path class="st10" d="M201,197.7c0,0,3.7-1.9,4.2-2.2c0.5-0.3,6.7-1.2,7.4-1.2c0.8,0,0.8,0.6,0.6,0.9c-0.2,0.2-6.4,1.2-6.5,1.4
			c-0.1,0.1,0.5,0.1,0.5,0.1s6.6-0.1,7.1,0.3c0.5,0.4-0.1,0.9-0.3,1c0,0,0.6,0.7-0.1,1c-0.7,0.3-1.6,0.5-1.6,0.5s0.9,0.5,0.3,0.9
			c-0.6,0.4-7.6,2.6-7.6,2.6S202.4,197.8,201,197.7z"/>
		<path class="st31" d="M213.7,210.4c-4.8,1.1-15.9-0.7-20.1-1.6c-0.9-0.2-1.9-0.4-2.9-0.6h0c-1.7-0.3-3.5-0.7-5-0.9h0
			c-1.8-0.3-3.1-0.5-3.1-0.5s23.3-5.2,24.1-5.2c0.9,0-2.1-13.6-2.1-13.6s-3-11.4-1.4-15.9c0,0,5.9,1.8,7.8,3.2
			c1.1,0.8,1.8,5.7,2.6,9.1c0.9,4.3,3.1,13.9,3.3,16C217,202.1,218.5,209.2,213.7,210.4z"/>
		<path class="st31" d="M178.1,172c0,0-7.1,2.4-7.5,3.4c-1.4,3.9-2.1,8.2-2.6,9.9c-0.6,2.1-1.9,8.4-2.2,10.4
			c-0.4,2.6-1.2,11.9-0.9,13.3c0.4,1.8,4.7,1.7,7,1.3c2.3-0.4,34.1-8.1,34.1-8.1s-1.8-5.9-1.9-6.4c0,0-24.5,2.8-27.6,3.5
			c-1.8,0.4-2.2,0.5-2.2,0.5S179.7,177.6,178.1,172z"/>
		<path class="st10" d="M182.3,198.5c0,0-3.2-2.6-3.6-3c-0.4-0.4-6.2-2.6-7-2.8c-0.8-0.1-0.9,0.5-0.8,0.8c0.1,0.5,6,2.5,6.1,2.7
			c0.1,0.2-0.5,0-0.5,0s-6.5-1.5-7-1.2c-0.5,0.3-0.1,0.9,0.1,1c0,0-0.7,0.5-0.1,1c0.6,0.4,1.5,0.8,1.5,0.8s-1,0.3-0.5,0.8
			c0.5,0.5,3.9,1.3,3.9,1.3S180.9,198.4,182.3,198.5z"/>
		<path class="st33" d="M201.4,203.4l-10.8,4.7h0c-1.7-0.3-3.5-0.7-5-0.9L201.4,203.4z"/>
		<path class="st16" d="M196.2,143.5c0,0,1.8-0.9,2.8,0.3c1,1.2,1.1,7.6-0.1,10.1C197.7,156.4,199.1,145.1,196.2,143.5z"/>
	</g>
	<rect x="124.6" y="207.5" class="st34" width="3.2" height="146"/>
	<path class="st35" d="M135.2,329.4H43.1c-3.8,0-6.8-3-6.8-6.8V153.3c0-3.8,3-6.8,6.8-6.8h92.1c3.8,0,6.8,3,6.8,6.8v169.3
		C142,326.3,139,329.4,135.2,329.4z"/>
	<path class="st4" d="M132.4,322.2H46c-3.7,0-6.7-3-6.7-6.7V156.2c0-3.7,3-6.7,6.7-6.7h86.4c3.7,0,6.7,3,6.7,6.7v159.3
		C139.1,319.2,136.1,322.2,132.4,322.2z"/>
	<rect x="73.4" y="145.1" class="st34" width="31.5" height="7.1"/>
	<g>
		<g>
			<g>
				<g>
					<path class="st36" d="M119.9,315.3H56c-5.2,0-9.4-4.2-9.4-9.4v-36.4c0-5.2,4.2-9.4,9.4-9.4h63.9c5.2,0,9.4,4.2,9.4,9.4v36.4
						C129.3,311.1,125.1,315.3,119.9,315.3z M56,261.3c-4.5,0-8.2,3.7-8.2,8.2v36.4c0,4.5,3.7,8.2,8.2,8.2h63.9
						c4.5,0,8.2-3.7,8.2-8.2v-36.4c0-4.5-3.7-8.2-8.2-8.2H56z"/>
				</g>
			</g>
		</g>
	</g>
	<g>
		<g>
			<path class="st20" d="M62.5,227.3C62.5,227.3,62.5,227.3,62.5,227.3C62.6,227.3,62.6,227.3,62.5,227.3z"/>
		</g>
	</g>
	<g>
		<path class="st36" d="M118,223.4c-5.7,0-10.4-4.7-10.4-10.4c0-5.7,4.7-10.4,10.4-10.4c5.7,0,10.4,4.7,10.4,10.4
			C128.5,218.7,123.8,223.4,118,223.4z M118,203.7c-5.1,0-9.2,4.1-9.2,9.2c0,5.1,4.1,9.2,9.2,9.2c5.1,0,9.2-4.1,9.2-9.2
			C127.3,207.9,123.1,203.7,118,203.7z"/>
	</g>
	<g>
		<path class="st36" d="M118,247.4c-5.7,0-10.4-4.7-10.4-10.4c0-5.7,4.7-10.4,10.4-10.4c5.7,0,10.4,4.7,10.4,10.4
			C128.5,242.7,123.8,247.4,118,247.4z M118,227.7c-5.1,0-9.2,4.1-9.2,9.2s4.1,9.2,9.2,9.2c5.1,0,9.2-4.1,9.2-9.2
			S123.1,227.7,118,227.7z"/>
	</g>
	<g>
		<path class="st36" d="M71.1,213.4c-0.9,0-1.7,0-2.6-0.1c-0.9-0.1-1.9-0.2-2.8-0.4c-4-0.8-7.8-2.5-11-5c-1-0.7-1.9-1.5-2.7-2.4
			c-0.2-0.2-0.3-0.3-0.5-0.5c-0.6-0.6-1.2-1.3-1.7-2c-3.7-4.8-5.6-10.5-5.6-16.5c0-14.9,12.1-27,27-27v1.2
			c-14.2,0-25.8,11.6-25.8,25.8c0,5.8,1.9,11.2,5.4,15.8c0.5,0.7,1.1,1.3,1.6,1.9c0.1,0.2,0.3,0.3,0.5,0.5c0.8,0.8,1.7,1.6,2.6,2.3
			c3.1,2.4,6.7,4,10.5,4.8c0.9,0.2,1.8,0.3,2.7,0.4c0.8,0.1,1.7,0.1,2.5,0.1c0.3,0,0.6,0,0.8,0c0.8,0,1.6-0.1,2.3-0.2
			c4.2-0.5,8.3-2.1,11.7-4.5c0.4-0.3,0.7-0.5,1.1-0.8c0.3-0.2,0.6-0.5,0.9-0.7c1-0.9,2-1.9,2.9-2.9c3.9-4.6,6-10.5,6-16.6
			c0-1.3-0.1-2.5-0.3-3.8l1.2-0.2c0.2,1.3,0.3,2.6,0.3,4c0,6.3-2.2,12.5-6.3,17.4c-0.9,1.1-1.9,2.1-3,3.1c-0.3,0.3-0.6,0.5-0.9,0.8
			c-0.4,0.3-0.7,0.6-1.1,0.8c-3.6,2.6-7.9,4.2-12.3,4.8c-0.8,0.1-1.6,0.2-2.4,0.2C71.7,213.4,71.4,213.4,71.1,213.4z"/>
	</g>
	<path class="st36" d="M89.9,200.7c-0.1-0.1-0.2-0.2-0.3-0.3c0,0-0.1-0.1-0.1-0.1c0,0,0,0,0,0l0,0c-1.2-0.6-4.6-2.3-11.2-4.2
		c0,0,0,0,0,0c-1.2-0.4-2.1-0.6-2.4-0.7c-0.1,0-0.1,0-0.1,0l-0.3,0c0,0,0,0,0-0.1c-0.3-0.6-0.2-2.7-0.2-4c0.9-1.1,1.8-2.8,2.3-5.5
		c0.2,0.1,0.3-0.1,0.3-0.1c-0.1-0.2,1.3-3.5,1-4.2c-0.1-0.4-0.4-0.4-0.6-0.3c0-0.2,0.1-0.4,0.1-0.6c0,0,0.5-5.1-2-7.9
		c-0.3-0.3-1.2-0.3-1.2-0.3c-4.1-1.3-6.6-0.7-8.2,0c-2.3,1.9-2.5,5.1-2.4,6.9c0,0.4,0.1,0.8,0.1,1.2c0,0,0,0,0,0
		c0,0.2,0,0.3,0.1,0.5c-0.2-0.1-0.5-0.2-0.7,0.2c-0.3,0.7,0.7,4,0.9,4.3c0,0,0.2,0.3,0.4,0.2l0,0c0.5,2.9,1.3,4.7,2.2,5.8
		c-0.1,1.6-0.4,3.7-0.5,4.2h0c-0.2,0.1-0.4,0.1-0.7,0.2c-0.1,0-0.2,0.1-0.3,0.1c-0.1,0-0.1,0-0.2,0.1c0,0,0,0,0,0
		c-11.5,3.1-14.8,5.2-14.8,5.2c-0.3,0.2-0.6,0.7-0.9,1.4c0.5,0.7,1.1,1.3,1.7,2c0.2,0.2,0.3,0.3,0.5,0.5c0.8,0.8,1.7,1.6,2.7,2.3
		c3.1,2.4,6.8,4.1,10.8,4.9c0.9,0.2,1.8,0.3,2.7,0.4c0.8,0.1,1.7,0.1,2.5,0.1c0.3,0,0.6,0,0.9,0c0.8,0,1.6-0.1,2.4-0.2
		c4.4-0.5,8.5-2.2,12-4.6c0.4-0.3,0.7-0.5,1.1-0.8c0.3-0.2,0.6-0.5,0.9-0.8c1.1-0.9,2-1.9,2.9-3C90.8,202.2,90.3,201.2,89.9,200.7z"
		/>
	<g>
		<g>
			
				<rect x="372.9" y="259.6" transform="matrix(-1 -1.224647e-16 1.224647e-16 -1 777.1073 520.964)" class="st37" width="31.3" height="1.9"/>
		</g>
		<g>
			<rect x="397.3" y="266.2" class="st34" width="2.7" height="84.4"/>
		</g>
		<g>
			
				<rect x="356.1" y="259" transform="matrix(-1 -1.224647e-16 1.224647e-16 -1 733.9047 520.7052)" class="st38" width="21.7" height="2.7"/>
		</g>
		<g>
			
				<rect x="362.8" y="236.4" transform="matrix(-1 -1.224647e-16 1.224647e-16 -1 733.9047 497.828)" class="st39" width="8.2" height="25"/>
		</g>
		<g>
			
				<rect x="295" y="261.4" transform="matrix(-1 -1.224647e-16 1.224647e-16 -1 710.405 527.6796)" class="st40" width="120.4" height="4.8"/>
		</g>
		<g>
			<path class="st20" d="M438.5,232.4c0,0,1.3,18.5-2.3,20.7c-2.3,1.4-11.3,6.1-11,6.9c0.3,0.9,5.1,7.8,5.1,7.8s17.3-11.4,17.9-15
				c0.5-3.5-0.9-27-3.2-28.1c-1.8-0.8-2.7-0.1-5,1.5C436.8,228.5,438.5,232.4,438.5,232.4z"/>
		</g>
		<g>
			<g>
				<g>
					<path class="st41" d="M407,237.7l-1.5-0.6c0,0,1.9-4.5,2.7-4.4c1,0.1,2.2,0.4,2.2,0.4L407,237.7z"/>
				</g>
			</g>
		</g>
		<g>
			<g>
				<g>
					<path class="st42" d="M406.6,238.4c0.2-0.1,3.2-6,3.2-6l6.5,0.9l-3.5,6.9L406.6,238.4z"/>
				</g>
			</g>
		</g>
		<g>
			<g>
				<g>
					<path class="st43" d="M417.2,339.1c0,0,0.5,3.7,0.6,4.3c0.1,0.6,6-0.3,6-0.3l0.5-4.4C424.3,338.6,417.9,338.6,417.2,339.1z"/>
				</g>
			</g>
		</g>
		<g>
			<g>
				<g>
					<path class="st44" d="M417.7,342.9c0,0-1.9,2.3-3.7,3.2c-1.8,1-4.7,1.4-5.7,2.4c-0.8,0.7-2.8,3.9,4.7,3.8
						c7.5-0.1,11.2,0.4,12-0.8c0.8-1.2-1.2-8.9-1.2-8.9S422.1,343.3,417.7,342.9z"/>
				</g>
			</g>
		</g>
		<g>
			<g>
				<g>
					<path class="st43" d="M379.3,339.1c0,0,0.5,3.7,0.6,4.3c0.1,0.6,6-0.3,6-0.3l0.5-4.4C386.3,338.7,380,338.6,379.3,339.1z"/>
				</g>
			</g>
		</g>
		<g>
			<g>
				<g>
					<path class="st44" d="M379.8,343c0,0-1.9,2.3-3.7,3.2c-1.8,1-8.5,1.8-9.6,2.8c-0.8,0.7-2.1,3.7,8.5,3.4
						c7.5-0.2,11.2,0.4,12-0.8c0.8-1.2-1.2-8.9-1.2-8.9S384.2,343.4,379.8,343z"/>
				</g>
			</g>
		</g>
		<g>
			<g>
				<g>
					<path class="st44" d="M436.3,274.6c0,0-21.5,3.6-26.4,4.4c-4.9,0.8-31.2,7.3-34.5,9.3c-2.6,1.6,1.4,39.8,2.3,54.4h10.4
						l0.8-43.7c12.5,0.3,21.3-2.9,30.4-1.5c9.1,1.4,16.6,3.3,22.4-4.4C441.7,293,441.9,276.3,436.3,274.6z"/>
				</g>
			</g>
		</g>
		<g>
			<g>
				<g>
					<path class="st44" d="M415.1,342.7l10.1-0.6l1-43.1c5.4,0.1,7.2-0.2,11.5-0.7l8.2-19c-7.2,1.4-30.1,7.2-33.2,9.1
						C410.1,289.9,414.2,328.1,415.1,342.7z"/>
				</g>
			</g>
		</g>
		<g>
			<g>
				<g>
					<path class="st10" d="M426.4,193.9c0,0-7.9-2.2-10.9,3.9c-3,6.1-1.6,17.7,2.3,18.8c4,1.1,9.7-0.2,11.3-4
						c1.7-3.8,3-9.2,2.6-12.7C431.3,196.4,428.5,194.7,426.4,193.9z"/>
				</g>
			</g>
		</g>
		<g>
			<g>
				<g>
					<path class="st10" d="M419.9,215.4c0,0,0.1,4.7-0.4,5.7c-0.5,1,11,0.7,11,0.7s-1.8-5.6-0.8-10.4
						C430.7,206.8,419.9,215.4,419.9,215.4z"/>
				</g>
			</g>
		</g>
		<g>
			<g>
				<g>
					<path class="st45" d="M430.3,209.7c0,0-0.6,1.3-3.6,1c-3-0.2-6.9-3.8-8.2-4.1c-1.3-0.3-1.3-1-1.3-1l-0.7,1.2l-1.3,0.2
						c0,0,0.9-3.6-1-4.9c-1.9-1.3,0.9-11.5,10.6-9c0,0,7.4,1.4,7.5,5.5C432.4,202.7,431.7,207.5,430.3,209.7z"/>
				</g>
			</g>
		</g>
		<g>
			<g>
				<g>
					<path class="st37" d="M418.9,221c0,0,0-1.9,0.9-2.1c0.9-0.2,9-1.3,10.1-0.9l0.5,2.5C430.3,220.5,428.3,221.8,418.9,221z"/>
				</g>
			</g>
		</g>
		<g>
			<g>
				<g>
					<path class="st10" d="M416.5,204.8c0.2-1.6,2-3.3,3-0.9c1,2.4-0.7,5.9-1.8,5.8C416.5,209.4,416.2,206.9,416.5,204.8z"/>
				</g>
			</g>
		</g>
		<g>
			<g>
				<g>
					<path class="st20" d="M384.6,243.4C384.6,243.4,384.6,243.4,384.6,243.4C384.5,243.4,384.5,243.4,384.6,243.4z"/>
				</g>
			</g>
		</g>
		<g>
			<g>
				<g>
					<path class="st45" d="M428.7,195c0,0,9.6-0.5,1.7,14.6L428.7,195z"/>
				</g>
			</g>
		</g>
		<g>
			<g>
				<polygon class="st46" points="450.1,347.8 449.4,349.8 419.2,340.5 420.6,336.4 				"/>
			</g>
		</g>
		<g>
			<g>
				
					<rect x="418.1" y="306.2" transform="matrix(-1 -1.224647e-16 1.224647e-16 -1 839.7125 645.1964)" class="st46" width="3.4" height="32.9"/>
			</g>
		</g>
		<g>
			<g>
				
					<rect x="409.7" y="304.4" transform="matrix(-1 -1.224647e-16 1.224647e-16 -1 839.7125 610.7635)" class="st47" width="20.3" height="1.9"/>
			</g>
		</g>
		<g>
			<g>
				<polygon class="st46" points="389.3,347.8 390,349.8 420.3,340.5 418.9,336.1 				"/>
			</g>
		</g>
		<g>
			<g>
				<polygon class="st46" points="410.6,349.6 410.6,352 420.3,340.5 418.9,336.1 				"/>
			</g>
		</g>
		<g>
			<g>
				<path class="st48" d="M386.5,350.6c0,1.6,1.3,2.8,2.8,2.8c1.6,0,2.8-1.3,2.8-2.8c0-1.6-1.3-2.8-2.8-2.8
					C387.8,347.8,386.5,349.1,386.5,350.6z"/>
			</g>
		</g>
		<g>
			<g>
				<path class="st48" d="M410.4,350.6c0,1.6,1.3,2.8,2.8,2.8c1.6,0,2.8-1.3,2.8-2.8c0-1.6-1.3-2.8-2.8-2.8
					C411.6,347.8,410.4,349.1,410.4,350.6z"/>
			</g>
		</g>
		<g>
			<g>
				<path class="st48" d="M447.3,350.6c0,1.6,1.3,2.8,2.8,2.8c1.6,0,2.8-1.3,2.8-2.8c0-1.6-1.3-2.8-2.8-2.8
					C448.6,347.8,447.3,349.1,447.3,350.6z"/>
			</g>
		</g>
		<g>
			<path class="st37" d="M398.3,304.4h42.9c1.4,0,2.6-1.1,2.6-2.6v-2.2c0-1.4-1.1-2.6-2.6-2.6h-42.9c-1.4,0-2.6,1.1-2.6,2.6v2.2
				C395.7,303.3,396.9,304.4,398.3,304.4z"/>
		</g>
		<g>
			
				<rect x="310.4" y="266.2" transform="matrix(-1 -1.224647e-16 1.224647e-16 -1 623.5641 616.8651)" class="st34" width="2.7" height="84.4"/>
		</g>
		<g>
			<path class="st49" d="M334,248.5h65.9c1.4,0,2.6-1.1,2.6-2.6v-45c0-1.4-1.1-2.6-2.6-2.6H334c-1.4,0-2.6,1.1-2.6,2.6v45
				C331.4,247.3,332.6,248.5,334,248.5z"/>
		</g>
		<g>
			
				<rect x="334.2" y="201" transform="matrix(-1 -1.224647e-16 1.224647e-16 -1 733.9047 441.6479)" class="st21" width="65.5" height="39.6"/>
		</g>
		<g>
			
				<rect x="334.2" y="201" transform="matrix(-1 -1.224647e-16 1.224647e-16 -1 733.9047 405.2384)" class="st50" width="65.5" height="3.1"/>
		</g>
		<g>
			<path class="st50" d="M338.2,238.2h4.7c0.9,0,1.6-0.7,1.6-1.6v-28.4c0-0.9-0.7-1.6-1.6-1.6h-4.7c-0.9,0-1.6,0.7-1.6,1.6v28.4
				C336.6,237.5,337.3,238.2,338.2,238.2z"/>
		</g>
		<g>
			<path class="st50" d="M384.3,209.5H397c0.5,0,0.9-0.4,0.9-0.9v-1.2c0-0.5-0.4-0.9-0.9-0.9h-12.7c-0.5,0-0.9,0.4-0.9,0.9v1.2
				C383.4,209.1,383.8,209.5,384.3,209.5z"/>
		</g>
		<g>
			<path class="st50" d="M385.2,239h10.9c1,0,1.8-0.8,1.8-1.8v-24c0-1-0.8-1.8-1.8-1.8h-10.9c-1,0-1.8,0.8-1.8,1.8v24
				C383.4,238.2,384.2,239,385.2,239z"/>
		</g>
		<g>
			<path class="st51" d="M364.7,244.4c0,1.3,1,2.3,2.3,2.3c1.3,0,2.3-1,2.3-2.3c0-1.3-1-2.3-2.3-2.3
				C365.7,242.1,364.7,243.1,364.7,244.4z"/>
		</g>
		<g>
			<path class="st52" d="M352.2,261.5v-0.9c0,0,1.3-5.5,10.1-5.5c8.9,0,8.7,6.4,8.7,6.4H352.2z"/>
		</g>
		<g>
			<g>
				<path class="st10" d="M371.2,255.9c0,0-1.9-0.1-2.6-0.6c-0.7-0.4-4.9-3.3-5.9-2.8c-1,0.5-7.6,2.5-7.4,3.4c0.2,1,0.8,0.9,1.3,0.7
					c0.5-0.2,5.3-1.2,5.7-1c0,0-4.7,1.7-4.7,3c0,1.3,1,1.6,1.4,2c0.4,0.5,1,1.7,2.2,1.7c1.2,0.1,7.1-2,8.4-2.1
					c1.2-0.1,3.5,0.1,3.6-0.1C373.3,260,371.2,255.9,371.2,255.9z"/>
			</g>
		</g>
		<g>
			<g>
				<g>
					<path class="st20" d="M406.2,223.6c6.1-1.1,12.6-2.6,12.6-2.6l11.4-0.5c0,0,10.5,2.3,14.6,4.2c0.4,0.2,0.4,9.4,1.5,11.8
						l-3.4,7.2c0,0-2,14.3-2.4,20.7c-0.2,2.9,0.5,28.3,0.5,28.3s-1,0.5-8.8,1.4c-7.8,0.9-27.3-0.3-27.4-1.2
						c-0.1-0.9,3.8-34.3,4-36.1c0.3-2.7-0.8-14.9-0.8-14.9c-1.5,2-5.2,10.9-9.1,15.1c-2.3,2.5-13.7,4-15.8,4.1
						c-4.7,0.2-13.2,1.1-13.4,0.6c-0.2-0.3-0.7-7.6-0.2-7.7c0.5-0.2,16.3-1.1,20.3-3.2c1.5-0.8,5.9-10.5,5.9-10.5
						S402.9,225.1,406.2,223.6z"/>
				</g>
			</g>
		</g>
		<g>
			<path class="st37" d="M426.7,291.9H450c2.7,0,4.9-2.2,4.9-4.9v-36c0-2.7-2.2-4.9-4.9-4.9h-23.3c-2.7,0-4.9,2.2-4.9,4.9v36
				C421.8,289.7,424,291.9,426.7,291.9z"/>
		</g>
		<g>
			<path class="st37" d="M427.7,302.6c4.9,0,8.8-1.6,11.8-4.9c6.6-7.3,5.4-20.2,5.4-20.7c-0.1-1-1-1.8-2-1.7c-1,0.1-1.8,1-1.7,2
				c0,0.1,1.1,11.8-4.4,17.9c-2.2,2.5-5.2,3.7-9,3.7c-1,0-1.8,0.8-1.8,1.8C425.9,301.8,426.7,302.6,427.7,302.6z"/>
		</g>
		<g>
			<path class="st8" d="M367.9,217.2c0,2.3-0.8,4.3-2.2,6c-0.3,0.4-0.7,0.7-1,1c-0.1,0.1-0.2,0.2-0.3,0.3c-0.1,0.1-0.3,0.2-0.4,0.3
				c-1.2,0.9-2.7,1.4-4.2,1.6c-0.3,0-0.6,0.1-0.8,0.1c-0.1,0-0.2,0-0.3,0c-0.3,0-0.6,0-0.9,0c-0.3,0-0.6-0.1-1-0.1
				c-1.4-0.3-2.7-0.9-3.8-1.7c-0.3-0.3-0.6-0.5-0.9-0.8c-0.1-0.1-0.1-0.1-0.2-0.2c-0.2-0.2-0.4-0.4-0.6-0.7
				c-1.2-1.6-1.9-3.5-1.9-5.7c0-5.1,4.1-9.2,9.2-9.2C363.8,208,367.9,212.1,367.9,217.2z"/>
			<g>
				<g>
					<path class="st14" d="M364.7,222.3l-0.7,2.4c-1.2,0.9-2.7,1.4-4.2,1.6c-0.3,0-0.6,0.1-0.8,0.1c-0.1,0-0.2,0-0.3,0
						c-0.3,0-0.6,0-0.9,0c-0.3,0-0.6-0.1-1-0.1c-1.4-0.3-2.7-0.9-3.8-1.7c-0.1-0.8-0.3-1.7-0.4-2.5c0.7-0.3,2.8-1,4.2-1.4
						c0,0,0,0,0.1,0c0,0,0.1,0,0.1,0c0.1,0,0.2-0.1,0.2-0.1c0.1,0,0.1,0,0.2-0.1c0.3-0.1,0.5-0.2,0.5-0.2c0,0,0,0,0,0c0,0,0,0,0,0
						l0,0l1.8,0.1l0.3,0l0.1,0c0,0,0,0,0,0c0.1,0,0.4,0.1,0.9,0.2h0C362.2,220.9,364,221.6,364.7,222.3z"/>
				</g>
				<g>
					<path class="st15" d="M359.1,212.6c0,0,2.2,0.4,1.8,3.8c-0.4,3.4-2.3,3.1-2.4,3.1c-0.1,0-2,0-2.1-4.2
						C356.5,215.4,356.4,212.3,359.1,212.6z"/>
				</g>
				<g>
					<path class="st15" d="M360.1,218.6c0,0-0.1,1.4,0.1,1.7c0.1,0.3-1.8,1.3-3,0.2c0,0,0.2-1.6,0.2-2.1
						C357.3,217.8,360.1,218.6,360.1,218.6z"/>
				</g>
				<g>
					<path class="st15" d="M361,215.5c0,0,0.2-0.3,0.3,0c0.1,0.3-0.4,1.4-0.4,1.5c0,0,0,0.1-0.1,0C360.8,216.9,361,215.5,361,215.5z
						"/>
				</g>
				<g>
					<path class="st15" d="M356.5,215.4c0,0-0.2-0.3-0.3,0c-0.1,0.3,0.3,1.4,0.3,1.5c0,0,0.1,0.1,0.1,0.1
						C356.7,216.9,356.5,215.4,356.5,215.4z"/>
				</g>
				<g>
					<path class="st16" d="M361.1,215.2c-0.1,0.5-0.1,0.8-0.1,0.8l-0.3,0.4c0,0,0-0.9,0-1.1c0-0.1,0-0.2-0.1-0.3
						c0-0.2-0.1-0.4-0.1-0.4c0-0.1-1.9-0.6-3.5,0.1c0,0,0,0.1,0,0.3c0,0.2,0,0.4-0.1,0.4c-0.2,0.1-0.1,1.1-0.1,1.1l-0.3-0.3
						c0,0-0.1-0.5-0.1-1.2c0,0,0,0,0,0c0-0.1,0-0.3,0-0.4c0-0.6,0-1.7,0.8-2.4c0.5-0.2,1.4-0.4,2.9,0c0,0,0.3,0,0.4,0.1
						C361.3,213.4,361.1,215.2,361.1,215.2z"/>
				</g>
				<path class="st17" d="M357.5,219.1c0,0,0.4,0.5,1.2,0.5c0.8,0,1.2-0.4,1.2-0.4s-0.4,0.8-1.2,0.8
					C357.9,219.9,357.5,219.1,357.5,219.1z"/>
				<path class="st15" d="M357,220.5c0,0,0.6,1,1.7,1.1c0.7,0.1,1.3-0.8,1.6-1.3C360.3,220.4,358.7,219.7,357,220.5z"/>
				<path class="st18" d="M360.1,220c0,0-0.5,0.6-1.4,1.2l0.6,0.9l1-1.8L360.1,220z"/>
				<path class="st18" d="M357.3,220.2c0,0,0.6,0.7,1.4,1.1l-0.7,0.9l-1.1-1.7L357.3,220.2z"/>
				<path class="st19" d="M358.7,221.2l0.5,0.8c0,0-0.5,0.3-1,0L358.7,221.2z"/>
				<path class="st20" d="M365.3,222.2C365.3,222.2,365.3,222.2,365.3,222.2c-0.1,0.3-0.3,1-0.6,2c-0.1,0.1-0.2,0.2-0.3,0.3
					c-0.1,0.1-0.3,0.2-0.4,0.3c-1.2,0.9-2.7,1.4-4.2,1.6c0.1-3.2,0.5-6,0.5-6c0.3,0.1,0.6,0.2,0.9,0.2h0c2.3,0.7,3.5,1.3,3.9,1.5
					c0,0,0,0,0,0C365.2,222.1,365.3,222.2,365.3,222.2z"/>
				<path class="st20" d="M356.8,226.3c-1.4-0.3-2.7-0.9-3.8-1.7c-0.3-0.3-0.6-0.5-0.9-0.8c-0.1-0.1-0.1-0.1-0.2-0.2
					c-0.2-0.7-0.3-1.1-0.3-1.2l0,0c0,0,1.1-0.8,5.2-1.8c0,0,0,0,0,0C356.8,220.7,356.8,223.2,356.8,226.3z"/>
				<path class="st19" d="M359,222.1c0,0.8,0,2.5,0,4.3c-0.1,0-0.2,0-0.3,0c-0.3,0-0.6,0-0.9,0c0.2-2.3,0.5-3.7,0.6-4.3
					c0-0.2,0.1-0.3,0.1-0.3l0.5,0.1C359,222,359,222,359,222.1z"/>
				<g>
					<path class="st20" d="M365.7,223.2c-0.3,0.4-0.7,0.7-1,1c-0.1,0.1-0.2,0.2-0.3,0.3l0.7-2.4v0c0,0,0,0,0,0c0,0,0.1,0.1,0.1,0.1
						C365.4,222.4,365.6,222.7,365.7,223.2z"/>
				</g>
				<g>
					<path class="st20" d="M352.1,223.7c-0.1-0.1-0.1-0.1-0.2-0.2c-0.2-0.2-0.4-0.4-0.6-0.7c0.1-0.2,0.2-0.4,0.3-0.5l0,0
						L352.1,223.7z"/>
				</g>
			</g>
		</g>
	</g>
	<g>
		<path class="st53" d="M289.9,334.8c0,0-1.2-2-2.9-2.7c-1.7-0.8-5,1.9-5.3,3.4l-3.9,5.7l0.7,0.5l2.1-3.1c-1.4,3.4-3.5,7.5-2,9.6
			c1.9,2.8,6.3,5.6,7.4,5.1c1.2-0.5,0.9-8.6,0.9-8.6C285.7,337.7,289.9,334.8,289.9,334.8z"/>
		<g>
			<path class="st54" d="M289.9,334.8c0,0-1.4,2.8-2.2,4.9c-0.7,2.1-0.9,8.1-1.3,8.5c-0.5,0.4-4.1-1.4-4.6-3.6c-0.5-2.2,1-6.6,2.4-9
				c1.4-2.3,2.8-3.5,2.8-3.5S289.6,332.5,289.9,334.8z"/>
		</g>
		<path class="st54" d="M304,282.9c0,0-2.2,11.9-2.2,14.7s-0.8,7.5-2.6,10.9c-1.8,3.4-9.7,27-10.4,29.7c-0.7,2.7-1.3,5.3-1.3,5.3
			s-4-1.8-4-4.4c0-2.6,3.4-23.9,4-28.1c0.6-4.2,5.6-25.8,5.6-25.8L304,282.9z"/>
		<path class="st10" d="M291.4,282.2c0,0,0.8,9.9,0.7,12.5c-0.1,2.6-1.3,8.4-1.3,10c0,1.5,0,33.6,1.3,37.5c1.3,3.9-3.6,1.2-3.6,1.2
			s-8.5-21.1-8.5-29.9c0-8.8,1-13.2,0.4-18.8c-0.6-5.6-3.3-13-3.3-13L291.4,282.2z"/>
		<path class="st55" d="M278.5,234.5c0,0-4.6,5.6-5.8,13.1c-1.2,7.5,1.4,21.6,2.4,25.7c0.8,3.6,2.4,15.1,2.5,16.3
			c0,0,15.4,1.7,27.1-2c0,0,1.1-16,1.8-22.8c0.7-6.8-2.7-29.8-2.7-29.8L278.5,234.5z"/>
		<path class="st53" d="M296.1,351.9c-5.5-4.8-4-9.8-4-9.8s-2.2-0.8-4-0.3c-1.8,0.4-2.7,4.7-2,6.1l0.6,7l0.9-0.1l-0.3-3.7
			c1.1,3.6,2.1,8.2,4.5,8.9c3.3,1,8.5,0.4,9.1-0.7C301.4,358.1,296.1,351.9,296.1,351.9z"/>
		<path class="st56" d="M299.3,182.1c0,0-1.4,8.1-0.2,10.9c1.2,2.7-6.3-3.2-6.3-3.2S296,180.8,299.3,182.1z"/>
		<path class="st56" d="M296.6,159.5c0,0-11.9-2.7-13.4,10c-1.5,12.8,3.9,14.4,0.2,23c-3.6,8.6,8.9-2.8,8.9-2.8L296.6,159.5z"/>
		<path class="st10" d="M295.6,159.4c3.1-0.1,9.8,1.7,10.6,9.8c0,0-0.3,2.2-0.9,3.9c-0.6,1.7,0.8,6.8,0.4,7.1
			c-0.4,0.2-2.1,0.5-2.1,0.5s-1.9,5.5-3.9,5.4c-1.9-0.1-9.3-1.8-12.5-8.8C284,170.2,283.2,159.6,295.6,159.4z"/>
		<g>
			<g>
				<path class="st53" d="M262.2,260.4c0,0,0.3-4.9,1.6-5.7c1.3-0.8,0.5,0.8,0.5,0.8s-0.7,3.6-0.9,5
					C263.4,260.6,262.2,260.4,262.2,260.4z"/>
			</g>
		</g>
		<g>
			<g>
				<path class="st10" d="M268.2,249.3c0,0,0.4,2.2,1,4.3c0.7,2.1,1.3,2.8,1,4c-0.2,0.9-1.2,1.6-1.5,1.3c-0.3-0.3-0.4-3.9-1.9-3.8
					c-1.5,0,0.4,4.4-0.4,4.1c-0.9-0.3-4.3-2.2-4.1-4c0.2-1.8,1.6-3.1,1.5-5.8c-0.1-2.4,0.7-3.5,0.7-3.5L268.2,249.3z"/>
			</g>
		</g>
		<g>
			<g>
				<path class="st53" d="M267,255c0,0,2,0.5,1.9,7.2l-2.2-0.4c0,0,0-3.7-0.6-5.7C266,256.1,266.1,254.8,267,255z"/>
			</g>
		</g>
		<g>
			<g>
				<polygon class="st18" points="275.2,263.7 257.8,258.7 257.9,280.1 275.1,290.5 				"/>
			</g>
		</g>
		<g>
			<polygon class="st18" points="275.1,290.5 273,290.9 256.2,280.4 256.4,258.8 257.8,258.7 			"/>
		</g>
		<path class="st55" d="M297.2,189.4c0,0,4.6,1.9,5.5,2.5c0.8,0.6,2.5,7.3,2.9,7.9c0.4,0.6,4.4,5.5,3.9,9.6
			c-0.4,3.2-2.2,4.8-3.4,6.1c-1.2,1.2-2.2,7.9-2.6,8.9c-0.4,1,0.8,14,0.8,14s-13.6,5.3-25.7-3.7c0,0,2.4-8.7,2.4-10.3
			c0-1.6-1.6-12.6-5.8-19.2c-4.2-6.5,0.7-13.5,4-14.3c3.2-0.8,9.4-3.1,9.4-3.1L297.2,189.4z"/>
		<path class="st55" d="M282.4,189.8c0,0-6.8-0.4-10.2,3.5c-3.4,4-3.2,8.7-4.1,10.7c-0.9,2-2.9,10.9-3.3,12.3
			c-0.4,1.4-0.9,9.4-1.5,15.9c-0.6,6.4-0.5,18.5-0.5,18.5l6.5-1.2c0,0,0.3-11.5,0.4-18.1c0.2-6.7,5.6-18.4,7.6-23.6
			C279.4,202.7,287.6,193,282.4,189.8z"/>
		<path class="st55" d="M302,191.5c0,0,3,0.2,4.4,3.2c1.4,3,2,5.5,2.3,6.2c0.4,0.7,5.5,10.5,5.8,12.7c0.3,2.2-0.2,6.1-2.9,7.2
			c-2.7,1.1-12.5,1.2-12.5,1.2s2.5-5,0.2-7.6c0,0,7.1-1.3,8.8-1.5C309.9,212.6,299.7,193.7,302,191.5z"/>
		<g>
			<polygon class="st53" points="285.7,199.9 299,230.8 315.5,223 303.3,193.3 			"/>
		</g>
		<g>
			<path class="st10" d="M293.3,215.1c0,0-1.8,0.5-2.4,0.6c-0.6,0.1,0.1,1.1,0.8,1.2C292.5,216.8,293.3,215.1,293.3,215.1z"/>
		</g>
		<g>
			<path class="st10" d="M294.5,223.9c0,0,0.8,0,1.2-0.2c0,0,0.6-0.4,1.1-0.7c0.1-0.1,0.3-0.2,0.4-0.2c0.4-0.1,1.2-0.4,2-1
				c0.8-0.6,3.3-3,3.3-3l-1.7-2.5l-1.3-2c0,0-5.4,0.1-6.2,0.6c-0.1,0-0.2,0.1-0.2,0.1c-0.6,0.5-0.9,1.1-1.2,1.4
				c-0.1,0.1-1.1,1.2-1.1,1.7c0.1,0.6,0.4,1,0.8,1.2c0,0,0.2,1.2,0.9,1.8c0,0,0.2,1.1,1.1,1.6C293.5,222.6,293.8,223.8,294.5,223.9z
				"/>
		</g>
		<path class="st55" d="M299.3,214.3c0,0,8.1-1.4,10.3-1.7c0,0,0.2-2.8-0.3-5.2c-0.4-2.4-2.4-5.6-2.4-5.6l4.1,3.8c0,0,3.4,6.5,3.5,8
			c0.1,1.5,0.5,3.9-1.5,6.2c-2,2.4-11.5,1.3-11.5,1.3S302.4,218.2,299.3,214.3z"/>
		<path class="st10" d="M296.9,184.7c0,0-0.3,0.8-0.6,1.9c-0.2,0.6-0.3,1.3-0.5,2c-0.4,2-0.7,4.4-0.2,6c0,0-4.3,1.4-7.6-4.8
			c0,0,1.6-6.5-0.1-10.5C286.1,175.2,296.9,184.7,296.9,184.7z"/>
		<path class="st56" d="M306.2,169.2c0,0-5.1,3.2-10,3.8c-5,0.5-7.7,8-7.7,8s-7.8-12.1-1.5-19.6C293.2,154,307.5,159.7,306.2,169.2z
			"/>
		<path class="st10" d="M294.1,172.7c0-1-1-2.4-2.6-1.2c-1.6,1.3,0.4,5.9,1.7,5.5C294.5,176.6,294.1,173.7,294.1,172.7z"/>
		<path class="st10" d="M297.5,189.5c0,0,2,6-2.7,6c-4.8,0-6.9-3.8-8.2-7.1c0,0,2.2-1.1,3.2-1.2C290.8,187,297.5,189.5,297.5,189.5z
			"/>
		<polygon class="st53" points="268.9,261.9 266.6,262.2 266.6,261.1 		"/>
		<path class="st53" d="M263.4,260.3l-1.2,0.1c0,0,0-0.4,0-0.5C262.2,259.9,263.4,260.3,263.4,260.3z"/>
		<g>
			<path class="st10" d="M292.1,342.1c0,0,0.6,3.1,1.4,5.2c0.8,2.2,4.4,6.9,4.3,7.5c-0.1,0.6-4.2,1.5-5.9,0.1
				c-1.8-1.4-3.4-5.9-3.8-8.6c-0.4-2.7-0.2-4.5-0.2-4.5S290.3,340.6,292.1,342.1z"/>
		</g>
		<path class="st12" d="M296.7,185.3c-0.2,0.6-0.4,1.3-0.6,2c-3.9-2.6-5.8-5.8-5.8-5.8C292.5,183.7,296.7,185.3,296.7,185.3z"/>
	</g>
	<path class="st7" d="M113,69.4h50.2c2.7,0,4.8,2.2,4.8,4.8v22.7c0,2.7-2.2,4.8-4.8,4.8H113c-2.7,0-4.8-2.2-4.8-4.8V74.2
		C108.2,71.5,110.4,69.4,113,69.4z"/>
	<g>
		<g>
			<path class="st20" d="M77.5,231.6C77.4,231.6,77.4,231.6,77.5,231.6C77.5,231.6,77.5,231.6,77.5,231.6z"/>
		</g>
	</g>
	<g>
		<g>
			<g>
				<path class="st36" d="M48.3,226.4h45.5c0.9,0,1.6-0.7,1.6-1.6v-2.7c0-0.9-0.7-1.6-1.6-1.6H48.3c-0.9,0-1.6,0.7-1.6,1.6v2.7
					C46.8,225.7,47.5,226.4,48.3,226.4z"/>
			</g>
		</g>
	</g>
	<g>
		<g>
			<g>
				<path class="st36" d="M48.3,236.9h45.5c0.9,0,1.6-0.7,1.6-1.6v-2.7c0-0.9-0.7-1.6-1.6-1.6H48.3c-0.9,0-1.6,0.7-1.6,1.6v2.7
					C46.8,236.2,47.5,236.9,48.3,236.9z"/>
			</g>
		</g>
	</g>
	<g>
		<g>
			<g>
				<path class="st36" d="M48.3,247.4h45.5c0.9,0,1.6-0.7,1.6-1.6v-2.7c0-0.9-0.7-1.6-1.6-1.6H48.3c-0.9,0-1.6,0.7-1.6,1.6v2.7
					C46.8,246.7,47.5,247.4,48.3,247.4z"/>
			</g>
		</g>
	</g>
	<path class="st36" d="M124.5,198.2h-13c-1.6,0-2.9-1.3-2.9-2.9v-35.1c0-1.6,1.3-2.9,2.9-2.9h13c1.6,0,2.9,1.3,2.9,2.9v35.1
		C127.5,196.9,126.2,198.2,124.5,198.2z"/>
	<g>
		<g>
			<g>
				<g>
					<path class="st10" d="M9.8,271.5c0,0,0.7,1.2,0.8,2.2c0.1,0.8,0.7,1.9,1,2.5c0.3,0.6,1.2,3.5,1.2,4.2c0,0.3-0.7,2.2-0.6,2.8
						c0.1,0.6,0.4,1.8-0.1,1.9c-0.6,0.1-1.2-0.9-1.2-0.9s0.1,0.6-0.4,0.8c-0.9,0.4-1.4,0.1-1.4,0.1s-0.3,0.6-0.8,0.7
						c-0.9,0.2-1.4-0.2-1.4-0.2s-0.4,0.3-1,0.3c-0.8,0-1.2-0.7-1.2-0.7s-1,0.2-1.3-0.3s-0.2-1-0.4-1.4c-0.1-0.4,0-4.4,1.3-7.3
						c1.3-2.9-0.3-5.6-0.3-5.6L9.8,271.5z"/>
				</g>
			</g>
		</g>
		<g>
			<g>
				<path class="st57" d="M11.2,283.9c0,0,0.1-3.6-0.8-4.3c-0.9-0.8-1,0.5-1,0.5s0.1-1.3-0.9-1.4c-1-0.2-1.1,1.3-1.1,1.3
					s-0.2-1-1.2-0.8c-1.1,0.2-0.8,1.4-0.8,1.4s-1-1.2-1.7,0c-1.1,2,0,4.3,0,4.3s0.3,0.5,1.3,0.3c0,0,0.7,1.4,2.2,0.4
					c0,0,1.6,0.9,2.1-0.5C9.2,285.1,10.9,285.9,11.2,283.9z"/>
			</g>
		</g>
		<path class="st20" d="M21.9,220.3c0,0-6.1,20.3-8.1,27.8c-0.6,2.3-2.2,24.8-2.5,25.7c-0.3,0.9-8,2.1-8,2.1s0.9-28,1-29.6
			c0.1-1.5,8.5-32.8,11-33.9c1.8-0.8,2.8-0.1,5.1,1.6C23.6,216.3,21.9,220.3,21.9,220.3z"/>
		<g>
			
				<rect x="80.2" y="187.2" transform="matrix(0.8367 -0.5477 0.5477 0.8367 -88.3999 79.1628)" class="st58" width="16.6" height="1.2"/>
		</g>
		<path class="st59" d="M97.3,188c0,0-0.1,0.8-0.4,1.1c0,0-0.5,0.5-0.8,1c-0.1,0.1-0.2,0.2-0.2,0.3c-0.2,0.3-0.5,1.1-1.2,1.8
			c-0.7,0.7-3.2,2.8-3.2,2.8l-2.2-1.9l-2.3-1c0,0,1.3-5.6,1.8-6.3c0.1-0.1,0.1-0.1,0.2-0.2c0.5-0.5,1.1-0.7,1.4-1
			c0.1-0.1,1.3-0.9,1.7-0.8c0.6,0.2,0.9,0.5,1.1,0.9c0,0,1.1,0.3,1.6,1c0,0,1.1,0.3,1.4,1.3C96.2,186.9,97.3,187.3,97.3,188z"/>
		<g>
			<g>
				<path class="st43" d="M17,358.7c0,0-0.6,3.8-0.6,4.4c-0.1,0.6-6.2-0.3-6.2-0.3l-0.5-4.6C9.7,358.2,16.2,358.2,17,358.7z"/>
			</g>
		</g>
		<g>
			<g>
				<path class="st44" d="M16.4,362.7c0,0,1.9,2.3,3.8,3.3c1.9,1,4.8,1.4,5.9,2.5c0.8,0.8,2.9,4-4.9,3.9c-7.8-0.1-11.5,0.5-12.3-0.8
					c-0.8-1.2,1.2-9.2,1.2-9.2S12,363.1,16.4,362.7z"/>
			</g>
		</g>
		<g>
			<g>
				<path class="st43" d="M60.7,358.7c0,0-0.6,3.8-0.6,4.4c-0.1,0.6-6.2-0.3-6.2-0.3l-0.5-4.6C53.4,358.2,59.9,358.2,60.7,358.7z"/>
			</g>
		</g>
		<g>
			<g>
				<path class="st44" d="M60.1,362.7c0,0,1.9,2.3,3.8,3.3c1.9,1,8.7,1.8,9.9,2.9c0.8,0.8,2.1,3.8-8.8,3.5
					c-7.8-0.2-11.5,0.5-12.3-0.8c-0.8-1.2,1.2-9.2,1.2-9.2S55.6,363.1,60.1,362.7z"/>
			</g>
		</g>
		<g>
			<g>
				<path class="st44" d="M22,259.8c0,0-5.7,9.1-5.3,17.3c0.4,8.2-2.1,17.2-2.9,25.8c-1,9.6-4.9,32.3-5,37.4
					c-0.1,5.1,0.6,21.5,0.6,21.5l7.9,0.2c0,0,6.6-39.7,8.3-43.7c1.7-4,10.2-32.9,10.5-36.2C36.3,278.9,22,259.8,22,259.8z"/>
			</g>
		</g>
		<g>
			<g>
				<path class="st44" d="M52.2,261c0,0,4.3,22.6,4.9,27.6c0.6,5,1,24.4,1.2,27.5c0.3,3.1,2.7,41.1,3.4,45.9H51.7
					c0,0-7.7-27.7-7.7-40.8c0-13.1-6-28.5-9.8-37.1c-3.8-8.6-12.7-8.8-15-24.9C19.1,259.3,49,256,52.2,261z"/>
			</g>
		</g>
		<g>
			<g>
				<path class="st10" d="M31.6,183.2c0,0,7.7-2.9,11.2,3c3.5,5.9,3.2,17.6-0.7,19c-3.9,1.4-9.7,0.7-11.7-3c-2-3.7-3.8-9-3.7-12.5
					C26.8,186.2,29.6,184.3,31.6,183.2z"/>
			</g>
		</g>
		<g>
			<g>
				<path class="st10" d="M41.3,205.5c0,0-0.3,2.1,0.2,3.1c0.5,1-10,1-10,1s-0.9-5.6-2.5-10.3C27.5,194.7,41.3,205.5,41.3,205.5z"/>
			</g>
		</g>
		<g>
			<g>
				<path class="st60" d="M29.1,199.4c0,0,0.7,1.2,3.7,0.7c3-0.5,6.6-4.4,7.8-4.8c1.2-0.4,1.2-1.2,1.2-1.2l0.8,1.1l1.3,0.1
					c0,0-1.2-3.5,0.6-5c1.8-1.4-1.9-11.4-11.4-8.1c0,0-7.3,2-7,6.2C26.4,192.6,27.5,197.3,29.1,199.4z"/>
			</g>
		</g>
		<g>
			<g>
				<path class="st37" d="M42.1,208.5c0,0,0-2-0.9-2.1c-0.9-0.2-9.8-1-10.9-0.6v2.3C30.4,208,32.4,209.3,42.1,208.5z"/>
			</g>
		</g>
		<g>
			<g>
				<path class="st10" d="M41.6,192.6c-0.2-0.7-1.9-2.7-2.6-0.6c-0.7,2.1,1,5,2,4.7C41.9,196.6,42,194.4,41.6,192.6z"/>
			</g>
		</g>
		<g>
			<g>
				<path class="st20" d="M56.9,211.4c-6.1-0.8-14.7-3-14.7-3L30.4,208c0,0-10.8,2.4-15.1,4.3c-0.4,0.2-0.4,9.7-1.5,12.1l3.5,7.5
					c0,0,2,14.8,2.5,21.3c0.2,3-4.2,28.3-4.2,28.3s4.7,1.4,12.8,2.3c8,0.9,28.2-0.3,28.3-1.3c0.1-1-3.9-35.4-4.1-37.2
					c-0.3-2.7,0.9-17.3,0.9-17.3c1.9-1.4,18.2-9,22.6-13c1.2-1.1,6.2-6,7.6-7.6c5.1-6,9.2-11.1,9.7-12.2c0.6-0.6-5.5-3.9-6-4.1
					c-0.5-0.2-7.3,8.7-10,11.6c-1.2,1.3-6.1,4.8-6.1,4.8S60.7,211.7,56.9,211.4z"/>
			</g>
		</g>
		<g>
			<g>
				<path class="st60" d="M29.4,183.9c0,0-9.8,0.8-0.3,15.5L29.4,183.9z"/>
			</g>
		</g>
		<polygon class="st7" points="95.8,183.8 96.6,182.5 95.2,182.7 		"/>
	</g>
</g>
</svg>
