<?xml version="1.0" encoding="UTF-8"?> <svg xmlns="http://www.w3.org/2000/svg" xmlns:xlink="http://www.w3.org/1999/xlink" width="29pt" height="29pt" viewBox="0 0 29 29" version="1.1"><g id="surface1"><path style=" stroke:none;fill-rule:nonzero;fill:rgb(22.352941%,58.039216%,22.352941%);fill-opacity:1;" d="M 21.289062 16.804688 C 21.289062 16.746094 21.289062 16.746094 21.289062 16.695312 C 21.230469 16.410156 20.953125 16.1875 20.671875 16.1875 L 19.660156 16.300781 L 20.277344 15.511719 C 20.449219 15.289062 20.449219 14.894531 20.167969 14.722656 L 18.316406 13.265625 C 18.089844 13.09375 17.699219 13.09375 17.527344 13.378906 L 16.910156 14.164062 L 16.796875 13.152344 C 16.738281 12.871094 16.457031 12.640625 16.171875 12.640625 L 13.816406 12.921875 C 13.644531 12.921875 13.535156 13.035156 13.421875 13.148438 C 13.308594 13.257812 13.308594 13.429688 13.308594 13.539062 L 13.421875 14.550781 L 12.632812 13.933594 C 12.410156 13.765625 12.015625 13.765625 11.84375 14.046875 C 11.453125 14.550781 10.664062 15.5625 10.386719 15.898438 C 10.113281 16.234375 10.105469 16.402344 11.289062 17.304688 L 10.449219 17.414062 C 10.386719 17.414062 10.335938 17.414062 10.277344 17.414062 C 9.992188 17.472656 9.769531 17.75 9.769531 18.03125 C 9.769531 18.203125 9.992188 20.113281 10.054688 20.390625 C 10.113281 20.671875 10.386719 20.894531 10.671875 20.894531 L 11.683594 20.785156 L 11.066406 21.570312 C 10.953125 21.683594 10.953125 21.855469 10.953125 21.964844 C 10.953125 22.136719 11.066406 22.25 11.175781 22.359375 L 13.027344 23.816406 C 13.25 23.988281 13.644531 23.988281 13.816406 23.707031 L 14.433594 22.917969 L 14.542969 23.929688 C 14.605469 24.210938 14.828125 24.433594 15.109375 24.433594 C 15.167969 24.433594 15.050781 24.433594 17.527344 24.152344 C 17.808594 24.09375 18.03125 23.816406 18.03125 23.535156 L 17.921875 22.53125 L 18.707031 23.148438 C 18.933594 23.320312 19.324219 23.320312 19.496094 23.035156 C 20.902344 21.183594 21.125 21.183594 21.074219 20.730469 C 21.074219 20.558594 20.960938 20.449219 20.851562 20.335938 L 20.0625 19.71875 C 21.183594 19.609375 21.183594 19.609375 21.355469 19.496094 C 21.46875 19.386719 21.578125 19.324219 21.527344 18.992188 C 21.570312 18.878906 21.289062 16.917969 21.289062 16.804688 Z M 19.488281 18.707031 C 19.265625 18.769531 19.042969 18.933594 18.984375 19.15625 C 18.984375 19.265625 18.925781 19.488281 18.8125 19.71875 C 18.703125 19.949219 18.8125 20.226562 18.984375 20.335938 L 19.710938 20.902344 L 18.925781 21.855469 L 18.195312 21.289062 C 18.023438 21.117188 17.75 21.117188 17.519531 21.289062 C 17.347656 21.402344 17.183594 21.511719 17.011719 21.570312 C 16.789062 21.683594 16.679688 21.90625 16.679688 22.136719 L 16.789062 23.035156 L 15.554688 23.207031 L 15.445312 22.367188 C 15.386719 22.144531 15.222656 21.921875 15 21.863281 C 14.550781 21.800781 14.433594 21.691406 14.210938 21.691406 C 14.039062 21.691406 13.875 21.75 13.765625 21.914062 L 13.199219 22.640625 L 12.246094 21.855469 L 12.8125 21.125 C 12.984375 20.953125 12.984375 20.679688 12.8125 20.449219 C 12.699219 20.277344 12.589844 20.113281 12.53125 19.941406 C 12.417969 19.71875 12.195312 19.550781 11.964844 19.609375 L 11.066406 19.71875 C 11.003906 19.214844 10.953125 18.820312 10.894531 18.484375 L 11.792969 18.375 C 12.015625 18.316406 12.238281 18.152344 12.300781 17.929688 C 12.359375 17.703125 12.410156 17.535156 12.46875 17.363281 C 12.53125 17.140625 12.46875 16.855469 12.300781 16.746094 L 11.570312 16.179688 L 12.359375 15.230469 L 13.085938 15.792969 C 13.257812 15.964844 13.535156 15.964844 13.765625 15.792969 C 13.933594 15.683594 14.097656 15.570312 14.269531 15.511719 C 14.492188 15.398438 14.664062 15.175781 14.605469 14.945312 L 14.492188 14.046875 L 15.726562 13.875 L 15.839844 14.773438 C 15.898438 15 16.0625 15.222656 16.285156 15.28125 C 16.457031 15.339844 16.679688 15.339844 16.851562 15.453125 C 17.074219 15.5625 17.355469 15.453125 17.46875 15.28125 L 18.03125 14.550781 L 18.984375 15.339844 L 18.417969 16.070312 C 18.246094 16.238281 18.246094 16.515625 18.417969 16.746094 C 18.703125 17.140625 18.640625 17.25 18.8125 17.421875 C 18.925781 17.535156 19.09375 17.59375 19.257812 17.59375 C 19.824219 17.535156 19.988281 17.480469 20.160156 17.480469 C 20.21875 17.875 20.269531 18.320312 20.328125 18.714844 Z M 19.488281 18.707031 "></path><path style=" stroke:none;fill-rule:nonzero;fill:rgb(22.352941%,58.039216%,22.352941%);fill-opacity:1;" d="M 15.667969 15.847656 C 14.152344 15.847656 12.96875 17.082031 12.96875 18.546875 C 12.96875 20.011719 14.203125 21.246094 15.667969 21.246094 C 17.183594 21.246094 18.367188 20.011719 18.367188 18.546875 C 18.367188 17.082031 17.132812 15.847656 15.667969 15.847656 Z M 15.667969 20.171875 C 14.769531 20.171875 14.089844 19.445312 14.089844 18.597656 C 14.089844 17.757812 14.820312 17.019531 15.667969 17.019531 C 16.507812 17.019531 17.242188 17.75 17.242188 18.597656 C 17.242188 19.445312 16.515625 20.171875 15.667969 20.171875 Z M 15.667969 20.171875 "></path><path style=" stroke:none;fill-rule:nonzero;fill:rgb(22.352941%,58.039216%,22.352941%);fill-opacity:1;" d="M 26.738281 9.890625 L 25.222656 9.890625 L 25.222656 7.53125 C 25.222656 6.238281 24.152344 5.175781 22.867188 5.175781 L 10.671875 5.175781 L 7.355469 2.8125 C 7.242188 2.75 7.132812 2.699219 7.019531 2.699219 L 2.632812 2.699219 C 1.339844 2.699219 0.273438 3.769531 0.273438 5.054688 L 0.273438 24.886719 C 0.273438 26.183594 1.347656 27.246094 2.632812 27.246094 C 11.175781 27.246094 17.628906 27.246094 26.738281 27.246094 C 27.921875 27.246094 28.933594 26.292969 28.933594 25.050781 L 28.933594 12.136719 C 28.933594 10.902344 27.921875 9.890625 26.738281 9.890625 Z M 1.398438 24.835938 L 1.398438 5.054688 C 1.398438 4.378906 1.964844 3.820312 2.632812 3.820312 L 6.847656 3.820312 L 10.164062 6.179688 C 10.277344 6.238281 10.386719 6.289062 10.5 6.289062 L 22.917969 6.289062 C 23.59375 6.289062 24.152344 6.855469 24.152344 7.523438 L 24.152344 9.941406 L 6.171875 9.941406 C 4.988281 9.941406 3.976562 10.894531 3.976562 12.136719 L 3.976562 25.058594 C 3.984375 26.523438 1.398438 26.414062 1.398438 24.835938 Z M 27.808594 25.007812 C 27.808594 25.570312 27.363281 26.078125 26.738281 26.078125 L 4.824219 26.078125 C 5.441406 25.007812 4.886719 24.113281 5.109375 12.089844 C 5.109375 11.527344 5.554688 11.019531 6.179688 11.019531 C 14.269531 11.019531 23.320312 11.019531 26.746094 11.019531 C 27.3125 11.019531 27.816406 11.464844 27.816406 12.089844 L 27.816406 25.007812 Z M 27.808594 25.007812 "></path><path style=" stroke:none;fill-rule:nonzero;fill:rgb(22.352941%,58.039216%,22.352941%);fill-opacity:1;" d="M 2.914062 6.238281 L 6.960938 6.238281 C 7.292969 6.238281 7.523438 6.015625 7.523438 5.671875 C 7.523438 5.332031 7.300781 5.109375 6.960938 5.109375 L 2.914062 5.109375 C 2.582031 5.109375 2.351562 5.332031 2.351562 5.671875 C 2.351562 6.015625 2.632812 6.238281 2.914062 6.238281 Z M 2.914062 6.238281 "></path><path style=" stroke:none;fill-rule:nonzero;fill:rgb(22.352941%,58.039216%,22.352941%);fill-opacity:1;" d="M 15.445312 8.597656 C 15.777344 8.597656 16.007812 8.371094 16.007812 8.03125 C 16.007812 7.6875 15.785156 7.464844 15.445312 7.464844 L 2.914062 7.464844 C 2.582031 7.464844 2.351562 7.6875 2.351562 8.03125 C 2.351562 8.371094 2.574219 8.597656 2.914062 8.597656 Z M 15.445312 8.597656 "></path></g></svg> 