<?xml version="1.0" encoding="UTF-8"?> <svg xmlns="http://www.w3.org/2000/svg" xmlns:xlink="http://www.w3.org/1999/xlink" width="29pt" height="29pt" viewBox="0 0 29 29" version="1.1"><g id="surface1"><path style=" stroke:none;fill-rule:nonzero;fill:rgb(25.098039%,76.862745%,100%);fill-opacity:1;" d="M 27.945312 5.128906 L 3.851562 5.128906 C 3.523438 5.128906 3.265625 5.390625 3.265625 5.71875 C 3.265625 6.046875 3.523438 6.304688 3.851562 6.304688 L 27.355469 6.304688 L 27.355469 25.699219 C 27.355469 26.671875 26.570312 27.460938 25.59375 27.460938 L 25.59375 11.011719 C 25.59375 10.039062 24.804688 9.25 23.832031 9.25 L 5.027344 9.25 C 4.050781 9.25 3.265625 10.039062 3.265625 11.011719 L 3.265625 27.46875 C 2.289062 27.46875 1.503906 26.679688 1.503906 25.707031 L 1.503906 3.367188 C 1.503906 2.394531 2.289062 1.605469 3.265625 1.605469 L 25.59375 1.605469 C 26.515625 1.554688 27.304688 2.269531 27.355469 3.191406 C 27.355469 3.25 27.355469 3.308594 27.355469 3.367188 C 27.355469 3.695312 27.617188 3.957031 27.945312 3.957031 C 28.269531 3.957031 28.53125 3.695312 28.53125 3.367188 C 28.589844 1.808594 27.371094 0.492188 25.808594 0.429688 C 25.734375 0.429688 25.667969 0.429688 25.59375 0.429688 L 3.265625 0.429688 C 1.644531 0.429688 0.328125 1.746094 0.328125 3.367188 L 0.328125 25.699219 C 0.328125 27.320312 1.644531 28.636719 3.265625 28.636719 L 22.65625 28.636719 C 22.984375 28.636719 23.246094 28.375 23.246094 28.046875 C 23.246094 27.722656 22.984375 27.460938 22.65625 27.460938 L 4.4375 27.460938 L 4.4375 15.117188 L 24.417969 15.117188 L 24.417969 28.046875 C 24.417969 28.375 24.679688 28.636719 25.007812 28.636719 L 25.59375 28.636719 C 27.214844 28.636719 28.53125 27.320312 28.53125 25.699219 L 28.53125 5.71875 C 28.53125 5.398438 28.269531 5.128906 27.945312 5.128906 Z M 24.417969 13.949219 L 4.4375 13.949219 L 4.4375 11.011719 C 4.4375 10.683594 4.699219 10.425781 5.027344 10.425781 L 23.832031 10.425781 C 24.160156 10.425781 24.417969 10.683594 24.417969 11.011719 Z M 24.417969 13.949219 "></path><path style=" stroke:none;fill-rule:nonzero;fill:rgb(25.098039%,76.862745%,100%);fill-opacity:1;" d="M 3.851562 2.78125 C 3.523438 2.78125 3.265625 3.042969 3.265625 3.367188 C 3.265625 3.695312 3.523438 3.957031 3.851562 3.957031 L 5.027344 3.957031 C 5.355469 3.957031 5.613281 3.695312 5.613281 3.367188 C 5.613281 3.042969 5.355469 2.78125 5.027344 2.78125 Z M 3.851562 2.78125 "></path><path style=" stroke:none;fill-rule:nonzero;fill:rgb(25.098039%,76.862745%,100%);fill-opacity:1;" d="M 7.375 2.78125 C 7.050781 2.78125 6.789062 3.042969 6.789062 3.367188 C 6.789062 3.695312 7.050781 3.957031 7.375 3.957031 L 8.550781 3.957031 C 8.878906 3.957031 9.140625 3.695312 9.140625 3.367188 C 9.140625 3.042969 8.878906 2.78125 8.550781 2.78125 Z M 7.375 2.78125 "></path><path style=" stroke:none;fill-rule:nonzero;fill:rgb(25.098039%,76.862745%,100%);fill-opacity:1;" d="M 24.417969 2.78125 C 24.09375 2.78125 23.832031 3.042969 23.832031 3.367188 C 23.832031 3.695312 24.09375 3.957031 24.417969 3.957031 L 25.59375 3.957031 C 25.921875 3.957031 26.183594 3.695312 26.183594 3.367188 C 26.183594 3.042969 25.921875 2.78125 25.59375 2.78125 Z M 24.417969 2.78125 "></path><path style=" stroke:none;fill-rule:nonzero;fill:rgb(25.098039%,76.862745%,100%);fill-opacity:1;" d="M 7.375 11.601562 L 6.203125 11.601562 C 5.875 11.601562 5.613281 11.859375 5.613281 12.1875 C 5.613281 12.515625 5.875 12.773438 6.203125 12.773438 L 7.375 12.773438 C 7.703125 12.773438 7.964844 12.515625 7.964844 12.1875 C 7.964844 11.859375 7.703125 11.601562 7.375 11.601562 Z M 7.375 11.601562 "></path><path style=" stroke:none;fill-rule:nonzero;fill:rgb(25.098039%,76.862745%,100%);fill-opacity:1;" d="M 10.910156 11.601562 L 9.734375 11.601562 C 9.40625 11.601562 9.144531 11.859375 9.144531 12.1875 C 9.144531 12.515625 9.40625 12.773438 9.734375 12.773438 L 10.910156 12.773438 C 11.234375 12.773438 11.496094 12.515625 11.496094 12.1875 C 11.496094 11.859375 11.226562 11.601562 10.910156 11.601562 Z M 10.910156 11.601562 "></path><path style=" stroke:none;fill-rule:nonzero;fill:rgb(25.098039%,76.862745%,100%);fill-opacity:1;" d="M 22.65625 11.601562 L 21.480469 11.601562 C 21.15625 11.601562 20.894531 11.859375 20.894531 12.1875 C 20.894531 12.515625 21.15625 12.773438 21.480469 12.773438 L 22.65625 12.773438 C 22.984375 12.773438 23.246094 12.515625 23.246094 12.1875 C 23.246094 11.859375 22.984375 11.601562 22.65625 11.601562 Z M 22.65625 11.601562 "></path><path style=" stroke:none;fill-rule:nonzero;fill:rgb(25.098039%,76.862745%,100%);fill-opacity:1;" d="M 12.492188 18.820312 C 12.269531 18.589844 11.898438 18.589844 11.667969 18.820312 L 9.316406 21.171875 C 9.085938 21.402344 9.085938 21.773438 9.316406 22.003906 L 11.667969 24.351562 C 11.898438 24.574219 12.269531 24.566406 12.5 24.335938 C 12.722656 24.105469 12.722656 23.75 12.5 23.519531 L 10.566406 21.585938 L 12.5 19.652344 C 12.722656 19.421875 12.722656 19.050781 12.492188 18.820312 Z M 12.492188 18.820312 "></path><path style=" stroke:none;fill-rule:nonzero;fill:rgb(25.098039%,76.862745%,100%);fill-opacity:1;" d="M 16.367188 24.351562 C 16.597656 24.582031 16.96875 24.582031 17.199219 24.351562 L 19.550781 22.003906 C 19.78125 21.773438 19.78125 21.402344 19.550781 21.171875 L 17.199219 18.820312 C 16.96875 18.597656 16.597656 18.605469 16.367188 18.835938 C 16.144531 19.066406 16.144531 19.421875 16.367188 19.652344 L 18.300781 21.585938 L 16.367188 23.519531 C 16.136719 23.75 16.136719 24.121094 16.367188 24.351562 Z M 16.367188 24.351562 "></path></g></svg> 