<?xml version="1.0" encoding="UTF-8"?> <svg xmlns="http://www.w3.org/2000/svg" xmlns:xlink="http://www.w3.org/1999/xlink" width="29pt" height="29pt" viewBox="0 0 29 29" version="1.1"><g id="surface1"><path style=" stroke:none;fill-rule:nonzero;fill:rgb(100%,25.098039%,50.588235%);fill-opacity:1;" d="M 28.464844 21.792969 L 27.765625 21.792969 L 27.765625 3.585938 C 27.765625 2.9375 27.214844 2.386719 26.570312 2.386719 L 2.59375 2.386719 C 1.949219 2.386719 1.398438 2.9375 1.398438 3.585938 L 1.398438 21.792969 L 0.601562 21.792969 C 0.304688 21.792969 0.105469 21.996094 0.105469 22.292969 L 0.105469 23.9375 C 0.105469 25.179688 1.195312 26.269531 2.4375 26.269531 L 26.570312 26.269531 C 27.863281 26.269531 28.902344 25.230469 28.902344 23.9375 L 28.902344 22.292969 C 28.960938 21.988281 28.710938 21.792969 28.464844 21.792969 Z M 2.34375 3.585938 C 2.34375 3.433594 2.4375 3.382812 2.585938 3.382812 L 26.570312 3.382812 C 26.664062 3.382812 26.769531 3.480469 26.769531 3.585938 L 26.769531 21.792969 L 25.773438 21.792969 L 25.773438 4.878906 C 25.773438 4.582031 25.570312 4.378906 25.273438 4.378906 L 3.890625 4.378906 C 3.589844 4.378906 3.390625 4.582031 3.390625 4.878906 L 3.390625 21.792969 L 2.394531 21.792969 L 2.394531 3.585938 Z M 17.019531 21.792969 C 16.722656 21.792969 16.523438 21.996094 16.523438 22.292969 L 16.523438 22.792969 C 16.523438 23.089844 16.320312 23.289062 16.023438 23.289062 L 13.042969 23.289062 C 12.746094 23.289062 12.542969 23.089844 12.542969 22.792969 L 12.542969 22.292969 C 12.542969 21.996094 12.34375 21.792969 12.046875 21.792969 L 4.335938 21.792969 L 4.335938 5.375 L 24.730469 5.375 L 24.730469 21.792969 Z M 27.964844 23.929688 C 27.964844 24.671875 27.371094 25.273438 26.621094 25.273438 L 2.5 25.273438 C 1.800781 25.273438 1.152344 24.628906 1.152344 23.929688 L 1.152344 22.785156 L 11.601562 22.785156 C 11.601562 23.632812 12.246094 24.277344 13.09375 24.277344 L 16.078125 24.277344 C 16.925781 24.277344 17.570312 23.632812 17.570312 22.785156 L 27.964844 22.785156 Z M 27.964844 23.929688 "></path><path style=" stroke:none;fill-rule:nonzero;fill:rgb(100%,25.098039%,50.588235%);fill-opacity:1;" d="M 19.707031 13.183594 L 18.859375 13.085938 C 18.761719 12.738281 18.613281 12.441406 18.410156 12.089844 L 18.910156 11.390625 C 19.058594 11.191406 19.058594 10.894531 18.859375 10.746094 L 18.007812 9.898438 C 17.808594 9.695312 17.511719 9.695312 17.3125 9.898438 L 16.664062 10.492188 C 16.367188 10.34375 16.070312 10.195312 15.71875 10.089844 L 15.621094 9.242188 C 15.570312 8.996094 15.378906 8.796875 15.125 8.796875 L 13.882812 8.796875 C 13.636719 8.796875 13.4375 8.996094 13.382812 9.242188 L 13.289062 10.089844 C 12.9375 10.1875 12.640625 10.335938 12.34375 10.492188 L 11.644531 9.898438 C 11.445312 9.75 11.144531 9.75 10.996094 9.949219 L 10.148438 10.796875 C 9.949219 10.996094 9.949219 11.242188 10.097656 11.445312 L 10.648438 12.089844 C 10.5 12.386719 10.351562 12.6875 10.246094 13.035156 L 9.398438 13.132812 C 9.152344 13.183594 8.953125 13.378906 8.953125 13.628906 L 8.953125 14.871094 C 8.953125 15.117188 9.152344 15.316406 9.398438 15.371094 L 10.246094 15.464844 C 10.34375 15.816406 10.492188 16.113281 10.648438 16.410156 L 10.097656 17.058594 C 9.949219 17.257812 9.949219 17.554688 10.148438 17.703125 L 11.042969 18.597656 C 11.242188 18.796875 11.488281 18.796875 11.6875 18.648438 L 12.386719 18.097656 C 12.6875 18.246094 12.984375 18.394531 13.332031 18.5 L 13.429688 19.347656 C 13.480469 19.59375 13.675781 19.792969 13.925781 19.792969 L 15.167969 19.792969 C 15.414062 19.792969 15.617188 19.59375 15.667969 19.347656 L 15.765625 18.5 C 16.113281 18.402344 16.410156 18.253906 16.707031 18.097656 L 17.355469 18.648438 C 17.554688 18.796875 17.855469 18.796875 18.003906 18.597656 L 18.894531 17.703125 C 19.09375 17.503906 19.09375 17.257812 18.945312 17.058594 L 18.394531 16.410156 C 18.546875 16.113281 18.695312 15.816406 18.796875 15.464844 L 19.644531 15.371094 C 19.890625 15.316406 20.089844 15.125 20.089844 14.871094 L 20.089844 13.628906 C 20.160156 13.4375 19.957031 13.183594 19.707031 13.183594 Z M 18.410156 14.582031 C 18.210938 14.582031 18.007812 14.730469 17.964844 14.984375 C 17.816406 15.535156 17.667969 15.925781 17.414062 16.277344 C 17.265625 16.476562 17.316406 16.722656 17.414062 16.871094 L 17.914062 17.46875 L 17.667969 17.710938 L 17.074219 17.214844 C 16.925781 17.066406 16.671875 17.066406 16.476562 17.214844 C 16.078125 17.511719 15.683594 17.660156 15.234375 17.765625 C 15.035156 17.816406 14.835938 17.964844 14.835938 18.210938 L 14.738281 18.953125 L 14.386719 18.953125 L 14.292969 18.210938 C 14.292969 18.007812 14.144531 17.808594 13.890625 17.765625 C 13.390625 17.617188 12.945312 17.46875 12.597656 17.214844 C 12.394531 17.066406 12.148438 17.117188 12 17.214844 L 11.40625 17.710938 L 11.152344 17.46875 L 11.652344 16.871094 C 11.800781 16.722656 11.800781 16.46875 11.652344 16.277344 C 11.40625 15.925781 11.25 15.578125 11.152344 15.234375 C 11.152344 15.183594 11.101562 15.085938 11.101562 15.035156 C 11.050781 14.835938 10.902344 14.6875 10.65625 14.632812 L 9.910156 14.539062 L 9.910156 14.1875 L 10.65625 14.089844 C 10.855469 14.089844 11.058594 13.941406 11.101562 13.691406 C 11.199219 13.289062 11.347656 12.945312 11.503906 12.648438 C 11.554688 12.597656 11.601562 12.5 11.652344 12.402344 C 11.75 12.203125 11.75 12 11.652344 11.808594 L 11.152344 11.199219 L 11.355469 10.996094 L 11.949219 11.496094 C 12.097656 11.644531 12.351562 11.644531 12.542969 11.496094 C 12.945312 11.199219 13.339844 11.050781 13.785156 10.945312 C 13.988281 10.894531 14.1875 10.746094 14.1875 10.5 L 14.285156 9.757812 L 14.632812 9.757812 L 14.730469 10.5 C 14.730469 10.699219 14.878906 10.902344 15.132812 10.945312 C 15.683594 11.09375 16.078125 11.242188 16.425781 11.496094 C 16.625 11.644531 16.871094 11.59375 17.019531 11.445312 L 17.617188 10.945312 L 17.859375 11.191406 L 17.363281 11.839844 C 17.214844 11.988281 17.214844 12.238281 17.363281 12.433594 C 17.660156 12.835938 17.808594 13.226562 17.914062 13.675781 C 17.964844 13.875 18.113281 14.074219 18.359375 14.074219 L 19.101562 14.171875 L 19.101562 14.523438 Z M 18.410156 14.582031 "></path><path style=" stroke:none;fill-rule:nonzero;fill:rgb(100%,25.098039%,50.588235%);fill-opacity:1;" d="M 12.746094 12.535156 L 12.691406 12.589844 C 11.800781 13.585938 11.84375 15.078125 12.789062 15.972656 C 13.289062 16.46875 13.882812 16.671875 14.53125 16.671875 C 15.175781 16.671875 15.773438 16.425781 16.269531 15.972656 C 16.417969 15.824219 16.515625 15.675781 16.621094 15.527344 C 17.214844 14.582031 17.066406 13.339844 16.269531 12.542969 C 15.28125 11.59375 13.742188 11.59375 12.746094 12.535156 Z M 13.488281 15.324219 C 12.9375 14.773438 12.894531 13.882812 13.4375 13.289062 L 13.488281 13.234375 C 14.082031 12.640625 14.984375 12.640625 15.578125 13.234375 C 16.078125 13.734375 16.128906 14.433594 15.777344 15.027344 C 15.726562 15.125 15.628906 15.230469 15.578125 15.324219 C 14.984375 15.875 14.039062 15.875 13.488281 15.324219 Z M 13.488281 15.324219 "></path><path style=" stroke:none;fill-rule:nonzero;fill:rgb(100%,25.098039%,50.588235%);fill-opacity:1;" d="M 8.066406 13.085938 L 7.570312 13.085938 C 7.019531 13.085938 6.574219 12.640625 6.574219 12.089844 C 6.574219 11.792969 6.371094 11.59375 6.074219 11.59375 C 5.777344 11.59375 5.578125 11.792969 5.578125 12.089844 C 5.578125 13.183594 6.46875 14.082031 7.570312 14.082031 L 8.066406 14.082031 C 8.367188 14.082031 8.566406 13.882812 8.566406 13.585938 C 8.566406 13.289062 8.367188 13.085938 8.066406 13.085938 Z M 8.066406 13.085938 "></path><path style=" stroke:none;fill-rule:nonzero;fill:rgb(100%,25.098039%,50.588235%);fill-opacity:1;" d="M 8.066406 14.582031 L 7.570312 14.582031 C 6.476562 14.582031 5.578125 15.472656 5.578125 16.574219 C 5.578125 16.871094 5.777344 17.074219 6.074219 17.074219 C 6.371094 17.074219 6.574219 16.871094 6.574219 16.574219 C 6.574219 16.023438 7.019531 15.578125 7.570312 15.578125 L 8.066406 15.578125 C 8.367188 15.578125 8.566406 15.378906 8.566406 15.078125 C 8.566406 14.78125 8.367188 14.582031 8.066406 14.582031 Z M 8.066406 14.582031 "></path><path style=" stroke:none;fill-rule:nonzero;fill:rgb(100%,25.098039%,50.588235%);fill-opacity:1;" d="M 21 14.082031 L 21.496094 14.082031 C 22.589844 14.082031 23.488281 13.191406 23.488281 12.089844 C 23.488281 11.792969 23.289062 11.59375 22.992188 11.59375 C 22.695312 11.59375 22.492188 11.792969 22.492188 12.089844 C 22.492188 12.640625 22.046875 13.085938 21.496094 13.085938 L 21 13.085938 C 20.703125 13.085938 20.5 13.289062 20.5 13.585938 C 20.5 13.882812 20.703125 14.082031 21 14.082031 Z M 21 14.082031 "></path><path style=" stroke:none;fill-rule:nonzero;fill:rgb(100%,25.098039%,50.588235%);fill-opacity:1;" d="M 21.496094 14.582031 L 21 14.582031 C 20.703125 14.582031 20.5 14.78125 20.5 15.078125 C 20.5 15.378906 20.703125 15.578125 21 15.578125 L 21.496094 15.578125 C 22.046875 15.578125 22.492188 16.023438 22.492188 16.574219 C 22.492188 16.871094 22.695312 17.074219 22.992188 17.074219 C 23.289062 17.074219 23.488281 16.871094 23.488281 16.574219 C 23.488281 15.472656 22.589844 14.582031 21.496094 14.582031 Z M 21.496094 14.582031 "></path></g></svg> 