<?xml version="1.0" encoding="UTF-8"?> <svg xmlns="http://www.w3.org/2000/svg" width="44" height="44" viewBox="0 0 44 44" fill="none"><circle cx="22" cy="22" r="22" fill="#F5F9FF"></circle><g clip-path="url(#clip0_422_450)"><path d="M9.75553 25.7378C9.91058 26.1896 10.1228 26.6198 10.3867 27.0188C10.061 27.4154 9.96643 27.9512 10.1368 28.434C10.3069 28.9166 10.7177 29.277 11.2213 29.3856C11.725 29.4942 12.2493 29.3352 12.6058 28.966C13.0391 29.1834 13.4992 29.3433 13.974 29.4423C13.9987 29.8156 14.1658 30.1653 14.4412 30.4207C14.7166 30.676 15.0795 30.8177 15.4564 30.817H15.5449C15.9376 30.7937 16.3049 30.6161 16.5652 30.3235C16.8256 30.031 16.958 29.6475 16.933 29.2581C17.3877 29.107 17.8204 28.8985 18.2213 28.6373C18.6196 28.9572 19.1564 29.0496 19.6402 28.8818C20.1239 28.7137 20.4855 28.3093 20.5963 27.8128C20.7069 27.3163 20.5506 26.7983 20.1834 26.4434C20.3951 26.016 20.5514 25.5635 20.6491 25.0971C21.179 25.0652 21.6518 24.7552 21.8889 24.2837C22.1261 23.812 22.0919 23.2507 21.7989 22.8112C21.5061 22.3716 20.9992 22.1205 20.469 22.1524C20.316 21.6997 20.1038 21.2689 19.8378 20.8711C20.1887 20.4769 20.3012 19.9264 20.1324 19.4276C19.9638 18.9288 19.5397 18.5571 19.02 18.4526C18.5003 18.348 17.9637 18.5267 17.6128 18.9212C17.1823 18.7094 16.7264 18.5533 16.2561 18.4563C16.223 17.9317 15.9103 17.4645 15.436 17.2307C14.9617 16.9971 14.3976 17.0321 13.9564 17.3228C13.5152 17.6136 13.2641 18.116 13.2972 18.6406C12.842 18.7937 12.4085 19.0032 12.0061 19.2642C11.6103 18.9162 11.0574 18.8046 10.5558 18.9709C10.0544 19.1371 9.68031 19.5565 9.57474 20.0705C9.46916 20.5847 9.64793 21.1159 10.044 21.4636C9.83078 21.8905 9.67445 22.343 9.57831 22.8099C9.05477 22.8481 8.59063 23.1587 8.35828 23.6258C8.12571 24.093 8.15988 24.6475 8.44754 25.0833C8.73519 25.5191 9.23376 25.7714 9.75831 25.7463L9.75553 25.7378ZM9.64689 23.9324L10.1067 23.9041V23.9038C10.3821 23.8866 10.6055 23.6768 10.6381 23.405C10.7111 22.7739 10.9207 22.1658 11.2522 21.6221C11.3958 21.387 11.3489 21.0836 11.1408 20.9022L10.8008 20.6046C10.6991 20.515 10.6616 20.3733 10.706 20.2457C10.7503 20.1179 10.8677 20.0291 11.0036 20.0207C11.0926 20.0136 11.1803 20.0435 11.2464 20.103L11.5919 20.4061C11.799 20.5871 12.1065 20.5954 12.3233 20.4261C12.829 20.0329 13.4129 19.7507 14.037 19.5984C14.3025 19.5336 14.4843 19.2911 14.471 19.0204L14.4425 18.5641V18.5638C14.443 18.3864 14.5822 18.2396 14.761 18.2285C14.9395 18.2171 15.0963 18.3454 15.1193 18.5213L15.1478 18.9834C15.1601 19.2618 15.3746 19.49 15.6535 19.5219C16.2891 19.5968 16.9006 19.8066 17.4471 20.1369C17.6886 20.2842 18.0023 20.2336 18.1841 20.018L18.4697 19.6723C18.5284 19.6052 18.6118 19.5642 18.701 19.5589C18.7913 19.5528 18.88 19.5834 18.9466 19.6439C19.0139 19.7026 19.0547 19.7856 19.0601 19.8747C19.0654 19.9635 19.0348 20.0509 18.9752 20.1172L18.6696 20.4601C18.4865 20.6666 18.4794 20.9738 18.6526 21.1887C19.0527 21.688 19.3373 22.2685 19.4864 22.8893C19.5522 23.1548 19.7996 23.3362 20.0748 23.32L20.5404 23.2917C20.6307 23.2871 20.7189 23.3182 20.786 23.3782C20.8528 23.4384 20.8931 23.5225 20.8974 23.612C20.9028 23.7006 20.8724 23.7879 20.813 23.8545C20.7536 23.9208 20.67 23.961 20.5805 23.9663L20.1207 23.9947C19.8442 24.0106 19.6193 24.2207 19.5864 24.4935C19.5104 25.1252 19.3 25.7338 18.9695 26.2791C18.8275 26.5135 18.8744 26.8151 19.0809 26.996L19.4293 27.3023C19.4966 27.3612 19.5374 27.4442 19.5428 27.5331C19.5481 27.6219 19.5175 27.7092 19.4579 27.7755C19.3995 27.8428 19.3161 27.8838 19.2266 27.8889C19.1378 27.8955 19.0501 27.8656 18.9838 27.8069L18.6296 27.4951C18.4268 27.3088 18.119 27.2934 17.8984 27.4582C17.3938 27.8527 16.8092 28.1341 16.1847 28.2829C15.9193 28.3542 15.7428 28.6033 15.765 28.8753L15.7935 29.3316C15.7999 29.4207 15.7701 29.5085 15.7107 29.5753C15.6199 29.6775 15.4758 29.7155 15.346 29.6715C15.2159 29.6274 15.1254 29.5103 15.1165 29.3741L15.0879 28.912V28.9123C15.0706 28.6389 14.8592 28.4173 14.5853 28.3849C13.948 28.3117 13.3344 28.1029 12.7859 27.7727C12.5498 27.6295 12.244 27.6748 12.0604 27.8805L11.7549 28.2234C11.6276 28.3469 11.4259 28.352 11.2926 28.2351C11.1589 28.1184 11.139 27.9192 11.2464 27.7785L11.5519 27.4356L11.5522 27.4354C11.7342 27.2301 11.7427 26.9249 11.5721 26.7098C11.1758 26.208 10.8914 25.6285 10.7382 25.0092C10.6724 24.7435 10.4248 24.5623 10.1496 24.5785L9.68394 24.6068H9.68419C9.49905 24.6134 9.34222 24.4727 9.32998 24.2892C9.32462 24.2006 9.35497 24.1133 9.41439 24.0468C9.47381 23.9805 9.55745 23.9402 9.64696 23.9349L9.64689 23.9324Z" fill="#2176FF" stroke="#2176FF" stroke-width="0.3"></path><path d="M13.3136 26.7641C14.3122 27.3267 15.529 27.3338 16.5343 26.7828C17.5392 26.2319 18.1912 25.2006 18.2593 24.0535C18.3274 22.9063 17.8023 21.8047 16.8697 21.1379C15.8711 20.5753 14.654 20.5682 13.649 21.1191C12.6441 21.6701 11.9921 22.7013 11.924 23.8485C11.8557 24.9957 12.3807 26.0973 13.3136 26.7641ZM13.709 22.2461C14.1027 21.9239 14.5962 21.7493 15.1043 21.7528C15.5174 21.7508 15.9222 21.868 16.2707 22.0902C16.7975 22.4237 17.1584 22.9663 17.263 23.5825C17.3677 24.1988 17.2065 24.8307 16.8197 25.3206C16.4326 25.8105 15.8566 26.1122 15.2349 26.1509C14.613 26.1894 14.0043 25.9608 13.5604 25.5225C13.1163 25.084 12.8787 24.4768 12.9072 23.8525C12.9355 23.228 13.227 22.6451 13.7089 22.2488L13.709 22.2461Z" fill="#FFCA00"></path><path d="M22.6377 22.3794H22.6862C22.8208 22.836 23.0126 23.2741 23.2574 23.6832C22.9083 24.0669 22.7877 24.6044 22.9399 25.0989C23.0922 25.5932 23.4948 25.9723 24.0005 26.0968C24.5062 26.2213 25.0405 26.0732 25.4082 25.7068C25.8315 25.9338 26.2827 26.1054 26.7506 26.217C26.7646 26.5984 26.9273 26.9592 27.2045 27.2237C27.4814 27.4879 27.8512 27.6352 28.2358 27.6342H28.273H28.2728C28.6657 27.6245 29.0388 27.4603 29.3094 27.1774C29.58 26.8944 29.7261 26.5164 29.7151 26.1264C30.1739 25.994 30.6138 25.8034 31.0234 25.5595C31.3059 25.8308 31.6874 25.976 32.0802 25.9619C32.4729 25.952 32.8453 25.7877 33.1158 25.5051C33.3861 25.2224 33.5322 24.8446 33.5218 24.4551C33.5111 24.0654 33.3451 23.6959 33.06 23.4281C33.2869 23.008 33.4596 22.5616 33.5741 22.0987C34.1035 22.086 34.5862 21.794 34.84 21.3324C35.0937 20.8711 35.08 20.3103 34.8043 19.8613C34.5284 19.4126 34.0321 19.1439 33.5027 19.1565C33.3657 18.6984 33.1688 18.2601 32.9171 17.8527C33.1862 17.57 33.3315 17.1929 33.3213 16.8042C33.3114 16.4155 33.1464 16.0465 32.8628 15.778C32.5813 15.5117 32.2031 15.3698 31.8144 15.384C31.4217 15.3913 31.0484 15.5548 30.7778 15.8375C30.3549 15.6107 29.9049 15.4381 29.4381 15.3245C29.4244 14.7978 29.1285 14.3186 28.6621 14.0672C28.1957 13.8157 27.6296 13.8304 27.1769 14.1055C26.7242 14.3805 26.4539 14.8743 26.4677 15.4009C26.0084 15.5348 25.568 15.7251 25.1567 15.9678C24.7721 15.6059 24.2221 15.4751 23.7136 15.6246C23.2053 15.7742 22.8162 16.1816 22.6924 16.6931C22.569 17.2048 22.7299 17.7431 23.1145 18.105C22.887 18.5243 22.7151 18.9712 22.6032 19.4344C22.0738 19.4409 21.588 19.7274 21.3288 20.1857C21.0697 20.6443 21.0769 21.2051 21.3475 21.6568C21.6178 22.1088 22.1107 22.3829 22.6404 22.3763L22.6377 22.3794ZM22.395 20.6788C22.4564 20.6135 22.5418 20.5755 22.6319 20.5738H23.0919C23.3678 20.5644 23.5974 20.3604 23.6374 20.0891C23.733 19.461 23.9638 18.8607 24.3142 18.329C24.4659 18.0992 24.4297 17.7948 24.2285 17.6063L23.8972 17.2887C23.7759 17.1596 23.7766 16.9589 23.899 16.8306C24.0214 16.7023 24.2234 16.6907 24.3598 16.8041L24.6939 17.1186H24.6942C24.8946 17.3074 25.2027 17.3264 25.4253 17.1642C25.9463 16.7909 26.541 16.532 27.1703 16.4044C27.4338 16.3427 27.6174 16.1061 27.6102 15.8376V15.3813C27.6054 15.195 27.7538 15.0401 27.9415 15.0353C28.1292 15.0308 28.2853 15.1781 28.2901 15.3643V15.8264V15.8262C28.2978 16.0995 28.5008 16.3283 28.7726 16.3705C29.405 16.4677 30.009 16.6987 30.5434 17.0477C30.7745 17.1991 31.0813 17.1644 31.2718 16.9657L31.6089 16.6198C31.6698 16.5553 31.754 16.5175 31.843 16.515C31.9317 16.5137 32.0177 16.5461 32.083 16.6056C32.211 16.7357 32.211 16.9435 32.083 17.0733L31.7803 17.4162C31.5885 17.6159 31.5694 17.9231 31.7346 18.1448C32.1156 18.6545 32.3798 19.2408 32.5086 19.8624C32.5649 20.1294 32.8049 20.3189 33.0798 20.3131H33.5483C33.7321 20.3083 33.8862 20.4508 33.8938 20.6332C33.8961 20.7221 33.8627 20.8081 33.8012 20.8724C33.7395 20.9367 33.6549 20.9741 33.5653 20.9764H33.1055C32.8291 20.9825 32.597 21.1844 32.5542 21.4552C32.4558 22.0841 32.2242 22.6848 31.8746 23.2184C31.7229 23.4481 31.7591 23.7526 31.9603 23.9411L32.2974 24.2584H32.2972C32.3604 24.3212 32.3961 24.4065 32.3961 24.4951C32.3961 24.5839 32.3604 24.6692 32.2972 24.7319C32.2339 24.7947 32.1482 24.8299 32.0587 24.8299C31.9692 24.8299 31.8835 24.7947 31.8203 24.7319L31.4775 24.4088C31.2723 24.2301 30.9683 24.2205 30.752 24.386C30.2361 24.7608 29.6447 25.0209 29.0184 25.1485C28.7491 25.2044 28.5584 25.4426 28.5642 25.7154V26.1717C28.5675 26.261 28.5346 26.3478 28.4727 26.4126C28.4094 26.4787 28.322 26.5166 28.2299 26.5176C28.0499 26.5176 27.902 26.3759 27.8958 26.1972V25.7351C27.8874 25.4593 27.6801 25.2295 27.4047 25.191C26.7704 25.0956 26.1645 24.8653 25.628 24.5164C25.3972 24.3653 25.0904 24.4 24.8996 24.5986L24.5827 24.9301V24.9304C24.4506 25.045 24.2524 25.041 24.1249 24.9213C23.9977 24.8016 23.9831 24.6052 24.0915 24.4683L24.4085 24.1368C24.6046 23.9406 24.6298 23.6332 24.4684 23.4082C24.0905 22.8944 23.8268 22.3073 23.6945 21.685C23.6381 21.4178 23.3981 21.2285 23.1232 21.2343H22.6576C22.4732 21.2328 22.3238 21.0855 22.3207 20.9025C22.3153 20.8208 22.3408 20.74 22.3921 20.6758L22.395 20.6788Z" fill="#2176FF" stroke="#2176FF" stroke-width="0.3"></path><path d="M26.1957 23.5302C27.1857 24.169 28.4409 24.2456 29.5023 23.7317C30.5637 23.2179 31.2756 22.189 31.3777 21.0215C31.4794 19.8539 30.9567 18.7188 30.0001 18.0315C29.0101 17.3925 27.7549 17.3161 26.6935 17.8298C25.6322 18.3438 24.9204 19.3725 24.8184 20.5402C24.7164 21.7079 25.2392 22.8429 26.1957 23.5302V23.5302ZM26.767 19.0291C27.3976 18.5523 28.2367 18.4453 28.9683 18.7489C29.6997 19.0524 30.2126 19.7199 30.3135 20.5004C30.4144 21.2809 30.0881 22.0555 29.4574 22.5323C28.827 23.0119 27.9865 23.1212 27.2528 22.8188C26.5188 22.5166 26.0034 21.849 25.9001 21.0673C25.7971 20.2856 26.122 19.5086 26.7527 19.0291L26.767 19.0291Z" fill="#FFCA00"></path></g><defs><clipPath id="clip0_422_450"><rect width="27.5821" height="19.0448" fill="white" transform="translate(7.88062 12.4776)"></rect></clipPath></defs></svg> 