<?xml version="1.0" encoding="UTF-8"?> <svg xmlns="http://www.w3.org/2000/svg" xmlns:xlink="http://www.w3.org/1999/xlink" width="29pt" height="29pt" viewBox="0 0 29 29" version="1.1"><g id="surface1"><path style=" stroke:none;fill-rule:nonzero;fill:rgb(99.607843%,85.098039%,29.411765%);fill-opacity:1;" d="M 11.445312 24.648438 L 16.730469 24.648438 L 16.730469 25.898438 L 11.445312 25.898438 Z M 11.445312 24.648438 "></path><path style=" stroke:none;fill-rule:nonzero;fill:rgb(99.607843%,85.098039%,29.411765%);fill-opacity:1;" d="M 22.710938 11.101562 L 22.710938 2.34375 C 22.710938 1.121094 21.742188 0.148438 20.515625 0.148438 L 7.6875 0.148438 C 6.46875 0.148438 5.503906 1.117188 5.503906 2.34375 L 5.503906 11.101562 L 3.308594 13.296875 L 5.503906 15.488281 L 5.503906 26.753906 C 5.503906 27.972656 6.46875 28.949219 7.695312 28.949219 L 20.492188 28.949219 C 21.710938 28.949219 22.6875 27.980469 22.6875 26.753906 L 22.6875 15.480469 L 24.878906 13.289062 Z M 6.75 2.34375 C 6.75 1.808594 7.160156 1.40625 7.6875 1.40625 L 20.484375 1.40625 C 21.019531 1.40625 21.421875 1.8125 21.421875 2.34375 L 21.421875 4.125 L 6.75 4.125 Z M 20.523438 27.683594 L 7.6875 27.683594 C 7.152344 27.683594 6.75 27.273438 6.75 26.746094 L 6.75 22.867188 L 21.429688 22.867188 L 21.429688 26.746094 L 21.460938 26.746094 C 21.460938 27.28125 21.050781 27.683594 20.523438 27.683594 Z M 17.921875 18.484375 L 18.796875 19.363281 L 21.460938 16.699219 L 21.460938 21.585938 L 6.75 21.585938 L 6.75 16.730469 L 9.414062 19.363281 L 10.292969 18.484375 L 5.09375 13.289062 L 10.292969 8.089844 L 9.414062 7.183594 L 6.75 9.84375 L 6.75 5.375 L 21.429688 5.375 L 21.429688 9.851562 L 18.796875 7.191406 L 17.921875 8.066406 L 23.117188 13.296875 Z M 17.921875 18.484375 "></path></g></svg> 