<?xml version="1.0" encoding="UTF-8"?> <svg xmlns="http://www.w3.org/2000/svg" xmlns:xlink="http://www.w3.org/1999/xlink" width="29pt" height="29pt" viewBox="0 0 29 29" version="1.1"><g id="surface1"><path style=" stroke:none;fill-rule:nonzero;fill:rgb(93.72549%,26.27451%,20.784314%);fill-opacity:1;" d="M 12.765625 26.09375 L 1.121094 26.09375 C 0.804688 26.09375 0.542969 25.832031 0.542969 25.511719 L 0.542969 3.398438 C 0.542969 3.078125 0.804688 2.816406 1.121094 2.816406 L 12.761719 2.816406 C 13.078125 2.816406 13.339844 3.078125 13.339844 3.398438 L 13.339844 25.511719 C 13.347656 25.832031 13.085938 26.09375 12.765625 26.09375 Z M 1.710938 24.933594 L 12.1875 24.933594 L 12.1875 3.976562 L 1.710938 3.976562 C 1.710938 3.976562 1.710938 24.933594 1.710938 24.933594 Z M 1.710938 24.933594 "></path><path style=" stroke:none;fill-rule:nonzero;fill:rgb(93.72549%,26.27451%,20.784314%);fill-opacity:1;" d="M 10.441406 17.941406 L 3.449219 17.941406 C 3.128906 17.941406 2.871094 17.683594 2.871094 17.363281 L 2.871094 5.726562 C 2.871094 5.40625 3.128906 5.144531 3.449219 5.144531 L 10.433594 5.144531 C 10.753906 5.144531 11.011719 5.40625 11.011719 5.726562 L 11.011719 17.363281 C 11.019531 17.683594 10.757812 17.941406 10.441406 17.941406 Z M 4.039062 16.78125 L 9.859375 16.78125 L 9.859375 6.304688 L 4.039062 6.304688 C 4.039062 6.304688 4.039062 16.78125 4.039062 16.78125 Z M 4.039062 16.78125 "></path><path style=" stroke:none;fill-rule:nonzero;fill:rgb(93.72549%,26.27451%,20.784314%);fill-opacity:1;" d="M 6.363281 23.980469 C 5.078125 23.980469 4.039062 22.941406 4.039062 21.652344 C 4.039062 20.367188 5.078125 19.324219 6.363281 19.324219 C 7.652344 19.324219 8.691406 20.367188 8.691406 21.652344 C 8.691406 22.941406 7.644531 23.980469 6.363281 23.980469 Z M 6.363281 20.492188 C 5.726562 20.492188 5.199219 21.015625 5.199219 21.660156 C 5.199219 22.300781 5.71875 22.828125 6.363281 22.828125 C 7.011719 22.828125 7.53125 22.308594 7.53125 21.660156 C 7.523438 21.015625 7.003906 20.492188 6.363281 20.492188 Z M 6.363281 20.492188 "></path><path style=" stroke:none;fill-rule:nonzero;fill:rgb(93.72549%,26.27451%,20.784314%);fill-opacity:1;" d="M 20.425781 14.9375 C 20.285156 14.9375 20.144531 14.886719 20.03125 14.78125 C 19.792969 14.566406 19.785156 14.195312 20.003906 13.957031 L 21.191406 12.679688 L 20.003906 11.398438 C 19.785156 11.160156 19.792969 10.796875 20.03125 10.582031 C 20.269531 10.359375 20.632812 10.375 20.859375 10.609375 L 22.410156 12.285156 C 22.621094 12.507812 22.621094 12.847656 22.410156 13.074219 L 20.859375 14.746094 C 20.738281 14.878906 20.582031 14.9375 20.425781 14.9375 Z M 20.425781 14.9375 "></path><path style=" stroke:none;fill-rule:nonzero;fill:rgb(93.72549%,26.27451%,20.784314%);fill-opacity:1;" d="M 21.496094 13.289062 L 15.675781 13.289062 C 15.355469 13.289062 15.09375 13.027344 15.09375 12.707031 C 15.09375 12.386719 15.355469 12.128906 15.675781 12.128906 L 21.496094 12.128906 C 21.816406 12.128906 22.078125 12.386719 22.078125 12.707031 C 22.078125 13.027344 21.816406 13.289062 21.496094 13.289062 Z M 21.496094 13.289062 "></path><path style=" stroke:none;fill-rule:nonzero;fill:rgb(93.72549%,26.27451%,20.784314%);fill-opacity:1;" d="M 17.230469 18.433594 C 17.074219 18.433594 16.917969 18.375 16.804688 18.246094 L 15.25 16.574219 C 15.042969 16.351562 15.042969 16.007812 15.25 15.785156 L 16.804688 14.113281 C 17.019531 13.875 17.390625 13.859375 17.628906 14.082031 C 17.867188 14.300781 17.882812 14.671875 17.660156 14.902344 L 16.476562 16.179688 L 17.660156 17.460938 C 17.875 17.699219 17.867188 18.0625 17.628906 18.285156 C 17.511719 18.382812 17.371094 18.433594 17.230469 18.433594 Z M 17.230469 18.433594 "></path><path style=" stroke:none;fill-rule:nonzero;fill:rgb(93.72549%,26.27451%,20.784314%);fill-opacity:1;" d="M 21.496094 16.78125 L 15.675781 16.78125 C 15.355469 16.78125 15.09375 16.523438 15.09375 16.203125 C 15.09375 15.882812 15.355469 15.621094 15.675781 15.621094 L 21.496094 15.621094 C 21.816406 15.621094 22.078125 15.882812 22.078125 16.203125 C 22.078125 16.523438 21.816406 16.78125 21.496094 16.78125 Z M 21.496094 16.78125 "></path><path style=" stroke:none;fill-rule:nonzero;fill:rgb(93.72549%,26.27451%,20.784314%);fill-opacity:1;" d="M 23.238281 23.765625 L 15.675781 23.765625 C 15.355469 23.765625 15.09375 23.503906 15.09375 23.183594 C 15.09375 22.867188 15.355469 22.605469 15.675781 22.605469 L 23.238281 22.605469 C 25.484375 22.605469 27.3125 20.785156 27.3125 18.539062 C 27.3125 17.074219 26.539062 15.757812 25.246094 15.019531 C 25.050781 14.910156 24.941406 14.699219 24.953125 14.476562 C 24.976562 14.210938 24.984375 14.054688 24.984375 13.890625 C 24.984375 9.078125 21.074219 5.160156 16.253906 5.160156 C 16.070312 5.160156 15.890625 5.167969 15.710938 5.175781 C 15.386719 5.199219 15.117188 4.953125 15.09375 4.625 C 15.074219 4.304688 15.316406 4.03125 15.636719 4.007812 C 15.839844 3.992188 16.046875 3.984375 16.253906 3.984375 C 21.710938 3.984375 26.144531 8.425781 26.144531 13.882812 C 26.144531 13.988281 26.144531 14.089844 26.136719 14.203125 C 27.585938 15.167969 28.472656 16.796875 28.472656 18.539062 C 28.472656 21.414062 26.121094 23.765625 23.238281 23.765625 Z M 23.238281 23.765625 "></path></g></svg> 