<?xml version="1.0" encoding="UTF-8"?> <svg xmlns="http://www.w3.org/2000/svg" xmlns:xlink="http://www.w3.org/1999/xlink" width="29pt" height="29pt" viewBox="0 0 29 29" version="1.1"><g id="surface1"><path style=" stroke:none;fill-rule:nonzero;fill:rgb(100%,25.098039%,50.588235%);fill-opacity:1;" d="M 13.4375 9.429688 L 11.585938 7.332031 L 10.679688 8.136719 L 13.382812 11.191406 L 17.847656 6.730469 L 17 5.875 Z M 13.4375 9.429688 "></path><path style=" stroke:none;fill-rule:nonzero;fill:rgb(100%,25.098039%,50.588235%);fill-opacity:1;" d="M 25.542969 19.78125 C 24.003906 19.78125 22.679688 20.871094 22.382812 22.390625 L 20.621094 22.390625 L 20.621094 15.496094 C 23.371094 14.835938 25.066406 12.070312 24.40625 9.316406 C 24.085938 7.992188 23.253906 6.847656 22.085938 6.140625 C 22.085938 6.089844 22.085938 6.039062 22.085938 5.984375 C 22.085938 2.953125 19.628906 0.492188 16.589844 0.484375 C 14.992188 0.484375 13.464844 1.175781 12.425781 2.386719 C 12.03125 2.261719 11.613281 2.199219 11.199219 2.199219 C 9.160156 2.207031 7.441406 3.734375 7.199219 5.753906 C 4.566406 6.796875 3.277344 9.769531 4.320312 12.402344 C 4.996094 14.113281 6.542969 15.332031 8.367188 15.59375 L 8.367188 22.390625 L 6.609375 22.390625 C 6.277344 20.640625 4.59375 19.496094 2.847656 19.832031 C 1.101562 20.167969 -0.0429688 21.847656 0.289062 23.59375 C 0.625 25.339844 2.304688 26.488281 4.050781 26.152344 C 5.347656 25.90625 6.363281 24.886719 6.609375 23.59375 L 9.578125 23.59375 L 9.578125 15.644531 L 13.898438 15.644531 L 13.898438 19.839844 C 12.148438 20.171875 11.003906 21.855469 11.339844 23.601562 C 11.675781 25.347656 13.355469 26.492188 15.101562 26.160156 C 16.851562 25.824219 17.996094 24.144531 17.660156 22.398438 C 17.414062 21.101562 16.394531 20.085938 15.101562 19.839844 L 15.101562 15.644531 L 19.421875 15.644531 L 19.421875 23.59375 L 22.390625 23.59375 C 22.714844 25.339844 24.398438 26.492188 26.144531 26.167969 C 27.890625 25.839844 29.042969 24.160156 28.71875 22.410156 C 28.425781 20.878906 27.097656 19.78125 25.542969 19.78125 Z M 3.449219 25.007812 C 2.34375 25.007812 1.433594 24.113281 1.433594 23 C 1.433594 21.890625 2.328125 20.984375 3.441406 20.984375 C 4.550781 20.984375 5.457031 21.875 5.457031 22.984375 C 5.464844 24.101562 4.566406 25.007812 3.449219 25.007812 Z M 16.515625 22.992188 C 16.523438 24.101562 15.621094 25.007812 14.515625 25.015625 C 13.40625 25.023438 12.5 24.121094 12.492188 23.015625 C 12.484375 21.90625 13.382812 21 14.492188 20.992188 C 14.492188 20.992188 14.5 20.992188 14.5 20.992188 C 15.609375 20.984375 16.507812 21.882812 16.515625 22.992188 Z M 19.40625 14.441406 L 9.125 14.441406 C 6.960938 14.484375 5.167969 12.765625 5.125 10.605469 C 5.085938 8.828125 6.246094 7.25 7.957031 6.757812 C 8.210938 6.683594 8.378906 6.453125 8.378906 6.1875 C 8.410156 4.648438 9.660156 3.40625 11.207031 3.40625 C 11.613281 3.40625 12.015625 3.496094 12.378906 3.664062 C 12.640625 3.785156 12.953125 3.703125 13.117188 3.472656 C 14.5 1.554688 17.183594 1.117188 19.109375 2.5 C 20.234375 3.308594 20.894531 4.601562 20.894531 5.984375 C 20.894531 6.128906 20.894531 6.289062 20.871094 6.425781 C 20.84375 6.671875 20.976562 6.914062 21.199219 7.027344 C 23.132812 8 23.90625 10.359375 22.925781 12.292969 C 22.253906 13.609375 20.894531 14.441406 19.40625 14.441406 Z M 25.542969 25.007812 C 24.433594 25.007812 23.527344 24.101562 23.535156 22.992188 C 23.535156 21.882812 24.441406 20.976562 25.550781 20.984375 C 26.65625 20.984375 27.558594 21.882812 27.558594 22.984375 C 27.566406 24.101562 26.664062 25.007812 25.542969 25.007812 C 25.550781 25.007812 25.550781 25.007812 25.542969 25.007812 Z M 25.542969 25.007812 "></path></g></svg> 