<?xml version="1.0" encoding="UTF-8"?> <!-- Generator: Adobe Illustrator 25.1.0, SVG Export Plug-In . SVG Version: 6.00 Build 0) --> <svg xmlns="http://www.w3.org/2000/svg" xmlns:xlink="http://www.w3.org/1999/xlink" version="1.1" id="Layer_1" x="0px" y="0px" viewBox="0 0 30 30" style="enable-background:new 0 0 30 30;" xml:space="preserve"> <style type="text/css"> .st0{fill:#0ACF83;} .st1{fill:#A259FF;} .st2{fill:#F24E1E;} .st3{fill:#FF7262;} .st4{fill:#1ABCFE;} </style> <g> <title>Figma.logo</title> <desc>Created using Figma</desc> <path id="path0_fill" class="st0" d="M9.4,30c2.8,0,5-2.2,5-5v-5h-5c-2.8,0-5,2.2-5,5S6.7,30,9.4,30z"></path> <path id="path1_fill" class="st1" d="M4.4,15c0-2.8,2.2-5,5-5h5v10h-5C6.7,20,4.4,17.8,4.4,15z"></path> <path id="path1_fill_1_" class="st2" d="M4.4,5c0-2.8,2.2-5,5-5h5v10h-5C6.7,10,4.4,7.8,4.4,5z"></path> <path id="path2_fill" class="st3" d="M14.4,0h5c2.8,0,5,2.2,5,5s-2.2,5-5,5h-5V0z"></path> <path id="path3_fill" class="st4" d="M24.4,15c0,2.8-2.2,5-5,5s-5-2.2-5-5s2.2-5,5-5C22.2,10,24.4,12.2,24.4,15z"></path> </g> </svg> 