<?xml version="1.0" encoding="UTF-8"?> <svg xmlns="http://www.w3.org/2000/svg" xmlns:xlink="http://www.w3.org/1999/xlink" width="36pt" height="30pt" viewBox="0 0 36 30" version="1.1"><g id="surface1"><path style=" stroke:none;fill-rule:nonzero;fill:rgb(100%,84.313725%,25.098039%);fill-opacity:1;" d="M 28.738281 24.996094 L 29.738281 24.996094 L 29.738281 25.996094 L 28.738281 25.996094 Z M 28.738281 24.996094 "></path><path style=" stroke:none;fill-rule:nonzero;fill:rgb(100%,84.313725%,25.098039%);fill-opacity:1;" d="M 21.742188 24.988281 L 22.738281 24.988281 L 22.738281 25.988281 L 21.742188 25.988281 Z M 21.742188 24.988281 "></path><path style=" stroke:none;fill-rule:nonzero;fill:rgb(100%,84.313725%,25.098039%);fill-opacity:1;" d="M 33.570312 21.128906 L 29.078125 17.128906 C 28.988281 17.046875 28.867188 17.003906 28.746094 17.003906 L 27.238281 17.003906 L 27.238281 15.496094 C 27.238281 15.21875 27.015625 14.992188 26.738281 14.992188 L 22.738281 14.992188 L 22.738281 10.027344 L 23.25 10.003906 C 24.113281 10.648438 25.164062 10.996094 26.234375 10.996094 C 28.996094 11.003906 31.238281 8.765625 31.246094 6.007812 C 31.253906 3.246094 29.015625 1.003906 26.257812 0.996094 C 24.9375 0.996094 23.671875 1.515625 22.734375 2.4375 C 22.703125 1.085938 21.601562 0 20.242188 0 L 6.246094 0 C 4.867188 0 3.75 1.117188 3.742188 2.496094 L 3.742188 27.488281 C 3.742188 28.867188 4.859375 29.984375 6.238281 29.984375 L 20.234375 29.984375 C 21.441406 29.984375 22.46875 29.121094 22.6875 27.9375 C 23.683594 27.757812 24.472656 26.984375 24.675781 25.988281 L 26.773438 25.988281 C 27.015625 27.148438 28.035156 27.984375 29.226562 27.988281 C 30.414062 27.988281 31.441406 27.148438 31.679688 25.988281 L 32.226562 25.988281 C 33.058594 25.988281 33.726562 25.320312 33.734375 24.488281 L 33.734375 21.488281 C 33.734375 21.351562 33.675781 21.21875 33.570312 21.128906 Z M 29.242188 19.5 L 30.238281 19.5 L 31.925781 21 L 29.242188 21 Z M 26.242188 20.992188 L 18.742188 20.992188 L 18.742188 15.996094 L 26.242188 15.996094 Z M 27.277344 2.136719 C 29.414062 2.707031 30.683594 4.898438 30.113281 7.035156 C 29.542969 9.171875 27.351562 10.441406 25.214844 9.871094 C 24.675781 9.726562 24.164062 9.464844 23.730469 9.113281 C 23.640625 9.039062 23.527344 9 23.414062 9 C 23.40625 9 23.390625 9 23.386719 9 L 21.570312 9.105469 L 22.433594 7.800781 C 22.515625 7.664062 22.539062 7.5 22.484375 7.359375 C 21.734375 5.28125 22.808594 2.992188 24.878906 2.242188 C 25.640625 1.957031 26.484375 1.921875 27.277344 2.136719 Z M 9.742188 0.996094 L 16.738281 0.996094 L 16.738281 1.996094 L 9.742188 1.996094 Z M 20.242188 28.996094 L 6.246094 28.996094 C 5.421875 28.996094 4.746094 28.320312 4.746094 27.496094 L 4.746094 2.496094 C 4.746094 1.671875 5.421875 0.996094 6.246094 0.996094 L 8.746094 0.996094 L 8.746094 1.996094 C 8.746094 2.550781 9.195312 2.992188 9.742188 2.992188 L 16.738281 2.992188 C 17.296875 2.992188 17.738281 2.542969 17.738281 1.996094 L 17.738281 0.996094 L 20.234375 0.996094 C 21.058594 0.996094 21.734375 1.671875 21.734375 2.496094 L 21.734375 3.824219 C 21.1875 4.957031 21.082031 6.253906 21.457031 7.453125 L 20.183594 9.390625 C 20.078125 9.546875 20.070312 9.75 20.167969 9.914062 C 20.257812 10.078125 20.4375 10.175781 20.632812 10.164062 L 21.742188 10.09375 L 21.742188 14.992188 L 18.238281 14.992188 C 17.960938 14.992188 17.738281 15.21875 17.738281 15.496094 L 17.738281 24.488281 C 17.738281 25.3125 18.40625 25.988281 19.230469 25.988281 L 19.777344 25.988281 C 19.972656 26.941406 20.714844 27.699219 21.660156 27.914062 C 21.488281 28.550781 20.902344 28.988281 20.242188 28.996094 Z M 23.738281 25.492188 C 23.738281 26.316406 23.0625 26.992188 22.238281 26.992188 C 21.414062 26.992188 20.738281 26.316406 20.738281 25.492188 C 20.738281 24.667969 21.414062 23.992188 22.238281 23.992188 C 23.0625 23.992188 23.738281 24.660156 23.738281 25.492188 Z M 30.300781 26.558594 C 30.023438 26.835938 29.640625 27 29.242188 26.992188 C 28.417969 26.992188 27.742188 26.316406 27.742188 25.492188 C 27.742188 24.667969 28.417969 23.992188 29.242188 23.992188 C 30.066406 23.992188 30.742188 24.667969 30.742188 25.492188 C 30.734375 25.898438 30.578125 26.28125 30.300781 26.558594 Z M 32.234375 24.996094 L 31.6875 24.996094 C 31.449219 23.835938 30.425781 23.003906 29.242188 22.996094 C 28.058594 22.996094 27.03125 23.835938 26.789062 24.996094 L 24.691406 24.996094 C 24.457031 23.828125 23.429688 22.988281 22.246094 22.988281 C 21.058594 22.996094 20.03125 23.828125 19.792969 24.988281 L 19.246094 24.988281 C 18.96875 24.988281 18.75 24.765625 18.75 24.488281 L 18.75 21.988281 L 26.746094 21.988281 C 27.023438 21.988281 27.246094 21.765625 27.246094 21.488281 L 27.246094 18 L 28.558594 18 L 29.136719 18.511719 C 28.636719 18.570312 28.253906 18.988281 28.253906 19.492188 L 28.253906 20.992188 C 28.253906 21.546875 28.703125 21.988281 29.25 21.988281 L 32.753906 21.988281 L 32.753906 24.488281 C 32.738281 24.773438 32.511719 24.996094 32.234375 24.996094 Z M 32.234375 24.996094 "></path><path style=" stroke:none;fill-rule:nonzero;fill:rgb(100%,84.313725%,25.098039%);fill-opacity:1;" d="M 12.742188 24.988281 L 16.738281 24.988281 L 16.738281 25.988281 L 12.742188 25.988281 Z M 12.742188 24.988281 "></path><path style=" stroke:none;fill-rule:nonzero;fill:rgb(100%,84.313725%,25.098039%);fill-opacity:1;" d="M 10.746094 24.988281 L 11.746094 24.988281 L 11.746094 25.988281 L 10.746094 25.988281 Z M 10.746094 24.988281 "></path><path style=" stroke:none;fill-rule:nonzero;fill:rgb(100%,84.313725%,25.098039%);fill-opacity:1;" d="M 13.738281 22.996094 L 16.738281 22.996094 L 16.738281 23.992188 L 13.738281 23.992188 Z M 13.738281 22.996094 "></path><path style=" stroke:none;fill-rule:nonzero;fill:rgb(100%,84.313725%,25.098039%);fill-opacity:1;" d="M 14.746094 20.992188 L 16.746094 20.992188 L 16.746094 21.988281 L 14.746094 21.988281 Z M 14.746094 20.992188 "></path><path style=" stroke:none;fill-rule:nonzero;fill:rgb(100%,84.313725%,25.098039%);fill-opacity:1;" d="M 11.746094 22.996094 L 12.742188 22.996094 L 12.742188 23.992188 L 11.746094 23.992188 Z M 11.746094 22.996094 "></path><path style=" stroke:none;fill-rule:nonzero;fill:rgb(100%,84.313725%,25.098039%);fill-opacity:1;" d="M 18.238281 12 L 18.238281 10.5 C 18.238281 10.222656 18.015625 9.996094 17.738281 9.996094 L 17.234375 9.996094 L 17.234375 9 L 17.738281 9 C 18.015625 9 18.238281 8.773438 18.238281 8.496094 L 18.238281 7.5 C 18.238281 6.121094 17.121094 5.003906 15.742188 5.003906 L 10.746094 5.003906 C 9.367188 5.003906 8.25 6.121094 8.25 7.5 L 8.25 8.496094 C 8.25 8.773438 8.476562 9 8.753906 9 L 9.253906 9 L 9.253906 9.996094 L 8.753906 9.996094 C 8.476562 9.996094 8.25 10.222656 8.25 10.5 L 8.25 12 C 8.25 12.554688 8.699219 12.996094 9.246094 12.996094 L 17.242188 12.996094 C 17.796875 12.996094 18.238281 12.546875 18.238281 12 Z M 9.246094 7.5 C 9.246094 6.675781 9.921875 6 10.746094 6 L 10.746094 6.996094 L 11.746094 6.996094 L 11.746094 6 L 12.742188 6 L 12.742188 6.996094 L 13.738281 6.996094 L 13.738281 6 L 14.738281 6 L 14.738281 6.996094 L 15.734375 6.996094 L 15.734375 6 C 16.558594 6 17.234375 6.675781 17.234375 7.5 L 17.234375 8.003906 L 9.246094 8.003906 Z M 10.246094 9 L 16.246094 9 L 16.246094 9.996094 L 10.246094 9.996094 Z M 17.242188 12 L 9.246094 12 L 9.246094 11.003906 L 17.242188 11.003906 Z M 17.242188 12 "></path><path style=" stroke:none;fill-rule:nonzero;fill:rgb(100%,84.313725%,25.098039%);fill-opacity:1;" d="M 25.738281 4.5 L 28.738281 4.5 L 28.738281 5.496094 L 25.738281 5.496094 Z M 25.738281 4.5 "></path><path style=" stroke:none;fill-rule:nonzero;fill:rgb(100%,84.313725%,25.098039%);fill-opacity:1;" d="M 23.738281 6.496094 L 28.734375 6.496094 L 28.734375 7.492188 L 23.738281 7.492188 Z M 23.738281 6.496094 "></path><path style=" stroke:none;fill-rule:nonzero;fill:rgb(100%,84.313725%,25.098039%);fill-opacity:1;" d="M 23.738281 4.5 L 24.734375 4.5 L 24.734375 5.496094 L 23.738281 5.496094 Z M 23.738281 4.5 "></path></g></svg> 