<svg xmlns="http://www.w3.org/2000/svg" xmlns:xlink="http://www.w3.org/1999/xlink" viewBox="0 0 1920 550" xmlns:v="https://vecta.io/nano"><linearGradient id="A" gradientUnits="userSpaceOnUse" x1="1598.686" y1="913.686" x2="296.762" y2="-388.238"><stop offset="0" stop-color="#1cbbe9"/><stop offset="1" stop-color="#2176ff"/></linearGradient><path d="M0 550h1920V0H0z" fill="url(#A)"/><defs><path id="B" d="M0 0h1920v550H0z"/></defs><clipPath id="C"><use xlink:href="#B"/></clipPath><g opacity=".1" clip-path="url(#C)"><linearGradient id="D" gradientUnits="userSpaceOnUse" x1="837.449" y1="357.312" x2="927.192" y2="16.342"><stop offset="0" stop-color="#c7eeff"/><stop offset="1" stop-color="#d8f1ff" stop-opacity="0"/></linearGradient><path d="M.3 162.8s373.6 138.3 794.3 139c556.7 1 810.8-98.5 1125-203.8v-413H.5L.3 162.8z" fill="url(#D)"/><linearGradient id="E" gradientUnits="userSpaceOnUse" x1="602.663" y1="-77.498" x2="578.264" y2="-197.615"><stop offset="0" stop-color="#a8e5ff"/><stop offset="1" stop-color="#d8f1ff" stop-opacity="0"/></linearGradient><path d="M3.5 71.1s286.8-257.2 1211-234.8c0 0-359-178.9-1214.2-26.1L3.5 71.1z" opacity=".48" fill="url(#E)" enable-background="new"/><linearGradient id="F" gradientUnits="userSpaceOnUse" x1="477.551" y1="-308.81" x2="525.849" y2="-184.917"><stop offset="0" stop-color="#fff"/><stop offset="1" stop-color="#d8f1ff" stop-opacity="0"/></linearGradient><ellipse cx="624.6" cy="68.4" rx="594.2" ry="334.3" fill="url(#F)"/><linearGradient id="G" gradientUnits="userSpaceOnUse" x1="666.839" y1="42.145" x2="782.511" y2="230.111"><stop offset="0" stop-color="#e6f7ff"/><stop offset="1" stop-color="#d8f1ff" stop-opacity="0"/></linearGradient><path d="M60.9 482.7s326.3 2.4 552.9-139.2S1086 84 1635 190.2c0 0-353.2-73.1-537.5 11.8C913.3 286.9 717.4 612.5 60.9 482.7z" fill="url(#G)"/><linearGradient id="H" gradientUnits="userSpaceOnUse" x1="641.805" y1="238.51" x2="624.662" y2="155.245"><stop offset="0" stop-color="#e6f7ff"/><stop offset="1" stop-color="#d8f1ff" stop-opacity="0"/></linearGradient><path d="M.5 343.7s125.8-32.4 310-70.7c270.2-56.2 666.3-125.3 975.9-123.7 0 0-332.6-39.1-836.4 27.7C311.9 195.3 161 221.5.5 258.7v85z" fill="url(#H)"/><linearGradient id="I" gradientUnits="userSpaceOnUse" x1="1" y1="540.723" x2="1919.6" y2="540.723"><stop offset="0" stop-color="#b9ecf7"/><stop offset="1" stop-color="#d8f1ff" stop-opacity="0"/></linearGradient><path d="M1918.5 443.3c-125.6 53-321.1 104.5-536.6 141.3-234.7 40.1-467.9 58.2-656.6 51-211-8-396.5-35.1-514.9-56.3-128.3-23-207.8-44.4-208.6-44.7l-.8.9c.8.2 80.4 21.7 208.8 44.7 118.6 21.3 304.2 48.4 515.4 56.4 188.9 7.2 422.4-10.9 657.3-51 215.6-36.8 411.4-88.4 537.1-141.5l-1.1-.8z" fill="url(#I)"/><linearGradient id="J" gradientUnits="userSpaceOnUse" x1="1" y1="533.577" x2="1918.8" y2="533.577"><stop offset="0" stop-color="#b9ecf7"/><stop offset="1" stop-color="#d8f1ff" stop-opacity="0"/></linearGradient><path d="M1917.7 439c-121.8 51.4-312.9 101.4-524.5 137.1-232.6 39.2-465.6 56.8-656.1 49.4-214.1-8.3-402.6-37.4-523-60.3-130.5-24.9-211.5-48-212.3-48.3l-.8.9c.8.2 81.8 23.4 212.5 48.3 120.6 23 309.3 52.1 523.5 60.4 190.8 7.4 424-10.2 656.8-49.4 211.7-35.7 403.1-85.7 525-137.2l-1.1-.9z" fill="url(#J)"/><linearGradient id="K" gradientUnits="userSpaceOnUse" x1="1" y1="526.387" x2="1918.1" y2="526.387"><stop offset="0" stop-color="#b9ecf7"/><stop offset="1" stop-color="#d8f1ff" stop-opacity="0"/></linearGradient><path d="M1916.9 434.7c-118 49.8-304.7 98.2-512.3 132.9-230.5 38.4-463.4 55.4-655.7 47.8-217.2-8.6-408.7-39.7-531.2-64.3C85 524.4 2.7 499.5 1.9 499.2l-.9.9c.8.2 83.3 25.2 216.1 51.9 122.6 24.6 314.3 55.8 531.7 64.3 192.6 7.6 425.7-9.4 656.4-47.8 207.8-34.6 394.8-83.1 512.9-133l-1.2-.8z" fill="url(#K)"/><linearGradient id="L" gradientUnits="userSpaceOnUse" x1="1" y1="519.171" x2="1917.2" y2="519.171"><stop offset="0" stop-color="#b9ecf7"/><stop offset="1" stop-color="#d8f1ff" stop-opacity="0"/></linearGradient><path d="M1916 430.3c-112.5 47.5-299.5 95.6-500.2 128.6-109.1 17.9-218.7 31.1-325.7 39.2-116.8 8.8-227.7 11.1-329.5 7.1-220.3-8.8-414.8-42-539.3-68.3C86.5 508.5 2.7 481.8 1.9 481.5l-.9.8c.8.3 84.7 27 219.7 55.5 124.6 26.3 319.3 59.5 539.8 68.3 102 4.1 212.9 1.7 329.9-7.1 107.2-8 216.9-21.2 326-39.2 200.9-33.1 388.2-81.2 500.8-128.8l-1.2-.7z" fill="url(#L)"/><linearGradient id="M" gradientUnits="userSpaceOnUse" x1=".9" y1="512.035" x2="1916.3" y2="512.035"><stop offset="0" stop-color="#b9ecf7"/><stop offset="1" stop-color="#d8f1ff" stop-opacity="0"/></linearGradient><path d="M1915.2 426c-108.7 45.9-291.1 92.4-488.1 124.4-107.9 17.5-216.7 30.4-323.4 38.1-116.8 8.5-228.3 10.7-331.4 6.5-223.4-9.1-420.9-44.3-547.4-72.2-136.9-30.3-222.2-58.7-223-59l-1 .8c.8.3 86.2 28.8 223.3 59.1 126.5 28 324.3 63.2 547.9 72.3 103.2 4.2 214.8 2 331.8-6.5 106.7-7.8 215.6-20.6 323.7-38.2 197.2-32 379.8-78.6 488.7-124.6l-1.1-.7z" fill="url(#M)"/><linearGradient id="N" gradientUnits="userSpaceOnUse" x1=".9" y1="504.88" x2="1915.4" y2="504.88"><stop offset="0" stop-color="#b9ecf7"/><stop offset="1" stop-color="#d8f1ff" stop-opacity="0"/></linearGradient><path d="M1914.4 421.7c-104.9 44.3-282.8 89.2-476 120.2-158.7 25.4-401 53.5-654.4 43-226.4-9.4-427.1-46.6-555.5-76.2C89.4 476.6 2.8 446.3 1.9 446l-1 .8c.9.3 87.7 30.6 226.9 62.7 128.5 29.6 329.4 66.9 556 76.3 253.7 10.5 496.2-17.6 655-43 193.4-31 371.5-76 476.6-120.3l-1-.8z" fill="url(#N)"/><linearGradient id="O" gradientUnits="userSpaceOnUse" x1=".9" y1="497.66" x2="1914.7" y2="497.66"><stop offset="0" stop-color="#b9ecf7"/><stop offset="1" stop-color="#d8f1ff" stop-opacity="0"/></linearGradient><path d="M1913.6 417.3c-101 42.7-274.4 86-463.9 115.9-157.2 24.8-398.3 52.2-653.9 41.4-229.5-9.6-433.1-48.9-563.5-80.2C90.9 460.6 2.8 428.6 1.9 428.3l-1 .8c.9.3 89.1 32.3 230.6 66.2C362 526.7 565.9 566 795.6 575.6c255.9 10.8 497.2-16.6 654.6-41.5 189.6-29.9 363.2-73.3 464.5-116.1l-1.1-.7z" fill="url(#O)"/><linearGradient id="P" gradientUnits="userSpaceOnUse" x1=".9" y1="489.278" x2="1913.8" y2="489.278"><stop offset="0" stop-color="#b9ecf7"/><stop offset="1" stop-color="#d8f1ff" stop-opacity="0"/></linearGradient><path d="M1.9 410.6l-1 .8c.9.3 90.6 34.1 234.2 69.8 132.5 32.9 339.4 74.3 572.3 84.2 258.2 11 498.2-15.6 654.1-39.9 185.9-28.9 355-70.7 452.3-111.9l-1.1-.8c-97.2 41-266.1 82.8-451.7 111.7-155.8 24.2-395.6 50.8-653.5 39.8-232.6-9.9-439.3-51.2-571.7-84.2-143.4-35.4-233-69.2-233.9-69.5z" fill="url(#P)"/><linearGradient id="Q" gradientUnits="userSpaceOnUse" x1=".8" y1="475.452" x2="1912.9" y2="475.452"><stop offset="0" stop-color="#b9ecf7"/><stop offset="1" stop-color="#d8f1ff" stop-opacity="0"/></linearGradient><path d="M1.9 392.9l-1.1.8c.9.4 92 35.9 237.8 73.4 134.5 34.6 344.4 78 580.4 88.2 463.2 20 926.6-75.2 1093.9-145.9l-1.1-.8c-167 70.6-629.8 165.7-1092.5 145.7-235.7-10.2-445.4-53.5-579.8-88.1-145.6-37.5-236.7-73-237.6-73.3z" fill="url(#Q)"/><linearGradient id="R" gradientUnits="userSpaceOnUse" x1=".9" y1="461.632" x2="1912.2" y2="461.632"><stop offset="0" stop-color="#b9ecf7"/><stop offset="1" stop-color="#d8f1ff" stop-opacity="0"/></linearGradient><path d="M2 375.2l-1.1.8c.9.4 93.5 37.7 241.4 77 86.9 23.1 175.6 42.3 263.6 57.2 110 18.6 219.4 30.4 325 35 463.4 20.3 919.2-71.6 1081.3-140l-1.1-.8c-161.9 68.3-617.2 160-1080.1 139.8-105.4-4.6-214.7-16.4-324.6-34.9-87.9-14.9-176.5-34.1-263.3-57.1C95.3 412.8 2.9 375.5 2 375.2z" fill="url(#R)"/><linearGradient id="S" gradientUnits="userSpaceOnUse" x1=".9" y1="447.719" x2="1911.4" y2="447.719"><stop offset="0" stop-color="#b9ecf7"/><stop offset="1" stop-color="#d8f1ff" stop-opacity="0"/></linearGradient><path d="M2 357.4l-1.1.8c.9.4 95 39.5 245 80.6 88.1 24.1 178.1 44.3 267.3 59.8C624.8 518 735.6 530.2 842.6 535c463.6 20.6 911.8-67.9 1068.8-134.2l-1.1-.8c-156.7 66.2-604.4 154.5-1067.5 134-106.8-4.7-217.5-17-328.9-36.3-89.2-15.5-179-35.6-267.1-59.7C96.8 396.9 2.9 357.8 2 357.4z" fill="url(#S)"/><linearGradient id="T" gradientUnits="userSpaceOnUse" x1=".9" y1="433.921" x2="1910.6" y2="433.921"><stop offset="0" stop-color="#b9ecf7"/><stop offset="1" stop-color="#d8f1ff" stop-opacity="0"/></linearGradient><path d="M2 339.7l-1.1.8c.9.4 96.4 41.3 248.7 84.2 89.4 25.2 180.6 46.2 271.1 62.4 113.1 20.2 225.4 32.9 333.7 37.8 266.8 12 502-11.6 652.3-33.5 87.5-12.7 172.2-28.7 245-46.3 66.5-16 121.5-32.9 158.9-48.6l-1.1-.8c-80.4 33.9-234.9 70.2-403.3 94.8-150.2 21.9-385.1 45.4-651.7 33.4-108.2-4.9-220.3-17.6-333.3-37.7-90.4-16.2-181.5-37.1-270.8-62.3C98.3 380.9 2.9 340.1 2 339.7z" fill="url(#T)"/><linearGradient id="U" gradientUnits="userSpaceOnUse" x1=".9" y1="420.058" x2="1909.8" y2="420.058"><stop offset="0" stop-color="#b9ecf7"/><stop offset="1" stop-color="#d8f1ff" stop-opacity="0"/></linearGradient><path d="M2 322l-1.1.8c1 .4 97.9 43 252.3 87.8 90.7 26.3 183.1 48.1 274.8 64.9 114.6 21 228.4 34.2 338.1 39.2 268.9 12.2 502.9-10.6 651.9-31.9 197.3-28.2 331.7-65.3 391.8-90.7l-1.1-.8c-59.9 25.3-194.1 62.4-391.1 90.5-148.8 21.3-382.6 44-651.2 31.8-109.5-5-223.1-18.1-337.6-39.1-91.6-16.8-184-38.6-274.6-64.9C99.8 365 2.9 322.4 2 322z" fill="url(#U)"/><linearGradient id="V" gradientUnits="userSpaceOnUse" x1=".8" y1="406.149" x2="1908.8" y2="406.149"><stop offset="0" stop-color="#b9ecf7"/><stop offset="1" stop-color="#d8f1ff" stop-opacity="0"/></linearGradient><path d="M2 304.3l-1.2.7c1 .4 99.3 44.8 255.9 91.3 91.9 27.3 185.7 50 278.6 67.5 116.2 21.8 231.4 35.5 342.4 40.6 271 12.4 503.8-9.6 651.4-30.3 193-27 322.7-62.4 379.7-86.5l-1.1-.8c-56.8 24-186.3 59.3-379 86.3-147.5 20.7-380.1 42.7-650.8 30.2-110.9-5.1-226-18.7-342-40.5-92.8-17.4-186.5-40.1-278.3-67.4C101.2 349 3 304.7 2 304.3z" fill="url(#V)"/><linearGradient id="W" gradientUnits="userSpaceOnUse" x1=".8" y1="392.364" x2="1908" y2="392.364"><stop offset="0" stop-color="#b9ecf7"/><stop offset="1" stop-color="#d8f1ff" stop-opacity="0"/></linearGradient><path d="M2 286.6l-1.2.7c1 .5 100.8 46.6 259.5 94.9 93.2 28.4 188.2 52 282.4 70.1 117.7 22.6 234.4 36.8 346.8 42 273 12.7 504.7-8.6 650.9-28.7 155.6-21.3 299.8-53.6 367.6-82.2l-1.1-.8c-67.6 28.5-211.6 60.7-366.9 82-146.2 20.1-377.6 41.3-650.3 28.6-112.3-5.2-228.8-19.3-346.4-42-94-18.1-189-41.7-282.1-70C102.7 333.1 3 287 2 286.6z" fill="url(#W)"/><linearGradient id="X" gradientUnits="userSpaceOnUse" x1=".8" y1="378.466" x2="1907.2" y2="378.466"><stop offset="0" stop-color="#b9ecf7"/><stop offset="1" stop-color="#d8f1ff" stop-opacity="0"/></linearGradient><path d="M2 268.8l-1.2.7c1 .5 102.3 48.4 263.1 98.5 94.5 29.4 190.7 53.9 286.1 72.7 119.2 23.5 237.4 38.1 351.2 43.4 275 12.9 505.5-7.6 650.5-27.1 184.8-24.8 307-57.5 355.5-78l-1.1-.8c-48.3 20.4-170.2 53-354.8 77.8-144.9 19.5-375.2 39.9-649.9 27-113.6-5.3-231.6-19.9-350.7-43.4-95.3-18.7-191.4-43.2-285.8-72.6C104.1 317.1 3 269.3 2 268.8z" fill="url(#X)"/><linearGradient id="Y" gradientUnits="userSpaceOnUse" x1=".8" y1="364.672" x2="1906.3" y2="364.672"><stop offset="0" stop-color="#b9ecf7"/><stop offset="1" stop-color="#d8f1ff" stop-opacity="0"/></linearGradient><path d="M2 251.1l-1.2.7c1 .5 103.7 50.2 266.7 102.1 95.8 30.5 193.3 55.8 289.9 75.2C678.2 453.4 797.8 468.5 913 474c276.9 13.1 506.3-6.6 650-25.5 79.1-10.4 154.7-23.5 218.6-37.8 54.5-12.2 98.8-25 124.7-35.9l-1.1-.8c-48.9 20.7-173.9 51.4-342.7 73.6-143.6 18.8-372.8 38.6-649.5 25.4-115-5.5-234.5-20.5-355.1-44.8-96.5-19.4-193.9-44.7-289.6-75.2C105.6 301.2 3 251.6 2 251.1z" fill="url(#Y)"/><linearGradient id="Z" gradientUnits="userSpaceOnUse" x1=".8" y1="350.834" x2="1905.5" y2="350.834"><stop offset="0" stop-color="#b9ecf7"/><stop offset="1" stop-color="#d8f1ff" stop-opacity="0"/></linearGradient><path d="M2 233.4l-1.2.7c1 .5 105.2 51.9 270.4 105.7 97 31.6 195.8 57.7 293.6 77.8 122.3 25.1 243.4 40.6 359.9 46.2 278.7 13.3 507.1-5.6 649.6-23.9 165.2-21.2 285.4-50.2 331.2-69.5l-1.1-.8c-45.7 19.3-165.6 48.2-330.5 69.3-142.4 18.2-370.5 37.2-649 23.8-116.4-5.6-237.3-21.1-359.4-46.2-97.7-20-196.4-46.2-293.3-77.7C107.1 285.3 3.1 233.9 2 233.4z" fill="url(#Z)"/><linearGradient id="a" gradientUnits="userSpaceOnUse" x1=".8" y1="337.072" x2="1904.7" y2="337.072"><stop offset="0" stop-color="#b9ecf7"/><stop offset="1" stop-color="#d8f1ff" stop-opacity="0"/></linearGradient><path d="M2 215.7l-1.2.7c1 .5 106.6 53.7 274 109.3 98.3 32.6 198.3 59.7 297.4 80.4C696 432 818.6 448 936.5 453.7c280.5 13.6 507.8-4.6 649.1-22.3 160.5-20 277.9-47.9 319.1-65.3l-1.1-.8c-41.1 17.3-158.2 45.1-318.4 65.1-141.2 17.6-368.3 35.8-648.6 22.2-117.7-5.6-240.1-21.6-363.8-47.5-98.9-20.7-198.9-47.7-297.1-80.3C108.6 269.3 3.1 216.2 2 215.7z" fill="url(#a)"/><linearGradient id="b" gradientUnits="userSpaceOnUse" x1=".8" y1="323.247" x2="1903.9" y2="323.247"><stop offset="0" stop-color="#b9ecf7"/><stop offset="1" stop-color="#d8f1ff" stop-opacity="0"/></linearGradient><path d="M2 198l-1.2.7c1.1.5 108.1 55.5 277.6 112.8 99.6 33.7 200.9 61.6 301.1 83 125.3 26.7 249.4 43.2 368.7 49 282.3 13.8 508.6-3.6 648.7-20.7 180.4-21.9 279.7-49.5 307-61.1l-1.1-.8c-31.6 13.4-139.3 40.6-306.3 60.9-140 17-366.1 34.4-648.1 20.7-119.1-5.8-243-22.3-368.2-49-100.2-21.3-201.4-49.2-300.8-82.9C110 253.4 3.1 198.5 2 198z" fill="url(#b)"/><linearGradient id="c" gradientUnits="userSpaceOnUse" x1=".7" y1="309.32" x2="1902.9" y2="309.32"><stop offset="0" stop-color="#b9ecf7"/><stop offset="1" stop-color="#d8f1ff" stop-opacity="0"/></linearGradient><path d="M2 180.2l-1.3.7c1.1.6 109.6 57.3 281.2 116.4 100.8 34.7 203.4 63.5 304.9 85.5 126.9 27.5 252.4 44.5 373 50.4 283.9 14 509.2-2.7 648.2-19.1 163.3-19.3 265.8-44.6 294.9-56.8l-1.1-.8c-28.9 12.2-131.2 37.4-294.2 56.6-138.9 16.4-364 33-647.7 19.1-120.5-5.9-245.8-22.9-372.5-50.3-101.4-22-203.8-50.7-304.6-85.4C111.5 237.4 3.1 180.8 2 180.2z" fill="url(#c)"/><linearGradient id="d" gradientUnits="userSpaceOnUse" x1=".7" y1="295.557" x2="1902.1" y2="295.557"><stop offset="0" stop-color="#b9ecf7"/><stop offset="1" stop-color="#d8f1ff" stop-opacity="0"/></linearGradient><path d="M2 162.5l-1.3.7c1.1.6 111 59.1 284.8 120 102.1 35.8 205.9 65.4 308.6 88.1 128.4 28.3 255.4 45.8 377.4 51.8 285.5 14.2 509.9-1.7 647.8-17.5 177.2-20.3 265.8-45.4 282.8-52.6l-1.1-.8c-21.3 9-118.3 33.7-282.1 52.4-137.8 15.8-361.9 31.6-647.2 17.5-121.8-6-248.6-23.5-376.9-51.7-102.6-22.6-206.3-52.2-308.3-88C112.9 221.5 3.1 163.1 2 162.5z" fill="url(#d)"/><linearGradient id="e" gradientUnits="userSpaceOnUse" x1=".8" y1="281.802" x2="1901.4" y2="281.802"><stop offset="0" stop-color="#b9ecf7"/><stop offset="1" stop-color="#d8f1ff" stop-opacity="0"/></linearGradient><path d="M2.1 144.8l-1.3.7c1.1.6 112.5 60.8 288.4 123.6 103.4 36.9 208.5 67.4 312.4 90.7 129.9 29.1 258.4 47 381.8 53.2 287 14.4 510.4-.7 647.3-15.9 158.4-17.6 252.2-40.6 270.7-48.4l-1.1-.8c-18.4 7.8-111.8 30.7-269.9 48.2-136.8 15.2-360 30.2-646.8 15.9-123.2-6.2-251.5-24-381.2-53.1-103.8-23.3-208.8-53.8-312.1-90.6C114.4 205.6 3.2 145.4 2.1 144.8z" fill="url(#e)"/><linearGradient id="f" gradientUnits="userSpaceOnUse" x1=".8" y1="268.065" x2="1900.5" y2="268.065"><stop offset="0" stop-color="#b9ecf7"/><stop offset="1" stop-color="#d8f1ff" stop-opacity="0"/></linearGradient><path d="M2.1 127.1l-1.3.7c1.1.6 113.9 62.6 292.1 127.2 104.6 37.9 211 69.3 316.1 93.3 131.5 30 261.4 48.3 386.1 54.6 549.2 27.7 878-46.8 905.4-58.4l-1.1-.8c-27.4 11.6-355.6 85.9-904.2 58.2-124.6-6.3-254.3-24.6-385.6-54.6-105-23.9-211.3-55.3-315.8-93.2C115.9 189.6 3.2 127.7 2.1 127.1z" fill="url(#f)"/><linearGradient id="g" gradientUnits="userSpaceOnUse" x1=".8" y1="254.135" x2="1899.8" y2="254.135"><stop offset="0" stop-color="#b9ecf7"/><stop offset="1" stop-color="#d8f1ff" stop-opacity="0"/></linearGradient><path d="M2.1 109.3l-1.3.7c1.1.6 115.4 64.4 295.7 130.8 105.9 39 213.5 71.2 319.9 95.8 133 30.8 264.4 49.6 390.5 56 289.6 14.7 511.4 1.2 646.4-12.7 150.8-15.5 236.8-35.8 246.5-39.9l-1.1-.8c-9.5 4-95.2 24.2-245.7 39.7-134.9 13.9-356.5 27.4-645.9 12.7-125.9-6.4-257.1-25.2-390-56-106.3-24.6-213.8-56.8-319.6-95.7C117.3 173.7 3.2 110 2.1 109.3z" fill="url(#g)"/><linearGradient id="h" gradientUnits="userSpaceOnUse" x1=".8" y1="240.355" x2="1899" y2="240.355"><stop offset="0" stop-color="#b9ecf7"/><stop offset="1" stop-color="#d8f1ff" stop-opacity="0"/></linearGradient><path d="M2.1 91.6l-1.3.7c1.1.7 116.8 66.2 299.3 134.3 107.2 40 216.1 73.1 323.6 98.4 134.5 31.6 267.4 50.9 394.9 57.4 290.8 14.9 511.8 2.2 646-11.1 153.2-15.2 230.4-34 234.4-35.7l-1.1-.8c-3.7 1.6-83.3 20.6-233.6 35.5-134.1 13.3-354.9 26-645.5 11.1-127.3-6.5-260-25.8-394.3-57.4-107.5-25.2-216.3-58.3-323.3-98.3C118.8 157.7 3.2 92.3 2.1 91.6z" fill="url(#h)"/><linearGradient id="i" gradientUnits="userSpaceOnUse" x1=".8" y1="226.635" x2="1897.8" y2="226.635"><stop offset="0" stop-color="#b9ecf7"/><stop offset="1" stop-color="#d8f1ff" stop-opacity="0"/></linearGradient><path d="M2.1 73.9l-1.3.7c1.2.7 118.3 68 302.9 137.9 108.4 41.1 218.6 75.1 327.4 101 136 32.4 270.4 52.2 399.2 58.8 291.7 15.1 512.1 3.2 645.5-9.5 144.6-13.7 221.3-31.2 222-31.4l-.7-.9c-.8.2-77.3 17.6-221.7 31.3-133.3 12.6-353.4 24.5-644.9 9.5-128.7-6.6-262.8-26.4-398.7-58.8-108.7-25.8-218.8-59.7-327.1-100.8C120.2 141.8 3.2 74.6 2.1 73.9z" fill="url(#i)"/></g></svg>