<?xml version="1.0" encoding="UTF-8"?> <svg xmlns="http://www.w3.org/2000/svg" xmlns:xlink="http://www.w3.org/1999/xlink" width="36pt" height="30pt" viewBox="0 0 36 30" version="1.1"><g id="surface1"><path style=" stroke:none;fill-rule:nonzero;fill:rgb(36.862745%,55.686275%,24.313725%);fill-opacity:1;" d="M 32.796875 0.113281 L 3.488281 0.113281 C 3.082031 0.113281 2.761719 0.441406 2.761719 0.839844 L 2.761719 8.960938 C 2.761719 9.832031 3.351562 10.582031 4.207031 10.933594 L 4.207031 29.160156 C 4.207031 29.566406 4.539062 29.886719 4.933594 29.886719 L 31.351562 29.886719 C 31.753906 29.886719 32.078125 29.558594 32.078125 29.160156 L 32.078125 11.023438 C 32.933594 10.664062 33.523438 9.921875 33.523438 9.050781 L 33.523438 0.839844 C 33.53125 0.441406 33.203125 0.113281 32.796875 0.113281 Z M 4.214844 1.574219 L 32.070312 1.574219 L 32.070312 9.046875 C 32.070312 9.441406 31.550781 9.789062 30.96875 9.789062 C 30.382812 9.789062 29.863281 9.441406 29.863281 9.046875 L 29.863281 6.164062 C 29.863281 5.761719 29.535156 5.4375 29.136719 5.4375 C 28.734375 5.4375 28.410156 5.765625 28.410156 6.164062 L 28.410156 9.046875 C 28.410156 9.441406 27.890625 9.789062 27.308594 9.789062 C 26.722656 9.789062 26.203125 9.441406 26.203125 9.046875 L 26.203125 6.164062 C 26.203125 5.761719 25.875 5.4375 25.476562 5.4375 C 25.074219 5.4375 24.75 5.765625 24.75 6.164062 L 24.75 9.046875 C 24.75 9.441406 24.234375 9.789062 23.648438 9.789062 C 23.0625 9.789062 22.546875 9.441406 22.546875 9.046875 L 22.546875 6.164062 C 22.546875 5.761719 22.214844 5.4375 21.816406 5.4375 C 21.421875 5.4375 21.074219 5.765625 21.074219 6.164062 L 21.074219 9.046875 C 21.074219 9.441406 20.558594 9.789062 19.972656 9.789062 C 19.386719 9.789062 18.871094 9.441406 18.871094 9.046875 L 18.871094 6.074219 C 18.871094 5.671875 18.539062 5.347656 18.140625 5.347656 C 17.738281 5.347656 17.414062 5.675781 17.414062 6.074219 L 17.414062 8.960938 C 17.414062 9.359375 16.898438 9.703125 16.3125 9.703125 C 15.726562 9.703125 15.210938 9.359375 15.210938 8.960938 L 15.210938 6.074219 C 15.210938 5.671875 14.878906 5.347656 14.484375 5.347656 C 14.085938 5.347656 13.753906 5.675781 13.753906 6.074219 L 13.753906 8.953125 C 13.753906 9.351562 13.238281 9.699219 12.652344 9.699219 C 12.066406 9.699219 11.550781 9.351562 11.550781 8.953125 L 11.550781 6.074219 C 11.550781 5.671875 11.21875 5.347656 10.824219 5.347656 C 10.417969 5.347656 10.09375 5.675781 10.09375 6.074219 L 10.09375 8.953125 C 10.09375 9.351562 9.578125 9.699219 8.992188 9.699219 C 8.40625 9.699219 7.890625 9.351562 7.890625 8.953125 L 7.890625 6.074219 C 7.890625 5.671875 7.558594 5.347656 7.164062 5.347656 C 6.765625 5.347656 6.421875 5.671875 6.421875 6.074219 L 6.421875 8.953125 C 6.421875 9.351562 5.902344 9.699219 5.316406 9.699219 C 4.734375 9.699219 4.214844 9.351562 4.214844 8.953125 Z M 9.710938 28.425781 L 9.710938 17.046875 L 16.222656 17.046875 L 16.222656 28.425781 Z M 17.683594 28.425781 L 17.683594 16.3125 C 17.683594 15.90625 17.355469 15.585938 16.957031 15.585938 L 8.984375 15.585938 C 8.578125 15.585938 8.257812 15.914062 8.257812 16.3125 L 8.257812 28.425781 L 5.664062 28.425781 L 5.664062 11.128906 C 6.238281 11.0625 6.757812 10.835938 7.148438 10.492188 C 7.613281 10.90625 8.257812 11.160156 8.976562 11.160156 C 9.699219 11.160156 10.34375 10.90625 10.808594 10.492188 C 11.273438 10.90625 11.917969 11.160156 12.636719 11.160156 C 13.359375 11.160156 14.003906 10.90625 14.46875 10.492188 C 14.933594 10.90625 15.578125 11.160156 16.296875 11.160156 C 16.988281 11.160156 17.617188 10.921875 18.082031 10.539062 C 18.546875 10.980469 19.214844 11.257812 19.964844 11.257812 C 20.683594 11.257812 21.328125 11.003906 21.796875 10.589844 C 22.273438 10.996094 22.921875 11.25 23.640625 11.25 C 24.359375 11.25 25.003906 10.996094 25.46875 10.582031 C 25.933594 10.996094 26.578125 11.25 27.300781 11.25 C 28.019531 11.25 28.664062 10.996094 29.128906 10.582031 C 29.519531 10.925781 30.039062 11.152344 30.613281 11.21875 L 30.613281 28.425781 Z M 17.683594 28.425781 "></path><path style=" stroke:none;fill-rule:nonzero;fill:rgb(36.862745%,55.686275%,24.313725%);fill-opacity:1;" d="M 27.726562 12.890625 L 21.089844 12.890625 C 20.683594 12.890625 20.363281 13.222656 20.363281 13.621094 L 20.363281 20.257812 C 20.363281 20.664062 20.691406 20.984375 21.089844 20.984375 L 27.726562 20.984375 C 28.132812 20.984375 28.453125 20.65625 28.453125 20.257812 L 28.453125 13.621094 C 28.453125 13.214844 28.125 12.890625 27.726562 12.890625 Z M 21.816406 14.355469 L 23.675781 14.355469 L 23.675781 19.53125 L 21.816406 19.53125 Z M 26.992188 19.53125 L 25.132812 19.53125 L 25.132812 14.355469 L 26.992188 14.355469 Z M 26.992188 19.53125 "></path></g></svg> 