<?xml version="1.0" encoding="UTF-8"?> <svg xmlns="http://www.w3.org/2000/svg" xmlns:xlink="http://www.w3.org/1999/xlink" width="36pt" height="30pt" viewBox="0 0 36 30" version="1.1"><g id="surface1"><path style=" stroke:none;fill-rule:nonzero;fill:rgb(60.784314%,36.078431%,56.078431%);fill-opacity:1;" d="M 19.261719 29.203125 C 17.902344 29.203125 16.921875 29.011719 16.640625 28.941406 C 15.59375 28.933594 14.378906 28.410156 12.984375 27.800781 C 10.359375 26.664062 7.378906 25.371094 5.101562 27.546875 C 4.964844 27.683594 4.769531 27.734375 4.582031 27.691406 C 4.394531 27.652344 4.246094 27.515625 4.171875 27.34375 L 1.84375 21.59375 C 1.738281 21.335938 1.835938 21.046875 2.0625 20.894531 C 2.691406 20.484375 8.257812 16.890625 10.164062 16.597656 C 12.824219 16.183594 17.160156 18.488281 18.425781 19.207031 C 19.710938 19.933594 20.902344 20.0625 22.058594 20.191406 C 23.355469 20.332031 24.578125 20.46875 25.695312 21.414062 C 25.777344 21.488281 25.851562 21.554688 25.914062 21.628906 C 27.328125 20.324219 30.953125 17.199219 32.722656 17.4375 C 33.105469 17.488281 33.40625 17.675781 33.609375 17.976562 C 33.878906 18.292969 34.164062 19.011719 34.449219 20.121094 C 34.507812 20.355469 34.410156 20.601562 34.214844 20.738281 C 34.171875 20.765625 29.902344 23.640625 28.214844 25.441406 C 25.289062 28.582031 21.683594 29.203125 19.261719 29.203125 Z M 16.710938 27.800781 C 16.753906 27.800781 16.800781 27.808594 16.84375 27.816406 C 16.90625 27.832031 23.070312 29.273438 27.382812 24.667969 C 28.890625 23.0625 32.167969 20.761719 33.238281 20.03125 C 32.976562 19.085938 32.789062 18.800781 32.753906 18.75 C 32.714844 18.71875 32.691406 18.675781 32.664062 18.636719 C 32.648438 18.613281 32.640625 18.59375 32.566406 18.585938 C 31.484375 18.433594 28.238281 21.015625 26.265625 22.882812 C 26.226562 22.921875 26.191406 22.949219 26.144531 22.972656 C 26.136719 22.988281 26.136719 22.996094 26.128906 23.003906 C 25.34375 24.613281 20.488281 25.449219 19.402344 25.222656 C 18.78125 25.09375 18.21875 24.816406 17.683594 24.546875 C 17.054688 24.234375 16.460938 23.941406 15.921875 23.992188 C 15.601562 24.023438 15.328125 23.789062 15.300781 23.476562 C 15.269531 23.160156 15.503906 22.882812 15.816406 22.851562 C 16.679688 22.769531 17.453125 23.152344 18.195312 23.527344 C 18.691406 23.773438 19.15625 24.007812 19.636719 24.105469 C 20.378906 24.253906 23.574219 23.664062 24.78125 22.808594 C 25.027344 22.636719 25.101562 22.507812 25.101562 22.476562 C 25.101562 22.476562 25.078125 22.410156 24.945312 22.296875 C 24.097656 21.578125 23.09375 21.464844 21.921875 21.335938 C 20.714844 21.203125 19.34375 21.058594 17.851562 20.210938 C 14.78125 18.480469 11.835938 17.503906 10.320312 17.738281 C 9.015625 17.941406 4.964844 20.398438 3.066406 21.609375 L 4.921875 26.191406 C 7.621094 24.238281 10.816406 25.621094 13.417969 26.753906 C 14.671875 27.292969 15.847656 27.808594 16.679688 27.796875 C 16.703125 27.800781 16.703125 27.800781 16.710938 27.800781 Z M 16.710938 27.800781 "></path><path style=" stroke:none;fill-rule:nonzero;fill:rgb(60.784314%,36.078431%,56.078431%);fill-opacity:1;" d="M 6.613281 26.574219 C 6.390625 26.574219 6.179688 26.445312 6.089844 26.226562 L 3.628906 20.496094 C 3.503906 20.203125 3.636719 19.867188 3.929688 19.746094 C 4.222656 19.621094 4.558594 19.753906 4.679688 20.046875 L 7.140625 25.777344 C 7.265625 26.070312 7.132812 26.40625 6.839844 26.527344 C 6.773438 26.558594 6.699219 26.574219 6.613281 26.574219 Z M 6.613281 26.574219 "></path><path style=" stroke:none;fill-rule:nonzero;fill:rgb(60.784314%,36.078431%,56.078431%);fill-opacity:1;" d="M 13.957031 23.941406 C 13.941406 23.941406 13.921875 23.941406 13.90625 23.941406 C 13.898438 23.941406 13.191406 23.871094 12.246094 23.933594 C 11.925781 23.949219 11.664062 23.707031 11.640625 23.390625 C 11.617188 23.078125 11.863281 22.808594 12.179688 22.785156 C 13.214844 22.726562 13.980469 22.792969 14.011719 22.792969 C 14.324219 22.824219 14.558594 23.101562 14.527344 23.414062 C 14.503906 23.714844 14.25 23.941406 13.957031 23.941406 Z M 13.957031 23.941406 "></path><path style=" stroke:none;fill-rule:nonzero;fill:rgb(60.784314%,36.078431%,56.078431%);fill-opacity:1;" d="M 29.691406 16.628906 L 14.363281 16.628906 L 14.363281 5.363281 L 22.042969 0 L 29.683594 5.203125 L 29.683594 16.628906 Z M 15.503906 15.480469 L 28.546875 15.480469 L 28.546875 5.804688 L 22.050781 1.386719 L 15.503906 5.953125 C 15.503906 5.960938 15.503906 15.480469 15.503906 15.480469 Z M 15.503906 15.480469 "></path><path style=" stroke:none;fill-rule:nonzero;fill:rgb(60.784314%,36.078431%,56.078431%);fill-opacity:1;" d="M 27.726562 11.773438 L 28.109375 11.773438 L 28.109375 13.484375 L 27.726562 13.484375 Z M 27.726562 11.773438 "></path><path style=" stroke:none;fill-rule:nonzero;fill:rgb(60.784314%,36.078431%,56.078431%);fill-opacity:1;" d="M 27.726562 13.988281 L 28.109375 13.988281 L 28.109375 14.488281 L 27.726562 14.488281 Z M 27.726562 13.988281 "></path><path style=" stroke:none;fill-rule:nonzero;fill:rgb(60.784314%,36.078431%,56.078431%);fill-opacity:1;" d="M 23.160156 11.992188 L 20.894531 11.992188 L 20.894531 9.277344 L 18.179688 9.277344 L 18.179688 7.011719 L 20.894531 7.011719 L 20.894531 4.296875 L 23.160156 4.296875 L 23.160156 7.011719 L 25.875 7.011719 L 25.875 9.277344 L 23.160156 9.277344 Z M 21.652344 11.226562 L 22.394531 11.226562 L 22.394531 8.511719 L 25.109375 8.511719 L 25.109375 7.777344 L 22.394531 7.777344 L 22.394531 5.0625 L 21.652344 5.0625 L 21.652344 7.777344 L 18.9375 7.777344 L 18.9375 8.511719 L 21.652344 8.511719 Z M 21.652344 11.226562 "></path></g></svg> 