<?xml version="1.0" encoding="UTF-8"?> <svg xmlns="http://www.w3.org/2000/svg" xmlns:xlink="http://www.w3.org/1999/xlink" width="29pt" height="29pt" viewBox="0 0 29 29" version="1.1"><g id="surface1"><path style=" stroke:none;fill-rule:nonzero;fill:rgb(25.098039%,76.862745%,100%);fill-opacity:1;" d="M 28.546875 16.597656 L 28.546875 12.402344 L 26.21875 12.171875 C 26.027344 11.453125 25.726562 10.757812 25.335938 10.113281 L 26.84375 8.3125 L 23.898438 5.367188 L 22.097656 6.839844 C 21.4375 6.46875 20.738281 6.1875 20.003906 5.992188 L 19.808594 3.664062 L 17.386719 3.664062 L 17.386719 3.011719 C 17.386719 1.546875 16.195312 0.355469 14.730469 0.355469 L 3.109375 0.355469 C 1.644531 0.355469 0.453125 1.546875 0.453125 3.011719 L 0.453125 25.996094 C 0.453125 27.460938 1.644531 28.652344 3.109375 28.652344 L 14.730469 28.652344 C 16.195312 28.652344 17.386719 27.460938 17.386719 25.996094 L 17.386719 25.339844 L 19.808594 25.339844 L 20.003906 23.015625 C 20.730469 22.820312 21.4375 22.53125 22.097656 22.167969 L 23.898438 23.640625 L 26.84375 20.695312 L 25.335938 18.894531 C 25.722656 18.246094 26.019531 17.554688 26.21875 16.835938 Z M 17.378906 10.210938 L 17.703125 10.210938 C 20.089844 10.210938 22.023438 12.144531 22.023438 14.53125 C 22.023438 16.917969 20.089844 18.851562 17.703125 18.851562 L 17.378906 18.851562 Z M 16.070312 21.867188 L 1.761719 21.867188 L 1.761719 5.5625 L 16.070312 5.5625 Z M 3.109375 1.664062 L 14.730469 1.664062 C 15.472656 1.664062 16.078125 2.269531 16.078125 3.011719 L 16.078125 4.253906 L 1.761719 4.253906 L 1.761719 3.011719 C 1.761719 2.269531 2.363281 1.664062 3.109375 1.664062 Z M 14.730469 27.335938 L 3.109375 27.335938 C 2.363281 27.335938 1.761719 26.730469 1.761719 25.988281 L 1.761719 23.171875 L 16.070312 23.171875 L 16.070312 25.988281 C 16.070312 26.730469 15.472656 27.335938 14.730469 27.335938 Z M 25.140625 15.578125 L 25.042969 16.070312 C 24.859375 16.96875 24.5 17.824219 23.996094 18.589844 L 23.734375 18.984375 L 25.082031 20.621094 L 23.792969 21.867188 L 22.1875 20.523438 L 21.792969 20.785156 C 21.027344 21.289062 20.171875 21.636719 19.273438 21.832031 L 18.78125 21.929688 L 18.589844 24.023438 L 17.378906 24.023438 L 17.378906 20.097656 L 17.703125 20.097656 C 20.8125 20.097656 23.332031 17.578125 23.332031 14.46875 C 23.332031 11.363281 20.8125 8.839844 17.703125 8.839844 L 17.378906 8.839844 L 17.378906 4.90625 L 18.589844 4.90625 L 18.78125 7.003906 L 19.273438 7.101562 C 20.171875 7.289062 21.027344 7.644531 21.792969 8.148438 L 22.1875 8.410156 L 23.792969 7.070312 L 25.074219 8.3125 L 23.726562 9.949219 L 23.988281 10.34375 C 24.492188 11.109375 24.84375 11.964844 25.035156 12.863281 L 25.132812 13.355469 L 27.230469 13.546875 L 27.230469 15.316406 Z M 25.140625 15.578125 "></path></g></svg> 