<?xml version="1.0" encoding="UTF-8"?> <!-- Generator: Adobe Illustrator 25.1.0, SVG Export Plug-In . SVG Version: 6.00 Build 0) --> <svg xmlns="http://www.w3.org/2000/svg" xmlns:xlink="http://www.w3.org/1999/xlink" version="1.1" id="Layer_1" x="0px" y="0px" viewBox="0 0 30 30" style="enable-background:new 0 0 30 30;" xml:space="preserve"> <style type="text/css"> .st0{fill:#2F3134;} </style> <g id="g967" transform="matrix(3.0313136,0,0,3.0313136,-30.313124,-58.939421)"> <path id="path8" class="st0" d="M12.8,28.8C12.8,28.8,12.8,28.8,12.8,28.8l-2.8-4c0,0,0,0,0,0l2-4.4c0,0,0,0,0,0l4.8-0.4 c0,0,0,0,0,0l2.8,3.9c0,0,0,0,0,0l-2,4.4c0,0,0,0,0,0L12.8,28.8C12.8,28.8,12.8,28.8,12.8,28.8L12.8,28.8z M10.1,24.8l2.8,3.9 l4.7-0.4l2-4.3l-2.8-3.9l-4.7,0.4L10.1,24.8z"></path> <path id="path10" class="st0" d="M12.8,28.8l-0.8-4l0-4.4l3.8,1.1l3.9,2.4l-2.9,2.6L12.8,28.8z M12.1,20.5l0,4.3l0.8,3.9l3.9-2.3 l2.8-2.5l-3.8-2.4L12.1,20.5z"></path> <circle id="circle12" class="st0" cx="15.8" cy="21.6" r="0.1"></circle> <path id="path14" class="st0" d="M15.8,21.9c-0.2,0-0.3-0.1-0.3-0.3c0-0.2,0.1-0.3,0.3-0.3c0.2,0,0.3,0.1,0.3,0.3c0,0,0,0,0,0 C16.1,21.7,16,21.9,15.8,21.9z M15.8,21.6L15.8,21.6C15.8,21.6,15.8,21.6,15.8,21.6L15.8,21.6z"></path> <circle id="circle16" class="st0" cx="16.8" cy="26.5" r="0.1"></circle> <path id="path18" class="st0" d="M16.8,26.8c-0.2,0-0.3-0.1-0.3-0.3c0-0.2,0.1-0.3,0.3-0.3c0.2,0,0.3,0.1,0.3,0.3c0,0,0,0,0,0 C17,26.7,16.9,26.8,16.8,26.8z M16.8,26.5L16.8,26.5C16.7,26.5,16.7,26.5,16.8,26.5L16.8,26.5z"></path> <circle id="circle20" class="st0" cx="12.8" cy="28.8" r="0.1"></circle> <path id="path22" class="st0" d="M12.8,29.1c-0.2,0-0.3-0.1-0.3-0.3c0-0.2,0.1-0.3,0.3-0.3c0.2,0,0.3,0.1,0.3,0.3c0,0,0,0,0,0 C13.1,28.9,13,29.1,12.8,29.1z M12.8,28.8L12.8,28.8C12.8,28.8,12.8,28.8,12.8,28.8L12.8,28.8z"></path> <circle id="circle24" class="st0" cx="12" cy="24.9" r="0.1"></circle> <path id="path26" class="st0" d="M12,25.1c-0.2,0-0.3-0.1-0.3-0.3c0-0.2,0.1-0.3,0.3-0.3c0.2,0,0.3,0.1,0.3,0.3c0,0,0,0,0,0 C12.3,25,12.2,25.1,12,25.1z M12,24.8L12,24.8C12,24.9,12,24.9,12,24.8L12,24.8z"></path> <circle id="circle28" class="st0" cx="19.6" cy="24" r="0.1"></circle> <path id="path30" class="st0" d="M19.6,24.3c-0.2,0-0.3-0.1-0.3-0.3c0-0.2,0.1-0.3,0.3-0.3c0.2,0,0.3,0.1,0.3,0.3c0,0,0,0,0,0 C19.9,24.1,19.8,24.3,19.6,24.3z M19.6,24L19.6,24C19.6,24,19.6,24,19.6,24L19.6,24z"></path> <circle id="circle32" class="st0" cx="12" cy="20.5" r="0.1"></circle> <path id="path34" class="st0" d="M12,20.8c-0.2,0-0.3-0.1-0.3-0.3s0.1-0.3,0.3-0.3c0.2,0,0.3,0.1,0.3,0.3c0,0,0,0,0,0 C12.3,20.6,12.2,20.8,12,20.8z M12,20.5L12,20.5C12,20.5,12,20.5,12,20.5L12,20.5z"></path> <path id="path36" class="st0" d="M17.6,28.4C17.6,28.4,17.6,28.4,17.6,28.4l-3.7-1.3L10,24.9c0,0,0,0,0-0.1c0,0,0,0,0,0l3-2.7 l3.9-2.1c0,0,0,0,0,0c0,0,0,0,0,0l0.9,3.8L17.6,28.4C17.6,28.4,17.6,28.4,17.6,28.4C17.6,28.4,17.6,28.4,17.6,28.4L17.6,28.4z M10.1,24.8L14,27l3.6,1.3l0.1-4.5l-0.9-3.7L13,22.2L10.1,24.8z"></path> <path id="path38" class="st0" d="M16.8,26.5L16.8,26.5L12,24.9l0,0l3.8-3.3L16.8,26.5z M12.1,24.9l4.7,1.6l-0.9-4.9L12.1,24.9z"></path> <path id="path40" class="st0" d="M13.9,27.1l-1-5.1l4.9,1.7L13.9,27.1z M13,22.2L14,27l3.6-3.1L13,22.2z"></path> <rect id="rect42" x="12.5" y="20.3" transform="matrix(0.8718 -0.4898 0.4898 0.8718 -8.8305 8.8525)" class="st0" width="0.1" height="1.9"></rect> <polygon id="polygon44" class="st0" points="13.9,27 14,27.1 12.9,28.8 12.8,28.8 "></polygon> <rect id="rect46" x="18.6" y="22.9" transform="matrix(7.285912e-02 -0.9973 0.9973 7.285912e-02 -6.54 40.7553)" class="st0" width="0.1" height="1.9"></rect> </g> </svg> 