<?xml version="1.0" encoding="UTF-8"?> <svg xmlns="http://www.w3.org/2000/svg" xmlns:xlink="http://www.w3.org/1999/xlink" width="29pt" height="29pt" viewBox="0 0 29 29" version="1.1"><g id="surface1"><path style=" stroke:none;fill-rule:nonzero;fill:rgb(22.352941%,58.039216%,22.352941%);fill-opacity:1;" d="M 26.152344 15.027344 C 26.1875 14.992188 26.234375 14.945312 26.269531 14.910156 C 26.308594 14.871094 26.351562 14.828125 26.390625 14.753906 L 26.425781 14.714844 L 26.464844 14.632812 C 26.5 14.597656 26.5 14.550781 26.5 14.476562 C 26.5 14.441406 26.539062 14.359375 26.539062 14.285156 C 26.539062 14.246094 26.539062 14.164062 26.539062 14.046875 C 26.539062 13.964844 26.539062 13.890625 26.5 13.851562 C 26.5 13.769531 26.464844 13.734375 26.464844 13.695312 L 26.464844 13.578125 L 26.425781 13.496094 C 26.390625 13.457031 26.390625 13.414062 26.308594 13.339844 C 26.269531 13.304688 26.226562 13.257812 26.1875 13.222656 C 26.152344 13.183594 26.109375 13.140625 26.070312 13.101562 L 26.03125 13.066406 L 21.988281 11.027344 L 25.988281 8.597656 C 26.027344 8.558594 26.109375 8.515625 26.144531 8.476562 C 26.183594 8.441406 26.226562 8.394531 26.261719 8.359375 C 26.300781 8.320312 26.34375 8.277344 26.382812 8.203125 L 26.417969 8.164062 L 26.457031 8.082031 C 26.492188 8.046875 26.492188 7.964844 26.492188 7.925781 C 26.492188 7.890625 26.53125 7.808594 26.53125 7.769531 C 26.53125 7.734375 26.53125 7.652344 26.53125 7.53125 C 26.53125 7.449219 26.53125 7.375 26.492188 7.339844 C 26.492188 7.300781 26.457031 7.21875 26.457031 7.183594 L 26.457031 7.101562 L 26.417969 7.019531 C 26.382812 6.980469 26.382812 6.9375 26.300781 6.863281 C 26.261719 6.824219 26.21875 6.78125 26.183594 6.746094 C 26.144531 6.707031 26.101562 6.664062 26.0625 6.625 L 26.027344 6.589844 L 13.59375 0.117188 C 13.554688 0.0820312 13.511719 0.0820312 13.4375 0.0390625 C 13.355469 0.0390625 13.316406 0.0390625 13.28125 0.0390625 C 13.199219 0.0390625 13.125 0 13.042969 0 L 13.003906 0 C 12.96875 0 12.886719 0 12.847656 0 C 12.765625 0 12.691406 0.0390625 12.609375 0.0820312 L 12.535156 0.0820312 L 12.457031 0.117188 C 12.21875 0.273438 1.152344 7.027344 0.566406 7.375 C 0.371094 7.496094 0.214844 7.652344 0.132812 7.808594 C 0.015625 8.046875 -0.0234375 8.277344 0.015625 8.550781 L 0.015625 8.632812 C 0.015625 8.714844 0.0507812 8.828125 0.0976562 8.910156 L 0.214844 9.101562 L 0.289062 9.175781 C 0.328125 9.214844 0.371094 9.257812 0.371094 9.257812 C 0.410156 9.292969 0.453125 9.339844 0.453125 9.339844 L 0.609375 9.421875 C 0.648438 9.457031 1.277344 9.769531 3.984375 11.144531 L 4.609375 11.457031 L 0.609375 13.925781 C 0.417969 14.046875 0.261719 14.203125 0.179688 14.359375 C 0.0585938 14.597656 0.0234375 14.828125 0.0585938 15.066406 L 0.0585938 15.148438 C 0.0585938 15.230469 0.0976562 15.339844 0.140625 15.421875 L 0.253906 15.617188 L 0.289062 15.652344 C 0.328125 15.691406 0.371094 15.734375 0.410156 15.773438 C 0.445312 15.808594 0.492188 15.851562 0.527344 15.890625 L 0.609375 15.925781 C 0.648438 15.964844 4.609375 18.007812 4.609375 18.007812 C 4.609375 18.007812 0.765625 20.367188 0.609375 20.476562 C 0.417969 20.597656 0.261719 20.753906 0.179688 20.910156 C 0.0585938 21.148438 0.0234375 21.378906 0.0585938 21.617188 L 0.0585938 21.699219 C 0.0585938 21.78125 0.0976562 21.890625 0.140625 21.9375 L 0.261719 22.175781 L 0.296875 22.210938 C 0.335938 22.25 0.378906 22.292969 0.417969 22.328125 C 0.453125 22.367188 0.5 22.410156 0.535156 22.410156 L 0.65625 22.492188 C 0.890625 22.613281 12.820312 28.769531 13.09375 28.886719 C 13.132812 28.925781 13.175781 28.925781 13.25 28.925781 C 13.332031 28.960938 13.445312 28.960938 13.527344 29.007812 C 13.5625 29.007812 13.609375 29.007812 13.609375 29.007812 C 13.726562 29.007812 13.84375 29.007812 13.921875 28.96875 L 14.039062 28.933594 C 14.074219 28.933594 14.15625 28.894531 14.230469 28.851562 L 26.085938 21.59375 C 26.121094 21.558594 26.167969 21.511719 26.242188 21.476562 C 26.277344 21.4375 26.324219 21.394531 26.359375 21.355469 C 26.398438 21.320312 26.441406 21.273438 26.480469 21.199219 L 26.515625 21.164062 L 26.554688 21.082031 C 26.589844 21.042969 26.589844 20.960938 26.589844 20.925781 C 26.589844 20.886719 26.628906 20.804688 26.628906 20.730469 C 26.628906 20.648438 26.628906 20.574219 26.628906 20.492188 C 26.628906 20.410156 26.628906 20.335938 26.589844 20.300781 C 26.589844 20.21875 26.554688 20.179688 26.554688 20.144531 L 26.554688 20.070312 L 26.515625 19.988281 C 26.480469 19.949219 26.480469 19.90625 26.398438 19.832031 C 26.359375 19.792969 26.316406 19.75 26.277344 19.710938 C 26.242188 19.675781 26.195312 19.628906 26.160156 19.59375 L 26.003906 19.675781 L 22.003906 17.59375 L 26.003906 15.160156 C 26.03125 15.109375 26.070312 15.074219 26.152344 15.027344 Z M 1.777344 8.753906 L 1.152344 8.441406 L 1.738281 8.089844 C 3.941406 6.707031 11.511719 2.121094 12.847656 1.292969 L 13.042969 1.175781 L 25.402344 7.53125 L 13.554688 14.796875 L 13.363281 14.679688 C 12.023438 14.007812 4.097656 9.925781 1.777344 8.753906 Z M 25.402344 20.679688 L 13.546875 27.9375 L 13.355469 27.816406 C 12.023438 27.148438 4.132812 23.066406 1.777344 21.855469 L 1.152344 21.542969 L 5.824219 18.714844 L 6.015625 18.835938 C 10.292969 21.035156 12.921875 22.40625 13.042969 22.449219 C 13.078125 22.449219 13.125 22.484375 13.160156 22.484375 C 13.242188 22.523438 13.355469 22.523438 13.4375 22.566406 C 13.472656 22.566406 13.628906 22.566406 13.628906 22.566406 C 13.90625 22.566406 14.300781 22.328125 14.300781 22.328125 L 20.8125 18.328125 Z M 13.554688 21.386719 L 13.363281 21.265625 C 12.03125 20.597656 4.105469 16.515625 1.785156 15.339844 L 1.160156 15.027344 L 5.828125 12.164062 L 6.023438 12.285156 C 9.4375 14.046875 12.929688 15.851562 13.050781 15.898438 C 13.085938 15.898438 13.132812 15.933594 13.167969 15.933594 C 13.25 15.972656 13.363281 15.972656 13.445312 16.015625 C 13.480469 16.015625 13.527344 16.015625 13.5625 16.015625 C 13.683594 16.015625 13.800781 16.015625 13.914062 15.980469 L 13.996094 15.941406 C 14.03125 15.941406 14.113281 15.90625 14.1875 15.859375 L 20.820312 11.816406 L 25.410156 14.171875 Z M 13.554688 21.386719 "></path></g></svg> 