<?xml version="1.0" encoding="UTF-8"?> <svg xmlns="http://www.w3.org/2000/svg" xmlns:xlink="http://www.w3.org/1999/xlink" width="29pt" height="29pt" viewBox="0 0 29 29" version="1.1"><g id="surface1"><path style=" stroke:none;fill-rule:nonzero;fill:rgb(93.72549%,26.27451%,20.784314%);fill-opacity:1;" d="M 0.632812 26.414062 C 0.832031 27.253906 1.582031 27.839844 2.453125 27.839844 L 26.5625 27.839844 C 27.429688 27.839844 28.183594 27.253906 28.382812 26.414062 L 28.992188 23.890625 C 29.058594 23.609375 28.851562 23.339844 28.5625 23.339844 L 28.121094 23.339844 L 28.121094 8.707031 C 28.121094 7.777344 27.363281 7.019531 26.433594 7.019531 L 26.203125 7.019531 C 26.203125 6.441406 26.203125 2.082031 26.203125 1.503906 L 2.8125 1.503906 C 2.8125 2.066406 2.8125 -0.542969 2.804688 7.019531 L 2.582031 7.019531 C 1.652344 7.019531 0.890625 7.777344 0.890625 8.707031 L 0.890625 23.339844 L 0.460938 23.339844 C 0.171875 23.339844 -0.0390625 23.609375 0.03125 23.890625 Z M 26.195312 7.910156 L 26.425781 7.910156 C 26.867188 7.910156 27.222656 8.269531 27.222656 8.707031 L 27.222656 23.339844 L 26.195312 23.339844 Z M 3.703125 2.394531 L 25.304688 2.394531 L 25.304688 3.355469 L 11.875 3.355469 L 11.875 4.246094 L 25.304688 4.246094 L 25.304688 5.207031 L 3.703125 5.207031 Z M 3.703125 6.097656 L 25.3125 6.097656 C 25.3125 11.019531 25.3125 15.078125 25.3125 23.339844 C 17.875 23.339844 12.203125 23.339844 3.703125 23.339844 C 3.703125 18.246094 3.703125 13.933594 3.703125 6.097656 Z M 16.878906 24.242188 L 16.871094 24.917969 L 12.121094 24.902344 L 12.121094 24.242188 C 12.128906 24.242188 16.878906 24.242188 16.878906 24.242188 Z M 1.785156 8.707031 C 1.785156 8.269531 2.140625 7.910156 2.582031 7.910156 L 2.8125 7.910156 L 2.8125 23.339844 L 1.785156 23.339844 Z M 11.234375 24.242188 L 11.234375 24.902344 C 11.234375 25.402344 11.644531 25.808594 12.144531 25.808594 L 16.878906 25.808594 C 17.378906 25.808594 17.785156 25.402344 17.785156 24.902344 L 17.785156 24.242188 C 18.085938 24.242188 27.691406 24.234375 27.996094 24.234375 L 27.511719 26.203125 C 27.410156 26.644531 27.015625 26.949219 26.5625 26.949219 L 2.453125 26.949219 C 2 26.949219 1.605469 26.644531 1.503906 26.203125 L 1.027344 24.234375 C 2.066406 24.234375 -2.757812 24.234375 11.234375 24.242188 Z M 11.234375 24.242188 "></path><path style=" stroke:none;fill-rule:nonzero;fill:rgb(93.72549%,26.27451%,20.784314%);fill-opacity:1;" d="M 24.332031 6.988281 L 4.683594 6.988281 L 4.683594 22.449219 L 24.332031 22.449219 Z M 23.4375 21.558594 L 5.578125 21.558594 L 5.578125 7.882812 L 23.4375 7.882812 Z M 23.4375 21.558594 "></path><path style=" stroke:none;fill-rule:nonzero;fill:rgb(93.72549%,26.27451%,20.784314%);fill-opacity:1;" d="M 8.839844 3.355469 L 9.875 3.355469 L 9.875 4.246094 L 8.839844 4.246094 Z M 8.839844 3.355469 "></path><path style=" stroke:none;fill-rule:nonzero;fill:rgb(93.72549%,26.27451%,20.784314%);fill-opacity:1;" d="M 6.78125 3.355469 L 7.816406 3.355469 L 7.816406 4.246094 L 6.78125 4.246094 Z M 6.78125 3.355469 "></path><path style=" stroke:none;fill-rule:nonzero;fill:rgb(93.72549%,26.27451%,20.784314%);fill-opacity:1;" d="M 4.714844 3.355469 L 5.746094 3.355469 L 5.746094 4.246094 L 4.714844 4.246094 Z M 4.714844 3.355469 "></path><path style=" stroke:none;fill-rule:nonzero;fill:rgb(93.72549%,26.27451%,20.784314%);fill-opacity:1;" d="M 9.488281 16.34375 L 12.226562 16.34375 L 12.78125 17.636719 L 14.046875 17.636719 L 11.363281 11.792969 L 10.328125 11.792969 L 7.644531 17.636719 L 8.929688 17.636719 Z M 10.863281 13.175781 L 11.808594 15.371094 L 9.917969 15.371094 Z M 10.863281 13.175781 "></path><path style=" stroke:none;fill-rule:nonzero;fill:rgb(93.72549%,26.27451%,20.784314%);fill-opacity:1;" d="M 15.824219 15.28125 L 17.191406 15.28125 C 18.351562 15.28125 19.238281 14.699219 19.238281 13.539062 C 19.238281 12.375 18.375 11.800781 17.191406 11.800781 L 14.539062 11.800781 L 14.539062 17.644531 L 15.816406 17.644531 C 15.824219 17.636719 15.824219 15.28125 15.824219 15.28125 Z M 15.824219 12.78125 L 17.027344 12.78125 C 17.699219 12.78125 18.03125 13.035156 18.03125 13.546875 C 18.03125 14.054688 17.699219 14.308594 17.027344 14.308594 L 15.824219 14.308594 C 15.824219 14.300781 15.824219 12.78125 15.824219 12.78125 Z M 15.824219 12.78125 "></path><path style=" stroke:none;fill-rule:nonzero;fill:rgb(93.72549%,26.27451%,20.784314%);fill-opacity:1;" d="M 20.085938 11.800781 L 21.363281 11.800781 L 21.363281 17.644531 L 20.085938 17.644531 Z M 20.085938 11.800781 "></path></g></svg> 