<?xml version="1.0" encoding="UTF-8"?> <svg xmlns="http://www.w3.org/2000/svg" xmlns:xlink="http://www.w3.org/1999/xlink" width="29pt" height="29pt" viewBox="0 0 29 29" version="1.1"><g id="surface1"><path style=" stroke:none;fill-rule:nonzero;fill:rgb(25.098039%,76.862745%,100%);fill-opacity:1;" d="M 12.582031 16.070312 L 18.894531 5.128906 C 19.265625 4.484375 19.042969 3.660156 18.394531 3.277344 C 17.75 2.90625 16.925781 3.128906 16.542969 3.777344 L 10.230469 14.722656 C 9.859375 15.371094 10.082031 16.195312 10.730469 16.574219 C 11.375 16.945312 12.203125 16.722656 12.582031 16.070312 Z M 11.183594 15.785156 C 10.96875 15.660156 10.894531 15.386719 11.011719 15.167969 L 17.324219 4.238281 C 17.453125 4.023438 17.726562 3.949219 17.941406 4.074219 C 18.160156 4.203125 18.234375 4.476562 18.105469 4.691406 L 11.792969 15.628906 C 11.675781 15.839844 11.398438 15.914062 11.183594 15.785156 C 11.183594 15.792969 11.183594 15.792969 11.183594 15.785156 Z M 11.183594 15.785156 "></path><path style=" stroke:none;fill-rule:nonzero;fill:rgb(25.098039%,76.862745%,100%);fill-opacity:1;" d="M 19.230469 13.472656 C 19.496094 14.226562 20.328125 14.617188 21.082031 14.351562 C 21.238281 14.292969 21.386719 14.210938 21.511719 14.105469 L 25.347656 10.945312 C 25.929688 10.46875 26.011719 9.621094 25.535156 9.042969 C 25.476562 8.976562 25.414062 8.910156 25.347656 8.855469 L 21.511719 5.71875 C 20.886719 5.210938 19.972656 5.300781 19.46875 5.925781 C 18.960938 6.550781 19.050781 7.464844 19.675781 7.972656 L 22.046875 9.917969 L 19.675781 11.851562 C 19.199219 12.246094 19.019531 12.894531 19.230469 13.472656 Z M 20.246094 12.574219 L 23.042969 10.285156 C 23.238281 10.128906 23.257812 9.835938 23.101562 9.652344 C 23.089844 9.628906 23.066406 9.605469 23.042969 9.59375 L 20.246094 7.289062 C 20.015625 7.09375 19.980469 6.746094 20.171875 6.515625 C 20.277344 6.386719 20.433594 6.3125 20.597656 6.3125 C 20.722656 6.3125 20.851562 6.359375 20.945312 6.441406 L 24.777344 9.601562 C 24.96875 9.757812 24.992188 10.046875 24.835938 10.230469 C 24.820312 10.253906 24.796875 10.277344 24.777344 10.292969 L 20.945312 13.453125 C 20.851562 13.527344 20.722656 13.570312 20.597656 13.570312 C 20.292969 13.570312 20.046875 13.316406 20.046875 13.019531 C 20.046875 12.855469 20.121094 12.699219 20.246094 12.597656 Z M 20.246094 12.574219 "></path><path style=" stroke:none;fill-rule:nonzero;fill:rgb(25.098039%,76.862745%,100%);fill-opacity:1;" d="M 9.449219 7.984375 C 10.066406 7.480469 10.164062 6.566406 9.652344 5.941406 C 9.375 5.605469 8.976562 5.414062 8.542969 5.414062 C 8.214844 5.421875 7.898438 5.53125 7.644531 5.742188 L 3.816406 8.902344 C 3.234375 9.375 3.152344 10.222656 3.628906 10.804688 C 3.6875 10.871094 3.746094 10.9375 3.816406 10.992188 L 7.644531 14.152344 C 7.898438 14.359375 8.214844 14.476562 8.542969 14.476562 C 9.347656 14.46875 9.988281 13.808594 9.980469 13.003906 C 9.972656 12.574219 9.777344 12.171875 9.449219 11.898438 L 7.078125 9.917969 Z M 8.878906 7.289062 L 6.082031 9.578125 C 5.890625 9.734375 5.867188 10.023438 6.023438 10.210938 C 6.039062 10.230469 6.058594 10.253906 6.082031 10.269531 L 8.878906 12.558594 C 9.109375 12.753906 9.144531 13.101562 8.953125 13.332031 C 8.847656 13.457031 8.691406 13.535156 8.527344 13.535156 C 8.402344 13.535156 8.277344 13.488281 8.179688 13.40625 L 4.34375 10.269531 C 4.148438 10.113281 4.125 9.824219 4.28125 9.636719 C 4.296875 9.613281 4.320312 9.59375 4.34375 9.578125 L 8.179688 6.417969 C 8.277344 6.34375 8.402344 6.296875 8.527344 6.296875 C 8.832031 6.296875 9.078125 6.550781 9.078125 6.847656 C 9.078125 7.011719 9.003906 7.167969 8.878906 7.273438 Z M 8.878906 7.289062 "></path><path style=" stroke:none;fill-rule:nonzero;fill:rgb(25.098039%,76.862745%,100%);fill-opacity:1;" d="M 28.546875 19.398438 L 27.648438 19.398438 L 27.648438 1.351562 C 27.648438 0.601562 27.042969 0 26.292969 0 L 2.832031 0 C 2.089844 0 1.480469 0.601562 1.480469 1.351562 L 1.480469 19.398438 L 0.578125 19.398438 C 0.328125 19.398438 0.125 19.601562 0.125 19.855469 L 0.125 20.753906 C 0.125 22.003906 1.136719 23.007812 2.378906 23.007812 L 26.738281 23.007812 C 27.988281 23.007812 28.992188 21.996094 28.992188 20.753906 L 28.992188 19.855469 C 29 19.601562 28.800781 19.398438 28.546875 19.398438 Z M 2.386719 1.351562 C 2.386719 1.101562 2.585938 0.898438 2.839844 0.898438 L 26.300781 0.898438 C 26.554688 0.898438 26.753906 1.101562 26.753906 1.351562 L 26.753906 19.398438 L 16.820312 19.398438 C 16.648438 19.398438 16.492188 19.496094 16.417969 19.644531 L 16.089844 20.308594 L 13.027344 20.308594 L 12.714844 19.660156 C 12.640625 19.503906 12.484375 19.398438 12.304688 19.398438 L 2.386719 19.398438 Z M 28.101562 20.753906 C 28.101562 21.503906 27.496094 22.105469 26.746094 22.105469 L 2.386719 22.105469 C 1.636719 22.105469 1.035156 21.503906 1.035156 20.753906 L 1.035156 20.300781 L 12.03125 20.300781 L 12.34375 20.945312 C 12.417969 21.109375 12.589844 21.207031 12.765625 21.207031 L 16.375 21.207031 C 16.542969 21.207031 16.699219 21.109375 16.773438 20.960938 L 17.117188 20.300781 L 28.109375 20.300781 L 28.109375 20.753906 Z M 28.101562 20.753906 "></path></g></svg> 