<?xml version="1.0" encoding="UTF-8"?> <svg xmlns="http://www.w3.org/2000/svg" xmlns:xlink="http://www.w3.org/1999/xlink" width="29pt" height="29pt" viewBox="0 0 29 29" version="1.1"><g id="surface1"><path style=" stroke:none;fill-rule:nonzero;fill:rgb(100%,25.098039%,50.588235%);fill-opacity:1;" d="M 1.074219 0 C 0.492188 0 0.00390625 0.484375 0.00390625 1.0625 L 0.00390625 23.050781 C 0.00390625 23.511719 0.300781 23.722656 0.492188 23.855469 C 0.6875 23.996094 0.863281 24.070312 0.863281 24.070312 C 0.929688 24.101562 1 24.113281 1.074219 24.113281 L 18.488281 24.113281 C 18.761719 24.121094 18.992188 23.898438 19 23.625 C 19.007812 23.347656 18.785156 23.117188 18.511719 23.109375 C 18.503906 23.109375 18.496094 23.109375 18.488281 23.109375 L 1.207031 23.109375 C 1.167969 23.089844 1.140625 23.082031 1.082031 23.035156 C 0.992188 22.96875 1.007812 22.894531 1.007812 23.042969 L 1.007812 5.109375 L 23.625 5.109375 L 23.625 9.226562 C 23.632812 9.503906 23.863281 9.726562 24.140625 9.71875 C 24.40625 9.710938 24.621094 9.496094 24.628906 9.226562 L 24.628906 4.648438 C 24.628906 4.617188 24.628906 4.597656 24.628906 4.566406 L 24.628906 1.0625 C 24.628906 0.996094 24.613281 0.921875 24.59375 0.863281 C 24.59375 0.863281 24.511719 0.683594 24.378906 0.492188 C 24.234375 0.296875 24.027344 0 23.574219 0 Z M 1.066406 1.003906 L 23.566406 1.003906 C 23.417969 1.003906 23.492188 0.980469 23.558594 1.078125 C 23.597656 1.128906 23.605469 1.152344 23.625 1.191406 L 23.625 4.105469 L 1.007812 4.105469 L 1.007812 1.0625 C 1.007812 1.027344 1.027344 1.003906 1.066406 1.003906 Z M 16.636719 2.050781 C 16.359375 2.066406 16.144531 2.304688 16.160156 2.582031 C 16.175781 2.855469 16.414062 3.070312 16.6875 3.054688 L 18.226562 3.054688 C 18.503906 3.054688 18.734375 2.832031 18.734375 2.550781 C 18.734375 2.277344 18.511719 2.046875 18.226562 2.046875 L 16.6875 2.046875 C 16.664062 2.050781 16.652344 2.050781 16.636719 2.050781 Z M 20.488281 2.050781 C 20.214844 2.066406 19.996094 2.304688 20.011719 2.582031 C 20.027344 2.855469 20.265625 3.070312 20.539062 3.054688 L 22.078125 3.054688 C 22.355469 3.054688 22.585938 2.832031 22.585938 2.550781 C 22.585938 2.277344 22.363281 2.046875 22.078125 2.046875 L 20.539062 2.046875 C 20.519531 2.050781 20.503906 2.050781 20.488281 2.050781 Z M 12.308594 7.703125 C 12.183594 7.703125 12.054688 7.757812 11.964844 7.84375 L 9.90625 9.90625 C 9.707031 10.097656 9.699219 10.417969 9.890625 10.617188 C 10.085938 10.820312 10.40625 10.828125 10.605469 10.632812 C 10.613281 10.625 10.613281 10.625 10.621094 10.617188 L 11.816406 9.421875 L 11.816406 16.9375 C 11.824219 17.214844 12.054688 17.4375 12.332031 17.429688 C 12.597656 17.421875 12.8125 17.207031 12.820312 16.9375 L 12.820312 9.421875 L 14.019531 10.613281 C 14.195312 10.820312 14.515625 10.847656 14.726562 10.664062 C 14.933594 10.484375 14.964844 10.164062 14.777344 9.957031 C 14.761719 9.933594 14.738281 9.917969 14.726562 9.90625 L 12.671875 7.84375 C 12.578125 7.757812 12.441406 7.703125 12.308594 7.703125 Z M 24.132812 11.304688 C 21.445312 11.304688 19.261719 13.488281 19.261719 16.171875 C 19.261719 17.4375 19.75 18.589844 20.546875 19.460938 C 20.546875 19.476562 20.546875 19.496094 20.546875 19.511719 L 20.546875 27.734375 C 20.546875 28.011719 20.769531 28.242188 21.054688 28.242188 C 21.1875 28.242188 21.3125 28.191406 21.410156 28.09375 L 24.140625 25.363281 L 26.867188 28.09375 C 27.070312 28.285156 27.382812 28.285156 27.582031 28.09375 C 27.671875 27.996094 27.730469 27.878906 27.730469 27.742188 L 27.730469 19.519531 C 27.730469 19.503906 27.730469 19.480469 27.730469 19.46875 C 28.527344 18.597656 29.015625 17.445312 29.015625 16.179688 C 29.003906 13.480469 26.816406 11.304688 24.132812 11.304688 Z M 10.257812 11.800781 C 9.980469 11.808594 9.757812 12.03125 9.765625 12.3125 L 9.765625 13.851562 C 9.742188 14.128906 9.953125 14.375 10.226562 14.394531 C 10.5 14.417969 10.746094 14.210938 10.769531 13.933594 C 10.769531 13.90625 10.769531 13.882812 10.769531 13.851562 L 10.769531 12.3125 C 10.777344 12.039062 10.554688 11.808594 10.277344 11.800781 C 10.261719 11.800781 10.261719 11.800781 10.257812 11.800781 Z M 24.132812 12.308594 C 26.273438 12.308594 27.992188 14.03125 27.992188 16.164062 C 27.992188 18.308594 26.265625 20.03125 24.132812 20.03125 C 21.996094 20.03125 20.273438 18.308594 20.273438 16.164062 C 20.273438 14.023438 21.988281 12.308594 24.132812 12.308594 Z M 24.148438 13.59375 C 23.953125 13.59375 23.773438 13.699219 23.683594 13.875 L 23.128906 15 L 21.886719 15.175781 C 21.609375 15.214844 21.417969 15.46875 21.453125 15.742188 C 21.46875 15.855469 21.523438 15.957031 21.601562 16.03125 L 22.503906 16.910156 L 22.289062 18.144531 C 22.242188 18.417969 22.421875 18.679688 22.695312 18.722656 C 22.808594 18.746094 22.914062 18.722656 23.015625 18.671875 L 24.132812 18.09375 L 25.238281 18.6875 C 25.484375 18.8125 25.789062 18.722656 25.917969 18.480469 C 25.96875 18.382812 25.984375 18.269531 25.96875 18.160156 L 25.761719 16.917969 L 26.660156 16.039062 C 26.859375 15.847656 26.859375 15.527344 26.667969 15.324219 C 26.59375 15.25 26.488281 15.199219 26.382812 15.183594 L 25.144531 15 L 24.59375 13.867188 C 24.519531 13.710938 24.371094 13.609375 24.199219 13.59375 C 24.175781 13.59375 24.160156 13.59375 24.148438 13.59375 Z M 14.367188 13.859375 C 14.09375 13.859375 13.871094 14.089844 13.871094 14.367188 L 13.871094 15.90625 C 13.878906 16.179688 14.109375 16.402344 14.382812 16.398438 C 14.652344 16.390625 14.867188 16.171875 14.875 15.90625 L 14.875 14.367188 C 14.875 14.089844 14.660156 13.859375 14.375 13.859375 C 14.375 13.859375 14.367188 13.859375 14.367188 13.859375 Z M 24.132812 15.238281 L 24.347656 15.691406 C 24.421875 15.839844 24.5625 15.941406 24.726562 15.964844 L 25.226562 16.039062 L 24.867188 16.390625 C 24.75 16.5 24.6875 16.671875 24.71875 16.835938 L 24.800781 17.332031 L 24.355469 17.09375 C 24.207031 17.019531 24.035156 17.015625 23.886719 17.09375 L 23.441406 17.324219 L 23.53125 16.835938 C 23.558594 16.671875 23.507812 16.507812 23.386719 16.390625 L 23.03125 16.039062 L 23.53125 15.972656 C 23.691406 15.949219 23.835938 15.847656 23.910156 15.699219 Z M 10.777344 17.972656 C 10.5 17.980469 10.277344 18.210938 10.285156 18.484375 C 10.292969 18.753906 10.507812 18.96875 10.777344 18.976562 L 13.855469 18.976562 C 14.128906 18.984375 14.359375 18.761719 14.367188 18.484375 C 14.375 18.210938 14.152344 17.980469 13.878906 17.972656 C 13.871094 17.972656 13.863281 17.972656 13.855469 17.972656 Z M 10.210938 20.03125 C 9.9375 20.054688 9.726562 20.292969 9.742188 20.574219 C 9.765625 20.84375 9.988281 21.050781 10.261719 21.042969 L 14.375 21.042969 C 14.652344 21.050781 14.882812 20.828125 14.890625 20.554688 C 14.894531 20.277344 14.671875 20.046875 14.398438 20.039062 C 14.390625 20.039062 14.382812 20.039062 14.375 20.039062 L 10.261719 20.039062 C 10.25 20.03125 10.226562 20.03125 10.210938 20.03125 Z M 21.550781 20.292969 C 22.300781 20.761719 23.1875 21.042969 24.132812 21.042969 C 25.074219 21.042969 25.960938 20.769531 26.710938 20.292969 L 26.710938 26.507812 L 24.488281 24.285156 C 24.296875 24.09375 23.976562 24.085938 23.773438 24.285156 L 21.550781 26.507812 Z M 21.550781 20.292969 "></path></g></svg> 