<?xml version="1.0" encoding="UTF-8"?> <svg xmlns="http://www.w3.org/2000/svg" xmlns:xlink="http://www.w3.org/1999/xlink" width="29pt" height="29pt" viewBox="0 0 29 29" version="1.1"><g id="surface1"><path style=" stroke:none;fill-rule:nonzero;fill:rgb(99.607843%,85.098039%,29.411765%);fill-opacity:1;" d="M 0 22.828125 C 0 15.785156 0 8.753906 0 1.710938 C 0.015625 1.660156 0.0390625 1.605469 0.0507812 1.546875 C 0.269531 0.617188 0.996094 0.03125 1.949219 0.03125 C 10.0625 0.03125 18.179688 0.03125 26.292969 0.03125 C 27.214844 0.03125 27.964844 0.648438 28.167969 1.546875 C 28.183594 1.597656 28.195312 1.660156 28.21875 1.710938 C 28.21875 8.730469 28.21875 15.757812 28.21875 22.777344 C 28.203125 22.820312 28.183594 22.867188 28.175781 22.917969 C 27.929688 24.425781 26.738281 25.4375 25.207031 25.445312 C 24.226562 25.445312 23.253906 25.484375 22.277344 25.429688 C 21.707031 25.402344 21.273438 25.535156 20.984375 26.03125 C 20.953125 26.085938 20.910156 26.121094 20.863281 26.160156 C 20.398438 26.636719 19.71875 26.753906 19.117188 26.457031 C 18.933594 26.367188 18.761719 26.257812 18.566406 26.175781 C 18.484375 26.136719 18.367188 26.136719 18.285156 26.175781 C 17.652344 26.449219 17.027344 26.726562 16.402344 27.015625 C 16.320312 27.050781 16.238281 27.140625 16.21875 27.222656 C 16.144531 27.445312 16.105469 27.683594 16.03125 27.914062 C 15.832031 28.5625 15.273438 28.984375 14.605469 28.992188 C 14.269531 29 13.933594 29 13.59375 29 C 12.878906 28.992188 12.320312 28.5625 12.128906 27.871094 C 12.070312 27.660156 12.023438 27.453125 11.980469 27.246094 C 11.949219 27.097656 11.875 27.035156 11.742188 26.976562 C 11.234375 26.769531 10.691406 26.605469 10.238281 26.308594 C 9.792969 26.011719 9.457031 26.027344 9.011719 26.285156 C 8.351562 26.671875 7.628906 26.492188 7.132812 25.914062 C 7.050781 25.816406 6.960938 25.734375 6.894531 25.632812 C 6.796875 25.492188 6.671875 25.445312 6.5 25.445312 C 5.300781 25.453125 4.097656 25.460938 2.898438 25.445312 C 1.554688 25.429688 0.417969 24.507812 0.0976562 23.199219 C 0.0664062 23.074219 0.03125 22.945312 0 22.828125 Z M 6.105469 24.0625 C 6.164062 23.863281 6.203125 23.675781 6.285156 23.503906 C 6.363281 23.332031 6.460938 23.164062 6.59375 23.035156 C 6.847656 22.785156 6.894531 22.53125 6.714844 22.210938 C 6.59375 21.980469 6.601562 21.644531 6.433594 21.488281 C 6.253906 21.324219 5.925781 21.332031 5.671875 21.25 C 5.0625 21.058594 4.675781 20.640625 4.59375 20.011719 C 4.542969 19.617188 4.558594 19.207031 4.566406 18.804688 C 4.574219 18.003906 5.035156 17.378906 5.824219 17.230469 C 6.285156 17.140625 6.574219 16.976562 6.65625 16.484375 C 6.699219 16.226562 6.9375 15.972656 6.914062 15.734375 C 6.894531 15.496094 6.648438 15.28125 6.5 15.050781 C 6.148438 14.484375 6.171875 13.769531 6.582031 13.25 C 6.820312 12.945312 7.070312 12.65625 7.339844 12.375 C 7.679688 12.007812 8.121094 11.824219 8.609375 11.933594 C 8.960938 12.015625 9.292969 12.195312 9.621094 12.359375 C 9.769531 12.433594 9.867188 12.441406 10.023438 12.359375 C 10.433594 12.128906 10.839844 11.867188 11.28125 11.742188 C 11.832031 11.585938 12.074219 11.289062 12.164062 10.730469 C 12.285156 10.007812 12.910156 9.5625 13.636719 9.554688 C 13.964844 9.546875 14.292969 9.546875 14.625 9.554688 C 15.332031 9.570312 15.90625 10.007812 16.089844 10.691406 C 16.144531 10.894531 16.203125 11.085938 16.234375 11.289062 C 16.253906 11.4375 16.335938 11.496094 16.46875 11.554688 C 16.945312 11.742188 17.40625 11.941406 17.867188 12.15625 C 18.105469 12.269531 18.320312 12.523438 18.546875 12.53125 C 18.78125 12.535156 19.027344 12.320312 19.273438 12.203125 C 19.785156 11.964844 20.328125 11.941406 20.738281 12.3125 C 21.199219 12.730469 21.632812 13.222656 21.9375 13.765625 C 22.277344 14.367188 22.0625 14.984375 21.617188 15.496094 C 21.386719 15.765625 21.320312 16.003906 21.496094 16.328125 C 21.625 16.550781 21.609375 16.894531 21.78125 17.050781 C 21.957031 17.214844 22.285156 17.207031 22.539062 17.289062 C 23.15625 17.488281 23.550781 17.914062 23.625 18.558594 C 23.675781 19.011719 23.675781 19.480469 23.640625 19.9375 C 23.578125 20.664062 23.117188 21.15625 22.410156 21.324219 C 22.253906 21.363281 22.085938 21.386719 21.9375 21.453125 C 21.847656 21.488281 21.75 21.570312 21.707031 21.660156 C 21.558594 21.988281 21.429688 22.328125 21.3125 22.671875 C 21.28125 22.753906 21.296875 22.878906 21.339844 22.953125 C 21.558594 23.328125 21.789062 23.691406 22.039062 24.101562 C 23.027344 24.101562 24.085938 24.101562 25.148438 24.101562 C 26.195312 24.101562 26.835938 23.460938 26.835938 22.410156 C 26.835938 17.125 26.835938 11.839844 26.835938 6.550781 C 26.835938 6.460938 26.835938 6.378906 26.835938 6.296875 C 18.328125 6.296875 9.851562 6.296875 1.375 6.296875 C 1.375 6.359375 1.367188 6.394531 1.367188 6.441406 C 1.367188 11.808594 1.367188 17.175781 1.367188 22.546875 C 1.367188 23.429688 2.050781 24.09375 2.9375 24.105469 C 3.488281 24.113281 4.039062 24.105469 4.589844 24.105469 C 5.109375 24.0625 5.605469 24.0625 6.105469 24.0625 Z M 9.777344 24.464844 C 9.917969 24.523438 10.066406 24.5625 10.179688 24.640625 C 10.929688 25.199219 11.75 25.59375 12.65625 25.808594 C 12.976562 25.882812 13.160156 26.09375 13.226562 26.417969 C 13.296875 26.738281 13.371094 27.058594 13.4375 27.378906 C 13.464844 27.542969 13.546875 27.617188 13.726562 27.609375 C 13.980469 27.601562 14.238281 27.59375 14.492188 27.609375 C 14.679688 27.617188 14.761719 27.527344 14.796875 27.363281 C 14.871094 27.050781 14.953125 26.746094 15.019531 26.425781 C 15.09375 26.078125 15.304688 25.863281 15.652344 25.78125 C 16.484375 25.578125 17.242188 25.222656 17.933594 24.71875 C 18.203125 24.523438 18.472656 24.5 18.761719 24.664062 C 19.042969 24.828125 19.339844 24.976562 19.625 25.140625 C 19.773438 25.222656 19.875 25.207031 19.988281 25.082031 C 20.160156 24.878906 20.335938 24.6875 20.523438 24.5 C 20.640625 24.382812 20.640625 24.269531 20.546875 24.128906 C 20.335938 23.832031 20.136719 23.535156 19.941406 23.230469 C 19.78125 22.992188 19.792969 22.746094 19.898438 22.480469 C 20.121094 21.898438 20.34375 21.320312 20.546875 20.730469 C 20.640625 20.449219 20.796875 20.261719 21.09375 20.195312 C 21.429688 20.113281 21.765625 20.023438 22.097656 19.941406 C 22.25 19.90625 22.324219 19.839844 22.324219 19.675781 C 22.316406 19.394531 22.316406 19.117188 22.324219 18.835938 C 22.324219 18.679688 22.261719 18.597656 22.105469 18.558594 C 21.789062 18.492188 21.46875 18.402344 21.148438 18.328125 C 20.8125 18.253906 20.640625 18.039062 20.539062 17.71875 C 20.375 17.199219 20.1875 16.679688 19.980469 16.171875 C 19.855469 15.867188 19.859375 15.609375 20.046875 15.339844 C 20.242188 15.074219 20.410156 14.796875 20.605469 14.53125 C 20.703125 14.394531 20.703125 14.285156 20.589844 14.15625 C 20.410156 13.964844 20.246094 13.757812 20.085938 13.546875 C 19.980469 13.40625 19.867188 13.40625 19.71875 13.480469 C 19.445312 13.628906 19.164062 13.757812 18.886719 13.914062 C 18.558594 14.097656 18.269531 14.070312 17.972656 13.84375 C 17.265625 13.308594 16.46875 12.929688 15.609375 12.730469 C 15.265625 12.648438 15.074219 12.441406 15 12.097656 C 14.929688 11.777344 14.855469 11.457031 14.789062 11.140625 C 14.761719 10.976562 14.671875 10.902344 14.5 10.910156 C 14.246094 10.914062 13.988281 10.914062 13.734375 10.910156 C 13.554688 10.902344 13.464844 10.976562 13.429688 11.144531 C 13.363281 11.472656 13.273438 11.800781 13.199219 12.128906 C 13.125 12.441406 12.9375 12.625 12.625 12.699219 C 11.785156 12.894531 11.011719 13.242188 10.3125 13.757812 C 10.03125 13.964844 9.75 13.980469 9.445312 13.800781 C 9.160156 13.636719 8.863281 13.496094 8.574219 13.332031 C 8.433594 13.257812 8.335938 13.273438 8.230469 13.390625 C 8.058594 13.601562 7.882812 13.808594 7.695312 14.007812 C 7.597656 14.121094 7.59375 14.21875 7.679688 14.335938 C 7.875 14.613281 8.054688 14.894531 8.253906 15.167969 C 8.460938 15.460938 8.460938 15.742188 8.320312 16.070312 C 8.089844 16.613281 7.890625 17.167969 7.703125 17.726562 C 7.597656 18.039062 7.429688 18.242188 7.109375 18.316406 C 6.789062 18.390625 6.46875 18.476562 6.148438 18.546875 C 5.976562 18.582031 5.917969 18.671875 5.925781 18.835938 C 5.933594 19.09375 5.933594 19.363281 5.925781 19.625 C 5.917969 19.792969 5.984375 19.875 6.148438 19.921875 C 6.484375 20.003906 6.820312 20.089844 7.152344 20.171875 C 7.457031 20.246094 7.613281 20.441406 7.703125 20.738281 C 7.875 21.273438 8.066406 21.808594 8.285156 22.328125 C 8.417969 22.65625 8.402344 22.933594 8.195312 23.207031 C 8 23.460938 7.824219 23.726562 7.621094 23.980469 C 7.523438 24.105469 7.523438 24.210938 7.628906 24.332031 C 7.808594 24.539062 7.980469 24.746094 8.148438 24.953125 C 8.246094 25.082031 8.351562 25.097656 8.492188 25.023438 C 8.78125 24.867188 9.070312 24.71875 9.371094 24.574219 C 9.496094 24.546875 9.628906 24.515625 9.777344 24.464844 Z M 26.878906 4.839844 C 26.878906 3.910156 26.878906 3.011719 26.878906 2.105469 C 26.878906 1.613281 26.6875 1.421875 26.195312 1.421875 C 24.269531 1.421875 22.351562 1.421875 20.425781 1.421875 C 14.308594 1.421875 8.179688 1.421875 2.058594 1.421875 C 1.554688 1.421875 1.375 1.597656 1.375 2.097656 C 1.375 2.929688 1.375 3.753906 1.375 4.589844 C 1.375 4.667969 1.382812 4.742188 1.390625 4.839844 C 9.867188 4.839844 18.34375 4.839844 26.878906 4.839844 Z M 26.878906 4.839844 "></path><path style=" stroke:none;fill-rule:nonzero;fill:rgb(99.607843%,85.098039%,29.411765%);fill-opacity:1;" d="M 18.015625 19.25 C 18.015625 21.207031 16.476562 22.777344 14.558594 22.777344 C 12.65625 22.777344 11.109375 21.207031 11.101562 19.265625 C 11.09375 17.316406 12.648438 15.726562 14.550781 15.71875 C 16.464844 15.71875 18.007812 17.304688 18.015625 19.25 Z M 12.46875 19.242188 C 12.460938 20.433594 13.390625 21.386719 14.542969 21.394531 C 15.710938 21.402344 16.664062 20.433594 16.664062 19.25 C 16.664062 18.078125 15.71875 17.109375 14.566406 17.109375 C 13.414062 17.101562 12.476562 18.0625 12.46875 19.242188 Z M 12.46875 19.242188 "></path><path style=" stroke:none;fill-rule:nonzero;fill:rgb(99.607843%,85.098039%,29.411765%);fill-opacity:1;" d="M 8.855469 2.4375 C 10.597656 2.4375 12.34375 2.4375 14.082031 2.4375 C 14.515625 2.4375 14.804688 2.707031 14.8125 3.101562 C 14.828125 3.480469 14.558594 3.785156 14.179688 3.820312 C 14.105469 3.828125 14.03125 3.828125 13.957031 3.828125 C 10.558594 3.828125 7.167969 3.828125 3.769531 3.828125 C 3.703125 3.828125 3.636719 3.828125 3.570312 3.828125 C 3.183594 3.800781 2.898438 3.488281 2.914062 3.109375 C 2.929688 2.738281 3.21875 2.445312 3.597656 2.445312 C 4.742188 2.4375 5.882812 2.445312 7.027344 2.445312 C 7.636719 2.4375 8.246094 2.4375 8.855469 2.4375 Z M 8.855469 2.4375 "></path><path style=" stroke:none;fill-rule:nonzero;fill:rgb(99.607843%,85.098039%,29.411765%);fill-opacity:1;" d="M 23.066406 3.117188 C 23.074219 3.480469 22.777344 3.800781 22.410156 3.816406 C 22.054688 3.820312 21.742188 3.523438 21.726562 3.152344 C 21.710938 2.773438 22.019531 2.453125 22.398438 2.445312 C 22.761719 2.445312 23.058594 2.742188 23.066406 3.117188 Z M 23.066406 3.117188 "></path><path style=" stroke:none;fill-rule:nonzero;fill:rgb(99.607843%,85.098039%,29.411765%);fill-opacity:1;" d="M 20.582031 3.128906 C 20.582031 3.507812 20.285156 3.816406 19.921875 3.816406 C 19.5625 3.816406 19.25 3.507812 19.242188 3.136719 C 19.238281 2.757812 19.550781 2.445312 19.929688 2.445312 C 20.300781 2.453125 20.582031 2.75 20.582031 3.128906 Z M 20.582031 3.128906 "></path><path style=" stroke:none;fill-rule:nonzero;fill:rgb(99.607843%,85.098039%,29.411765%);fill-opacity:1;" d="M 24.867188 2.445312 C 25.230469 2.445312 25.535156 2.742188 25.542969 3.117188 C 25.550781 3.488281 25.230469 3.816406 24.867188 3.816406 C 24.5 3.808594 24.203125 3.503906 24.203125 3.128906 C 24.210938 2.75 24.492188 2.453125 24.867188 2.445312 Z M 24.867188 2.445312 "></path></g></svg> 