<?xml version="1.0" encoding="UTF-8"?> <!-- Generator: Adobe Illustrator 25.1.0, SVG Export Plug-In . SVG Version: 6.00 Build 0) --> <svg xmlns="http://www.w3.org/2000/svg" xmlns:xlink="http://www.w3.org/1999/xlink" version="1.1" id="Layer_1" x="0px" y="0px" viewBox="0 0 30 30" style="enable-background:new 0 0 30 30;" xml:space="preserve"> <style type="text/css"> .st0{fill:url(#SVGID_1_);} .st1{fill:#FF7F18;} </style> <g> <radialGradient id="SVGID_1_" cx="-192.0568" cy="-292.646" r="9.119985e-03" gradientTransform="matrix(2291.6716 0 0 -2218.7549 440141.4688 -649302.375)" gradientUnits="userSpaceOnUse"> <stop offset="0" style="stop-color:#423325;stop-opacity:0.98"></stop> <stop offset="1" style="stop-color:#1C0A00"></stop> </radialGradient> <path class="st0" d="M1.2,1.3h27.5v26.8H1.2V1.3z"></path> <path class="st1" d="M1.2,1.3h27.5v26.8H1.2V1.3z M0,29.3h30V0.1H0V29.3z M19.6,10.5c0-0.1,0-0.2,0.2-0.2h2c0.1,0,0.1,0,0.1,0.2 v9.9c0,0.1,0,0.1-0.1,0.1h-1.9c-0.1,0-0.2-0.1-0.2-0.2L19.6,10.5L19.6,10.5L19.6,10.5z M19.5,7.7c0-0.8,0.6-1.3,1.3-1.3 c0.8,0,1.3,0.5,1.3,1.3c0,0.8-0.5,1.3-1.3,1.3C20,8.9,19.5,8.5,19.5,7.7z M13.9,14.6c-0.3-1.4-1.2-4.4-1.5-5.9h0 c-0.3,1.5-0.9,3.9-1.4,5.9H13.9z M10.4,16.6l-1,3.8c0,0.1-0.1,0.1-0.2,0.1H7.4c-0.1,0-0.2,0-0.1-0.2l3.5-12.4 c0.1-0.2,0.1-0.4,0.1-1c0-0.1,0-0.1,0.1-0.1h2.6c0.1,0,0.1,0,0.2,0.1l4,13.5c0,0.1,0,0.2-0.1,0.2h-2.1c-0.1,0-0.2,0-0.2-0.1l-1-3.8 H10.4L10.4,16.6z"></path> </g> </svg> 