<?xml version="1.0" encoding="UTF-8"?> <svg xmlns="http://www.w3.org/2000/svg" xmlns:xlink="http://www.w3.org/1999/xlink" width="36pt" height="30pt" viewBox="0 0 36 30" version="1.1"><g id="surface1"><path style=" stroke:none;fill-rule:nonzero;fill:rgb(36.862745%,55.686275%,24.313725%);fill-opacity:1;" d="M 15.609375 6.074219 C 15.609375 5.804688 15.390625 5.585938 15.089844 5.585938 C 14.820312 5.585938 14.601562 5.804688 14.601562 6.074219 C 14.601562 6.34375 14.820312 6.59375 15.089844 6.59375 C 15.390625 6.59375 15.609375 6.34375 15.609375 6.074219 Z M 15.609375 6.074219 "></path><path style=" stroke:none;fill-rule:nonzero;fill:rgb(36.862745%,55.686275%,24.313725%);fill-opacity:1;" d="M 20.152344 6.074219 C 20.152344 5.804688 19.933594 5.585938 19.664062 5.585938 C 19.394531 5.585938 19.175781 5.804688 19.175781 6.074219 C 19.175781 6.34375 19.394531 6.59375 19.664062 6.59375 C 19.933594 6.59375 20.152344 6.34375 20.152344 6.074219 Z M 20.152344 6.074219 "></path><path style=" stroke:none;fill-rule:nonzero;fill:rgb(36.862745%,55.686275%,24.313725%);fill-opacity:1;" d="M 17.894531 6.074219 C 17.894531 5.804688 17.675781 5.585938 17.378906 5.585938 C 17.109375 5.585938 16.890625 5.804688 16.890625 6.074219 C 16.890625 6.34375 17.109375 6.59375 17.378906 6.59375 C 17.648438 6.59375 17.894531 6.34375 17.894531 6.074219 Z M 17.894531 6.074219 "></path><path style=" stroke:none;fill-rule:nonzero;fill:rgb(36.862745%,55.686275%,24.313725%);fill-opacity:1;" d="M 22.085938 26.4375 L 7.109375 26.4375 L 7.109375 9.066406 L 12.039062 9.066406 L 12.039062 24.800781 C 12.039062 25.074219 12.253906 25.289062 12.523438 25.289062 C 12.796875 25.289062 13.011719 25.074219 13.011719 24.800781 L 13.011719 9.066406 L 27.472656 9.066406 C 27.742188 9.066406 27.960938 8.851562 27.960938 8.578125 C 27.960938 8.308594 27.742188 8.09375 27.472656 8.09375 L 6.59375 8.09375 C 6.324219 8.09375 6.105469 8.308594 6.105469 8.578125 L 6.105469 26.984375 C 6.105469 27.253906 6.324219 27.472656 6.59375 27.472656 L 22.078125 27.472656 C 22.351562 27.472656 22.566406 27.253906 22.566406 26.984375 C 22.574219 26.683594 22.359375 26.4375 22.085938 26.4375 Z M 22.085938 26.4375 "></path><path style=" stroke:none;fill-rule:nonzero;fill:rgb(36.862745%,55.686275%,24.313725%);fill-opacity:1;" d="M 30.226562 3.621094 C 30.226562 3.351562 30.007812 3.136719 29.738281 3.136719 L 6.59375 3.136719 C 6.324219 3.136719 6.105469 3.351562 6.105469 3.621094 L 6.105469 6.59375 C 6.105469 6.863281 6.324219 7.078125 6.59375 7.078125 C 6.863281 7.078125 7.078125 6.863281 7.078125 6.59375 L 7.078125 4.140625 L 12.007812 4.140625 L 12.007812 6.699219 C 12.007812 6.96875 12.226562 7.183594 12.496094 7.183594 C 12.765625 7.183594 12.984375 6.96875 12.984375 6.699219 L 12.984375 4.140625 L 29.152344 4.140625 L 29.152344 20.339844 C 29.152344 20.609375 29.371094 20.828125 29.640625 20.828125 C 29.910156 20.828125 30.128906 20.609375 30.128906 20.339844 Z M 30.226562 3.621094 "></path><path style=" stroke:none;fill-rule:nonzero;fill:rgb(36.862745%,55.686275%,24.313725%);fill-opacity:1;" d="M 10.753906 11.871094 C 10.753906 11.601562 10.539062 11.386719 10.265625 11.386719 L 8.746094 11.386719 C 8.476562 11.386719 8.257812 11.601562 8.257812 11.871094 C 8.257812 12.140625 8.476562 12.359375 8.746094 12.359375 L 10.265625 12.359375 C 10.539062 12.367188 10.753906 12.148438 10.753906 11.871094 Z M 10.753906 11.871094 "></path><path style=" stroke:none;fill-rule:nonzero;fill:rgb(36.862745%,55.686275%,24.313725%);fill-opacity:1;" d="M 8.714844 13.261719 C 8.445312 13.261719 8.226562 13.476562 8.226562 13.746094 C 8.226562 14.015625 8.445312 14.234375 8.714844 14.234375 L 9.335938 14.234375 C 9.609375 14.234375 9.824219 14.015625 9.824219 13.746094 C 9.824219 13.476562 9.609375 13.261719 9.335938 13.261719 Z M 8.714844 13.261719 "></path><path style=" stroke:none;fill-rule:nonzero;fill:rgb(36.862745%,55.686275%,24.313725%);fill-opacity:1;" d="M 27.691406 24.398438 L 29.191406 23.773438 C 29.378906 23.691406 29.488281 23.527344 29.488281 23.308594 C 29.488281 23.121094 29.378906 22.925781 29.191406 22.84375 L 23.878906 20.390625 C 23.691406 20.308594 23.476562 20.339844 23.332031 20.476562 C 23.199219 20.609375 23.144531 20.828125 23.199219 21.023438 L 25.265625 26.496094 C 25.351562 26.683594 25.515625 26.796875 25.703125 26.828125 L 25.734375 26.828125 C 25.921875 26.828125 26.085938 26.714844 26.167969 26.558594 L 26.902344 25.085938 L 29.054688 27.324219 C 29.167969 27.433594 29.273438 27.488281 29.40625 27.488281 C 29.542969 27.488281 29.65625 27.433594 29.761719 27.351562 C 29.949219 27.164062 29.976562 26.835938 29.761719 26.648438 Z M 25.816406 25.078125 L 24.59375 21.839844 L 27.75 23.308594 L 26.632812 23.773438 C 26.519531 23.828125 26.445312 23.910156 26.386719 24.023438 Z M 25.816406 25.078125 "></path><path style=" stroke:none;fill-rule:nonzero;fill:rgb(36.862745%,55.686275%,24.313725%);fill-opacity:1;" d="M 23.121094 17.730469 C 22.851562 17.8125 22.71875 18.082031 22.792969 18.351562 L 23.0625 19.222656 C 23.113281 19.441406 23.332031 19.574219 23.550781 19.574219 C 23.601562 19.574219 23.664062 19.574219 23.683594 19.546875 C 23.953125 19.460938 24.089844 19.191406 24.015625 18.921875 L 23.746094 18.050781 C 23.664062 17.8125 23.390625 17.648438 23.121094 17.730469 Z M 23.121094 17.730469 "></path><path style=" stroke:none;fill-rule:nonzero;fill:rgb(36.862745%,55.686275%,24.313725%);fill-opacity:1;" d="M 26.714844 20.941406 C 26.765625 20.941406 26.828125 20.941406 26.851562 20.910156 L 27.800781 20.609375 C 28.074219 20.527344 28.207031 20.257812 28.132812 19.988281 C 28.050781 19.71875 27.78125 19.582031 27.511719 19.65625 L 26.585938 19.957031 C 26.316406 20.039062 26.183594 20.308594 26.257812 20.578125 C 26.300781 20.804688 26.519531 20.941406 26.714844 20.941406 Z M 26.714844 20.941406 "></path><path style=" stroke:none;fill-rule:nonzero;fill:rgb(36.862745%,55.686275%,24.313725%);fill-opacity:1;" d="M 21.726562 21.425781 L 21.023438 21.644531 C 20.753906 21.726562 20.617188 21.996094 20.691406 22.265625 C 20.746094 22.484375 20.960938 22.621094 21.179688 22.621094 C 21.234375 22.621094 21.292969 22.621094 21.316406 22.589844 L 22.019531 22.371094 C 22.289062 22.289062 22.425781 22.019531 22.351562 21.75 C 22.273438 21.488281 22.003906 21.34375 21.726562 21.425781 Z M 21.726562 21.425781 "></path><path style=" stroke:none;fill-rule:nonzero;fill:rgb(36.862745%,55.686275%,24.313725%);fill-opacity:1;" d="M 22.574219 20.371094 C 22.710938 20.121094 22.605469 19.824219 22.359375 19.6875 L 21.570312 19.253906 C 21.324219 19.117188 21.023438 19.222656 20.886719 19.46875 C 20.753906 19.71875 20.859375 20.015625 21.105469 20.152344 L 21.890625 20.585938 C 21.976562 20.617188 22.058594 20.640625 22.140625 20.640625 C 22.328125 20.609375 22.492188 20.535156 22.574219 20.371094 Z M 22.574219 20.371094 "></path><path style=" stroke:none;fill-rule:nonzero;fill:rgb(36.862745%,55.686275%,24.313725%);fill-opacity:1;" d="M 25.183594 18.246094 L 24.75 19.035156 C 24.613281 19.28125 24.71875 19.582031 24.96875 19.71875 C 25.050781 19.746094 25.132812 19.769531 25.214844 19.769531 C 25.402344 19.769531 25.566406 19.65625 25.648438 19.5 L 26.085938 18.710938 C 26.21875 18.464844 26.113281 18.164062 25.867188 18.03125 C 25.621094 17.917969 25.328125 18 25.183594 18.246094 Z M 25.183594 18.246094 "></path><path style=" stroke:none;fill-rule:nonzero;fill:rgb(36.862745%,55.686275%,24.313725%);fill-opacity:1;" d="M 23.144531 23.113281 C 22.898438 22.980469 22.597656 23.085938 22.460938 23.332031 L 21.996094 24.203125 C 21.863281 24.449219 21.96875 24.75 22.214844 24.886719 C 22.296875 24.914062 22.378906 24.9375 22.460938 24.9375 C 22.648438 24.9375 22.816406 24.824219 22.898438 24.667969 L 23.363281 23.796875 C 23.476562 23.558594 23.390625 23.257812 23.144531 23.113281 Z M 23.144531 23.113281 "></path><path style=" stroke:none;fill-rule:nonzero;fill:rgb(36.862745%,55.686275%,24.313725%);fill-opacity:1;" d="M 21.15625 14.707031 C 19.90625 14.707031 18.898438 13.703125 18.898438 12.449219 C 18.898438 11.199219 19.90625 10.191406 21.15625 10.191406 C 22.410156 10.191406 23.414062 11.199219 23.414062 12.449219 C 23.390625 13.695312 22.378906 14.707031 21.15625 14.707031 Z M 21.15625 11.167969 C 20.453125 11.167969 19.851562 11.738281 19.851562 12.472656 C 19.851562 13.207031 20.421875 13.777344 21.15625 13.777344 C 21.890625 13.777344 22.460938 13.207031 22.460938 12.472656 C 22.460938 11.738281 21.871094 11.167969 21.15625 11.167969 Z M 21.15625 11.167969 "></path><path style=" stroke:none;fill-rule:nonzero;fill:rgb(36.862745%,55.686275%,24.313725%);fill-opacity:1;" d="M 27.421875 14.378906 L 24.53125 14.378906 C 24.261719 14.378906 24.046875 14.160156 24.046875 13.890625 L 24.046875 11.003906 C 24.046875 10.734375 24.261719 10.515625 24.53125 10.515625 L 27.421875 10.515625 C 27.691406 10.515625 27.90625 10.734375 27.90625 11.003906 L 27.90625 13.890625 C 27.90625 14.160156 27.691406 14.378906 27.421875 14.378906 Z M 24.996094 13.425781 L 26.933594 13.425781 L 26.933594 11.488281 L 24.996094 11.488281 Z M 24.996094 13.425781 "></path><path style=" stroke:none;fill-rule:nonzero;fill:rgb(36.862745%,55.686275%,24.313725%);fill-opacity:1;" d="M 17.429688 14.59375 C 17.347656 14.59375 17.265625 14.566406 17.210938 14.542969 L 16.363281 14.078125 L 15.515625 14.542969 C 15.351562 14.625 15.164062 14.625 15.03125 14.511719 C 14.894531 14.398438 14.8125 14.210938 14.84375 14.046875 L 15.007812 13.09375 L 14.324219 12.414062 C 14.191406 12.277344 14.160156 12.082031 14.210938 11.925781 C 14.265625 11.761719 14.429688 11.625 14.59375 11.59375 L 15.546875 11.460938 L 15.984375 10.589844 C 16.066406 10.425781 16.230469 10.320312 16.417969 10.320312 C 16.605469 10.320312 16.769531 10.433594 16.851562 10.589844 L 17.289062 11.460938 L 18.238281 11.59375 C 18.425781 11.625 18.570312 11.761719 18.621094 11.925781 C 18.675781 12.089844 18.621094 12.277344 18.511719 12.414062 L 17.828125 13.09375 L 18 14.054688 C 18.03125 14.242188 17.949219 14.40625 17.8125 14.519531 C 17.617188 14.574219 17.511719 14.59375 17.429688 14.59375 Z M 16.34375 13.101562 C 16.425781 13.101562 16.507812 13.132812 16.558594 13.15625 L 16.777344 13.265625 L 16.726562 13.019531 C 16.695312 12.855469 16.753906 12.71875 16.859375 12.613281 L 17.046875 12.449219 L 16.800781 12.421875 C 16.636719 12.390625 16.5 12.308594 16.449219 12.148438 L 16.335938 11.933594 L 16.222656 12.121094 C 16.140625 12.253906 16.035156 12.367188 15.871094 12.390625 L 15.621094 12.421875 L 15.808594 12.585938 C 15.921875 12.699219 15.976562 12.855469 15.945312 12.988281 L 15.890625 13.238281 L 16.109375 13.125 C 16.175781 13.101562 16.261719 13.101562 16.34375 13.101562 Z M 16.34375 13.101562 "></path></g></svg> 