<?xml version="1.0" encoding="UTF-8"?> <!-- Generator: Adobe Illustrator 25.1.0, SVG Export Plug-In . SVG Version: 6.00 Build 0) --> <svg xmlns="http://www.w3.org/2000/svg" xmlns:xlink="http://www.w3.org/1999/xlink" version="1.1" id="Layer_1" x="0px" y="0px" viewBox="0 0 30 30" style="enable-background:new 0 0 30 30;" xml:space="preserve"> <style type="text/css"> .st0{fill:#DC395F;} .st1{fill:#FFFFFF;} </style> <g> <path class="st0" d="M27.3,0H2.7C1.2,0,0,1.2,0,2.7v24.6C0,28.8,1.2,30,2.7,30h24.6c1.5,0,2.7-1.2,2.7-2.7V2.7 C30,1.2,28.8,0,27.3,0"></path> <path class="st1" d="M10,9.4c1,0,1.8-0.8,1.8-1.8c0-1-0.8-1.8-1.8-1.8S8.2,6.6,8.2,7.6C8.2,8.7,9,9.4,10,9.4 M6.2,19.1 c-0.1,0.5-0.2,1-0.2,1.4c0,1.6,0.9,2.6,2.7,2.6c1.5,0,2.8-0.9,3.6-2.4l-0.5,2.2h3l1.7-6.9c0.4-1.8,1.3-2.7,2.5-2.7 c1,0,1.6,0.6,1.6,1.6c0,0.3,0,0.6-0.1,1l-0.9,3.2c-0.1,0.5-0.2,0.9-0.2,1.3c0,1.5,0.9,2.6,2.7,2.6c1.6,0,2.9-1,3.6-3.5l-1.2-0.5 c-0.6,1.6-1.1,1.9-1.5,1.9c-0.4,0-0.6-0.3-0.6-0.8c0-0.2,0.1-0.5,0.1-0.8l0.9-3.1c0.2-0.7,0.3-1.4,0.3-2c0-2.3-1.4-3.5-3.1-3.5 c-1.6,0-3.2,1.4-4,2.9l0.6-2.7h-4.6L12,13.5h2.2l-1.3,5.3c-1,2.3-3,2.4-3.2,2.3C9.3,21,9,20.9,9,20.4c0-0.3,0.1-0.7,0.2-1.2l2-8 H6.1l-0.6,2.4h2.1L6.2,19.1"></path> </g> </svg> 