<?xml version="1.0" encoding="UTF-8"?> <svg xmlns="http://www.w3.org/2000/svg" xmlns:xlink="http://www.w3.org/1999/xlink" width="29pt" height="29pt" viewBox="0 0 29 29" version="1.1"><g id="surface1"><path style=" stroke:none;fill-rule:nonzero;fill:rgb(100%,25.098039%,50.588235%);fill-opacity:1;" d="M 19.074219 18.136719 C 18.894531 17.964844 18.613281 17.972656 18.441406 18.152344 L 16.425781 20.285156 C 16.261719 20.457031 16.261719 20.722656 16.425781 20.902344 L 18.441406 23.035156 C 18.53125 23.132812 18.648438 23.175781 18.769531 23.175781 C 18.878906 23.175781 18.992188 23.140625 19.074219 23.058594 C 19.25 22.886719 19.257812 22.605469 19.089844 22.425781 L 17.363281 20.597656 L 19.089844 18.769531 C 19.257812 18.589844 19.25 18.308594 19.074219 18.136719 Z M 24.695312 20.292969 L 22.679688 18.160156 C 22.507812 17.980469 22.226562 17.972656 22.046875 18.136719 C 21.867188 18.308594 21.863281 18.589844 22.03125 18.769531 L 23.757812 20.597656 L 22.03125 22.425781 C 21.863281 22.605469 21.867188 22.886719 22.046875 23.058594 C 22.136719 23.140625 22.242188 23.175781 22.351562 23.175781 C 22.472656 23.175781 22.589844 23.132812 22.679688 23.035156 L 24.695312 20.902344 C 24.859375 20.730469 24.859375 20.464844 24.695312 20.292969 Z M 21.175781 18.054688 C 20.941406 17.996094 20.695312 18.144531 20.632812 18.382812 L 19.617188 22.597656 C 19.554688 22.835938 19.707031 23.082031 19.941406 23.140625 C 19.980469 23.148438 20.015625 23.15625 20.046875 23.15625 C 20.246094 23.15625 20.433594 23.023438 20.476562 22.8125 L 21.496094 18.597656 C 21.5625 18.351562 21.414062 18.113281 21.175781 18.054688 Z M 20.558594 14.359375 C 20.21875 14.359375 19.890625 14.394531 19.5625 14.449219 L 19.5625 8.894531 C 19.972656 8.894531 20.308594 8.558594 20.308594 8.148438 L 20.308594 6.195312 C 20.308594 5.785156 19.972656 5.449219 19.5625 5.449219 L 19.5625 2.230469 C 19.5625 0.996094 18.558594 0 17.332031 0 L 5.472656 0 C 4.238281 0 3.242188 1.003906 3.242188 2.230469 L 3.242188 26.710938 C 3.242188 27.945312 4.246094 28.941406 5.472656 28.941406 L 17.324219 28.941406 C 18.546875 28.941406 19.542969 27.957031 19.554688 26.738281 C 19.882812 26.792969 20.210938 26.828125 20.554688 26.828125 C 23.996094 26.828125 26.792969 24.03125 26.792969 20.589844 C 26.800781 17.15625 23.996094 14.359375 20.558594 14.359375 Z M 18.671875 26.71875 C 18.671875 27.453125 18.070312 28.054688 17.332031 28.054688 L 5.472656 28.054688 C 4.738281 28.054688 4.132812 27.453125 4.132812 26.71875 L 4.132812 4.894531 L 16.359375 4.894531 C 16.605469 4.894531 16.804688 4.691406 16.804688 4.445312 C 16.804688 4.203125 16.605469 4 16.359375 4 L 4.132812 4 L 4.132812 2.230469 C 4.132812 1.496094 4.738281 0.890625 5.472656 0.890625 L 17.324219 0.890625 C 18.0625 0.890625 18.664062 1.496094 18.664062 2.230469 L 18.664062 14.648438 C 16.144531 15.453125 14.3125 17.808594 14.3125 20.589844 C 14.3125 23.371094 16.144531 25.726562 18.664062 26.53125 L 18.664062 26.71875 Z M 20.558594 25.945312 C 17.617188 25.945312 15.214844 23.550781 15.214844 20.597656 C 15.214844 17.652344 17.609375 15.25 20.558594 15.25 C 23.503906 15.25 25.90625 17.644531 25.90625 20.597656 C 25.898438 23.542969 23.503906 25.945312 20.558594 25.945312 Z M 11.769531 23.921875 C 10.828125 23.921875 10.054688 24.6875 10.054688 25.640625 C 10.054688 26.582031 10.820312 27.355469 11.769531 27.355469 C 12.722656 27.355469 13.488281 26.589844 13.488281 25.640625 C 13.488281 24.695312 12.714844 23.921875 11.769531 23.921875 Z M 11.769531 26.457031 C 11.316406 26.457031 10.953125 26.085938 10.953125 25.640625 C 10.953125 25.183594 11.324219 24.820312 11.769531 24.820312 C 12.226562 24.820312 12.589844 25.191406 12.589844 25.640625 C 12.597656 26.09375 12.226562 26.457031 11.769531 26.457031 Z M 14.351562 1.726562 C 13.972656 1.726562 13.660156 2.039062 13.660156 2.417969 C 13.660156 2.796875 13.972656 3.109375 14.351562 3.109375 C 14.730469 3.109375 15.042969 2.796875 15.042969 2.417969 C 15.042969 2.039062 14.730469 1.726562 14.351562 1.726562 Z M 14.351562 2.617188 C 14.238281 2.617188 14.144531 2.527344 14.144531 2.410156 C 14.144531 2.289062 14.230469 2.199219 14.351562 2.199219 C 14.46875 2.199219 14.558594 2.289062 14.558594 2.410156 C 14.558594 2.527344 14.460938 2.617188 14.351562 2.617188 Z M 14.351562 2.617188 "></path><path style=" stroke:none;fill-rule:nonzero;fill:rgb(100%,25.098039%,50.588235%);fill-opacity:1;" d="M 11.429688 11.296875 C 11.355469 11.316406 11.25 11.332031 11.109375 11.347656 C 11.117188 11.042969 11.191406 10.78125 11.347656 10.566406 C 11.496094 10.351562 11.75 10.203125 12.105469 10.113281 C 12.105469 10.121094 12.113281 10.128906 12.113281 10.148438 C 12.113281 10.164062 12.121094 10.179688 12.121094 10.179688 C 12.121094 10.1875 12.121094 10.195312 12.121094 10.210938 C 12.121094 10.222656 12.121094 10.230469 12.121094 10.238281 C 12.121094 10.367188 12.089844 10.5 12.03125 10.65625 C 11.972656 10.804688 11.875 10.945312 11.75 11.070312 C 11.644531 11.183594 11.539062 11.257812 11.429688 11.296875 Z M 12.789062 13.421875 C 12.648438 13.222656 12.582031 12.996094 12.582031 12.746094 C 12.582031 12.515625 12.648438 12.304688 12.78125 12.113281 C 12.855469 12.007812 12.96875 11.890625 13.132812 11.757812 C 13.027344 11.628906 12.921875 11.527344 12.8125 11.453125 C 12.617188 11.316406 12.402344 11.25 12.164062 11.25 C 12.023438 11.25 11.84375 11.289062 11.636719 11.355469 C 11.4375 11.421875 11.296875 11.457031 11.207031 11.457031 C 11.140625 11.457031 10.996094 11.429688 10.789062 11.371094 C 10.574219 11.308594 10.394531 11.28125 10.253906 11.28125 C 9.90625 11.28125 9.613281 11.429688 9.390625 11.71875 C 9.160156 12.015625 9.050781 12.394531 9.050781 12.855469 C 9.050781 13.347656 9.199219 13.851562 9.496094 14.386719 C 9.800781 14.917969 10.105469 15.175781 10.410156 15.175781 C 10.515625 15.175781 10.648438 15.140625 10.8125 15.074219 C 10.976562 15.003906 11.117188 14.96875 11.242188 14.96875 C 11.375 14.96875 11.527344 15 11.703125 15.066406 C 11.890625 15.132812 12.03125 15.160156 12.128906 15.160156 C 12.386719 15.160156 12.648438 14.960938 12.910156 14.566406 C 13.078125 14.3125 13.207031 14.0625 13.28125 13.808594 C 13.085938 13.75 12.929688 13.621094 12.789062 13.421875 Z M 12.789062 13.421875 "></path></g></svg> 