<?xml version="1.0" encoding="UTF-8"?> <!-- Generator: Adobe Illustrator 25.1.0, SVG Export Plug-In . SVG Version: 6.00 Build 0) --> <svg xmlns="http://www.w3.org/2000/svg" xmlns:xlink="http://www.w3.org/1999/xlink" version="1.1" id="Layer_1" x="0px" y="0px" viewBox="0 0 48 37" style="enable-background:new 0 0 48 37;" xml:space="preserve"> <style type="text/css"> .st0{fill:#FFFFFF;} </style> <g> <path class="st0" d="M31.9,23.8H16.1c-5.1,0-9.2-3.8-9.2-8.4c0-4.2,3.5-7.8,8-8.3C15.5,3.1,19.4,0,24,0s8.5,3.1,9.1,7.1 c4.5,0.5,8,4.1,8,8.3C41.2,20,37,23.8,31.9,23.8z M24,2.6c-3.6,0-6.6,2.6-6.6,5.7c0,0.7-0.6,1.3-1.3,1.3c-3.6,0-6.6,2.6-6.6,5.7 s3,5.7,6.6,5.7h15.9c3.6,0,6.6-2.6,6.6-5.7s-3-5.7-6.6-5.7c-0.7,0-1.3-0.6-1.3-1.3C30.6,5.2,27.6,2.6,24,2.6z"></path> <path class="st0" d="M31.9,14.2c-0.3,0-0.7-0.1-0.9-0.4c-1.9-1.8-4.4-2.7-7-2.7s-5.2,1-7,2.7c-0.5,0.5-1.4,0.5-1.9-0.1 c-0.5-0.5-0.5-1.4,0.1-1.9c2.4-2.2,5.5-3.5,8.8-3.5s6.5,1.2,8.8,3.5c0.5,0.5,0.6,1.3,0.1,1.9C32.6,14.1,32.3,14.2,31.9,14.2z"></path> <path class="st0" d="M29,17c-0.3,0-0.7-0.1-0.9-0.4c-1.1-1-2.5-1.6-4-1.6s-3,0.6-4,1.6c-0.5,0.5-1.4,0.5-1.9-0.1 c-0.5-0.5-0.5-1.4,0.1-1.9c1.6-1.5,3.7-2.3,5.9-2.3c2.2,0,4.3,0.8,5.9,2.3c0.5,0.5,0.6,1.3,0.1,1.9C29.7,16.9,29.3,17,29,17z"></path> <path class="st0" d="M26,19.8c-0.3,0-0.7-0.1-0.9-0.4c-0.6-0.5-1.6-0.5-2.2,0c-0.5,0.5-1.4,0.5-1.9-0.1c-0.5-0.5-0.5-1.4,0.1-1.9 c1.6-1.5,4.2-1.5,5.8,0c0.5,0.5,0.6,1.3,0.1,1.9C26.7,19.7,26.3,19.8,26,19.8z"></path> <path class="st0" d="M9.5,37c-2.2,0-4-1.8-4-4c0-2.2,1.8-4,4-4s4,1.8,4,4C13.4,35.2,11.7,37,9.5,37z M9.5,31.7 c-0.7,0-1.3,0.6-1.3,1.3s0.6,1.3,1.3,1.3c0.7,0,1.3-0.6,1.3-1.3S10.2,31.7,9.5,31.7z"></path> <path class="st0" d="M24,37c-2.2,0-4-1.8-4-4c0-2.2,1.8-4,4-4s4,1.8,4,4C28,35.2,26.2,37,24,37z M24,31.7c-0.7,0-1.3,0.6-1.3,1.3 s0.6,1.3,1.3,1.3s1.3-0.6,1.3-1.3S24.7,31.7,24,31.7z"></path> <path class="st0" d="M38.5,37c-2.2,0-4-1.8-4-4c0-2.2,1.8-4,4-4c2.2,0,4,1.8,4,4C42.5,35.2,40.7,37,38.5,37z M38.5,31.7 c-0.7,0-1.3,0.6-1.3,1.3s0.6,1.3,1.3,1.3s1.3-0.6,1.3-1.3S39.3,31.7,38.5,31.7z"></path> <path class="st0" d="M24,31.7c-0.7,0-1.3-0.6-1.3-1.3v-4c0-0.7,0.6-1.3,1.3-1.3s1.3,0.6,1.3,1.3v4C25.3,31.1,24.7,31.7,24,31.7z"></path> <path class="st0" d="M16.1,34.4h-4c-0.7,0-1.3-0.6-1.3-1.3s0.6-1.3,1.3-1.3h2.6v-5.3c0-0.7,0.6-1.3,1.3-1.3c0.7,0,1.3,0.6,1.3,1.3 V33C17.4,33.8,16.8,34.4,16.1,34.4z"></path> <path class="st0" d="M35.9,34.4h-4c-0.7,0-1.3-0.6-1.3-1.3v-6.6c0-0.7,0.6-1.3,1.3-1.3c0.7,0,1.3,0.6,1.3,1.3v5.3h2.6 c0.7,0,1.3,0.6,1.3,1.3S36.6,34.4,35.9,34.4z"></path> </g> </svg> 