<?xml version="1.0" encoding="UTF-8"?> <svg xmlns="http://www.w3.org/2000/svg" width="45" height="45" viewBox="0 0 45 45" fill="none"><circle cx="22.4535" cy="22.4535" r="22.4535" fill="#EFF5FF"></circle><g clip-path="url(#clip0_422_502)"><ellipse cx="21.6279" cy="23.0385" rx="2.04352" ry="2.03033" fill="#FFCA00"></ellipse><ellipse cx="24.7859" cy="15.1017" rx="1.4862" ry="1.47661" fill="#FFCA00"></ellipse><ellipse cx="29.6159" cy="26.5454" rx="1.85775" ry="1.84576" fill="#FFCA00"></ellipse><ellipse cx="22.9281" cy="31.7135" rx="1.11465" ry="1.10746" fill="#FFCA00"></ellipse><ellipse cx="14.0108" cy="28.7604" rx="1.85774" ry="1.84576" fill="#FFCA00"></ellipse><ellipse cx="14.011" cy="18.424" rx="1.11465" ry="1.10746" fill="#FFCA00"></ellipse><path d="M23.1278 24.0136L23.1284 24.0128C23.2771 23.8209 23.3836 23.5943 23.4349 23.3496C23.4572 23.2401 23.4699 23.1263 23.4699 23.012C23.4699 22.4217 23.1565 21.9031 22.6838 21.6109L22.6832 21.6105C22.4772 21.4823 22.2426 21.3984 21.99 21.3729C21.9301 21.3671 21.8708 21.3636 21.8133 21.3636C21.3529 21.3636 20.9372 21.5503 20.6373 21.8527L20.6371 21.8529C20.464 22.0272 20.3298 22.2396 20.2493 22.4749L20.248 22.4786L20.248 22.4786C20.1881 22.6448 20.1568 22.8229 20.1568 23.012C20.1568 23.243 20.2045 23.4623 20.2907 23.6612L23.1278 24.0136ZM23.1278 24.0136C22.9364 24.2628 22.6751 24.4551 22.3761 24.561L22.3761 24.561M23.1278 24.0136L22.3761 24.561M22.3761 24.561L22.3736 24.5619M22.3761 24.561L22.3736 24.5619M22.3736 24.5619C22.1996 24.6257 22.0106 24.6604 21.8133 24.6604M22.3736 24.5619L21.8133 24.6604M21.8133 24.6604C21.7583 24.6604 21.7012 24.6569 21.6408 24.6511M21.8133 24.6604L21.6408 24.6511M21.6408 24.6511C21.2944 24.6163 20.978 24.472 20.727 24.2552M21.6408 24.6511L20.727 24.2552M20.727 24.2552C20.541 24.0937 20.3899 23.8899 20.2907 23.6613L20.727 24.2552ZM26.9361 14.9962V14.9962C26.9359 13.6931 25.8763 12.6369 24.5675 12.6369C23.261 12.6369 22.199 13.6929 22.199 14.9964C22.199 15.789 22.5919 16.4923 23.1954 16.9188L22.1247 20.0362C22.0223 20.0255 21.9183 20.0198 21.8134 20.0198C20.9807 20.0198 20.2269 20.3571 19.6834 20.9026L15.8807 18.5485C15.906 18.4232 15.9197 18.293 15.9197 18.1605C15.9197 17.0892 15.0483 16.223 13.9749 16.223C12.9015 16.223 12.0301 17.0892 12.0301 18.1605C12.0301 19.2319 12.9015 20.0981 13.9749 20.0981C14.4246 20.0981 14.8382 19.9458 15.1679 19.6905L18.9702 22.0445C18.8663 22.348 18.8092 22.674 18.8092 23.0122C18.8092 23.4279 18.8949 23.826 19.0498 24.1868L15.5883 26.703C15.1462 26.3484 14.5843 26.1372 13.9749 26.1372C12.552 26.1372 11.3945 27.2858 11.3945 28.7076C11.3945 30.1294 12.552 31.278 13.9749 31.278C15.4 31.278 16.5552 30.1293 16.5552 28.7076C16.5552 28.383 16.4948 28.0734 16.3851 27.7882L19.8472 25.2735C20.2981 25.6628 20.8683 25.9222 21.4972 25.9874L21.9814 29.9387C21.3559 30.2593 20.9278 30.9089 20.9278 31.6607C20.9278 32.7321 21.7992 33.5982 22.8726 33.5982C23.9459 33.5982 24.8173 32.7321 24.8173 31.6607C24.8173 30.7442 24.178 29.9763 23.3207 29.7751L22.8368 25.8244C23.3795 25.6305 23.8486 25.2835 24.193 24.8375L27.1075 26.1724C27.0839 26.3109 27.0715 26.4534 27.0715 26.5981C27.0715 28.0198 28.229 29.1685 29.6518 29.1685C31.077 29.1685 32.2322 28.0197 32.2322 26.5981C32.2322 25.1764 31.077 24.0279 29.6519 24.0279C28.8569 24.0279 28.1439 24.3868 27.6707 24.9529L24.7556 23.6177C24.7963 23.422 24.8175 23.2201 24.8175 23.0122C24.8175 21.9374 24.2493 20.9979 23.3987 20.47L24.4691 17.3535C24.5019 17.355 24.5347 17.3557 24.5675 17.3557C25.8762 17.3557 26.9361 16.2995 26.9361 14.9962ZM24.5706 16.012L24.5706 16.0119H24.5674C24.3264 16.0119 24.108 15.9305 23.9355 15.7925L23.9355 15.7925L23.9332 15.7907C23.697 15.6063 23.5462 15.3194 23.5462 14.9964C23.5462 14.4372 24.0032 13.9806 24.5674 13.9806C25.1316 13.9806 25.5886 14.4372 25.5886 14.9964C25.5886 15.5514 25.1379 16.0057 24.5806 16.0121L24.5706 16.012ZM13.9747 17.5668C14.3013 17.5668 14.5648 17.8262 14.5719 18.1471L14.5708 18.1516L14.5701 18.179C14.5642 18.3973 14.4402 18.5857 14.2552 18.6846C14.1719 18.729 14.0766 18.7543 13.9747 18.7543C13.6436 18.7543 13.3773 18.4876 13.3773 18.1605C13.3773 17.8335 13.6436 17.5668 13.9747 17.5668ZM14.7197 27.7318L14.7212 27.7329C14.9103 27.8743 15.0563 28.0717 15.1374 28.2999L15.1375 28.3002C15.183 28.4276 15.2077 28.5638 15.2077 28.7076C15.2077 29.3828 14.6555 29.9342 13.9747 29.9342C13.294 29.9342 12.7418 29.3829 12.7418 28.7076C12.7418 28.0324 13.294 27.481 13.9747 27.481C14.2549 27.481 14.5115 27.5737 14.7197 27.7318ZM23.1051 31.1158L23.1051 31.1158L23.1087 31.1174C23.3214 31.2062 23.4699 31.4166 23.4699 31.6609C23.4699 31.9879 23.2036 32.2546 22.8725 32.2546C22.5415 32.2546 22.2752 31.9879 22.2752 31.6609C22.2752 31.4683 22.367 31.2966 22.5119 31.1881L22.5129 31.1873C22.6127 31.1118 22.7377 31.0671 22.8725 31.0671C22.9553 31.0671 23.0337 31.0846 23.1051 31.1158ZM28.4313 26.4377L28.4317 26.4378L28.4335 26.4241C28.4649 26.1847 28.5695 25.9652 28.7258 25.7903L28.7269 25.789C28.9526 25.5328 29.2834 25.3716 29.6517 25.3716C30.3324 25.3716 30.8846 25.923 30.8846 26.5983C30.8846 27.2733 30.3324 27.8249 29.6517 27.8249C28.971 27.8249 28.4187 27.2735 28.4187 26.5983C28.4187 26.5381 28.4224 26.485 28.4313 26.4377Z" fill="#2176FF" stroke="#2176FF" stroke-width="0.5"></path></g><defs><clipPath id="clip0_422_502"><rect width="20.8067" height="22.1491" fill="white" transform="translate(11.4102 11.4102)"></rect></clipPath></defs></svg> 