<?xml version="1.0" encoding="UTF-8"?> <svg xmlns="http://www.w3.org/2000/svg" xmlns:xlink="http://www.w3.org/1999/xlink" width="29pt" height="29pt" viewBox="0 0 29 29" version="1.1"><g id="surface1"><path style=" stroke:none;fill-rule:nonzero;fill:rgb(22.352941%,58.039216%,22.352941%);fill-opacity:1;" d="M 6.449219 17.085938 L 7.386719 16.851562 L 7.621094 17.789062 L 6.683594 18.023438 Z M 6.449219 17.085938 "></path><path style=" stroke:none;fill-rule:nonzero;fill:rgb(22.352941%,58.039216%,22.352941%);fill-opacity:1;" d="M 6.890625 18.871094 L 7.828125 18.636719 L 8.0625 19.578125 L 7.125 19.808594 Z M 6.890625 18.871094 "></path><path style=" stroke:none;fill-rule:nonzero;fill:rgb(22.352941%,58.039216%,22.352941%);fill-opacity:1;" d="M 7.402344 20.640625 L 8.339844 20.40625 L 8.574219 21.34375 L 7.636719 21.578125 Z M 7.402344 20.640625 "></path><path style=" stroke:none;fill-rule:nonzero;fill:rgb(22.352941%,58.039216%,22.352941%);fill-opacity:1;" d="M 6.097656 7.957031 C 5.355469 7.957031 4.683594 8.550781 4.683594 9.371094 C 4.683594 10.1875 5.28125 10.78125 6.097656 10.78125 C 6.914062 10.78125 7.511719 10.1875 7.511719 9.371094 C 7.511719 8.550781 6.839844 7.957031 6.097656 7.957031 Z M 6.097656 9.816406 C 5.875 9.816406 5.652344 9.59375 5.652344 9.371094 C 5.652344 9.144531 5.875 8.921875 6.097656 8.921875 C 6.320312 8.921875 6.542969 9.144531 6.542969 9.371094 C 6.542969 9.59375 6.320312 9.816406 6.097656 9.816406 Z M 6.097656 9.816406 "></path><path style=" stroke:none;fill-rule:nonzero;fill:rgb(22.352941%,58.039216%,22.352941%);fill-opacity:1;" d="M 20.523438 14.945312 C 21.265625 14.945312 21.9375 14.351562 21.9375 13.535156 C 21.9375 12.714844 21.339844 12.121094 20.523438 12.121094 C 19.707031 12.121094 19.109375 12.714844 19.109375 13.535156 C 19.109375 14.351562 19.78125 14.945312 20.523438 14.945312 Z M 20.523438 13.085938 C 20.746094 13.085938 20.96875 13.308594 20.96875 13.535156 C 20.96875 13.757812 20.746094 13.980469 20.523438 13.980469 C 20.300781 13.980469 20.078125 13.757812 20.078125 13.535156 C 20.078125 13.308594 20.300781 13.085938 20.523438 13.085938 Z M 20.523438 13.085938 "></path><path style=" stroke:none;fill-rule:nonzero;fill:rgb(22.352941%,58.039216%,22.352941%);fill-opacity:1;" d="M 29 18.144531 L 25.429688 13.085938 L 23.792969 13.085938 C 23.71875 12.640625 23.570312 12.269531 23.347656 11.898438 L 23.347656 2.824219 L 22.382812 2.824219 L 22.382812 1.859375 C 22.382812 0.816406 21.5625 0 20.523438 0 C 19.480469 0 18.664062 0.816406 18.664062 1.859375 L 18.664062 2.824219 L 17.699219 2.824219 L 17.699219 5.128906 L 13.011719 5.128906 L 13.011719 4.238281 L 2.824219 4.238281 C 1.265625 4.238281 0 5.429688 0 6.988281 C 0 8.550781 1.265625 9.816406 2.824219 9.816406 L 2.898438 9.816406 C 3.046875 10.707031 3.570312 11.527344 4.238281 12.046875 L 4.238281 14.945312 L 3.496094 14.945312 L 1.339844 18.144531 L 3.199219 22.828125 L 2.007812 25.207031 C 0.890625 25.355469 0 26.398438 0 27.511719 L 0 28.925781 L 13.980469 28.925781 L 13.980469 27.511719 C 13.980469 26.324219 13.085938 25.355469 11.972656 25.207031 L 10.707031 22.679688 L 8.773438 14.871094 L 7.957031 14.871094 L 7.957031 11.972656 C 8.699219 11.453125 9.21875 10.707031 9.292969 9.742188 L 13.085938 9.742188 L 13.085938 8.773438 L 17.773438 8.773438 L 17.773438 11.75 C 17.546875 12.121094 17.398438 12.492188 17.324219 12.9375 L 15.617188 12.9375 L 12.046875 17.996094 L 14.871094 26.101562 L 14.871094 27.511719 C 14.871094 28.257812 15.464844 28.925781 16.285156 28.925781 L 24.6875 28.925781 C 25.429688 28.925781 26.101562 28.332031 26.101562 27.511719 L 26.101562 26.175781 Z M 19.628906 20.523438 L 21.488281 20.523438 L 21.488281 22.382812 L 19.628906 22.382812 Z M 16.359375 19.628906 C 16.210938 19.628906 16.0625 19.628906 15.914062 19.707031 L 15.914062 18.441406 L 18.886719 16.285156 C 19.40625 16.582031 20.003906 16.804688 20.597656 16.804688 C 21.191406 16.804688 21.789062 16.65625 22.308594 16.285156 L 25.28125 18.441406 L 25.28125 19.707031 C 25.132812 19.628906 24.984375 19.628906 24.835938 19.628906 Z M 20.523438 11.226562 C 21.789062 11.226562 22.828125 12.269531 22.828125 13.535156 C 22.828125 14.796875 21.789062 15.839844 20.523438 15.839844 C 19.257812 15.839844 18.21875 14.796875 18.21875 13.535156 C 18.21875 12.269531 19.257812 11.226562 20.523438 11.226562 Z M 27.957031 18.292969 L 26.175781 23.421875 L 26.175781 17.996094 L 23.050781 15.691406 C 23.421875 15.242188 23.71875 14.648438 23.792969 13.980469 L 24.984375 13.980469 Z M 19.628906 1.859375 C 19.628906 1.339844 20.078125 0.890625 20.597656 0.890625 C 21.117188 0.890625 21.5625 1.339844 21.5625 1.859375 L 21.5625 2.824219 L 19.707031 2.824219 L 19.707031 1.859375 Z M 22.382812 3.71875 L 22.382812 10.855469 C 21.863281 10.484375 21.191406 10.261719 20.523438 10.261719 C 19.855469 10.261719 19.183594 10.484375 18.664062 10.855469 L 18.664062 3.71875 Z M 13.085938 27.511719 L 13.085938 27.957031 L 0.964844 27.957031 L 0.964844 27.511719 C 0.964844 26.769531 1.5625 26.101562 2.378906 26.101562 L 11.75 26.101562 C 12.417969 26.175781 13.085938 26.769531 13.085938 27.511719 Z M 10.929688 25.207031 L 3.125 25.207031 L 4.089844 23.347656 L 10.039062 23.347656 Z M 9.667969 22.382812 L 4.015625 22.382812 L 2.378906 18.21875 L 3.941406 15.839844 L 8.03125 15.839844 Z M 6.988281 14.945312 L 5.128906 14.945312 L 5.128906 12.492188 C 5.429688 12.566406 5.726562 12.640625 6.097656 12.640625 C 6.394531 12.640625 6.765625 12.566406 7.0625 12.492188 L 7.0625 14.945312 Z M 6.097656 11.675781 C 4.832031 11.675781 3.792969 10.632812 3.792969 9.371094 C 3.792969 8.105469 4.832031 7.0625 6.097656 7.0625 C 7.363281 7.0625 8.402344 8.105469 8.402344 9.371094 C 8.402344 10.632812 7.363281 11.675781 6.097656 11.675781 Z M 12.121094 8.847656 L 9.292969 8.847656 C 9.070312 7.289062 7.734375 6.023438 6.097656 6.023438 C 4.460938 6.023438 3.125 7.210938 2.898438 8.847656 L 2.824219 8.847656 C 1.785156 8.847656 0.964844 8.03125 0.964844 6.988281 C 0.964844 5.949219 1.785156 5.128906 2.824219 5.128906 L 12.195312 5.128906 L 12.195312 8.847656 Z M 13.085938 7.957031 L 13.085938 6.097656 L 17.773438 6.097656 L 17.773438 7.957031 Z M 16.136719 13.980469 L 17.324219 13.980469 C 17.398438 14.648438 17.699219 15.167969 18.070312 15.691406 L 14.945312 17.996094 L 14.945312 23.421875 L 13.160156 18.292969 Z M 21.488281 28.035156 L 19.628906 28.035156 L 19.628906 26.175781 L 21.488281 26.175781 Z M 25.207031 27.511719 C 25.207031 27.734375 24.984375 27.957031 24.761719 27.957031 L 22.457031 27.957031 L 22.457031 25.132812 L 18.738281 25.132812 L 18.738281 27.957031 L 16.359375 27.957031 C 16.136719 27.957031 15.914062 27.734375 15.914062 27.511719 L 15.914062 20.96875 C 15.914062 20.746094 16.136719 20.523438 16.359375 20.523438 L 18.664062 20.523438 L 18.664062 23.347656 L 22.382812 23.347656 L 22.382812 20.523438 L 24.6875 20.523438 C 24.910156 20.523438 25.132812 20.746094 25.132812 20.96875 L 25.132812 27.511719 Z M 25.207031 27.511719 "></path><path style=" stroke:none;fill-rule:nonzero;fill:rgb(22.352941%,58.039216%,22.352941%);fill-opacity:1;" d="M 20.523438 8.402344 L 21.488281 8.402344 L 21.488281 9.371094 L 20.523438 9.371094 Z M 20.523438 8.402344 "></path><path style=" stroke:none;fill-rule:nonzero;fill:rgb(22.352941%,58.039216%,22.352941%);fill-opacity:1;" d="M 20.523438 4.683594 L 21.488281 4.683594 L 21.488281 5.652344 L 20.523438 5.652344 Z M 20.523438 4.683594 "></path><path style=" stroke:none;fill-rule:nonzero;fill:rgb(22.352941%,58.039216%,22.352941%);fill-opacity:1;" d="M 20.523438 6.542969 L 21.488281 6.542969 L 21.488281 7.511719 L 20.523438 7.511719 Z M 20.523438 6.542969 "></path></g></svg> 