<?xml version="1.0" encoding="UTF-8"?> <svg xmlns="http://www.w3.org/2000/svg" xmlns:xlink="http://www.w3.org/1999/xlink" width="29pt" height="29pt" viewBox="0 0 29 29" version="1.1"><g id="surface1"><path style=" stroke:none;fill-rule:nonzero;fill:rgb(99.607843%,85.098039%,29.411765%);fill-opacity:1;" d="M 20.894531 0 L 7.585938 0 C 6.320312 0 5.207031 1.117188 5.207031 2.378906 L 5.207031 26.546875 C 5.207031 27.882812 6.320312 28.925781 7.585938 28.925781 L 20.894531 28.925781 C 22.234375 28.925781 23.273438 27.808594 23.273438 26.546875 L 23.273438 2.378906 C 23.347656 1.117188 22.234375 0 20.894531 0 Z M 22.085938 26.546875 C 22.085938 27.214844 21.5625 27.734375 20.894531 27.734375 L 7.585938 27.734375 C 6.914062 27.734375 6.394531 27.214844 6.394531 26.546875 L 6.394531 2.378906 C 6.394531 1.710938 6.914062 1.191406 7.585938 1.191406 L 20.894531 1.191406 C 21.5625 1.191406 22.085938 1.710938 22.085938 2.378906 Z M 22.085938 26.546875 "></path><path style=" stroke:none;fill-rule:nonzero;fill:rgb(99.607843%,85.098039%,29.411765%);fill-opacity:1;" d="M 13.085938 3.046875 L 15.464844 3.046875 C 15.765625 3.046875 16.0625 2.75 16.0625 2.453125 C 16.0625 2.15625 15.765625 1.859375 15.464844 1.859375 L 13.085938 1.859375 C 12.789062 1.859375 12.492188 2.15625 12.492188 2.453125 C 12.492188 2.75 12.714844 3.046875 13.085938 3.046875 Z M 13.085938 3.046875 "></path><path style=" stroke:none;fill-rule:nonzero;fill:rgb(99.607843%,85.098039%,29.411765%);fill-opacity:1;" d="M 20.300781 3.644531 L 8.253906 3.644531 C 7.957031 3.644531 7.660156 3.941406 7.660156 4.238281 L 7.660156 23.570312 C 7.660156 23.871094 7.957031 24.167969 8.253906 24.167969 L 20.300781 24.167969 C 20.597656 24.167969 20.894531 23.871094 20.894531 23.570312 L 20.894531 4.238281 C 20.894531 3.867188 20.597656 3.644531 20.300781 3.644531 Z M 19.707031 22.902344 L 8.847656 22.902344 L 8.847656 4.832031 L 19.707031 4.832031 Z M 19.707031 22.902344 "></path><path style=" stroke:none;fill-rule:nonzero;fill:rgb(99.607843%,85.098039%,29.411765%);fill-opacity:1;" d="M 15.464844 25.953125 C 15.464844 26.609375 14.933594 27.140625 14.277344 27.140625 C 13.621094 27.140625 13.085938 26.609375 13.085938 25.953125 C 13.085938 25.292969 13.621094 24.761719 14.277344 24.761719 C 14.933594 24.761719 15.464844 25.292969 15.464844 25.953125 Z M 15.464844 25.953125 "></path><path style=" stroke:none;fill-rule:nonzero;fill:rgb(99.607843%,85.098039%,29.411765%);fill-opacity:1;" d="M 14.722656 11.003906 C 14.054688 10.335938 13.160156 11.527344 14.054688 11.972656 C 14.351562 12.121094 14.722656 11.972656 14.871094 11.675781 C 14.945312 11.453125 14.871094 11.226562 14.722656 11.003906 Z M 14.722656 11.003906 "></path><path style=" stroke:none;fill-rule:nonzero;fill:rgb(99.607843%,85.098039%,29.411765%);fill-opacity:1;" d="M 15.617188 11.003906 C 15.390625 11.226562 15.390625 11.601562 15.617188 11.824219 C 15.839844 12.046875 16.210938 12.046875 16.433594 11.824219 C 16.65625 11.601562 16.65625 11.226562 16.433594 11.003906 C 16.285156 10.78125 15.914062 10.78125 15.617188 11.003906 Z M 15.617188 11.003906 "></path><path style=" stroke:none;fill-rule:nonzero;fill:rgb(99.607843%,85.098039%,29.411765%);fill-opacity:1;" d="M 12.046875 11.003906 C 11.824219 11.226562 11.824219 11.601562 12.046875 11.824219 C 12.195312 11.972656 12.34375 11.972656 12.492188 11.972656 C 12.789062 11.972656 13.085938 11.675781 13.085938 11.375 C 13.085938 11.078125 12.789062 10.78125 12.492188 10.78125 C 12.269531 10.855469 12.121094 10.929688 12.046875 11.003906 Z M 12.046875 11.003906 "></path><path style=" stroke:none;fill-rule:nonzero;fill:rgb(99.607843%,85.098039%,29.411765%);fill-opacity:1;" d="M 14.722656 12.863281 C 14.5 12.640625 14.128906 12.640625 13.832031 12.863281 C 13.609375 13.085938 13.609375 13.457031 13.832031 13.757812 C 14.054688 13.980469 14.425781 13.980469 14.722656 13.757812 C 14.945312 13.457031 14.945312 13.085938 14.722656 12.863281 Z M 14.722656 12.863281 "></path><path style=" stroke:none;fill-rule:nonzero;fill:rgb(99.607843%,85.098039%,29.411765%);fill-opacity:1;" d="M 16.507812 12.863281 C 16.285156 12.640625 15.914062 12.640625 15.691406 12.863281 C 15.464844 13.085938 15.464844 13.457031 15.691406 13.683594 C 15.914062 13.90625 16.285156 13.90625 16.507812 13.683594 C 16.65625 13.535156 16.65625 13.382812 16.65625 13.234375 C 16.65625 13.085938 16.582031 12.9375 16.507812 12.863281 Z M 16.507812 12.863281 "></path><path style=" stroke:none;fill-rule:nonzero;fill:rgb(99.607843%,85.098039%,29.411765%);fill-opacity:1;" d="M 12.863281 12.863281 C 12.640625 12.640625 12.269531 12.640625 11.972656 12.863281 C 11.75 13.085938 11.75 13.457031 11.972656 13.757812 C 12.195312 13.980469 12.566406 13.980469 12.863281 13.757812 C 13.085938 13.457031 13.085938 13.085938 12.863281 12.863281 Z M 12.863281 12.863281 "></path><path style=" stroke:none;fill-rule:nonzero;fill:rgb(99.607843%,85.098039%,29.411765%);fill-opacity:1;" d="M 14.722656 14.648438 C 14.5 14.425781 14.128906 14.425781 13.90625 14.648438 C 13.683594 14.871094 13.683594 15.242188 13.90625 15.464844 C 14.128906 15.691406 14.5 15.691406 14.722656 15.464844 C 14.945312 15.316406 14.945312 14.871094 14.722656 14.648438 Z M 14.722656 14.648438 "></path><path style=" stroke:none;fill-rule:nonzero;fill:rgb(99.607843%,85.098039%,29.411765%);fill-opacity:1;" d="M 15.617188 14.648438 C 15.390625 14.871094 15.390625 15.242188 15.617188 15.464844 C 15.839844 15.691406 16.210938 15.691406 16.433594 15.464844 C 16.65625 15.242188 16.65625 14.871094 16.433594 14.648438 C 16.285156 14.425781 15.914062 14.425781 15.617188 14.648438 Z M 15.617188 14.648438 "></path><path style=" stroke:none;fill-rule:nonzero;fill:rgb(99.607843%,85.098039%,29.411765%);fill-opacity:1;" d="M 12.863281 14.648438 C 12.640625 14.425781 12.269531 14.425781 11.972656 14.648438 C 11.75 14.871094 11.75 15.242188 11.972656 15.542969 C 12.195312 15.765625 12.566406 15.765625 12.863281 15.542969 C 13.085938 15.316406 13.085938 14.871094 12.863281 14.648438 Z M 12.863281 14.648438 "></path><path style=" stroke:none;fill-rule:nonzero;fill:rgb(99.607843%,85.098039%,29.411765%);fill-opacity:1;" d="M 11.226562 17.472656 L 17.25 17.472656 C 17.921875 17.472656 18.441406 16.953125 18.441406 16.285156 L 18.441406 10.261719 C 18.441406 9.59375 17.921875 9.070312 17.25 9.070312 L 11.226562 9.070312 C 10.558594 9.070312 10.039062 9.59375 10.039062 10.261719 L 10.039062 16.285156 C 10.039062 16.953125 10.558594 17.472656 11.226562 17.472656 Z M 11.226562 10.261719 L 17.25 10.261719 L 17.25 16.285156 L 11.226562 16.285156 Z M 11.226562 10.261719 "></path></g></svg> 