<?xml version="1.0" encoding="UTF-8"?> <svg xmlns="http://www.w3.org/2000/svg" xmlns:xlink="http://www.w3.org/1999/xlink" width="29pt" height="29pt" viewBox="0 0 29 29" version="1.1"><g id="surface1"><path style=" stroke:none;fill-rule:nonzero;fill:rgb(25.098039%,76.862745%,100%);fill-opacity:1;" d="M 28.628906 24.390625 L 25.875 22.160156 C 25.875 22.160156 25.800781 22.085938 25.800781 22.085938 C 25.800781 22.011719 25.800781 22.011719 25.800781 21.9375 L 25.800781 19.855469 C 25.652344 19.929688 25.429688 20.003906 25.28125 20.078125 C 25.207031 20.226562 25.058594 20.375 24.910156 20.449219 L 24.910156 21.9375 L 4.089844 21.9375 L 4.089844 10.855469 L 4.980469 10.855469 L 4.980469 20.597656 C 4.980469 20.820312 5.207031 21.042969 5.429688 21.042969 C 5.652344 21.042969 5.949219 20.820312 5.949219 20.597656 L 5.949219 7.0625 L 23.125 7.0625 L 23.125 7.882812 L 23.644531 7.882812 C 23.792969 7.882812 23.945312 7.882812 24.019531 7.957031 L 24.019531 3.867188 C 24.019531 3.125 23.421875 2.527344 22.679688 2.527344 L 6.394531 2.527344 C 5.652344 2.527344 5.054688 3.125 5.054688 3.867188 L 5.054688 9.964844 L 4.089844 9.964844 C 3.570312 9.964844 3.199219 10.335938 3.199219 10.855469 L 3.199219 21.9375 C 3.199219 22.011719 3.199219 22.011719 3.199219 22.085938 C 3.125 22.085938 3.125 22.160156 3.125 22.160156 L 0.371094 24.390625 C 0 24.761719 -0.0742188 25.28125 0.222656 25.726562 C 0.445312 25.875 0.667969 26.027344 0.964844 26.027344 L 28.109375 26.027344 C 28.628906 26.027344 29 25.652344 29 25.132812 C 29 24.835938 28.851562 24.613281 28.628906 24.390625 Z M 5.949219 3.867188 C 5.949219 3.644531 6.171875 3.421875 6.394531 3.421875 L 22.679688 3.421875 C 22.902344 3.421875 23.125 3.644531 23.125 3.867188 L 23.125 6.097656 L 5.949219 6.097656 Z M 0.964844 25.132812 L 3.71875 22.902344 L 25.355469 22.902344 L 28.109375 25.132812 Z M 0.964844 25.132812 "></path><path style=" stroke:none;fill-rule:nonzero;fill:rgb(25.098039%,76.862745%,100%);fill-opacity:1;" d="M 7.734375 15.167969 C 7.210938 15.167969 6.839844 15.542969 6.839844 16.0625 L 6.839844 18.292969 C 6.839844 18.8125 7.210938 19.183594 7.734375 19.183594 L 9.964844 19.183594 C 10.484375 19.183594 10.855469 18.8125 10.855469 18.292969 L 10.855469 16.0625 C 10.855469 15.542969 10.484375 15.167969 9.964844 15.167969 Z M 9.964844 18.367188 L 7.734375 18.367188 L 7.734375 16.136719 L 9.964844 16.136719 Z M 9.964844 18.367188 "></path><path style=" stroke:none;fill-rule:nonzero;fill:rgb(25.098039%,76.862745%,100%);fill-opacity:1;" d="M 17.175781 15.839844 L 12.269531 15.839844 C 12.046875 15.839844 11.824219 16.0625 11.824219 16.285156 C 11.824219 16.507812 12.046875 16.730469 12.269531 16.730469 L 17.847656 16.730469 C 17.773438 16.582031 17.699219 16.433594 17.699219 16.359375 C 17.472656 16.210938 17.25 16.0625 17.175781 15.839844 Z M 17.175781 15.839844 "></path><path style=" stroke:none;fill-rule:nonzero;fill:rgb(25.098039%,76.862745%,100%);fill-opacity:1;" d="M 11.824219 18.144531 C 11.824219 18.367188 12.046875 18.589844 12.269531 18.589844 L 18.292969 18.589844 C 18.070312 18.292969 17.996094 17.996094 17.921875 17.699219 L 12.269531 17.699219 C 11.972656 17.699219 11.824219 17.847656 11.824219 18.144531 Z M 11.824219 18.144531 "></path><path style=" stroke:none;fill-rule:nonzero;fill:rgb(25.098039%,76.862745%,100%);fill-opacity:1;" d="M 21.339844 8.699219 C 21.488281 8.476562 21.636719 8.328125 21.863281 8.179688 C 21.710938 8.03125 21.488281 7.957031 21.265625 7.957031 L 7.734375 7.957031 C 7.210938 7.957031 6.839844 8.328125 6.839844 8.847656 L 6.839844 13.382812 C 6.839844 13.90625 7.210938 14.277344 7.734375 14.277344 L 16.804688 14.277344 L 16.804688 14.128906 C 16.804688 13.90625 16.878906 13.609375 16.953125 13.382812 L 7.734375 13.382812 L 7.734375 8.847656 L 20.96875 8.847656 C 21.117188 8.773438 21.265625 8.773438 21.339844 8.699219 Z M 21.339844 8.699219 "></path><path style=" stroke:none;fill-rule:nonzero;fill:rgb(25.098039%,76.862745%,100%);fill-opacity:1;" d="M 28.257812 13.011719 C 28.109375 12.640625 27.957031 12.195312 27.808594 11.824219 C 27.957031 11.375 27.882812 10.855469 27.585938 10.558594 L 27.214844 10.1875 C 26.84375 9.816406 26.398438 9.742188 25.953125 9.964844 C 25.578125 9.742188 25.207031 9.59375 24.761719 9.519531 C 24.613281 9.070312 24.167969 8.773438 23.644531 8.773438 L 23.050781 8.773438 C 22.605469 8.773438 22.160156 9.070312 21.9375 9.519531 C 21.5625 9.667969 21.117188 9.816406 20.746094 9.964844 C 20.300781 9.816406 19.78125 9.890625 19.480469 10.1875 L 19.109375 10.558594 C 18.738281 10.929688 18.664062 11.375 18.886719 11.824219 C 18.664062 12.195312 18.515625 12.566406 18.441406 13.011719 C 17.996094 13.160156 17.699219 13.609375 17.699219 14.128906 L 17.699219 14.648438 C 17.699219 15.09375 17.996094 15.542969 18.441406 15.765625 C 18.589844 16.136719 18.738281 16.582031 18.886719 16.953125 C 18.738281 17.398438 18.8125 17.921875 19.109375 18.21875 L 19.480469 18.589844 C 19.855469 18.960938 20.300781 19.035156 20.746094 18.8125 C 21.117188 19.035156 21.488281 19.183594 21.9375 19.257812 C 22.085938 19.707031 22.53125 20.003906 23.050781 20.003906 L 23.570312 20.003906 C 24.019531 20.003906 24.464844 19.707031 24.6875 19.257812 C 25.058594 19.109375 25.503906 18.960938 25.875 18.8125 C 26.324219 18.960938 26.84375 18.886719 27.140625 18.589844 L 27.511719 18.21875 C 27.882812 17.847656 27.957031 17.398438 27.734375 16.953125 C 27.957031 16.582031 28.109375 16.210938 28.183594 15.765625 C 28.628906 15.617188 28.925781 15.167969 28.925781 14.648438 L 28.925781 14.128906 C 29 13.609375 28.703125 13.234375 28.257812 13.011719 Z M 28.035156 14.648438 C 28.035156 14.796875 27.882812 14.945312 27.734375 14.945312 L 27.511719 14.945312 C 27.4375 15.691406 27.140625 16.359375 26.695312 16.953125 L 26.917969 17.175781 C 26.992188 17.25 26.992188 17.472656 26.917969 17.546875 L 26.546875 17.921875 C 26.472656 17.996094 26.25 17.996094 26.175781 17.921875 L 25.953125 17.699219 C 25.355469 18.144531 24.6875 18.441406 23.945312 18.515625 L 23.945312 18.8125 C 23.945312 18.960938 23.792969 19.109375 23.644531 19.109375 L 23.050781 19.109375 C 22.902344 19.109375 22.753906 18.960938 22.753906 18.8125 L 22.753906 18.515625 C 22.011719 18.441406 21.339844 18.144531 20.746094 17.699219 L 20.523438 17.921875 C 20.449219 17.996094 20.226562 17.996094 20.152344 17.921875 L 19.78125 17.546875 C 19.707031 17.472656 19.707031 17.25 19.78125 17.175781 L 20.003906 16.953125 C 19.554688 16.359375 19.257812 15.691406 19.183594 14.945312 L 18.886719 14.945312 C 18.738281 14.945312 18.589844 14.796875 18.589844 14.648438 L 18.589844 14.128906 C 18.589844 13.980469 18.738281 13.832031 18.886719 13.832031 L 19.183594 13.832031 C 19.257812 13.085938 19.554688 12.417969 20.003906 11.824219 L 19.78125 11.601562 C 19.707031 11.527344 19.707031 11.300781 19.78125 11.226562 L 20.152344 10.855469 C 20.226562 10.78125 20.449219 10.78125 20.523438 10.855469 L 20.746094 11.078125 C 21.339844 10.632812 22.011719 10.335938 22.753906 10.261719 L 22.753906 9.964844 C 22.753906 9.816406 22.902344 9.667969 23.050781 9.667969 L 23.570312 9.667969 C 23.71875 9.667969 23.871094 9.816406 23.871094 9.964844 L 23.871094 10.261719 C 24.613281 10.335938 25.28125 10.632812 25.875 11.078125 L 26.101562 10.855469 C 26.175781 10.78125 26.398438 10.78125 26.472656 10.855469 L 26.84375 11.226562 C 26.917969 11.300781 26.917969 11.527344 26.84375 11.601562 L 26.621094 11.824219 C 27.066406 12.417969 27.363281 13.085938 27.4375 13.832031 L 27.734375 13.832031 C 27.882812 13.832031 28.035156 13.980469 28.035156 14.128906 Z M 28.035156 14.648438 "></path><path style=" stroke:none;fill-rule:nonzero;fill:rgb(25.098039%,76.862745%,100%);fill-opacity:1;" d="M 25.652344 13.160156 C 25.503906 13.011719 25.207031 13.011719 24.984375 13.160156 C 24.835938 13.308594 24.835938 13.609375 24.984375 13.832031 L 25.578125 14.425781 L 24.984375 15.019531 C 24.835938 15.167969 24.835938 15.464844 24.984375 15.691406 C 25.132812 15.839844 25.429688 15.839844 25.652344 15.691406 L 26.546875 14.796875 C 26.695312 14.648438 26.695312 14.351562 26.546875 14.128906 Z M 25.652344 13.160156 "></path><path style=" stroke:none;fill-rule:nonzero;fill:rgb(25.098039%,76.862745%,100%);fill-opacity:1;" d="M 21.636719 13.160156 C 21.488281 13.011719 21.191406 13.011719 20.96875 13.160156 L 20.078125 14.054688 C 19.929688 14.203125 19.929688 14.5 20.078125 14.722656 L 20.96875 15.617188 C 21.117188 15.765625 21.414062 15.765625 21.636719 15.617188 C 21.789062 15.464844 21.789062 15.167969 21.636719 14.945312 L 21.042969 14.351562 L 21.636719 13.757812 C 21.789062 13.609375 21.789062 13.308594 21.636719 13.160156 Z M 21.636719 13.160156 "></path><path style=" stroke:none;fill-rule:nonzero;fill:rgb(25.098039%,76.862745%,100%);fill-opacity:1;" d="M 23.945312 12.566406 C 23.71875 12.492188 23.421875 12.640625 23.347656 12.863281 L 22.457031 15.617188 C 22.382812 15.839844 22.53125 16.136719 22.753906 16.210938 C 22.976562 16.285156 23.273438 16.136719 23.347656 15.914062 L 24.242188 13.234375 C 24.316406 12.9375 24.167969 12.640625 23.945312 12.566406 Z M 23.945312 12.566406 "></path><path style=" stroke:none;fill-rule:nonzero;fill:rgb(25.098039%,76.862745%,100%);fill-opacity:1;" d="M 21.710938 4.3125 L 20.820312 4.3125 C 20.597656 4.3125 20.375 4.535156 20.375 4.757812 C 20.375 5.054688 20.597656 5.207031 20.820312 5.207031 L 21.710938 5.207031 C 21.9375 5.207031 22.160156 4.980469 22.160156 4.757812 C 22.160156 4.535156 22.011719 4.3125 21.710938 4.3125 Z M 21.710938 4.3125 "></path><path style=" stroke:none;fill-rule:nonzero;fill:rgb(25.098039%,76.862745%,100%);fill-opacity:1;" d="M 19.035156 4.3125 L 18.144531 4.3125 C 17.921875 4.3125 17.699219 4.535156 17.699219 4.757812 C 17.699219 5.054688 17.847656 5.207031 18.144531 5.207031 L 19.035156 5.207031 C 19.257812 5.207031 19.480469 4.980469 19.480469 4.757812 C 19.480469 4.535156 19.257812 4.3125 19.035156 4.3125 Z M 19.035156 4.3125 "></path></g></svg> 