<?xml version="1.0" encoding="UTF-8"?> <svg xmlns="http://www.w3.org/2000/svg" xmlns:xlink="http://www.w3.org/1999/xlink" width="29pt" height="29pt" viewBox="0 0 29 29" version="1.1"><g id="surface1"><path style=" stroke:none;fill-rule:nonzero;fill:rgb(100%,25.098039%,50.588235%);fill-opacity:1;" d="M 4.90625 14.351562 C 4.90625 13.011719 3.792969 11.898438 2.453125 11.898438 C 1.117188 11.898438 0 13.011719 0 14.351562 C 0 15.691406 1.117188 16.804688 2.453125 16.804688 C 3.792969 16.804688 4.90625 15.691406 4.90625 14.351562 Z M 1.710938 14.351562 C 1.710938 13.90625 2.082031 13.535156 2.527344 13.535156 C 2.972656 13.535156 3.347656 13.90625 3.347656 14.351562 C 3.347656 14.796875 2.972656 15.167969 2.527344 15.167969 C 2.082031 15.167969 1.710938 14.796875 1.710938 14.351562 Z M 1.710938 14.351562 "></path><path style=" stroke:none;fill-rule:nonzero;fill:rgb(100%,25.098039%,50.588235%);fill-opacity:1;" d="M 14.203125 26.546875 L 13.160156 25.503906 L 12.046875 26.621094 L 14.203125 28.851562 L 17.175781 25.875 L 16.0625 24.6875 Z M 14.203125 26.546875 "></path><path style=" stroke:none;fill-rule:nonzero;fill:rgb(100%,25.098039%,50.588235%);fill-opacity:1;" d="M 13.457031 4.535156 L 14.574219 3.421875 L 15.765625 4.535156 L 16.878906 3.421875 L 15.765625 2.304688 L 16.878906 1.117188 L 15.765625 0 L 14.574219 1.117188 L 13.457031 0 L 12.34375 1.117188 L 13.457031 2.304688 L 12.34375 3.421875 Z M 13.457031 4.535156 "></path><path style=" stroke:none;fill-rule:nonzero;fill:rgb(100%,25.098039%,50.588235%);fill-opacity:1;" d="M 27.808594 12.121094 L 26.695312 13.234375 L 25.578125 12.121094 L 24.390625 13.234375 L 25.578125 14.351562 L 24.390625 15.542969 L 25.578125 16.65625 L 26.695312 15.542969 L 27.808594 16.65625 L 29 15.542969 L 27.808594 14.351562 L 29 13.234375 Z M 27.808594 12.121094 "></path><path style=" stroke:none;fill-rule:nonzero;fill:rgb(100%,25.098039%,50.588235%);fill-opacity:1;" d="M 4.238281 18.8125 L 3.941406 18.070312 L 2.453125 18.738281 L 2.75 19.480469 C 4.089844 22.53125 6.46875 24.984375 9.59375 26.324219 L 10.335938 26.621094 L 11.003906 25.132812 L 10.261719 24.835938 C 7.511719 23.644531 5.355469 21.488281 4.238281 18.8125 Z M 4.238281 18.8125 "></path><path style=" stroke:none;fill-rule:nonzero;fill:rgb(100%,25.098039%,50.588235%);fill-opacity:1;" d="M 4.3125 9.667969 C 4.3125 10.117188 3.945312 10.484375 3.496094 10.484375 C 3.042969 10.484375 2.675781 10.117188 2.675781 9.667969 C 2.675781 9.214844 3.042969 8.847656 3.496094 8.847656 C 3.945312 8.847656 4.3125 9.214844 4.3125 9.667969 Z M 4.3125 9.667969 "></path><path style=" stroke:none;fill-rule:nonzero;fill:rgb(100%,25.098039%,50.588235%);fill-opacity:1;" d="M 5.875 6.988281 C 5.875 7.441406 5.507812 7.808594 5.054688 7.808594 C 4.605469 7.808594 4.238281 7.441406 4.238281 6.988281 C 4.238281 6.539062 4.605469 6.171875 5.054688 6.171875 C 5.507812 6.171875 5.875 6.539062 5.875 6.988281 Z M 5.875 6.988281 "></path><path style=" stroke:none;fill-rule:nonzero;fill:rgb(100%,25.098039%,50.588235%);fill-opacity:1;" d="M 8.03125 4.832031 C 8.03125 5.285156 7.664062 5.652344 7.210938 5.652344 C 6.761719 5.652344 6.394531 5.285156 6.394531 4.832031 C 6.394531 4.382812 6.761719 4.015625 7.210938 4.015625 C 7.664062 4.015625 8.03125 4.382812 8.03125 4.832031 Z M 8.03125 4.832031 "></path><path style=" stroke:none;fill-rule:nonzero;fill:rgb(100%,25.098039%,50.588235%);fill-opacity:1;" d="M 10.707031 3.273438 C 10.707031 3.722656 10.339844 4.089844 9.890625 4.089844 C 9.4375 4.089844 9.070312 3.722656 9.070312 3.273438 C 9.070312 2.820312 9.4375 2.453125 9.890625 2.453125 C 10.339844 2.453125 10.707031 2.820312 10.707031 3.273438 Z M 10.707031 3.273438 "></path><path style=" stroke:none;fill-rule:nonzero;fill:rgb(100%,25.098039%,50.588235%);fill-opacity:1;" d="M 20.152344 3.273438 C 20.152344 3.722656 19.785156 4.089844 19.332031 4.089844 C 18.882812 4.089844 18.515625 3.722656 18.515625 3.273438 C 18.515625 2.820312 18.882812 2.453125 19.332031 2.453125 C 19.785156 2.453125 20.152344 2.820312 20.152344 3.273438 Z M 20.152344 3.273438 "></path><path style=" stroke:none;fill-rule:nonzero;fill:rgb(100%,25.098039%,50.588235%);fill-opacity:1;" d="M 22.828125 4.832031 C 22.828125 5.285156 22.460938 5.652344 22.011719 5.652344 C 21.558594 5.652344 21.191406 5.285156 21.191406 4.832031 C 21.191406 4.382812 21.558594 4.015625 22.011719 4.015625 C 22.460938 4.015625 22.828125 4.382812 22.828125 4.832031 Z M 22.828125 4.832031 "></path><path style=" stroke:none;fill-rule:nonzero;fill:rgb(100%,25.098039%,50.588235%);fill-opacity:1;" d="M 24.984375 6.988281 C 24.984375 7.441406 24.617188 7.808594 24.167969 7.808594 C 23.714844 7.808594 23.347656 7.441406 23.347656 6.988281 C 23.347656 6.539062 23.714844 6.171875 24.167969 6.171875 C 24.617188 6.171875 24.984375 6.539062 24.984375 6.988281 Z M 24.984375 6.988281 "></path><path style=" stroke:none;fill-rule:nonzero;fill:rgb(100%,25.098039%,50.588235%);fill-opacity:1;" d="M 26.546875 9.667969 C 26.546875 10.117188 26.179688 10.484375 25.726562 10.484375 C 25.277344 10.484375 24.910156 10.117188 24.910156 9.667969 C 24.910156 9.214844 25.277344 8.847656 25.726562 8.847656 C 26.179688 8.847656 26.546875 9.214844 26.546875 9.667969 Z M 26.546875 9.667969 "></path><path style=" stroke:none;fill-rule:nonzero;fill:rgb(100%,25.098039%,50.588235%);fill-opacity:1;" d="M 26.546875 19.109375 C 26.546875 19.5625 26.179688 19.929688 25.726562 19.929688 C 25.277344 19.929688 24.910156 19.5625 24.910156 19.109375 C 24.910156 18.660156 25.277344 18.292969 25.726562 18.292969 C 26.179688 18.292969 26.546875 18.660156 26.546875 19.109375 Z M 26.546875 19.109375 "></path><path style=" stroke:none;fill-rule:nonzero;fill:rgb(100%,25.098039%,50.588235%);fill-opacity:1;" d="M 24.984375 21.789062 C 24.984375 22.238281 24.617188 22.605469 24.167969 22.605469 C 23.714844 22.605469 23.347656 22.238281 23.347656 21.789062 C 23.347656 21.335938 23.714844 20.96875 24.167969 20.96875 C 24.617188 20.96875 24.984375 21.335938 24.984375 21.789062 Z M 24.984375 21.789062 "></path><path style=" stroke:none;fill-rule:nonzero;fill:rgb(100%,25.098039%,50.588235%);fill-opacity:1;" d="M 22.828125 23.945312 C 22.828125 24.394531 22.460938 24.761719 22.011719 24.761719 C 21.558594 24.761719 21.191406 24.394531 21.191406 23.945312 C 21.191406 23.492188 21.558594 23.125 22.011719 23.125 C 22.460938 23.125 22.828125 23.492188 22.828125 23.945312 Z M 22.828125 23.945312 "></path><path style=" stroke:none;fill-rule:nonzero;fill:rgb(100%,25.098039%,50.588235%);fill-opacity:1;" d="M 20.152344 25.503906 C 20.152344 25.957031 19.785156 26.324219 19.332031 26.324219 C 18.882812 26.324219 18.515625 25.957031 18.515625 25.503906 C 18.515625 25.054688 18.882812 24.6875 19.332031 24.6875 C 19.785156 24.6875 20.152344 25.054688 20.152344 25.503906 Z M 20.152344 25.503906 "></path></g></svg> 