<?xml version="1.0" encoding="UTF-8"?> <svg xmlns="http://www.w3.org/2000/svg" xmlns:xlink="http://www.w3.org/1999/xlink" width="29pt" height="29pt" viewBox="0 0 29 29" version="1.1"><g id="surface1"><path style=" stroke:none;fill-rule:nonzero;fill:rgb(100%,25.098039%,50.588235%);fill-opacity:1;" d="M 24.09375 8.847656 L 24.09375 5.578125 C 24.09375 3.273438 22.234375 1.339844 19.855469 1.339844 L 8.625 1.339844 C 6.46875 1.414062 4.683594 2.972656 4.460938 5.128906 L 0.667969 5.128906 L 0.667969 21.042969 L 8.179688 21.042969 L 8.179688 24.761719 L 10.261719 24.761719 L 11.898438 28.183594 L 12.046875 28.554688 L 12.9375 28.332031 L 12.863281 28.035156 L 12.863281 24.835938 L 15.617188 24.835938 L 15.617188 28.035156 L 15.691406 28.332031 L 16.285156 28.554688 L 20.078125 24.761719 L 27.808594 24.761719 L 27.808594 8.847656 Z M 8.625 2.304688 L 19.855469 2.304688 C 21.636719 2.304688 23.125 3.792969 23.125 5.578125 L 23.125 8.847656 L 20.300781 8.847656 L 20.300781 5.128906 L 5.429688 5.128906 C 5.652344 3.496094 6.988281 2.304688 8.625 2.304688 Z M 9.070312 23.792969 L 9.070312 22.382812 L 9.742188 23.792969 Z M 11.898438 26.027344 L 11.300781 24.761719 L 10.855469 23.792969 L 9.144531 20.300781 L 8.996094 20.078125 L 1.636719 20.078125 L 1.636719 6.023438 L 19.40625 6.023438 L 19.40625 20.078125 L 11.898438 20.078125 Z M 26.84375 23.792969 L 19.628906 23.792969 L 16.582031 26.84375 L 16.582031 23.792969 L 12.863281 23.792969 L 12.863281 20.96875 L 20.375 20.96875 L 20.375 9.816406 L 26.917969 9.816406 L 26.917969 23.792969 Z M 26.84375 23.792969 "></path><path style=" stroke:none;fill-rule:nonzero;fill:rgb(100%,25.098039%,50.588235%);fill-opacity:1;" d="M 16.285156 28.777344 L 15.464844 28.480469 L 15.390625 28.035156 L 15.390625 24.984375 L 12.9375 24.984375 L 12.9375 28.035156 L 13.085938 28.480469 L 11.898438 28.703125 L 11.75 28.183594 L 10.113281 24.910156 L 7.957031 24.910156 L 7.957031 21.191406 L 0.519531 21.191406 L 0.519531 4.90625 L 4.3125 4.90625 C 4.609375 2.75 6.46875 1.191406 8.625 1.191406 L 19.855469 1.191406 C 22.308594 1.191406 24.242188 3.199219 24.242188 5.578125 L 24.242188 8.699219 L 27.957031 8.699219 L 27.957031 24.984375 L 20.152344 24.984375 Z M 15.839844 28.183594 L 16.210938 28.332031 L 19.929688 24.613281 L 27.585938 24.613281 L 27.585938 9.070312 L 23.871094 9.070312 L 23.871094 5.578125 C 23.871094 3.347656 22.085938 1.5625 19.855469 1.5625 L 8.625 1.5625 C 6.542969 1.5625 4.832031 3.125 4.609375 5.128906 L 4.609375 5.28125 L 0.890625 5.28125 L 0.890625 20.820312 L 8.402344 20.820312 L 8.402344 24.539062 L 10.410156 24.539062 L 12.121094 28.035156 L 12.195312 28.257812 L 12.714844 28.109375 L 12.714844 24.539062 L 15.914062 24.539062 L 15.914062 27.957031 Z M 16.359375 27.363281 L 16.359375 24.019531 L 12.640625 24.019531 L 12.640625 20.820312 L 20.152344 20.820312 L 20.152344 9.59375 L 27.066406 9.59375 L 27.066406 24.019531 L 19.78125 24.019531 Z M 13.011719 23.644531 L 16.730469 23.644531 L 16.730469 26.472656 L 19.554688 23.644531 L 26.621094 23.644531 L 26.621094 9.964844 L 20.449219 9.964844 L 20.449219 21.191406 L 13.011719 21.191406 Z M 12.121094 26.84375 L 8.921875 20.300781 L 1.488281 20.300781 L 1.488281 5.875 L 19.628906 5.875 L 19.628906 20.300781 L 12.121094 20.300781 Z M 1.785156 19.855469 L 9.070312 19.855469 L 11.675781 25.207031 L 11.675781 19.855469 L 19.183594 19.855469 L 19.183594 6.246094 L 1.785156 6.246094 Z M 10.039062 24.019531 L 8.921875 24.019531 L 8.921875 21.636719 Z M 9.292969 23.644531 L 9.519531 23.644531 L 9.292969 23.273438 Z M 23.273438 9.070312 L 20.078125 9.070312 L 20.078125 5.355469 L 5.207031 5.355469 L 5.207031 5.128906 C 5.429688 3.421875 6.914062 2.15625 8.625 2.15625 L 19.855469 2.15625 C 21.789062 2.15625 23.273438 3.71875 23.347656 5.578125 L 23.347656 9.070312 Z M 20.523438 8.699219 L 22.976562 8.699219 L 22.976562 5.578125 C 22.976562 3.867188 21.5625 2.527344 19.855469 2.527344 L 8.625 2.527344 C 7.210938 2.527344 5.949219 3.570312 5.652344 4.90625 L 20.523438 4.90625 Z M 20.523438 8.699219 "></path></g></svg> 