<?xml version="1.0" encoding="UTF-8"?> <svg xmlns="http://www.w3.org/2000/svg" xmlns:xlink="http://www.w3.org/1999/xlink" width="29pt" height="29pt" viewBox="0 0 29 29" version="1.1"><g id="surface1"><path style=" stroke:none;fill-rule:nonzero;fill:rgb(93.72549%,26.27451%,20.784314%);fill-opacity:1;" d="M 4.3125 14.796875 C 4.3125 18.441406 4.3125 22.011719 4.3125 25.652344 C 4.3125 26.101562 4.683594 26.472656 5.128906 26.472656 C 8.105469 26.472656 11.078125 26.472656 14.054688 26.472656 C 14.5 26.472656 14.871094 26.101562 14.871094 25.652344 C 14.871094 23.945312 14.871094 22.234375 14.871094 20.523438 C 14.871094 19.40625 13.160156 19.40625 13.160156 20.523438 C 13.160156 22.234375 13.160156 23.945312 13.160156 25.652344 C 13.457031 25.355469 13.757812 25.058594 13.980469 24.835938 C 11.003906 24.835938 8.03125 24.835938 5.054688 24.835938 C 5.355469 25.132812 5.652344 25.429688 5.875 25.652344 C 5.875 22.011719 5.875 18.441406 5.875 14.796875 C 6.023438 13.683594 4.3125 13.683594 4.3125 14.796875 Z M 4.3125 14.796875 "></path><path style=" stroke:none;fill-rule:nonzero;fill:rgb(93.72549%,26.27451%,20.784314%);fill-opacity:1;" d="M 17.847656 26.546875 C 19.78125 26.546875 21.789062 26.546875 23.71875 26.546875 C 24.167969 26.546875 24.539062 26.175781 24.539062 25.726562 C 24.539062 22.160156 24.539062 18.515625 24.539062 14.945312 C 24.539062 13.832031 22.828125 13.832031 22.828125 14.945312 C 22.828125 18.515625 22.828125 22.160156 22.828125 25.726562 C 23.125 25.429688 23.421875 25.132812 23.644531 24.910156 C 21.710938 24.910156 19.707031 24.910156 17.773438 24.910156 C 16.804688 24.835938 16.804688 26.546875 17.847656 26.546875 Z M 17.847656 26.546875 "></path><path style=" stroke:none;fill-rule:nonzero;fill:rgb(93.72549%,26.27451%,20.784314%);fill-opacity:1;" d="M 1.488281 14.425781 C 5.949219 10.855469 10.410156 7.363281 14.871094 3.792969 C 14.425781 3.792969 14.054688 3.792969 13.683594 3.792969 C 18.292969 7.363281 22.828125 10.855469 27.4375 14.425781 C 28.332031 15.09375 29.519531 13.90625 28.628906 13.234375 C 24.09375 9.667969 19.480469 6.097656 14.871094 2.601562 C 14.425781 2.304688 14.054688 2.304688 13.683594 2.601562 C 9.21875 6.171875 4.757812 9.667969 0.296875 13.234375 C -0.59375 13.90625 0.667969 15.09375 1.488281 14.425781 Z M 1.488281 14.425781 "></path><path style=" stroke:none;fill-rule:nonzero;fill:rgb(93.72549%,26.27451%,20.784314%);fill-opacity:1;" d="M 9.21875 15.167969 C 12.269531 12.34375 16.730469 12.34375 19.78125 15.167969 C 20.597656 15.914062 21.789062 14.722656 20.96875 13.980469 C 17.25 10.484375 11.75 10.484375 7.957031 13.980469 C 7.210938 14.722656 8.402344 15.988281 9.21875 15.167969 Z M 9.21875 15.167969 "></path><path style=" stroke:none;fill-rule:nonzero;fill:rgb(93.72549%,26.27451%,20.784314%);fill-opacity:1;" d="M 12.046875 18.144531 C 13.457031 16.804688 15.542969 16.804688 17.027344 18.144531 C 17.847656 18.886719 19.035156 17.699219 18.21875 16.953125 C 16.0625 14.945312 13.011719 14.945312 10.855469 16.953125 C 10.039062 17.625 11.226562 18.886719 12.046875 18.144531 Z M 12.046875 18.144531 "></path><path style=" stroke:none;fill-rule:nonzero;fill:rgb(93.72549%,26.27451%,20.784314%);fill-opacity:1;" d="M 15.617188 20.746094 C 15.617188 21.527344 14.984375 22.160156 14.203125 22.160156 C 13.421875 22.160156 12.789062 21.527344 12.789062 20.746094 C 12.789062 19.964844 13.421875 19.332031 14.203125 19.332031 C 14.984375 19.332031 15.617188 19.964844 15.617188 20.746094 Z M 15.617188 20.746094 "></path></g></svg> 