<?xml version="1.0" encoding="UTF-8"?> <!-- Generator: Adobe Illustrator 23.0.3, SVG Export Plug-In . SVG Version: 6.00 Build 0) --> <svg xmlns="http://www.w3.org/2000/svg" xmlns:xlink="http://www.w3.org/1999/xlink" version="1.1" id="Layer_1" x="0px" y="0px" viewBox="0 0 476 376" style="enable-background:new 0 0 476 376;" xml:space="preserve"> <style type="text/css"> .st0{fill:#2176FF;} .st1{fill:none;stroke:#D7D7D7;stroke-width:9.978;stroke-linecap:round;stroke-linejoin:round;stroke-miterlimit:10;stroke-dasharray:9.6864,19.3728;} .st2{fill:#D7D7D7;} .st3{fill:#EF4934;stroke:#311C45;stroke-width:4.8528;stroke-linecap:round;stroke-linejoin:round;stroke-miterlimit:10;} .st4{fill:#FDBE23;stroke:#311C45;stroke-width:4.8528;stroke-linecap:round;stroke-linejoin:round;stroke-miterlimit:10;} .st5{fill:#C0916E;} .st6{fill:#311C45;} .st7{fill:#C63F96;stroke:#311C45;stroke-width:5.6155;stroke-linecap:round;stroke-linejoin:round;stroke-miterlimit:10;} .st8{fill:#CA91AB;} .st9{fill:#FDBE23;stroke:#311C45;stroke-width:5.6155;stroke-linecap:round;stroke-linejoin:round;stroke-miterlimit:10;} .st10{fill:#DEBF95;} .st11{fill:none;stroke:#FFFFFF;stroke-width:5.6155;stroke-linecap:round;stroke-linejoin:round;stroke-miterlimit:10;} .st12{fill:#0082AC;stroke:#311C45;stroke-width:4.8528;stroke-linecap:round;stroke-linejoin:round;stroke-miterlimit:10;} .st13{fill:#00AEB3;stroke:#311C45;stroke-width:4.8528;stroke-linecap:round;stroke-linejoin:round;stroke-miterlimit:10;} .st14{fill:#7AB3CD;} .st15{fill:none;stroke:#FFFFFF;stroke-width:4.8528;stroke-linecap:round;stroke-linejoin:round;stroke-miterlimit:10;} .st16{fill:#00AEB3;stroke:#311C45;stroke-width:3.9309;stroke-linecap:round;stroke-linejoin:round;stroke-miterlimit:10;} .st17{fill:#71B2CE;} .st18{fill:#FDBE23;stroke:#311C45;stroke-width:1.2523;stroke-miterlimit:10;} .st19{fill:#FBB225;stroke:#311C45;stroke-width:1.2523;stroke-miterlimit:10;} .st20{fill:#EF4934;stroke:#311C45;stroke-width:1.2523;stroke-miterlimit:10;} .st21{fill:#0082AC;stroke:#311C45;stroke-width:9.978;stroke-miterlimit:10;} .st22{fill:#B4B3CF;} .st23{fill:#CAC8D9;} .st24{fill:#00AEB3;stroke:#311C45;stroke-width:9.978;stroke-miterlimit:10;} .st25{fill:#C63F96;stroke:#311C45;stroke-width:9.978;stroke-miterlimit:10;} </style> <path class="st0" d="M425.2,356.3c-2.7,0-5.3,0-8,0c-8.2-3.9-16.5-7.6-24.5-11.9c-41.1-21.5-84.6-29.6-130.5-23.3 c-33.1,4.6-66.1,10.3-99.2,15.7c-24.3,4-48.5,7.4-73.2,4.5C58,337.8,34.3,322.8,21,293.1c-3.3-7.4-6-15.1-8.6-22.8 C-5.4,217,2,167.1,33,120.4c13.4-20.1,28.5-38.7,45.5-55.8c31.1-31.2,68.4-50.9,111.6-59.3c10.2-2,20.6-3,30.9-4.5 c7.6,0,15.3,0,22.9,0c1.4,0.3,2.9,0.7,4.4,0.8c62.5,4.4,116,29.8,162.1,71.1c35.9,32.2,53.2,74.4,60.5,121.1c2,12.6,2.8,25.3,4.1,38 c0,5,0,10,0,14.9c-0.3,2.3-0.7,4.6-0.9,6.8c-1.1,20.5-5.2,40.4-12.3,59.7C455,332.3,445.4,348.8,425.2,356.3z"></path> <line class="st1" x1="112" y1="267.3" x2="54.5" y2="276.6"></line> <path class="st2" d="M83.3,163.3c0,22.4-18.1,40.5-40.5,40.5c-22.4,0-40.5-18.1-40.5-40.5s18.1-40.5,40.5-40.5 C65.2,122.9,83.3,141,83.3,163.3z"></path> <path class="st3" d="M63,152.3c0-11.8-9.5-21.3-21.3-21.3s-21.3,9.5-21.3,21.3c0,3.7,0.9,7.2,2.6,10.2l18.5,34.3l19-34.3 C62,159.4,63,155.9,63,152.3z"></path> <path class="st4" d="M53.4,152.7c0,6.5-5.3,11.8-11.8,11.8c-6.5,0-11.8-5.3-11.8-11.8c0-6.5,5.3-11.8,11.8-11.8 C48.1,141,53.4,146.2,53.4,152.7z"></path> <path class="st5" d="M37.1,188.8l4.3,7.9l19-34.3c1.6-3,2.6-6.5,2.6-10.2c0-4.5-1.4-8.7-3.8-12.2C59.4,156,42.8,180.8,37.1,188.8z"></path> <path class="st2" d="M188.6,90.7c0,25.9-21,46.8-46.8,46.8c-25.9,0-46.8-21-46.8-46.8c0-25.9,21-46.8,46.8-46.8 C167.7,43.9,188.6,64.8,188.6,90.7z"></path> <g> <path class="st6" d="M154.7,116.2c-0.6,0-1.2-0.2-1.8-0.5l-34.4-22.5c-0.9-0.6-1.5-1.6-1.5-2.7c0-1.1,0.5-2.1,1.5-2.8l33.7-22.5 c1.5-1,3.6-0.6,4.6,0.9c1,1.5,0.6,3.6-0.9,4.6l-29.6,19.7l30.2,19.7c1.5,1,1.9,3,1,4.6C156.8,115.7,155.8,116.2,154.7,116.2z"></path> </g> <path class="st7" d="M130.7,91.5c0,5.7-4.7,10.4-10.4,10.4c-5.7,0-10.4-4.7-10.4-10.4c0-5.7,4.7-10.4,10.4-10.4 C126.1,81.1,130.7,85.8,130.7,91.5z"></path> <path class="st8" d="M126.8,83.4c0.3,1.1,0.4,2.2,0.4,3.4c0,7.1-5.6,13-12.6,13.5c1.6,1,3.5,1.6,5.6,1.6c5.7,0,10.4-4.7,10.4-10.4 C130.7,88.2,129.2,85.3,126.8,83.4z"></path> <path class="st7" d="M165.1,69c0,5.7-4.7,10.4-10.4,10.4c-5.7,0-10.4-4.7-10.4-10.4c0-5.7,4.7-10.4,10.4-10.4 C160.4,58.6,165.1,63.3,165.1,69z"></path> <path class="st8" d="M161.2,60.9c0.3,1.1,0.4,2.2,0.4,3.4c0,7.1-5.6,13-12.6,13.5c1.6,1,3.5,1.6,5.6,1.6c5.7,0,10.4-4.7,10.4-10.4 C165.1,65.8,163.6,62.8,161.2,60.9z"></path> <path class="st7" d="M165.1,114c0,5.7-4.7,10.4-10.4,10.4c-5.7,0-10.4-4.7-10.4-10.4c0-5.7,4.7-10.4,10.4-10.4 C160.4,103.6,165.1,108.2,165.1,114z"></path> <path class="st8" d="M161.2,105.9c0.3,1.1,0.4,2.2,0.4,3.4c0,7.1-5.6,13-12.6,13.5c1.6,1,3.5,1.6,5.6,1.6c5.7,0,10.4-4.7,10.4-10.4 C165.1,110.7,163.6,107.8,161.2,105.9z"></path> <path class="st2" d="M309,88.7c0,25.9-21,46.8-46.8,46.8c-25.9,0-46.8-21-46.8-46.8c0-25.9,21-46.8,46.8-46.8 C288,41.9,309,62.9,309,88.7z"></path> <g> <path class="st6" d="M280.6,82.8h-6.9V67.4c0-6.4-5.2-11.6-11.6-11.6c-6.4,0-11.6,5.2-11.6,11.6v15.4h-6.9V67.4 c0-10.2,8.3-18.4,18.4-18.4c10.2,0,18.4,8.3,18.4,18.4V82.8z"></path> </g> <path class="st9" d="M283.8,121.2c0,0.4-0.3,0.7-0.7,0.7h-41.8c-0.4,0-0.7-0.3-0.7-0.7V82.1c0-0.4,0.3-0.7,0.7-0.7h41.8 c0.4,0,0.7,0.3,0.7,0.7V121.2z"></path> <path class="st6" d="M268.1,97.3c0-3.2-2.6-5.9-5.9-5.9c-3.2,0-5.9,2.6-5.9,5.9c0,1.7,0.7,3.3,1.9,4.3l-1.3,10.6H267l-0.9-10.5 C267.3,100.6,268.1,99,268.1,97.3z"></path> <path class="st10" d="M283.1,81.4h-4.8c0,7.1,0,19.1,0,24.5c0,7.9-9.6,6.9-9.6,6.9h-28.2v8.4c0,0.4,0.3,0.7,0.7,0.7h41.8 c0.4,0,0.7-0.3,0.7-0.7V82.1C283.8,81.7,283.5,81.4,283.1,81.4z"></path> <g> <line class="st11" x1="243.6" y1="85.3" x2="243.6" y2="89.8"></line> <line class="st11" x1="243.6" y1="91.1" x2="243.6" y2="93.2"></line> </g> <path class="st2" d="M375.3,166.6c0,22.4-18.1,40.5-40.5,40.5c-22.4,0-40.5-18.1-40.5-40.5c0-22.4,18.1-40.5,40.5-40.5 C357.1,126.1,375.3,144.2,375.3,166.6z"></path> <rect x="331.5" y="165.4" class="st4" width="4.7" height="18"></rect> <rect x="315.8" y="182.4" class="st4" width="18" height="4.7"></rect> <path class="st12" d="M329.1,184.8c0,2.6,2.1,4.7,4.7,4.7s4.7-2.1,4.7-4.7s-2.1-4.7-4.7-4.7S329.1,182.2,329.1,184.8z"></path> <rect x="308" y="148.4" class="st12" width="51.5" height="19.6"></rect> <rect x="359.5" y="151.1" class="st13" width="4.1" height="14.3"></rect> <rect x="363.6" y="153.9" class="st12" width="3.3" height="8.8"></rect> <rect x="311.8" y="178.7" class="st12" width="5.9" height="13.1"></rect> <path class="st14" d="M308,148.4h4.7c-1.6,14.1,8.9,13.2,8.9,13.2h37.9v6.4H308V148.4z"></path> <path class="st4" d="M310.6,145.8h46.2c2.1,0-0.5,6.5-1.3,8.1c-1,2.3-3.6,2.5-5,2.5h-33.7c-1.4,0-4-0.2-5-2.5 C311.1,152.2,308.5,145.8,310.6,145.8z"></path> <g> <line class="st15" x1="334.6" y1="170" x2="334.6" y2="174"></line> <line class="st15" x1="334.6" y1="175.2" x2="334.6" y2="177.2"></line> </g> <g> <line class="st15" x1="326.3" y1="185.6" x2="322.2" y2="185.6"></line> <line class="st15" x1="321" y1="185.6" x2="319" y2="185.6"></line> </g> <path class="st10" d="M310.6,145.8h3.4c3.1,6.3,9.6,7,9.6,7h32.4c-0.2,0.5-0.4,0.9-0.5,1.1c-1,2.3-3.6,2.5-5,2.5h-33.7 c-1.4,0-4-0.2-5-2.5C311.1,152.2,308.5,145.8,310.6,145.8z"></path> <rect x="311.8" y="178.7" class="st14" width="3" height="13.1"></rect> <path class="st2" d="M395,262.6c0,18.1-14.7,32.8-32.8,32.8c-18.1,0-32.8-14.7-32.8-32.8c0-18.1,14.7-32.8,32.8-32.8 C380.3,229.9,395,244.5,395,262.6z"></path> <path class="st16" d="M391,264.1c0-5.2-4.6-8.1-8.7-8.4c-1.5-3.5-5-5.9-9-5.9c-2.9,0-5.5,1.2-7.3,3.2c-1.8-1.5-4.1-2.4-6.7-2.4 c-3.8,0-7,2-8.9,4.9c-1.3-0.5-2.7-0.8-4.1-0.8c-5.8,0-10.6,4.6-10.6,10.4c0,5.7,4.7,10.4,10.6,10.4c1.9,0,26.9,0,30.4,0 C386.9,275.5,391,271.3,391,264.1z"></path> <path class="st17" d="M388.2,258c-6.2,11.5-18.4,10.4-18.4,10.4h-33.3c1.4,4.1,5.4,7,10,7c1.9,0,26.9,0,30.4,0 c10.1,0,14.3-4.2,14.3-11.3C391,261.4,389.9,259.4,388.2,258z"></path> <path class="st2" d="M67.5,277.9c0,18.1-14.7,32.8-32.8,32.8S2,296,2,277.9c0-18.1,14.7-32.8,32.8-32.8S67.5,259.8,67.5,277.9z"></path> <path class="st18" d="M58.2,292.5c0,0.4-0.3,0.8-0.8,0.8H13.1c-0.4,0-0.8-0.3-0.8-0.8v-28.4c0-0.4,0.3-0.8,0.8-0.8h44.4 c0.4,0,0.8,0.3,0.8,0.8V292.5z"></path> <path class="st19" d="M58.2,292.5c0,0.4-0.3,0.8-0.8,0.8H13.1c-0.4,0-0.8-0.3-0.8-0.8l23-14.2L58.2,292.5z"></path> <path class="st20" d="M35.3,281.8l-23-17.6c0-0.4,0.3-0.8,0.8-0.8h44.4c0.4,0,0.8,0.3,0.8,0.8L35.3,281.8z"></path> <path class="st10" d="M57.5,263.4H54c0.2,3.9,0.3,8.8,0.3,13.8c0,12.7-9.4,11.7-9.4,11.7H12.3v3.7c0,0.4,0.3,0.8,0.8,0.8h44.4 c0.4,0,0.8-0.3,0.8-0.8v-28.4C58.2,263.8,57.9,263.4,57.5,263.4z"></path> <line class="st1" x1="67.7" y1="175.9" x2="113.6" y2="204.4"></line> <line class="st1" x1="160.9" y1="187.8" x2="152.5" y2="128"></line> <line class="st1" x1="200.6" y1="193.6" x2="247" y2="122.8"></line> <line class="st1" x1="205" y1="215.9" x2="304.6" y2="180.8"></line> <line class="st1" x1="204.3" y1="228.6" x2="336.7" y2="252"></line> <path class="st21" d="M212.4,359.5c0,4.8-4.2,8.8-9.4,8.8h-96.6c-5.2,0-9.5-3.9-9.5-8.8v-170c0-4.8,4.2-8.8,9.5-8.8H203 c5.2,0,9.4,3.9,9.4,8.8V359.5z"></path> <rect x="97" y="198.7" class="st6" width="115.5" height="146.8"></rect> <path class="st6" d="M173.1,191.1c0,1.4-1.2,2.6-2.6,2.6h-32.6c-1.4,0-2.6-1.2-2.6-2.6l0,0c0-1.4,1.2-2.6,2.6-2.6h32.6 C171.9,188.5,173.1,189.6,173.1,191.1L173.1,191.1z"></path> <path class="st6" d="M160.4,354.9c0,3.4-2.8,6.2-6.2,6.2c-3.4,0-6.2-2.8-6.2-6.2c0-3.4,2.8-6.2,6.2-6.2 C157.6,348.7,160.4,351.5,160.4,354.9z"></path> <path class="st14" d="M203,180.8h-10.2c0,33.3,0,116.1,0,134.9c0,23.1-19.7,19.9-19.7,19.9H97v23.9c0,4.8,4.2,8.8,9.5,8.8H203 c5.2,0,9.4-3.9,9.4-8.8v-170C212.4,184.7,208.2,180.8,203,180.8z"></path> <path class="st6" d="M250.4,344.5c0-1.3,1.1-2.4,2.4-2.4H321c1.3,0,2.4,1.1,2.4,2.4l-4.4,23.9c0,1.3-1.1,2.4-2.4,2.4h-59.4 c-1.3,0-2.4-1.1-2.4-2.4L250.4,344.5z"></path> <path class="st6" d="M323.5,277.1c0,1.3-1.1,2.4-2.4,2.4h-68.2c-1.3,0-2.4-1.1-2.4-2.4l4.4-23.9c0-1.3,1.1-2.4,2.4-2.4h59.4 c1.3,0,2.4,1.1,2.4,2.4L323.5,277.1z"></path> <path class="st22" d="M252.6,265.1l-2.3,12.1c0,1.3,1.1,2.4,2.4,2.4H321c1.3,0,2.4-1.1,2.4-2.4l-2.2-12.1H252.6z"></path> <path class="st23" d="M321.6,354.5l1.9-10.1c0-1.3-1.1-2.4-2.4-2.4h-68.2c-1.3,0-2.4,1.1-2.4,2.4l1.8,10.1H321.6z"></path> <path class="st6" d="M335.2,305.9c0,1.3-1.1,2.4-2.4,2.4h-3.4c-1.3,0-2.4-1.1-2.4-2.4v-15.4c0-1.3,1.1-2.4,2.4-2.4h3.4 c1.3,0,2.4,1.1,2.4,2.4V305.9z"></path> <path class="st6" d="M335.2,328.7c0,1-1.1,1.9-2.4,1.9h-3.4c-1.3,0-2.4-0.8-2.4-1.9v-11.8c0-1,1.1-1.9,2.4-1.9h3.4 c1.3,0,2.4,0.8,2.4,1.9V328.7z"></path> <path class="st21" d="M330.3,343.6c0,2-1.7,3.6-3.8,3.6h-80.4c-2.1,0-3.8-1.6-3.8-3.6v-67.3c0-2,1.7-3.6,3.8-3.6h80.4 c2.1,0,3.8,1.6,3.8,3.6V343.6z"></path> <rect x="249.8" y="280.4" class="st6" width="73.1" height="59.1"></rect> <path class="st14" d="M326.5,272.7h-5.8c0,12,0,35.3,0,46.2c0,15.1-13.6,13.6-13.6,13.6h-64.8v11.1c0,2,1.7,3.6,3.8,3.6h80.4 c2.1,0,3.8-1.6,3.8-3.6v-67.3C330.3,274.3,328.6,272.7,326.5,272.7z"></path> <path class="st24" d="M249.8,367.8c0,1.7-1.4,3-3,3h-78.2c-1.7,0-3-1.4-3-3v-68.2c0-1.7,1.4-3,3-3h39.6h38.5c1.7,0,3,1.4,3,3V367.8z "></path> <g> <rect x="187.6" y="315.3" class="st6" width="17.4" height="17.4"></rect> <rect x="210.4" y="315.3" class="st6" width="17.4" height="17.4"></rect> <rect x="187.6" y="337.4" class="st6" width="17.4" height="17.4"></rect> <rect x="210.4" y="337.4" class="st6" width="17.4" height="17.4"></rect> </g> <path class="st17" d="M246.8,296.5h-8.3c0,9.9,0,26.2,0,38.6c0,26.1-19.3,23.6-19.3,23.6h-53.6v9.2c0,1.7,1.4,3,3,3h78.2 c1.7,0,3-1.4,3-3v-68.2C249.8,297.9,248.5,296.5,246.8,296.5z"></path> <polygon class="st25" points="261.6,303.8 207.7,250.9 153.8,303.8 "></polygon> <path class="st8" d="M153.8,303.8h107.9l-24-23.5c2.6,11.3-12.8,12.9-12.8,12.9h-60.3L153.8,303.8z"></path> </svg> 