<?xml version="1.0" encoding="UTF-8"?> <!-- Generator: Adobe Illustrator 25.1.0, SVG Export Plug-In . SVG Version: 6.00 Build 0) --> <svg xmlns="http://www.w3.org/2000/svg" xmlns:xlink="http://www.w3.org/1999/xlink" version="1.1" id="Layer_1" x="0px" y="0px" viewBox="0 0 30 30" style="enable-background:new 0 0 30 30;" xml:space="preserve"> <style type="text/css"> .st0{fill:#2684FF;} .st1{fill:url(#SVGID_1_);} .st2{fill:url(#SVGID_2_);} </style> <path class="st0" d="M29,14.2L15.9,1.1l-1.3-1.3L4.8,9.7l-4.5,4.5c-0.5,0.5-0.5,1.2,0,1.7l9,9l5.3,5.3l9.8-9.8l0.2-0.2l4.3-4.3 C29.5,15.4,29.5,14.6,29,14.2C29,14.2,29,14.2,29,14.2L29,14.2z M14.7,19.5L10.2,15l4.5-4.5l4.5,4.5L14.7,19.5z"></path> <linearGradient id="SVGID_1_" gradientUnits="userSpaceOnUse" x1="4.5231" y1="-233.897" x2="3.9547" y2="-233.3287" gradientTransform="matrix(11.028 0 0 11.028 -36.0006 2585.3906)"> <stop offset="0.18" style="stop-color:#0052CC"></stop> <stop offset="1" style="stop-color:#2684FF"></stop> </linearGradient> <path class="st1" d="M14.7,10.5c-2.9-2.9-3-7.7,0-10.7L4.8,9.7l5.3,5.3L14.7,10.5z"></path> <linearGradient id="SVGID_2_" gradientUnits="userSpaceOnUse" x1="4.6737" y1="-232.2641" x2="5.241" y2="-232.8313" gradientTransform="matrix(11.028 0 0 11.028 -36.0006 2585.3906)"> <stop offset="0.18" style="stop-color:#0052CC"></stop> <stop offset="1" style="stop-color:#2684FF"></stop> </linearGradient> <path class="st2" d="M19.2,15l-4.5,4.5c3,3,3,7.7,0,10.7l9.9-9.8L19.2,15z"></path> </svg> 