<?xml version="1.0" encoding="utf-8"?>
<!-- Generator: Adobe Illustrator 24.3.0, SVG Export Plug-In . SVG Version: 6.00 Build 0)  -->
<svg version="1.1" id="Layer_1" xmlns="http://www.w3.org/2000/svg" xmlns:xlink="http://www.w3.org/1999/xlink" x="0px" y="0px"
	 viewBox="0 0 1474.3 1261.2" style="enable-background:new 0 0 1474.3 1261.2;" xml:space="preserve">
<style type="text/css">
	.st0{fill:#DEF0FA;}
	.st1{fill:#F2ADF2;}
	.st2{fill:#9AE8A3;}
	.st3{fill:#1E5BF4;}
	.st4{fill:#FFFFFF;}
	.st5{clip-path:url(#SVGID_2_);}
	.st6{fill:#CDB1A0;}
	.st7{fill:#F3D4BD;}
	.st8{fill:#562820;}
	.st9{fill:none;stroke:#99786E;stroke-width:0.39;stroke-linecap:round;stroke-linejoin:round;}
	.st10{fill:#444444;}
	.st11{fill:none;stroke:#99786E;stroke-width:0.43;stroke-linecap:round;stroke-linejoin:round;}
	.st12{fill:none;stroke:#FFFFFF;stroke-width:2.28;stroke-linecap:round;stroke-linejoin:round;}
	.st13{fill:#EAEAEA;}
	.st14{fill:#ADF7DB;}
	.st15{fill:#4AEDAB;}
	.st16{fill:#000041;}
	.st17{fill:#E6C7B0;}
	.st18{fill:#EAA00C;}
	.st19{fill:#CAB09D;}
	.st20{fill:#000736;}
	.st21{fill:#000011;}
	.st22{fill:#FCBE4F;}
	.st23{fill:#0A67BC;}
	.st24{fill:#354C8F;}
	.st25{fill:#1287FA;}
</style>
<image style="overflow:visible;opacity:0.2;enable-background:new    ;" width="818" height="891" xlink:href="21C841BD.png"  transform="matrix(0.9988 0 0 0.9988 -2.1985 4.461670e-02)">
</image>
<path class="st0" d="M15.7,10.9h780.6c0.9,0,1.7,0.8,1.7,1.7v854.1c0,0.9-0.8,1.7-1.7,1.7H15.7c-0.9,0-1.7-0.8-1.7-1.7V12.6
	C14,11.7,14.8,10.9,15.7,10.9z"/>
<circle class="st1" cx="203.1" cy="197.5" r="132.1"/>
<rect x="382.5" y="106.8" class="st2" width="343.7" height="19.9"/>
<rect x="384.8" y="186.5" class="st2" width="341.4" height="19.9"/>
<rect x="386" y="266.6" class="st2" width="340.9" height="19.9"/>
<circle class="st3" cx="128.8" cy="443.3" r="53.4"/>
<path class="st4" d="M117.7,473.9L117.7,473.9c-1.4,0-2.7-0.7-3.5-1.9l-15.1-22.9c-1.3-1.9-0.7-4.5,1.2-5.8s4.5-0.7,5.8,1.2
	l11.6,17.8l28.4-41.5c1.3-1.9,3.9-2.4,5.8-1.1s2.4,3.9,1.1,5.8l-31.9,46.6C120.3,473.2,119,473.9,117.7,473.9z"/>
<rect x="208" y="438.9" class="st2" width="518.2" height="20.2"/>
<circle class="st3" cx="128.8" cy="589.3" r="53.4"/>
<path class="st4" d="M117.7,619.9L117.7,619.9c-1.4,0-2.7-0.7-3.5-1.9l-15.1-23c-1.3-1.9-0.7-4.5,1.2-5.8c1.9-1.3,4.5-0.7,5.8,1.2
	l11.6,17.8l28.4-41.5c1.3-1.9,3.8-2.5,5.8-1.2c1.9,1.3,2.5,3.8,1.2,5.8c0,0.1-0.1,0.1-0.1,0.2l-31.9,46.6
	C120.3,619.2,119,619.9,117.7,619.9z"/>
<rect x="208" y="584.9" class="st2" width="518.2" height="20.2"/>
<circle class="st3" cx="128.8" cy="735.4" r="53.4"/>
<path class="st4" d="M117.7,765.9L117.7,765.9c-1.4,0-2.7-0.7-3.5-1.9l-15.1-23c-1.3-1.9-0.7-4.5,1.2-5.8c1.9-1.3,4.5-0.7,5.8,1.2
	l11.6,17.8l28.4-41.5c1.3-1.9,3.8-2.5,5.8-1.2c1.9,1.3,2.5,3.8,1.2,5.8c0,0.1-0.1,0.1-0.1,0.2l-31.9,46.6
	C120.3,765.3,119,765.9,117.7,765.9z"/>
<rect x="208" y="730.9" class="st2" width="518.2" height="20.2"/>
<g>
	<defs>
		<circle id="SVGID_1_" cx="203.1" cy="197.5" r="132.1"/>
	</defs>
	<clipPath id="SVGID_2_">
		<use xlink:href="#SVGID_1_"  style="overflow:visible;"/>
	</clipPath>
	<g class="st5">
		<path class="st6" d="M196.4,270.2c0.1,0.7,0.1,1.5,0.2,2.2c15.3,13.8,34.1,23.2,54.4,27.1c1.1-6.6,3.6-13,7.2-18.6
			c-10.3,0.4-21.7-3.1-30.4-6.3c-7.2-2.6-14.2-5.9-20.8-9.7C203.6,266.8,199.9,268.4,196.4,270.2z"/>
		<path class="st7" d="M204.8,272.6c18.9,6.7,39.5,9.8,55.2,6.6c33.5-6.8,29.5-52.1,23.7-78.5c-1.7-7.6-4-15.4-8.8-21.5
			c-10.7-13.7-21.1-6.3-34.5-5.1c-14.9,1.3-26.9-9.8-41.2-9.1c-4.2,0.2-8.1,1.8-12,3.5c-7.1,3.2-14.8,8.1-15.8,16.2
			c-0.5,4.1,1,8.4,0.4,12.5c-1.2,9.5-11.7,14.4-15.8,23c-4.9,10.5,1.4,23.4,10,31C175.6,259.7,189.7,267.3,204.8,272.6z"/>
		<path class="st7" d="M249.7,331.5c-0.2-10.6-0.7-21.6,1.3-32c-20.3-3.9-39.1-13.3-54.4-27.1c0.8,9.5,1.2,19.1,1.1,28.7
			c-0.1,9.3,0.1,18.4-8.6,23.6c3.6,14,9.9,27.2,18.6,38.9c4.8,6.4,10.4,12.4,17.8,16c5.2,2.5,10.9,3.7,16.6,4.9
			c3.1,0.6,6.2,1.3,9.3,1.9c-0.8-17.8-1.3-35.5-1.6-53.4C249.7,332.6,249.7,332,249.7,331.5z"/>
		<path class="st7" d="M186.5,326c-3.3,1.4-6.9,2.1-10.5,2.1c2.4,9.7,5.7,19.2,9.8,28.4c7.2,15.8,17.7,31.2,33.9,38.9
			c9.9,4.7,21.1,6.2,32.4,6.8c-0.3-5.3-0.5-10.5-0.7-15.7c-3.1-0.6-6.2-1.3-9.3-1.9c-5.7-1.2-11.5-2.4-16.6-4.9
			c-7.4-3.6-13-9.7-17.8-16c-8.7-11.6-15-24.8-18.6-38.9C188.2,325.2,187.4,325.6,186.5,326z"/>
		<path class="st8" d="M198.7,276.9c-0.2-1.8-0.7-3.5-1.5-5.2c-1.5-2.9-4.1-4.9-6.6-6.8c-8.8-6.6-25.4-14.6-28.1-26.2
			c-0.8-3.3,0.1-7.2,2.9-9c3.5-2.2,8,0.1,11.9,1.8s9.3,2.3,11.1-1.7c0.7-1.8,0.7-3.8,0-5.7c-1.6-6-5.5-11-8.5-16.4
			s-5.1-11.1-5.2-17.2s2-12.3,6.5-16c6-5,14.5-4.5,22-2.6c10.2,2.6,19.9,7.4,30.2,8.9c8.2,1.2,16.6,0.2,24.3-3
			c12-5,21-15.6,20.1-31.5c-0.8-13-7-25-17.2-33c-15.6-12-37-11.1-55.3-5.6c-19.1,5.8-37.3,14.6-55.6,22.3
			c-15.6,6.6-20.9,20.6-18.3,38.1c-5.3-0.3-10,3.3-13.4,7.6c-26.5,34.3,16.7,74.7,38.7,96c9.2,8.9,20.2,34.2,35.7,23
			C197.1,291.4,199.5,283.4,198.7,276.9z"/>
		<path class="st9" d="M250.2,196.4c1.2,7.3,4.2,14.2,8.8,20c1,1.3,2.1,2.6,2.2,4.2c0.1,2.7-2.7,4.6-5.2,6"/>
		<path class="st10" d="M217.7,207.9c2.2-1.2,4.5-2.2,6.9-2.8c-0.4-1.7-1.7-3.1-3.5-3.4c-2.4-0.5-4.8,1-5.4,3.4
			c-0.3,1.3,0.1,2.6,0.9,3.6C217,208.4,217.4,208.1,217.7,207.9z"/>
		<path class="st10" d="M266.6,193.7c2.5-0.5,6-1.4,8.8-1.2c0-0.4,0-0.8-0.1-1.2c-0.7-2.3-3.2-3.7-5.5-3.1c-2.3,0.5-3.8,2.9-3.2,5.2
			c0,0,0,0.1,0,0.1C266.6,193.7,266.6,193.7,266.6,193.7z"/>
		<path class="st11" d="M203.1,194.2c4.8-7.4,14.8-11.2,23.6-9"/>
		<path class="st11" d="M254.5,177.5c5.9-5.9,14.6-7.7,22.4-4.7"/>
		<path class="st12" d="M246.4,242.9c7.1,2.9,16.2,1.1,21.4-4.3"/>
	</g>
</g>
<image style="overflow:visible;opacity:0.2;enable-background:new    ;" width="623" height="176" xlink:href="21C841BF.png"  transform="matrix(0.9943 0 0 0.9943 851.4014 329.33)">
</image>
<path class="st4" d="M858.9,335.4h603.4c0.9,0,1.7,0.8,1.7,1.7v156.4c0,0.9-0.8,1.7-1.7,1.7H858.9c-0.9,0-1.7-0.8-1.7-1.7V337.1
	C857.2,336.2,858,335.4,858.9,335.4z"/>
<circle class="st3" cx="941.3" cy="417.2" r="53.4"/>
<path class="st4" d="M930.1,447.8L930.1,447.8c-1.4,0-2.7-0.7-3.4-1.9l-15.1-23c-1.3-1.9-0.7-4.5,1.2-5.8c1.9-1.3,4.5-0.7,5.8,1.2
	l11.7,17.8l28.4-41.5c1.4-1.8,4-2.2,5.9-0.8c1.7,1.3,2.2,3.7,1,5.5l-31.9,46.6C932.9,447.1,931.5,447.8,930.1,447.8z"/>
<rect x="1020.5" y="387.1" class="st2" width="415.6" height="20.2"/>
<rect x="1020.5" y="432" class="st2" width="415.6" height="20.2"/>
<path class="st13" d="M720.3,1134.4v14c0,2.8-0.1,5.6-0.3,8.3c-3.2,41-29.6,73.2-61.5,73.2H407.6c0.4-0.5,0.8-1.1,1.2-1.7h-49.7
	c27.9-7.8,49-40.6,49-79.8v-13.9c0-45.1-27.6-81.8-61.7-81.8v-0.5h98.1v0.5h214.1C692.6,1052.7,720.3,1089.4,720.3,1134.4z"/>
<path class="st14" d="M1255.3,1260.1c-4.1,0.7-8.2,1.1-12.3,1.1H660.7c45.5,0,82.9-46.3,86.7-105.1c0.3-3.3,0.4-6.5,0.4-9.9v-14
	c0-63.4-39-115.1-87.1-115.1H348.5v-0.1h894.4c24.7,0,48,12.8,65.2,35.8s27,53.7,27,86.4C1335.2,1200.9,1300.4,1252.2,1255.3,1260.1
	z"/>
<path class="st15" d="M660.7,1017.1H348.5v32.9h98.1v0.5h214.1c34,0,61.8,36.7,61.8,81.7v14c0,2.8-0.1,5.6-0.3,8.3
	c-3.2,41-29.6,73.2-61.5,73.2h-251c0.4-0.5,0.8-1.1,1.2-1.7h-49.7c-4.1,1.1-8.4,1.7-12.7,1.7v33.5h312.2
	c45.5,0,82.9-46.3,86.7-105.1c0.3-3.3,0.4-6.5,0.4-9.9v-14C747.7,1068.8,708.7,1017.1,660.7,1017.1z"/>
<path class="st16" d="M419.7,1024h347.3c7.6,0,13.7-6.1,13.8-13.7c0,0,0,0,0,0l0,0c0-7.6-6.2-13.7-13.7-13.7c0,0,0,0,0,0H419.7
	c-7.6,0-13.7,6.1-13.8,13.6c0,0,0,0,0,0l0,0C406,1017.9,412.1,1024,419.7,1024C419.7,1024,419.7,1024,419.7,1024z"/>
<path class="st16" d="M633.8,963l-57.4-143.9c-2.9-7-9.7-11.6-17.2-11.6L324,806.4c-13.4,0-22.4,13.5-17.2,25.6l71.2,170.6
	c4.2,10,14,16.6,24.8,16.6h251.9c0.6,0.1,1.1,0.1,1.7,0l-6.5-16.4L633.8,963z"/>
<path class="st17" d="M660.8,996.6c12.4-8.3,21.6-21.1,30.2-33.6c12.7-18.9,25.1-38.2,36.7-57.8c4.2-7.1,8.7-14.1,13.4-20.8V884
	c-16.9-12.9-37.2-20.4-58.5-21.6c-9.5,22.4-19.4,44.9-29.1,67.3c-5,12-10.5,24.2-19.6,33.4l15.9,39.7c2.7-1,5.3-2.3,7.7-3.8
	C658.6,998.3,659.7,997.5,660.8,996.6z"/>
<path class="st17" d="M837.3,975.8c-4.3,2.5-8.7,4.5-13.4,6.2c-13.7,4.8-28.6,6-43.2,7.1c-17.8,1.5-35.2,2.8-52.9,4.2
	c-3.7-2-7.4-4.2-11.5-4.8c-11.1-1.5-23.6-0.5-34,3.7c-3.9,1.6-7.6,3.7-10.9,6.3c-2.9,2.3-5.3,5.1-7.2,8.3c-2.2,3.8-3.3,8.2-3.2,12.6
	c6.2-0.2,12.2-0.8,18.4-1.3c29-2,58,4.5,86.7,9c28.8,4.7,59.1,6.8,86.4-3.3c12.5-4.7,23.9-11.8,33.7-20.9
	c15.9-14.8,27.8-33.5,34.5-54.2c5.6-18.3,8-37.5,7-56.7c-0.2-3.7-0.5-7.1-0.8-10.8c0-0.7-0.2-1.3-0.2-2c-21.3-4.2-45.9-3.3-66.5,1.7
	c2,13,3,26.2,3.2,39.4c0.2,12.1-0.5,24.6-6,35.2C852.9,964,845.7,970.9,837.3,975.8z"/>
<path class="st17" d="M766.6,743.7c23.6,1,35.8-23.9,45.2-42c2.3-0.8,4.7-1.7,7-2.7c-0.3-3.9-0.3-7.9,0-11.8c2-1,3.9-2.1,5.7-3.5
	c5.9-4.7,9.9-12.5,8.7-20.1c-0.2-0.7-0.3-1.3-0.5-2.2c-0.6-2.3-1.9-4.4-3.7-6c-3.2-2.8-7.9-3.3-12.1-2.3c-2.3,0.5-4.6,1.3-6.7,2.5
	c-11.3-3.8-20.6-12-25.8-22.8c-12.9,11.8-29.6,18.5-47.1,19.1c-4.1,0.1-8.2-0.1-12.2-0.8c-1.2,23.8,1,46,12.9,68
	c1,1.8,2,3.8,3.2,5.6c5.7,9.1,13.9,18.3,24.6,18.9L766.6,743.7z"/>
<path class="st18" d="M852.5,844.9c3.3,11.8,5.9,23.8,7.7,35.9c20.6-5,45.2-5.8,66.5-1.7c-0.2-1.8-0.3-3.7-0.5-5.7
	c-1.7-16.3-3-33.2-5.7-49.5c-2.7-16.1-8.7-36.9-25.5-42.5c-17.2-5.7-39.4-6.3-54.1-17.6c2.3,36.9-21.8,70.3-57.6,79.7
	c-2.8-24.8-6.5-49.3-11.4-73.8c-3,4-8,7-12.9,8.6c-7.4,2.3-15.1,2.7-22.3,5.2c-8.3,3-15.7,8.1-21.4,14.8
	c15.8,23.2,24.6,50.4,25.5,78.4c0.2,2.3,0.2,4.8,0.2,7.2c0.2-0.2,0.2,0,0.3,0.2c0,0-0.3,0.2-0.3,0.3c0,9.6-0.2,19.3,2,28.7
	c2.5,11.8,9.9,23.6,21.4,27.4c6.4,2,13.4,1.5,19.6,3.7c5,1.8,9.2,5.2,13.4,8.5c7-5.3,13.1-11.8,17.8-19.3
	c7.4-11.1,12.2-23.6,16.9-36.1C839,880,845.7,862.4,852.5,844.9z"/>
<path class="st19" d="M811.9,701.7c-9.4,18.1-21.6,43-45.2,42c1.2,5.2,2.2,10.3,3.2,15.5c18.1-10.8,35.4-23.1,51.6-36.7
	c-1.7-7.7-2.5-15.6-2.5-23.4C816.5,700,814.2,700.9,811.9,701.7z"/>
<path class="st17" d="M772,769.8c4.8,24.4,8.5,49,11.4,73.8c35.8-9.4,59.9-42.8,57.6-79.7h-0.2c-8.4-6.5-12.9-16.6-15.9-26.6
	c-1.5-4.8-2.7-9.8-3.5-14.8c-16.2,13.6-33.4,25.9-51.6,36.7C770.7,762.7,771.3,766.2,772,769.8z"/>
<path class="st20" d="M1021.7,832.9c-8-16.1-15.8-31.1-32.8-39.4c-7.5-3.7-17.1-6.8-18.9-15c-2-8.3,5.7-15.8,13.6-19.3
	c7.9-3.3,16.9-4.8,23.3-10.5c7.2-6.5,9.2-17.4,6.7-26.7s-9-17.1-16.6-23.3c-13-10.5-28.9-16.5-45.6-17.3c-8.2-0.5-16.6,0.5-24.8-0.3
	s-16.8-3.7-21.9-10c-12.7-15.3,0-41.5-12.7-56.8c-8.2-10-23.1-10.6-36-10.3c-4.4,0.2-8.7,0.1-13.1-0.3
	c-8.2-14.1-20.6-25.3-35.5-32.1c-6.1-2.5-12.4-4.3-18.9-5.3c-27.6-3.7-57.1,10.5-70.5,34.7c-5.2,9.5-8,20.3-14.2,29.2
	c-2.5,3.6-5.6,6.7-9.2,9.1c2.5,1.7,5.2,3.2,7.9,4.5c-9.4,30.5,6.2,63.2,35.8,75.1c-11.9-21.9-14.1-44.2-12.9-68
	c4,0.7,8.1,1,12.2,0.8c17.5-0.6,34.2-7.3,47.1-19.1c5.2,10.7,14.5,18.9,25.8,22.8c2.1-1.1,4.4-2,6.7-2.5c4.2-1,8.9-0.5,12.1,2.3
	c1.8,1.6,3.1,3.7,3.7,6c20.3,6.2,41.9,19.3,30,42.7c-5.7,11.6-14.2,19.1-5.2,32.1c7.7,11.3,22.1,13.1,34.7,14.1
	c28.8,2.7,51.4,10.3,54.8,42.7c2.7,26.9-7.7,56.8-20.8,80.4c0.2,2,0.3,3.8,0.5,5.7c0,0.7,0.2,1.3,0.2,2c0.3,3.7,0.7,7.2,0.8,10.8
	c4.7,1.5,9.4,2.7,14.2,3.5c8.7,1.7,17.6,2.3,26.5,1.7h0.2c6.7-0.5,13.4-1.8,19.8-4c11-4,20.9-10.5,32-14.6c3.2-1.2,6.5-2.1,9.9-2.8
	C1031.2,860.8,1028.3,846.1,1021.7,832.9z"/>
<path class="st21" d="M818.9,699c0.4,12.9,2.4,25.8,6,38.2c3,10,7.5,20.1,15.9,26.6h0.2c14.7,11.3,36.8,12,54.1,17.6
	c16.8,5.7,22.8,26.4,25.5,42.5c2.7,16.3,4,33.2,5.7,49.5c13.1-23.6,23.4-53.5,20.8-80.4c-3.3-32.4-26-40-54.8-42.7
	c-12.6-1-27-2.8-34.7-14.1c-9-13-0.5-20.4,5.2-32.1c11.9-23.4-9.7-36.5-30-42.7c0.2,0.8,0.3,1.5,0.5,2.2c1.2,7.7-2.8,15.5-8.7,20.1
	c-1.8,1.4-3.7,2.5-5.7,3.5C818.6,691.2,818.6,695.1,818.9,699z"/>
<path class="st22" d="M715.4,798.4c-1.8,2-3.5,4.1-5,6.3c-6.7,9.3-11.2,19.9-15.9,30.4c-3.8,9-7.9,18.1-11.9,27.2
	c21.2,1.2,41.6,8.7,58.5,21.6c0-2.3,0-4.8-0.2-7.2C740,848.8,731.2,821.6,715.4,798.4z"/>
<path class="st22" d="M860.3,880.8c-1.8-12.1-4.4-24.1-7.7-35.9c-6.9,17.5-13.6,35.1-20.4,52.5c-4.7,12.5-9.6,24.9-16.9,36.1
	c-4.7,7.5-10.7,14-17.8,19.3c1.5,1.5,3.2,2.8,4.7,4.2c10.4,8.6,22.3,15,35.2,18.9c8.4-5,15.6-11.8,20.1-20.4
	c5.5-10.6,6.2-23.1,6-35.2C863.3,907,862.2,893.8,860.3,880.8z"/>
<path class="st22" d="M968.6,897.1h-0.2c-8.9,0.6-17.8,0.1-26.5-1.7c-4.8-0.8-9.6-2-14.3-3.5c1,19.1-1.4,38.3-7,56.7
	c-6.7,20.7-18.6,39.3-34.5,54.2l0.2,0.2c26,3,51.9,5.2,78,6.7c2.6-8.6,4.6-17.5,5.7-26.4c1.3-9.3,2-18.7,2.2-28.1
	C972.6,935.8,970.8,916.4,968.6,897.1z"/>
<path class="st23" d="M970.1,983.1c-1.1,9-3,17.8-5.7,26.4c70.2,4.2,140.5,4.2,210.8,4c28.8,0,51.9,0,80.7-0.2c9,0,18.4,0,27-3.3
	c8.5-3.2,21.9-19.1,23-28.1l2.8-20.6C1200.6,1002.1,1082.7,1009.7,970.1,983.1z"/>
<path d="M1155,701.2c1.9,0.5,3.9,0.5,5.9,0c2.8-0.7,5.3-2,7.4-4c-5-15.1-3.5-30.2-0.7-45.8c1.8-9.1,4.3-18.4,3.2-27.8
	c-1-8.3-11.2-10.3-18.1-8.5c-8.5,2.3-13.9,10.6-16.2,18.9s-2.5,17.3-5,25.6c-3,10.3-9.4,19.3-16.6,27.4c-2.8,3.2-6,6.7-6.4,11
	c-0.3,5.5,4.3,10,9,12.6c2.5,1.4,5.2,2.6,8,3.5h0.2c4.7-7.8,9.7-15.5,16.2-21.3c1.5,1.7,3.1,3.2,4.8,4.7
	C1149.2,699.4,1152,700.7,1155,701.2z"/>
<path class="st24" d="M1327,746.6c-14.4-3.8-32.2-2.8-32.2-2.8L1256,908.9l-81.4-165.1h-1.7c-5.2,0-21.1,0.8-30.3,10.6
	c-1.2,1.1-2.2,2.4-3,3.8l52.9,163.8c-27.8-4.5-55.4-9.3-82.9-14.4c-6.4-9.7-14.9-17.9-25-23.8c-16.5-9.3-35.9-12.2-54.4-8.1
	c-3.4,0.7-6.7,1.6-9.9,2.8c-11.1,4.2-20.9,10.6-32,14.6c-6.4,2.2-13,3.5-19.8,4c2.2,19.3,4,38.7,3.7,58c-0.1,9.4-0.9,18.8-2.2,28.1
	c112.6,26.5,230.5,18.9,338.7-21.8l29.8-210.3C1335,748.9,1331.1,747.4,1327,746.6z"/>
<path class="st25" d="M1125.7,714.2c0,0.1-0.1,0.2-0.2,0.2l0,0l9.4,21.9c9.3-5.4,19.3-9.6,29.6-12.5l-9.5-22.6
	c-3-0.6-5.8-1.8-8.2-3.7c-1.7-1.4-3.4-3-4.8-4.7C1135.4,698.7,1130.4,706.3,1125.7,714.2z"/>
<path class="st17" d="M1134.9,736.3l7.7,18.1c9.2-9.8,25.1-10.6,30.3-10.6l-8.4-19.9C1154.2,726.6,1144.2,730.8,1134.9,736.3z"/>
<path class="st17" d="M1299.5,713.3l-4.7,30.4c0,0,17.8-1,32.2,2.8l4.3-28.2C1321,715.2,1310.3,713.5,1299.5,713.3z"/>
<path d="M1328.5,679.8c0.3,2.3,0.9,4.6,1.7,6.8c1.1,2.7,2.8,5.2,5,7.2c1.4,1.5,3.1,2.6,5,3.3c2.7,0.9,5.6,1,8.4,0.3v-0.2
	c3.8-15.3,12.9-27.4,23.8-39.2c6.2-6.8,13.4-13.5,17.3-21.9c3.5-7.5-4-14.6-10.9-16.6c-8.4-2.5-17.4,1.8-23.8,7.6
	c-6.5,6-11.4,13.3-17.8,19.1c-8.2,7.1-18.4,11.6-28.8,14.8c-4,1.2-8.5,2.5-11.1,6c-3.2,4.5-1.7,10.8,1,15.6c1.4,2.5,3,4.8,4.9,7v0.2
	h0.2C1311.4,685.6,1319.6,681.6,1328.5,679.8z"/>
<path class="st25" d="M1303.4,689.7h-0.2l-3.7,23.6c10.8,0.2,21.5,1.8,31.8,5l3.9-24.6c-2.2-1.9-3.9-4.4-5-7.2
	c-0.8-2.2-1.4-4.5-1.7-6.8C1319.6,681.6,1311.4,685.6,1303.4,689.7z"/>
</svg>
