<?xml version="1.0" encoding="UTF-8"?> <svg xmlns="http://www.w3.org/2000/svg" xmlns:xlink="http://www.w3.org/1999/xlink" width="36pt" height="30pt" viewBox="0 0 36 30" version="1.1"><g id="surface1"><path style=" stroke:none;fill-rule:nonzero;fill:rgb(100%,25.098039%,50.588235%);fill-opacity:1;" d="M 32.0625 2.992188 L 32.0625 1.261719 L 33.023438 1.261719 L 33.023438 0.300781 L 23.445312 0.300781 L 23.445312 1.261719 L 24.40625 1.261719 L 24.40625 2.992188 L 24.667969 3.128906 C 24.703125 3.140625 25.066406 3.324219 25.582031 3.523438 C 25.132812 4.101562 24.886719 4.824219 24.886719 5.574219 C 24.886719 6.726562 25.46875 7.746094 26.363281 8.347656 C 24.652344 9.074219 23.445312 10.777344 23.445312 12.757812 L 23.445312 15.628906 C 23.445312 16.6875 24.308594 17.542969 25.359375 17.542969 L 25.359375 23.289062 L 10.394531 23.289062 L 3.691406 26.640625 L 10.394531 30 L 29.671875 30 C 31.515625 30 33.023438 28.492188 33.023438 26.648438 C 33.023438 25.3125 32.234375 24.164062 31.109375 23.625 L 31.109375 17.550781 C 32.167969 17.550781 33.023438 16.6875 33.023438 15.636719 L 33.023438 12.765625 C 33.023438 10.792969 31.824219 9.089844 30.105469 8.355469 C 30.996094 7.753906 31.582031 6.726562 31.582031 5.578125 C 31.582031 4.828125 31.335938 4.109375 30.886719 3.53125 C 31.402344 3.328125 31.761719 3.148438 31.800781 3.136719 Z M 7.15625 27.308594 L 5.828125 26.648438 L 7.15625 25.988281 Z M 10.027344 28.746094 L 8.113281 27.789062 L 8.113281 25.507812 L 10.027344 24.546875 Z M 26.378906 9.40625 L 27.585938 10.816406 L 26.960938 11.4375 L 26.152344 9.546875 C 26.21875 9.496094 26.296875 9.449219 26.378906 9.40625 Z M 27.324219 9.039062 C 27.613281 8.960938 27.921875 8.925781 28.238281 8.925781 C 28.550781 8.925781 28.859375 8.96875 29.152344 9.039062 L 28.238281 10.101562 Z M 24.398438 29.039062 L 10.988281 29.039062 L 10.988281 27.128906 L 24.398438 27.128906 Z M 24.398438 26.167969 L 10.988281 26.167969 L 10.988281 24.253906 L 24.398438 24.253906 Z M 26.316406 29.039062 L 25.359375 29.039062 L 25.359375 24.246094 L 26.316406 24.246094 Z M 32.0625 26.648438 C 32.0625 27.96875 30.988281 29.039062 29.671875 29.039062 L 27.277344 29.039062 L 27.277344 24.246094 L 29.671875 24.246094 C 30.988281 24.253906 32.0625 25.328125 32.0625 26.648438 Z M 32.0625 12.757812 L 32.0625 15.628906 C 32.0625 16.15625 31.636719 16.589844 31.101562 16.589844 L 31.101562 12.757812 L 30.148438 12.757812 L 30.148438 23.332031 C 29.992188 23.308594 29.835938 23.296875 29.671875 23.296875 L 28.710938 23.296875 L 28.710938 15.628906 L 27.75 15.628906 L 27.75 23.296875 L 26.308594 23.296875 L 26.308594 12.757812 L 25.351562 12.757812 L 25.351562 16.589844 C 24.824219 16.589844 24.390625 16.164062 24.390625 15.628906 L 24.390625 12.757812 C 24.390625 11.773438 24.765625 10.882812 25.371094 10.199219 L 26.625 13.117188 L 28.222656 11.519531 L 29.820312 13.117188 L 31.074219 10.199219 C 31.6875 10.875 32.0625 11.773438 32.0625 12.757812 Z M 30.324219 9.546875 L 29.511719 11.4375 L 28.890625 10.816406 L 30.097656 9.40625 C 30.171875 9.449219 30.246094 9.496094 30.324219 9.546875 Z M 28.230469 7.964844 C 26.910156 7.964844 25.835938 6.890625 25.835938 5.574219 C 25.835938 4.921875 26.101562 4.304688 26.566406 3.855469 C 27.105469 4.011719 27.699219 4.132812 28.238281 4.132812 C 28.777344 4.132812 29.363281 4.011719 29.910156 3.855469 C 30.375 4.304688 30.636719 4.921875 30.636719 5.574219 C 30.628906 6.890625 29.550781 7.964844 28.230469 7.964844 Z M 31.109375 2.390625 C 30.554688 2.640625 29.242188 3.179688 28.238281 3.179688 C 27.234375 3.179688 25.921875 2.648438 25.363281 2.390625 L 25.363281 1.261719 L 31.109375 1.261719 Z M 31.109375 2.390625 "></path><path style=" stroke:none;fill-rule:nonzero;fill:rgb(100%,25.098039%,50.588235%);fill-opacity:1;" d="M 5.242188 2.210938 L 6.203125 2.210938 L 6.203125 3.171875 L 5.242188 3.171875 Z M 5.242188 2.210938 "></path><path style=" stroke:none;fill-rule:nonzero;fill:rgb(100%,25.098039%,50.588235%);fill-opacity:1;" d="M 7.15625 2.210938 L 8.113281 2.210938 L 8.113281 3.171875 L 7.15625 3.171875 Z M 7.15625 2.210938 "></path><path style=" stroke:none;fill-rule:nonzero;fill:rgb(100%,25.098039%,50.588235%);fill-opacity:1;" d="M 9.066406 2.210938 L 10.027344 2.210938 L 10.027344 3.171875 L 9.066406 3.171875 Z M 9.066406 2.210938 "></path><path style=" stroke:none;fill-rule:nonzero;fill:rgb(100%,25.098039%,50.588235%);fill-opacity:1;" d="M 9.066406 18.984375 C 9.066406 19.777344 9.710938 20.421875 10.507812 20.421875 L 13.265625 20.421875 L 17.691406 22.636719 L 17.691406 20.421875 L 19.132812 20.421875 C 19.925781 20.421875 20.574219 19.777344 20.574219 18.984375 L 20.574219 16.589844 L 22.484375 16.589844 L 22.484375 0.300781 L 3.324219 0.300781 L 3.324219 16.589844 L 9.066406 16.589844 Z M 19.613281 18.984375 C 19.613281 19.246094 19.394531 19.460938 19.132812 19.460938 L 16.738281 19.460938 L 16.738281 21.082031 L 13.5 19.460938 L 10.515625 19.460938 C 10.253906 19.460938 10.035156 19.246094 10.035156 18.984375 L 10.035156 15.148438 C 10.035156 14.886719 10.253906 14.671875 10.515625 14.671875 L 19.140625 14.671875 C 19.402344 14.671875 19.621094 14.886719 19.621094 15.148438 L 19.621094 18.984375 Z M 10.027344 13.800781 L 10.027344 8.925781 L 10.988281 8.925781 L 10.988281 13.71875 L 10.507812 13.71875 C 10.34375 13.710938 10.175781 13.746094 10.027344 13.800781 Z M 13.859375 13.710938 L 13.859375 10.835938 L 14.820312 10.835938 L 14.820312 13.710938 Z M 17.691406 13.710938 L 17.691406 7.003906 L 18.652344 7.003906 L 18.652344 13.710938 Z M 4.28125 1.261719 L 21.523438 1.261719 L 21.523438 4.132812 L 4.28125 4.132812 Z M 4.28125 15.628906 L 4.28125 5.09375 L 21.523438 5.09375 L 21.523438 15.628906 L 20.566406 15.628906 L 20.566406 15.148438 C 20.566406 14.527344 20.160156 14.003906 19.605469 13.800781 L 19.605469 6.046875 L 16.734375 6.046875 L 16.734375 13.710938 L 15.773438 13.710938 L 15.773438 9.878906 L 12.898438 9.878906 L 12.898438 13.710938 L 11.941406 13.710938 L 11.941406 7.964844 L 9.066406 7.964844 L 9.066406 15.628906 Z M 4.28125 15.628906 "></path><path style=" stroke:none;fill-rule:nonzero;fill:rgb(100%,25.098039%,50.588235%);fill-opacity:1;" d="M 10.988281 15.628906 L 18.652344 15.628906 L 18.652344 16.589844 L 10.988281 16.589844 Z M 10.988281 15.628906 "></path><path style=" stroke:none;fill-rule:nonzero;fill:rgb(100%,25.098039%,50.588235%);fill-opacity:1;" d="M 10.988281 17.542969 L 16.734375 17.542969 L 16.734375 18.503906 L 10.988281 18.503906 Z M 10.988281 17.542969 "></path><path style=" stroke:none;fill-rule:nonzero;fill:rgb(100%,25.098039%,50.588235%);fill-opacity:1;" d="M 17.691406 17.542969 L 18.652344 17.542969 L 18.652344 18.503906 L 17.691406 18.503906 Z M 17.691406 17.542969 "></path><path style=" stroke:none;fill-rule:nonzero;fill:rgb(100%,25.098039%,50.588235%);fill-opacity:1;" d="M 5.242188 14.671875 L 8.113281 14.671875 L 8.113281 10.835938 L 5.242188 10.835938 Z M 6.195312 11.796875 L 7.15625 11.796875 L 7.15625 13.710938 L 6.195312 13.710938 Z M 6.195312 11.796875 "></path></g></svg> 