<?xml version="1.0" encoding="UTF-8"?> <svg xmlns="http://www.w3.org/2000/svg" xmlns:xlink="http://www.w3.org/1999/xlink" width="29pt" height="29pt" viewBox="0 0 29 29" version="1.1"><g id="surface1"><path style=" stroke:none;fill-rule:nonzero;fill:rgb(100%,25.098039%,50.588235%);fill-opacity:1;" d="M 14.835938 9.464844 C 14.855469 6.632812 15.027344 3.800781 15.355469 0.980469 C 15.40625 0.585938 15.140625 0.214844 14.746094 0.15625 C 14.121094 0.0507812 13.488281 0 12.855469 0 C 12.210938 0 11.5625 0.0585938 10.929688 0.171875 C 10.617188 0.230469 10.378906 0.492188 10.335938 0.808594 C 10.015625 3.753906 9.851562 6.722656 9.835938 9.6875 C 8.855469 10.394531 8.203125 11.464844 8.007812 12.664062 C 7.621094 15.132812 9.308594 17.453125 11.777344 17.839844 C 12.605469 19.847656 14.476562 21.222656 16.632812 21.40625 C 16.9375 22.261719 17.71875 22.851562 18.621094 22.910156 L 18.761719 22.910156 C 19.949219 22.910156 20.941406 21.988281 21.019531 20.796875 C 21.089844 19.773438 20.464844 18.835938 19.496094 18.5 C 18.316406 18.097656 17.027344 18.722656 16.621094 19.90625 C 15.273438 19.75 14.074219 18.96875 13.390625 17.792969 C 15.496094 17.355469 17.007812 15.503906 17.011719 13.355469 C 17.027344 11.761719 16.195312 10.292969 14.835938 9.464844 Z M 17.988281 20.589844 C 18.015625 20.160156 18.390625 19.832031 18.820312 19.859375 C 19.027344 19.875 19.222656 19.972656 19.355469 20.121094 C 19.644531 20.449219 19.617188 20.941406 19.289062 21.230469 C 18.960938 21.519531 18.472656 21.488281 18.179688 21.164062 C 18.039062 21.007812 17.972656 20.796875 17.988281 20.589844 Z M 13.355469 8.910156 C 12.679688 8.773438 11.980469 8.796875 11.308594 8.984375 C 11.355469 6.386719 11.511719 3.53125 11.726562 1.554688 C 12.097656 1.507812 12.476562 1.488281 12.855469 1.480469 C 13.175781 1.480469 13.488281 1.480469 13.800781 1.523438 C 13.578125 3.546875 13.414062 6.328125 13.355469 8.910156 Z M 12.492188 10.296875 C 14.179688 10.296875 15.546875 11.667969 15.546875 13.355469 C 15.546875 15.042969 14.179688 16.402344 12.492188 16.410156 C 10.804688 16.410156 9.4375 15.042969 9.4375 13.355469 C 9.4375 11.667969 10.796875 10.296875 12.492188 10.296875 Z M 12.492188 10.296875 "></path><path style=" stroke:none;fill-rule:nonzero;fill:rgb(100%,25.098039%,50.588235%);fill-opacity:1;" d="M 8.601562 1.621094 C 8.410156 1.257812 7.964844 1.121094 7.605469 1.316406 C 4.082031 3.175781 1.777344 6.730469 1.507812 10.707031 C 1.308594 13.742188 2.34375 16.730469 4.371094 18.992188 L 2.855469 24.316406 C 2.742188 24.710938 2.972656 25.117188 3.359375 25.230469 C 3.753906 25.339844 4.164062 25.109375 4.277344 24.722656 L 5.898438 19 C 5.972656 18.746094 5.902344 18.472656 5.71875 18.285156 C 3.792969 16.285156 2.796875 13.5625 2.972656 10.796875 C 3.203125 7.332031 5.226562 4.238281 8.296875 2.625 C 8.664062 2.429688 8.796875 1.984375 8.601562 1.621094 Z M 8.601562 1.621094 "></path><path style=" stroke:none;fill-rule:nonzero;fill:rgb(100%,25.098039%,50.588235%);fill-opacity:1;" d="M 25.453125 19.421875 C 25.503906 19.40625 25.558594 19.386719 25.609375 19.363281 C 26.449219 18.992188 26.828125 18.003906 26.449219 17.160156 L 24.695312 13.222656 C 24.441406 12.65625 24.308594 12.039062 24.308594 11.414062 C 24.292969 7.027344 21.773438 3.035156 17.824219 1.121094 C 17.453125 0.945312 17.011719 1.101562 16.835938 1.472656 C 16.65625 1.84375 16.8125 2.28125 17.183594 2.460938 C 20.621094 4.125 22.804688 7.605469 22.8125 11.421875 C 22.8125 12.253906 22.984375 13.074219 23.328125 13.832031 L 25.105469 17.785156 C 25.105469 17.792969 25.109375 17.792969 25.109375 17.800781 C 25.140625 17.898438 25.089844 18.003906 24.992188 18.039062 L 23.339844 18.589844 C 23.035156 18.695312 22.835938 18.976562 22.835938 19.289062 L 22.835938 23.347656 C 22.835938 24.003906 22.308594 24.53125 21.652344 24.53125 L 17.527344 24.53125 C 17.199219 24.53125 16.910156 24.746094 16.820312 25.066406 L 15.964844 28.070312 C 15.851562 28.464844 16.082031 28.875 16.46875 28.984375 C 16.855469 29.097656 17.273438 28.867188 17.386719 28.480469 L 18.089844 26.011719 L 21.652344 26.011719 C 23.125 26.011719 24.316406 24.820312 24.316406 23.347656 L 24.316406 19.824219 Z M 25.453125 19.421875 "></path></g></svg> 