<svg id="Layer_1" data-name="Layer 1" xmlns="http://www.w3.org/2000/svg" viewBox="0 0 578.1 725.9"><defs><style>.cls-1{fill:#ef4823;opacity:0.79;}.cls-1,.cls-3,.cls-4{isolation:isolate;}.cls-2{fill:#35c5f1;}.cls-3{fill:#e2e423;}.cls-3,.cls-4{opacity:0.65;}.cls-4{fill:#b14b9c;}</style></defs><path class="cls-1" d="M8.59,129c-.2-48.2,31-87.9,70.2-88.1l436.7-3.1c38.8-.3,70.8,38.5,71.1,87.1.2,48.2-31,87.9-70.2,88.1l-436.7,3.1C40.89,216.42,8.89,177.62,8.59,129Z" transform="translate(-8.59 -37.75)"/><path class="cls-2" d="M15.09,676.52c-.2-48.2,30.7-87.9,69.5-88.2l431.8-3.1c38.4-.3,70,38.5,70.3,87.1.2,48.2-30.7,87.9-69.5,88.2l-431.9,3.1C46.89,763.92,15.29,724.72,15.09,676.52Z" transform="translate(-8.59 -37.75)"/><path class="cls-3" d="M213.09,497.12c-28.3-34.3-32.1-85.7-7.2-97.1l264-327.2c22.4-47.3,64.4-43.2,92.7-8.9s32.1,85.7,8.5,115l-264,327.2C283.39,535.52,241.39,531.42,213.09,497.12Z" transform="translate(-8.59 -37.75)"/><path class="cls-4" d="M371.69,314.12c27,34.7,26.7,90.6-.6,124.9l-237.8,299.1c-27.3,34.3-71.2,34-98.2-.7s-26.7-90.6.6-124.9l237.8-299.1C300.79,279,344.69,279.42,371.69,314.12Z" transform="translate(-8.59 -37.75)"/></svg>