<?xml version="1.0" encoding="UTF-8"?> <!-- Generator: Adobe Illustrator 25.3.0, SVG Export Plug-In . SVG Version: 6.00 Build 0) --> <svg xmlns="http://www.w3.org/2000/svg" xmlns:xlink="http://www.w3.org/1999/xlink" version="1.1" id="Layer_1" x="0px" y="0px" viewBox="0 0 30 30" style="enable-background:new 0 0 30 30;" xml:space="preserve"> <style type="text/css"> .st0{fill:#1991EB;} .st1{fill:#FFFFFF;} </style> <rect x="-0.3" class="st0" width="30.3" height="30"></rect> <path class="st1" d="M17.3,11.5l1.1-1.1c0.3-0.3,0.6-0.6,0.9-0.9c0.3-0.2,0.6-0.5,0.9-0.8c0.7-0.6,1.2-0.9,1.6-1.2 c0.4-0.2,0.8-0.3,1.2-0.3c0.6,0,1.1,0.2,1.5,0.6c0.4,0.4,0.7,0.9,0.7,1.4c0,0.4-0.1,0.8-0.3,1.2c-0.2,0.4-0.6,1-1.2,1.7 c-2.5,3.3-3.8,5.5-3.8,6.5c0,0.4,0.2,0.6,0.6,0.6c0.3,0,0.7-0.1,1.1-0.4c0.4-0.3,0.9-0.8,1.5-1.4c0.3-0.4,0.7-0.8,1.2-1.5 c0.5-0.6,0.9-1.2,1.3-1.7c0.4-0.5,0.7-0.9,0.9-1.1c0.2-0.2,0.5-0.3,0.9-0.3c0.3,0,0.6,0.1,0.8,0.3c0.2,0.2,0.3,0.5,0.3,0.8 c0,0.6-0.3,1.4-0.9,2.5c-0.6,1-1.3,2.1-2.2,3.2c-1.1,1.4-2.3,2.4-3.5,3.2c-1.2,0.8-2.3,1.1-3.3,1.1c-0.9,0-1.7-0.3-2.3-0.9 c-0.6-0.6-0.9-1.4-0.9-2.3c0-0.5,0-1,0.1-1.4c0.1-0.4,0.2-0.9,0.4-1.4c0.2-0.5,0.4-1,0.7-1.5c0.3-0.5,0.7-1.1,1.1-1.8 c0-0.1,0.1-0.2,0.2-0.4c-0.9,0.7-1.7,1.5-2.5,2.5c-0.8,1-1.7,2.3-2.5,3.8c-0.6,1-1.1,1.7-1.4,2.1c-0.3,0.3-0.7,0.5-1.2,0.5 c-0.5,0-1-0.2-1.3-0.6c-0.3-0.4-0.5-0.8-0.5-1.4c0-0.4,0-0.7,0.1-1.1c0.1-0.3,0.3-0.8,0.5-1.4c0.2-0.5,0.4-1,0.6-1.5 c0.3-0.5,0.5-1,0.7-1.3l0.9-1.6c0.1-0.1,0.2-0.2,0.3-0.5c-0.7,0.5-1.3,1.1-1.9,1.8c-0.6,0.7-1.2,1.4-1.8,2.1 c-0.6,0.7-1.1,1.4-1.5,2.2c-0.4,0.7-0.8,1.4-1.1,2.1C5,23,4.7,23.6,4.4,23.9c-0.3,0.3-0.7,0.5-1.2,0.5c-0.5,0-0.9-0.2-1.2-0.6 c-0.3-0.4-0.5-0.9-0.5-1.5c0-1.2,0.6-3.4,1.8-6.4C4,14.1,4.7,12.5,5.5,11c0.8-1.5,1.6-2.7,2.4-3.8c0.5-0.6,0.8-1,1.2-1.3 c0.3-0.2,0.7-0.4,1.1-0.4c0.4,0,0.8,0.1,1.1,0.4c0.3,0.3,0.5,0.7,0.5,1.1c0,0.3-0.1,0.7-0.2,1c-0.1,0.4-0.5,1-1.1,1.9 c-0.1,0.3-0.3,0.5-0.4,0.8c-0.2,0.3-0.4,0.8-0.7,1.3l-0.5,1.1c1-1.2,1.8-2.2,2.6-3c0.7-0.8,1.4-1.5,1.9-2c0.6-0.5,1.1-0.8,1.5-1.1 c0.4-0.2,0.8-0.3,1.2-0.3c0.5,0,0.8,0.2,1.2,0.5c0.3,0.3,0.5,0.7,0.5,1.2c0,0.3-0.1,0.6-0.2,1c-0.1,0.4-0.4,0.9-0.8,1.7l-1,1.9 l-0.4,0.7l0.6-0.6C16.3,12.4,16.8,11.9,17.3,11.5L17.3,11.5z"></path> </svg> 