<?xml version="1.0" encoding="UTF-8"?> <svg xmlns="http://www.w3.org/2000/svg" xmlns:xlink="http://www.w3.org/1999/xlink" width="36pt" height="30pt" viewBox="0 0 36 30" version="1.1"><g id="surface1"><path style=" stroke:none;fill-rule:nonzero;fill:rgb(36.862745%,55.686275%,24.313725%);fill-opacity:1;" d="M 5.753906 1.5 C 4.640625 1.5 3.75 2.390625 3.75 3.503906 C 3.75 4.613281 4.640625 5.503906 5.753906 5.503906 C 6.863281 5.503906 7.753906 4.613281 7.753906 3.503906 C 7.753906 2.390625 6.855469 1.5 5.753906 1.5 Z M 5.753906 4.5 C 5.199219 4.5 4.746094 4.050781 4.746094 3.503906 C 4.746094 2.953125 5.199219 2.503906 5.746094 2.503906 C 6.300781 2.496094 6.75 2.949219 6.75 3.503906 C 6.75 4.058594 6.300781 4.5 5.753906 4.5 Z M 5.753906 4.5 "></path><path style=" stroke:none;fill-rule:nonzero;fill:rgb(36.862745%,55.686275%,24.313725%);fill-opacity:1;" d="M 12.246094 3.503906 C 12.246094 2.398438 11.355469 1.5 10.246094 1.5 C 9.136719 1.5 8.25 2.390625 8.25 3.503906 C 8.25 4.613281 9.140625 5.503906 10.253906 5.503906 C 11.363281 5.503906 12.246094 4.605469 12.246094 3.503906 Z M 9.246094 3.503906 C 9.246094 2.953125 9.699219 2.503906 10.246094 2.503906 C 10.792969 2.503906 11.25 2.949219 11.25 3.503906 C 11.25 4.058594 10.800781 4.5 10.253906 4.5 C 9.703125 4.5 9.246094 4.050781 9.246094 3.503906 Z M 9.246094 3.503906 "></path><path style=" stroke:none;fill-rule:nonzero;fill:rgb(36.862745%,55.686275%,24.313725%);fill-opacity:1;" d="M 14.753906 5.496094 C 15.855469 5.496094 16.753906 4.605469 16.753906 3.496094 C 16.753906 2.386719 15.855469 1.5 14.753906 1.5 C 13.640625 1.5 12.75 2.390625 12.75 3.503906 C 12.75 4.613281 13.640625 5.496094 14.753906 5.496094 Z M 14.753906 2.496094 C 15.300781 2.496094 15.75 2.949219 15.75 3.496094 C 15.75 4.042969 15.300781 4.5 14.753906 4.5 C 14.203125 4.5 13.753906 4.050781 13.753906 3.503906 C 13.753906 2.953125 14.199219 2.496094 14.753906 2.496094 Z M 14.753906 2.496094 "></path><path style=" stroke:none;fill-rule:nonzero;fill:rgb(36.862745%,55.686275%,24.313725%);fill-opacity:1;" d="M 2.25 0 L 2.25 30 L 32.25 30 L 32.25 0 Z M 3.246094 0.996094 L 31.246094 0.996094 L 31.246094 6 L 3.246094 6 Z M 3.246094 29.003906 L 3.246094 6.996094 L 8.25 6.996094 L 8.25 28.996094 L 3.246094 28.996094 Z M 31.253906 29.003906 L 9.246094 29.003906 L 9.246094 6.996094 L 31.246094 6.996094 L 31.246094 29.003906 Z M 31.253906 29.003906 "></path><path style=" stroke:none;fill-rule:nonzero;fill:rgb(36.862745%,55.686275%,24.313725%);fill-opacity:1;" d="M 6.75 9 L 4.746094 9 C 4.46875 9 4.246094 9.226562 4.246094 9.503906 C 4.246094 9.78125 4.46875 10.003906 4.746094 10.003906 L 6.75 10.003906 C 7.027344 10.003906 7.253906 9.78125 7.253906 9.503906 C 7.253906 9.226562 7.027344 9 6.75 9 Z M 6.75 9 "></path><path style=" stroke:none;fill-rule:nonzero;fill:rgb(36.862745%,55.686275%,24.313725%);fill-opacity:1;" d="M 6.75 11.496094 L 4.746094 11.496094 C 4.46875 11.496094 4.246094 11.722656 4.246094 12 C 4.246094 12.277344 4.46875 12.503906 4.746094 12.503906 L 6.75 12.503906 C 7.027344 12.503906 7.253906 12.277344 7.253906 12 C 7.253906 11.722656 7.027344 11.496094 6.75 11.496094 Z M 6.75 11.496094 "></path><path style=" stroke:none;fill-rule:nonzero;fill:rgb(36.862745%,55.686275%,24.313725%);fill-opacity:1;" d="M 6.75 14.003906 L 4.746094 14.003906 C 4.46875 14.003906 4.246094 14.226562 4.246094 14.503906 C 4.246094 14.78125 4.46875 15.007812 4.746094 15.007812 L 6.75 15.007812 C 7.027344 15.007812 7.253906 14.78125 7.253906 14.503906 C 7.253906 14.226562 7.027344 14.003906 6.75 14.003906 Z M 6.75 14.003906 "></path><path style=" stroke:none;fill-rule:nonzero;fill:rgb(36.862745%,55.686275%,24.313725%);fill-opacity:1;" d="M 6.75 16.5 L 4.746094 16.5 C 4.46875 16.5 4.246094 16.726562 4.246094 17.003906 C 4.246094 17.28125 4.46875 17.503906 4.746094 17.503906 L 6.75 17.503906 C 7.027344 17.503906 7.253906 17.28125 7.253906 17.003906 C 7.253906 16.726562 7.027344 16.5 6.75 16.5 Z M 6.75 16.5 "></path><path style=" stroke:none;fill-rule:nonzero;fill:rgb(36.862745%,55.686275%,24.313725%);fill-opacity:1;" d="M 6.75 18.996094 L 4.746094 18.996094 C 4.46875 18.996094 4.246094 19.222656 4.246094 19.5 C 4.246094 19.777344 4.46875 20.003906 4.746094 20.003906 L 6.75 20.003906 C 7.027344 20.003906 7.253906 19.777344 7.253906 19.5 C 7.253906 19.222656 7.027344 18.996094 6.75 18.996094 Z M 6.75 18.996094 "></path><path style=" stroke:none;fill-rule:nonzero;fill:rgb(36.862745%,55.686275%,24.313725%);fill-opacity:1;" d="M 6.75 21.503906 L 4.746094 21.503906 C 4.46875 21.503906 4.246094 21.726562 4.246094 22.003906 C 4.246094 22.28125 4.46875 22.507812 4.746094 22.507812 L 6.75 22.507812 C 7.027344 22.507812 7.253906 22.28125 7.253906 22.003906 C 7.253906 21.726562 7.027344 21.503906 6.75 21.503906 Z M 6.75 21.503906 "></path><path style=" stroke:none;fill-rule:nonzero;fill:rgb(36.862745%,55.686275%,24.313725%);fill-opacity:1;" d="M 6.75 24 L 4.746094 24 C 4.46875 24 4.246094 24.226562 4.246094 24.503906 C 4.246094 24.78125 4.46875 25.003906 4.746094 25.003906 L 6.75 25.003906 C 7.027344 25.003906 7.253906 24.78125 7.253906 24.503906 C 7.253906 24.226562 7.027344 24 6.75 24 Z M 6.75 24 "></path><path style=" stroke:none;fill-rule:nonzero;fill:rgb(36.862745%,55.686275%,24.313725%);fill-opacity:1;" d="M 6.75 26.496094 L 4.746094 26.496094 C 4.46875 26.496094 4.246094 26.722656 4.246094 27 C 4.246094 27.277344 4.46875 27.503906 4.746094 27.503906 L 6.75 27.503906 C 7.027344 27.503906 7.253906 27.277344 7.253906 27 C 7.253906 26.722656 7.027344 26.496094 6.75 26.496094 Z M 6.75 26.496094 "></path><path style=" stroke:none;fill-rule:nonzero;fill:rgb(36.862745%,55.686275%,24.313725%);fill-opacity:1;" d="M 19.253906 9 L 11.25 9 L 11.25 17.003906 L 19.253906 17.003906 Z M 15.75 15.996094 C 15.75 15.71875 15.523438 15.496094 15.246094 15.496094 C 14.96875 15.496094 14.746094 15.71875 14.746094 15.996094 L 12.75 15.996094 C 12.75 15.71875 12.523438 15.496094 12.246094 15.496094 L 12.246094 13.5 C 12.523438 13.5 12.75 13.273438 12.75 12.996094 C 12.75 12.71875 12.523438 12.496094 12.246094 12.496094 L 12.246094 10.5 C 12.523438 10.5 12.75 10.273438 12.75 9.996094 L 14.753906 9.996094 C 14.753906 10.273438 14.976562 10.5 15.253906 10.5 C 15.523438 10.5 15.75 10.273438 15.75 9.996094 L 17.753906 9.996094 C 17.753906 10.273438 17.976562 10.5 18.253906 10.5 L 18.253906 12.503906 C 17.976562 12.503906 17.753906 12.726562 17.753906 13.003906 C 17.753906 13.28125 17.976562 13.507812 18.253906 13.507812 L 18.253906 15.511719 C 17.976562 15.511719 17.753906 15.734375 17.753906 16.011719 L 15.75 16.011719 Z M 15.75 15.996094 "></path><path style=" stroke:none;fill-rule:nonzero;fill:rgb(36.862745%,55.686275%,24.313725%);fill-opacity:1;" d="M 29.25 9 L 21.246094 9 L 21.246094 17.003906 L 29.25 17.003906 Z M 28.253906 15.996094 L 22.253906 15.996094 L 22.253906 9.996094 L 28.253906 9.996094 Z M 28.253906 15.996094 "></path><path style=" stroke:none;fill-rule:nonzero;fill:rgb(36.862745%,55.686275%,24.313725%);fill-opacity:1;" d="M 19.253906 27 L 19.253906 18.996094 L 11.25 18.996094 L 11.25 27 Z M 12.246094 20.003906 L 18.246094 20.003906 L 18.246094 26.003906 L 12.246094 26.003906 Z M 12.246094 20.003906 "></path><path style=" stroke:none;fill-rule:nonzero;fill:rgb(36.862745%,55.686275%,24.313725%);fill-opacity:1;" d="M 29.25 18.996094 L 21.246094 18.996094 L 21.246094 27 L 29.25 27 Z M 28.253906 26.003906 L 22.253906 26.003906 L 22.253906 20.003906 L 28.253906 20.003906 Z M 28.253906 26.003906 "></path><path style=" stroke:none;fill-rule:nonzero;fill:rgb(36.862745%,55.686275%,24.313725%);fill-opacity:1;" d="M 17.25 11.496094 C 17.25 11.773438 17.023438 12 16.746094 12 C 16.46875 12 16.246094 11.773438 16.246094 11.496094 C 16.246094 11.21875 16.46875 10.996094 16.746094 10.996094 C 17.023438 10.996094 17.25 11.21875 17.25 11.496094 Z M 17.25 11.496094 "></path><path style=" stroke:none;fill-rule:nonzero;fill:rgb(36.862745%,55.686275%,24.313725%);fill-opacity:1;" d="M 15.75 12.996094 C 15.75 13.273438 15.523438 13.5 15.246094 13.5 C 14.96875 13.5 14.746094 13.273438 14.746094 12.996094 C 14.746094 12.71875 14.96875 12.496094 15.246094 12.496094 C 15.523438 12.496094 15.75 12.71875 15.75 12.996094 Z M 15.75 12.996094 "></path><path style=" stroke:none;fill-rule:nonzero;fill:rgb(36.862745%,55.686275%,24.313725%);fill-opacity:1;" d="M 17.25 14.496094 C 17.25 14.773438 17.023438 15 16.746094 15 C 16.46875 15 16.246094 14.773438 16.246094 14.496094 C 16.246094 14.21875 16.46875 13.996094 16.746094 13.996094 C 17.023438 13.996094 17.25 14.21875 17.25 14.496094 Z M 17.25 14.496094 "></path><path style=" stroke:none;fill-rule:nonzero;fill:rgb(36.862745%,55.686275%,24.313725%);fill-opacity:1;" d="M 14.25 11.496094 C 14.25 11.773438 14.023438 12 13.746094 12 C 13.46875 12 13.246094 11.773438 13.246094 11.496094 C 13.246094 11.21875 13.46875 10.996094 13.746094 10.996094 C 14.023438 10.996094 14.25 11.21875 14.25 11.496094 Z M 14.25 11.496094 "></path><path style=" stroke:none;fill-rule:nonzero;fill:rgb(36.862745%,55.686275%,24.313725%);fill-opacity:1;" d="M 14.25 14.496094 C 14.25 14.773438 14.023438 15 13.746094 15 C 13.46875 15 13.246094 14.773438 13.246094 14.496094 C 13.246094 14.21875 13.46875 13.996094 13.746094 13.996094 C 14.023438 13.996094 14.25 14.21875 14.25 14.496094 Z M 14.25 14.496094 "></path></g></svg> 