<?xml version="1.0" encoding="UTF-8"?> <!-- Generator: Adobe Illustrator 25.1.0, SVG Export Plug-In . SVG Version: 6.00 Build 0) --> <svg xmlns="http://www.w3.org/2000/svg" xmlns:xlink="http://www.w3.org/1999/xlink" version="1.1" id="Layer_1" x="0px" y="0px" viewBox="0 0 30 30" style="enable-background:new 0 0 30 30;" xml:space="preserve"> <style type="text/css"> .st0{fill-rule:evenodd;clip-rule:evenodd;fill:#0C0E0F;} </style> <g> <path class="st0" d="M10.6,21.1h-0.3c-0.3,0-1-0.4-1-0.9l-0.5-4.9v-0.1c0-0.2,0.1-0.3,0.2-0.5c0.2-0.2,0.5-0.3,0.8-0.3h0.4 c0,0,0,0,0,0v-0.2c0,0,0,0,0,0H7.3c0,0,0,0,0,0l0,0.3c0,0-1.9,3.8-2,4c-0.1-0.2-2-4.3-2-4.3c0,0,0,0,0,0H0.5c0,0,0,0,0,0v0.2 c0,0,0,0,0,0H1c0.6,0,1,0.5,1,0.8l0,0.2l-0.4,4.2c-0.1,0.7-0.7,1.4-1.4,1.4h0c0,0,0,0,0,0v0.2h3.4v-0.2c0,0,0,0,0,0H2.8 c-0.1,0-0.3,0-0.4-0.1l-0.1-0.1c-0.3-0.2-0.4-0.6-0.4-1c0-0.1,0-0.2,0-0.4c0,0,0.3-3.3,0.4-4c0.1,0.3,2.3,4.8,2.3,4.8c0,0,0,0,0,0 c0,0,0,0,0,0c0,0,2.5-4.9,2.7-5.2c0,0.3,0.5,5,0.5,5v0.1c0,0.2-0.1,0.4-0.2,0.5c-0.2,0.2-0.5,0.3-0.8,0.3H6.6c0,0,0,0,0,0.1v0.2 c0,0,0,0,0,0h4c0,0,0,0,0,0L10.6,21.1C10.7,21.1,10.7,21.1,10.6,21.1z M14.9,14.2h-3.7v0.2c0,0,0,0,0,0h0.3c0.4,0,0.8,0.3,0.8,0.8 v5c0,0.2-0.1,0.4-0.2,0.5c-0.2,0.2-0.4,0.3-0.6,0.3h-0.3c0,0,0,0,0,0v0.2c0,0,0,0,0,0H15c0,0,0,0,0,0v-0.2c0,0,0,0-0.1,0h-0.2 c-0.1,0-0.3,0-0.4-0.1L14.2,21c0,0,0,0,0,0c-0.2-0.2-0.4-0.4-0.4-0.7v-5c0-0.4,0.4-0.8,0.8-0.8h0.3c0,0,0,0,0,0L14.9,14.2 C15,14.2,15,14.2,14.9,14.2L14.9,14.2z M20.7,17.6c-0.5-0.4-1.1-0.6-1.7-0.8l-0.5-0.2c-0.3-0.1-0.6-0.2-0.8-0.4l-0.1,0 c-0.3-0.2-0.4-0.5-0.4-0.8c0-0.2,0.1-0.5,0.3-0.6c0.2-0.3,0.7-0.4,1.1-0.4c0.5,0,1,0.2,1.4,0.7l0.1,0.1c0.2,0.3,0.4,0.6,0.6,1 c0,0,0,0,0,0l0.2,0c0,0,0,0,0,0c-0.1-0.7-0.2-1.4-0.3-2.1c0,0,0,0,0,0h0c-0.2,0.1-0.3,0.1-0.5,0.1c-0.2,0-0.4,0-0.6,0 c-0.2,0-0.5,0-0.8,0c-0.9,0-1.7,0.3-2.2,0.8c-0.3,0.3-0.5,0.8-0.5,1.2c0,0.4,0.2,0.8,0.5,1.1c0.5,0.5,1.1,0.7,1.7,0.9l0.4,0.1 l0.2,0.1c0.5,0.2,0.9,0.3,1.2,0.7c0.2,0.2,0.2,0.4,0.2,0.7c0,0.4-0.2,0.8-0.4,1.1c-0.3,0.3-0.7,0.5-1.2,0.5c-1.1,0-2.1-0.9-2.6-2.4 c0,0,0,0,0,0l-0.2,0c0,0,0,0,0,0l0.2,2.3c0,0,0,0,0,0c0.6,0.2,1.4,0.3,2.2,0.3c1.8,0,3.1-1.1,3.1-2.5C21.4,18.4,21.2,18,20.7,17.6 L20.7,17.6z M29.6,14.8c0-0.1,0-0.3,0.1-0.5c0,0,0,0,0,0c0,0,0,0,0,0h-8c0,0,0,0,0,0c0,0,0,0,0,0c0,0.2,0,0.4,0,0.6 c0,0.3,0,0.8-0.1,1.3c0,0,0,0,0,0l0.2,0.1c0,0,0,0,0,0c1-1.2,2-1.8,2.4-1.8c0.2,0,0.4,0.1,0.5,0.3l0,0c0.1,0.1,0.1,0.3,0.1,0.4v5 c0,0.5-0.4,0.8-0.8,0.8h-0.4c0,0,0,0,0,0v0.2c0,0,0,0,0,0h3.7c0,0,0,0,0,0v-0.2c0,0,0,0,0,0h-0.3c-0.1,0-0.3,0-0.4-0.1v0 c-0.3-0.1-0.4-0.4-0.4-0.7v-5c0-0.4,0.4-0.8,0.7-0.8c0.4,0,1.3,0.4,2.1,1.3l0,0l0.1,0.1l0.2,0.3c0,0,0,0,0,0l0.2,0l0,0v0 C29.6,15.8,29.6,15.4,29.6,14.8L29.6,14.8z M4.2,13.2h1.2v-0.2c0,0,0,0,0,0H5.1c0,0-0.1,0-0.1,0c0,0-0.1-0.1-0.1-0.2 c0,0,0-0.1,0-0.1c0,0,0-0.1,0.1-0.3H6c0,0,0.1,0.2,0.1,0.2l0,0.1l0,0.1l0,0.1c0,0.1-0.1,0.2-0.2,0.2H5.8c0,0,0,0,0,0v0.2 c0,0,0,0,0,0h1.5c0,0,0,0,0,0v-0.2c0,0,0,0,0,0H7.1c0,0-0.2,0-0.3-0.5l-0.9-2.2c0,0,0,0,0,0s0,0,0,0l0,0.1l-0.9,2.2 c0,0.1-0.1,0.2-0.3,0.4c-0.1,0.1-0.2,0.1-0.2,0.1H4.2c0,0,0,0,0,0L4.2,13.2C4.1,13.2,4.1,13.2,4.2,13.2L4.2,13.2z M5.2,11.9 c0-0.1,0.3-0.6,0.3-0.7c0,0.1,0.3,0.7,0.3,0.7H5.2L5.2,11.9z M15.4,12.9h-0.2c0,0-0.2,0-0.4-0.5l-0.9-2.1c0,0-0.1-0.1-0.1-0.1 c0,0,0,0,0,0s0,0,0,0l0,0.1l-0.9,2.1c0,0.1-0.1,0.2-0.3,0.4c-0.1,0.1-0.2,0.1-0.2,0.1h-0.1c0,0,0,0,0,0v0.2c0,0,0,0,0,0h1.1 c0,0,0,0,0,0v-0.2c0,0,0,0,0,0l0,0h-0.2c0,0-0.1,0-0.1,0c0,0,0-0.1,0-0.2c0,0,0-0.1,0-0.1c0,0,0.1-0.2,0.2-0.3H14 c0,0,0.1,0.3,0.1,0.3l0,0.1v0.1c0,0.1-0.1,0.2-0.2,0.2h-0.2c0,0,0,0,0,0v0.2c0,0,0,0,0,0h1.5c0,0,0,0,0,0L15.4,12.9 C15.4,12.9,15.4,12.9,15.4,12.9L15.4,12.9z M13.9,11.9h-0.6c0-0.1,0.3-0.6,0.3-0.7C13.7,11.3,13.9,11.9,13.9,11.9z M22.7,13.2h1.2 V13v0h-0.2c0,0-0.1,0-0.1,0c0,0-0.1-0.1-0.1-0.2c0,0,0-0.1,0-0.1c0,0,0.1-0.2,0.1-0.3h0.9c0,0,0.1,0.2,0.1,0.2l0.1,0.2l0,0.1 c0,0.1-0.1,0.3-0.2,0.3h-0.2c0,0,0,0,0,0v0.2c0,0,0,0,0,0h1.5c0,0,0,0,0,0V13v0h-0.2c0,0-0.2,0-0.4-0.5l-0.9-2.1l0-0.1c0,0,0,0,0,0 c0,0,0,0,0,0l-1,2.3c0,0.1-0.1,0.2-0.3,0.3c-0.1,0.1-0.1,0.2-0.2,0.2h-0.1c0,0,0,0,0,0L22.7,13.2C22.6,13.2,22.6,13.2,22.7,13.2 L22.7,13.2L22.7,13.2L22.7,13.2z M23.8,11.9c0-0.1,0.3-0.6,0.3-0.7c0.1,0.2,0.3,0.7,0.3,0.7H23.8z M30,10.3h-1.3v0.2c0,0,0,0,0,0 H29c0.1,0,0.2,0,0.2,0.2c0.1,0.1,0.1,0.2,0.1,0.4v1.1l-1.7-1.9h-0.9c0,0,0,0,0,0v0.2c0,0,0,0.1,0,0.1h0.2c0,0,0.1,0,0.3,0.2v1.6 c0,0.3-0.1,0.5-0.3,0.5h-0.1c0,0,0,0,0,0v0.2c0,0,0,0,0,0c0,0,0,0,0,0H28l0,0c0,0,0,0,0,0V13c0,0,0,0,0,0h-0.3l0,0 c0,0-0.1,0-0.1-0.1c-0.1-0.1-0.2-0.3-0.2-0.4V11c0.2,0.2,1.9,2.2,1.9,2.2h0.2c0,0,0,0,0,0v-2.2c0-0.2,0.1-0.3,0.2-0.4 c0.1,0,0.1-0.1,0.2-0.1H30c0,0,0.1,0,0.1,0L30,10.3C30.1,10.3,30.1,10.3,30,10.3L30,10.3z M11.5,10.5 C11.6,10.5,11.6,10.5,11.5,10.5l0-0.2c0,0,0,0,0,0h-1.3l0,0c0,0,0,0,0,0v0.2c0,0,0,0,0,0h0.2c0.1,0,0.2,0.1,0.2,0.2 c0.1,0.1,0.1,0.2,0.1,0.4v1.1c-0.1-0.2-1.7-1.9-1.7-1.9l0,0H8.2c0,0,0,0,0,0v0.2c0,0,0,0,0,0h0.2c0,0,0.1,0,0.3,0.2v1.7 c0,0.3-0.1,0.5-0.3,0.5H8.2c0,0,0,0,0,0v0.2c0,0,0,0,0,0h1.3v-0.2c0,0,0,0,0,0H9.2c0,0-0.1,0-0.1-0.1c-0.1-0.1-0.2-0.3-0.2-0.5V11 c0.2,0.2,2,2.2,2,2.2c0,0,0,0,0,0h0.2c0,0,0,0,0,0v-2.2c0-0.2,0.1-0.3,0.2-0.4c0,0,0.1-0.1,0.1-0.1H11.5L11.5,10.5z M16.4,12.9 h-0.1c0,0,0,0,0,0v0.2c0,0,0,0,0,0h0.9l0.2,0c0,0,0.2,0,0.2,0c0.3,0,0.6-0.1,0.8-0.3c0.4-0.3,0.6-0.7,0.6-1.2 c0-0.3-0.1-0.6-0.2-0.9c0,0,0-0.1,0-0.1c-0.1-0.1-0.2-0.3-0.4-0.3c-0.2-0.2-0.5-0.2-0.8-0.2h-1.2c0,0,0,0,0,0v0.2c0,0,0,0,0,0h0.1 c0,0,0.1,0,0.1,0.1c0,0,0.1,0.1,0.1,0.2v1.9C16.6,12.8,16.5,12.9,16.4,12.9L16.4,12.9z M17.2,12.7v-1.9c0,0,0-0.1,0-0.1 c0,0,0.2-0.1,0.3-0.1c0.2,0,0.4,0.1,0.5,0.2c0,0,0.1,0.1,0.1,0.2c0.1,0.2,0.2,0.5,0.2,0.8c0,0.5-0.1,0.9-0.3,1.1 c-0.1,0.1-0.2,0.2-0.4,0.2h-0.1l-0.2,0c0,0-0.1,0-0.1-0.1C17.2,12.8,17.2,12.8,17.2,12.7L17.2,12.7z M20.3,13.2h1.3c0,0,0,0,0,0V13 c0,0,0,0,0,0h-0.1c0,0,0,0,0,0c0,0-0.1,0-0.1,0c0,0-0.1-0.1-0.1-0.2v-1.9c0,0,0-0.1,0.1-0.2c0,0,0.1-0.1,0.1-0.1h0.1c0,0,0,0,0,0 v-0.2v0h-1.3c0,0,0,0,0,0v0.2h0.2c0,0,0.1,0,0.1,0.1c0,0,0.1,0.1,0.1,0.2v1.9c0,0.1-0.1,0.2-0.2,0.2h-0.1c0,0,0,0,0,0L20.3,13.2 C20.2,13.2,20.2,13.2,20.3,13.2L20.3,13.2z M1.3,13c0.2,0.2,0.5,0.2,0.8,0.2c0.5,0,1-0.3,1.2-0.8l0,0v0l0,0l-0.1,0l0,0c0,0,0,0,0,0 l0,0l0,0.1c-0.2,0.4-0.5,0.7-0.9,0.7c-0.1,0-0.2,0-0.3-0.1c0,0-0.1,0-0.2-0.1l-0.1-0.1c-0.2-0.2-0.3-0.6-0.3-1c0-0.5,0.1-0.8,0.3-1 c0.1-0.1,0.3-0.2,0.4-0.2c0.4,0,0.8,0.3,1.1,0.8l0,0c0,0,0,0,0,0l0.2-0.1c0,0,0,0,0-0.1l0,0c-0.1-0.3-0.2-0.5-0.2-0.8v-0.2 c0,0,0,0,0,0h0l-0.1,0c-0.1,0-0.2,0.1-0.4,0.1c-0.1,0-0.2,0-0.4,0c-0.1,0-0.2,0-0.3,0c-0.4,0-0.7,0.2-1,0.5c-0.2,0.3-0.4,0.6-0.4,1 C0.6,12.3,0.9,12.8,1.3,13L1.3,13z M28.1,20.8c0.1,0,0.2,0,0.2,0.1c0,0.1,0.1,0.1,0.1,0.2c0,0.1,0,0.2-0.1,0.2 c-0.1,0.1-0.1,0.1-0.2,0.1c-0.1,0-0.2,0-0.2-0.1c-0.1-0.1-0.1-0.1-0.1-0.2c0-0.1,0-0.1,0.1-0.2C27.9,20.8,28,20.8,28.1,20.8 L28.1,20.8z M28.4,21.1c0-0.1,0-0.2-0.1-0.2c-0.1-0.1-0.1-0.1-0.2-0.1c-0.1,0-0.2,0-0.2,0.1c-0.1,0.1-0.1,0.2-0.1,0.2 c0,0.1,0,0.2,0.1,0.3c0.1,0.1,0.2,0.1,0.2,0.1c0.1,0,0.2,0,0.2-0.1C28.4,21.3,28.4,21.2,28.4,21.1z M28.2,21 C28.2,21,28.2,21,28.2,21L28,21.1v-0.1L28.2,21C28.1,20.9,28.1,20.9,28.2,21C28.2,21,28.2,21,28.2,21L28.2,21z M27.9,20.9v0.4H28 v-0.2h0c0,0,0.1,0,0.1,0c0,0,0,0,0,0.1v0h0.1v0v-0.1c0,0,0,0,0,0c0,0,0,0-0.1,0c0,0,0,0,0.1,0c0,0,0,0,0-0.1c0,0,0-0.1,0-0.1 L27.9,20.9L27.9,20.9z"></path> </g> </svg> 