<?xml version="1.0" encoding="UTF-8"?> <!-- Generator: Adobe Illustrator 25.1.0, SVG Export Plug-In . SVG Version: 6.00 Build 0) --> <svg xmlns="http://www.w3.org/2000/svg" xmlns:xlink="http://www.w3.org/1999/xlink" version="1.1" id="Layer_1" x="0px" y="0px" viewBox="0 0 48 37" style="enable-background:new 0 0 48 37;" xml:space="preserve"> <style type="text/css"> .st0{fill:#E95163;} </style> <g> <path class="st0" d="M25.2,0H11C9,0,7.4,1.6,7.4,3.6v29.5c0,2,1.6,3.6,3.6,3.6h14.1c2,0,3.6-1.6,3.6-3.6v-4.9h2.3v-7.1h-2.3v-1.5 h6.9v1.5h-2.3v7.1h7.1v-7.1h-2.4v-3.9h-9.3v-1.8h5.4V8.5h-5.5V3.6C28.8,1.6,27.2,0,25.2,0z M38.2,25.9h-2.3v-2.2h2.3V25.9z M11,2.4 h14.1c0.6,0,1.2,0.5,1.2,1.1c0,0,0,0.1,0,0.1v1.1H9.8V3.6C9.8,3,10.4,2.4,11,2.4z M25.2,34.4H11c-0.7,0-1.2-0.5-1.2-1.2v-2.6h16.6 v2.6C26.4,33.8,25.9,34.4,25.2,34.4C25.2,34.4,25.2,34.4,25.2,34.4z M19.3,23.7v2.2h-2.3v-2.2H19.3z M28.7,23.7v2.2h-2.2v-2.2H28.7 z M26.4,21.2h-2.3v6.9h-2.3v-6.9h-2.3v-1.5h7V21.2z M26.4,17.4H17v3.9h-2.4v6.9H9.8v-21h16.6v1.3H21v7.1h5.5V17.4z M31.9,13.2h-8.5 v-2.2h8.5V13.2z"></path> </g> </svg> 