<?xml version="1.0" encoding="UTF-8"?> <!-- Generator: Adobe Illustrator 23.0.3, SVG Export Plug-In . SVG Version: 6.00 Build 0) --> <svg xmlns="http://www.w3.org/2000/svg" xmlns:xlink="http://www.w3.org/1999/xlink" version="1.1" id="Layer_1" x="0px" y="0px" viewBox="0 0 476 399" style="enable-background:new 0 0 476 399;" xml:space="preserve"> <style type="text/css"> .st0{fill:#40C4FF;} .st1{opacity:0.18;fill:#C2C2C2;enable-background:new ;} .st2{fill:#3BB7E2;} .st3{fill:#2176FF;} .st4{fill:#FFFFFF;} .st5{fill:#F6F6F6;} .st6{fill:#FFDE56;} .st7{fill:#FF8056;} .st8{fill:#D3D3D3;} .st9{fill:#E3E3E3;} .st10{fill:#C2C2C2;} .st11{fill:#ECECEC;} .st12{clip-path:url(#SVGID_2_);} .st13{fill:#909090;} .st14{fill:none;stroke:#E3E3E3;stroke-width:2.1298;stroke-miterlimit:10;} .st15{fill:none;stroke:#E3E3E3;stroke-width:1.7443;stroke-miterlimit:10;} .st16{fill:#FF8E00;} .st17{fill:#FBC39D;} .st18{fill:#D83C35;} .st19{fill:#EF4335;} .st20{fill:#FF3000;} .st21{fill:#222728;} .st22{fill:#F9AD26;} .st23{fill:#FFBE36;} .st24{fill:none;stroke:#2176FF;stroke-width:1.7779;stroke-linecap:round;stroke-linejoin:round;} .st25{fill:none;stroke:#2176FF;stroke-width:1.7779;stroke-linecap:round;stroke-linejoin:round;stroke-dasharray:3.5037,3.9174;} .st26{fill:none;stroke:#2176FF;stroke-width:1.7779;stroke-linecap:round;stroke-linejoin:round;stroke-miterlimit:10;} </style> <path class="st0" d="M328.4,396.7c-11.1,0-22.1,0-33.2,0c-0.8-0.1-1.5-0.3-2.3-0.4c-18.4-0.5-36.8-2.2-55-4.9 c-16.4-2.4-32.3-6.1-47.2-13.7c-25.6-13.1-47.9-30.5-68.2-50.6c-16.6-16.4-30.9-34.7-45-53.2c-12.2-16-25.1-31.4-40.2-44.8 c-14.8-13.2-24.7-29.5-29.7-48.7c-1.2-4.6-1.8-9.3-2.6-13.9c0-4.4,0-8.8,0-13.2c0.2-0.5,0.4-1,0.4-1.5c1-11.3,4.3-22,9.3-32.1 c8.5-17.5,20.6-32.4,34.8-45.5c16-14.8,32.5-29,52.9-37.5c10.8-4.5,21.6-9.2,32.7-13.1c25.1-9,50.8-15.2,77.4-17.8 c5.3-0.5,10.6-1,15.9-1.5c7.6,0,15.1,0,22.6,0c6.5,0.7,13.1,1.2,19.6,2.1C298.8,10,325,19,349,34.3c15.2,9.7,29.3,20.7,40.6,34.8 c10.2,12.7,17.6,27.2,24.7,41.8c16.3,33.3,28.7,68.1,40.1,103.3c5.9,18.3,10.5,36.8,12.4,55.9c0.5,4.6,0.9,9.2,1.3,13.8 c0,6.5,0,13,0,19.5c-0.1,0.9-0.3,1.7-0.5,2.6c-1.3,8.4-2,16.9-3.9,25.1c-8.1,34.1-30.8,54.7-65.5,59.8c-6.3,0.9-12.7,1.1-19.1,1.7 c-11.1,1-22.2,2.1-33.3,3C340,396.1,334.2,396.4,328.4,396.7z"></path> <g> <path class="st1" d="M354.5,367.4c0,7.6-35.7,7.6-110.6,7.6c-66.6,0-108.7,0-108.7-7.6s43.3-7.6,108.7-7.6 C316.2,359.8,354.5,360.8,354.5,367.4z"></path> </g> <path class="st2" d="M316.5,71.8H198.4c-11.1,0-20.1,9-20.1,20.1v253.8c0,11.1,9,20.1,20.1,20.1h118.1c11.1,0,20.1-9,20.1-20.1V91.9 C336.6,80.8,327.6,71.8,316.5,71.8z"></path> <path class="st3" d="M298.1,71.8H180c-11.1,0-20.1,9-20.1,20.1v253.8c0,11.1,9,20.1,20.1,20.1h118.1c11.1,0,20.1-9,20.1-20.1V91.9 C318.2,80.8,309.2,71.8,298.1,71.8z"></path> <path class="st4" d="M235.3,354.5c-6.7,0-12.2-5.5-12.2-12.2c0-6.7,5.5-12.2,12.2-12.2c6.7,0,12.2,5.5,12.2,12.2 C247.5,349.1,242,354.5,235.3,354.5z"></path> <g> <path class="st4" d="M253.6,83.5h-28.1c-0.7,0-1.3,0.6-1.3,1.3s0.6,1.3,1.3,1.3h28.1c0.7,0,1.3-0.6,1.3-1.3S254.3,83.5,253.6,83.5z "></path> <path class="st4" d="M219,86.6c-0.5,0-0.9-0.2-1.2-0.5c-0.1-0.1-0.2-0.2-0.2-0.3s-0.1-0.2-0.2-0.3c0-0.1-0.1-0.2-0.1-0.3 c0-0.1,0-0.2,0-0.3c0-0.1,0-0.2,0-0.3c0-0.1,0.1-0.2,0.1-0.3c0-0.1,0.1-0.2,0.2-0.3s0.1-0.2,0.2-0.3s0.2-0.2,0.3-0.2 c0.1-0.1,0.2-0.1,0.3-0.2c0.1,0,0.2-0.1,0.3-0.1c0.2,0,0.5,0,0.7,0c0.1,0,0.2,0.1,0.3,0.1c0.1,0,0.2,0.1,0.3,0.2 c0.1,0.1,0.2,0.1,0.3,0.2c0.1,0.1,0.1,0.2,0.2,0.3c0.1,0.1,0.1,0.2,0.2,0.3c0,0.1,0.1,0.2,0.1,0.3c0,0.1,0,0.2,0,0.3 c0,0.1,0,0.2,0,0.3c0,0.1-0.1,0.2-0.1,0.3c0,0.1-0.1,0.2-0.2,0.3c-0.1,0.1-0.1,0.2-0.2,0.3c-0.1,0.1-0.2,0.2-0.3,0.2 c-0.1,0.1-0.2,0.1-0.3,0.2c-0.1,0-0.2,0.1-0.3,0.1C219.3,86.6,219.1,86.6,219,86.6z"></path> </g> <rect x="171.6" y="97.6" class="st4" width="133.3" height="221.4"></rect> <rect x="171.6" y="97.6" class="st5" width="133.3" height="22.5"></rect> <g> <path class="st6" d="M186.3,108.3c0,1.8-1.5,3.3-3.3,3.3c-1.8,0-3.3-1.5-3.3-3.3s1.5-3.3,3.3-3.3S186.3,106.5,186.3,108.3z"></path> <circle class="st7" cx="193.4" cy="108.3" r="3.3"></circle> <path class="st8" d="M207.1,108.3c0,1.8-1.5,3.3-3.3,3.3c-1.8,0-3.3-1.5-3.3-3.3s1.5-3.3,3.3-3.3S207.1,106.5,207.1,108.3z"></path> </g> <path class="st9" d="M289.2,152.9h-88.3c-1.6,0-2.8-1.3-2.8-2.8V150c0-1.6,1.3-2.8,2.8-2.8h88.3c1.6,0,2.8,1.3,2.8,2.8v0.1 C292,151.6,290.8,152.9,289.2,152.9z"></path> <g> <path class="st9" d="M266.6,186.3h-64.1c-1.6,0-2.8-1.3-2.8-2.8v-0.1c0-1.6,1.3-2.8,2.8-2.8h64.1c1.6,0,2.8,1.3,2.8,2.8v0.1 C269.4,185,268.1,186.3,266.6,186.3z"></path> <path class="st9" d="M288.3,186.3h-9.6c-1.6,0-2.8-1.3-2.8-2.8v-0.1c0-1.6,1.3-2.8,2.8-2.8h9.6c1.6,0,2.8,1.3,2.8,2.8v0.1 C291.1,185,289.8,186.3,288.3,186.3z"></path> </g> <g> <path class="st10" d="M230.7,170.1h-40.5c-1.6,0-2.8-1.3-2.8-2.8v-0.1c0-1.6,1.3-2.8,2.8-2.8h40.5c1.6,0,2.8,1.3,2.8,2.8v0.1 C233.6,168.8,232.3,170.1,230.7,170.1z"></path> <path class="st10" d="M275.5,170.1h-30.2c-1.6,0-2.8-1.3-2.8-2.8v-0.1c0-1.6,1.3-2.8,2.8-2.8h30.2c1.6,0,2.8,1.3,2.8,2.8v0.1 C278.3,168.8,277.1,170.1,275.5,170.1z"></path> </g> <g> <circle class="st11" cx="205.8" cy="227.7" r="21.5"></circle> <g> <g> <defs> <circle id="SVGID_1_" cx="205.8" cy="227.7" r="15.2"></circle> </defs> <clipPath id="SVGID_2_"> <use xlink:href="#SVGID_1_" style="overflow:visible;"></use> </clipPath> <g class="st12"> <path class="st13" d="M216.4,240.3c0-5.1-4.1-9.2-9.2-9.2h-2.6c-5.1,0-9.2,4.1-9.2,9.2v2.6h20.9L216.4,240.3L216.4,240.3z"></path> <path class="st13" d="M205.9,219c2.9,0,5.2,2.4,5.2,5.2s-2.4,5.2-5.2,5.2s-5.2-2.4-5.2-5.2C200.7,221.3,203.1,219,205.9,219z"></path> </g> </g> </g> </g> <path class="st14" d="M282.8,267.2h-90.9c-3.1,0-5.7,2.5-5.7,5.7v27.3c0,3.1,2.6,5.7,5.7,5.7h90.9c3.1,0,5.7-2.5,5.7-5.7v-27.3 C288.5,269.7,285.9,267.2,282.8,267.2z"></path> <path class="st15" d="M282.8,201.2h-39c-3.1,0-5.7,2.6-5.7,5.7v41.3c0,3.1,2.6,5.7,5.7,5.7h39c3.1,0,5.7-2.6,5.7-5.7v-41.4 C288.5,203.8,285.9,201.2,282.8,201.2z"></path> <path class="st16" d="M237.6,137h-98.8c-1.6,0-2.8-1.3-2.8-2.8v-0.1c0-1.6,1.3-2.8,2.8-2.8h98.8c1.6,0,2.8,1.3,2.8,2.8v0.1 C240.5,135.8,239.2,137,237.6,137z"></path> <polygon class="st17" points="97.6,382.2 111.4,383.1 115.1,362.4 101.2,360.9 "></polygon> <polyline class="st17" points="52.7,366.6 45.9,383.4 31.8,383.4 37.3,365 "></polyline> <polygon class="st18" points="66.5,248 32.6,370.6 53.6,372.3 107.6,248.9 "></polygon> <path class="st19" d="M110.6,248.9l15.9,34c5.3,11.4,6.2,24.3,2.4,36.3L116,370l-18.5-0.6l7.1-64.6l-31.9-40.9 c-2.9-3.7-4.7-8-5.4-12.6l-0.5-3.3L110.6,248.9z"></path> <polygon class="st20" points="104.5,304.9 113.8,311.9 104.1,311.9 "></polygon> <g> <rect x="86.6" y="168" transform="matrix(0.2025 -0.9793 0.9793 0.2025 -91.426 237.698)" class="st17" width="27.3" height="14"></rect> <g> <path class="st17" d="M123.2,143.9c-0.3-1-1.3-1.5-2.3-1.2l-2.4,0.7c-2.7-3.9-7.1-6.4-12.1-6.5c-8.4-0.2-15.3,6.5-15.5,14.8 s6.5,15.3,14.8,15.5c8.4,0.2,15.3-6.5,15.5-14.8c0-2-0.3-3.9-1-5.6l1.7-0.5C123,145.9,123.5,144.9,123.2,143.9z"></path> <path class="st21" d="M111.9,149.9l-1.9-7.6c0,0,8.4-5.2,7.1-14.3l-21.9,4c-5.3,1-8.8,5.7-7.9,10.5l2.2,12.1 c0.4,2.1,2.5,3.4,4.7,2.9l13.6-2.7L111.9,149.9z"></path> <path class="st17" d="M113.1,151.5c-0.1,2.3-2,4.2-4.3,4.1c-2.3-0.1-4.2-2-4.1-4.3s2-4.2,4.3-4.1 C111.3,147.2,113.1,149.2,113.1,151.5z"></path> </g> </g> <path class="st22" d="M92.5,190.5l-13.2-13l-23.5,16.8l-0.5,0.3c-1,0.7-1.9,1.6-2.6,2.7c-3.5,5-2.1,11.8,3.2,15.2l18.7,11.9l12.9-13 l-6.1-7.7L92.5,190.5z"></path> <path class="st3" d="M125.5,198.4l-95,27c-1.5,0.4-3.1-0.4-3.5-1.9l0-0.1c-0.4-1.5,0.5-3.1,2-3.5l95-27c1.5-0.4,3.1,0.4,3.5,1.9 l0,0.1C127.9,196.4,127,197.9,125.5,198.4z"></path> <path class="st3" d="M112.7,195.6L27.2,245c-1.4,0.8-3.1,0.3-3.9-1l0-0.1c-0.8-1.4-0.3-3.1,1-3.9l85.6-49.4c1.4-0.8,3.1-0.3,3.9,1 l0.1,0.1C114.5,193.1,114.1,194.8,112.7,195.6z"></path> <g> <polygon class="st17" points="181.5,142.7 170.6,156.9 176.4,161.2 187.9,145.6 "></polygon> <polygon class="st17" points="181.5,142.7 181.5,137 185.5,137 184.7,145.8 "></polygon> <path class="st17" d="M184.1,140.8c-0.1,0-0.3-0.1-0.4-0.1c-0.4-0.3-0.5-0.8-0.2-1.2l8.2-12c0.3-0.4,0.8-0.5,1.2-0.2 s0.5,0.8,0.2,1.2l-8.2,12C184.7,140.7,184.4,140.8,184.1,140.8z"></path> <path class="st17" d="M185.8,142.5c-0.1,0-0.3-0.1-0.4-0.1c-0.4-0.3-0.5-0.8-0.2-1.2l8.1-11.3c0.3-0.4,0.8-0.5,1.2-0.2 c0.4,0.3,0.5,0.8,0.2,1.2l-8.1,11.3C186.4,142.4,186.1,142.5,185.8,142.5z"></path> <path class="st17" d="M187.3,143.3c-0.2,0-0.3-0.1-0.4-0.2c-0.4-0.3-0.4-0.8-0.1-1.2l8-10c0.3-0.4,0.8-0.4,1.2-0.1 c0.4,0.3,0.4,0.8,0.1,1.2l-8,10C187.9,143.2,187.6,143.3,187.3,143.3z"></path> <path class="st17" d="M188.3,145.3c-0.2,0-0.3-0.1-0.5-0.2c-0.4-0.3-0.4-0.8-0.1-1.2l8.1-9.4c0.3-0.4,0.8-0.4,1.2-0.1 s0.4,0.8,0.1,1.2L189,145C188.9,145.2,188.6,145.3,188.3,145.3z"></path> <path class="st17" d="M189.1,132.6l5.7,5.5l-5.1,6.6c-0.7,0.8-2.5,1.7-3.5,1.2l-4.8-2.6L189.1,132.6z"></path> </g> <path class="st22" d="M88.2,177.6l0.9-6.1c0.2-1.6,1.5-2.9,3.1-3.1c5.5-0.7,17.4-1.1,19.9,8.9L88.2,177.6z"></path> <path class="st23" d="M117.8,175.8l-3.6-0.9c-11.3-2.3-20.3-2.1-29.9,0.4c0,0-10,2-10.2,10.3L66.7,248l43.9,0.9l12.5-61.5 C123.4,181.1,123.7,176.5,117.8,175.8z"></path> <path class="st23" d="M178.8,144.2L152.1,170l-49,7.4L113,204l45.1-14.8l1.6-0.5c1.2-0.4,2.3-1.2,3.1-2.4l23.2-36.3L178.8,144.2z"></path> <polygon class="st21" points="46.5,382 57.7,388.7 29.9,388.7 31.9,382 "></polygon> <polygon class="st21" points="111.8,379.8 122.3,386.5 96.4,386.5 97.7,379.8 "></polygon> <path class="st21" d="M31.8,383.4"></path> <g> <g> <path class="st24" d="M135.6,43.9c0,0-0.6-0.2-1.7-0.5"></path> <path class="st25" d="M130.1,42.3c-12.6-3.2-44.3-8.5-66.9,12.1c-10.5,9.5-16.8,23-18.1,37.2c-1.1,11.2-1,27.1,5,39.9"></path> <path class="st24" d="M51,133.3c0.3,0.5,0.6,1,0.9,1.6"></path> </g> </g> <polygon class="st26" points="147.5,41.9 141.4,53 154,53.3 "></polygon> </svg> 