<?xml version="1.0" encoding="UTF-8"?> <svg xmlns="http://www.w3.org/2000/svg" width="45" height="45" viewBox="0 0 45 45" fill="none"><circle cx="22.4535" cy="22.4535" r="22.4535" fill="#F5F9FF"></circle><path d="M27.1411 15.7309H29.9936V18.5834H27.1411V15.7309Z" fill="#FFCA00"></path><path d="M27.1411 20.0097H29.9936V22.8622H27.1411V20.0097Z" fill="#FFCA00"></path><path d="M22.8623 15.7309H25.7148V18.5834H22.8623V15.7309Z" fill="#FFCA00"></path><path d="M22.8623 20.0097H25.7148V22.8622H22.8623V20.0097Z" fill="#FFCA00"></path><path d="M21.0795 29.2805C21.6702 29.2805 22.1492 28.8015 22.1492 28.2108C22.1492 27.62 21.6702 27.1411 21.0795 27.1411C20.4887 27.1411 20.0098 27.62 20.0098 28.2108C20.0098 28.8015 20.4887 29.2805 21.0795 29.2805Z" fill="#2176FF"></path><path d="M25.7148 32.133H16.4441C16.0659 32.1326 15.7034 31.9822 15.436 31.7148C15.1686 31.4474 15.0182 31.0849 15.0178 30.7067V13.5915C15.0182 13.2133 15.1686 12.8508 15.436 12.5834C15.7034 12.316 16.0659 12.1656 16.4441 12.1652H25.7148V13.5915H16.4441V30.7067H25.7148V25.0016H27.1411V30.7067C27.1407 31.0849 26.9903 31.4474 26.7229 31.7148C26.4555 31.9822 26.093 32.1326 25.7148 32.133Z" fill="#2176FF" stroke="#2176FF" stroke-width="0.25"></path></svg> 