<?xml version="1.0" encoding="UTF-8"?> <svg xmlns="http://www.w3.org/2000/svg" width="45" height="45" viewBox="0 0 45 45" fill="none"><circle cx="22.5" cy="22.5" r="22.5" fill="#EFF5FF"></circle><path d="M13.5946 13.6076C13.377 13.6076 13.2056 13.7784 13.2056 13.9952V30.3326C13.2056 30.5494 13.377 30.7202 13.5946 30.7202H31.9767C32.1943 30.7202 32.3657 30.5494 32.3657 30.3326V13.9952C32.3657 13.7784 32.1943 13.6076 31.9767 13.6076H13.5946ZM13.9836 14.3814H31.5879V17.916H13.9836V14.3814ZM16.7172 15.7618C16.6172 15.7618 16.5151 15.8043 16.4428 15.8749C16.3714 15.9461 16.3282 16.0498 16.3282 16.1494C16.3282 16.2482 16.3708 16.3515 16.4428 16.4227C16.5149 16.4939 16.6172 16.5369 16.7172 16.5369C16.8151 16.5369 16.9192 16.4945 16.9903 16.4239C17.0611 16.3527 17.1049 16.2483 17.1049 16.1494C17.1049 16.0506 17.0617 15.9461 16.9915 15.8749C16.92 15.8049 16.8159 15.7618 16.7172 15.7618ZM19.2238 15.7618C19.1252 15.7618 19.021 15.8043 18.9495 15.8749C18.8786 15.9455 18.836 16.048 18.836 16.1494C18.836 16.2495 18.8786 16.3521 18.9495 16.4227C19.021 16.4939 19.1245 16.5369 19.2238 16.5369C19.3243 16.5369 19.4285 16.4939 19.4993 16.4227C19.5696 16.3527 19.6128 16.2483 19.6128 16.1494C19.6128 16.0506 19.5696 15.9461 19.4993 15.8749C19.4279 15.8049 19.3231 15.7618 19.2238 15.7618ZM21.7312 15.7618C21.6327 15.7618 21.5284 15.8043 21.4569 15.8749C21.386 15.9467 21.3422 16.0518 21.3422 16.1494C21.3422 16.2464 21.3854 16.3507 21.4569 16.4227L21.4581 16.4239C21.5296 16.4945 21.6325 16.5369 21.7312 16.5369C21.8318 16.5369 21.9359 16.4939 22.0068 16.4227C22.077 16.3527 22.1202 16.2483 22.1202 16.1494C22.1202 16.0506 22.077 15.9461 22.0068 15.8749C21.9353 15.8049 21.8305 15.7618 21.7312 15.7618ZM13.9836 18.6898H31.588V29.9469H13.9836V18.6898ZM23.7271 22.0862C23.5768 22.0771 23.4275 22.1538 23.3548 22.2999L21.5081 25.9904C21.4108 26.1844 21.4866 26.4129 21.6813 26.5099C21.7374 26.5375 21.7966 26.5504 21.8545 26.5504C21.9963 26.5504 22.133 26.4742 22.2021 26.3354L24.0488 22.646C24.1462 22.452 24.0697 22.2229 23.8756 22.1265C23.8268 22.1025 23.777 22.0892 23.7271 22.0862ZM19.8278 22.139C19.7273 22.139 19.63 22.1753 19.5535 22.252L17.7224 24.0764C17.6497 24.1488 17.6089 24.2466 17.6089 24.3497C17.6089 24.4528 17.6489 24.5504 17.7224 24.623L19.5462 26.44C19.6232 26.5168 19.72 26.5531 19.8205 26.5531C19.921 26.5531 20.0178 26.5174 20.0948 26.44C20.2489 26.2865 20.2489 26.0464 20.0948 25.8928L18.5453 24.3491L20.1029 22.7998C20.257 22.6457 20.2564 22.4049 20.1029 22.2514C20.0265 22.1753 19.9507 22.139 19.8502 22.139H19.8278ZM25.7499 22.139C25.6494 22.139 25.552 22.1753 25.4756 22.252C25.3215 22.4055 25.3215 22.6457 25.4756 22.7992L27.0251 24.343L25.4674 25.8934C25.3134 26.047 25.3134 26.2871 25.4674 26.4407C25.5439 26.5168 25.6424 26.5537 25.743 26.5537C25.8435 26.5537 25.9402 26.518 26.0173 26.4407L27.8473 24.6163C27.9205 24.5433 27.9619 24.4449 27.9619 24.343C27.9619 24.241 27.9207 24.1409 27.8473 24.0685L26.0247 22.2527C25.9476 22.1759 25.8509 22.1396 25.7504 22.1396L25.7499 22.139Z" fill="#2176FF" stroke="#2176FF" stroke-width="0.75"></path><ellipse cx="16.7239" cy="16.1194" rx="0.671641" ry="0.671642" fill="#FFCA00"></ellipse><ellipse cx="19.209" cy="16.1194" rx="0.671642" ry="0.671642" fill="#FFCA00"></ellipse><ellipse cx="21.7277" cy="16.1194" rx="0.671641" ry="0.671642" fill="#FFCA00"></ellipse><path d="M24.1792 21.4925L21.4926 26.8657" stroke="#FFCA00" stroke-width="2" stroke-linecap="round"></path></svg> 