<?xml version="1.0" encoding="UTF-8"?> <!-- Generator: Adobe Illustrator 25.1.0, SVG Export Plug-In . SVG Version: 6.00 Build 0) --> <svg xmlns="http://www.w3.org/2000/svg" xmlns:xlink="http://www.w3.org/1999/xlink" version="1.1" id="Layer_1" x="0px" y="0px" viewBox="0 0 30 30" style="enable-background:new 0 0 30 30;" xml:space="preserve"> <style type="text/css"> .st0{fill:#599636;} .st1{fill:#6CAC48;} .st2{fill:#C2BFBF;} </style> <g> <path class="st0" d="M15.4,0.1l0.8,1.5c0.2,0.3,0.4,0.5,0.6,0.8c0.7,0.7,1.3,1.4,1.9,2.1c1.4,1.8,2.3,3.8,2.9,5.9 c0.4,1.3,0.6,2.6,0.6,4c0.1,4.1-1.3,7.5-4.1,10.4c-0.5,0.5-0.9,0.9-1.5,1.3c-0.3,0-0.4-0.2-0.5-0.4c-0.2-0.4-0.3-0.8-0.4-1.2 c-0.1-0.5-0.2-1-0.1-1.5v-0.2C15.5,22.7,15.3,0.2,15.4,0.1L15.4,0.1z"></path> <path class="st1" d="M15.4,0C15.4,0,15.3,0,15.4,0c-0.1,0.3-0.2,0.6-0.4,0.9c-0.2,0.3-0.5,0.5-0.7,0.7c-1.5,1.3-2.6,2.8-3.5,4.5 c-1.2,2.3-1.8,4.7-2,7.3c-0.1,0.9,0.3,4.2,0.6,5.2c0.8,2.5,2.2,4.6,4.1,6.5c0.5,0.4,0.9,0.8,1.5,1.2c0.1,0,0.2-0.1,0.2-0.2 c0.1-0.2,0.1-0.4,0.1-0.6l0.3-2.5L15.4,0z"></path> <path class="st2" d="M16.2,27c0-0.4,0.2-0.7,0.4-1c-0.2-0.1-0.3-0.2-0.5-0.4c-0.1-0.2-0.2-0.4-0.2-0.5c-0.2-0.7-0.3-1.4-0.3-2.1 v-0.4c-0.1,0.1-0.1,0.6-0.1,0.7c0,0.7-0.1,1.5-0.3,2.2c0,0.3-0.1,0.6-0.3,0.8c0,0,0,0.1,0,0.1c0.3,0.9,0.4,1.7,0.4,2.6v0.3 c0,0.4,0,0.3,0.3,0.4c0.1,0,0.3,0.1,0.4,0.2c0.1,0,0.1-0.1,0.1-0.1l0-0.5v-1.5C16.1,27.5,16.2,27.3,16.2,27L16.2,27z"></path> </g> </svg> 