<?xml version="1.0" encoding="UTF-8"?> <!-- Generator: Adobe Illustrator 25.1.0, SVG Export Plug-In . SVG Version: 6.00 Build 0) --> <svg xmlns="http://www.w3.org/2000/svg" xmlns:xlink="http://www.w3.org/1999/xlink" version="1.1" id="Layer_1" x="0px" y="0px" viewBox="0 0 30 30" style="enable-background:new 0 0 30 30;" xml:space="preserve"> <style type="text/css"> .st0{fill:#539E43;} </style> <g> <g> <path class="st0" d="M14.6,29.9c-1.7-0.7-3.2-1.8-4.8-2.8c0.8-0.4,1.4-0.7,2-0.9c0.1,0,0.3,0.1,0.5,0.1c0.8,0.4,1.6,0.9,2.4,1.4 c0.2,0.1,0.4,0.1,0.7,0c3.5-2,7-4.1,10.6-6.1c0.3-0.1,0.4-0.4,0.4-0.7c0-4.1,0-8.1,0-12.1c0-0.3-0.1-0.5-0.4-0.7 c-3.5-2-7-4.1-10.5-6.1C15,2,14.8,2,14.5,2.1c-3.5,2-7,4-10.4,6C3.7,8.3,3.6,8.6,3.6,9c0,4,0,8,0,11.9c0,0.4,0.1,0.6,0.4,0.8 c0.9,0.5,1.7,1,2.5,1.4c0.3,0.2,0.6,0.3,1,0.4c1,0.2,1.9-0.4,1.9-1.5c0-1.8,0-3.6,0-5.5c0-2.2,0-4.3,0-6.5c0-0.7,0-0.7,0.7-0.7 c0.2,0,0.4,0,0.6,0c0.6,0,0.6,0,0.6,0.6c0,1.4,0,2.8,0,4.2c0,2.6,0,5.2,0,7.8c0,0.4,0,0.8-0.1,1.2c-0.3,1.3-1.2,2.2-2.6,2.3 c-1.2,0.1-2.2-0.1-3.2-0.7c-0.9-0.5-1.7-1-2.6-1.5s-1.3-1.2-1.3-2.2c0-4.1,0-8.3,0-12.4c0-1,0.4-1.7,1.3-2.2 c3.6-2,7.1-4.1,10.7-6.2c0.9-0.5,1.7-0.5,2.6,0c3.6,2,7.1,4.1,10.7,6.2c0.9,0.5,1.3,1.3,1.3,2.2c0,4.1,0,8.2,0,12.3 c0,1-0.4,1.7-1.3,2.2c-3.6,2-7.2,4.1-10.8,6.2c-0.3,0.1-0.5,0.2-0.8,0.3C15.1,29.9,14.8,29.9,14.6,29.9z"></path> <path class="st0" d="M17.9,21.2c-1,0-2.1-0.1-3.1-0.6c-1.4-0.6-2.1-1.6-2.2-3.1c0-0.5,0.1-0.6,0.6-0.6c0.3,0,0.7,0,1,0 c0.3,0,0.4,0.1,0.5,0.4c0.1,1.1,0.9,1.7,1.9,1.9c1.2,0.2,2.5,0.2,3.7,0c0.6-0.1,1.2-0.4,1.4-1.2c0.2-0.7,0-1.2-0.7-1.4 c-0.7-0.2-1.5-0.4-2.2-0.5c-1.1-0.2-2.3-0.3-3.3-0.6c-1.5-0.4-2.2-1.2-2.3-2.6c-0.1-1.5,0.5-2.6,1.9-3.2c0.7-0.3,1.6-0.5,2.4-0.6 c1.3-0.1,2.6,0,3.8,0.4c1.4,0.6,2.2,1.7,2.3,3.2c0,0.3-0.1,0.5-0.4,0.5c-0.4,0-0.8,0-1.2,0c-0.1,0-0.4-0.2-0.4-0.4 c-0.3-1.3-1.2-1.8-2.3-1.8c-0.9,0-1.7,0-2.6,0.1c-0.8,0.1-1.2,0.6-1.2,1.2c0,0.6,0.1,0.9,0.7,1c0.8,0.2,1.6,0.3,2.5,0.5 c1.1,0.2,2.3,0.4,3.4,0.7c1.2,0.3,2,1,2.1,2.3c0.1,1.4-0.3,2.6-1.5,3.3c-1.1,0.7-2.3,0.9-3.5,0.9C18.5,21.2,18.2,21.2,17.9,21.2z"></path> </g> </g> </svg> 