<?xml version="1.0" encoding="UTF-8"?> <!-- Generator: Adobe Illustrator 25.1.0, SVG Export Plug-In . SVG Version: 6.00 Build 0) --> <svg xmlns="http://www.w3.org/2000/svg" xmlns:xlink="http://www.w3.org/1999/xlink" version="1.1" id="Layer_1" x="0px" y="0px" viewBox="0 0 30 30" style="enable-background:new 0 0 30 30;" xml:space="preserve"> <style type="text/css"> .st0{fill:#A9B9CB;} .st1{fill:#7F8B99;} .st2{fill:#FFFFFF;} </style> <g> <path class="st0" d="M28.3,8.8c0-0.5-0.1-0.9-0.3-1.3c-0.2-0.4-0.5-0.7-1-0.9c-3.5-2-7.1-4.1-10.6-6.1c-1-0.6-1.9-0.5-2.8,0 C12.1,1.3,5.1,5.3,3,6.5C2.1,7,1.7,7.8,1.7,8.8c0,4.1,0,8.2,0,12.3c0,0.5,0.1,0.9,0.3,1.3c0.2,0.4,0.5,0.7,1,1 c2.1,1.2,9.2,5.3,10.6,6.1c0.9,0.6,1.9,0.6,2.8,0c3.5-2,7.1-4.1,10.6-6.1c0.4-0.3,0.8-0.6,1-1c0.2-0.4,0.3-0.8,0.3-1.3 C28.3,21.1,28.3,12.9,28.3,8.8"></path> <path class="st1" d="M16.4,0.4c-1-0.6-1.9-0.5-2.8,0C12.1,1.3,5.1,5.3,3,6.5C2.1,7,1.7,7.8,1.7,8.8c0,4.1,0,8.2,0,12.3 c0,0.5,0.1,0.9,0.3,1.3c0.2,0.4,0.5,0.7,1,1c0.7,0.4,1.4,0.8,2.1,1.2L24.5,5.1C21.8,3.6,19.1,2,16.4,0.4"></path> <path class="st2" d="M17.8,13.1l4.1,0c0-1.7-1.7-6-6.8-6c-3.2,0-7.5,2-7.5,7.9c0,5.8,4.2,7.7,7.5,7.7c5.3,0,6.6-3.7,6.6-5.7l-4-0.2 c0,0,0.1,2.4-2.6,2.4c-2.5,0-3-3.1-3-4.2c0-1.6,0.6-4.2,3-4.2C17.5,10.8,17.8,13.1,17.8,13.1"></path> </g> </svg> 