<?xml version="1.0" encoding="UTF-8"?> <svg xmlns="http://www.w3.org/2000/svg" xmlns:xlink="http://www.w3.org/1999/xlink" width="36pt" height="30pt" viewBox="0 0 36 30" version="1.1"><g id="surface1"><path style=" stroke:none;fill-rule:nonzero;fill:rgb(25.098039%,76.862745%,100%);fill-opacity:1;" d="M 25.84375 25.71875 C 25.703125 25.71875 25.566406 25.664062 25.460938 25.558594 L 23.859375 23.953125 C 23.648438 23.746094 23.648438 23.40625 23.859375 23.199219 C 24.066406 22.988281 24.40625 22.988281 24.613281 23.199219 L 25.84375 24.425781 L 28.679688 21.585938 C 28.890625 21.375 29.226562 21.375 29.4375 21.585938 C 29.648438 21.796875 29.648438 22.132812 29.4375 22.34375 L 26.21875 25.558594 C 26.128906 25.65625 25.988281 25.71875 25.84375 25.71875 Z M 25.84375 25.71875 "></path><path style=" stroke:none;fill-rule:nonzero;fill:rgb(25.098039%,76.862745%,100%);fill-opacity:1;" d="M 22.636719 30 L 7.636719 30 C 6.15625 30 4.957031 28.800781 4.957031 27.324219 L 4.957031 11.78125 C 4.957031 11.488281 5.199219 11.25 5.488281 11.25 C 5.78125 11.25 6.023438 11.488281 6.023438 11.78125 L 6.023438 27.316406 C 6.023438 28.199219 6.742188 28.921875 7.628906 28.921875 L 22.808594 28.921875 C 19.851562 26.953125 19.050781 22.964844 21.015625 20.011719 C 21.359375 19.484375 21.789062 19.019531 22.273438 18.613281 C 22.859375 18.136719 23.527344 17.753906 24.238281 17.496094 L 24.238281 6.425781 C 24.238281 6.136719 24.480469 5.894531 24.773438 5.894531 C 25.066406 5.894531 25.304688 6.136719 25.304688 6.425781 L 25.304688 17.902344 C 25.3125 18.148438 25.15625 18.375 24.914062 18.433594 C 22.074219 19.261719 20.4375 22.238281 21.269531 25.074219 C 21.710938 26.585938 22.800781 27.832031 24.238281 28.46875 C 24.511719 28.589844 24.628906 28.90625 24.511719 29.175781 C 24.480469 29.25 24.425781 29.316406 24.367188 29.371094 C 23.878906 29.78125 23.265625 30 22.636719 30 Z M 22.636719 30 "></path><path style=" stroke:none;fill-rule:nonzero;fill:rgb(25.098039%,76.862745%,100%);fill-opacity:1;" d="M 5.488281 7.5 C 5.199219 7.5 4.957031 7.261719 4.957031 6.96875 L 4.957031 2.675781 C 4.957031 1.199219 6.148438 0 7.636719 0 L 22.636719 0 C 24.113281 0 25.3125 1.199219 25.3125 2.675781 L 25.3125 4.28125 C 25.3125 4.574219 25.074219 4.816406 24.78125 4.816406 C 24.488281 4.816406 24.246094 4.574219 24.246094 4.28125 L 24.246094 2.675781 C 24.246094 1.792969 23.527344 1.074219 22.640625 1.074219 L 7.640625 1.074219 C 6.757812 1.074219 6.039062 1.792969 6.039062 2.675781 L 6.039062 6.960938 C 6.023438 7.261719 5.78125 7.5 5.488281 7.5 Z M 5.488281 7.5 "></path><path style=" stroke:none;fill-rule:nonzero;fill:rgb(25.098039%,76.862745%,100%);fill-opacity:1;" d="M 5.488281 10.175781 C 5.199219 10.175781 4.957031 9.9375 4.957031 9.644531 L 4.957031 9.113281 C 4.957031 8.820312 5.199219 8.578125 5.488281 8.578125 C 5.78125 8.578125 6.023438 8.820312 6.023438 9.113281 L 6.023438 9.644531 C 6.023438 9.9375 5.78125 10.175781 5.488281 10.175781 Z M 5.488281 10.175781 "></path><path style=" stroke:none;fill-rule:nonzero;fill:rgb(25.098039%,76.862745%,100%);fill-opacity:1;" d="M 21.136719 26.78125 L 12.988281 26.78125 C 12.699219 26.78125 12.457031 26.542969 12.457031 26.25 C 12.457031 25.957031 12.699219 25.71875 12.988281 25.71875 L 20.316406 25.71875 C 19.441406 23.25 20.136719 20.488281 22.09375 18.75 L 22.09375 3.75 L 19.101562 3.75 C 18.757812 3.75 18.433594 3.890625 18.195312 4.132812 C 17.753906 4.574219 17.152344 4.824219 16.523438 4.824219 L 13.746094 4.824219 C 13.125 4.824219 12.515625 4.574219 12.074219 4.132812 C 11.835938 3.890625 11.503906 3.75 11.160156 3.75 L 8.167969 3.75 L 8.167969 25.71875 L 10.84375 25.71875 C 11.136719 25.71875 11.378906 25.957031 11.378906 26.25 C 11.378906 26.542969 11.136719 26.78125 10.84375 26.78125 L 8.167969 26.78125 C 7.574219 26.78125 7.09375 26.300781 7.09375 25.710938 L 7.09375 3.75 C 7.09375 3.15625 7.574219 2.675781 8.167969 2.675781 L 11.160156 2.675781 C 11.78125 2.675781 12.390625 2.925781 12.832031 3.367188 C 13.078125 3.609375 13.402344 3.75 13.746094 3.75 L 16.523438 3.75 C 16.867188 3.75 17.191406 3.609375 17.429688 3.367188 C 17.871094 2.925781 18.472656 2.675781 19.101562 2.675781 L 22.09375 2.675781 C 22.6875 2.675781 23.167969 3.15625 23.167969 3.75 L 23.167969 19.019531 C 23.167969 19.175781 23.101562 19.328125 22.972656 19.433594 C 21.734375 20.453125 21.023438 21.96875 21.023438 23.566406 C 21.023438 24.414062 21.21875 25.246094 21.609375 25.996094 C 21.742188 26.257812 21.636719 26.578125 21.375 26.714844 C 21.308594 26.765625 21.21875 26.78125 21.136719 26.78125 Z M 21.136719 26.78125 "></path><path style=" stroke:none;fill-rule:nonzero;fill:rgb(25.098039%,76.862745%,100%);fill-opacity:1;" d="M 19.957031 20.894531 L 10.3125 20.894531 C 10.019531 20.894531 9.78125 20.65625 9.78125 20.363281 L 9.78125 12.863281 C 9.78125 12.570312 10.019531 12.328125 10.3125 12.328125 L 19.957031 12.328125 C 20.25 12.328125 20.488281 12.570312 20.488281 12.863281 L 20.488281 20.363281 C 20.488281 20.65625 20.25 20.894531 19.957031 20.894531 Z M 10.84375 19.824219 L 19.417969 19.824219 L 19.417969 13.394531 L 10.84375 13.394531 Z M 10.84375 19.824219 "></path><path style=" stroke:none;fill-rule:nonzero;fill:rgb(25.098039%,76.862745%,100%);fill-opacity:1;" d="M 19.957031 13.394531 L 10.3125 13.394531 C 10.109375 13.394531 9.921875 13.273438 9.832031 13.085938 C 9.742188 12.898438 9.773438 12.683594 9.898438 12.523438 L 12.046875 9.847656 C 12.140625 9.71875 12.300781 9.644531 12.464844 9.644531 L 17.820312 9.644531 C 17.984375 9.644531 18.136719 9.71875 18.238281 9.847656 L 20.386719 12.523438 C 20.511719 12.683594 20.535156 12.898438 20.453125 13.085938 C 20.347656 13.273438 20.160156 13.394531 19.957031 13.394531 Z M 11.421875 12.324219 L 18.839844 12.324219 L 17.558594 10.71875 L 12.734375 10.71875 Z M 11.421875 12.324219 "></path><path style=" stroke:none;fill-rule:nonzero;fill:rgb(25.098039%,76.862745%,100%);fill-opacity:1;" d="M 15.136719 15 C 14.84375 15 14.601562 14.761719 14.601562 14.46875 L 14.601562 10.183594 C 14.601562 9.890625 14.84375 9.652344 15.136719 9.652344 C 15.425781 9.652344 15.667969 9.890625 15.667969 10.183594 L 15.667969 14.46875 C 15.667969 14.761719 15.425781 15 15.136719 15 Z M 15.136719 15 "></path><path style=" stroke:none;fill-rule:nonzero;fill:rgb(25.098039%,76.862745%,100%);fill-opacity:1;" d="M 13.523438 18.75 L 12.449219 18.75 C 12.15625 18.75 11.917969 18.511719 11.917969 18.21875 C 11.917969 17.925781 12.15625 17.683594 12.449219 17.683594 L 13.523438 17.683594 C 13.816406 17.683594 14.054688 17.925781 14.054688 18.21875 C 14.0625 18.511719 13.824219 18.75 13.523438 18.75 Z M 13.523438 18.75 "></path><path style=" stroke:none;fill-rule:nonzero;fill:rgb(25.098039%,76.862745%,100%);fill-opacity:1;" d="M 26.386719 30 C 25.492188 30.007812 24.609375 29.828125 23.789062 29.46875 C 22.441406 28.867188 21.328125 27.824219 20.664062 26.503906 C 19.28125 23.828125 19.957031 20.550781 22.265625 18.621094 C 23.429688 17.671875 24.886719 17.144531 26.386719 17.144531 C 28.125 17.136719 29.789062 17.84375 30.996094 19.085938 C 31.175781 19.320312 31.132812 19.65625 30.890625 19.835938 C 30.691406 19.988281 30.414062 19.980469 30.226562 19.824219 C 29.21875 18.789062 27.832031 18.203125 26.386719 18.21875 C 25.890625 18.21875 25.402344 18.285156 24.929688 18.421875 C 24.21875 18.613281 23.550781 18.96875 22.972656 19.441406 C 21.742188 20.460938 21.023438 21.976562 21.03125 23.574219 C 21.03125 24.421875 21.226562 25.253906 21.613281 26.003906 C 22.175781 27.105469 23.109375 27.984375 24.246094 28.476562 C 24.921875 28.777344 25.648438 28.925781 26.390625 28.925781 C 29.347656 28.925781 31.746094 26.527344 31.746094 23.574219 C 31.746094 22.859375 31.605469 22.15625 31.335938 21.503906 C 31.296875 21.425781 31.273438 21.335938 31.265625 21.246094 C 31.28125 20.953125 31.539062 20.730469 31.835938 20.746094 C 32.023438 20.761719 32.199219 20.863281 32.28125 21.039062 C 33.683594 24.300781 32.167969 28.078125 28.90625 29.484375 C 28.101562 29.820312 27.246094 30 26.386719 30 Z M 26.386719 30 "></path></g></svg> 