<?xml version="1.0" encoding="UTF-8"?> <svg xmlns="http://www.w3.org/2000/svg" xmlns:xlink="http://www.w3.org/1999/xlink" width="36pt" height="30pt" viewBox="0 0 36 30" version="1.1"><g id="surface1"><path style=" stroke:none;fill-rule:nonzero;fill:rgb(25.098039%,76.862745%,100%);fill-opacity:1;" d="M 19.664062 7.425781 L 19.664062 6.886719 L 18.675781 6.886719 L 18.675781 7.425781 C 17.707031 7.628906 16.957031 8.378906 16.753906 9.34375 L 16.214844 9.34375 L 16.214844 10.328125 L 22.117188 10.328125 L 22.117188 9.34375 L 21.578125 9.34375 C 21.382812 8.378906 20.625 7.628906 19.664062 7.425781 Z M 19.171875 8.363281 C 19.792969 8.363281 20.347656 8.761719 20.558594 9.34375 L 17.789062 9.34375 C 17.992188 8.761719 18.546875 8.363281 19.171875 8.363281 Z M 19.171875 8.363281 "></path><path style=" stroke:none;fill-rule:nonzero;fill:rgb(25.098039%,76.862745%,100%);fill-opacity:1;" d="M 7.363281 30 L 18.1875 30 C 18.457031 30 18.683594 29.78125 18.683594 29.503906 L 18.683594 28.378906 C 20.289062 27.765625 21.414062 26.296875 21.59375 24.585938 L 24.578125 24.585938 C 25.664062 24.585938 26.542969 23.707031 26.542969 22.621094 L 26.542969 17.675781 C 27.75 17.550781 28.628906 16.46875 28.5 15.269531 C 28.441406 14.675781 28.140625 14.136719 27.675781 13.769531 C 28.628906 13.019531 28.792969 11.640625 28.042969 10.6875 C 27.675781 10.222656 27.136719 9.921875 26.542969 9.863281 L 26.542969 1.964844 C 26.550781 0.878906 25.664062 0 24.578125 0 L 13.761719 0 C 12.675781 0 11.796875 0.878906 11.796875 1.964844 L 11.796875 4.441406 C 11.714844 4.433594 11.632812 4.425781 11.550781 4.425781 C 10.34375 4.425781 9.359375 5.390625 9.335938 6.59375 L 6.886719 20.574219 C 6.878906 20.601562 6.878906 20.632812 6.878906 20.65625 L 6.878906 29.503906 C 6.878906 29.78125 7.09375 30 7.363281 30 Z M 26.550781 16.695312 L 26.550781 14.289062 C 27.21875 14.421875 27.644531 15.074219 27.511719 15.734375 C 27.414062 16.222656 27.03125 16.597656 26.550781 16.695312 Z M 27.53125 12.050781 C 27.53125 12.636719 27.121094 13.140625 26.550781 13.261719 L 26.550781 10.851562 C 27.121094 10.957031 27.53125 11.46875 27.53125 12.050781 Z M 13.761719 0.984375 L 24.585938 0.984375 C 25.125 0.984375 25.566406 1.425781 25.566406 1.964844 L 25.566406 22.621094 C 25.566406 23.160156 25.125 23.601562 24.585938 23.601562 L 15.097656 23.601562 L 15.9375 22.125 L 24.082031 22.125 C 24.351562 22.125 24.578125 21.90625 24.578125 21.628906 L 24.578125 2.460938 C 24.578125 2.191406 24.359375 1.964844 24.082031 1.964844 L 14.25 1.964844 C 13.980469 1.964844 13.753906 2.183594 13.753906 2.460938 L 13.753906 16.261719 L 12.773438 17.355469 L 12.773438 1.964844 C 12.78125 1.425781 13.214844 0.984375 13.761719 0.984375 Z M 19.027344 16.734375 C 19.042969 16.703125 19.058594 16.679688 19.066406 16.648438 C 19.140625 16.441406 19.171875 16.214844 19.171875 15.988281 C 19.171875 15.554688 19.042969 15.128906 18.796875 14.761719 L 21.136719 14.761719 C 21.40625 14.761719 21.628906 14.976562 21.628906 15.253906 L 21.628906 16.734375 C 21.628906 17.003906 21.414062 17.226562 21.136719 17.226562 L 18.75 17.226562 Z M 18.1875 18.195312 L 21.136719 18.195312 C 21.953125 18.195312 22.613281 17.535156 22.613281 16.71875 L 22.613281 15.238281 C 22.613281 14.421875 21.953125 13.761719 21.136719 13.761719 L 16.957031 13.761719 C 16.238281 13.761719 15.554688 14.113281 15.140625 14.707031 L 14.746094 15.148438 L 14.746094 2.949219 L 23.59375 2.949219 L 23.59375 21.148438 L 16.5 21.148438 Z M 7.859375 20.699219 L 10.3125 6.726562 C 10.320312 6.699219 10.320312 6.667969 10.320312 6.644531 C 10.320312 5.960938 10.867188 5.414062 11.550781 5.414062 C 11.632812 5.414062 11.714844 5.421875 11.796875 5.445312 L 11.796875 18.449219 L 11.429688 18.855469 L 12.15625 19.515625 L 15.890625 15.359375 C 15.90625 15.34375 15.921875 15.324219 15.9375 15.308594 C 16.164062 14.96875 16.546875 14.765625 16.957031 14.761719 C 17.640625 14.761719 18.1875 15.308594 18.1875 15.988281 C 18.1875 16.09375 18.171875 16.191406 18.148438 16.289062 L 13.824219 23.851562 C 13.777344 23.925781 13.753906 24.007812 13.753906 24.097656 C 13.753906 25.175781 13.246094 26.199219 12.375 26.851562 L 11.984375 27.140625 L 12.578125 27.929688 L 12.96875 27.636719 C 13.941406 26.902344 14.566406 25.800781 14.707031 24.585938 L 20.601562 24.585938 C 20.414062 25.941406 19.476562 27.074219 18.179688 27.511719 L 18.03125 27.5625 C 17.828125 27.628906 17.691406 27.816406 17.691406 28.027344 L 17.691406 29.011719 L 7.859375 29.011719 Z M 7.859375 20.699219 "></path><path style=" stroke:none;fill-rule:nonzero;fill:rgb(25.098039%,76.862745%,100%);fill-opacity:1;" d="M 15.261719 16.890625 L 15.855469 16.105469 L 17.195312 17.117188 L 16.605469 17.902344 Z M 15.261719 16.890625 "></path></g></svg> 