<?xml version="1.0" encoding="UTF-8"?> <!-- Generator: Adobe Illustrator 25.1.0, SVG Export Plug-In . SVG Version: 6.00 Build 0) --> <svg xmlns="http://www.w3.org/2000/svg" xmlns:xlink="http://www.w3.org/1999/xlink" version="1.1" id="Layer_1" x="0px" y="0px" viewBox="0 0 30 30" style="enable-background:new 0 0 30 30;" xml:space="preserve"> <style type="text/css"> .st0{fill-rule:evenodd;clip-rule:evenodd;fill:#0072B6;} </style> <path class="st0" d="M0,0v26.5h15v-8.7l-2.8,1.6c0.3,0.8-0.1,1.8-0.8,2.2c-0.9,0.5-2.1,0.2-2.6-0.7c-0.5-0.9-0.2-2.1,0.7-2.6 c0.8-0.5,1.7-0.3,2.3,0.3l2.8-1.7l-2.8-1.6c-0.6,0.7-1.6,0.8-2.4,0.4c-0.9-0.5-1.2-1.7-0.7-2.6c0.5-0.9,1.7-1.2,2.6-0.7 c0.8,0.4,1.1,1.4,0.9,2.2l2.8,1.6v-3.2c-0.8-0.2-1.5-0.9-1.5-1.8c0-1,0.8-1.9,1.9-1.9c1,0,1.9,0.8,1.9,1.9c0,0.9-0.6,1.7-1.5,1.9 v3.3l2.8-1.7c-0.3-0.8,0.1-1.7,0.9-2.2c0.9-0.5,2.1-0.2,2.6,0.7c0.5,0.9,0.2,2.1-0.7,2.6c-0.8,0.5-1.8,0.3-2.4-0.4L16.3,17l2.9,1.6 c0.6-0.6,1.5-0.8,2.3-0.3c0.9,0.5,1.2,1.7,0.7,2.6c-0.5,0.9-1.7,1.2-2.6,0.7c-0.8-0.5-1.1-1.4-0.9-2.2L16,17.8v8.7h14V0H0"></path> </svg> 