<?xml version="1.0" encoding="UTF-8"?> <svg xmlns="http://www.w3.org/2000/svg" xmlns:xlink="http://www.w3.org/1999/xlink" width="36pt" height="30pt" viewBox="0 0 36 30" version="1.1"><g id="surface1"><path style=" stroke:none;fill-rule:nonzero;fill:rgb(100%,84.313725%,25.098039%);fill-opacity:1;" d="M 31.433594 23.183594 L 2.796875 23.183594 C 1.636719 23.183594 0.75 22.296875 0.75 21.136719 L 0.75 2.046875 C 0.75 0.886719 1.636719 0 2.796875 0 L 31.433594 0 C 32.59375 0 33.480469 0.886719 33.480469 2.046875 L 33.480469 21.136719 C 33.480469 22.296875 32.585938 23.183594 31.433594 23.183594 Z M 2.796875 1.363281 C 2.386719 1.363281 2.113281 1.636719 2.113281 2.046875 L 2.113281 21.136719 C 2.113281 21.546875 2.386719 21.816406 2.796875 21.816406 L 31.433594 21.816406 C 31.84375 21.816406 32.113281 21.546875 32.113281 21.136719 L 32.113281 2.046875 C 32.113281 1.636719 31.84375 1.363281 31.433594 1.363281 Z M 2.796875 1.363281 "></path><path style=" stroke:none;fill-rule:nonzero;fill:rgb(100%,84.313725%,25.098039%);fill-opacity:1;" d="M 32.796875 17.730469 L 1.433594 17.730469 C 1.019531 17.730469 0.75 17.453125 0.75 17.046875 C 0.75 16.636719 1.019531 16.363281 1.433594 16.363281 L 32.796875 16.363281 C 33.210938 16.363281 33.480469 16.636719 33.480469 17.046875 C 33.480469 17.453125 33.203125 17.730469 32.796875 17.730469 Z M 32.796875 17.730469 "></path><path style=" stroke:none;fill-rule:nonzero;fill:rgb(100%,84.313725%,25.098039%);fill-opacity:1;" d="M 23.25 30 C 22.835938 30 22.566406 29.730469 22.566406 29.316406 C 22.566406 28.15625 21.683594 27.269531 20.519531 27.269531 L 13.703125 27.269531 C 12.539062 27.269531 11.65625 28.15625 11.65625 29.316406 C 11.65625 29.730469 11.386719 30 10.972656 30 C 10.558594 30 10.289062 29.730469 10.289062 29.316406 C 10.289062 27.40625 11.789062 25.90625 13.703125 25.90625 L 20.519531 25.90625 C 22.433594 25.90625 23.933594 27.40625 23.933594 29.316406 C 23.933594 29.730469 23.664062 30 23.25 30 Z M 23.25 30 "></path><path style=" stroke:none;fill-rule:nonzero;fill:rgb(100%,84.313725%,25.098039%);fill-opacity:1;" d="M 18.480469 27.269531 L 15.75 27.269531 C 15.335938 27.269531 15.066406 27 15.066406 26.585938 L 15.066406 22.5 C 15.066406 22.085938 15.335938 21.816406 15.75 21.816406 L 18.480469 21.816406 C 18.890625 21.816406 19.164062 22.085938 19.164062 22.5 L 19.164062 26.585938 C 19.164062 27 18.886719 27.269531 18.480469 27.269531 Z M 16.433594 25.914062 L 17.796875 25.914062 L 17.796875 23.183594 L 16.433594 23.183594 Z M 16.433594 25.914062 "></path><path style=" stroke:none;fill-rule:nonzero;fill:rgb(100%,84.313725%,25.098039%);fill-opacity:1;" d="M 10.296875 13.636719 C 9.886719 13.636719 9.613281 13.363281 9.613281 12.953125 L 9.613281 4.769531 C 9.613281 4.359375 9.886719 4.085938 10.296875 4.085938 C 10.710938 4.085938 10.980469 4.359375 10.980469 4.769531 L 10.980469 12.953125 C 10.980469 13.363281 10.703125 13.636719 10.296875 13.636719 Z M 10.296875 13.636719 "></path><path style=" stroke:none;fill-rule:nonzero;fill:rgb(100%,84.313725%,25.098039%);fill-opacity:1;" d="M 14.386719 9.546875 L 6.203125 9.546875 C 5.789062 9.546875 5.519531 9.277344 5.519531 8.863281 C 5.519531 8.453125 5.789062 8.183594 6.203125 8.183594 L 14.386719 8.183594 C 14.796875 8.183594 15.066406 8.453125 15.066406 8.863281 C 15.066406 9.277344 14.796875 9.546875 14.386719 9.546875 Z M 14.386719 9.546875 "></path><path style=" stroke:none;fill-rule:nonzero;fill:rgb(100%,84.313725%,25.098039%);fill-opacity:1;" d="M 28.019531 5.453125 L 18.480469 5.453125 C 18.066406 5.453125 17.796875 5.183594 17.796875 4.769531 C 17.796875 4.359375 18.066406 4.085938 18.480469 4.085938 L 28.027344 4.085938 C 28.441406 4.085938 28.710938 4.359375 28.710938 4.769531 C 28.710938 5.183594 28.433594 5.453125 28.019531 5.453125 Z M 28.019531 5.453125 "></path><path style=" stroke:none;fill-rule:nonzero;fill:rgb(100%,84.313725%,25.098039%);fill-opacity:1;" d="M 28.019531 8.183594 L 18.480469 8.183594 C 18.066406 8.183594 17.796875 7.914062 17.796875 7.5 C 17.796875 7.085938 18.066406 6.816406 18.480469 6.816406 L 28.027344 6.816406 C 28.441406 6.816406 28.710938 7.085938 28.710938 7.5 C 28.710938 7.914062 28.433594 8.183594 28.019531 8.183594 Z M 28.019531 8.183594 "></path><path style=" stroke:none;fill-rule:nonzero;fill:rgb(100%,84.313725%,25.098039%);fill-opacity:1;" d="M 28.019531 10.914062 L 18.480469 10.914062 C 18.066406 10.914062 17.796875 10.640625 17.796875 10.230469 C 17.796875 9.816406 18.066406 9.546875 18.480469 9.546875 L 28.027344 9.546875 C 28.441406 9.546875 28.710938 9.816406 28.710938 10.230469 C 28.710938 10.640625 28.433594 10.914062 28.019531 10.914062 Z M 28.019531 10.914062 "></path><path style=" stroke:none;fill-rule:nonzero;fill:rgb(100%,84.313725%,25.098039%);fill-opacity:1;" d="M 28.019531 13.636719 L 18.480469 13.636719 C 18.066406 13.636719 17.796875 13.363281 17.796875 12.953125 C 17.796875 12.539062 18.066406 12.269531 18.480469 12.269531 L 28.027344 12.269531 C 28.441406 12.269531 28.710938 12.539062 28.710938 12.953125 C 28.703125 13.363281 28.433594 13.636719 28.019531 13.636719 Z M 28.019531 13.636719 "></path></g></svg> 