<?xml version="1.0" encoding="utf-8"?>
<!-- Generator: Adobe Illustrator 24.3.0, SVG Export Plug-In . SVG Version: 6.00 Build 0)  -->
<svg version="1.1" id="Layer_1" xmlns="http://www.w3.org/2000/svg" xmlns:xlink="http://www.w3.org/1999/xlink" x="0px" y="0px"
	 viewBox="0 0 302.8 1072.5" style="enable-background:new 0 0 302.8 1072.5;" xml:space="preserve">
<style type="text/css">
	.st0{fill:#91BDFF;}
	.st1{fill:#FF0094;}
</style>
<path class="st0" d="M72,86.4c0,0,112-78.3,141-67.1c7.6-0.3,19.8,0.5,31.2,6.8c20.3,11.3,29.5,35.8,22.4,61.4
	c-15.7,4-34.1,10.5-35.5,20.7c-1.4,10.2,15.6,14.8,15.3,24c-0.6,17.2-60.6,34.9-119.5,34.3C-63.9,164.7,72,86.4,72,86.4z"/>
<path class="st0" d="M-565.7,278.2"/>
<path class="st1" d="M-374.5,698.6"/>
<path class="st1" d="M127.3,768.4"/>
<path class="st1" d="M62.7,941.7c53.8-15.1,120.4,18.5,139.2,5.7c12.4-8.4-14-24.4,0-37.7c14.5-13.7,65-17.5,87.2-5.7
	c29.1,15.4,7.6,56.9-23.9,81c-30.8,23.6-86,42.2-144.8,37.7c-36.8-2.9-95.5-16.5-99.8-40.9C17.8,966.6,36.6,949,62.7,941.7z"/>
</svg>
