<?xml version="1.0" encoding="UTF-8"?> <!-- Generator: Adobe Illustrator 25.1.0, SVG Export Plug-In . SVG Version: 6.00 Build 0) --> <svg xmlns="http://www.w3.org/2000/svg" xmlns:xlink="http://www.w3.org/1999/xlink" version="1.1" id="Layer_1" x="0px" y="0px" viewBox="0 0 30 30" style="enable-background:new 0 0 30 30;" xml:space="preserve"> <style type="text/css"> .st0{fill:url(#SVGID_1_);} .st1{fill:#31C5F0;} </style> <g> <radialGradient id="SVGID_1_" cx="-192.0568" cy="-292.6459" r="9.119985e-03" gradientTransform="matrix(2291.6716 0 0 -2218.7549 440141.4688 -649302.375)" gradientUnits="userSpaceOnUse"> <stop offset="0" style="stop-color:#34364E;stop-opacity:0.98"></stop> <stop offset="1" style="stop-color:#0C0824"></stop> </radialGradient> <path class="st0" d="M1.2,1.3h27.5V28H1.2V1.3z"></path> <path class="st1" d="M1.2,1.3h27.5V28H1.2V1.3z M0,29.3h30V0H0V29.3z M20.2,12c-1,0-1.3,0.5-1.3,0.9c0,0.4,0.2,0.8,1.5,1.5 c2,1,2.6,1.9,2.6,3.2c0,2-1.5,3.1-3.6,3.1c-1.1,0-2-0.2-2.6-0.5c-0.1,0-0.1-0.1-0.1-0.2v-1.8c0-0.1,0.1-0.2,0.2-0.1 c0.8,0.5,1.7,0.7,2.5,0.7c1,0,1.4-0.4,1.4-1c0-0.4-0.3-0.8-1.6-1.5c-1.8-0.8-2.5-1.7-2.5-3.1c0-1.6,1.3-3,3.4-3 c1.1,0,1.8,0.2,2.2,0.4c0.1,0.1,0.1,0.2,0.1,0.2v1.7c0,0.1-0.1,0.2-0.2,0.1C21.8,12.2,21,12,20.2,12L20.2,12z M9.5,13.5 c0.3,0,0.5,0,1,0c1.5,0,2.8-0.5,2.8-2.5c0-1.6-1-2.4-2.6-2.4c-0.5,0-1,0-1.2,0V13.5z M7.3,6.9c0-0.1,0.2-0.2,0.3-0.2 c0.8,0,2-0.1,3.2-0.1c3.5,0,4.8,1.9,4.8,4.3c0,3.2-2.3,4.5-5.1,4.5c-0.5,0-0.6,0-1,0v4.8c0,0.1,0,0.1-0.1,0.1H7.4 c-0.1,0-0.2,0-0.2-0.1L7.3,6.9L7.3,6.9z"></path> </g> </svg> 