<?xml version="1.0" encoding="UTF-8"?> <!-- Generator: Adobe Illustrator 25.1.0, SVG Export Plug-In . SVG Version: 6.00 Build 0) --> <svg xmlns="http://www.w3.org/2000/svg" xmlns:xlink="http://www.w3.org/1999/xlink" version="1.1" id="Layer_1" x="0px" y="0px" viewBox="0 0 30 30" style="enable-background:new 0 0 30 30;" xml:space="preserve"> <style type="text/css"> .st0{fill:#FF6C37;} .st1{fill:#FFFFFF;} </style> <g> <path class="st0" d="M26.4,5.8c-5-6.5-14.3-7.6-20.7-2.7s-7.6,14.3-2.7,20.7s14.3,7.6,20.7,2.7c0,0,0,0,0,0 C30.2,21.5,31.4,12.2,26.4,5.8L26.4,5.8z"></path> <path class="st1" d="M19.7,9.4l-6.2,6.3l-1.8-1.8C17.9,7.8,18.5,8.3,19.7,9.4L19.7,9.4z"></path> <path class="st0" d="M13.5,15.9c-0.1,0-0.1,0-0.1-0.1l-1.8-1.8c-0.1-0.1-0.1-0.2,0-0.3c6-6,6.9-5.8,8.3-4.5c0,0,0.1,0.1,0.1,0.2 c0,0.1,0,0.1-0.1,0.2l-6.2,6.2C13.6,15.9,13.6,15.9,13.5,15.9L13.5,15.9z M12,13.9l1.5,1.5l5.9-5.9c-0.4-0.5-1.2-0.7-1.7-0.3 C16.6,9.6,14.9,11.1,12,13.9z"></path> <path class="st1" d="M15.3,17.5l-1.7-1.7l6.2-6.2C21.5,11.2,19,13.9,15.3,17.5L15.3,17.5z"></path> <path class="st0" d="M15.3,17.7c-0.1,0-0.1,0-0.1-0.1l-1.7-1.7c0-0.1,0-0.1,0-0.2c0-0.1,0-0.1,0-0.2l6.2-6.2c0.1-0.1,0.2-0.1,0.3,0 c0.4,0.4,0.6,0.9,0.6,1.5c0,1.7-1.9,3.8-5.1,6.8C15.4,17.6,15.3,17.7,15.3,17.7L15.3,17.7z M13.9,15.7l1.4,1.4 c2.5-2.3,4.8-4.7,4.8-6.4c0-0.3-0.1-0.7-0.3-0.9L13.9,15.7z"></path> <path class="st1" d="M11.8,13.9l1.2,1.2c0,0,0,0.1,0,0.1c0,0,0,0,0,0l-2.6,0.6c-0.1,0-0.3-0.1-0.3-0.2c0-0.1,0-0.2,0.1-0.2 L11.8,13.9C11.7,13.9,11.8,13.9,11.8,13.9L11.8,13.9z"></path> <path class="st0" d="M10.4,16.1c-0.2,0-0.3-0.1-0.4-0.2c-0.1-0.2-0.1-0.4,0.1-0.6l1.5-1.5c0.1-0.1,0.3-0.1,0.4,0l1.2,1.2 c0.1,0.1,0.1,0.2,0.1,0.3c0,0.1-0.1,0.2-0.2,0.2L10.4,16.1L10.4,16.1z M11.7,14.2l-1.4,1.4l2.3-0.5L11.7,14.2z"></path> <path class="st1" d="M23,6c-0.9-0.9-2.3-0.9-3.2-0.1c-0.9,0.8-1.1,2.2-0.4,3.2c0.7,1,2.1,1.3,3.2,0.6l-1.7-1.7L23,6z"></path> <path class="st0" d="M21.4,10.3c-1,0-2-0.7-2.4-1.6c-0.4-1-0.2-2.1,0.6-2.8c1-1,2.7-1,3.7,0c0,0,0.1,0.1,0.1,0.2 c0,0.1,0,0.1-0.1,0.2l-2,1.9l1.5,1.5c0,0,0.1,0.1,0.1,0.2c0,0.1,0,0.1-0.1,0.2C22.3,10.2,21.9,10.3,21.4,10.3L21.4,10.3z M21.4,5.5 c-0.9,0-1.7,0.5-2,1.3c-0.3,0.8-0.2,1.7,0.5,2.4c0.6,0.6,1.6,0.8,2.4,0.5l-1.5-1.5c-0.1-0.1-0.1-0.2,0-0.3c0,0,0,0,0,0L22.7,6 C22.3,5.7,21.9,5.5,21.4,5.5L21.4,5.5z"></path> <path class="st1" d="M23.1,6L21,8.1l1.7,1.7c0.2-0.1,0.3-0.2,0.5-0.3C24,8.5,24,7,23.1,6L23.1,6z"></path> <path class="st0" d="M22.6,10c-0.1,0-0.1,0-0.1-0.1l-1.7-1.7c-0.1-0.1-0.1-0.2,0-0.3c0,0,0,0,0,0l2.1-2.1c0.1-0.1,0.2-0.1,0.3-0.1 c0,0,0,0,0.1,0.1c1,1,1,2.6,0,3.7c0,0,0,0,0,0c-0.1,0.2-0.3,0.3-0.5,0.4C22.7,10,22.7,10,22.6,10L22.6,10z M21.3,8.1l1.4,1.4 c0.1-0.1,0.2-0.1,0.3-0.2c0.4-0.4,0.6-1,0.6-1.5c0-0.5-0.2-1-0.5-1.4L21.3,8.1z"></path> <path class="st1" d="M20,9.7c-0.3-0.3-0.9-0.3-1.2,0l-5.6,5.6l0.9,0.9L20,11C20.4,10.7,20.4,10.1,20,9.7C20,9.7,20,9.7,20,9.7 L20,9.7z"></path> <path class="st0" d="M14.1,16.4c-0.1,0-0.1,0-0.1-0.1L13,15.4c-0.1-0.1-0.1-0.2,0-0.3l5.6-5.6c0.4-0.4,1.2-0.4,1.6,0 c0.2,0.2,0.3,0.5,0.3,0.8c0,0.3-0.2,0.6-0.4,0.8l-5.9,5.2C14.2,16.4,14.1,16.4,14.1,16.4L14.1,16.4z M13.4,15.3l0.6,0.6l5.8-5 c0.1-0.1,0.2-0.3,0.2-0.5c0-0.2-0.1-0.4-0.2-0.5c-0.3-0.3-0.7-0.3-1,0L13.4,15.3z"></path> <path class="st1" d="M8.9,21.6c0,0,0,0.1,0,0.1l0.2,1.1c0,0.1,0,0.3-0.2,0.3c-0.1,0.1-0.3,0.1-0.4,0l-1.7-1.6l5.3-5.3H14l1.2,1.2 C13.3,19.1,11.2,20.5,8.9,21.6L8.9,21.6z"></path> <path class="st0" d="M8.7,23.4c-0.1,0-0.3-0.1-0.4-0.2l-1.6-1.6c-0.1-0.1-0.1-0.2,0-0.3c0,0,0,0,0,0l5.3-5.3c0,0,0.1-0.1,0.1-0.1 H14c0,0,0.1,0,0.1,0l1.2,1.2c0,0,0.1,0.1,0.1,0.2c0,0.1,0,0.1-0.1,0.2l-0.1,0.1c-1.9,1.6-4,3-6.3,4l0.2,1c0.1,0.3-0.1,0.6-0.4,0.6 C8.8,23.3,8.7,23.3,8.7,23.4L8.7,23.4z M7.2,21.5l1.5,1.5c0,0,0.1,0,0.1,0c0,0,0-0.1,0-0.1l-0.2-1.1c0-0.2,0-0.3,0.2-0.4 c2.2-1.1,4.3-2.4,6.2-4l-1-1h-1.6L7.2,21.5z"></path> <path class="st1" d="M5.6,22.7l1.2-1.2l1.9,1.9l-3-0.2c-0.1,0-0.2-0.1-0.2-0.3C5.5,22.9,5.6,22.8,5.6,22.7L5.6,22.7z"></path> <path class="st0" d="M8.8,23.6l-3-0.2c-0.2,0-0.3-0.1-0.4-0.3c-0.1-0.2,0-0.4,0.1-0.5l1.2-1.2c0.1-0.1,0.2-0.1,0.3,0l1.9,1.9 c0.1,0.1,0.1,0.2,0,0.2C8.9,23.5,8.9,23.6,8.8,23.6L8.8,23.6z M5.8,22.9l2.5,0.2l-1.4-1.3L5.8,22.9z"></path> <path class="st1" d="M14.2,16.3l-2.5,0.4l1.4-1.4L14.2,16.3z"></path> <path class="st0" d="M11.7,16.9c-0.1,0-0.2,0-0.2-0.1c-0.1-0.1-0.1-0.2,0-0.2l1.4-1.4c0.1-0.1,0.2-0.1,0.3,0l1,1c0,0.1,0,0.2,0,0.2 c0,0.1-0.1,0.1-0.2,0.2L11.7,16.9L11.7,16.9z M13.1,15.6l-0.8,0.8l1.4-0.2L13.1,15.6z"></path> <path class="st1" d="M14.2,16.3l-1.7,0.2c-0.1,0-0.2,0-0.3-0.2c0-0.1,0-0.1,0.1-0.2l0.9-0.9L14.2,16.3z"></path> <path class="st0" d="M12.4,16.8c-0.2,0-0.3-0.1-0.4-0.2c-0.1-0.2-0.1-0.4,0.1-0.5l0.9-0.9c0.1-0.1,0.2-0.1,0.3,0l1,1 c0.1,0.1,0.1,0.2,0,0.3c0,0-0.1,0.1-0.1,0.1L12.4,16.8L12.4,16.8z M12.4,16.3l1.3-0.2l-0.6-0.6L12.4,16.3L12.4,16.3z M23.1,7.4 c0-0.1-0.1-0.1-0.2-0.1c0,0-0.1,0.1-0.1,0.1c0,0,0,0.1,0,0.1c0.1,0.2,0.1,0.4-0.1,0.6c0,0,0,0.1,0,0.1c0,0,0,0.1,0,0.1 c0,0,0.1,0,0.1,0c0.1,0,0.1,0,0.2,0C23.2,8.1,23.2,7.7,23.1,7.4L23.1,7.4z"></path> </g> </svg> 