<?xml version="1.0" encoding="utf-8"?>
<!-- Generator: Adobe Illustrator 25.1.0, SVG Export Plug-In . SVG Version: 6.00 Build 0)  -->
<svg version="1.1" id="Layer_1" xmlns="http://www.w3.org/2000/svg" xmlns:xlink="http://www.w3.org/1999/xlink" x="0px" y="0px"
	 viewBox="0 0 66 68.1" style="enable-background:new 0 0 66 68.1;" xml:space="preserve">
<style type="text/css">
	.st0{fill:#40C4FF;}
</style>
<path class="st0" d="M-0.1,36.1c0-0.4,0-0.8,0-1.2c0-0.1,0-0.2,0.1-0.3c0.1-0.6,0.2-1.1,0.3-1.7c0.8-2.7,2.6-4.4,4.9-5.7
	c0.1,0,0.1,0,0.2-0.1c2-0.5,4.1-0.9,6.1-1.5c5.3-1.5,10.5-3.3,15.5-5.8c2.8-1.4,5.5-3,8-5c1.4-1.2,3-2.3,4.6-3.1
	c2.5-1.3,5.2-2.1,8-2.2c2.9-0.1,5.5,0.7,7.9,2.3c1.1,0.7,2.1,1.5,2.9,2.6c1.9,2.6,3.5,5.5,4.7,8.5c1.5,3.7,2.5,7.5,2.8,11.5
	c0.2,2.4,0,4.8-0.4,7.2c-0.6,3.3-1.8,6.4-3.5,9.2c-3,5-7,8.9-11.7,12.1c-4.9,3.3-10.3,5.1-16.2,5.2c-2.6,0-5.2-0.3-7.8-1
	c-3.8-1-7.2-2.8-10.4-5.1c-1-0.7-2-1.4-2.9-2.3c-2-2-3.8-4.2-5.5-6.5c-2.2-2.9-4.2-6-5.7-9.4c-0.9-1.9-1.6-3.9-1.9-6.1
	C0,37.2,0,36.7-0.1,36.1z"/>
<g>
	<g>
		<g>
			<rect x="32.4" y="3.4" width="1.1" height="9.3"/>
			<g>
				<path d="M33,3.9c-1.1,0-1.9-0.9-1.9-2S31.9,0,33,0s1.9,0.9,1.9,2S34.1,3.9,33,3.9z"/>
				<path d="M51.1,14.4c-1.1,0-1.9-0.9-1.9-2s0.9-2,1.9-2c1.1,0,1.9,0.9,1.9,2S52.2,14.4,51.1,14.4z"/>
				<path d="M51.1,35.5c-1.1,0-1.9-0.9-1.9-2s0.9-2,1.9-2c1.1,0,1.9,0.9,1.9,2S52.2,35.5,51.1,35.5z"/>
				<path d="M33,46c-1.1,0-1.9-0.9-1.9-2c0-1.1,0.9-2,1.9-2s1.9,0.9,1.9,2C34.9,45.1,34.1,46,33,46z"/>
				<path d="M14.9,14.4c-1.1,0-1.9-0.9-1.9-2s0.9-2,1.9-2s1.9,0.9,1.9,2S16,14.4,14.9,14.4z"/>
				<path d="M14.9,35.5c-1.1,0-1.9-0.9-1.9-2s0.9-2,1.9-2s1.9,0.9,1.9,2S16,35.5,14.9,35.5z"/>
			</g>
		</g>
		<g>
			<path d="M23.7,28.4l8.7,5.1V23.4l-8.7-5.2V28.4z"/>
			<path d="M33.6,23.4v10.2l8.7-5.1V18.3L33.6,23.4z"/>
			<polygon points="49.8,14 49.2,13 41.5,17.4 42,18.4 			"/>
			<rect x="50.6" y="14.1" width="1.1" height="18"/>
			<polygon points="34.5,43.9 49.9,34.9 49.2,34 34.1,42.8 			"/>
			<rect x="32.4" y="33.3" width="1.1" height="9.1"/>
			<g>
				<g>
					<polygon points="41.7,17.3 33,12.2 24.3,17.3 33,22.4 					"/>
					<polygon points="33.6,23.4 33.6,33.5 42.3,28.4 42.3,18.3 					"/>
				</g>
				<polygon points="32.4,23.4 23.7,18.2 23.7,28.4 32.4,33.5 				"/>
			</g>
			<polygon points="24.6,17.4 16.4,12.6 16.3,13.8 24.1,18.4 			"/>
			<rect x="14.4" y="14.1" width="1.1" height="17.9"/>
			<path d="M32.1,42.9l-15.6-9l-0.3,1l15.2,9c0,0,0.1,0,0.1,0L32.1,42.9z"/>
			<path d="M31.1,2.4l-14.8,8.6c0,0,0.5,1.1,0.5,1l15-8.6L31.1,2.4z"/>
			<polygon points="34.9,2.4 34.3,3.4 49.2,12 49.8,11 			"/>
		</g>
	</g>
</g>
</svg>
