<svg xmlns="http://www.w3.org/2000/svg" viewBox="0 0 233.66 70.54"><defs><style>.cls-1{fill:#6ee348;}.cls-2{fill:#fff;}.cls-3{fill:#e72e9b;}</style></defs><g id="Layer_2" data-name="Layer 2"><g id="Layer_1-2" data-name="Layer 1"><path class="cls-1" d="M156.23,68H20.17a68,68,0,1,1,136.06,0Z"/><path class="cls-2" d="M144.89,70.54H31.5a56.7,56.7,0,0,1,113.39,0Z"/><polyline class="cls-3" points="233.66 18.29 205.14 18.29 198.42 18.29 0 18.29"/><polygon class="cls-3" points="68.41 21.17 81.05 62.03 90.76 56.71 68.41 21.17"/><circle class="cls-3" cx="86.67" cy="60.65" r="7.09"/><polyline class="cls-2" points="22.16 64.42 22.52 64.43 29.29 64.54"/><polyline class="cls-2" points="30.17 59.74 23.24 59.49 22.85 59.48"/><polyline class="cls-2" points="31.41 54.97 24.28 54.6 23.89 54.57"/><polyline class="cls-2" points="32.98 50.26 25.72 49.76 25.29 49.73"/><polyline class="cls-2" points="34.71 45.95 27.49 45.08 27.05 45.03"/><polyline class="cls-2" points="37.28 40.77 30.11 39.52 29.66 39.45"/><polyline class="cls-2" points="40.55 35.41 33.63 33.58 33.19 33.47"/><polyline class="cls-2" points="43.85 30.89 37.32 28.56 36.88 28.4"/><polyline class="cls-2" points="48.58 25.58 42.48 22.78 42.07 22.58"/><polyline class="cls-2" points="53.79 20.83 48.22 17.66 47.82 17.43"/><polyline class="cls-2" points="60.08 16.3 55.01 12.82 54.65 12.56"/><polyline class="cls-2" points="61.95 8.58 62.25 8.87 66.3 12.86"/><polyline class="cls-2" points="72.39 10.36 69.73 5.83 69.54 5.51"/><polyline class="cls-2" points="146.53 64.5 153.29 64.39 153.66 64.37"/><polyline class="cls-2" points="152.97 59.44 152.58 59.45 145.65 59.7"/><polyline class="cls-2" points="151.93 54.53 151.53 54.55 144.41 54.92"/><polyline class="cls-2" points="150.52 49.69 150.1 49.72 142.84 50.22"/><polyline class="cls-2" points="148.77 44.99 148.33 45.04 141.11 45.91"/><polyline class="cls-2" points="146.16 39.41 145.71 39.48 138.54 40.73"/><polyline class="cls-2" points="142.63 33.43 142.19 33.54 135.27 35.37"/><polyline class="cls-2" points="138.94 28.36 138.5 28.52 131.97 30.85"/><polyline class="cls-2" points="133.75 22.54 133.34 22.73 127.24 25.53"/><polyline class="cls-2" points="128 17.38 127.6 17.62 122.03 20.78"/><polyline class="cls-2" points="121.17 12.52 120.81 12.78 115.74 16.25"/><polyline class="cls-2" points="109.52 12.82 113.57 8.83 113.87 8.53"/><polyline class="cls-2" points="106.28 5.46 106.09 5.78 103.43 10.31"/></g></g></svg>