<?xml version="1.0" encoding="UTF-8"?> <svg xmlns="http://www.w3.org/2000/svg" width="45" height="45" viewBox="0 0 45 45" fill="none"><circle cx="22.4535" cy="22.4535" r="22.4535" fill="#F5F9FF"></circle><g clip-path="url(#clip0_422_532)"><path d="M27.4372 13.2615C25.9066 13.2615 24.6545 14.5 24.6545 16.0139C24.6545 16.7937 24.9791 17.4819 25.4893 17.9865L24.5618 19.7756L21.5006 18.7894C21.0833 18.6518 20.6426 18.8582 20.4802 19.2481L18.5555 23.8585L16.051 21.1061C15.8886 20.9226 15.6799 20.8766 15.4248 20.8309C15.1928 20.8309 14.961 20.9456 14.7986 21.1061L12.0854 24.2486C11.7376 24.111 11.3666 24.0192 10.9723 24.0192C9.44175 24.0192 8.18958 25.2577 8.18958 26.7716C8.18958 28.2855 9.44175 29.5241 10.9723 29.5241C12.5029 29.5241 13.7551 28.2855 13.7551 26.7716C13.7551 26.2441 13.5927 25.7395 13.3144 25.3036L15.4247 22.8723L18.1844 25.923C18.3699 26.1294 18.6481 26.2212 18.9497 26.1753C19.2279 26.1294 19.4598 25.9459 19.5758 25.6707L21.6862 20.5557L24.7009 21.5419C25.0951 21.6566 25.5126 21.496 25.698 21.1291L26.9501 18.7206C27.1125 18.7435 27.2517 18.7665 27.4139 18.7665C28.9445 18.7665 30.1966 17.528 30.1966 16.0141C30.1968 14.5002 28.9677 13.2615 27.4372 13.2615L27.4372 13.2615ZM10.9724 27.8955C10.3462 27.8955 9.83602 27.3909 9.83602 26.7715C9.83602 26.1522 10.3462 25.6475 10.9724 25.6475C11.5985 25.6475 12.1087 26.1522 12.1087 26.7715C12.1087 27.3909 11.5985 27.8955 10.9724 27.8955ZM27.4372 17.1608C26.811 17.1608 26.3009 16.6562 26.3009 16.0368C26.3009 15.4175 26.811 14.9129 27.4372 14.9129C28.0634 14.9129 28.5736 15.4175 28.5736 16.0368C28.5734 16.6562 28.0634 17.1608 27.4372 17.1608Z" fill="#2176FF"></path><ellipse cx="28.1898" cy="16.7796" rx="4.6983" ry="4.6983" fill="white"></ellipse><path d="M24.7329 13.3866C23.8604 14.2496 23.3769 15.4007 23.3769 16.6274C23.3769 17.8542 23.8605 19.005 24.7325 19.8712L24.7333 19.872C25.6089 20.7344 26.7712 21.2117 28.009 21.2117C29.2468 21.2117 30.4092 20.7344 31.285 19.8681C32.1575 19.0052 32.641 17.8541 32.641 16.6274C32.641 15.4006 32.1574 14.2498 31.2854 13.3835L31.2846 13.3828C30.409 12.5203 29.2467 12.043 28.009 12.043C26.7711 12.043 25.6087 12.5203 24.7329 13.3866ZM24.7329 13.3866L24.9087 13.5644L24.7329 13.3866ZM28.0631 22.8749H28.0093C26.3883 22.8749 24.7691 22.2664 23.5366 21.0472L23.5366 21.0472C22.3422 19.8659 21.6863 18.2973 21.6863 16.6271C21.6863 14.9569 22.3422 13.3883 23.5366 12.2069L23.5366 12.2069C26.0023 9.76764 30.016 9.76762 32.4821 12.2069L32.4821 12.2069C33.6765 13.3882 34.3324 14.9567 34.3324 16.6271C34.3324 17.7966 34.0028 18.9142 33.3986 19.8868L33.2885 20.0641L33.4432 20.2041L38.2447 24.5495C38.8692 25.1679 38.8662 26.1535 38.2557 26.7578C37.9464 27.0602 37.5426 27.2132 37.1384 27.2132C36.7359 27.2132 36.3339 27.0615 36.0249 26.7613L31.6178 21.9981L31.4795 21.8487L31.3052 21.9539C30.3121 22.5529 29.1899 22.8652 28.0631 22.8749Z" fill="#2176FF" stroke="#F5F9FF" stroke-width="0.5"></path><ellipse cx="27.183" cy="15.7728" rx="1.00678" ry="1.00678" fill="#FFCA00"></ellipse><path d="M30.4284 14.3886C29.1224 13.0778 26.9945 13.0742 25.6832 14.3802C25.0487 15.0127 24.6983 15.8547 24.6966 16.7511C24.695 17.6477 25.0424 18.4912 25.6748 19.1261C26.0347 19.4872 26.4594 19.7556 26.9371 19.9242C27.4102 20.0905 27.9257 20.1491 28.4296 20.0937C28.7156 20.061 28.9953 19.9913 29.2616 19.888C29.6926 19.7206 30.0886 19.4649 30.4186 19.136C31.7294 17.8293 31.7338 15.6996 30.4284 14.3886ZM30.0117 18.7273C29.5694 19.168 28.9845 19.4499 28.3654 19.5206C27.942 19.5671 27.5258 19.5199 27.1285 19.3804C26.779 19.2572 26.466 19.0653 26.1915 18.8166L27.1072 17.3793C27.3621 17.4516 27.6403 17.4491 27.9058 17.346C28.5551 17.0939 28.8781 16.3603 28.6258 15.7104C28.3736 15.0608 27.6404 14.7372 26.9909 14.9894C26.3416 15.2414 26.0185 15.9751 26.2708 16.6247C26.3441 16.8137 26.4613 16.971 26.6022 17.0986L25.7917 18.3705C25.4556 17.9011 25.2722 17.3413 25.2732 16.7523C25.2745 16.0098 25.5644 15.3127 26.0899 14.7891C26.3701 14.5098 26.6956 14.3027 27.0427 14.1679C28.0403 13.7806 29.2178 13.9901 30.0199 14.7954C31.1013 15.8814 31.0976 17.6451 30.0117 18.7273ZM26.8082 16.4161C26.6711 16.0628 26.8469 15.6638 27.1998 15.5268C27.5527 15.3898 27.9516 15.5656 28.0888 15.9189C28.2259 16.2722 28.0501 16.6711 27.6972 16.8081C27.3441 16.9452 26.9454 16.7694 26.8082 16.4161Z" fill="#FFCA00" stroke="#FFCA00" stroke-width="0.5"></path></g><defs><clipPath id="clip0_422_532"><rect width="32.2169" height="21.4779" fill="white" transform="translate(8.0542 8.0542)"></rect></clipPath></defs></svg> 