<?xml version="1.0" encoding="UTF-8"?> <!-- Generator: Adobe Illustrator 23.0.3, SVG Export Plug-In . SVG Version: 6.00 Build 0) --> <svg xmlns="http://www.w3.org/2000/svg" xmlns:xlink="http://www.w3.org/1999/xlink" version="1.1" id="Layer_1" x="0px" y="0px" viewBox="0 0 501 438" style="enable-background:new 0 0 501 438;" xml:space="preserve"> <style type="text/css"> .st0{fill:#40C4FF;} .st1{clip-path:url(#XMLID_50_);fill:#FFFFFF;} .st2{clip-path:url(#XMLID_50_);} .st3{fill:#0F4FDF;} .st4{fill:#0E3F96;} .st5{fill:#F3B8A5;} .st6{fill:#0F4BB5;} .st7{fill:#BDBFC1;} .st8{fill:#DADADA;} .st9{fill:#262F38;} .st10{opacity:0.72;fill:#191E23;} .st11{fill:#DD938A;} .st12{clip-path:url(#XMLID_50_);fill:#DADADA;} .st13{clip-path:url(#XMLID_50_);fill:#999999;} .st14{opacity:0.21;clip-path:url(#XMLID_50_);fill:#828282;} .st15{fill:#39AB68;} .st16{fill:none;stroke:#DD938A;stroke-linecap:round;stroke-miterlimit:10;} .st17{fill:#F7B313;} .st18{fill:#F47E14;} .st19{fill:#F74D57;} .st20{fill:#CC3644;} .st21{clip-path:url(#XMLID_50_);fill:#F7B313;} </style> <path id="XMLID_405_" class="st0" d="M1.39,171.29c0.82,104.36,74.85,221.5,261.99,221.5s228.23-198.3,233.01-258.39 c4.78-60.09-24.14-120.12-98.07-103.63s-118.55,16.87-186.7,6.48C143.47,26.86,0.43,48.95,1.39,171.29z"></path> <g id="XMLID_341_"> <defs> <path id="XMLID_342_" d="M1.39,171.29c0.82,104.36,74.85,221.5,261.99,221.5s228.23-198.3,233.01-258.39 c4.78-60.09-24.14-120.12-98.07-103.63s-118.55,16.87-186.7,6.48C143.47,26.86,0.43,48.95,1.39,171.29z"></path> </defs> <clipPath id="XMLID_50_"> <use xlink:href="#XMLID_342_" style="overflow:visible;"></use> </clipPath> <circle id="XMLID_403_" class="st1" cx="175.13" cy="97.17" r="28.18"></circle> <g id="XMLID_384_" class="st2"> <path id="XMLID_402_" class="st3" d="M369.97,307.64c2.61,12.34-0.6,34.89-1.25,43.19c-0.65,8.31-1.84,20.65-1.84,20.65 s28-7.12,31.56-9.73c3.56-2.61,29.19-6.64,29.19-6.64l28.24-27.77l-18.99-65.03l-35.83,4.98L369.97,307.64z"></path> <path id="XMLID_401_" class="st4" d="M371.26,330.25c6.26-0.63,8.51-9.38,13.14-4.46c4.63,4.92-12.33,29.8-16.65,36.41 c0,0-2.18,30.26,3.36,25.22c5.54-5.04,68.99-59.29,74.39-68.23c5.39-8.93,6.83-15.83,6.83-15.83s-32.63-12.23-40.95-11.15 c-8.32,1.08-26.98,3.6-26.98,3.6l-10.11,6.22l-5.57,19.29L371.26,330.25z"></path> <path id="XMLID_400_" class="st5" d="M344.99,267.75c-0.01-0.29-0.02-0.57-0.02-0.85c-0.21-11.65,3.73-15.38,3.73-15.38 l2.92,21.71L344.99,267.75z"></path> <path id="XMLID_399_" class="st6" d="M350.15,263.42l-6.28,2.69c0,0,2.15,40.13,11.42,57.01c5.7,10.39,8.99-12.87,9.23-13.82 c0.24-0.95-3.94-23.98-3.94-23.98L350.15,263.42z"></path> <path id="XMLID_398_" class="st7" d="M347.9,233.6c-0.95,21.36,8.67,66.42,8.67,66.42l26.86-38.89l12.64-19.46l-10.65-16.39 C385.43,225.28,355.44,229.8,347.9,233.6z"></path> <path id="XMLID_397_" class="st8" d="M353.51,230.94c-0.95,21.36,8.67,66.42,8.67,66.42l26.86-38.89l12.64-19.46l-10.65-16.39 C391.04,222.62,361.04,227.14,353.51,230.94z"></path> <polygon id="XMLID_396_" class="st7" points="361.6,236.33 387.38,228.11 388.31,232.22 361.6,238.95 "></polygon> <polygon id="XMLID_395_" class="st7" points="363.83,247.98 389.61,239.76 390.55,243.87 363.83,250.6 "></polygon> <polygon id="XMLID_394_" class="st7" points="366.94,260.62 392.72,252.4 393.65,256.51 366.94,263.24 "></polygon> <path id="XMLID_393_" class="st5" d="M387.7,206.52c2.03,3.55,1.52,13.43,1.52,13.43h11.91v-23.32L387.7,206.52z"></path> <path id="XMLID_392_" class="st5" d="M374.33,172.34c-5.92,14.68-1.75,39.01,0,40.54c1.75,1.53,16.87-1.53,20.82-2.63 c3.94-1.1,8.98-12.93,8.98-12.93l-5.92-18.41l-10.74-10.52L374.33,172.34z"></path> <path id="XMLID_391_" class="st5" d="M371.26,190.84c-0.64,2.35-3.85,4.82-0.94,6.87c2.9,2.05,3.97-1.16,3.97-1.16L371.26,190.84z "></path> <path id="XMLID_390_" class="st3" d="M401.13,217.94c0,0-12.03-0.24-16.73,2.01c-4.7,2.26-3.08,8.66-3.08,8.66 s-7.2,3.8-12.6,18.51c-5.4,14.71-4.92,27.29-7.53,36.07c-2.61,8.78-6.41,23.73-6.41,23.73s-4.51,8.07,0,15.43 c4.51,7.36,11.27,6.41,13.94,5.7c2.67-0.71,13.92-8.78,18.97-21.12c5.06-12.34,15.26-32.04,15.26-32.04l6.41-22.07L401.13,217.94z "></path> <path id="XMLID_389_" class="st9" d="M431.29,326.41c-16.98,8.61-37.76,2.52-47.64-16.22c-9.89-18.76,12.16-40.55,7.09-49.69 c-5.07-9.12-8.11-12.67,0.52-24.84c8.61-12.16,3.89-25.42,0-31.77c-2.91-4.74-4.19-13.27-5.88-17.89c-0.59-1.58-1.2-2.7-1.95-3.07 c-2.94-1.44-3.85,5.62-4.86,6.7c-1.01,1.08,0.25-8.47,0-11c-0.25-2.54-12.15-1.06-9.45-19.52c2.56-17.47,18.16-9.64,18.16-9.64 c25.44-6.57,39.46,9.39,43.25,25.86c0.37,1.63,0.59,3.26,0.68,4.87v0.11c0.8,14.59-8.16,28.01,6.42,35.06 c16.22,7.86,24.84,25.85,29.4,34.22C471.6,257.97,448.28,317.79,431.29,326.41z"></path> <path id="XMLID_388_" class="st10" d="M431.29,326.41c-16.98,8.61-37.76,2.52-47.64-16.22c-9.89-18.76,12.16-40.55,7.09-49.69 c-5.07-9.12-8.11-12.67,0.52-24.84c8.61-12.16,3.89-25.42,0-31.77c-2.91-4.74-4.19-13.27-5.88-17.89c0.37-1.18,0.72-1.76,1-1.62 c2.94,1.44,6.66,18.12,14.74,28.43c8.09,10.32,10.3,20.44,4.65,34.58c-5.66,14.14,4.23,25.8,20.68,13.71 c16.44-12.1,10.78-28.92,1.23-41.17c-9.53-12.23,3.61-21.98,3.52-39.63c0.8,14.59-8.16,28.01,6.42,35.06 c16.22,7.86,24.84,25.85,29.4,34.22C471.6,257.97,448.28,317.79,431.29,326.41z"></path> <path id="XMLID_387_" class="st5" d="M379.59,188.55c1.1-8.33,4.38-8.55,6.79-4.16c2.41,4.38-0.44,15.56-3.4,12.93 C380.03,194.69,379.59,188.55,379.59,188.55z"></path> <path id="XMLID_386_" class="st11" d="M381.32,189.64c0.02-3.06,3.39-5.11,3.06-1.34c-0.34,3.77-1.53,6.92-2.29,4.13 S381.32,189.64,381.32,189.64z"></path> <polygon id="XMLID_385_" class="st11" points="389,211.64 394.41,210.44 389.24,215.21 "></polygon> </g> <rect id="XMLID_383_" x="144.96" y="133.75" class="st12" width="195.35" height="271.52"></rect> <rect id="XMLID_382_" x="177.24" y="194.84" class="st13" width="125.22" height="13.05"></rect> <rect id="XMLID_381_" x="177.24" y="237" class="st13" width="125.22" height="13.05"></rect> <rect id="XMLID_380_" x="177.24" y="279.17" class="st13" width="125.22" height="13.05"></rect> <rect id="XMLID_379_" x="177.24" y="321.33" class="st13" width="125.22" height="13.05"></rect> <path id="XMLID_378_" class="st14" d="M185.4,255.03c2.08,63.64-10.45,81.17-19.84,91.82c-9.39,10.65-2.79,32.46,79.66,51 c22.13,4.98-72.78,18.51-72.78,18.51l-28.63-31.31v-84.54L185.4,255.03z"></path> <g id="XMLID_376_" class="st2"> <g> <g id="XMLID_38_"> <path class="st15" d="M172.91,112.08c-2.82,0-5.5-1.18-7.42-3.27l-12.41-13.6c-1.43-1.56-1.31-3.98,0.25-5.41 c1.56-1.42,3.98-1.32,5.41,0.25l12.41,13.6c0.66,0.72,1.46,0.79,1.88,0.78c0.42-0.02,1.21-0.17,1.8-0.95l22.28-29.54 c1.27-1.69,3.67-2.02,5.36-0.75c1.69,1.27,2.02,3.67,0.75,5.36l-22.28,29.54c-1.8,2.39-4.56,3.85-7.55,3.99 C173.23,112.07,173.07,112.08,172.91,112.08z"></path> </g> </g> </g> <g id="XMLID_356_" class="st2"> <polygon id="XMLID_375_" class="st9" points="143.81,363.62 143.81,410.62 62.27,395.21 67.01,349.57 "></polygon> <path id="XMLID_374_" class="st5" d="M170.92,236.01l1.22-4.99c0,0-1.46-7.78-1.82-12.4c-0.36-4.62,2.43-7.9,3.89-9.73 c1.46-1.82,3.83-1.34,3.83-1.34s2.86-5.72,3.59-8.03c0.73-2.31,3.41-7.78,5.59-7.54s0.73,3.77,0,6.69 c-0.73,2.92-1.81,8.51-1.81,8.51s7.53,6.45,9.59,9.61c2.07,3.16,2.19,6.08,1.46,9.24c-0.73,3.16-4.74,9.85-9.24,12.4l-4.62,9.12 L170.92,236.01z"></path> <path id="XMLID_373_" class="st11" d="M171.57,233.32c5.66,3.68,15.64,5.12,15.64,5.12l-4.62,9.12l-12.32-11.24L171.57,233.32z"></path> <line id="XMLID_372_" class="st16" x1="175.13" y1="214.41" x2="178.03" y2="207.55"></line> <path id="XMLID_371_" class="st5" d="M120.77,163.65c6.28,15.58,1.86,41.39,0,43.02c-1.86,1.63-17.9-1.63-22.09-2.79 c-4.19-1.16-9.53-13.72-9.53-13.72l6.28-19.53l11.39-11.16L120.77,163.65z"></path> <path id="XMLID_370_" class="st5" d="M106.58,203.15c-1.79,6.04-2.46,14.77-2.46,14.77H81.75v-19.02L106.58,203.15z"></path> <path id="XMLID_369_" class="st11" d="M106.12,204.88c-3.14,0.07-7.44-1-7.44-1l6.56,5.28L106.12,204.88z"></path> <path id="XMLID_368_" class="st17" d="M120.77,163.65l-2.03,0.33l-2.59,0.41c1.43,6.85-2.82,14.37-2.82,14.37 s-9.64,22.02-16.53,26.1c-3.06,1.82-13.05,0.73-15.84,0.03c-2.78-0.69-16.86-12.86-20.02-21.6c-3.47-9.63-3.45-16.56-1.59-21.74 c0.01,0,0.01,0,0.01,0c1.34-3.75,3.66-6.58,6.29-8.83c6.28-5.35,25.12-9.77,24.88-12.56c-0.23-2.79-8.79-5.1-10.68-3.5 c0.25-0.32,5.21-6.21,17.2-4.41c12.32,1.86,23.02,7.68,24.88,14.65C123.8,153.89,120.77,163.65,120.77,163.65z"></path> <path id="XMLID_367_" class="st18" d="M116.15,164.4c1.43,6.85-2.82,14.37-2.82,14.37s-9.64,22.02-16.53,26.1 c-3.06,1.82-13.05,0.73-15.84,0.03c-2.78-0.69-16.86-12.86-20.02-21.6c-3.47-9.63-3.45-16.56-1.59-21.74c0.01,0,0.01,0,0.01,0 c-0.4,17.72,9.13,30.93,19.9,31.13c10.76,0.2,18.48-5.97,21.93-14.26C104.65,170.14,113.04,170.43,116.15,164.4z"></path> <path id="XMLID_366_" class="st5" d="M115.19,180.86c-1.16-8.84-4.65-9.07-7.21-4.42c-2.56,4.65,0.46,16.51,3.6,13.72 C114.72,187.37,115.19,180.86,115.19,180.86z"></path> <path id="XMLID_365_" class="st11" d="M113.35,182.01c-0.02-3.24-3.6-5.42-3.24-1.42c0.36,4,1.62,7.34,2.43,4.38 C113.35,182.01,113.35,182.01,113.35,182.01z"></path> <path id="XMLID_364_" class="st5" d="M124.02,183.29c0.68,2.49,4.08,5.11,1,7.29c-3.08,2.17-4.22-1.23-4.22-1.23L124.02,183.29z"></path> <polygon id="XMLID_363_" class="st8" points="167.76,241.24 170.8,234.06 188.31,246.83 182.35,259.6 "></polygon> <path id="XMLID_362_" class="st19" d="M185.4,255.03c0,0-0.24,9.16-3.95,24.5c-3.71,15.34-9.65,40.59-17.08,49 c-7.42,8.41-13.86,5.45-18.07,5.94c-3.94,0.47-9.19-9.29-9.84-10.52c-0.01-0.03-0.03-0.05-0.03-0.07l9.12,39.54 c0,0-10.11,1.16-24.03,2.28c-18.51,1.47-43.74,2.87-60.97,1.36c-2.64-0.24-5.09-0.53-7.3-0.91l-9.64-5.94c0,0-0.49-52.97,0-63.61 c0.41-8.88,0.75-35.3,3.73-49.41c0.59-2.8,1.28-5.1,2.11-6.7c2.02-3.93,6.41-7.85,10.98-11.23c0.01-0.01,0.01-0.01,0.03-0.03 c6.65-4.9,13.65-8.63,14.09-9.36c-0.94-3.58-0.69-8.05,0.13-9.59c0.19-0.33,0.39-0.52,0.61-0.55c0.47-0.08,1.19-0.13,2.1-0.16 c0.01,0,0.01,0,0.01,0c7.8-0.28,29.74,1.03,31.75,2.14c2.27,1.23,0,9.65,0,9.65s17.37,7.92,27.03,15.34 c9.64,7.42,14.1,24.01,16.08,35.88c0,0,8.43-23.26,11.39-27.72c2.96-4.45,3.71-5.93,3.71-5.93L185.4,255.03z"></path> <path id="XMLID_361_" class="st20" d="M145.55,363.43c0,0-10.11,1.16-24.03,2.28c-2.03-0.72-2.67-1.52-6.02-2.26 c-5.77-1.26-26.84-3.75-31.86-6.52c-5.02-2.76-15.54-30.35-25.33-40.35c-9.79-10-6.52-25.61-1.7-11.34 c4.83,14.27,25.77,20.34,49.85,29.14c24.09,8.8,29.1,4.25,23.83-6.53c-5.27-10.78-12.54-35.38-8.53-33.62 c4.02,1.75,7.02,19.31,14.66,29.63c0,0,0,0.01,0.01,0.03L145.55,363.43z"></path> <path id="XMLID_360_" class="st20" d="M152.24,272.6c1.78,10.12,4.79,28.8,4.79,28.8s-0.45-19.41-3.13-33.32L152.24,272.6z"></path> <path id="XMLID_359_" class="st20" d="M60.54,367.07c-2.64-0.23-5.09-0.53-7.29-0.91l-9.65-5.94c0,0-0.5-52.96,0-63.61 c0.41-8.89,0.75-35.31,3.73-49.41l2.55,3.25c4.16,4.16,6.35,34.02,6.63,50.96c0.29,16.93,3.06,50.18,3.06,50.18 S60.89,361.83,60.54,367.07z"></path> <path id="XMLID_358_" class="st9" d="M118.74,163.98l-2.59,0.41C117.23,162.3,118.11,162.57,118.74,163.98z"></path> <path id="XMLID_357_" class="st20" d="M75.17,224.34c-3.94-0.03-9.84,2.56-14.73,4.9c6.65-4.9,13.65-8.63,14.09-9.36 c-0.94-3.58-0.69-8.05,0.13-9.59c0.2-0.04,0.37-0.09,0.55-0.13c-0.71,5.86,10.68,10.52,20.27,11.12 C105.29,221.9,82.59,224.4,75.17,224.34z"></path> </g> <polygon id="XMLID_355_" class="st21" points="375.58,110.54 363.85,116.71 366.09,103.64 356.59,94.38 369.71,92.47 375.58,80.58 381.45,92.47 394.58,94.38 385.08,103.64 387.32,116.71 "></polygon> <polygon id="XMLID_354_" class="st21" points="274.55,110.54 262.81,116.71 265.05,103.64 255.55,94.38 268.68,92.47 274.55,80.58 280.42,92.47 293.54,94.38 284.04,103.64 286.29,116.71 "></polygon> <polygon id="XMLID_353_" class="st21" points="322.32,90.51 313.41,95.19 315.11,85.27 307.91,78.25 317.87,76.8 322.32,67.77 326.77,76.8 336.74,78.25 329.53,85.27 331.23,95.19 "></polygon> <polygon id="XMLID_352_" class="st21" points="417.56,126 411.43,129.22 412.6,122.4 407.64,117.56 414.49,116.57 417.56,110.36 420.62,116.57 427.47,117.56 422.51,122.4 423.68,129.22 "></polygon> <g id="XMLID_344_" class="st2"> <g id="XMLID_348_"> <g> <polygon id="XMLID_22_" class="st19" points="309.74,211.02 304.32,201.7 294.43,206 306.4,169.54 321.71,174.57 "></polygon> <polygon id="XMLID_21_" class="st19" points="337.04,211.02 342.46,201.7 352.35,206 340.38,169.54 325.07,174.57 "></polygon> </g> </g> <path id="XMLID_347_" class="st20" d="M328.55,111.58c0.78-4.9-11.09-4.9-10.31,0c-0.78-4.9-12.06-1.23-9.81,3.19 c-2.25-4.42-11.85,2.55-8.34,6.06c-3.51-3.51-10.48,6.09-6.06,8.34c-4.42-2.25-8.09,9.03-3.19,9.81c-4.9-0.78-4.9,11.09,0,10.31 c-4.9,0.78-1.23,12.06,3.19,9.81c-4.42,2.25,2.55,11.85,6.06,8.34c-3.51,3.51,6.09,10.48,8.34,6.06 c-2.25,4.42,9.03,8.09,9.81,3.19c-0.78,4.9,11.09,4.9,10.31,0c0.78,4.9,12.06,1.23,9.81-3.19c2.25,4.42,11.85-2.55,8.34-6.06 c3.51,3.51,10.48-6.09,6.06-8.34c4.42,2.25,8.09-9.03,3.19-9.81c4.9,0.78,4.9-11.09,0-10.31c4.9-0.78,1.23-12.06-3.19-9.81 c4.42-2.25-2.55-11.85-6.06-8.34c3.51-3.51-6.09-10.48-8.34-6.06C340.61,110.35,329.32,106.68,328.55,111.58z"></path> <ellipse id="XMLID_346_" transform="matrix(0.9239 -0.3827 0.3827 0.9239 -30.5428 134.7278)" class="st19" cx="323.39" cy="144.14" rx="28.37" ry="28.37"></ellipse> <polygon id="XMLID_345_" class="st17" points="322.07,151.27 313.16,155.95 314.86,146.03 307.65,139 317.61,137.56 322.07,128.53 326.52,137.56 336.48,139 329.27,146.03 330.98,155.95 "></polygon> </g> </g> </svg> 