<?xml version="1.0" encoding="UTF-8"?> <svg xmlns="http://www.w3.org/2000/svg" xmlns:xlink="http://www.w3.org/1999/xlink" width="29pt" height="29pt" viewBox="0 0 29 29" version="1.1"><g id="surface1"><path style=" stroke:none;fill-rule:nonzero;fill:rgb(25.098039%,76.862745%,100%);fill-opacity:1;" d="M 5.875 15.464844 L 6.65625 15.726562 C 6.707031 15.882812 6.773438 16.03125 6.847656 16.179688 L 6.46875 16.910156 C 6.386719 17.082031 6.417969 17.289062 6.550781 17.429688 L 7.191406 18.070312 C 7.324219 18.203125 7.53125 18.242188 7.710938 18.152344 L 8.445312 17.777344 C 8.597656 17.855469 8.746094 17.921875 8.902344 17.972656 L 9.160156 18.753906 C 9.226562 18.945312 9.421875 19.074219 9.621094 19.058594 L 10.523438 19.058594 C 10.714844 19.058594 10.886719 18.933594 10.945312 18.753906 L 11.207031 17.972656 C 11.363281 17.921875 11.511719 17.855469 11.660156 17.777344 L 12.394531 18.152344 C 12.566406 18.234375 12.773438 18.203125 12.917969 18.070312 L 13.554688 17.429688 C 13.703125 17.304688 13.757812 17.09375 13.675781 16.910156 L 13.304688 16.171875 C 13.378906 16.023438 13.445312 15.875 13.496094 15.71875 L 14.261719 15.460938 C 14.457031 15.390625 14.582031 15.214844 14.566406 15.003906 L 14.566406 14.105469 C 14.566406 13.914062 14.441406 13.742188 14.261719 13.683594 L 13.480469 13.421875 C 13.429688 13.265625 13.363281 13.117188 13.289062 12.96875 L 13.667969 12.210938 C 13.75 12.039062 13.71875 11.832031 13.585938 11.6875 L 12.945312 11.050781 C 12.8125 10.902344 12.597656 10.863281 12.417969 10.953125 L 11.683594 11.324219 C 11.53125 11.25 11.382812 11.183594 11.226562 11.132812 L 10.96875 10.367188 C 10.902344 10.171875 10.722656 10.046875 10.515625 10.0625 L 9.613281 10.0625 C 9.421875 10.0625 9.25 10.1875 9.191406 10.367188 L 8.929688 11.152344 C 8.773438 11.207031 8.625 11.273438 8.476562 11.347656 L 7.71875 10.96875 C 7.546875 10.886719 7.339844 10.914062 7.199219 11.050781 L 6.558594 11.6875 C 6.410156 11.824219 6.371094 12.039062 6.460938 12.21875 L 6.832031 12.953125 C 6.757812 13.101562 6.691406 13.25 6.640625 13.40625 L 5.859375 13.667969 C 5.671875 13.734375 5.554688 13.921875 5.570312 14.121094 L 5.570312 15.019531 C 5.554688 15.222656 5.679688 15.398438 5.875 15.464844 Z M 6.46875 14.441406 L 7.160156 14.210938 C 7.308594 14.164062 7.421875 14.046875 7.457031 13.898438 C 7.523438 13.660156 7.621094 13.429688 7.75 13.222656 C 7.824219 13.085938 7.824219 12.921875 7.75 12.796875 L 7.421875 12.144531 L 7.597656 11.964844 L 8.253906 12.292969 C 8.386719 12.367188 8.550781 12.367188 8.675781 12.292969 C 8.894531 12.164062 9.132812 12.070312 9.375 12 C 9.523438 11.964844 9.644531 11.851562 9.6875 11.703125 L 9.933594 10.976562 L 10.1875 10.976562 L 10.417969 11.667969 C 10.460938 11.816406 10.582031 11.925781 10.730469 11.964844 C 10.976562 12.023438 11.214844 12.121094 11.429688 12.253906 C 11.5625 12.328125 11.726562 12.328125 11.851562 12.253906 L 12.507812 11.925781 L 12.6875 12.105469 L 12.359375 12.773438 C 12.285156 12.910156 12.285156 13.074219 12.359375 13.199219 C 12.484375 13.414062 12.582031 13.652344 12.648438 13.898438 C 12.6875 14.046875 12.796875 14.164062 12.945312 14.210938 L 13.636719 14.441406 L 13.636719 14.691406 L 12.945312 14.925781 C 12.796875 14.96875 12.6875 15.085938 12.648438 15.234375 C 12.589844 15.480469 12.492188 15.71875 12.359375 15.933594 C 12.277344 16.078125 12.277344 16.246094 12.359375 16.390625 L 12.6875 17.042969 L 12.507812 17.222656 L 11.851562 16.871094 C 11.71875 16.796875 11.554688 16.796875 11.429688 16.871094 C 11.214844 17 10.976562 17.09375 10.730469 17.160156 C 10.582031 17.199219 10.460938 17.3125 10.417969 17.460938 L 10.1875 18.164062 L 9.933594 18.164062 L 9.703125 17.472656 C 9.660156 17.324219 9.539062 17.214844 9.390625 17.175781 C 9.152344 17.109375 8.921875 17.011719 8.714844 16.886719 C 8.582031 16.8125 8.417969 16.8125 8.292969 16.886719 L 7.636719 17.214844 L 7.457031 17.035156 L 7.761719 16.367188 C 7.84375 16.226562 7.84375 16.054688 7.761719 15.914062 C 7.636719 15.695312 7.539062 15.460938 7.472656 15.214844 C 7.4375 15.066406 7.324219 14.945312 7.175781 14.902344 L 6.46875 14.691406 Z M 6.46875 14.441406 "></path><path style=" stroke:none;fill-rule:nonzero;fill:rgb(25.098039%,76.862745%,100%);fill-opacity:1;" d="M 10.066406 16.367188 C 11.066406 16.367188 11.867188 15.5625 11.867188 14.566406 C 11.867188 13.570312 11.066406 12.765625 10.066406 12.765625 C 9.070312 12.765625 8.269531 13.570312 8.269531 14.566406 C 8.269531 15.5625 9.070312 16.367188 10.066406 16.367188 Z M 10.066406 13.667969 C 10.566406 13.667969 10.96875 14.070312 10.96875 14.566406 C 10.96875 15.066406 10.566406 15.464844 10.066406 15.464844 C 9.570312 15.464844 9.167969 15.066406 9.167969 14.566406 C 9.167969 14.070312 9.570312 13.667969 10.066406 13.667969 Z M 10.066406 13.667969 "></path><path style=" stroke:none;fill-rule:nonzero;fill:rgb(25.098039%,76.862745%,100%);fill-opacity:1;" d="M 28.96875 14.566406 C 28.960938 9.523438 25.007812 5.375 19.972656 5.136719 L 19.972656 1.515625 C 19.972656 0.773438 19.371094 0.164062 18.621094 0.164062 L 1.515625 0.164062 C 0.773438 0.164062 0.164062 0.765625 0.164062 1.515625 L 0.164062 27.617188 C 0.164062 28.359375 0.765625 28.96875 1.515625 28.96875 L 18.621094 28.96875 C 19.363281 28.96875 19.972656 28.367188 19.972656 27.617188 L 19.972656 24.019531 C 25.015625 23.78125 28.976562 19.617188 28.96875 14.566406 Z M 19.964844 23.074219 L 19.964844 19.066406 L 23.3125 19.066406 C 22.589844 21.246094 21.363281 22.792969 19.964844 23.074219 Z M 19.964844 18.164062 L 19.964844 15.019531 L 24.019531 15.019531 C 23.980469 16.082031 23.832031 17.140625 23.5625 18.171875 L 19.964844 18.171875 Z M 23.320312 10.066406 L 19.972656 10.066406 L 19.972656 6.058594 C 21.363281 6.34375 22.589844 7.890625 23.320312 10.066406 Z M 23.5625 10.96875 C 23.832031 12 23.980469 13.058594 24.019531 14.121094 L 19.964844 14.121094 L 19.964844 10.96875 Z M 28.070312 14.121094 L 24.917969 14.121094 C 24.894531 13.058594 24.769531 12 24.539062 10.96875 L 27.28125 10.96875 C 27.742188 11.957031 28.011719 13.027344 28.070312 14.121094 Z M 24.917969 15.019531 L 28.070312 15.019531 C 28.011719 16.113281 27.75 17.183594 27.289062 18.171875 L 24.523438 18.171875 C 24.761719 17.132812 24.894531 16.078125 24.917969 15.019531 Z M 26.792969 10.066406 L 24.292969 10.066406 C 23.929688 8.757812 23.273438 7.539062 22.382812 6.515625 C 24.203125 7.167969 25.757812 8.417969 26.785156 10.066406 Z M 19.066406 27.617188 C 19.066406 27.863281 18.863281 28.070312 18.613281 28.070312 L 1.507812 28.070312 C 1.265625 28.070312 1.054688 27.871094 1.054688 27.617188 L 1.054688 1.515625 C 1.054688 1.273438 1.257812 1.0625 1.507812 1.0625 L 18.613281 1.0625 C 18.859375 1.0625 19.066406 1.265625 19.066406 1.515625 Z M 22.375 22.621094 C 23.265625 21.59375 23.921875 20.382812 24.285156 19.066406 L 26.777344 19.066406 C 25.75 20.714844 24.203125 21.964844 22.375 22.621094 Z M 22.375 22.621094 "></path><path style=" stroke:none;fill-rule:nonzero;fill:rgb(25.098039%,76.862745%,100%);fill-opacity:1;" d="M 17.265625 3.769531 L 2.871094 3.769531 C 2.625 3.769531 2.417969 3.972656 2.417969 4.222656 L 2.417969 24.925781 C 2.417969 25.171875 2.617188 25.378906 2.871094 25.378906 L 17.273438 25.378906 C 17.519531 25.378906 17.726562 25.179688 17.726562 24.925781 L 17.726562 4.214844 C 17.71875 3.972656 17.519531 3.769531 17.265625 3.769531 Z M 16.820312 24.472656 L 3.316406 24.472656 L 3.316406 4.667969 L 16.820312 4.667969 Z M 16.820312 24.472656 "></path><path style=" stroke:none;fill-rule:nonzero;fill:rgb(25.098039%,76.862745%,100%);fill-opacity:1;" d="M 11.867188 26.269531 L 8.269531 26.269531 C 8.023438 26.269531 7.816406 26.472656 7.816406 26.726562 C 7.816406 26.96875 8.015625 27.179688 8.269531 27.179688 L 11.867188 27.179688 C 12.113281 27.179688 12.320312 26.976562 12.320312 26.726562 C 12.3125 26.472656 12.113281 26.269531 11.867188 26.269531 Z M 11.867188 26.269531 "></path><path style=" stroke:none;fill-rule:nonzero;fill:rgb(25.098039%,76.862745%,100%);fill-opacity:1;" d="M 9.167969 2.871094 L 10.96875 2.871094 C 11.214844 2.871094 11.421875 2.667969 11.421875 2.417969 C 11.421875 2.164062 11.222656 1.964844 10.96875 1.964844 L 9.167969 1.964844 C 8.921875 1.964844 8.714844 2.164062 8.714844 2.417969 C 8.714844 2.667969 8.914062 2.871094 9.167969 2.871094 Z M 9.167969 2.871094 "></path></g></svg> 