<?xml version="1.0" encoding="UTF-8"?> <svg xmlns="http://www.w3.org/2000/svg" xmlns:xlink="http://www.w3.org/1999/xlink" width="29pt" height="29pt" viewBox="0 0 29 29" version="1.1"><g id="surface1"><path style=" stroke:none;fill-rule:nonzero;fill:rgb(93.72549%,26.27451%,20.784314%);fill-opacity:1;" d="M 14.292969 21.175781 C 14.292969 20.875 14.035156 20.628906 13.71875 20.628906 C 13.402344 20.628906 13.148438 20.875 13.148438 21.175781 C 13.148438 21.480469 13.402344 21.726562 13.71875 21.726562 C 14.035156 21.726562 14.292969 21.480469 14.292969 21.175781 Z M 14.292969 21.175781 "></path><path style=" stroke:none;fill-rule:nonzero;fill:rgb(93.72549%,26.27451%,20.784314%);fill-opacity:1;" d="M 15.785156 2.691406 L 13.382812 2.691406 C 13.125 2.691406 12.917969 2.484375 12.917969 2.222656 C 12.917969 1.964844 13.132812 1.761719 13.382812 1.761719 L 15.785156 1.761719 C 16.046875 1.761719 16.253906 1.96875 16.253906 2.230469 C 16.253906 2.492188 16.046875 2.691406 15.785156 2.691406 Z M 15.785156 2.691406 "></path><path style=" stroke:none;fill-rule:nonzero;fill:rgb(93.72549%,26.27451%,20.784314%);fill-opacity:1;" d="M 12.007812 2.609375 C 11.785156 2.609375 11.601562 2.4375 11.601562 2.222656 C 11.601562 2.007812 11.785156 1.835938 12.007812 1.835938 C 12.230469 1.835938 12.417969 2.007812 12.417969 2.222656 C 12.417969 2.4375 12.238281 2.609375 12.007812 2.609375 Z M 12.007812 2.609375 "></path><path style=" stroke:none;fill-rule:nonzero;fill:rgb(93.72549%,26.27451%,20.784314%);fill-opacity:1;" d="M 26.902344 24.480469 L 25.171875 21.050781 C 24.628906 19.972656 24.546875 18.761719 24.933594 17.628906 L 25.476562 16.054688 C 25.980469 14.589844 25.683594 12.996094 24.679688 11.792969 C 24.664062 11.777344 24.648438 11.757812 24.628906 11.742188 C 24.605469 11.71875 22.523438 9.867188 20.941406 7.226562 L 20.941406 2.4375 C 20.941406 1.160156 19.898438 0.113281 18.613281 0.113281 L 8.773438 0.113281 C 7.496094 0.113281 6.445312 1.152344 6.445312 2.4375 L 6.445312 7.710938 C 5.496094 7.800781 4.699219 8.582031 4.632812 9.546875 C 4.59375 10.140625 4.839844 10.699219 5.300781 11.070312 C 4.929688 11.40625 4.675781 11.875 4.640625 12.402344 C 4.601562 12.996094 4.839844 13.546875 5.300781 13.921875 C 4.929688 14.253906 4.675781 14.730469 4.640625 15.25 C 4.601562 15.839844 4.839844 16.394531 5.300781 16.769531 C 4.921875 17.101562 4.667969 17.578125 4.632812 18.105469 C 4.558594 19.15625 5.40625 20.023438 6.445312 20.023438 L 6.445312 20.992188 C 6.445312 21.691406 6.773438 22.359375 7.332031 22.804688 C 9.53125 26.25 16.1875 26.121094 17.570312 26.0625 L 19.824219 28.777344 C 19.964844 28.949219 20.234375 28.992188 20.417969 28.882812 L 26.726562 25.097656 C 26.933594 24.960938 27.007812 24.695312 26.902344 24.480469 Z M 8.773438 1.042969 L 18.613281 1.042969 C 19.378906 1.042969 20.011719 1.664062 20.011719 2.4375 L 20.011719 5.578125 C 19.816406 5.367188 19.550781 5.273438 19.265625 5.285156 L 19.265625 3.867188 C 19.265625 3.605469 19.058594 3.398438 18.796875 3.398438 L 8.597656 3.398438 C 8.335938 3.398438 8.128906 3.605469 8.128906 3.867188 L 8.128906 7.703125 L 7.382812 7.703125 L 7.382812 2.4375 C 7.382812 1.664062 8.007812 1.042969 8.773438 1.042969 Z M 17.339844 19.09375 L 10.023438 19.09375 C 10.203125 18.820312 10.320312 18.507812 10.34375 18.171875 C 10.378906 17.585938 10.140625 17.027344 9.679688 16.65625 C 10.0625 16.320312 10.3125 15.847656 10.351562 15.316406 C 10.386719 14.730469 10.148438 14.171875 9.6875 13.800781 C 10.0625 13.464844 10.3125 12.992188 10.351562 12.46875 C 10.386719 11.875 10.140625 11.316406 9.679688 10.945312 C 10.054688 10.609375 10.304688 10.140625 10.34375 9.613281 C 10.402344 8.773438 9.867188 8.007812 9.058594 7.769531 L 9.058594 4.328125 L 18.335938 4.328125 L 18.335938 5.964844 C 17.535156 7.132812 17.222656 8.5 18.070312 9.75 L 19.855469 12.679688 L 19.773438 14.617188 C 18.328125 15.628906 17.503906 17.363281 17.339844 19.09375 Z M 6.640625 11.472656 L 8.550781 11.480469 C 9.058594 11.480469 9.457031 11.898438 9.429688 12.410156 C 9.390625 12.953125 8.914062 13.390625 8.367188 13.390625 L 6.453125 13.382812 C 5.949219 13.382812 5.546875 12.96875 5.578125 12.460938 C 5.613281 11.914062 6.089844 11.472656 6.640625 11.472656 Z M 6.640625 14.320312 L 8.550781 14.328125 C 9.058594 14.328125 9.457031 14.746094 9.429688 15.257812 C 9.390625 15.800781 8.914062 16.238281 8.367188 16.238281 L 6.453125 16.234375 C 5.949219 16.234375 5.546875 15.816406 5.578125 15.304688 C 5.613281 14.769531 6.089844 14.320312 6.640625 14.320312 Z M 6.632812 8.625 L 8.542969 8.632812 C 9.050781 8.632812 9.449219 9.050781 9.421875 9.5625 C 9.382812 10.105469 8.910156 10.542969 8.359375 10.542969 L 6.445312 10.535156 C 5.941406 10.535156 5.539062 10.121094 5.570312 9.605469 C 5.605469 9.0625 6.082031 8.625 6.632812 8.625 Z M 6.632812 17.175781 L 8.542969 17.183594 C 9.050781 17.183594 9.449219 17.601562 9.421875 18.113281 C 9.382812 18.65625 8.910156 19.09375 8.359375 19.09375 L 6.445312 19.089844 C 5.941406 19.089844 5.539062 18.671875 5.570312 18.160156 C 5.605469 17.617188 6.082031 17.175781 6.632812 17.175781 Z M 17.316406 20.023438 C 17.386719 21.074219 17.726562 21.855469 18.0625 22.382812 L 8.210938 22.382812 C 7.882812 21.996094 7.480469 21.734375 7.398438 21.191406 C 7.339844 20.8125 7.382812 20.402344 7.382812 20.023438 Z M 20.285156 27.871094 L 18.136719 25.28125 C 18.039062 25.171875 17.890625 25.105469 17.742188 25.117188 C 17.675781 25.125 11.867188 25.503906 9.050781 23.320312 L 19.066406 23.320312 C 19.496094 23.320312 19.691406 22.753906 19.355469 22.484375 C 19.296875 22.441406 17.90625 21.296875 18.300781 18.828125 C 18.703125 16.308594 20.382812 15.324219 20.449219 15.289062 C 20.589844 15.207031 20.679688 15.066406 20.6875 14.902344 L 20.789062 12.582031 C 20.796875 12.492188 20.769531 12.394531 20.722656 12.320312 L 18.851562 9.257812 C 18.136719 8.214844 18.589844 7.101562 19.339844 6.222656 C 20.925781 9.621094 23.660156 12.144531 23.988281 12.433594 C 24.769531 13.378906 24.992188 14.617188 24.597656 15.765625 L 24.054688 17.339844 C 23.578125 18.714844 23.683594 20.1875 24.335938 21.488281 L 25.875 24.539062 Z M 20.285156 27.871094 "></path></g></svg> 