<?xml version="1.0" encoding="UTF-8"?> <svg xmlns="http://www.w3.org/2000/svg" xmlns:xlink="http://www.w3.org/1999/xlink" width="29pt" height="29pt" viewBox="0 0 29 29" version="1.1"><g id="surface1"><path style=" stroke:none;fill-rule:nonzero;fill:rgb(100%,25.098039%,50.588235%);fill-opacity:1;" d="M 12.707031 20.1875 L 16.367188 20.1875 L 16.367188 21.40625 L 12.707031 21.40625 Z M 12.707031 20.1875 "></path><path style=" stroke:none;fill-rule:nonzero;fill:rgb(100%,25.098039%,50.588235%);fill-opacity:1;" d="M 27.355469 1.882812 L 1.726562 1.882812 C 1.054688 1.882812 0.503906 2.429688 0.503906 3.101562 L 0.503906 18.96875 C 0.503906 19.636719 1.054688 20.1875 1.726562 20.1875 L 11.488281 20.1875 L 11.488281 21.40625 L 9.050781 21.40625 C 8.378906 21.40625 7.828125 21.957031 7.828125 22.628906 L 7.828125 25.066406 L 16.375 25.066406 L 16.375 23.847656 L 9.050781 23.847656 L 9.050781 22.628906 L 16.367188 22.628906 L 16.367188 21.40625 L 12.707031 21.40625 L 12.707031 20.1875 L 16.367188 20.1875 L 16.367188 18.96875 L 1.726562 18.96875 L 1.726562 3.109375 L 27.355469 3.109375 L 27.355469 18.976562 L 26.136719 18.976562 L 26.136719 20.195312 L 27.355469 20.195312 C 28.027344 20.195312 28.574219 19.644531 28.574219 18.976562 L 28.574219 3.109375 C 28.574219 2.429688 28.027344 1.882812 27.355469 1.882812 Z M 27.355469 1.882812 "></path><path style=" stroke:none;fill-rule:nonzero;fill:rgb(100%,25.098039%,50.588235%);fill-opacity:1;" d="M 23.691406 15.308594 L 18.8125 15.308594 C 18.144531 15.308594 17.59375 15.859375 17.59375 16.53125 L 17.59375 26.292969 C 17.59375 26.960938 18.144531 27.511719 18.8125 27.511719 L 23.691406 27.511719 C 24.359375 27.511719 24.910156 26.960938 24.910156 26.292969 L 24.910156 16.53125 C 24.910156 15.859375 24.367188 15.308594 23.691406 15.308594 Z M 23.691406 16.53125 L 23.691406 17.75 L 18.8125 17.75 L 18.8125 16.53125 Z M 23.691406 24.464844 L 18.8125 24.464844 L 18.8125 18.96875 L 23.691406 18.96875 Z M 18.8125 26.292969 L 18.8125 25.683594 L 23.691406 25.683594 L 23.691406 26.292969 Z M 18.8125 26.292969 "></path></g></svg> 