<?xml version="1.0" encoding="UTF-8"?> <svg xmlns="http://www.w3.org/2000/svg" xmlns:xlink="http://www.w3.org/1999/xlink" width="29pt" height="29pt" viewBox="0 0 29 29" version="1.1"><g id="surface1"><path style=" stroke:none;fill-rule:nonzero;fill:rgb(99.607843%,85.098039%,29.411765%);fill-opacity:1;" d="M 0.871094 0.171875 L 0.871094 23.148438 L 3.570312 23.148438 L 3.570312 22.160156 L 1.859375 22.160156 L 1.859375 4.476562 L 27.339844 4.476562 L 27.339844 22.160156 L 25.632812 22.160156 L 25.632812 23.148438 L 28.332031 23.148438 L 28.332031 0.171875 Z M 1.859375 1.160156 L 27.339844 1.160156 L 27.339844 3.480469 L 1.859375 3.480469 Z M 1.859375 1.160156 "></path><path style=" stroke:none;fill-rule:nonzero;fill:rgb(99.607843%,85.098039%,29.411765%);fill-opacity:1;" d="M 2.632812 1.820312 L 3.621094 1.820312 L 3.621094 2.8125 L 2.632812 2.8125 Z M 2.632812 1.820312 "></path><path style=" stroke:none;fill-rule:nonzero;fill:rgb(99.607843%,85.098039%,29.411765%);fill-opacity:1;" d="M 4.617188 1.820312 L 5.605469 1.820312 L 5.605469 2.8125 L 4.617188 2.8125 Z M 4.617188 1.820312 "></path><path style=" stroke:none;fill-rule:nonzero;fill:rgb(99.607843%,85.098039%,29.411765%);fill-opacity:1;" d="M 6.601562 1.820312 L 7.59375 1.820312 L 7.59375 2.8125 L 6.601562 2.8125 Z M 6.601562 1.820312 "></path><path style=" stroke:none;fill-rule:nonzero;fill:rgb(99.607843%,85.098039%,29.411765%);fill-opacity:1;" d="M 15.101562 10.574219 L 15.101562 10.222656 L 15.695312 10.222656 C 16.121094 10.222656 16.515625 10.0625 16.820312 9.761719 C 17.117188 9.464844 17.28125 9.0625 17.28125 8.640625 C 17.28125 8.214844 17.117188 7.816406 16.8125 7.519531 C 16.515625 7.21875 16.113281 7.058594 15.691406 7.058594 L 13.511719 7.058594 C 13.085938 7.058594 12.691406 7.21875 12.386719 7.519531 C 12.089844 7.816406 11.925781 8.214844 11.925781 8.640625 C 11.925781 9.0625 12.089844 9.464844 12.394531 9.761719 C 12.691406 10.0625 13.09375 10.222656 13.519531 10.222656 L 14.113281 10.222656 L 14.113281 10.574219 C 9.257812 10.835938 5.382812 14.855469 5.382812 19.773438 C 5.375 24.867188 9.519531 29 14.605469 29 C 19.691406 29 23.832031 24.859375 23.832031 19.773438 C 23.832031 14.847656 19.957031 10.835938 15.101562 10.574219 Z M 13.511719 9.226562 C 13.347656 9.226562 13.199219 9.167969 13.085938 9.058594 C 12.976562 8.945312 12.917969 8.796875 12.917969 8.632812 C 12.917969 8.46875 12.976562 8.320312 13.085938 8.210938 C 13.199219 8.097656 13.347656 8.039062 13.511719 8.039062 L 15.691406 8.039062 C 15.851562 8.039062 16.003906 8.097656 16.113281 8.210938 C 16.226562 8.320312 16.285156 8.46875 16.285156 8.632812 C 16.285156 8.796875 16.226562 8.945312 16.113281 9.058594 C 16.003906 9.167969 15.851562 9.226562 15.691406 9.226562 L 15.09375 9.226562 L 15.09375 8.632812 L 14.097656 8.632812 L 14.097656 9.226562 Z M 14.605469 28.011719 C 10.0625 28.011719 6.363281 24.316406 6.363281 19.773438 C 6.363281 15.234375 10.0625 11.539062 14.605469 11.539062 C 19.148438 11.539062 22.84375 15.234375 22.84375 19.773438 C 22.835938 24.316406 19.148438 28.011719 14.605469 28.011719 Z M 14.605469 28.011719 "></path><path style=" stroke:none;fill-rule:nonzero;fill:rgb(99.607843%,85.098039%,29.411765%);fill-opacity:1;" d="M 21.710938 13.199219 L 22.417969 13.898438 L 22.933594 13.382812 C 23.140625 13.175781 23.253906 12.910156 23.253906 12.617188 C 23.253906 12.328125 23.140625 12.0625 22.933594 11.851562 L 22.523438 11.445312 C 22.324219 11.234375 22.046875 11.125 21.757812 11.125 C 21.46875 11.125 21.199219 11.234375 20.992188 11.4375 L 20.476562 11.949219 L 21.183594 12.648438 L 21.699219 12.136719 C 21.71875 12.113281 21.792969 12.105469 21.824219 12.136719 L 22.234375 12.542969 C 22.261719 12.574219 22.261719 12.597656 22.261719 12.605469 C 22.261719 12.609375 22.261719 12.632812 22.234375 12.664062 Z M 21.710938 13.199219 "></path><path style=" stroke:none;fill-rule:nonzero;fill:rgb(99.607843%,85.098039%,29.411765%);fill-opacity:1;" d="M 7.390625 12.148438 C 7.421875 12.121094 7.480469 12.121094 7.511719 12.148438 L 8.023438 12.664062 L 8.722656 11.957031 L 8.210938 11.445312 C 8.007812 11.242188 7.734375 11.132812 7.441406 11.132812 C 7.152344 11.132812 6.886719 11.242188 6.683594 11.445312 L 6.277344 11.851562 C 6.074219 12.054688 5.957031 12.328125 5.957031 12.617188 C 5.957031 12.902344 6.066406 13.175781 6.277344 13.378906 L 6.789062 13.890625 L 7.488281 13.191406 L 6.976562 12.679688 C 6.945312 12.648438 6.945312 12.625 6.945312 12.617188 C 6.945312 12.609375 6.945312 12.582031 6.96875 12.550781 Z M 7.390625 12.148438 "></path><path style=" stroke:none;fill-rule:nonzero;fill:rgb(99.607843%,85.098039%,29.411765%);fill-opacity:1;" d="M 10.523438 13.71875 L 11.382812 13.222656 L 11.890625 14.105469 L 11.035156 14.597656 Z M 10.523438 13.71875 "></path><path style=" stroke:none;fill-rule:nonzero;fill:rgb(99.607843%,85.098039%,29.411765%);fill-opacity:1;" d="M 8.054688 16.570312 L 8.550781 15.703125 L 9.4375 16.210938 L 8.941406 17.078125 Z M 8.054688 16.570312 "></path><path style=" stroke:none;fill-rule:nonzero;fill:rgb(99.607843%,85.098039%,29.411765%);fill-opacity:1;" d="M 7.324219 19.273438 L 8.34375 19.273438 L 8.34375 20.261719 L 7.324219 20.261719 Z M 7.324219 19.273438 "></path><path style=" stroke:none;fill-rule:nonzero;fill:rgb(99.607843%,85.098039%,29.411765%);fill-opacity:1;" d="M 8.050781 22.972656 L 8.933594 22.460938 L 9.429688 23.316406 L 8.546875 23.828125 Z M 8.050781 22.972656 "></path><path style=" stroke:none;fill-rule:nonzero;fill:rgb(99.607843%,85.098039%,29.411765%);fill-opacity:1;" d="M 10.53125 25.824219 L 11.042969 24.945312 L 11.90625 25.441406 L 11.394531 26.324219 Z M 10.53125 25.824219 "></path><path style=" stroke:none;fill-rule:nonzero;fill:rgb(99.607843%,85.098039%,29.411765%);fill-opacity:1;" d="M 14.105469 26.03125 L 15.09375 26.03125 L 15.09375 27.050781 L 14.105469 27.050781 Z M 14.105469 26.03125 "></path><path style=" stroke:none;fill-rule:nonzero;fill:rgb(99.607843%,85.098039%,29.411765%);fill-opacity:1;" d="M 17.300781 25.429688 L 18.160156 24.9375 L 18.667969 25.824219 L 17.808594 26.316406 Z M 17.300781 25.429688 "></path><path style=" stroke:none;fill-rule:nonzero;fill:rgb(99.607843%,85.098039%,29.411765%);fill-opacity:1;" d="M 19.777344 23.328125 L 20.269531 22.472656 L 21.152344 22.980469 L 20.660156 23.835938 Z M 19.777344 23.328125 "></path><path style=" stroke:none;fill-rule:nonzero;fill:rgb(99.607843%,85.098039%,29.411765%);fill-opacity:1;" d="M 18.464844 20.269531 L 18.464844 19.28125 L 16.105469 19.28125 C 15.898438 18.648438 15.304688 18.1875 14.605469 18.1875 C 13.726562 18.1875 13.019531 18.902344 13.019531 19.773438 C 13.019531 20.648438 13.734375 21.363281 14.605469 21.363281 C 15.304688 21.363281 15.890625 20.902344 16.097656 20.269531 Z M 14.605469 20.367188 C 14.277344 20.367188 14.007812 20.097656 14.007812 19.773438 C 14.007812 19.445312 14.277344 19.175781 14.605469 19.175781 C 14.929688 19.175781 15.199219 19.445312 15.199219 19.773438 C 15.199219 20.097656 14.929688 20.367188 14.605469 20.367188 Z M 14.605469 20.367188 "></path><path style=" stroke:none;fill-rule:nonzero;fill:rgb(99.607843%,85.098039%,29.411765%);fill-opacity:1;" d="M 14.605469 12.515625 L 14.605469 13.503906 C 18.0625 13.503906 20.871094 16.3125 20.871094 19.773438 L 21.867188 19.773438 C 21.867188 15.773438 18.613281 12.515625 14.605469 12.515625 Z M 14.605469 12.515625 "></path></g></svg> 