<?xml version="1.0" encoding="UTF-8"?> <svg xmlns="http://www.w3.org/2000/svg" xmlns:xlink="http://www.w3.org/1999/xlink" width="29pt" height="29pt" viewBox="0 0 29 29" version="1.1"><g id="surface1"><path style=" stroke:none;fill-rule:nonzero;fill:rgb(22.352941%,58.039216%,22.352941%);fill-opacity:1;" d="M 12.558594 28.882812 C 12.542969 28.882812 12.523438 28.882812 12.507812 28.882812 C 12.457031 28.882812 12.402344 28.867188 12.359375 28.851562 L 12.054688 28.726562 C 10.210938 27.980469 6.722656 26.175781 4.125 22.382812 C 2.59375 20.152344 1.597656 15.390625 1.160156 8.253906 C 1.152344 8.105469 1.078125 6.976562 1.078125 6.976562 C 1.070312 6.832031 1.121094 6.691406 1.226562 6.601562 C 1.332031 6.507812 1.472656 6.460938 1.613281 6.484375 L 2.601562 6.640625 C 3.746094 6.824219 5.523438 6.894531 7.488281 6.207031 C 7.71875 6.128906 7.949219 6.039062 8.179688 5.933594 L 8.222656 5.910156 C 8.261719 5.898438 8.304688 5.875 8.34375 5.859375 C 8.34375 5.859375 8.367188 5.851562 8.367188 5.851562 L 8.492188 5.792969 C 9.667969 5.210938 10.746094 4.378906 11.59375 3.390625 L 12.136719 2.75 C 12.226562 2.648438 12.351562 2.585938 12.484375 2.585938 C 12.507812 2.585938 12.523438 2.585938 12.535156 2.585938 C 12.550781 2.585938 12.566406 2.582031 12.589844 2.585938 C 12.722656 2.585938 12.847656 2.648438 12.9375 2.75 L 13.480469 3.390625 C 14.335938 4.386719 15.40625 5.210938 16.589844 5.800781 L 16.722656 5.859375 C 16.769531 5.882812 16.8125 5.898438 16.851562 5.917969 L 16.894531 5.941406 C 17.125 6.046875 17.355469 6.132812 17.585938 6.207031 C 19.550781 6.894531 21.324219 6.824219 22.472656 6.640625 L 23.460938 6.484375 C 23.601562 6.460938 23.742188 6.507812 23.847656 6.601562 C 23.949219 6.699219 24.003906 6.832031 23.996094 6.976562 C 23.996094 6.976562 23.914062 8.097656 23.914062 8.246094 C 23.542969 14.328125 22.761719 18.695312 21.59375 21.214844 C 21.488281 21.445312 21.207031 21.550781 20.976562 21.445312 C 20.746094 21.339844 20.640625 21.058594 20.746094 20.828125 C 21.863281 18.410156 22.613281 14.15625 22.984375 8.195312 C 22.984375 8.128906 23.007812 7.800781 23.027344 7.496094 L 22.613281 7.5625 C 21.363281 7.761719 19.421875 7.835938 17.273438 7.085938 C 17.019531 6.996094 16.773438 6.902344 16.515625 6.789062 L 16.492188 6.765625 C 16.449219 6.746094 16.394531 6.722656 16.351562 6.699219 L 16.203125 6.632812 C 14.910156 5.992188 13.726562 5.078125 12.796875 3.992188 L 12.550781 3.710938 L 12.304688 3.992188 C 11.371094 5.078125 10.195312 5.992188 8.902344 6.632812 L 8.757812 6.699219 C 8.699219 6.730469 8.65625 6.75 8.609375 6.765625 L 8.566406 6.789062 C 8.304688 6.902344 8.054688 7.003906 7.800781 7.085938 C 5.652344 7.835938 3.710938 7.753906 2.460938 7.5625 L 2.042969 7.496094 C 2.066406 7.800781 2.089844 8.128906 2.089844 8.203125 C 2.519531 15.160156 3.464844 19.757812 4.894531 21.855469 C 7.347656 25.445312 10.65625 27.15625 12.402344 27.863281 L 12.542969 27.921875 L 12.679688 27.871094 C 13.296875 27.625 14.253906 27.1875 15.324219 26.515625 C 15.542969 26.382812 15.832031 26.441406 15.964844 26.664062 C 16.097656 26.878906 16.039062 27.171875 15.816406 27.304688 C 14.6875 28.011719 13.675781 28.472656 13.027344 28.730469 L 12.730469 28.859375 C 12.679688 28.867188 12.617188 28.882812 12.558594 28.882812 Z M 12.558594 28.882812 "></path><path style=" stroke:none;fill-rule:nonzero;fill:rgb(22.352941%,58.039216%,22.352941%);fill-opacity:1;" d="M 18.859375 29 C 16.328125 29 14.269531 26.941406 14.269531 24.410156 C 14.269531 21.882812 16.328125 19.824219 18.859375 19.824219 C 21.386719 19.824219 23.445312 21.882812 23.445312 24.410156 C 23.445312 26.941406 21.386719 29 18.859375 29 Z M 18.859375 20.761719 C 16.84375 20.761719 15.199219 22.398438 15.199219 24.410156 C 15.199219 26.425781 16.84375 28.0625 18.859375 28.0625 C 20.871094 28.0625 22.515625 26.417969 22.515625 24.40625 C 22.515625 22.398438 20.871094 20.761719 18.859375 20.761719 Z M 18.859375 20.761719 "></path><path style=" stroke:none;fill-rule:nonzero;fill:rgb(22.352941%,58.039216%,22.352941%);fill-opacity:1;" d="M 18.023438 26.308594 C 17.90625 26.308594 17.785156 26.261719 17.699219 26.175781 L 16.507812 24.984375 C 16.328125 24.804688 16.328125 24.507812 16.507812 24.332031 C 16.6875 24.152344 16.984375 24.152344 17.160156 24.332031 L 18.023438 25.191406 L 20.554688 22.664062 C 20.730469 22.484375 21.027344 22.484375 21.207031 22.664062 C 21.386719 22.84375 21.386719 23.140625 21.207031 23.320312 L 18.351562 26.175781 C 18.261719 26.261719 18.144531 26.308594 18.023438 26.308594 Z M 18.023438 26.308594 "></path><path style=" stroke:none;fill-rule:nonzero;fill:rgb(22.352941%,58.039216%,22.352941%);fill-opacity:1;" d="M 9.421875 16.300781 C 9.375 16.300781 9.332031 16.292969 9.292969 16.285156 C 9.132812 16.238281 9.003906 16.105469 8.96875 15.933594 L 8.640625 14.394531 L 7.042969 13.964844 C 6.878906 13.921875 6.75 13.792969 6.707031 13.621094 C 6.671875 13.457031 6.722656 13.28125 6.847656 13.167969 L 9.132812 11.09375 C 9.214844 11.019531 9.316406 10.976562 9.429688 10.976562 L 11.941406 10.914062 C 12.089844 10.910156 12.226562 10.976562 12.3125 11.085938 C 12.402344 11.199219 12.441406 11.347656 12.402344 11.488281 L 11.816406 13.957031 C 11.792969 14.039062 11.757812 14.113281 11.695312 14.171875 L 9.75 16.160156 C 9.667969 16.253906 9.546875 16.300781 9.421875 16.300781 Z M 8.097656 13.296875 L 9.152344 13.578125 C 9.324219 13.621094 9.449219 13.757812 9.488281 13.925781 L 9.695312 14.894531 L 10.953125 13.613281 L 11.371094 11.859375 L 9.628906 11.90625 Z M 8.097656 13.296875 "></path><path style=" stroke:none;fill-rule:nonzero;fill:rgb(22.352941%,58.039216%,22.352941%);fill-opacity:1;" d="M 11.957031 11.84375 C 11.824219 11.84375 11.695312 11.785156 11.601562 11.683594 C 11.4375 11.488281 11.457031 11.191406 11.660156 11.027344 L 22.277344 2.082031 C 22.472656 1.917969 22.769531 1.941406 22.933594 2.140625 C 23.097656 2.335938 23.074219 2.632812 22.871094 2.796875 L 12.261719 11.742188 C 12.171875 11.808594 12.070312 11.84375 11.957031 11.84375 Z M 11.957031 11.84375 "></path><path style=" stroke:none;fill-rule:nonzero;fill:rgb(22.352941%,58.039216%,22.352941%);fill-opacity:1;" d="M 23.914062 4.34375 C 23.789062 4.34375 23.660156 4.289062 23.570312 4.195312 L 20.828125 1.191406 C 20.707031 1.054688 20.671875 0.871094 20.738281 0.707031 C 20.804688 0.542969 20.960938 0.429688 21.140625 0.417969 L 24.636719 0.1875 C 24.785156 0.179688 24.925781 0.238281 25.023438 0.347656 C 25.117188 0.460938 25.15625 0.609375 25.117188 0.757812 L 24.359375 3.984375 C 24.324219 4.15625 24.1875 4.28125 24.023438 4.328125 C 23.988281 4.335938 23.949219 4.34375 23.914062 4.34375 Z M 22.167969 1.277344 L 23.660156 2.914062 L 24.078125 1.152344 Z M 22.167969 1.277344 "></path><path style=" stroke:none;fill-rule:nonzero;fill:rgb(22.352941%,58.039216%,22.352941%);fill-opacity:1;" d="M 13.257812 21.257812 C 13.214844 21.257812 13.167969 21.25 13.132812 21.246094 C 12.96875 21.199219 12.839844 21.066406 12.804688 20.894531 L 12.476562 19.355469 L 10.878906 18.925781 C 10.714844 18.878906 10.589844 18.753906 10.542969 18.582031 C 10.507812 18.417969 10.558594 18.242188 10.683594 18.128906 L 12.96875 16.054688 C 13.050781 15.980469 13.152344 15.933594 13.265625 15.933594 L 15.777344 15.875 C 15.921875 15.867188 16.0625 15.933594 16.152344 16.046875 C 16.238281 16.160156 16.277344 16.308594 16.238281 16.449219 L 15.652344 18.917969 C 15.628906 19 15.59375 19.074219 15.535156 19.132812 L 13.585938 21.117188 C 13.503906 21.207031 13.378906 21.257812 13.257812 21.257812 Z M 11.933594 18.246094 L 12.992188 18.53125 C 13.160156 18.574219 13.289062 18.707031 13.324219 18.878906 L 13.535156 19.847656 L 14.789062 18.566406 L 15.207031 16.8125 L 13.464844 16.855469 Z M 11.933594 18.246094 "></path><path style=" stroke:none;fill-rule:nonzero;fill:rgb(22.352941%,58.039216%,22.352941%);fill-opacity:1;" d="M 15.792969 16.804688 C 15.660156 16.804688 15.527344 16.746094 15.4375 16.640625 C 15.273438 16.449219 15.296875 16.152344 15.496094 15.988281 L 26.113281 7.042969 C 26.308594 6.878906 26.605469 6.902344 26.769531 7.101562 C 26.933594 7.292969 26.910156 7.59375 26.710938 7.753906 L 16.089844 16.695312 C 16.003906 16.769531 15.898438 16.804688 15.792969 16.804688 Z M 15.792969 16.804688 "></path><path style=" stroke:none;fill-rule:nonzero;fill:rgb(22.352941%,58.039216%,22.352941%);fill-opacity:1;" d="M 27.742188 9.292969 C 27.617188 9.292969 27.492188 9.242188 27.402344 9.144531 L 24.664062 6.148438 C 24.546875 6.015625 24.507812 5.828125 24.574219 5.667969 C 24.640625 5.503906 24.796875 5.390625 24.976562 5.375 L 28.472656 5.144531 C 28.621094 5.136719 28.761719 5.199219 28.859375 5.308594 C 28.957031 5.421875 28.992188 5.570312 28.957031 5.71875 L 28.195312 8.945312 C 28.160156 9.117188 28.027344 9.242188 27.863281 9.289062 C 27.824219 9.292969 27.789062 9.292969 27.742188 9.292969 Z M 26.003906 6.230469 L 27.496094 7.867188 L 27.914062 6.105469 Z M 26.003906 6.230469 "></path></g></svg> 