<?xml version="1.0" encoding="UTF-8"?> <svg xmlns="http://www.w3.org/2000/svg" xmlns:xlink="http://www.w3.org/1999/xlink" width="29pt" height="29pt" viewBox="0 0 29 29" version="1.1"><g id="surface1"><path style=" stroke:none;fill-rule:nonzero;fill:rgb(100%,25.098039%,50.588235%);fill-opacity:1;" d="M 8.730469 2.648438 C 9.027344 2.535156 9.371094 2.683594 9.480469 2.980469 C 9.59375 3.277344 9.445312 3.621094 9.144531 3.734375 C 8.765625 3.875 8.402344 4.039062 8.039062 4.222656 C 3.925781 6.285156 1.277344 10.492188 1.277344 15.167969 C 1.277344 15.765625 1.324219 16.351562 1.40625 16.929688 C 1.449219 17.25 1.226562 17.546875 0.914062 17.59375 C 0.59375 17.644531 0.296875 17.421875 0.253906 17.101562 C 0.164062 16.46875 0.113281 15.824219 0.113281 15.175781 C 0.113281 10.054688 3.011719 5.441406 7.511719 3.183594 C 7.910156 2.980469 8.3125 2.804688 8.730469 2.648438 Z M 5.265625 25.734375 C 5.011719 25.535156 4.96875 25.171875 5.167969 24.917969 C 5.367188 24.664062 5.734375 24.621094 5.984375 24.820312 C 8.121094 26.492188 10.753906 27.417969 13.527344 27.417969 C 16.335938 27.417969 19 26.472656 21.148438 24.753906 C 21.402344 24.554688 21.765625 24.597656 21.964844 24.84375 C 22.167969 25.089844 22.121094 25.460938 21.875 25.660156 C 19.519531 27.535156 16.605469 28.574219 13.527344 28.574219 C 10.492188 28.582031 7.605469 27.574219 5.265625 25.734375 Z M 8.5 24.574219 C 8.558594 24.894531 8.351562 25.199219 8.039062 25.257812 L 6.039062 25.640625 L 6.214844 27.789062 C 6.246094 28.109375 6.007812 28.390625 5.679688 28.421875 C 5.359375 28.449219 5.078125 28.210938 5.050781 27.882812 L 4.824219 25.207031 C 4.804688 24.910156 5.003906 24.640625 5.300781 24.582031 L 7.824219 24.105469 C 8.136719 24.054688 8.441406 24.261719 8.5 24.574219 Z M 18.089844 2.558594 C 23.355469 4.460938 26.941406 9.480469 26.941406 15.167969 C 26.941406 15.503906 26.925781 15.839844 26.902344 16.171875 L 27.996094 15.355469 C 28.257812 15.160156 28.621094 15.214844 28.8125 15.472656 C 29 15.726562 28.949219 16.089844 28.695312 16.285156 L 26.546875 17.890625 C 26.308594 18.070312 25.972656 18.039062 25.765625 17.816406 L 24.023438 15.941406 C 23.808594 15.703125 23.824219 15.332031 24.0625 15.117188 C 24.300781 14.902344 24.664062 14.917969 24.886719 15.148438 L 25.734375 16.070312 C 25.757812 15.773438 25.765625 15.472656 25.765625 15.167969 C 25.765625 9.972656 22.492188 5.390625 17.691406 3.652344 C 17.386719 3.539062 17.230469 3.203125 17.339844 2.90625 C 17.453125 2.609375 17.785156 2.453125 18.089844 2.558594 Z M 6.113281 1.859375 C 6.238281 1.5625 6.582031 1.421875 6.878906 1.546875 L 9.242188 2.535156 C 9.519531 2.65625 9.660156 2.960938 9.578125 3.242188 L 8.804688 5.808594 C 8.707031 6.113281 8.386719 6.289062 8.074219 6.195312 C 7.769531 6.097656 7.59375 5.777344 7.6875 5.464844 L 8.3125 3.398438 L 6.433594 2.609375 C 6.128906 2.5 5.984375 2.15625 6.113281 1.859375 Z M 6.113281 1.859375 "></path><path style=" stroke:none;fill-rule:nonzero;fill:rgb(100%,25.098039%,50.588235%);fill-opacity:1;" d="M 13.527344 5.457031 C 14.925781 5.457031 16.054688 4.328125 16.054688 2.929688 C 16.054688 1.53125 14.925781 0.402344 13.527344 0.402344 C 12.128906 0.402344 10.996094 1.53125 10.996094 2.929688 C 10.996094 4.328125 12.128906 5.457031 13.527344 5.457031 Z M 24.597656 18.863281 C 25.996094 18.863281 27.125 19.996094 27.125 21.394531 C 27.125 22.792969 25.996094 23.921875 24.597656 23.921875 C 23.199219 23.921875 22.070312 22.792969 22.070312 21.394531 C 22.070312 19.996094 23.207031 18.863281 24.597656 18.863281 Z M 2.832031 18.863281 C 4.230469 18.863281 5.359375 19.996094 5.359375 21.394531 C 5.359375 22.792969 4.230469 23.921875 2.832031 23.921875 C 1.433594 23.921875 0.304688 22.792969 0.304688 21.394531 C 0.304688 19.996094 1.441406 18.863281 2.832031 18.863281 Z M 24.597656 20.03125 C 23.847656 20.03125 23.238281 20.640625 23.238281 21.394531 C 23.238281 22.144531 23.847656 22.753906 24.597656 22.753906 C 25.347656 22.753906 25.957031 22.144531 25.957031 21.394531 C 25.957031 20.640625 25.355469 20.03125 24.597656 20.03125 Z M 2.832031 20.03125 C 2.082031 20.03125 1.472656 20.640625 1.472656 21.394531 C 1.472656 22.144531 2.082031 22.753906 2.832031 22.753906 C 3.585938 22.753906 4.195312 22.144531 4.195312 21.394531 C 4.195312 20.640625 3.585938 20.03125 2.832031 20.03125 Z M 13.527344 1.570312 C 14.277344 1.570312 14.886719 2.179688 14.886719 2.929688 C 14.886719 3.679688 14.277344 4.289062 13.527344 4.289062 C 12.773438 4.289062 12.164062 3.679688 12.164062 2.929688 C 12.164062 2.179688 12.773438 1.570312 13.527344 1.570312 Z M 13.527344 1.570312 "></path><path style=" stroke:none;fill-rule:nonzero;fill:rgb(100%,25.098039%,50.588235%);fill-opacity:1;" d="M 8.691406 18.253906 L 7.441406 18.152344 C 7.21875 18.128906 7.027344 17.988281 6.945312 17.777344 C 6.722656 17.199219 6.582031 16.589844 6.527344 15.972656 C 6.507812 15.75 6.617188 15.535156 6.8125 15.414062 L 7.882812 14.789062 C 7.925781 14.308594 8.039062 13.839844 8.210938 13.382812 L 7.523438 12.367188 C 7.398438 12.179688 7.390625 11.933594 7.511719 11.734375 C 7.835938 11.199219 8.230469 10.714844 8.691406 10.285156 C 8.855469 10.128906 9.09375 10.082031 9.300781 10.164062 L 10.476562 10.609375 C 10.871094 10.367188 11.289062 10.164062 11.734375 10.015625 L 12.113281 8.839844 C 12.179688 8.625 12.367188 8.46875 12.589844 8.441406 C 12.902344 8.394531 13.214844 8.378906 13.535156 8.378906 C 13.851562 8.378906 14.164062 8.402344 14.476562 8.441406 C 14.699219 8.46875 14.886719 8.625 14.953125 8.839844 L 15.332031 10.015625 C 15.773438 10.164062 16.195312 10.367188 16.589844 10.609375 L 17.765625 10.164062 C 17.972656 10.082031 18.210938 10.136719 18.375 10.285156 C 18.8125 10.707031 19.207031 11.199219 19.535156 11.726562 C 19.652344 11.917969 19.644531 12.164062 19.519531 12.359375 L 18.835938 13.378906 C 19.007812 13.832031 19.109375 14.300781 19.164062 14.78125 L 20.234375 15.40625 C 20.425781 15.519531 20.539062 15.742188 20.515625 15.964844 C 20.457031 16.589844 20.316406 17.199219 20.097656 17.773438 C 20.015625 17.980469 19.824219 18.128906 19.601562 18.144531 L 18.351562 18.246094 C 18.097656 18.648438 17.800781 19.019531 17.460938 19.347656 L 17.628906 20.566406 C 17.660156 20.789062 17.5625 21.015625 17.371094 21.140625 C 16.84375 21.480469 16.269531 21.757812 15.667969 21.941406 C 15.453125 22.011719 15.222656 21.949219 15.066406 21.789062 L 14.203125 20.878906 C 13.980469 20.910156 13.75 20.917969 13.519531 20.917969 C 13.289062 20.917969 13.058594 20.902344 12.835938 20.878906 L 11.972656 21.789062 C 11.816406 21.949219 11.585938 22.011719 11.371094 21.941406 C 10.765625 21.75 10.195312 21.480469 9.667969 21.140625 C 9.472656 21.015625 9.375 20.789062 9.40625 20.566406 L 9.578125 19.347656 C 9.242188 19.027344 8.945312 18.65625 8.691406 18.253906 Z M 9.09375 17.117188 C 9.289062 17.132812 9.464844 17.242188 9.554688 17.421875 C 9.816406 17.90625 10.164062 18.328125 10.582031 18.6875 C 10.730469 18.8125 10.8125 19.011719 10.78125 19.214844 L 10.617188 20.359375 C 10.863281 20.5 11.125 20.621094 11.382812 20.722656 L 12.195312 19.867188 C 12.328125 19.726562 12.53125 19.660156 12.722656 19.699219 C 12.984375 19.742188 13.25 19.765625 13.527344 19.765625 C 13.800781 19.765625 14.0625 19.742188 14.328125 19.699219 C 14.523438 19.660156 14.714844 19.726562 14.855469 19.867188 L 15.667969 20.722656 C 15.933594 20.621094 16.1875 20.5 16.433594 20.359375 L 16.269531 19.214844 C 16.234375 19.011719 16.3125 18.8125 16.464844 18.6875 C 16.878906 18.328125 17.230469 17.898438 17.488281 17.421875 C 17.585938 17.25 17.757812 17.140625 17.949219 17.117188 L 19.117188 17.019531 C 19.199219 16.761719 19.257812 16.492188 19.304688 16.226562 L 18.300781 15.636719 C 18.128906 15.535156 18.015625 15.355469 18.007812 15.15625 C 17.988281 14.597656 17.859375 14.054688 17.636719 13.546875 C 17.570312 13.363281 17.585938 13.152344 17.699219 12.984375 L 18.335938 12.023438 C 18.179688 11.792969 18.003906 11.578125 17.808594 11.375 L 16.707031 11.792969 C 16.523438 11.859375 16.320312 11.839844 16.164062 11.71875 C 15.726562 11.40625 15.234375 11.167969 14.714844 11.035156 C 14.523438 10.984375 14.375 10.839844 14.3125 10.648438 L 13.957031 9.539062 C 13.816406 9.53125 13.675781 9.523438 13.527344 9.523438 C 13.378906 9.523438 13.234375 9.53125 13.09375 9.539062 L 12.738281 10.648438 C 12.679688 10.835938 12.523438 10.984375 12.335938 11.035156 C 11.816406 11.175781 11.316406 11.40625 10.886719 11.71875 C 10.730469 11.832031 10.523438 11.859375 10.34375 11.792969 L 9.242188 11.375 C 9.050781 11.578125 8.878906 11.792969 8.714844 12.023438 L 9.355469 12.984375 C 9.464844 13.148438 9.480469 13.363281 9.40625 13.539062 C 9.183594 14.046875 9.058594 14.589844 9.035156 15.148438 C 9.027344 15.347656 8.914062 15.527344 8.746094 15.628906 L 7.742188 16.21875 C 7.785156 16.484375 7.84375 16.753906 7.925781 17.011719 Z M 13.621094 18.863281 C 11.742188 18.863281 10.222656 17.296875 10.222656 15.371094 C 10.222656 13.445312 11.742188 11.875 13.621094 11.875 C 15.503906 11.875 17.019531 13.445312 17.019531 15.371094 C 17.019531 17.296875 15.503906 18.863281 13.621094 18.863281 Z M 13.621094 17.699219 C 14.847656 17.699219 15.859375 16.65625 15.859375 15.363281 C 15.859375 14.070312 14.855469 13.027344 13.621094 13.027344 C 12.394531 13.027344 11.382812 14.070312 11.382812 15.363281 C 11.382812 16.65625 12.386719 17.699219 13.621094 17.699219 Z M 13.621094 17.699219 "></path></g></svg> 