<?xml version="1.0" encoding="UTF-8"?> <!-- Generator: Adobe Illustrator 25.1.0, SVG Export Plug-In . SVG Version: 6.00 Build 0) --> <svg xmlns="http://www.w3.org/2000/svg" xmlns:xlink="http://www.w3.org/1999/xlink" version="1.1" id="Layer_1" x="0px" y="0px" viewBox="0 0 30 30" style="enable-background:new 0 0 30 30;" xml:space="preserve"> <style type="text/css"> .st0{fill:#75A928;} .st1{fill:#BC1142;} </style> <g> <path d="M8.8,0C8.7,0,8.5,0.1,8.3,0.2C7.9,0,7.4,0,7,0.3c-0.6-0.1-0.8,0.1-1,0.3c-0.1,0-1-0.1-1.4,0.5c-1-0.1-1.3,0.6-1,1.2 C3.5,2.6,3.3,2.9,3.8,3.5C3.6,3.9,3.7,4.2,4.1,4.7C4,5.1,4.2,5.5,4.6,5.7c-0.1,0.6,0.6,1,0.8,1.2c0.1,0.4,0.2,0.7,1,0.9 c0.1,0.6,0.6,0.7,1,0.8c-1.4,0.8-2.7,2-2.7,4.7l-0.2,0.4c-1.7,1-3.2,4.3-0.8,6.9c0.2,0.8,0.4,1.4,0.6,2.1c0.3,2.6,2.6,3.9,3.2,4 c0.9,0.7,1.8,1.3,3,1.7c1.2,1.2,2.4,1.7,3.7,1.7c0,0,2.6-0.5,3.8-1.7c1.2-0.4,2.2-1.1,3-1.7c0.6-0.1,2.8-1.4,3.2-4 c0.2-0.7,0.5-1.3,0.6-2.1c2.3-2.6,0.8-5.9-0.8-6.9l-0.2-0.4c0-2.7-1.2-3.8-2.7-4.7c0.4-0.1,0.9-0.2,1-0.8c0.8-0.2,0.9-0.5,1-0.9 c0.2-0.1,0.9-0.5,0.8-1.2c0.4-0.3,0.6-0.6,0.5-1.1c0.4-0.4,0.5-0.8,0.3-1.1c0.5-0.6,0.3-0.9,0.1-1.2c0.4-0.7,0-1.4-1-1.2 c-0.4-0.6-1.3-0.5-1.4-0.5c-0.1-0.2-0.3-0.4-1-0.3C21,0,20.5,0,20.1,0.2c-0.5-0.4-0.9-0.1-1.3,0C18.1,0,18,0.3,17.7,0.4 c-0.7-0.2-0.9,0.2-1.3,0.5L16,1c-1.1,0.6-1.6,1.9-1.8,2.6c-0.2-0.7-0.7-2-1.8-2.6L12,1c-0.3-0.3-0.6-0.7-1.3-0.5 C10.4,0.3,10.3,0,9.6,0.3C9.3,0.2,9.1,0,8.8,0"></path> <path class="st0" d="M6.7,2.8c2.8,1.5,4.5,2.7,5.4,3.7c-0.5,1.9-2.9,1.9-3.8,1.9C8.5,8.3,8.6,8.2,8.7,8c-0.2-0.2-1,0-1.6-0.3 c0.2,0,0.3-0.1,0.4-0.2C7,7.3,6.5,7.1,6.1,6.9c0.2,0,0.3,0,0.6-0.1c-0.5-0.3-1-0.4-1.3-0.8c0.2,0,0.5,0,0.6-0.1 C5.5,5.5,5.2,5.2,4.9,4.9c0.3,0,0.5,0,0.6-0.1c-0.3-0.3-0.7-0.6-0.9-1C4.7,3.9,5,4,5.1,3.9C5,3.6,4.6,3.5,4.3,2.9 c0.3,0,0.5,0.1,0.6,0C4.8,2.4,4.6,2.1,4.3,1.8c0.6,0,1.4,0,1.4,0L5.4,1.4c0.6-0.1,1.1,0,1.5,0.2c0.2-0.1,0-0.3-0.2-0.5 c0.5,0.1,0.9,0.2,1.3,0.3C8.2,1.2,7.8,1,7.7,0.8C8.4,1,8.7,1.1,9,1.3c0.2-0.2,0-0.4-0.1-0.6C9.4,1,9.7,1.2,10,1.5 c0.1-0.1,0.3-0.2,0.1-0.6c0.4,0.2,0.7,0.5,0.9,0.8c0.2-0.2,0.1-0.4,0.1-0.6c0.4,0.3,0.7,0.7,1,1c0.1,0,0.1-0.2,0.2-0.4 c1,0.9,2.3,3.3,0.3,4.2C10.9,4.5,8.9,3.5,6.7,2.8L6.7,2.8 M21.8,2.8c-2.8,1.5-4.5,2.7-5.4,3.7c0.5,1.9,2.9,1.9,3.8,1.9 C20,8.3,19.8,8.2,19.8,8c0.2-0.2,1,0,1.6-0.3c-0.2,0-0.3-0.1-0.4-0.2c0.5-0.2,1.1-0.3,1.4-0.6c-0.2,0-0.3,0-0.6-0.1 c0.5-0.3,1-0.4,1.3-0.8c-0.2,0-0.5,0-0.6-0.1c0.4-0.3,0.8-0.6,1.1-0.9c-0.3,0-0.5,0-0.6-0.1c0.3-0.3,0.7-0.6,0.9-1 c-0.3,0.1-0.5,0.1-0.6,0c0.1-0.2,0.6-0.4,0.8-1c-0.3,0-0.5,0.1-0.6,0c0.1-0.5,0.3-0.8,0.5-1.1c-0.6,0-1.4,0-1.4,0l0.3-0.4 c-0.6-0.1-1.1,0-1.5,0.2c-0.2-0.1,0-0.3,0.2-0.5c-0.5,0.1-0.9,0.2-1.3,0.3c-0.2-0.2,0.1-0.4,0.3-0.6c-0.7,0.1-1,0.3-1.3,0.5 c-0.2-0.2,0-0.4,0.1-0.6c-0.5,0.2-0.8,0.5-1.1,0.7c-0.1-0.1-0.3-0.2-0.1-0.6c-0.4,0.2-0.7,0.5-0.9,0.8c-0.2-0.2-0.1-0.4-0.1-0.6 c-0.4,0.3-0.7,0.7-1,1c-0.1,0-0.1-0.2-0.2-0.4c-1,0.9-2.3,3.3-0.3,4.2C17.6,4.5,19.6,3.5,21.8,2.8L21.8,2.8"></path> <path class="st1" d="M17.7,21.7c0,1.7-1.5,3.2-3.4,3.2c-1.9,0-3.4-1.4-3.4-3.1c0,0,0,0,0,0c0-1.7,1.5-3.2,3.4-3.2 C16.1,18.6,17.7,20,17.7,21.7L17.7,21.7 M12.3,12.8c1.4,0.9,1.7,3,0.6,4.7c-1.1,1.7-3.1,2.3-4.5,1.3c-1.4-0.9-1.7-3-0.6-4.7 C8.8,12.4,10.9,11.8,12.3,12.8 M16.1,12.6c-1.4,0.9-1.7,3-0.6,4.7c1.1,1.7,3.1,2.3,4.5,1.3c1.4-0.9,1.7-3,0.6-4.7 C19.6,12.3,17.5,11.7,16.1,12.6 M5.2,14.3c1.5-0.4,0.5,6.3-0.7,5.8C3.1,18.9,2.7,15.7,5.2,14.3 M22.9,14.2 c-1.5-0.4-0.5,6.3,0.7,5.8C25,18.8,25.4,15.6,22.9,14.2 M17.7,9.2c2.6-0.4,4.8,1.1,4.7,4C22.3,14.3,16.7,9.3,17.7,9.2 M10.4,9.1 c-2.6-0.4-4.8,1.1-4.7,4C5.8,14.2,11.4,9.3,10.4,9.1 M14.2,8.4c-1.6,0-3.1,1.2-3.1,1.9c0,0.9,1.2,1.7,3.1,1.7 c1.9,0,3.1-0.7,3.1-1.6C17.3,9.5,15.6,8.4,14.2,8.4L14.2,8.4 M14.3,25.9c1.4-0.1,3.2,0.4,3.2,1.1c0,0.6-1.7,2.1-3.3,2.1 c-1.7,0.1-3.4-1.4-3.3-1.9C10.8,26.4,12.9,25.8,14.3,25.9 M9.2,21.9c1,1.2,1.4,3.2,0.6,3.8c-0.8,0.5-2.6,0.3-4-1.6 c-0.9-1.6-0.8-3.2-0.2-3.7C6.6,19.9,8.1,20.6,9.2,21.9L9.2,21.9 M19.1,21.6c-1.1,1.2-1.6,3.5-0.9,4.2c0.7,0.6,2.7,0.5,4.2-1.5 c1.1-1.4,0.7-3.6,0.1-4.2C21.6,19.3,20.4,20.2,19.1,21.6L19.1,21.6"></path> </g> </svg> 