<?xml version="1.0" encoding="UTF-8"?> <svg xmlns="http://www.w3.org/2000/svg" xmlns:xlink="http://www.w3.org/1999/xlink" width="36pt" height="30pt" viewBox="0 0 36 30" version="1.1"><g id="surface1"><path style=" stroke:none;fill-rule:nonzero;fill:rgb(95.294118%,48.235294%,12.54902%);fill-opacity:1;" d="M 29.445312 25.230469 C 29.765625 25.230469 30 24.863281 29.863281 24.53125 C 29.265625 23.324219 28.011719 22.582031 26.671875 22.582031 C 25.140625 22.582031 23.984375 23.371094 23.421875 24.621094 L 11.371094 24.621094 C 10.769531 23.414062 9.515625 22.582031 8.175781 22.582031 C 6.832031 22.582031 5.625 23.324219 4.980469 24.53125 C 4.835938 24.855469 5.023438 25.230469 5.398438 25.230469 L 7.628906 25.230469 L 8.226562 26.203125 L 7.628906 27.179688 L 5.453125 27.179688 C 5.128906 27.179688 4.898438 27.546875 5.03125 27.878906 C 5.632812 29.085938 6.886719 29.828125 8.226562 29.828125 C 9.667969 29.828125 10.867188 29.039062 11.476562 27.832031 L 23.484375 27.832031 C 23.992188 28.988281 25.058594 29.871094 26.730469 29.871094 C 28.074219 29.871094 29.28125 29.128906 29.925781 27.921875 C 30.066406 27.601562 29.878906 27.226562 29.503906 27.226562 L 27.277344 27.226562 L 26.675781 26.25 L 27.277344 25.273438 L 29.453125 25.273438 L 29.453125 25.230469 Z M 8.210938 28.898438 C 7.515625 28.898438 6.824219 28.621094 6.359375 28.15625 L 7.890625 28.15625 C 8.03125 28.15625 8.210938 28.066406 8.257812 27.921875 L 9.1875 26.484375 C 9.277344 26.339844 9.277344 26.160156 9.1875 25.972656 L 8.257812 24.53125 C 8.167969 24.390625 8.023438 24.300781 7.890625 24.300781 L 6.359375 24.300781 C 6.871094 23.835938 7.515625 23.558594 8.210938 23.558594 C 11.738281 23.566406 11.648438 28.898438 8.210938 28.898438 Z M 11.738281 26.859375 C 11.828125 26.4375 11.828125 25.980469 11.738281 25.558594 L 23.136719 25.558594 C 23.046875 25.980469 23.046875 26.390625 23.136719 26.8125 Z M 26.617188 24.539062 L 25.6875 25.980469 C 25.597656 26.121094 25.597656 26.300781 25.6875 26.488281 L 26.617188 27.929688 C 26.707031 28.074219 26.851562 28.164062 26.984375 28.164062 L 28.558594 28.164062 C 28.09375 28.628906 27.40625 28.90625 26.707031 28.90625 C 23.136719 28.90625 23.234375 23.574219 26.707031 23.574219 C 27.40625 23.574219 28.09375 23.851562 28.558594 24.316406 L 26.984375 24.316406 C 26.851562 24.308594 26.707031 24.398438 26.617188 24.539062 Z M 26.617188 24.539062 "></path><path style=" stroke:none;fill-rule:nonzero;fill:rgb(95.294118%,48.235294%,12.54902%);fill-opacity:1;" d="M 28.65625 8.363281 C 28.238281 5.8125 25.875 4.09375 23.746094 4.191406 C 21.660156 -1.230469 13.867188 -1.140625 11.925781 4.328125 C 9.007812 3.726562 6.316406 5.671875 5.902344 8.453125 C 4.050781 9.105469 2.84375 10.816406 2.84375 12.808594 C 2.84375 15.359375 4.925781 17.398438 7.433594 17.398438 L 8.730469 17.398438 C 9.007812 17.398438 9.195312 17.210938 9.195312 16.933594 C 9.195312 16.65625 9.007812 16.46875 8.730469 16.46875 L 7.425781 16.46875 C 5.386719 16.46875 3.765625 14.804688 3.765625 12.808594 C 3.765625 11.144531 4.828125 9.703125 6.449219 9.238281 C 6.636719 9.195312 6.773438 9.007812 6.773438 8.820312 C 6.960938 6.359375 9.414062 4.507812 12.058594 5.296875 C 12.292969 5.386719 12.570312 5.203125 12.613281 4.972656 C 14.054688 -0.128906 21.285156 -0.261719 22.949219 4.785156 C 22.996094 5.015625 23.226562 5.109375 23.460938 5.109375 C 25.265625 4.828125 27.539062 6.40625 27.773438 8.765625 C 27.773438 8.953125 27.960938 9.136719 28.140625 9.1875 C 29.859375 9.511719 31.109375 11.039062 31.109375 12.800781 C 31.109375 14.84375 29.445312 16.460938 27.449219 16.460938 L 26.199219 16.460938 C 25.921875 16.460938 25.734375 16.648438 25.734375 16.925781 C 25.734375 17.203125 25.921875 17.390625 26.199219 17.390625 L 27.449219 17.390625 C 30 17.390625 32.039062 15.351562 32.039062 12.800781 C 32.085938 10.726562 30.652344 8.917969 28.65625 8.363281 Z M 28.65625 8.363281 "></path><path style=" stroke:none;fill-rule:nonzero;fill:rgb(95.294118%,48.235294%,12.54902%);fill-opacity:1;" d="M 13.824219 5.8125 C 14.054688 5.902344 14.332031 5.722656 14.378906 5.488281 C 15.308594 2.152344 20.121094 2.015625 21.1875 5.398438 C 21.277344 5.632812 21.511719 5.765625 21.789062 5.675781 C 22.019531 5.585938 22.15625 5.355469 22.066406 5.078125 C 20.675781 0.808594 14.648438 0.996094 13.449219 5.21875 C 13.453125 5.488281 13.589844 5.722656 13.824219 5.8125 Z M 13.824219 5.8125 "></path><path style=" stroke:none;fill-rule:nonzero;fill:rgb(95.294118%,48.235294%,12.54902%);fill-opacity:1;" d="M 10.074219 13.875 C 9.796875 13.875 9.609375 14.0625 9.609375 14.339844 L 9.609375 17.078125 C 9.609375 17.355469 9.796875 17.542969 10.074219 17.542969 L 11.371094 17.542969 C 11.511719 17.960938 11.648438 18.328125 11.835938 18.699219 L 10.90625 19.628906 C 10.71875 19.816406 10.71875 20.09375 10.90625 20.28125 L 12.855469 22.230469 C 12.945312 22.320312 13.042969 22.371094 13.175781 22.371094 C 13.320312 22.371094 13.410156 22.328125 13.5 22.230469 L 14.429688 21.351562 C 14.796875 21.539062 15.21875 21.71875 15.585938 21.816406 L 15.585938 23.113281 C 15.585938 23.390625 15.773438 23.578125 16.050781 23.578125 L 18.832031 23.578125 C 19.109375 23.578125 19.296875 23.390625 19.296875 23.113281 L 19.296875 21.816406 C 19.71875 21.675781 20.085938 21.539062 20.453125 21.351562 L 21.328125 22.230469 C 21.421875 22.320312 21.515625 22.371094 21.652344 22.371094 C 21.789062 22.371094 21.886719 22.328125 21.976562 22.230469 L 23.925781 20.28125 C 24.015625 20.191406 24.066406 20.09375 24.066406 19.957031 C 24.066406 19.824219 24.023438 19.726562 23.925781 19.636719 L 23.046875 18.757812 C 23.234375 18.390625 23.414062 17.96875 23.511719 17.601562 L 24.808594 17.601562 C 25.085938 17.601562 25.273438 17.414062 25.273438 17.136719 L 25.273438 14.398438 C 25.273438 14.121094 25.085938 13.933594 24.808594 13.933594 L 23.511719 13.933594 C 23.371094 13.515625 23.234375 13.148438 23.046875 12.78125 L 23.925781 11.851562 C 24.015625 11.761719 24.066406 11.664062 24.066406 11.527344 C 24.066406 11.390625 24.023438 11.296875 23.925781 11.203125 L 21.976562 9.253906 C 21.789062 9.066406 21.511719 9.066406 21.324219 9.253906 L 20.445312 10.132812 C 20.078125 9.945312 19.65625 9.765625 19.289062 9.667969 L 19.289062 8.414062 C 19.289062 8.136719 19.101562 7.949219 18.824219 7.949219 L 16.050781 7.949219 C 15.773438 7.949219 15.585938 8.136719 15.585938 8.414062 L 15.585938 9.710938 C 15.164062 9.855469 14.796875 9.988281 14.429688 10.175781 L 13.5 9.292969 C 13.3125 9.105469 13.035156 9.105469 12.847656 9.292969 L 10.898438 11.242188 C 10.710938 11.429688 10.710938 11.707031 10.898438 11.894531 L 11.773438 12.824219 C 11.585938 13.191406 11.40625 13.613281 11.308594 13.980469 L 10.058594 13.980469 L 10.058594 13.875 Z M 12.15625 14.4375 C 12.300781 13.882812 12.480469 13.371094 12.808594 12.863281 C 12.898438 12.675781 12.898438 12.441406 12.765625 12.308594 L 11.933594 11.476562 L 13.230469 10.175781 L 14.0625 11.011719 C 14.203125 11.152344 14.429688 11.199219 14.617188 11.054688 C 15.128906 10.734375 15.683594 10.546875 16.191406 10.402344 C 16.425781 10.359375 16.558594 10.171875 16.558594 9.9375 L 16.558594 8.78125 L 18.367188 8.78125 L 18.367188 9.9375 C 18.367188 10.171875 18.511719 10.359375 18.734375 10.402344 C 19.289062 10.546875 19.800781 10.726562 20.308594 11.054688 C 20.496094 11.144531 20.730469 11.144531 20.863281 11.011719 L 21.699219 10.175781 L 22.996094 11.476562 L 22.164062 12.308594 C 22.019531 12.449219 21.976562 12.675781 22.117188 12.863281 C 22.394531 13.371094 22.628906 13.882812 22.769531 14.4375 C 22.816406 14.671875 23.003906 14.804688 23.234375 14.804688 L 24.390625 14.804688 L 24.390625 16.613281 L 23.234375 16.613281 C 23.003906 16.613281 22.816406 16.753906 22.769531 16.980469 C 22.628906 17.535156 22.402344 18.046875 22.117188 18.554688 C 22.027344 18.742188 22.027344 18.976562 22.164062 19.109375 L 22.996094 19.941406 L 21.699219 21.238281 L 20.863281 20.40625 C 20.722656 20.265625 20.496094 20.21875 20.308594 20.363281 C 19.84375 20.640625 19.289062 20.871094 18.734375 21.015625 C 18.503906 21.058594 18.367188 21.246094 18.367188 21.480469 L 18.367188 22.636719 L 16.515625 22.636719 L 16.515625 21.480469 C 16.515625 21.246094 16.371094 21.058594 16.148438 21.015625 C 15.59375 20.871094 15.082031 20.691406 14.574219 20.363281 C 14.386719 20.273438 14.152344 20.273438 14.015625 20.40625 L 13.183594 21.238281 L 11.886719 19.941406 L 12.71875 19.109375 C 12.863281 18.96875 12.90625 18.742188 12.765625 18.554688 C 12.441406 18.046875 12.253906 17.535156 12.113281 16.980469 C 12.066406 16.746094 11.878906 16.613281 11.648438 16.613281 L 10.492188 16.613281 L 10.492188 14.804688 L 11.648438 14.804688 C 11.925781 14.804688 12.113281 14.664062 12.15625 14.4375 Z M 12.15625 14.4375 "></path><path style=" stroke:none;fill-rule:nonzero;fill:rgb(95.294118%,48.235294%,12.54902%);fill-opacity:1;" d="M 17.4375 19.441406 C 19.476562 19.441406 21.140625 17.773438 21.140625 15.734375 C 21.140625 13.695312 19.476562 12.03125 17.4375 12.03125 C 15.398438 12.03125 13.734375 13.695312 13.734375 15.734375 C 13.734375 17.773438 15.398438 19.441406 17.4375 19.441406 Z M 17.4375 12.90625 C 18.96875 12.90625 20.21875 14.160156 20.21875 15.691406 C 20.21875 17.21875 18.96875 18.472656 17.4375 18.472656 C 15.90625 18.472656 14.65625 17.21875 14.65625 15.691406 C 14.65625 14.160156 15.90625 12.90625 17.4375 12.90625 Z M 17.4375 12.90625 "></path></g></svg> 