<?xml version="1.0" encoding="UTF-8"?> <svg xmlns="http://www.w3.org/2000/svg" xmlns:xlink="http://www.w3.org/1999/xlink" width="36pt" height="30pt" viewBox="0 0 36 30" version="1.1"><g id="surface1"><path style=" stroke:none;fill-rule:nonzero;fill:rgb(60.784314%,36.078431%,56.078431%);fill-opacity:1;" d="M 17.265625 25.175781 L 13.394531 25.175781 C 12.863281 25.175781 12.425781 25.613281 12.425781 26.144531 L 12.425781 27.113281 C 12.425781 27.644531 12.863281 28.078125 13.394531 28.078125 L 17.265625 28.078125 C 17.796875 28.078125 18.234375 27.644531 18.234375 27.113281 L 18.234375 26.144531 C 18.234375 25.613281 17.796875 25.175781 17.265625 25.175781 Z M 13.394531 27.113281 L 13.394531 26.144531 L 17.265625 26.144531 L 17.265625 27.113281 Z M 13.394531 27.113281 "></path><path style=" stroke:none;fill-rule:nonzero;fill:rgb(60.784314%,36.078431%,56.078431%);fill-opacity:1;" d="M 18.71875 11.617188 L 17.753906 11.617188 L 17.753906 8.714844 L 16.785156 8.714844 L 16.785156 11.617188 C 16.785156 12.148438 17.21875 12.585938 17.753906 12.585938 L 17.753906 15.976562 C 17.21875 15.976562 16.785156 16.410156 16.785156 16.941406 L 16.785156 18.878906 C 16.785156 19.410156 17.21875 19.84375 17.753906 19.84375 L 18.71875 19.84375 C 19.253906 19.84375 19.6875 19.410156 19.6875 18.878906 L 19.6875 16.949219 C 19.6875 16.417969 19.253906 15.984375 18.71875 15.984375 L 18.71875 12.59375 C 19.253906 12.59375 19.6875 12.15625 19.6875 11.625 L 19.6875 8.722656 L 18.71875 8.722656 Z M 18.71875 18.886719 L 17.753906 18.886719 L 17.753906 16.949219 L 18.71875 16.949219 Z M 18.71875 18.886719 "></path><path style=" stroke:none;fill-rule:nonzero;fill:rgb(60.784314%,36.078431%,56.078431%);fill-opacity:1;" d="M 23.558594 10.648438 C 23.558594 9.5625 22.921875 8.714844 22.101562 8.714844 C 21.285156 8.714844 20.648438 9.5625 20.648438 10.648438 C 20.59375 11.390625 20.96875 12.097656 21.613281 12.472656 L 21.613281 15.976562 C 21.082031 15.976562 20.648438 16.410156 20.648438 16.941406 L 20.648438 18.878906 C 20.648438 19.410156 21.082031 19.84375 21.613281 19.84375 L 22.582031 19.84375 C 23.113281 19.84375 23.550781 19.410156 23.550781 18.878906 L 23.550781 16.949219 C 23.550781 16.417969 23.113281 15.984375 22.582031 15.984375 L 22.582031 12.480469 C 23.234375 12.105469 23.609375 11.390625 23.558594 10.648438 Z M 22.589844 18.886719 L 21.621094 18.886719 L 21.621094 16.949219 L 22.589844 16.949219 Z M 22.109375 9.683594 C 22.304688 9.683594 22.597656 10.058594 22.597656 10.648438 C 22.597656 11.242188 22.3125 11.617188 22.109375 11.617188 C 21.90625 11.617188 21.621094 11.242188 21.621094 10.648438 C 21.621094 10.058594 21.90625 9.683594 22.109375 9.683594 Z M 22.109375 9.683594 "></path><path style=" stroke:none;fill-rule:nonzero;fill:rgb(60.784314%,36.078431%,56.078431%);fill-opacity:1;" d="M 28.402344 14.039062 C 28.394531 10.808594 26.503906 7.882812 23.558594 6.546875 L 23.558594 1.933594 C 23.558594 0.863281 22.6875 0 21.621094 0 L 9.039062 0 C 7.964844 0 7.101562 0.871094 7.101562 1.933594 L 7.101562 28.078125 C 7.101562 29.152344 7.972656 30.015625 9.039062 30.015625 L 21.628906 30.015625 C 22.703125 30.015625 23.566406 29.144531 23.566406 28.078125 L 23.566406 21.53125 C 26.503906 20.203125 28.394531 17.273438 28.402344 14.039062 Z M 19.003906 0.96875 L 18.039062 1.933594 L 12.628906 1.933594 L 11.664062 0.96875 Z M 9.039062 0.96875 L 10.289062 0.96875 L 12.082031 2.761719 C 12.171875 2.851562 12.300781 2.902344 12.425781 2.902344 L 18.238281 2.902344 C 18.367188 2.902344 18.496094 2.851562 18.585938 2.761719 L 20.378906 0.96875 L 21.628906 0.96875 C 22.164062 0.96875 22.597656 1.402344 22.597656 1.933594 L 22.597656 3.871094 L 8.0625 3.871094 L 8.0625 1.933594 C 8.0625 1.402344 8.496094 0.96875 9.039062 0.96875 Z M 21.621094 29.054688 L 9.039062 29.054688 C 8.503906 29.054688 8.070312 28.621094 8.070312 28.085938 L 8.070312 24.21875 L 22.597656 24.21875 L 22.597656 28.085938 C 22.589844 28.621094 22.164062 29.054688 21.621094 29.054688 Z M 22.589844 23.242188 L 8.0625 23.242188 L 8.0625 4.84375 L 22.589844 4.84375 L 22.589844 6.179688 C 18.246094 4.835938 13.640625 7.273438 12.300781 11.617188 C 10.957031 15.960938 13.402344 20.574219 17.746094 21.90625 C 19.320312 22.394531 21.015625 22.394531 22.589844 21.90625 Z M 20.175781 21.308594 C 16.164062 21.308594 12.914062 18.050781 12.914062 14.046875 C 12.914062 10.042969 16.171875 6.789062 20.175781 6.789062 C 24.179688 6.789062 27.433594 10.042969 27.433594 14.046875 C 27.425781 18.050781 24.179688 21.300781 20.175781 21.308594 Z M 20.175781 21.308594 "></path></g></svg> 