<?xml version="1.0" encoding="UTF-8"?> <svg xmlns="http://www.w3.org/2000/svg" xmlns:xlink="http://www.w3.org/1999/xlink" width="36pt" height="30pt" viewBox="0 0 36 30" version="1.1"><g id="surface1"><path style=" stroke:none;fill-rule:nonzero;fill:rgb(25.098039%,76.862745%,100%);fill-opacity:1;" d="M 6.269531 25.605469 L 6.269531 15.066406 L 5.265625 15.066406 L 5.265625 25.613281 C 5.265625 27 6.390625 28.125 7.777344 28.125 L 18.824219 28.125 L 18.824219 27.121094 L 7.769531 27.121094 C 6.945312 27.113281 6.269531 26.4375 6.269531 25.605469 Z M 6.269531 25.605469 "></path><path style=" stroke:none;fill-rule:nonzero;fill:rgb(25.098039%,76.862745%,100%);fill-opacity:1;" d="M 30.367188 21.59375 L 30.367188 11.046875 C 30.367188 9.660156 29.242188 8.535156 27.855469 8.535156 L 18.316406 8.535156 L 18.316406 9.539062 L 27.855469 9.539062 C 28.6875 9.539062 29.363281 10.214844 29.363281 11.046875 L 29.363281 21.59375 Z M 30.367188 21.59375 "></path><path style=" stroke:none;fill-rule:nonzero;fill:rgb(25.098039%,76.862745%,100%);fill-opacity:1;" d="M 28.359375 21.59375 L 28.359375 11.046875 C 28.359375 10.769531 28.132812 10.546875 27.855469 10.546875 L 17.8125 10.546875 L 17.8125 11.550781 L 27.351562 11.550781 L 27.351562 21.59375 Z M 28.359375 21.59375 "></path><path style=" stroke:none;fill-rule:nonzero;fill:rgb(25.098039%,76.862745%,100%);fill-opacity:1;" d="M 8.273438 16.066406 L 7.273438 16.066406 L 7.273438 25.605469 C 7.273438 25.882812 7.5 26.109375 7.777344 26.109375 L 18.824219 26.109375 L 18.824219 25.101562 L 8.273438 25.101562 Z M 8.273438 16.066406 "></path><path style=" stroke:none;fill-rule:nonzero;fill:rgb(25.098039%,76.862745%,100%);fill-opacity:1;" d="M 17.316406 14.566406 L 18.324219 14.566406 L 18.324219 15.570312 L 17.316406 15.570312 Z M 17.316406 14.566406 "></path><path style=" stroke:none;fill-rule:nonzero;fill:rgb(25.098039%,76.862745%,100%);fill-opacity:1;" d="M 23.339844 18.074219 L 23.339844 17.574219 L 23.84375 17.574219 C 24.121094 17.574219 24.34375 17.347656 24.34375 17.070312 L 24.34375 15.058594 C 24.34375 14.84375 24.210938 14.65625 24 14.585938 L 17.976562 12.578125 C 17.871094 12.539062 17.761719 12.539062 17.664062 12.578125 L 15.652344 13.246094 L 15.96875 14.199219 L 17.820312 13.582031 L 23.339844 15.425781 L 23.339844 16.574219 L 12.292969 16.574219 L 12.292969 16.074219 L 11.289062 16.074219 L 11.289062 17.078125 C 11.289062 17.355469 11.511719 17.578125 11.789062 17.578125 L 12.292969 17.578125 L 12.292969 21.097656 L 11.789062 21.097656 C 11.511719 21.097656 11.289062 21.324219 11.289062 21.601562 L 11.289062 23.609375 C 11.289062 23.886719 11.511719 24.113281 11.789062 24.113281 L 22.335938 24.113281 L 22.335938 23.101562 L 12.292969 23.101562 L 12.292969 22.09375 L 22.335938 22.09375 L 22.335938 21.089844 L 21.328125 21.089844 L 21.328125 17.574219 L 22.335938 17.574219 L 22.335938 18.074219 Z M 16.3125 17.574219 L 16.3125 21.089844 L 15.308594 21.089844 L 15.308594 17.574219 Z M 13.296875 21.089844 L 13.296875 17.574219 L 14.300781 17.574219 L 14.300781 21.089844 Z M 17.316406 21.089844 L 17.316406 17.574219 L 18.324219 17.574219 L 18.324219 21.089844 Z M 20.324219 21.089844 L 19.320312 21.089844 L 19.320312 17.574219 L 20.324219 17.574219 Z M 20.324219 21.089844 "></path><path style=" stroke:none;fill-rule:nonzero;fill:rgb(25.098039%,76.862745%,100%);fill-opacity:1;" d="M 17.316406 7.53125 C 17.316406 3.375 13.941406 0 9.78125 0 C 5.617188 0 2.25 3.375 2.25 7.53125 C 2.25 11.683594 5.625 15.058594 9.78125 15.058594 C 13.941406 15.058594 17.308594 11.691406 17.316406 7.53125 Z M 9.039062 14.011719 C 8.566406 13.238281 8.191406 12.40625 7.90625 11.542969 L 11.664062 11.542969 C 11.386719 12.40625 11.003906 13.230469 10.53125 14.011719 C 10.035156 14.078125 9.53125 14.078125 9.039062 14.011719 Z M 3.277344 8.03125 L 6.277344 8.03125 C 6.308594 8.878906 6.414062 9.71875 6.585938 10.546875 L 3.996094 10.546875 C 3.59375 9.765625 3.34375 8.910156 3.277344 8.03125 Z M 16.28125 7.027344 L 13.28125 7.027344 C 13.253906 6.179688 13.148438 5.339844 12.976562 4.515625 L 15.570312 4.515625 C 15.976562 5.296875 16.214844 6.148438 16.28125 7.027344 Z M 16.28125 8.03125 C 16.214844 8.910156 15.976562 9.765625 15.5625 10.546875 L 12.976562 10.546875 C 13.15625 9.71875 13.261719 8.878906 13.28125 8.03125 Z M 12.285156 7.027344 L 7.28125 7.027344 C 7.3125 6.179688 7.425781 5.339844 7.628906 4.515625 L 11.949219 4.515625 C 12.136719 5.339844 12.253906 6.179688 12.285156 7.027344 Z M 6.277344 7.027344 L 3.277344 7.027344 C 3.34375 6.148438 3.59375 5.296875 3.996094 4.523438 L 6.59375 4.523438 C 6.414062 5.347656 6.308594 6.1875 6.277344 7.027344 Z M 7.28125 8.03125 L 12.285156 8.03125 C 12.253906 8.878906 12.140625 9.71875 11.941406 10.546875 L 7.621094 10.546875 C 7.425781 9.71875 7.3125 8.878906 7.28125 8.03125 Z M 11.84375 13.726562 C 12.195312 13.027344 12.488281 12.300781 12.710938 11.550781 L 14.917969 11.550781 C 14.128906 12.5625 13.058594 13.3125 11.84375 13.726562 Z M 14.917969 3.515625 L 12.710938 3.515625 C 12.488281 2.765625 12.195312 2.039062 11.84375 1.34375 C 13.058594 1.746094 14.128906 2.503906 14.917969 3.515625 Z M 10.53125 1.050781 C 11.003906 1.824219 11.378906 2.65625 11.664062 3.515625 L 7.90625 3.515625 C 8.183594 2.65625 8.566406 1.828125 9.039062 1.050781 C 9.53125 0.988281 10.035156 0.988281 10.53125 1.050781 Z M 7.726562 1.34375 C 7.371094 2.039062 7.078125 2.765625 6.855469 3.515625 L 4.648438 3.515625 C 5.4375 2.503906 6.511719 1.746094 7.726562 1.34375 Z M 4.648438 11.550781 L 6.855469 11.550781 C 7.078125 12.300781 7.371094 13.027344 7.726562 13.726562 C 6.511719 13.3125 5.4375 12.5625 4.648438 11.550781 Z M 4.648438 11.550781 "></path><path style=" stroke:none;fill-rule:nonzero;fill:rgb(25.098039%,76.862745%,100%);fill-opacity:1;" d="M 31.125 22.613281 C 30.691406 22.539062 30.238281 22.664062 29.902344 22.949219 C 29.894531 22.957031 29.878906 22.964844 29.871094 22.972656 C 29.300781 22.460938 28.433594 22.460938 27.863281 22.972656 C 27.449219 22.621094 26.871094 22.5 26.355469 22.671875 L 26.355469 20.128906 C 26.363281 19.378906 25.835938 18.734375 25.101562 18.59375 C 24.285156 18.449219 23.503906 19.003906 23.363281 19.824219 C 23.347656 19.90625 23.339844 19.988281 23.339844 20.078125 L 23.339844 26.21875 L 22.003906 25.417969 C 21.601562 25.171875 21.097656 25.15625 20.671875 25.363281 L 20.585938 25.402344 C 19.90625 25.746094 19.628906 26.578125 19.964844 27.261719 C 20.070312 27.464844 20.210938 27.636719 20.398438 27.773438 L 23.542969 30.015625 C 23.625 30.074219 23.730469 30.105469 23.835938 30.105469 L 31.875 30.105469 C 32.152344 30.105469 32.378906 29.878906 32.378906 29.601562 L 32.378906 24.136719 C 32.386719 23.40625 31.859375 22.753906 31.125 22.613281 Z M 31.371094 29.121094 L 24 29.121094 L 20.984375 26.96875 C 20.8125 26.851562 20.773438 26.601562 20.894531 26.429688 C 20.933594 26.378906 20.976562 26.339844 21.039062 26.308594 L 21.121094 26.273438 C 21.238281 26.210938 21.375 26.21875 21.488281 26.289062 L 23.578125 27.539062 C 23.820312 27.683594 24.128906 27.609375 24.269531 27.367188 C 24.316406 27.292969 24.34375 27.203125 24.34375 27.105469 L 24.34375 20.078125 C 24.34375 19.800781 24.570312 19.574219 24.847656 19.574219 C 24.878906 19.574219 24.90625 19.574219 24.9375 19.582031 C 25.183594 19.640625 25.363281 19.875 25.351562 20.128906 L 25.351562 24.089844 C 25.351562 24.367188 25.574219 24.59375 25.851562 24.59375 C 26.128906 24.59375 26.355469 24.367188 26.355469 24.089844 C 26.355469 23.8125 26.578125 23.585938 26.859375 23.585938 C 27.136719 23.585938 27.359375 23.8125 27.359375 24.089844 C 27.359375 24.367188 27.585938 24.59375 27.863281 24.59375 C 28.140625 24.59375 28.363281 24.367188 28.363281 24.089844 C 28.363281 23.8125 28.589844 23.585938 28.867188 23.585938 C 29.144531 23.585938 29.371094 23.8125 29.371094 24.089844 C 29.371094 24.367188 29.59375 24.59375 29.871094 24.59375 C 30.148438 24.59375 30.375 24.367188 30.375 24.089844 C 30.375 23.941406 30.441406 23.804688 30.554688 23.707031 C 30.667969 23.609375 30.816406 23.574219 30.96875 23.59375 C 31.214844 23.65625 31.394531 23.886719 31.378906 24.140625 L 31.378906 29.121094 Z M 31.371094 29.121094 "></path><path style=" stroke:none;fill-rule:nonzero;fill:rgb(25.098039%,76.862745%,100%);fill-opacity:1;" d="M 31.058594 5.488281 C 31.246094 5.414062 31.371094 5.226562 31.371094 5.023438 L 31.371094 0.503906 C 31.371094 0.226562 31.148438 0 30.871094 0 C 30.800781 0 30.742188 0.015625 30.683594 0.0390625 L 30.097656 0.269531 C 28.949219 0.734375 27.675781 0.816406 26.476562 0.515625 C 25.066406 0.164062 23.578125 0.261719 22.238281 0.800781 L 21.652344 1.035156 C 21.464844 1.109375 21.335938 1.296875 21.335938 1.5 L 21.335938 6.023438 C 21.335938 6.300781 21.5625 6.523438 21.839844 6.523438 C 21.90625 6.523438 21.96875 6.511719 22.027344 6.488281 L 22.613281 6.253906 C 23.761719 5.789062 25.035156 5.707031 26.234375 6.007812 C 27.644531 6.359375 29.128906 6.261719 30.472656 5.722656 Z M 30.367188 4.679688 L 30.097656 4.792969 C 28.949219 5.257812 27.675781 5.339844 26.476562 5.039062 C 25.101562 4.695312 23.65625 4.777344 22.335938 5.289062 L 22.335938 1.84375 L 22.605469 1.734375 C 23.753906 1.265625 25.027344 1.183594 26.226562 1.484375 C 27.601562 1.828125 29.046875 1.746094 30.367188 1.238281 Z M 30.367188 4.679688 "></path><path style=" stroke:none;fill-rule:nonzero;fill:rgb(25.098039%,76.862745%,100%);fill-opacity:1;" d="M 17.316406 3.515625 L 18.324219 3.515625 L 18.324219 4.523438 L 17.316406 4.523438 Z M 17.316406 3.515625 "></path><path style=" stroke:none;fill-rule:nonzero;fill:rgb(25.098039%,76.862745%,100%);fill-opacity:1;" d="M 19.320312 3.515625 L 20.324219 3.515625 L 20.324219 4.523438 L 19.320312 4.523438 Z M 19.320312 3.515625 "></path><path style=" stroke:none;fill-rule:nonzero;fill:rgb(25.098039%,76.862745%,100%);fill-opacity:1;" d="M 24.34375 6.523438 L 25.351562 6.523438 L 25.351562 7.53125 L 24.34375 7.53125 Z M 24.34375 6.523438 "></path></g></svg> 