<?xml version="1.0" encoding="UTF-8"?> <!-- Generator: Adobe Illustrator 25.1.0, SVG Export Plug-In . SVG Version: 6.00 Build 0) --> <svg xmlns="http://www.w3.org/2000/svg" xmlns:xlink="http://www.w3.org/1999/xlink" version="1.1" id="Layer_1" x="0px" y="0px" viewBox="0 0 30 30" style="enable-background:new 0 0 30 30;" xml:space="preserve"> <style type="text/css"> .st0{fill-rule:evenodd;clip-rule:evenodd;} </style> <path class="st0" d="M5.6,15.1c0-0.3-0.3-0.5-0.5-0.5H3c-0.2,0-0.2,0-0.2-0.3l0.3-0.9c0-0.1,0.1-0.2,0.2-0.2h0.8 c0.1,0,0.2,0,0.2,0.1l0,0.1L4,14.3h1.9l0.4-1c0-0.1,0.1-0.2,0.1-0.3c0-0.3-0.3-0.4-0.7-0.4H2.1c-0.4,0-0.6,0.1-0.8,0.5l-0.6,1.6 c0,0.1,0,0.1,0,0.2c0,0.3,0.3,0.5,0.6,0.5h1.9c0.2,0,0.3,0,0.3,0.1c0,0,0,0,0,0.1l-0.3,0.9c0,0.1-0.1,0.2-0.2,0.2H2.2 c-0.2,0-0.2,0-0.2-0.2l0.3-0.7H0.4L0,16.9c0,0.4,0.2,0.6,0.6,0.6h3.5c0.4,0,0.7-0.1,0.9-0.6l0.5-1.4C5.6,15.3,5.6,15.2,5.6,15.1z M6.1,15.2l-0.8,2.2h1.3l0.8-2.2H6.1z M7.4,15l0.3-0.8H6.4L6.1,15H7.4z M12.4,15.6c0-0.3-0.2-0.4-0.5-0.4H7.8L7,17.5h1.3l0.6-1.6 c0.1-0.1,0.1-0.2,0.3-0.2c0.1,0,0.1,0,0.1,0.2l-0.6,1.6H10l0.6-1.6c0.1-0.1,0.1-0.2,0.3-0.2c0.1,0,0.1,0,0.1,0.2l-0.6,1.6h1.3 l0.6-1.7C12.4,15.7,12.4,15.7,12.4,15.6L12.4,15.6z M15.4,15.2H13l-1.1,3.2h1.3l0.3-1h1.1c0.5,0,0.7-0.2,0.8-0.5l0.4-1.2 c0,0,0-0.1,0-0.1C15.9,15.3,15.7,15.2,15.4,15.2z M14.1,16.9c0,0.1-0.1,0.2-0.2,0.2c-0.2,0-0.2-0.1-0.2-0.2l0.4-1 c0.1-0.1,0.1-0.2,0.2-0.2c0.1,0,0.2,0,0.2,0.2L14.1,16.9L14.1,16.9z M17,13.6l-1.4,3.9H17l1.4-3.9H17L17,13.6z M19.6,15l0.3-0.8 h-1.4L18.3,15H19.6L19.6,15z M18.2,15.2l-0.8,2.2h1.3l0.8-2.2H18.2z M21,16.9c0,0.1-0.1,0.2-0.2,0.2c-0.1,0-0.2,0-0.2-0.1 c0,0,0,0,0-0.1l0.4-1c0.1-0.1,0.1-0.2,0.3-0.2c0.1,0,0.1,0,0.1,0.2l-0.1,0.3h1.3l0.1-0.4c0-0.1,0.1-0.2,0.1-0.2 c0-0.2-0.2-0.3-0.4-0.3h-2c-0.3,0-0.5,0.2-0.6,0.4l-0.4,1.2c0,0.1,0,0.2,0,0.3c0,0.3,0.2,0.4,0.5,0.4h1.9c0.3,0,0.4-0.1,0.5-0.3 l0.2-0.5h-1.3L21,16.9L21,16.9z M26.6,15.7l0.2-0.5h-0.3l0.3-1h-1.4l-0.3,1h-0.3l-0.2,0.5H25l-0.6,1.7h1.3l0.6-1.8H26.6L26.6,15.7z M28.6,15.2l-0.6,1.6C28,17,28,17,27.9,17c-0.1,0-0.2-0.1-0.2-0.2l0.6-1.6H27l-0.6,1.7c0,0.1,0,0.1,0,0.2c0,0.3,0.2,0.4,0.5,0.4h1 l-0.3,1h1.4l1.2-3.2L28.6,15.2L28.6,15.2z M25,14.2h-1.4L23.4,15h1.4L25,14.2z M23.3,15.2l-0.8,2.2h1.3l0.8-2.2H23.3z"></path> </svg> 