<?xml version="1.0" encoding="UTF-8"?> <!-- Generator: Adobe Illustrator 25.1.0, SVG Export Plug-In . SVG Version: 6.00 Build 0) --> <svg xmlns="http://www.w3.org/2000/svg" xmlns:xlink="http://www.w3.org/1999/xlink" version="1.1" id="Layer_1" x="0px" y="0px" viewBox="0 0 30 30" style="enable-background:new 0 0 30 30;" xml:space="preserve"> <style type="text/css"> .st0{fill:#FCDC00;} .st1{fill:#173647;} </style> <g> <path id="fill" class="st0" d="M15,29.3C7.1,29.3,0.7,22.9,0.7,15S7.1,0.7,15,0.7S29.4,7.1,29.4,15S22.9,29.3,15,29.3z"></path> <path id="border" class="st1" d="M15,1.4c7.5,0,13.6,6.1,13.6,13.6S22.5,28.6,15,28.6S1.4,22.5,1.4,15S7.5,1.4,15,1.4 M15-0.1 C6.7-0.1,0,6.7,0,15s6.8,15,15,15s15-6.8,15-15S23.3-0.1,15-0.1L15-0.1z"></path> <path id="icon" class="st1" d="M23.7,14.4l1.2-1.7l-1.2-3l-2-0.4l-0.9-0.9l-0.3-2l-3.1-1.3l-1.7,1.2h-1.2l-1.7-1.2L9.7,6.5l-0.4,2 L8.4,9.3l-2,0.4l-1.3,3l1.2,1.7v1.2l-1.2,1.7l1.2,3.1l2,0.4l0.9,0.9l0.4,2l3,1.3l1.7-1.2h1.2l1.7,1.2l3.1-1.2l0.4-2l0.9-0.9l2-0.3 l1.3-3l-1.2-1.7C23.7,15.7,23.7,14.4,23.7,14.4z M23.2,17.5l-0.7,1.6l-1.7,0.3l-1.5,1.5l-0.3,1.7l-1.6,0.7l-1.4-1H14l-1.4,1 l-1.6-0.7l-0.3-1.7l-1.5-1.5l-1.7-0.3l-0.7-1.6l1-1.4V14l-1-1.4L7.5,11l1.7-0.3l1.5-1.5L11,7.5l1.6-0.7l1.4,1h2.1l1.4-1l1.6,0.7 l0.3,1.7l1.5,1.5l1.7,0.3l0.7,1.6l-1,1.4v2.1L23.2,17.5z M20.4,15.4c0,2.9-2.4,5.3-5.3,5.3s-5.3-2.4-5.3-5.3c0-1.4,0.5-2.8,1.6-3.8 l1,1c-0.7,0.7-1.2,1.7-1.2,2.8c0,1.6,0.9,2.9,2.2,3.5l1.9-3.1l-3-0.6l3.3-5.8l1.2,0.7l-2.3,4.1l3.1,0.7l-2.8,4.4c0.1,0,0.1,0,0.2,0 c2.1,0,3.9-1.7,3.9-3.9c0-1.2-0.5-2.2-1.4-3l0.9-1.1C19.7,12.3,20.4,13.8,20.4,15.4z"></path> </g> </svg> 