<?xml version="1.0" encoding="UTF-8"?> <svg xmlns="http://www.w3.org/2000/svg" xmlns:xlink="http://www.w3.org/1999/xlink" width="36pt" height="30pt" viewBox="0 0 36 30" version="1.1"><g id="surface1"><path style=" stroke:none;fill-rule:nonzero;fill:rgb(36.862745%,55.686275%,24.313725%);fill-opacity:1;" d="M 3.105469 19.058594 C 3.359375 19.058594 3.570312 18.847656 3.570312 18.59375 L 3.570312 17.84375 C 3.570312 15.316406 4.957031 13.214844 6.953125 12.425781 C 6.644531 12.246094 6.359375 12.039062 6.105469 11.789062 C 4.042969 12.847656 2.640625 15.136719 2.640625 17.84375 L 2.640625 18.59375 C 2.640625 18.847656 2.851562 19.058594 3.105469 19.058594 Z M 3.105469 19.058594 "></path><path style=" stroke:none;fill-rule:nonzero;fill:rgb(36.862745%,55.686275%,24.313725%);fill-opacity:1;" d="M 11.519531 12.324219 C 13.664062 13.019531 15.195312 15.195312 15.195312 17.84375 L 15.195312 18.59375 C 15.195312 18.847656 15.40625 19.058594 15.660156 19.058594 C 15.914062 19.058594 16.125 18.847656 16.125 18.59375 L 16.125 17.84375 C 16.125 15 14.578125 12.621094 12.34375 11.640625 C 12.097656 11.902344 11.820312 12.128906 11.519531 12.324219 Z M 11.519531 12.324219 "></path><path style=" stroke:none;fill-rule:nonzero;fill:rgb(36.862745%,55.686275%,24.313725%);fill-opacity:1;" d="M 9.148438 5.113281 C 7.222656 5.113281 5.664062 6.675781 5.664062 8.601562 C 5.664062 10.53125 7.222656 12.089844 9.148438 12.089844 C 11.078125 12.089844 12.636719 10.53125 12.636719 8.601562 C 12.636719 6.675781 11.078125 5.113281 9.148438 5.113281 Z M 9.148438 11.160156 C 7.738281 11.160156 6.59375 10.011719 6.59375 8.601562 C 6.59375 7.191406 7.738281 6.046875 9.148438 6.046875 C 10.558594 6.046875 11.707031 7.191406 11.707031 8.601562 C 11.707031 10.011719 10.558594 11.160156 9.148438 11.160156 Z M 9.148438 11.160156 "></path><path style=" stroke:none;fill-rule:nonzero;fill:rgb(36.862745%,55.686275%,24.313725%);fill-opacity:1;" d="M 20.078125 21.847656 C 20.078125 20.4375 18.929688 19.289062 17.519531 19.289062 C 16.109375 19.289062 14.960938 20.4375 14.960938 21.847656 C 14.960938 22.898438 15.601562 23.804688 16.515625 24.195312 C 14.835938 24.351562 13.53125 25.253906 12.871094 26.617188 C 12.21875 25.253906 10.90625 24.351562 9.226562 24.195312 C 10.132812 23.804688 10.777344 22.898438 10.777344 21.847656 C 10.777344 20.4375 9.628906 19.289062 8.21875 19.289062 C 6.808594 19.289062 5.664062 20.4375 5.664062 21.847656 C 5.664062 22.898438 6.300781 23.804688 7.214844 24.195312 C 4.769531 24.421875 3.113281 26.21875 3.113281 28.734375 L 3.113281 29.28125 C 3.113281 29.535156 3.324219 29.746094 3.578125 29.746094 C 3.832031 29.746094 4.042969 29.535156 4.042969 29.28125 L 4.042969 28.734375 C 4.042969 26.527344 5.496094 25.101562 7.746094 25.101562 L 8.699219 25.101562 C 10.949219 25.101562 12.40625 26.527344 12.40625 28.734375 L 12.40625 29.28125 C 12.40625 29.535156 12.613281 29.746094 12.871094 29.746094 C 13.125 29.746094 13.335938 29.535156 13.335938 29.28125 L 13.335938 28.734375 C 13.335938 26.527344 14.789062 25.101562 17.039062 25.101562 L 17.992188 25.101562 C 20.242188 25.101562 21.699219 26.527344 21.699219 28.734375 L 21.699219 29.28125 C 21.699219 29.535156 21.90625 29.746094 22.164062 29.746094 C 22.417969 29.746094 22.628906 29.535156 22.628906 29.28125 L 22.628906 28.734375 C 22.628906 26.527344 24.082031 25.101562 26.332031 25.101562 L 27.285156 25.101562 C 29.535156 25.101562 30.988281 26.527344 30.988281 28.734375 L 30.988281 29.28125 C 30.988281 29.535156 31.199219 29.746094 31.453125 29.746094 C 31.710938 29.746094 31.921875 29.535156 31.921875 29.28125 L 31.921875 28.734375 C 31.921875 26.226562 30.253906 24.421875 27.808594 24.195312 C 28.71875 23.804688 29.363281 22.898438 29.363281 21.847656 C 29.363281 20.4375 28.214844 19.289062 26.804688 19.289062 C 25.394531 19.289062 24.246094 20.4375 24.246094 21.847656 C 24.246094 22.898438 24.886719 23.804688 25.800781 24.195312 C 24.121094 24.351562 22.816406 25.253906 22.15625 26.617188 C 21.503906 25.253906 20.191406 24.351562 18.511719 24.195312 C 19.433594 23.804688 20.078125 22.90625 20.078125 21.847656 Z M 8.21875 23.476562 C 7.320312 23.476562 6.59375 22.746094 6.59375 21.847656 C 6.59375 20.949219 7.320312 20.21875 8.21875 20.21875 C 9.121094 20.21875 9.847656 20.949219 9.847656 21.847656 C 9.847656 22.746094 9.121094 23.476562 8.21875 23.476562 Z M 25.183594 21.847656 C 25.183594 20.949219 25.914062 20.21875 26.8125 20.21875 C 27.710938 20.21875 28.441406 20.949219 28.441406 21.847656 C 28.441406 22.746094 27.710938 23.476562 26.8125 23.476562 C 25.921875 23.476562 25.183594 22.746094 25.183594 21.847656 Z M 17.519531 23.476562 C 16.621094 23.476562 15.890625 22.746094 15.890625 21.847656 C 15.890625 20.949219 16.621094 20.21875 17.519531 20.21875 C 18.421875 20.21875 19.148438 20.949219 19.148438 21.847656 C 19.148438 22.746094 18.414062 23.476562 17.519531 23.476562 Z M 17.519531 23.476562 "></path><path style=" stroke:none;fill-rule:nonzero;fill:rgb(36.862745%,55.686275%,24.313725%);fill-opacity:1;" d="M 18.21875 12.324219 L 18.21875 13.71875 C 18.21875 13.972656 18.425781 14.183594 18.683594 14.183594 C 18.9375 14.183594 19.148438 13.972656 19.148438 13.71875 L 19.148438 12.324219 C 19.148438 12.066406 18.9375 11.859375 18.683594 11.859375 C 18.421875 11.859375 18.21875 12.058594 18.21875 12.324219 Z M 18.21875 12.324219 "></path><path style=" stroke:none;fill-rule:nonzero;fill:rgb(36.862745%,55.686275%,24.313725%);fill-opacity:1;" d="M 20.542969 10.925781 L 20.542969 13.71875 C 20.542969 13.972656 20.753906 14.183594 21.007812 14.183594 C 21.261719 14.183594 21.472656 13.972656 21.472656 13.71875 L 21.472656 10.925781 C 21.472656 10.671875 21.261719 10.460938 21.007812 10.460938 C 20.753906 10.460938 20.542969 10.664062 20.542969 10.925781 Z M 20.542969 10.925781 "></path><path style=" stroke:none;fill-rule:nonzero;fill:rgb(36.862745%,55.686275%,24.313725%);fill-opacity:1;" d="M 22.867188 9.066406 L 22.867188 13.71875 C 22.867188 13.972656 23.078125 14.183594 23.332031 14.183594 C 23.585938 14.183594 23.796875 13.972656 23.796875 13.71875 L 23.796875 9.066406 C 23.796875 8.8125 23.585938 8.601562 23.332031 8.601562 C 23.070312 8.601562 22.867188 8.804688 22.867188 9.066406 Z M 22.867188 9.066406 "></path><path style=" stroke:none;fill-rule:nonzero;fill:rgb(36.862745%,55.686275%,24.313725%);fill-opacity:1;" d="M 25.183594 7.207031 L 25.183594 13.71875 C 25.183594 13.972656 25.394531 14.183594 25.648438 14.183594 C 25.90625 14.183594 26.113281 13.972656 26.113281 13.71875 L 26.113281 7.207031 C 26.113281 6.953125 25.90625 6.742188 25.648438 6.742188 C 25.394531 6.742188 25.183594 6.945312 25.183594 7.207031 Z M 25.183594 7.207031 "></path><path style=" stroke:none;fill-rule:nonzero;fill:rgb(36.862745%,55.686275%,24.313725%);fill-opacity:1;" d="M 28.441406 13.710938 L 28.441406 5.347656 C 28.441406 5.09375 28.230469 4.882812 27.976562 4.882812 C 27.71875 4.882812 27.511719 5.09375 27.511719 5.347656 L 27.511719 13.71875 C 27.511719 13.972656 27.71875 14.183594 27.976562 14.183594 C 28.238281 14.175781 28.441406 13.972656 28.441406 13.710938 Z M 28.441406 13.710938 "></path><path style=" stroke:none;fill-rule:nonzero;fill:rgb(36.862745%,55.686275%,24.313725%);fill-opacity:1;" d="M 17.863281 11.226562 C 17.953125 11.332031 18.089844 11.390625 18.21875 11.390625 C 18.324219 11.390625 18.433594 11.355469 18.515625 11.28125 L 25.800781 5.039062 L 25.800781 5.070312 C 25.746094 5.324219 25.914062 5.566406 26.167969 5.617188 C 26.191406 5.625 26.226562 5.625 26.25 5.625 C 26.46875 5.625 26.664062 5.476562 26.707031 5.25 L 27.039062 3.578125 C 27.066406 3.414062 27.015625 3.246094 26.886719 3.136719 C 26.761719 3.023438 26.585938 2.992188 26.429688 3.046875 L 24.863281 3.585938 C 24.621094 3.667969 24.496094 3.929688 24.578125 4.175781 C 24.644531 4.371094 24.824219 4.484375 25.011719 4.484375 L 17.910156 10.566406 C 17.714844 10.738281 17.691406 11.03125 17.863281 11.226562 Z M 17.863281 11.226562 "></path><path style=" stroke:none;fill-rule:nonzero;fill:rgb(36.862745%,55.686275%,24.313725%);fill-opacity:1;" d="M 14.039062 5.085938 C 14.03125 5.175781 14.023438 5.257812 14.023438 5.347656 L 14.023438 5.355469 C 14.023438 5.609375 14.234375 5.820312 14.488281 5.820312 C 14.746094 5.820312 14.953125 5.609375 14.953125 5.355469 C 14.953125 5.296875 14.953125 5.234375 14.960938 5.167969 C 14.984375 4.914062 14.796875 4.6875 14.542969 4.664062 C 14.289062 4.636719 14.0625 4.824219 14.039062 5.085938 Z M 14.039062 5.085938 "></path><path style=" stroke:none;fill-rule:nonzero;fill:rgb(36.862745%,55.686275%,24.313725%);fill-opacity:1;" d="M 14.617188 6.261719 C 14.398438 6.398438 14.324219 6.683594 14.460938 6.898438 C 14.503906 6.976562 14.558594 7.050781 14.609375 7.125 C 14.699219 7.253906 14.84375 7.3125 14.984375 7.3125 C 15.082031 7.3125 15.171875 7.28125 15.261719 7.222656 C 15.472656 7.074219 15.515625 6.78125 15.367188 6.570312 C 15.328125 6.515625 15.292969 6.464844 15.261719 6.414062 C 15.128906 6.203125 14.84375 6.128906 14.617188 6.261719 Z M 14.617188 6.261719 "></path><path style=" stroke:none;fill-rule:nonzero;fill:rgb(36.862745%,55.686275%,24.313725%);fill-opacity:1;" d="M 14.773438 3.359375 C 14.714844 3.425781 14.664062 3.496094 14.609375 3.570312 C 14.460938 3.78125 14.503906 4.066406 14.714844 4.222656 C 14.796875 4.28125 14.894531 4.3125 14.984375 4.3125 C 15.128906 4.3125 15.269531 4.246094 15.359375 4.117188 C 15.398438 4.066406 15.433594 4.019531 15.480469 3.96875 C 15.644531 3.773438 15.628906 3.480469 15.433594 3.316406 C 15.234375 3.148438 14.941406 3.171875 14.773438 3.359375 Z M 14.773438 3.359375 "></path><path style=" stroke:none;fill-rule:nonzero;fill:rgb(36.862745%,55.686275%,24.313725%);fill-opacity:1;" d="M 15.621094 7.515625 C 15.523438 7.753906 15.628906 8.023438 15.871094 8.121094 C 15.953125 8.160156 16.035156 8.191406 16.125 8.21875 C 16.171875 8.234375 16.222656 8.242188 16.265625 8.242188 C 16.460938 8.242188 16.640625 8.113281 16.710938 7.921875 C 16.792969 7.671875 16.65625 7.417969 16.410156 7.335938 C 16.351562 7.3125 16.289062 7.296875 16.238281 7.265625 C 15.996094 7.171875 15.726562 7.28125 15.621094 7.515625 Z M 15.621094 7.515625 "></path><path style=" stroke:none;fill-rule:nonzero;fill:rgb(36.862745%,55.686275%,24.313725%);fill-opacity:1;" d="M 16.253906 3.382812 C 16.296875 3.382812 16.351562 3.375 16.394531 3.359375 C 16.453125 3.335938 16.515625 3.324219 16.574219 3.308594 C 16.824219 3.246094 16.980469 3 16.925781 2.753906 C 16.867188 2.503906 16.621094 2.347656 16.371094 2.40625 C 16.28125 2.429688 16.199219 2.453125 16.109375 2.484375 C 15.863281 2.566406 15.734375 2.828125 15.808594 3.066406 C 15.878906 3.253906 16.058594 3.382812 16.253906 3.382812 Z M 16.253906 3.382812 "></path><path style=" stroke:none;fill-rule:nonzero;fill:rgb(36.862745%,55.686275%,24.313725%);fill-opacity:1;" d="M 18.234375 2.566406 C 18.148438 2.527344 18.066406 2.496094 17.976562 2.476562 C 17.730469 2.398438 17.46875 2.527344 17.390625 2.773438 C 17.308594 3.023438 17.445312 3.277344 17.691406 3.359375 C 17.753906 3.382812 17.8125 3.40625 17.871094 3.425781 C 17.933594 3.449219 17.992188 3.464844 18.050781 3.464844 C 18.234375 3.464844 18.40625 3.359375 18.480469 3.179688 C 18.578125 2.933594 18.464844 2.664062 18.234375 2.566406 Z M 18.234375 2.566406 "></path><path style=" stroke:none;fill-rule:nonzero;fill:rgb(36.862745%,55.686275%,24.313725%);fill-opacity:1;" d="M 17.167969 7.941406 C 17.21875 8.160156 17.40625 8.300781 17.617188 8.300781 C 17.65625 8.300781 17.683594 8.300781 17.722656 8.289062 C 17.8125 8.265625 17.894531 8.242188 17.984375 8.210938 C 18.234375 8.128906 18.359375 7.867188 18.285156 7.628906 C 18.203125 7.378906 17.949219 7.253906 17.699219 7.328125 C 17.640625 7.351562 17.578125 7.363281 17.519531 7.378906 C 17.273438 7.441406 17.113281 7.695312 17.167969 7.941406 Z M 17.167969 7.941406 "></path><path style=" stroke:none;fill-rule:nonzero;fill:rgb(36.862745%,55.686275%,24.313725%);fill-opacity:1;" d="M 18.675781 7.378906 C 18.765625 7.453125 18.871094 7.492188 18.984375 7.492188 C 19.109375 7.492188 19.238281 7.441406 19.335938 7.335938 C 19.394531 7.265625 19.453125 7.191406 19.507812 7.125 C 19.65625 6.914062 19.613281 6.628906 19.402344 6.472656 C 19.191406 6.324219 18.90625 6.367188 18.75 6.578125 C 18.710938 6.628906 18.675781 6.675781 18.636719 6.71875 C 18.457031 6.914062 18.480469 7.207031 18.675781 7.378906 Z M 18.675781 7.378906 "></path><path style=" stroke:none;fill-rule:nonzero;fill:rgb(36.862745%,55.686275%,24.313725%);fill-opacity:1;" d="M 19.492188 3.5625 C 19.34375 3.351562 19.050781 3.308594 18.839844 3.464844 C 18.628906 3.613281 18.585938 3.90625 18.742188 4.117188 C 18.78125 4.171875 18.816406 4.222656 18.847656 4.273438 C 18.9375 4.417969 19.085938 4.5 19.246094 4.5 C 19.328125 4.5 19.410156 4.476562 19.484375 4.433594 C 19.703125 4.296875 19.777344 4.011719 19.640625 3.796875 C 19.597656 3.710938 19.546875 3.636719 19.492188 3.5625 Z M 19.492188 3.5625 "></path><path style=" stroke:none;fill-rule:nonzero;fill:rgb(36.862745%,55.686275%,24.313725%);fill-opacity:1;" d="M 19.613281 4.875 C 19.359375 4.875 19.148438 5.085938 19.148438 5.347656 C 19.148438 5.40625 19.148438 5.476562 19.140625 5.535156 C 19.117188 5.789062 19.304688 6.015625 19.558594 6.039062 C 19.574219 6.039062 19.589844 6.039062 19.605469 6.039062 C 19.84375 6.039062 20.046875 5.859375 20.070312 5.617188 C 20.078125 5.527344 20.085938 5.4375 20.085938 5.347656 L 20.085938 5.332031 C 20.078125 5.078125 19.867188 4.875 19.613281 4.875 Z M 19.613281 4.875 "></path><path style=" stroke:none;fill-rule:nonzero;fill:rgb(36.862745%,55.686275%,24.313725%);fill-opacity:1;" d="M 9.148438 13.011719 C 8.886719 13.011719 8.632812 12.984375 8.378906 12.9375 L 7.777344 16.222656 C 7.695312 16.546875 7.867188 16.914062 8.199219 17.09375 L 8.863281 17.519531 L 8.902344 17.542969 C 9.046875 17.617188 9.21875 17.65625 9.390625 17.65625 C 9.5625 17.65625 9.734375 17.617188 9.878906 17.542969 L 10.582031 17.09375 C 10.921875 16.90625 11.085938 16.53125 10.980469 16.199219 L 10.246094 12.863281 C 9.945312 12.9375 9.636719 12.984375 9.324219 12.996094 L 10.058594 16.320312 L 9.441406 16.71875 C 9.414062 16.726562 9.359375 16.726562 9.335938 16.71875 L 8.707031 16.3125 L 9.316406 12.996094 C 9.253906 13.011719 9.203125 13.011719 9.148438 13.011719 Z M 9.148438 13.011719 "></path><path style=" stroke:none;fill-rule:nonzero;fill:rgb(36.862745%,55.686275%,24.313725%);fill-opacity:1;" d="M 31.460938 0 L 10.078125 0 C 9.570312 0 9.148438 0.449219 9.148438 1.011719 L 9.148438 4.183594 C 9.472656 4.183594 9.78125 4.222656 10.078125 4.28125 L 10.078125 1.011719 C 10.078125 0.96875 10.09375 0.945312 10.101562 0.929688 L 31.441406 0.929688 C 31.449219 0.945312 31.460938 0.96875 31.460938 1.011719 L 31.460938 16.191406 C 31.460938 16.238281 31.449219 16.261719 31.441406 16.273438 L 16.90625 16.273438 C 16.964844 16.574219 17.003906 16.890625 17.023438 17.203125 L 31.460938 17.203125 C 31.972656 17.203125 32.390625 16.753906 32.390625 16.191406 L 32.390625 1.011719 C 32.390625 0.449219 31.980469 0 31.460938 0 Z M 31.460938 0 "></path></g></svg> 