<?xml version="1.0" encoding="utf-8"?>
<!-- Generator: Adobe Illustrator 25.1.0, SVG Export Plug-In . SVG Version: 6.00 Build 0)  -->
<svg version="1.1" id="Layer_1" xmlns="http://www.w3.org/2000/svg" xmlns:xlink="http://www.w3.org/1999/xlink" x="0px" y="0px"
	 viewBox="0 0 66 68.1" style="enable-background:new 0 0 66 68.1;" xml:space="preserve">
<style type="text/css">
	.st0{fill:#93CC65;}
</style>
<path class="st0" d="M66.1,41.5c0,0.4,0,0.8,0,1.2c0,0.1,0,0.2-0.1,0.3c-0.1,0.6-0.2,1.1-0.3,1.7c-0.8,2.7-2.6,4.4-4.9,5.7
	c-0.1,0-0.1,0-0.2,0.1c-2,0.5-4.1,0.9-6.1,1.5c-5.3,1.5-10.5,3.3-15.5,5.8c-2.8,1.4-5.5,3-8,5c-1.4,1.2-3,2.3-4.6,3.1
	c-2.5,1.3-5.2,2.1-8,2.2c-2.9,0.1-5.5-0.7-7.9-2.3c-1.1-0.7-2.1-1.5-2.9-2.6c-1.9-2.6-3.5-5.5-4.7-8.5C1.3,51.1,0.3,47.3,0,43.3
	c-0.2-2.4,0-4.8,0.4-7.2c0.6-3.3,1.8-6.4,3.5-9.2c3-5,7-8.9,11.7-12.1c4.9-3.3,10.3-5.1,16.2-5.2c2.6,0,5.2,0.3,7.8,1
	c3.8,1,7.2,2.8,10.4,5.1c1,0.7,2,1.4,2.9,2.3c2,2,3.8,4.2,5.5,6.5c2.2,2.9,4.2,6,5.7,9.4c0.9,1.9,1.6,3.9,1.9,6.1
	C66,40.4,66,41,66.1,41.5z"/>
<g>
	<path d="M21.9,41.4c-0.5,0-0.9-0.4-0.9-0.9v-2.7l-8.3-8.3c-0.6-0.6-1-1.5-1-2.3v-8.4c0-1.8,1.5-3.3,3.3-3.3c1.8,0,3.3,1.5,3.3,3.3
		V27l5,5c0.3,0.3,0.3,0.9,0,1.3c-0.3,0.3-0.9,0.3-1.3,0L16.8,28c-0.2-0.2-0.3-0.4-0.3-0.6v-8.7c0-0.8-0.7-1.5-1.5-1.5
		s-1.5,0.7-1.5,1.5l0,0v8.4c0,0.4,0.2,0.8,0.4,1.1l8.6,8.6c0.2,0.2,0.3,0.4,0.3,0.6v3C22.8,41,22.4,41.4,21.9,41.4z"/>
	<path d="M28.7,41.4c-0.5,0-0.9-0.4-0.9-0.9v-6c0-0.4-0.1-0.7-0.4-0.9L19.9,26c-0.3-0.4-0.9-0.4-1.3-0.1c-0.4,0.3-0.4,0.9-0.1,1.3
		c0,0,0.1,0.1,0.1,0.1c0.3,0.3,0.3,0.9,0,1.3c-0.3,0.3-0.9,0.3-1.3,0c-1.1-1.1-1.1-2.8,0-3.8s2.8-1.1,3.8,0l7.5,7.5
		c0.6,0.6,0.9,1.4,0.9,2.2v5.9C29.6,41,29.2,41.4,28.7,41.4z"/>
	<path d="M32.8,21.2c-1.6,0-2.9-1.3-2.9-2.9c0-1.6,1.3-2.9,2.9-2.9c1.6,0,2.9,1.3,2.9,2.9C35.7,19.9,34.4,21.2,32.8,21.2z
		 M32.8,17.2c-0.6,0-1.1,0.5-1.1,1.1c0,0.6,0.5,1.1,1.1,1.1s1.1-0.5,1.1-1.1C33.9,17.7,33.4,17.2,32.8,17.2z"/>
	<path d="M36.8,28.3c-0.5,0-0.9-0.4-0.9-0.9c0-1.7-1.4-3.1-3.1-3.1c-1.7,0-3.1,1.4-3.1,3.1c0,0.5-0.4,0.9-0.9,0.9s-0.9-0.4-0.9-0.9
		c0-2.7,2.2-4.9,4.9-4.9s4.9,2.2,4.9,4.9C37.7,27.9,37.3,28.3,36.8,28.3z"/>
	<path d="M32.8,5.1c-1.6,0-2.9-1.3-2.9-2.9s1.3-2.9,2.9-2.9c1.6,0,2.9,1.3,2.9,2.9C35.7,3.8,34.4,5.1,32.8,5.1z M32.8,1.1
		c-0.6,0-1.1,0.5-1.1,1.1s0.5,1.1,1.1,1.1s1.1-0.5,1.1-1.1S33.4,1.1,32.8,1.1z"/>
	<path d="M36.8,12.2c-0.5,0-0.9-0.4-0.9-0.9c0-1.7-1.4-3.1-3.1-3.1c-1.7,0-3.1,1.4-3.1,3.1c0,0.5-0.4,0.9-0.9,0.9s-0.9-0.4-0.9-0.9
		c0-2.7,2.2-4.9,4.9-4.9s4.9,2.2,4.9,4.9C37.7,11.8,37.3,12.2,36.8,12.2z"/>
	<path d="M41.2,15.2c-1.6,0-2.9-1.3-2.9-2.9s1.3-2.9,2.9-2.9c1.6,0,2.9,1.3,2.9,2.9C44.1,13.9,42.8,15.2,41.2,15.2z M41.2,11.2
		c-0.6,0-1.1,0.5-1.1,1.1c0,0.6,0.5,1.1,1.1,1.1s1.1-0.5,1.1-1.1C42.4,11.7,41.9,11.2,41.2,11.2z"/>
	<path d="M45.3,22.2c-0.5,0-0.9-0.4-0.9-0.9c0-1.7-1.4-3.1-3.1-3.1s-3.1,1.4-3.1,3.1c0,0.5-0.4,0.9-0.9,0.9c-0.5,0-0.9-0.4-0.9-0.9
		c0-2.7,2.2-4.9,4.9-4.9s4.9,2.2,4.9,4.9C46.2,21.8,45.8,22.2,45.3,22.2z"/>
	<path d="M24.3,15.2c-1.6,0-2.9-1.3-2.9-2.9c0-1.6,1.3-2.9,2.9-2.9c1.6,0,2.9,1.3,2.9,2.9v0C27.2,13.9,25.9,15.2,24.3,15.2z
		 M24.3,11.2c-0.6,0-1.1,0.5-1.1,1.1c0,0.6,0.5,1.1,1.1,1.1s1.1-0.5,1.1-1.1l0,0C25.4,11.7,24.9,11.2,24.3,11.2z"/>
	<path d="M28.3,22.2c-0.5,0-0.9-0.4-0.9-0.9c0-1.7-1.4-3.1-3.1-3.1s-3.1,1.4-3.1,3.1c0,0.5-0.4,0.9-0.9,0.9c-0.5,0-0.9-0.4-0.9-0.9
		c0-2.7,2.2-4.9,4.9-4.9s4.9,2.2,4.9,4.9C29.2,21.8,28.8,22.2,28.3,22.2z"/>
	<path d="M44.1,41.4c-0.5,0-0.9-0.4-0.9-0.9v-3c0-0.2,0.1-0.5,0.3-0.6l8.6-8.6c0.3-0.3,0.5-0.7,0.4-1.1v-8.4c0-0.8-0.7-1.5-1.5-1.5
		c-0.8,0-1.5,0.7-1.5,1.5v8.7c0,0.2-0.1,0.5-0.3,0.6l-5.3,5.3c-0.3,0.3-0.9,0.3-1.3,0c-0.3-0.3-0.3-0.9,0-1.3l5-5v-8.3
		c0-1.8,1.5-3.3,3.3-3.3s3.3,1.5,3.3,3.3v8.4c0,0.9-0.3,1.7-1,2.3L45,37.8v2.7C45,41,44.6,41.4,44.1,41.4z"/>
	<path d="M37.3,41.4c-0.5,0-0.9-0.4-0.9-0.9v-6c0-0.8,0.3-1.6,0.9-2.2l7.6-7.5c1.1-1.1,2.8-1.1,3.8,0c1.1,1.1,1.1,2.8,0,3.8
		c-0.3,0.3-0.9,0.3-1.3,0c-0.3-0.3-0.3-0.9,0-1.3c0.4-0.4,0.4-0.9,0-1.3s-0.9-0.4-1.3,0l0,0l-7.5,7.5c-0.3,0.3-0.4,0.6-0.4,0.9v6
		C38.1,41,37.7,41.4,37.3,41.4z"/>
</g>
</svg>
