<?xml version="1.0" encoding="UTF-8"?> <svg xmlns="http://www.w3.org/2000/svg" xmlns:xlink="http://www.w3.org/1999/xlink" width="29pt" height="29pt" viewBox="0 0 29 29" version="1.1"><g id="surface1"><path style=" stroke:none;fill-rule:nonzero;fill:rgb(22.352941%,58.039216%,22.352941%);fill-opacity:1;" d="M 3.324219 26.828125 L 25.675781 26.828125 C 27.492188 26.828125 29 25.320312 29 23.503906 L 29 23.023438 C 29 22.65625 28.753906 22.417969 28.398438 22.417969 L 27.734375 22.417969 L 27.734375 8.039062 C 27.734375 6.589844 26.589844 5.441406 25.140625 5.441406 C 17.644531 5.441406 11.429688 5.441406 3.875 5.441406 C 2.425781 5.441406 1.277344 6.589844 1.277344 8.039062 L 1.277344 22.417969 L 0.601562 22.417969 C 0.238281 22.417969 0 22.664062 0 23.023438 L 0 23.503906 C 0 25.320312 1.507812 26.828125 3.324219 26.828125 Z M 12.449219 10.15625 L 12.449219 6.65625 L 16.550781 6.65625 L 16.550781 10.097656 C 16.550781 10.335938 16.671875 10.523438 16.855469 10.640625 C 18.367188 11.429688 19.453125 13.058594 19.453125 14.992188 C 19.453125 16.558594 18.722656 17.949219 17.578125 18.917969 L 17.578125 15.59375 C 17.578125 15.230469 17.332031 14.992188 16.976562 14.992188 L 12.082031 14.992188 C 11.71875 14.992188 11.480469 15.230469 11.480469 15.59375 L 11.480469 18.917969 C 10.269531 18.007812 9.605469 16.558594 9.605469 14.992188 C 9.605469 13.058594 10.691406 11.429688 12.203125 10.640625 C 12.320312 10.582031 12.449219 10.335938 12.449219 10.15625 Z M 2.476562 8.039062 C 2.476562 7.25 3.078125 6.648438 3.867188 6.648438 L 11.234375 6.648438 L 11.234375 9.726562 C 9.480469 10.8125 8.335938 12.746094 8.335938 14.984375 C 8.335938 17.339844 9.667969 19.453125 11.777344 20.546875 C 11.957031 20.664062 12.203125 20.605469 12.378906 20.546875 C 12.558594 20.425781 12.6875 20.242188 12.6875 20.0625 L 12.6875 16.253906 L 16.375 16.253906 L 16.375 20.0625 C 16.375 20.242188 16.492188 20.484375 16.679688 20.546875 C 16.855469 20.664062 17.101562 20.664062 17.28125 20.546875 C 19.394531 19.519531 20.722656 17.398438 20.722656 14.984375 C 20.722656 12.746094 19.511719 10.8125 17.824219 9.726562 L 17.824219 6.65625 L 25.191406 6.65625 C 25.980469 6.65625 26.582031 7.257812 26.582031 8.046875 L 26.582031 22.425781 L 2.476562 22.425781 Z M 1.875 23.632812 L 27.789062 23.632812 C 27.726562 24.71875 26.820312 25.566406 25.675781 25.566406 L 3.324219 25.566406 C 2.238281 25.566406 1.332031 24.71875 1.210938 23.632812 Z M 1.875 23.632812 "></path></g></svg> 