<?xml version="1.0" encoding="UTF-8"?> <svg xmlns="http://www.w3.org/2000/svg" xmlns:xlink="http://www.w3.org/1999/xlink" width="29pt" height="29pt" viewBox="0 0 29 29" version="1.1"><g id="surface1"><path style=" stroke:none;fill-rule:nonzero;fill:rgb(99.607843%,85.098039%,29.411765%);fill-opacity:1;" d="M 0.425781 12.015625 C 0.179688 12.074219 0 12.3125 0 12.550781 L 0 16.335938 C 0 16.574219 0.179688 16.820312 0.425781 16.9375 L 3.0625 17.71875 C 3.300781 18.558594 3.664062 19.398438 4.082031 20.179688 L 2.757812 22.640625 C 2.640625 22.878906 2.699219 23.183594 2.878906 23.363281 L 5.578125 26.0625 C 5.753906 26.242188 6.058594 26.300781 6.296875 26.183594 L 8.757812 24.859375 C 9.539062 25.28125 10.378906 25.640625 11.222656 25.875 L 12 28.515625 C 12.0625 28.753906 12.300781 28.941406 12.605469 28.941406 L 16.390625 28.941406 C 16.625 28.941406 16.871094 28.761719 16.992188 28.515625 L 17.773438 25.875 C 18.613281 25.640625 19.453125 25.273438 20.234375 24.859375 L 22.695312 26.183594 C 22.933594 26.300781 23.238281 26.242188 23.414062 26.0625 L 26.113281 23.363281 C 26.292969 23.183594 26.351562 22.878906 26.234375 22.640625 L 24.910156 20.179688 C 25.335938 19.398438 25.691406 18.558594 25.929688 17.71875 L 28.570312 16.9375 C 28.808594 16.878906 28.992188 16.640625 28.992188 16.335938 L 28.992188 12.550781 C 28.992188 12.3125 28.8125 12.070312 28.570312 11.949219 L 25.929688 11.167969 C 25.691406 10.328125 25.328125 9.488281 24.910156 8.707031 L 26.234375 6.246094 C 26.351562 6.007812 26.292969 5.703125 26.113281 5.523438 L 23.414062 2.824219 C 23.238281 2.648438 22.933594 2.585938 22.695312 2.707031 L 20.234375 4.03125 C 19.453125 3.605469 18.613281 3.25 17.773438 3.011719 L 16.992188 0.371094 C 16.8125 0.253906 16.566406 0.0742188 16.328125 0.0742188 L 12.542969 0.0742188 C 12.304688 0.0742188 12.0625 0.253906 11.941406 0.5 L 11.160156 3.136719 C 10.320312 3.375 9.480469 3.742188 8.699219 4.15625 L 6.246094 2.824219 C 6 2.707031 5.703125 2.765625 5.523438 2.945312 L 2.886719 5.652344 C 2.699219 5.828125 2.640625 6.128906 2.757812 6.371094 L 4.082031 8.832031 C 3.660156 9.613281 3.300781 10.453125 3.0625 11.296875 Z M 4.140625 11.832031 C 4.378906 10.871094 4.804688 9.972656 5.28125 9.070312 C 5.398438 8.894531 5.398438 8.648438 5.28125 8.46875 L 4.015625 6.128906 L 6.066406 4.089844 L 8.410156 5.355469 C 8.589844 5.472656 8.832031 5.472656 9.011719 5.355469 C 9.851562 4.8125 10.8125 4.453125 11.769531 4.214844 C 11.949219 4.15625 12.128906 4.039062 12.195312 3.792969 L 12.976562 1.273438 L 15.859375 1.273438 L 16.640625 3.792969 C 16.699219 3.972656 16.878906 4.148438 17.066406 4.214844 C 18.023438 4.453125 18.925781 4.878906 19.824219 5.355469 C 20.003906 5.472656 20.246094 5.472656 20.425781 5.355469 L 22.769531 4.089844 L 24.8125 6.132812 L 23.550781 8.476562 C 23.429688 8.65625 23.429688 8.902344 23.550781 9.078125 C 24.09375 9.917969 24.449219 10.878906 24.6875 11.839844 C 24.746094 12.015625 24.867188 12.195312 25.109375 12.261719 L 27.632812 13.042969 L 27.632812 15.925781 L 25.109375 16.707031 C 24.933594 16.769531 24.753906 16.945312 24.6875 17.132812 C 24.449219 18.089844 24.023438 18.992188 23.550781 19.890625 C 23.429688 20.070312 23.429688 20.316406 23.550781 20.492188 L 24.8125 22.835938 L 22.769531 24.878906 L 20.425781 23.617188 C 20.246094 23.496094 20.003906 23.496094 19.824219 23.617188 C 18.984375 24.160156 18.023438 24.515625 17.066406 24.753906 C 16.886719 24.8125 16.707031 24.933594 16.640625 25.179688 L 15.859375 27.699219 L 12.976562 27.699219 L 12.195312 25.179688 C 12.136719 25 11.957031 24.820312 11.769531 24.753906 C 10.8125 24.515625 9.910156 24.09375 9.011719 23.617188 C 8.832031 23.496094 8.589844 23.496094 8.410156 23.617188 L 6.066406 24.878906 L 4.023438 22.835938 L 5.285156 20.492188 C 5.40625 20.316406 5.40625 20.070312 5.285156 19.890625 C 4.742188 19.050781 4.386719 18.089844 4.148438 17.132812 C 4.089844 16.953125 3.972656 16.773438 3.726562 16.707031 L 1.203125 15.925781 L 1.203125 13.042969 L 3.726562 12.261719 C 3.964844 12.195312 4.082031 12.074219 4.140625 11.832031 Z M 4.140625 11.832031 "></path><path style=" stroke:none;fill-rule:nonzero;fill:rgb(99.607843%,85.098039%,29.411765%);fill-opacity:1;" d="M 14.410156 22.640625 C 18.917969 22.640625 22.574219 18.976562 22.574219 14.476562 C 22.574219 9.980469 18.910156 6.3125 14.410156 6.3125 C 9.910156 6.3125 6.246094 9.972656 6.246094 14.476562 C 6.246094 18.984375 9.90625 22.640625 14.410156 22.640625 Z M 7.441406 14.476562 C 7.441406 10.632812 10.566406 7.511719 14.410156 7.511719 C 18.253906 7.511719 21.378906 10.632812 21.378906 14.476562 C 21.378906 18.320312 18.253906 21.445312 14.410156 21.445312 C 13.453125 21.445312 12.550781 21.265625 11.710938 20.902344 L 13.816406 18.796875 C 15.554688 19.222656 17.355469 18.738281 18.621094 17.472656 C 19.816406 16.277344 20.300781 14.589844 20.003906 12.910156 C 19.941406 12.425781 19.339844 12.246094 18.984375 12.609375 L 16.582031 15.011719 L 13.882812 12.3125 L 16.285156 9.910156 C 16.640625 9.554688 16.464844 9.011719 15.988281 8.894531 C 14.308594 8.597656 12.625 9.070312 11.421875 10.277344 C 10.15625 11.539062 9.679688 13.339844 10.097656 15.078125 L 7.992188 17.183594 C 7.621094 16.394531 7.441406 15.4375 7.441406 14.476562 Z M 11.167969 15.675781 C 11.347656 15.496094 11.40625 15.25 11.289062 15.074219 C 10.804688 13.691406 11.167969 12.128906 12.246094 11.109375 C 12.847656 10.507812 13.628906 10.148438 14.410156 10.03125 L 12.609375 11.898438 C 12.375 12.136719 12.375 12.5 12.609375 12.738281 L 16.152344 16.277344 C 16.507812 16.632812 16.871094 16.394531 16.992188 16.277344 L 18.851562 14.417969 C 18.730469 15.257812 18.367188 15.980469 17.773438 16.582031 C 16.753906 17.601562 15.25 17.964844 13.808594 17.542969 C 13.570312 17.480469 13.324219 17.542969 13.207031 17.660156 L 10.625 20.242188 C 9.84375 19.699219 9.125 19.042969 8.648438 18.261719 Z M 11.167969 15.675781 "></path></g></svg> 