<?xml version="1.0" encoding="UTF-8"?> <svg xmlns="http://www.w3.org/2000/svg" xmlns:xlink="http://www.w3.org/1999/xlink" width="29pt" height="29pt" viewBox="0 0 29 29" version="1.1"><g id="surface1"><path style=" stroke:none;fill-rule:nonzero;fill:rgb(25.098039%,76.862745%,100%);fill-opacity:1;" d="M 25.304688 0.347656 C 25.089844 0.222656 24.820312 0.222656 24.605469 0.347656 C 24.5625 0.371094 24.523438 0.402344 24.488281 0.429688 C 24.449219 0.460938 24.417969 0.492188 24.398438 0.527344 C 24.300781 0.648438 24.25 0.796875 24.257812 0.945312 L 24.257812 5.546875 L 21.839844 6.945312 L 19.421875 5.546875 L 19.421875 0.945312 C 19.421875 0.714844 19.304688 0.5 19.109375 0.371094 L 19.074219 0.34375 C 18.96875 0.28125 18.851562 0.246094 18.722656 0.246094 L 5.070312 0.246094 C 2.195312 0.253906 -0.132812 2.582031 -0.132812 5.457031 L -0.132812 17.496094 C -0.132812 20.375 2.195312 22.703125 5.070312 22.710938 L 5.875 22.710938 L 5.875 26.523438 C 5.875 27.742188 6.855469 28.730469 8.074219 28.730469 C 8.074219 28.730469 8.074219 28.730469 8.082031 28.730469 C 8.664062 28.730469 9.21875 28.496094 9.628906 28.070312 L 15.019531 22.710938 L 18.382812 22.710938 C 18.382812 22.746094 18.382812 22.792969 18.382812 22.828125 C 18.730469 24.515625 20.226562 25.726562 21.957031 25.726562 C 23.929688 25.722656 25.535156 24.167969 25.609375 22.195312 C 25.609375 22.160156 25.609375 22.113281 25.609375 22.078125 L 25.609375 12.21875 C 26.835938 11.414062 27.78125 10.246094 28.316406 8.878906 C 28.628906 8.082031 28.785156 7.234375 28.785156 6.378906 C 28.769531 3.894531 27.453125 1.597656 25.304688 0.347656 Z M 18.328125 21.320312 L 14.722656 21.320312 C 14.539062 21.320312 14.359375 21.394531 14.230469 21.527344 L 8.648438 27.109375 C 8.433594 27.347656 8.089844 27.421875 7.792969 27.296875 C 7.488281 27.171875 7.289062 26.875 7.292969 26.546875 L 7.292969 22.03125 C 7.292969 21.644531 6.980469 21.332031 6.59375 21.332031 L 5.070312 21.332031 C 2.96875 21.324219 1.265625 19.625 1.265625 17.519531 L 1.265625 5.464844 C 1.265625 3.359375 2.96875 1.660156 5.070312 1.652344 L 16.761719 1.652344 L 16.65625 1.769531 C 14.105469 4.640625 14.367188 9.027344 17.238281 11.578125 C 17.578125 11.882812 17.941406 12.148438 18.335938 12.378906 Z M 27.410156 6.425781 C 27.402344 7.167969 27.246094 7.90625 26.941406 8.582031 C 26.820312 8.855469 26.6875 9.117188 26.53125 9.371094 C 26.039062 10.140625 25.363281 10.78125 24.5625 11.226562 C 24.324219 11.355469 24.1875 11.613281 24.203125 11.882812 L 24.203125 22.085938 C 24.203125 22.261719 24.179688 22.441406 24.136719 22.613281 C 23.890625 23.625 22.984375 24.335938 21.941406 24.34375 C 21.347656 24.335938 20.785156 24.09375 20.367188 23.667969 C 20.097656 23.402344 19.898438 23.074219 19.800781 22.703125 C 19.742188 22.5 19.710938 22.285156 19.710938 22.078125 L 19.710938 11.964844 C 19.710938 11.703125 19.5625 11.457031 19.332031 11.339844 C 16.597656 9.949219 15.503906 6.609375 16.886719 3.875 C 17.175781 3.292969 17.570312 2.773438 18.039062 2.335938 L 18.039062 5.964844 C 18.023438 6.214844 18.152344 6.453125 18.367188 6.589844 L 21.480469 8.386719 C 21.699219 8.515625 21.964844 8.515625 22.179688 8.386719 L 25.296875 6.589844 C 25.511719 6.460938 25.644531 6.230469 25.644531 5.984375 L 25.644531 2.335938 C 26.761719 3.382812 27.394531 4.847656 27.394531 6.378906 Z M 27.410156 6.425781 "></path><path style=" stroke:none;fill-rule:nonzero;fill:rgb(25.098039%,76.862745%,100%);fill-opacity:1;" d="M 4.667969 8.773438 L 9.160156 8.773438 C 9.546875 8.773438 9.859375 8.460938 9.859375 8.074219 C 9.859375 7.6875 9.546875 7.375 9.160156 7.375 L 4.667969 7.375 C 4.28125 7.375 3.972656 7.6875 3.972656 8.074219 C 3.972656 8.460938 4.289062 8.773438 4.667969 8.773438 Z M 4.667969 8.773438 "></path><path style=" stroke:none;fill-rule:nonzero;fill:rgb(25.098039%,76.862745%,100%);fill-opacity:1;" d="M 4.667969 12.171875 L 11.488281 12.171875 C 11.875 12.171875 12.1875 11.859375 12.1875 11.472656 C 12.1875 11.085938 11.875 10.773438 11.488281 10.773438 L 4.667969 10.773438 C 4.28125 10.773438 3.972656 11.085938 3.972656 11.472656 C 3.976562 11.859375 4.289062 12.171875 4.667969 12.171875 Z M 4.667969 12.171875 "></path><path style=" stroke:none;fill-rule:nonzero;fill:rgb(25.098039%,76.862745%,100%);fill-opacity:1;" d="M 14.753906 14.1875 L 4.667969 14.1875 C 4.28125 14.1875 3.972656 14.5 3.972656 14.886719 C 3.972656 15.273438 4.28125 15.585938 4.667969 15.585938 L 14.746094 15.585938 C 15.132812 15.585938 15.445312 15.273438 15.445312 14.886719 C 15.445312 14.5 15.132812 14.1875 14.753906 14.1875 Z M 14.753906 14.1875 "></path></g></svg> 