<?xml version="1.0" encoding="utf-8"?>
<!-- Generator: Adobe Illustrator 24.3.0, SVG Export Plug-In . SVG Version: 6.00 Build 0)  -->
<svg version="1.1" id="b66c9c51-8109-402d-a3f9-100a5bb3d153"
	 xmlns="http://www.w3.org/2000/svg" xmlns:xlink="http://www.w3.org/1999/xlink" x="0px" y="0px" viewBox="0 0 890.3 489.3"
	 style="enable-background:new 0 0 890.3 489.3;" xml:space="preserve">
<style type="text/css">
	.st0{opacity:0.57;fill:#B3D1E0;enable-background:new    ;}
	.st1{fill:#FFFFFF;}
	.st2{fill:#E6E6E6;}
	.st3{fill:#3F3D56;}
	.st4{opacity:0.39;fill:#EF0F54;enable-background:new    ;}
	.st5{opacity:0.58;fill:#E5E520;enable-background:new    ;}
	.st6{opacity:0.5;fill:#41D845;enable-background:new    ;}
	.st7{opacity:0.42;fill:#E5E520;enable-background:new    ;}
	.st8{opacity:0.64;fill:#17DD5E;enable-background:new    ;}
	.st9{opacity:0.39;fill:#2DBAE0;enable-background:new    ;}
	.st10{opacity:0.54;fill:#2925D6;enable-background:new    ;}
	.st11{opacity:0.58;fill:#EF0F54;enable-background:new    ;}
	.st12{fill:#FFB8B8;}
	.st13{fill:#2F2E41;}
	.st14{fill:#434382;}
	.st15{opacity:0.81;fill:#E58883;enable-background:new    ;}
	.st16{fill:#575A89;}
	.st17{opacity:0.2;enable-background:new    ;}
	.st18{opacity:0.5;fill:#EF0F54;enable-background:new    ;}
	.st19{opacity:0.81;fill:#56D891;enable-background:new    ;}
	.st20{opacity:0.79;fill:#56D891;enable-background:new    ;}
</style>
<path class="st0" d="M424.2,9C643.3,31.5,754.9,117.6,825,227.1c133.2,208.3-52.3,99.6-400.8,218.1
	C97.8,556.2,23.9,365.5,23.4,227.1C22.8,77.7,188.1-15.2,424.2,9z"/>
<path class="st1" d="M293.3,60.9h120.3c17.5,0,31.6,14.2,31.6,31.6V283c0,17.5-14.2,31.6-31.6,31.6H276.8
	c-17.5,0-31.6-14.2-31.6-31.6V109C245.2,82.4,266.7,60.9,293.3,60.9z"/>
<ellipse class="st2" cx="704.8" cy="477.3" rx="45.5" ry="6.5"/>
<ellipse class="st2" cx="130.4" cy="470.9" rx="104.4" ry="5"/>
<path class="st3" d="M649,135h-1.5V92.9c0-13.5-10.9-24.4-24.4-24.4l0,0h-89.3c-13.5,0-24.4,10.9-24.4,24.4l0,0v231.2
	c0,13.5,10.9,24.4,24.4,24.4l0,0H623c13.5,0,24.4-10.9,24.4-24.4l0,0V165h1.5L649,135z"/>
<path class="st1" d="M624,74.8h-11.7c1.8,4.4-0.3,9.5-4.7,11.3c-1,0.4-2.1,0.6-3.3,0.6h-51.2c-4.8,0-8.7-3.9-8.7-8.7
	c0-1.1,0.2-2.2,0.6-3.3h-10.9c-10.1,0-18.2,8.2-18.2,18.2l0,0V324c0,10.1,8.2,18.2,18.2,18.2l0,0H624c10.1,0,18.2-8.2,18.2-18.2l0,0
	V93C642.2,83,634.1,74.8,624,74.8L624,74.8z"/>
<rect x="284.1" y="225.8" class="st4" width="118.9" height="6.1"/>
<rect x="284.1" y="251.8" class="st5" width="118.9" height="8.1"/>
<rect x="284.1" y="277.8" class="st6" width="118.9" height="8.1"/>
<rect x="529.5" y="224.8" class="st2" width="103.1" height="8.1"/>
<rect x="530.5" y="244.6" class="st2" width="103.1" height="8.1"/>
<rect x="530.8" y="293.3" class="st2" width="103.1" height="8.1"/>
<rect x="627.5" y="401.2" class="st7" width="17.2" height="17.2"/>
<rect x="599.8" y="401.2" class="st8" width="17.2" height="17.2"/>
<rect x="572.2" y="401.2" class="st9" width="17.2" height="17.2"/>
<rect x="544.5" y="401.2" class="st10" width="17.2" height="17.2"/>
<rect x="516.8" y="401.2" class="st11" width="17.2" height="17.2"/>
<path class="st12" d="M141.1,359.8l-2.9,1.4c0,0-11.4,5.2-8.1,8.1c3.3,2.9,12.4-2.9,12.4-2.9l1.9-2.4L141.1,359.8z"/>
<polygon class="st13" points="224.6,359.1 215.8,418.3 202.5,459.7 195.3,456.4 202,399.8 183,383.6 184.4,359.8 "/>
<path class="st13" d="M194.4,457.8c0,0,8.1-4.3,8.6,1.9l-1,6.2c0,0,2.9,10.9-6.7,8.6s-2.9-9.5-2.9-9.5L194.4,457.8z"/>
<path class="st13" d="M189.2,378.4l-6.2,5.2c0,0,0,32.4,4.3,37.1s31.4,29,32.4,30s5.2-9.5,5.2-9.5l-25.7-30l1.9-18.6L189.2,378.4z"
	/>
<path class="st13" d="M196,439.8c0,0,7.6-1.4,7.6,3.8c0.1,4.1,0.4,8.3,1,12.4c0,0,1.9,16.7-4.3,14.3s-8.6-19-8.6-19
	c0.6-1.4,1.6-2.6,2.9-3.3C196.5,446.9,196,439.8,196,439.8z"/>
<polygon class="st12" points="198.2,288.4 199.6,306 195.8,312.7 185.3,302.7 184.4,289.4 "/>
<circle class="st12" cx="189.6" cy="282.7" r="11.4"/>
<polygon class="st1" points="194.4,305.6 199.1,291.8 207.7,301.3 223.4,361.7 211.5,368.9 206.3,361.2 205.3,371.2 182,366.5 
	180.1,302.7 184.9,296 "/>
<polygon class="st14" points="187.7,373.1 184.9,296 178.7,300.8 167.3,308.4 174.9,335.5 177.3,364.1 "/>
<polygon class="st14" points="170.6,308.9 167.3,308.4 157.7,336.5 138.7,360.3 145.8,367.9 167.7,346.5 175.8,328.9 "/>
<path class="st12" d="M222.4,359.2l-0.6,3.1c0,0-3,12.2,1.3,11.4s5.4-11.5,5.4-11.5l-0.7-3H222.4z"/>
<polygon class="st14" points="198.4,291 222,300.3 219.1,328.9 224.8,360.3 219.1,366.5 198,295 "/>
<path class="st13" d="M190.2,263.5l3.4-1.7v1.7l2.2-1.1v2.8c0,0,8.4,6.1,6.7,13.4s-1.7,7.8-1.7,7.8s-2.1-13.8-10.5-11.6
	c-8.4,2.2-9.1,2.6-11.3,8.8l-0.6,2.6C178.4,286.3,169,264.6,190.2,263.5z"/>
<polygon class="st14" points="220.3,300.3 224.1,300.3 230.3,333.6 230.3,362.7 222.7,361.2 216.5,317.5 "/>
<rect x="29.5" y="370.8" class="st15" width="140.3" height="97.5"/>
<path class="st1" d="M99.7,389.8c-16.4,0-29.7,13.3-29.7,29.7s13.3,29.7,29.7,29.7s29.7-13.3,29.7-29.7
	C129.4,403.1,116.1,389.8,99.7,389.8z M99.7,398.7c4.9,0,8.9,4,8.9,8.9s-4,8.9-8.9,8.9s-8.9-4-8.9-8.9l0,0
	C90.8,402.7,94.8,398.7,99.7,398.7z M99.7,441.7c-7.2,0-13.8-3.6-17.8-9.5c0.1-5.9,11.9-9.2,17.8-9.2s17.7,3.3,17.8,9.2
	C113.5,438.1,106.8,441.6,99.7,441.7z"/>
<path class="st12" d="M668.2,291.2l0.8-5.3c0,0,4.8-10.8,1-11.4s-6.9,9.7-6.9,9.7l1.4,11L668.2,291.2z"/>
<polygon class="st16" points="706.7,321.1 673.1,314.3 669.2,289.8 659.3,289.1 659.8,320.7 689,336 "/>
<polygon class="st17" points="706.7,321.1 673.1,314.3 669.2,289.8 659.3,289.1 659.8,320.7 689,336 "/>
<rect x="615.3" y="276.7" class="st18" width="103.1" height="8.1"/>
<path class="st12" d="M661.6,289.4v-5.3c0,0,3.1-11.4-0.7-11.4s-5.3,10.6-5.3,10.6l3,10.6L661.6,289.4z"/>
<path class="st13" d="M705.4,304.7l4.6-1.1c6.6,0,11.9-5.3,11.9-11.8c0-0.8-0.1-1.6-0.2-2.4l0,0c0-8.6-6.9-15.5-15.5-15.5l0,0l0,0
	c-8.6,0-15.5,6.9-15.5,15.5l0,0l0,0c-1.9,6.5,1.9,13.4,8.4,15.2C701.1,305.1,703.3,305.2,705.4,304.7z"/>
<polygon class="st13" points="678.3,381.5 682,422.5 688.8,462.8 700.2,462.8 698.7,423.3 692.7,375.4 "/>
<path class="st13" d="M690.3,460.6l-7.6,4.6c0,0-12.2,1.5-9.9,5.3s28.9,1.6,28.9,0s-0.7-9.9-2.3-9.9H690.3z"/>
<path class="st13" d="M711.9,377.9c0,0-0.2,5.9-5.5,15l0.7,28.1l27.3,35l-9.9,8.4l-33.4-38.1l-8.3-45.6l10.7-10.6L711.9,377.9z"/>
<path class="st13" d="M732.1,456c0,0,9.1,1.5,7.6,5.3s-5.3,21.3-15.2,19c0,0-4.6,0-3-3c0.9-1.8,1.9-3.6,3-5.3v-9.9L732.1,456z"/>
<circle class="st12" cx="700.4" cy="294" r="11.4"/>
<polygon class="st12" points="705.7,301.7 705.7,314.6 693.5,314.6 695.1,301.6 "/>
<path class="st16" d="M690.5,310l3.7-0.9l11.5,0.9c0,0,6.1,6.1,5.3,7.6s-4.6,38.8-4.6,38.8l6.8,26.6l-24.3,1.5l-12.2-1.5l2.3-47.9
	c0,0-5.3-12.9,1.5-16.7C684.5,316.3,687.9,313.5,690.5,310z"/>
<polygon class="st16" points="704.2,313.1 670,311.5 662.4,287.9 652.5,288.7 657.8,319.8 689,330.5 "/>
<circle class="st13" cx="722.4" cy="278.3" r="7.4"/>
<path class="st13" d="M715.6,274.3c0-4.1,3.3-7.4,7.4-7.3c0.5,0,1,0,1.4,0.1c-3.7-1.7-8.1-0.2-9.8,3.5s-0.2,8.1,3.5,9.8
	c0.5,0.3,1.1,0.4,1.7,0.6C717.3,279.8,715.6,277.2,715.6,274.3z"/>
<path class="st13" d="M709.3,278.5l-9.9-1.8l-7.6,4.8c-3.8,2.4-5.9,6.8-5.3,11.3l7.6-1.9l1.7-4.3l2,3.3l8.3,14.5l8.4-4.6l5.3-8.4
	L709.3,278.5z"/>
<path class="st19" d="M579.2,108.5c-16.4,0-29.7,13.3-29.7,29.7s13.3,29.7,29.7,29.7s29.7-13.3,29.7-29.7
	C608.8,121.8,595.6,108.5,579.2,108.5z M579.2,117.4c4.9,0,8.9,4,8.9,8.9s-4,8.9-8.9,8.9s-8.9-4-8.9-8.9l0,0
	C570.3,121.4,574.2,117.4,579.2,117.4z M579.2,160.3c-7.2,0-13.8-3.6-17.8-9.5c0.1-5.9,11.9-9.2,17.8-9.2s17.7,3.3,17.8,9.2
	C593,156.7,586.3,160.3,579.2,160.3z"/>
<path class="st13" d="M225,438.7c0,0,9.1,1.5,7.6,5.3s-5.3,21.3-15.2,19c0,0-4.6,0-3-3c0.9-1.8,1.9-3.6,3-5.3v-9.9L225,438.7z"/>
<path class="st20" d="M345.2,120.4c-16.4,0-29.7,13.3-29.7,29.7s13.3,29.7,29.7,29.7s29.7-13.3,29.7-29.7
	C374.8,133.7,361.6,120.4,345.2,120.4z M345.2,129.3c4.9,0,8.9,4,8.9,8.9s-4,8.9-8.9,8.9s-8.9-4-8.9-8.9l0,0
	C336.3,133.3,340.3,129.3,345.2,129.3z M345.2,172.2c-7.2,0-13.8-3.6-17.8-9.5c0.1-5.9,11.9-9.2,17.8-9.2s17.7,3.3,17.8,9.2
	C359,168.6,352.3,172.2,345.2,172.2z"/>
</svg>
