<?xml version="1.0" encoding="UTF-8"?> <!-- Generator: Adobe Illustrator 25.1.0, SVG Export Plug-In . SVG Version: 6.00 Build 0) --> <svg xmlns="http://www.w3.org/2000/svg" xmlns:xlink="http://www.w3.org/1999/xlink" version="1.1" id="Layer_1" x="0px" y="0px" viewBox="0 0 30 30" style="enable-background:new 0 0 30 30;" xml:space="preserve"> <style type="text/css"> .st0{fill:url(#SVGID_1_);} .st1{fill:url(#SVGID_2_);} .st2{fill:#FFFFFF;} </style> <g> <linearGradient id="SVGID_1_" gradientUnits="userSpaceOnUse" x1="-1703.8413" y1="-1210.2029" x2="-1703.2668" y2="-1206.9454" gradientTransform="matrix(-9.7656 0 0 9.7656 -16621.3789 11817.3281)"> <stop offset="0" style="stop-color:#FAAE42"></stop> <stop offset="1" style="stop-color:#EF3E31"></stop> </linearGradient> <path class="st0" d="M6.6,0h16.4c0.8,0,1.6,0.1,2.3,0.4c1.1,0.4,2.1,1.1,2.8,2c0.8,0.9,1.3,2,1.4,3.2c0.1,0.4,0.1,0.9,0.1,1.3v16 c0,0.5,0,1-0.1,1.5c-0.2,1.1-0.8,2.2-1.6,3.1c-0.8,0.9-1.8,1.5-2.9,1.9c-0.7,0.2-1.4,0.3-2.1,0.3c-0.3,0-16.5,0-16.7,0 C5.1,29.6,4,29.2,3,28.6C2,27.9,1.2,27,0.7,26c-0.4-0.9-0.7-1.9-0.7-2.9V6.6c0-1,0.2-2,0.6-2.8c0.5-1,1.3-2,2.2-2.6 c1-0.7,2.1-1.1,3.3-1.1C6.4,0,6.5,0,6.6,0z"></path> <linearGradient id="SVGID_2_" gradientUnits="userSpaceOnUse" x1="-5.627" y1="35.5411" x2="-6.0476" y2="33.1556" gradientTransform="matrix(9.7656 0 0 -9.7656 70.125 347.5625)"> <stop offset="0" style="stop-color:#E39F3A"></stop> <stop offset="1" style="stop-color:#D33929"></stop> </linearGradient> <path class="st1" d="M25.1,24.3c-0.1-0.2-0.2-0.3-0.3-0.5c-0.3-0.3-0.6-0.6-1-0.9c-0.5-0.3-1-0.5-1.6-0.5c-0.4,0-0.8,0-1.2,0.2 c-0.4,0.1-0.7,0.3-1.1,0.5c-0.4,0.2-0.8,0.4-1.2,0.6c-0.5,0.2-1,0.4-1.6,0.5c-0.7,0.1-1.4,0.2-2.1,0.2c-1.2,0-2.5-0.2-3.7-0.6 c-1-0.3-2-0.7-3-1.3c-0.8-0.5-1.6-1-2.3-1.6c-0.6-0.5-1.1-1.1-1.6-1.6c-0.3-0.4-0.7-0.8-1-1.3c-0.1-0.2-0.2-0.4-0.3-0.5L0,14.1V6.6 C0,2.9,3,0,6.6,0h5.9l4.3,4.4c9.8,6.7,6.6,14,6.6,14S26.2,21.5,25.1,24.3z"></path> <path class="st2" d="M16.8,4.4c9.8,6.7,6.6,14,6.6,14s2.8,3.1,1.7,5.9c0,0-1.1-1.9-3.1-1.9c-1.9,0-2.9,1.9-6.7,1.9 c-8.3,0-12.2-6.9-12.2-6.9c7.5,4.9,12.6,1.4,12.6,1.4C12.3,16.8,5.1,7.5,5.1,7.5c6.3,5.3,9,6.7,9,6.7C12.5,12.9,8,6.3,8,6.3 c3.6,3.7,10.8,8.8,10.8,8.8C20.8,9.5,16.8,4.4,16.8,4.4z"></path> </g> </svg> 