<?xml version="1.0" encoding="UTF-8"?> <svg xmlns="http://www.w3.org/2000/svg" width="45" height="45" viewBox="0 0 45 45" fill="none"><circle cx="22.5" cy="22.5" r="22.5" fill="#EFF5FF"></circle><g clip-path="url(#clip0_422_472)"><rect x="28.2089" y="20.8209" width="2.68657" height="4.70149" fill="#FFCA00"></rect><rect x="20.8208" y="29.5522" width="3.35821" height="1.34328" fill="#FFCA00"></rect><path d="M22.7142 14C24.4304 14 26.0194 14.6818 27.2285 15.9193C28.3224 17.0406 28.9743 18.4847 29.087 20.0561H28.6797C28.0696 20.0561 27.5821 20.5476 27.5821 21.1596V25.0086C27.5821 25.5338 27.9514 25.982 28.4489 26.0888C27.7271 27.5376 26.4287 28.6738 24.8759 29.2246C24.6861 28.8701 24.3241 28.6455 23.9029 28.6455L21.5253 28.6456C20.9152 28.6456 20.4278 29.1372 20.4278 29.7491V30.5103C20.4278 31.1222 20.9152 31.6138 21.5253 31.6138H23.9245C24.5346 31.6138 25.0221 31.1222 25.0221 30.5103V30.2975C27.1075 29.6271 28.7916 28.0828 29.6273 26.1122H30.6032C31.2133 26.1122 31.7008 25.6207 31.7008 25.0087V21.1816C31.7008 20.5697 31.2133 20.078 30.6032 20.078H30.1597C30.0455 18.2435 29.2814 16.5213 27.9912 15.2014C26.5846 13.7422 24.7151 12.9454 22.7142 12.9454C19.0185 12.9454 15.9431 15.7114 15.3502 19.3347L15.3264 19.4799H15.4735H16.2301H16.2949H16.3993L16.4179 19.3771C16.9697 16.3234 19.5795 14 22.7142 14ZM23.9724 29.7492V30.5104C23.9724 30.5236 23.9672 30.5369 23.9591 30.5458C23.9525 30.553 23.9425 30.5593 23.9245 30.5593H21.5254C21.5128 30.5593 21.5 30.5543 21.4912 30.5462C21.484 30.5396 21.4774 30.5292 21.4774 30.5104V29.7492C21.4774 29.7359 21.4827 29.7227 21.4908 29.7138C21.4974 29.7065 21.5073 29.7002 21.5254 29.7002H23.9067C23.9275 29.7073 23.9461 29.7181 23.9586 29.7297C23.9658 29.7363 23.9694 29.7417 23.9711 29.7449C23.9725 29.7477 23.9724 29.7488 23.9724 29.7492ZM30.6511 25.0304C30.6511 25.0437 30.6459 25.0569 30.6378 25.0659C30.6312 25.0731 30.6212 25.0794 30.6032 25.0794H28.7011C28.6886 25.0794 28.6758 25.0744 28.667 25.0663C28.6598 25.0597 28.6532 25.0493 28.6532 25.0304L28.6534 21.1816C28.6534 21.1683 28.6586 21.1551 28.6667 21.1462C28.6733 21.1389 28.6833 21.1326 28.7013 21.1326H30.6033C30.6159 21.1326 30.6287 21.1376 30.6375 21.1457C30.6447 21.1524 30.6513 21.1627 30.6513 21.1816L30.6511 25.0304Z" fill="#2176FF" stroke="#2176FF" stroke-width="0.25"></path><path d="M19.6187 22.6386C19.6189 22.4586 19.5118 22.2897 19.3596 22.1938M19.6187 22.6386L19.4937 22.6384H19.6187V22.6386ZM19.6187 22.6386V23.53C19.6187 23.7562 19.4788 23.9522 19.2839 24.0362L19.2758 24.0397L19.2757 24.0394L18.836 24.1932M19.3596 22.1938L19.4937 23.53C19.4937 23.7039 19.3858 23.8562 19.2344 23.9214L18.7373 24.0954M19.3596 22.1938V22.1801L19.2759 22.1508L18.8362 21.9969C18.8035 21.9035 18.7689 21.8176 18.7242 21.7232L18.9162 21.2982L18.9162 21.2982L18.9173 21.2957C19.0005 21.1004 18.9729 20.8714 18.8046 20.7019L18.8046 20.7019L18.1779 20.0713C18.0094 19.9018 17.7807 19.8736 17.5857 19.9578L17.5857 19.9578L17.5832 19.9589L17.1652 20.1501C17.0767 20.1045 16.9809 20.0697 16.8904 20.0389L16.7375 19.5968L16.7378 19.5967L16.7344 19.5887C16.6512 19.3932 16.4564 19.2518 16.2304 19.2518C16.2304 19.2518 16.2304 19.2518 16.2304 19.2518L15.3441 19.2516H15.344C15.1178 19.2516 14.9233 19.3933 14.8401 19.5885L14.8398 19.5884L14.8369 19.5967L14.6839 20.0393C14.5913 20.072 14.5062 20.1067 14.4128 20.1516L13.9912 19.9587L13.9912 19.9587L13.9887 19.9576C13.794 19.8737 13.566 19.9016 13.3974 20.0704L12.7714 20.6787L12.7714 20.6787L12.7699 20.6802C12.6016 20.8495 12.5738 21.0787 12.6572 21.2741L12.6571 21.2741L12.6582 21.2765L12.8487 21.698C12.8031 21.7872 12.7685 21.884 12.7378 21.9754L12.2986 22.1291L12.2985 22.1288L12.2904 22.1323C12.0955 22.2163 11.9556 22.4123 11.9556 22.6384V23.53C11.9556 23.7564 12.0957 23.9522 12.2904 24.0362L12.2903 24.0364L12.2986 24.0394L12.7382 24.1932M19.3596 22.1938L12.8503 24.467M18.836 24.1932C18.8427 24.1741 18.8494 24.1546 18.856 24.1347L18.7373 24.0954M18.836 24.1932L18.7786 24.2133L18.7373 24.0954M18.836 24.1932C18.8033 24.2867 18.7687 24.3726 18.724 24.4669M18.7373 24.0954C18.6941 24.2258 18.6508 24.3346 18.586 24.465M18.586 24.465L18.6999 24.4135L18.724 24.4669M18.586 24.465L18.6979 24.5206C18.707 24.5024 18.7157 24.4845 18.724 24.4669M18.586 24.465L17.1615 26.0384M18.724 24.4669L18.9161 24.8919L18.9172 24.8943L18.9171 24.8944C19.0005 25.0898 18.9727 25.3189 18.8044 25.4883L18.1777 26.1188L18.1776 26.1189C18.009 26.2883 17.7806 26.3164 17.5856 26.2324L17.5831 26.2313L17.5831 26.2313L17.1615 26.0384M17.1615 26.0384C17.1793 26.0299 17.1974 26.021 17.2159 26.0117L17.1596 25.9001L17.1076 26.0137L17.1615 26.0384ZM17.1615 26.0384C17.0681 26.0833 16.9829 26.118 16.8904 26.1507M17.1615 26.0384L14.7821 26.0524M16.8904 26.1507L16.9103 26.0932L16.7922 26.0524L16.8319 26.1709C16.8518 26.1642 16.8713 26.1575 16.8904 26.1507ZM16.8904 26.1507L16.7374 26.5933L16.7345 26.6016L16.7342 26.6015C16.651 26.7967 16.4565 26.9384 16.2303 26.9384H15.344C15.1181 26.9384 14.9233 26.7969 14.8401 26.6014L14.8366 26.5934L14.8369 26.5933L14.6839 26.1507M14.6839 26.1507C14.703 26.1575 14.7225 26.1642 14.7424 26.1709L14.7821 26.0524M14.6839 26.1507L14.664 26.0932L14.7821 26.0524M14.6839 26.1507C14.5913 26.1179 14.5062 26.0832 14.4128 26.0384M14.7821 26.0524C14.6525 26.0088 14.5444 25.9653 14.4147 25.9001M14.4128 26.0384L14.4667 26.0137L14.4147 25.9001M14.4128 26.0384L13.9912 26.2313L13.9888 26.2324L13.9888 26.2324C13.7937 26.3166 13.5651 26.2883 13.3966 26.1188L12.7699 25.4883L12.7698 25.4882C12.6015 25.3187 12.574 25.0897 12.6571 24.8944L12.6582 24.8919L12.6582 24.8919L12.8503 24.467M14.4128 26.0384C14.3951 26.0299 14.377 26.021 14.3586 26.0117L14.4147 25.9001M14.4147 25.9001L12.8503 24.467M12.8503 24.467C12.8586 24.4846 12.8673 24.5025 12.8765 24.5207L12.9883 24.465L12.8744 24.4135L12.8503 24.467ZM12.8503 24.467C12.8055 24.3726 12.7709 24.2867 12.7382 24.1932M12.7382 24.1932L12.7957 24.2133L12.837 24.0954L12.7183 24.1347C12.7249 24.1546 12.7315 24.1741 12.7382 24.1932ZM18.5908 23.0313V23.1729L18.2213 23.3031C18.045 23.3627 17.9357 23.5084 17.884 23.6648L17.8834 23.6646L17.8806 23.677C17.8409 23.8564 17.7609 24.039 17.6587 24.2034L17.6587 24.2034L17.6575 24.2053C17.5693 24.3533 17.5723 24.5472 17.6272 24.6852L17.627 24.6853L17.6302 24.6922L17.7893 25.0301L17.6913 25.1385L17.3658 24.9834C17.1903 24.8957 17.0152 24.9282 16.8789 25.0104L16.8789 25.0104L16.877 25.0116C16.7188 25.1111 16.5388 25.1721 16.3418 25.2381L16.3418 25.2381C16.1859 25.2905 16.0413 25.4004 15.9822 25.5772L15.8603 25.9274H15.7139L15.592 25.5772C15.533 25.4005 15.3884 25.2903 15.2323 25.2381L15.2325 25.2375L15.22 25.2346C15.0419 25.1948 14.8606 25.1143 14.6973 25.0116L14.6973 25.0116L14.6953 25.0104C14.5477 24.9213 14.3543 24.9243 14.2166 24.9798L14.2165 24.9796L14.2095 24.9829L13.8788 25.1405L13.7652 25.0262L13.9219 24.6934C14.0087 24.5175 13.9767 24.3421 13.8951 24.2053L13.8952 24.2053L13.894 24.2034C13.795 24.0441 13.7343 23.8629 13.6687 23.6647L13.6687 23.6646C13.6168 23.5084 13.5078 23.3627 13.3314 23.3031L12.9835 23.1805V23.0313L13.3314 22.9087C13.5077 22.8492 13.617 22.7035 13.6687 22.5471L13.6693 22.5473L13.6721 22.5348C13.7117 22.3554 13.7918 22.1728 13.894 22.0085L13.894 22.0085L13.8951 22.0065C13.9834 21.8585 13.9804 21.6646 13.9255 21.5266L13.9257 21.5265L13.9224 21.5196L13.7652 21.1856L13.8788 21.0714L14.2084 21.2284C14.3839 21.3161 14.559 21.2837 14.6953 21.2014L14.6953 21.2015L14.6973 21.2002C14.8554 21.1008 15.0354 21.0398 15.2324 20.9737L15.2324 20.9737C15.3883 20.9214 15.533 20.8114 15.592 20.6346L15.7139 20.2844H15.8603L15.9822 20.6346C16.0412 20.8114 16.1859 20.9215 16.3419 20.9737L16.3417 20.9744L16.3543 20.9772C16.5323 21.017 16.7136 21.0975 16.877 21.2002L16.877 21.2002L16.8789 21.2014C17.0265 21.2905 17.2199 21.2875 17.3576 21.2321L17.3577 21.2323L17.3647 21.2289L17.6954 21.0714L17.809 21.1856L17.6523 21.5185C17.5655 21.6943 17.5975 21.8697 17.6791 22.0065L17.6791 22.0065L17.6803 22.0085C17.7792 22.1677 17.8399 22.3489 17.9056 22.5471L17.9056 22.5472C17.9574 22.7034 18.0664 22.8491 18.2428 22.9087L18.5908 23.0313Z" fill="#2176FF" stroke="#2176FF" stroke-width="0.25"></path><circle cx="15.7835" cy="23.1716" r="1.00746" fill="#FFCA00"></circle><path d="M15.798 21.3773C14.8469 21.3773 14.0906 22.1601 14.0906 23.0951C14.0906 24.0519 14.8687 24.8129 15.798 24.8129C16.749 24.8129 17.5054 24.03 17.5054 23.0951C17.5054 22.1382 16.7488 21.3773 15.798 21.3773ZM15.798 24.0084C15.3009 24.0084 14.8902 23.5952 14.8902 23.0951C14.8902 22.595 15.3009 22.1818 15.798 22.1818C16.2951 22.1818 16.7058 22.595 16.7058 23.0951C16.7058 23.617 16.2951 24.0084 15.798 24.0084Z" fill="#2176FF"></path></g><defs><clipPath id="clip0_422_472"><rect width="20.8209" height="21.4925" fill="white" transform="translate(10.7461 11.4179)"></rect></clipPath></defs></svg> 