<?xml version="1.0" encoding="UTF-8"?> <!-- Generator: Adobe Illustrator 23.0.3, SVG Export Plug-In . SVG Version: 6.00 Build 0) --> <svg xmlns="http://www.w3.org/2000/svg" xmlns:xlink="http://www.w3.org/1999/xlink" version="1.1" id="Layer_1" x="0px" y="0px" viewBox="0 0 432 367" style="enable-background:new 0 0 432 367;" xml:space="preserve"> <style type="text/css"> .st0{fill:#40C4FF;} .st1{opacity:0.58;} .st2{fill:#FFFFFF;} .st3{fill:url(#SVGID_1_);} .st4{fill:url(#SVGID_2_);} .st5{fill:url(#SVGID_3_);} .st6{fill:url(#SVGID_4_);} .st7{fill:url(#SVGID_5_);} .st8{fill:url(#SVGID_6_);} .st9{fill:#EF4335;} .st10{fill:url(#SVGID_7_);} .st11{opacity:0.58;fill:#FFFFFF;} .st12{fill:#2176FF;} .st13{fill:#1D6ADB;} .st14{fill:url(#SVGID_8_);} .st15{fill:url(#SVGID_9_);} .st16{fill:url(#SVGID_10_);} .st17{fill:#212121;} .st18{opacity:0.21;fill:#FFFFFF;} .st19{fill:#BDD0FB;} .st20{fill:url(#SVGID_11_);} .st21{fill:url(#SVGID_12_);} .st22{fill:url(#SVGID_13_);} .st23{fill:url(#SVGID_14_);} .st24{fill:url(#SVGID_15_);} </style> <path class="st0" d="M429.77,262.62c0,5.17,0,10.35,0,15.52c-0.1,0.63-0.23,1.25-0.3,1.88c-0.61,5.54-1,11.12-1.87,16.62 c-1.67,10.44-4.81,20.45-9.96,29.74c-11.05,19.9-28.45,30.57-50.46,34.23c-5.95,0.99-12.03,1.21-18.05,1.72 c-13.4,1.15-26.81,2.29-40.22,3.38c-3.56,0.29-7.14,0.4-10.71,0.6c-8.94,0-17.87,0-26.81,0c-0.58-0.08-1.15-0.22-1.73-0.23 c-18.7-0.51-37.32-1.98-55.76-5.11c-8.08-1.37-16.25-2.77-24.04-5.23c-16.21-5.1-30.71-13.75-44.52-23.51 c-23.51-16.61-43.66-36.75-61.62-59.13c-8.86-11.04-17.3-22.42-26.17-33.45c-8.29-10.31-17.15-20.12-27.07-28.93 c-14.73-13.08-24.28-29.26-28.58-48.48c-0.82-3.65-1.18-7.4-1.76-11.1c0-3.41,0-6.82,0-10.23c0.42-2.9,0.76-5.81,1.27-8.69 c2.69-15.22,9.31-28.72,18.2-41.2C30.53,75.68,44,62.78,58.8,51.25c6.15-4.79,12.35-9.67,19.08-13.53 c11.76-6.75,24.37-11.82,37.1-16.52c27.89-10.31,56.53-17.3,86.27-19.36c2.45-0.17,4.9-0.4,7.35-0.6c6.23,0,12.46,0,18.7,0 c0.51,0.1,1.02,0.23,1.53,0.28c7.18,0.72,14.41,1.14,21.54,2.2c32.32,4.8,61.27,17.38,86.52,38.21c8.76,7.22,17.19,14.79,23.6,24.33 c8.31,12.36,15.31,25.44,21.66,38.88c15.02,31.79,26.6,64.88,37.07,98.4c4.89,15.65,8.08,31.59,9.58,47.89 C429.14,255.15,429.45,258.89,429.77,262.62z"></path> <g class="st1"> <path class="st2" d="M101.36,93.81L101,95.37c-0.1,0.42-0.4,0.77-0.8,0.93c-1.01,0.41-1.96,0.93-2.83,1.55 c-0.35,0.25-0.81,0.32-1.21,0.17l-1.51-0.54c-0.64-0.23-1.35-0.03-1.77,0.5l-1.26,1.57c-0.42,0.53-0.47,1.26-0.11,1.84l0.85,1.36 c0.23,0.37,0.26,0.82,0.09,1.22c-0.42,0.98-0.72,2.02-0.91,3.1c-0.07,0.43-0.35,0.79-0.74,0.98l-1.45,0.68 c-0.61,0.29-0.97,0.93-0.9,1.6l0.22,2.01c0.07,0.67,0.56,1.22,1.22,1.37l1.56,0.36c0.42,0.1,0.77,0.4,0.93,0.8 c0.41,1.01,0.93,1.96,1.55,2.83c0.25,0.35,0.32,0.81,0.17,1.21l-0.54,1.51c-0.23,0.64-0.03,1.35,0.5,1.77l1.57,1.26 c0.53,0.42,1.26,0.47,1.84,0.11l1.36-0.85c0.37-0.23,0.82-0.26,1.22-0.09c0.98,0.42,2.02,0.72,3.1,0.91 c0.43,0.07,0.79,0.35,0.98,0.74l0.68,1.45c0.29,0.61,0.93,0.97,1.6,0.9l2.01-0.22c0.67-0.07,1.22-0.56,1.37-1.22l0.36-1.56 c0.1-0.42,0.4-0.77,0.8-0.93c1.01-0.41,1.96-0.93,2.83-1.55c0.35-0.25,0.81-0.32,1.21-0.17l1.51,0.54c0.64,0.23,1.35,0.03,1.77-0.5 l1.26-1.57c0.42-0.53,0.47-1.26,0.11-1.84l-0.85-1.36c-0.23-0.37-0.26-0.82-0.09-1.22c0.42-0.98,0.72-2.02,0.91-3.1 c0.07-0.43,0.35-0.79,0.74-0.98l1.45-0.68c0.61-0.29,0.97-0.93,0.9-1.6l-0.22-2.01c-0.07-0.67-0.56-1.22-1.22-1.37l-1.56-0.36 c-0.42-0.1-0.77-0.4-0.93-0.8c-0.41-1.01-0.93-1.96-1.55-2.83c-0.25-0.35-0.32-0.81-0.17-1.21l0.54-1.51 c0.23-0.64,0.03-1.35-0.5-1.77l-1.57-1.26c-0.53-0.42-1.26-0.47-1.84-0.11l-1.36,0.85c-0.37,0.23-0.82,0.26-1.22,0.09 c-0.98-0.42-2.02-0.72-3.1-0.91c-0.43-0.07-0.79-0.35-0.98-0.74l-0.68-1.45c-0.29-0.61-0.93-0.97-1.6-0.9l-2.01,0.22 C102.06,92.66,101.51,93.15,101.36,93.81z M117.06,107.05c1.34,6.34-2.71,12.57-9.05,13.92c-6.34,1.34-12.57-2.71-13.92-9.05 c-1.34-6.34,2.71-12.57,9.05-13.92C109.48,96.65,115.72,100.7,117.06,107.05z M105.44,101.99c4.2,0,7.61,3.41,7.61,7.61 c0,4.2-3.41,7.61-7.61,7.61c-4.2,0-7.61-3.41-7.61-7.61C97.83,105.4,101.23,101.99,105.44,101.99z"></path> <g> <path class="st2" d="M130.45,90.24l-0.26,1.13c-0.07,0.31-0.29,0.56-0.58,0.68c-0.73,0.3-1.42,0.68-2.05,1.13 c-0.26,0.18-0.59,0.23-0.88,0.12l-1.1-0.39c-0.46-0.17-0.98-0.02-1.29,0.36l-0.92,1.14c-0.31,0.38-0.34,0.92-0.08,1.33l0.62,0.99 c0.17,0.27,0.19,0.6,0.07,0.89c-0.3,0.71-0.52,1.47-0.66,2.25c-0.05,0.31-0.25,0.58-0.54,0.71l-1.05,0.5 c-0.44,0.21-0.71,0.68-0.65,1.16l0.16,1.46c0.05,0.49,0.41,0.89,0.89,1l1.13,0.26c0.31,0.07,0.56,0.29,0.68,0.58 c0.3,0.73,0.68,1.42,1.13,2.05c0.18,0.26,0.23,0.59,0.12,0.88l-0.39,1.1c-0.17,0.46-0.02,0.98,0.36,1.29l1.14,0.92 c0.38,0.31,0.92,0.34,1.33,0.08l0.99-0.62c0.27-0.17,0.6-0.19,0.89-0.07c0.71,0.3,1.47,0.52,2.25,0.66 c0.31,0.05,0.58,0.25,0.71,0.54l0.5,1.05c0.21,0.44,0.68,0.71,1.16,0.65l1.46-0.16c0.49-0.05,0.89-0.41,1-0.89l0.26-1.13 c0.07-0.31,0.29-0.56,0.58-0.68c0.73-0.3,1.42-0.68,2.05-1.13c0.26-0.18,0.59-0.23,0.88-0.12l1.1,0.39 c0.46,0.17,0.98,0.02,1.29-0.36l0.92-1.14c0.31-0.38,0.34-0.92,0.08-1.33l-0.62-0.99c-0.17-0.27-0.19-0.6-0.07-0.89 c0.3-0.71,0.52-1.47,0.66-2.25c0.05-0.31,0.25-0.58,0.54-0.71l1.05-0.5c0.44-0.21,0.71-0.68,0.65-1.16l-0.16-1.46 c-0.05-0.49-0.41-0.89-0.89-1l-1.13-0.26c-0.31-0.07-0.56-0.29-0.68-0.58c-0.3-0.73-0.68-1.42-1.13-2.05 c-0.18-0.26-0.23-0.59-0.12-0.88l0.39-1.1c0.17-0.46,0.02-0.98-0.36-1.29l-1.14-0.92c-0.38-0.31-0.92-0.34-1.33-0.08l-0.99,0.62 c-0.27,0.17-0.6,0.19-0.89,0.07c-0.71-0.3-1.47-0.52-2.25-0.66c-0.31-0.05-0.58-0.25-0.71-0.54l-0.5-1.05 c-0.21-0.44-0.68-0.71-1.16-0.65l-1.46,0.16C130.96,89.4,130.56,89.76,130.45,90.24z M141.85,99.85 c0.98,4.61-1.97,9.13-6.57,10.11c-4.61,0.98-9.13-1.97-10.11-6.57c-0.98-4.61,1.97-9.13,6.57-10.11 C136.35,92.3,140.88,95.24,141.85,99.85z M133.16,95.51c3.37,0,6.1,2.73,6.1,6.1c0,3.37-2.73,6.1-6.1,6.1 c-3.37,0-6.1-2.73-6.1-6.1C127.05,98.25,129.79,95.51,133.16,95.51z"></path> </g> <g> <path class="st2" d="M137.96,117.82l-1.16,0.97c-0.31,0.26-0.74,0.35-1.13,0.24c-1-0.27-2.01-0.42-3.02-0.45 c-0.41-0.01-0.79-0.22-1.01-0.57l-0.83-1.27c-0.35-0.54-1-0.79-1.62-0.64l-1.86,0.46c-0.62,0.15-1.08,0.69-1.13,1.32l-0.13,1.51 c-0.04,0.41-0.27,0.77-0.63,0.98c-0.88,0.5-1.7,1.11-2.46,1.82c-0.3,0.28-0.72,0.4-1.12,0.31l-1.48-0.32 c-0.63-0.13-1.27,0.15-1.6,0.69l-0.99,1.64c-0.33,0.55-0.28,1.25,0.14,1.74l0.97,1.16c0.26,0.31,0.35,0.74,0.24,1.13 c-0.27,1-0.42,2.01-0.45,3.02c-0.01,0.41-0.22,0.79-0.57,1.01l-1.27,0.83c-0.54,0.35-0.79,1-0.64,1.62l0.46,1.86 c0.15,0.62,0.69,1.08,1.32,1.13l1.51,0.13c0.41,0.04,0.77,0.27,0.98,0.63c0.5,0.88,1.11,1.7,1.82,2.46 c0.28,0.3,0.4,0.72,0.31,1.12l-0.32,1.48c-0.13,0.63,0.15,1.27,0.69,1.6l1.64,0.99c0.55,0.33,1.25,0.28,1.74-0.14l1.16-0.97 c0.31-0.26,0.74-0.35,1.13-0.24c1,0.27,2.01,0.42,3.02,0.45c0.41,0.01,0.79,0.22,1.01,0.57l0.83,1.27c0.35,0.54,1,0.79,1.62,0.64 l1.86-0.46c0.62-0.15,1.08-0.69,1.13-1.32l0.13-1.51c0.04-0.41,0.27-0.77,0.63-0.98c0.88-0.5,1.7-1.11,2.46-1.82 c0.3-0.28,0.72-0.4,1.12-0.31l1.48,0.32c0.63,0.13,1.27-0.15,1.6-0.69l0.99-1.64c0.33-0.55,0.28-1.25-0.14-1.74l-0.97-1.16 c-0.26-0.31-0.35-0.74-0.24-1.13c0.27-1,0.42-2.01,0.45-3.02c0.01-0.41,0.22-0.79,0.57-1.01l1.27-0.83c0.54-0.35,0.79-1,0.64-1.62 l-0.46-1.86c-0.15-0.62-0.69-1.08-1.32-1.13l-1.51-0.13c-0.41-0.04-0.77-0.27-0.98-0.63c-0.5-0.88-1.11-1.7-1.82-2.46 c-0.28-0.3-0.4-0.72-0.31-1.12l0.32-1.48c0.13-0.63-0.15-1.27-0.69-1.6l-1.64-0.99C139.15,117.35,138.45,117.41,137.96,117.82z M142.22,136.81c-2.62,5.56-9.25,7.94-14.81,5.32c-5.56-2.62-7.94-9.25-5.32-14.81c2.62-5.56,9.25-7.94,14.81-5.32 C142.46,124.62,144.84,131.25,142.22,136.81z"></path> </g> </g> <g> <linearGradient id="SVGID_1_" gradientUnits="userSpaceOnUse" x1="2406.312" y1="338.4211" x2="2406.312" y2="181.4144" gradientTransform="matrix(1 0 0 1 -2333 0)"> <stop offset="0" style="stop-color:#4042E2"></stop> <stop offset="1" style="stop-color:#4F52FF"></stop> </linearGradient> <path class="st3" d="M84.84,357.26c-4.19,0.36-11.45,0.95-17.18,1.2c-3.44,0.15-5.43-0.19-6.57-0.64c0,0.13,0.01,0.25,0.01,0.36 c0.03,0.6,0.52,1.09,1.13,1.12c10.82,0.6,19.43,0.21,22.5,0.02c0.63-0.04,1.01-0.73,0.69-1.27 C85.25,357.79,85.06,357.53,84.84,357.26z"></path> <linearGradient id="SVGID_2_" gradientUnits="userSpaceOnUse" x1="2394.0903" y1="353.6569" x2="2417.8423" y2="353.6569" gradientTransform="matrix(1 0 0 1 -2333 0)"> <stop offset="0" style="stop-color:#09005D"></stop> <stop offset="1" style="stop-color:#1A0F91"></stop> </linearGradient> <path class="st4" d="M67.66,358.47c5.73-0.25,13-0.84,17.18-1.2c-4.12-5.05-17.18-8.45-17.18-8.45h-3.69 c-2.54,3.66-2.91,7.14-2.88,9.01C62.23,358.28,64.22,358.62,67.66,358.47z"></path> <linearGradient id="SVGID_3_" gradientUnits="userSpaceOnUse" x1="2396.3484" y1="346.9694" x2="2403.2327" y2="346.9694" gradientTransform="matrix(1 0 0 1 -2333 0)"> <stop offset="0" style="stop-color:#FF928E"></stop> <stop offset="1" style="stop-color:#FEB3B1"></stop> </linearGradient> <path class="st5" d="M63.35,342.79l0.35,6.83c0.04,0.74,0.59,1.36,1.33,1.47c0.74,0.11,1.72,0.12,2.77-0.23 c0.64-0.21,1.12-0.76,1.24-1.42l1.19-6.65H63.35z"></path> </g> <g> <g> <linearGradient id="SVGID_4_" gradientUnits="userSpaceOnUse" x1="2350.0505" y1="338.4212" x2="2350.0505" y2="181.4156" gradientTransform="matrix(1 0 0 1 -2333 0)"> <stop offset="0" style="stop-color:#4042E2"></stop> <stop offset="1" style="stop-color:#4F52FF"></stop> </linearGradient> <path class="st6" d="M15.42,358.42c-1.82-0.25-2.64-1.2-2.98-2.2c0,0.01,0,0.02-0.01,0.03c-0.27,1.06,0.35,2.17,1.59,2.69 c1.5,0.63,3.13,0.74,4.4,0.69c1.36-0.06,2.61-0.62,3.3-1.52l0.01-0.01C20.37,358.76,18.45,358.84,15.42,358.42z"></path> <linearGradient id="SVGID_5_" gradientUnits="userSpaceOnUse" x1="2345.4355" y1="350.7083" x2="2359.1831" y2="350.7083" gradientTransform="matrix(1 0 0 1 -2333 0)"> <stop offset="0" style="stop-color:#09005D"></stop> <stop offset="1" style="stop-color:#1A0F91"></stop> </linearGradient> <path class="st7" d="M23.98,342.74h-3.04c-4.64-0.09-7.55,9.68-8.5,13.47c0.34,1.01,1.17,1.95,2.98,2.2 c3.03,0.42,4.95,0.34,6.32-0.33c2.5-3.3,3.75-8.12,4.34-10.94C26.76,343.94,23.98,342.74,23.98,342.74z"></path> </g> <linearGradient id="SVGID_6_" gradientUnits="userSpaceOnUse" x1="2352.5813" y1="341.2303" x2="2360.8088" y2="341.2303" gradientTransform="matrix(1 0 0 1 -2333 0)"> <stop offset="0" style="stop-color:#FF928E"></stop> <stop offset="1" style="stop-color:#FEB3B1"></stop> </linearGradient> <path class="st8" d="M21.33,336.4l-1.69,6.72c-0.21,0.82,0.19,1.68,0.95,2.07c0.95,0.49,2.28,0.99,3.5,0.85 c0.58-0.07,1.05-0.47,1.24-1.02l2.48-7.07L21.33,336.4z"></path> </g> <path class="st9" d="M316.51,116.41l-9.88,119.98c-0.62,7.49-5.74,13.28-12,13.55l-150.13,6.41c-6.25,0.27-11.69-5.05-12.76-12.45 c-3.87-26.78-11.7-89.28-7.12-130.03c0.77-6.86,5.3-12.23,11.02-13c60.08-8.06,117.25-9.42,170.09-0.84 C312.41,101.1,317.17,108.34,316.51,116.41z"></path> <linearGradient id="SVGID_7_" gradientUnits="userSpaceOnUse" x1="128.9567" y1="176.8378" x2="307.0626" y2="176.8378"> <stop offset="0" style="stop-color:#FF928E"></stop> <stop offset="1" style="stop-color:#FEB3B1"></stop> </linearGradient> <path class="st10" d="M307.01,122.63l-9.1,110.52c-0.57,6.9-5.29,12.23-11.05,12.48l-138.29,5.91c-5.75,0.25-10.77-4.65-11.76-11.47 c-3.57-24.67-10.78-82.24-6.56-119.78c0.71-6.32,4.88-11.27,10.15-11.98c55.34-7.42,108.01-8.68,156.69-0.77 C303.23,108.52,307.62,115.2,307.01,122.63z"></path> <g class="st1"> <g> <path class="st2" d="M211.41,224.69c-0.43,0-0.82-0.24-1.01-0.63l-1.99-4.1c-2.14-0.27-4.22-0.86-6.2-1.73l-3.83,2.48 c-0.4,0.26-0.92,0.24-1.3-0.06l-4.68-3.67c-0.38-0.29-0.52-0.8-0.37-1.25l1.49-4.31c-1.32-1.71-2.39-3.59-3.16-5.61l-4.46-0.96 c-0.47-0.1-0.82-0.49-0.88-0.96l-0.72-5.9c-0.06-0.47,0.19-0.93,0.62-1.14l4.1-1.99c0.27-2.14,0.86-4.22,1.73-6.2l-2.48-3.83 c-0.26-0.4-0.24-0.92,0.06-1.3l3.66-4.68c0.3-0.38,0.8-0.52,1.25-0.37l4.31,1.49c1.71-1.32,3.59-2.39,5.61-3.16l0.96-4.46 c0.1-0.47,0.49-0.82,0.96-0.88l5.9-0.72c0.48-0.06,0.94,0.19,1.14,0.62l1.99,4.1c2.14,0.27,4.22,0.86,6.2,1.73l3.83-2.48 c0.4-0.26,0.92-0.24,1.3,0.06l4.68,3.66c0.38,0.29,0.52,0.8,0.37,1.25l-1.49,4.31c1.32,1.71,2.39,3.59,3.16,5.61l4.46,0.96 c0.47,0.1,0.82,0.49,0.88,0.96l0.72,5.9c0.06,0.47-0.19,0.93-0.62,1.14l-4.1,1.99c-0.27,2.14-0.86,4.22-1.73,6.2l2.48,3.83 c0.26,0.4,0.24,0.92-0.06,1.3l-3.66,4.68c-0.3,0.38-0.8,0.52-1.25,0.37l-4.31-1.49c-1.71,1.32-3.59,2.39-5.61,3.16l-0.96,4.46 c-0.1,0.47-0.49,0.82-0.96,0.88l-5.9,0.72C211.5,224.69,211.45,224.69,211.41,224.69z M202.09,216.6l0.36,0.17 c2.07,0.96,4.26,1.57,6.51,1.82l0.39,0.04l2.24,4.61l5.46-0.66l1.08-5.01l0.37-0.14c2.13-0.78,4.11-1.9,5.89-3.32l0.31-0.25 l4.85,1.67l3.39-4.33l-2.79-4.31l0.17-0.36c0.96-2.07,1.57-4.26,1.82-6.51l0.04-0.39l4.61-2.24l-0.66-5.46l-5.01-1.08l-0.14-0.37 c-0.78-2.13-1.9-4.11-3.32-5.89l-0.25-0.31l1.67-4.85l-4.33-3.39l-4.31,2.78l-0.36-0.17c-2.07-0.96-4.26-1.57-6.51-1.82 l-0.39-0.04l-2.24-4.61l-5.46,0.66l-1.08,5.01l-0.37,0.14c-2.13,0.78-4.11,1.9-5.89,3.32l-0.31,0.25l-4.85-1.67l-3.39,4.33 l2.78,4.31l-0.17,0.36c-0.96,2.07-1.57,4.26-1.82,6.51l-0.04,0.39l-4.61,2.24l0.66,5.46l5.01,1.08l0.14,0.37 c0.78,2.13,1.9,4.11,3.32,5.89l0.25,0.31l-1.68,4.85l4.33,3.39L202.09,216.6z M236.33,191.98 C236.33,191.98,236.34,191.98,236.33,191.98L236.33,191.98z M211.15,212.7c-7.5,0-14.01-5.61-14.93-13.24 c-1-8.24,4.89-15.75,13.13-16.75c3.99-0.48,7.93,0.62,11.1,3.1c3.16,2.48,5.17,6.04,5.66,10.03c0.13,1.07,0.15,2.14,0.05,3.2 c-0.04,0.39-0.38,0.68-0.78,0.65c-0.39-0.04-0.68-0.38-0.65-0.78c0.09-0.96,0.07-1.94-0.04-2.9c-0.44-3.61-2.26-6.84-5.12-9.08 c-2.86-2.24-6.43-3.24-10.04-2.8c-7.46,0.9-12.79,7.71-11.88,15.16c0.9,7.46,7.71,12.79,15.16,11.88c2.45-0.3,4.77-1.25,6.71-2.76 c0.31-0.24,0.76-0.19,1,0.13c0.24,0.31,0.19,0.76-0.13,1c-2.14,1.67-4.71,2.72-7.42,3.05C212.36,212.66,211.75,212.7,211.15,212.7 z"></path> <path class="st2" d="M211.26,203.71c-0.83,0-1.65-0.17-2.43-0.52c-1.46-0.65-2.59-1.83-3.16-3.32c-0.58-1.49-0.54-3.12,0.11-4.58 c0.65-1.46,1.83-2.59,3.32-3.16c1.49-0.58,3.12-0.54,4.58,0.11c1.46,0.65,2.59,1.83,3.16,3.32c0.58,1.49,0.54,3.12-0.11,4.58 c-0.65,1.46-1.83,2.59-3.32,3.16C212.72,203.57,211.99,203.71,211.26,203.71z M211.27,193.15c-0.55,0-1.11,0.1-1.64,0.31 c-1.14,0.44-2.03,1.29-2.53,2.41c-0.49,1.11-0.52,2.35-0.09,3.49c0.44,1.14,1.29,2.03,2.41,2.53c1.11,0.49,2.35,0.52,3.49,0.09 c1.14-0.44,2.03-1.29,2.53-2.41c0.49-1.11,0.52-2.35,0.09-3.49v0c-0.44-1.14-1.29-2.03-2.41-2.53 C212.52,193.28,211.89,193.15,211.27,193.15z"></path> </g> <g> <path class="st2" d="M169,186.47c-0.09,0-0.18-0.02-0.26-0.05l-2.66-1.03c-0.29-0.11-0.48-0.4-0.47-0.71l0.08-2.09 c-0.8-0.58-1.52-1.26-2.13-2.03l-2.08,0.17c-0.31,0.03-0.6-0.15-0.73-0.43l-1.15-2.62c-0.13-0.29-0.06-0.62,0.17-0.83l1.53-1.42 c-0.15-0.97-0.18-1.96-0.07-2.94l-1.6-1.35c-0.24-0.2-0.32-0.53-0.21-0.82l1.03-2.66c0.11-0.29,0.39-0.48,0.71-0.47l2.09,0.08 c0.58-0.8,1.26-1.52,2.03-2.13l-0.17-2.08c-0.03-0.31,0.15-0.6,0.43-0.73l2.62-1.15c0.29-0.13,0.62-0.06,0.83,0.17l1.42,1.53 c0.97-0.16,1.96-0.18,2.94-0.07l1.35-1.6c0.2-0.24,0.53-0.32,0.82-0.21l2.66,1.03c0.29,0.11,0.48,0.4,0.47,0.71l-0.08,2.09 c0.8,0.58,1.52,1.26,2.13,2.03l2.08-0.17c0.31-0.02,0.61,0.15,0.73,0.44l1.15,2.61c0.13,0.29,0.06,0.62-0.17,0.83l-1.53,1.42 c0.15,0.97,0.18,1.96,0.07,2.94l1.6,1.35c0.24,0.2,0.32,0.53,0.21,0.82l-1.03,2.66c-0.11,0.29-0.4,0.48-0.71,0.47l-2.09-0.08 c-0.58,0.8-1.26,1.52-2.03,2.13l0.17,2.08c0.03,0.31-0.15,0.6-0.43,0.73l-2.61,1.15c-0.29,0.13-0.62,0.06-0.83-0.17l-1.42-1.53 c-0.97,0.16-1.96,0.18-2.94,0.07l-1.35,1.6C169.42,186.38,169.21,186.47,169,186.47z M166.69,184.47l2.21,0.86l1.57-1.86 l0.29,0.04c1.06,0.15,2.14,0.13,3.19-0.07l0.29-0.05l1.65,1.79l2.17-0.96l-0.2-2.43l0.24-0.18c0.85-0.64,1.6-1.42,2.2-2.31 l0.17-0.24l2.43,0.09l0.86-2.21l-1.86-1.57l0.04-0.29c0.15-1.06,0.13-2.14-0.07-3.19l-0.05-0.29l1.79-1.65l-0.96-2.17l-2.43,0.2 l-0.18-0.24c-0.64-0.85-1.42-1.6-2.31-2.2l-0.24-0.17l0.09-2.43l-2.21-0.86l-1.57,1.86l-0.29-0.04c-1.06-0.15-2.14-0.13-3.19,0.07 l-0.29,0.05l-1.65-1.79l-2.17,0.96l0.2,2.43l-0.24,0.18c-0.85,0.64-1.6,1.42-2.2,2.31l-0.17,0.24l-2.43-0.09l-0.86,2.21l1.86,1.57 l-0.04,0.29c-0.15,1.06-0.13,2.14,0.07,3.19l0.05,0.29l-1.79,1.65l0.96,2.17l2.43-0.2l0.18,0.24c0.64,0.85,1.42,1.6,2.31,2.2 l0.24,0.17L166.69,184.47z M183.85,176.72C183.85,176.72,183.85,176.72,183.85,176.72L183.85,176.72z M160.42,170.69 L160.42,170.69C160.42,170.69,160.42,170.69,160.42,170.69z M183.7,170.16C183.7,170.16,183.7,170.16,183.7,170.16L183.7,170.16z M183.78,169.78C183.78,169.78,183.78,169.78,183.78,169.78L183.78,169.78z M182.55,167.55 C182.55,167.55,182.55,167.55,182.55,167.55L182.55,167.55z M172.09,181.12c-2.86,0-5.59-1.66-6.81-4.43 c-1.65-3.75,0.05-8.14,3.8-9.8c1.82-0.8,3.84-0.85,5.69-0.13c1.85,0.72,3.31,2.11,4.11,3.93c0.21,0.48,0.38,0.99,0.48,1.51 c0.06,0.29-0.13,0.57-0.42,0.63c-0.29,0.06-0.57-0.13-0.63-0.42c-0.09-0.44-0.23-0.88-0.41-1.29c-0.69-1.55-1.94-2.75-3.52-3.36 c-1.58-0.61-3.31-0.57-4.87,0.11c-3.21,1.42-4.67,5.18-3.25,8.38c1.41,3.21,5.18,4.67,8.38,3.25c1.06-0.47,1.96-1.21,2.62-2.14 c0.17-0.24,0.51-0.3,0.75-0.13c0.24,0.17,0.3,0.51,0.13,0.75c-0.77,1.09-1.83,1.96-3.07,2.5 C174.11,180.92,173.09,181.12,172.09,181.12z"></path> </g> </g> <path class="st11" d="M285.41,128.88c-0.09,0-0.19-0.01-0.28-0.02c-34.31-6.01-105.77-2.77-106.49-2.73 c-0.87,0.04-1.64-0.64-1.68-1.53c-0.04-0.89,0.64-1.64,1.53-1.68c0.72-0.03,72.53-3.3,107.2,2.78c0.88,0.15,1.46,0.99,1.31,1.86 C286.86,128.33,286.18,128.88,285.41,128.88z"></path> <path class="st11" d="M285.41,148.46c-0.17,0-0.35-0.03-0.52-0.09c-18.81-6.41-105.42-4.65-106.29-4.63 c-0.89,0.02-1.62-0.69-1.64-1.57c-0.02-0.89,0.69-1.62,1.57-1.64c3.59-0.08,88.05-1.78,107.4,4.81c0.84,0.29,1.29,1.2,1,2.04 C286.71,148.04,286.08,148.46,285.41,148.46z"></path> <path class="st11" d="M286.45,167.28h-38.77c-0.89,0-1.61-0.72-1.61-1.61c0-0.89,0.72-1.61,1.61-1.61h38.77 c0.89,0,1.61,0.72,1.61,1.61C288.06,166.55,287.34,167.28,286.45,167.28z"></path> <path class="st12" d="M19.31,338.34c2.1,1.86,8.94,2.11,8.94,2.11c24.63-59.12,34.71-67.52,34.71-67.52 c-3.56,22.32-0.57,71.72-0.57,71.72c4.06,1.79,9.31,0,9.31,0c0.33-36.53,5.95-68.39,12.58-93.51c-16.65-0.37-25.5-6.07-28.39-8.36 C42,265.15,19.31,338.34,19.31,338.34z"></path> <path class="st9" d="M60.11,174.79c-3.15,15.72-2.02,43.85-1.28,56.69c0.21,3.61-2.31,8.61-4.34,12.02 c-0.32,0.54-0.12,1.22,0.43,1.5c3.41,1.75,14.95,7.18,28.33,7.85c0.89,0.05,1.69-0.56,1.92-1.43c9.92-37.05,21.45-60.73,21.45-60.73 C93.89,170.37,60.11,174.79,60.11,174.79z"></path> <path class="st13" d="M64.64,271.53c-0.14,0-0.28-0.04-0.41-0.12c-0.37-0.23-0.49-0.71-0.26-1.08c0.13-0.22,3.32-5.37,9.77-8.48 c0.39-0.19,0.86-0.03,1.05,0.37c0.19,0.39,0.02,0.86-0.37,1.05c-6.01,2.9-9.07,7.83-9.11,7.88 C65.17,271.4,64.91,271.53,64.64,271.53z"></path> <linearGradient id="SVGID_8_" gradientUnits="userSpaceOnUse" x1="2390.2756" y1="221.3029" x2="2360.9868" y2="247.2387" gradientTransform="matrix(1 0 0 1 -2333 0)"> <stop offset="0" style="stop-color:#FF928E"></stop> <stop offset="1" style="stop-color:#FEB3B1"></stop> </linearGradient> <path class="st14" d="M40.34,219.9c1.01,7.32,4,15.31,9.99,23.79l2.27-1.85c0,0-2.63-10.65-1.13-22.74 C47.78,218.38,43.42,219.12,40.34,219.9z"></path> <path class="st9" d="M63.63,194.18l-3.52-19.4c0,0-23.52,17.98-19.77,45.11c3.08-0.78,7.44-1.52,11.13-0.8 C52.54,210.39,55.75,200.94,63.63,194.18z"></path> <path class="st9" d="M106.61,190.69l-9.08,19.55c1.47,11.8,7.81,16.91,14.65,18.86c0.43-5.38,1.79-9.73,3.05-12.73 C106.49,207.36,106.61,190.69,106.61,190.69z"></path> <linearGradient id="SVGID_9_" gradientUnits="userSpaceOnUse" x1="2445.1807" y1="223.7561" x2="2468.2468" y2="223.7561" gradientTransform="matrix(1 0 0 1 -2333 0)"> <stop offset="0" style="stop-color:#FF928E"></stop> <stop offset="1" style="stop-color:#FEB3B1"></stop> </linearGradient> <path class="st15" d="M115.23,216.38c-1.26,3.01-2.62,7.35-3.05,12.73c18.24,7.08,23.07-6.65,23.07-6.65l-3.37-0.59 C124.26,222.67,118.95,220.21,115.23,216.38z"></path> <linearGradient id="SVGID_10_" gradientUnits="userSpaceOnUse" x1="2422.76" y1="162.1153" x2="2422.5081" y2="205.1895" gradientTransform="matrix(1 0 0 1 -2333 0)"> <stop offset="0" style="stop-color:#FF928E"></stop> <stop offset="1" style="stop-color:#FEB3B1"></stop> </linearGradient> <path class="st16" d="M98.25,166.56l-4.38,16.11c-0.49,1.81-2.45,2.78-4.19,2.09c-1.88-0.75-4.26-1.78-6.32-2.89 c-2.19-1.18-2.88-4-1.49-6.07l9.11-13.59L98.25,166.56z"></path> <path class="st17" d="M143.61,211.68l-112.3,40.87c-4.71,1.71-6.96,7.08-4.89,11.64l0.34,0.75c1.84,4.04,6.61,5.81,10.63,3.95 l109.04-50.44L143.61,211.68z"></path> <ellipse class="st18" cx="195.22" cy="187.09" rx="55.44" ry="54.44"></ellipse> <path class="st17" d="M195.22,126.52c-34.07,0-61.68,27.12-61.68,60.57c0,33.45,27.62,60.57,61.68,60.57s61.68-27.12,61.68-60.57 C256.91,153.64,229.29,126.52,195.22,126.52z M195.22,238.77c-29.06,0-52.62-23.14-52.62-51.67c0-28.54,23.56-51.67,52.62-51.67 c29.06,0,52.62,23.14,52.62,51.67C247.85,215.63,224.29,238.77,195.22,238.77z"></path> <g> <path class="st19" d="M138.23,194.31c-0.06,0-0.12-0.05-0.13-0.11c-0.18-1.42-0.31-2.88-0.38-4.32c0-0.07,0.05-0.13,0.12-0.14 c0.07,0,0.13,0.05,0.13,0.12c0.07,1.44,0.2,2.88,0.38,4.3c0.01,0.07-0.04,0.14-0.11,0.14 C138.24,194.31,138.23,194.31,138.23,194.31z M138.65,177.37c-0.01,0-0.02,0-0.02,0c-0.07-0.01-0.12-0.08-0.1-0.15 c0.69-3.88,1.81-7.69,3.31-11.33c4.25-10.32,11.46-19.11,20.84-25.44c9.6-6.47,20.86-9.9,32.55-9.9c11,0,21.69,3.05,30.92,8.83 c0.06,0.04,0.08,0.12,0.04,0.18c-0.04,0.06-0.12,0.08-0.18,0.04c-9.19-5.75-19.83-8.8-30.78-8.8c-23.48,0-44.34,13.81-53.15,35.18 c0,0,0,0,0,0c-1.5,3.63-2.6,7.42-3.3,11.28C138.77,177.33,138.71,177.37,138.65,177.37z"></path> </g> <linearGradient id="SVGID_11_" gradientUnits="userSpaceOnUse" x1="2401.8418" y1="234.3643" x2="2372.553" y2="260.3001" gradientTransform="matrix(1 0 0 1 -2333 0)"> <stop offset="0" style="stop-color:#FF928E"></stop> <stop offset="1" style="stop-color:#FEB3B1"></stop> </linearGradient> <path class="st20" d="M51.66,241.52l10.62-0.87l4.6,4.24c0,0-1.09,1.5-4.49,0.64c-3.4-0.86-8.06-1.08-8.06-1.08 s-4.69,2.12-4.75-1.84L51.66,241.52z"></path> <linearGradient id="SVGID_12_" gradientUnits="userSpaceOnUse" x1="154.721" y1="194.3649" x2="146.2142" y2="207.5118"> <stop offset="0" style="stop-color:#FF928E"></stop> <stop offset="1" style="stop-color:#FEB3B1"></stop> </linearGradient> <path class="st21" d="M133.89,224.97c0.92,0.72,4.06-0.78,5.99-1.82c0.94-0.5,1.39-1.6,1.07-2.62c-0.46-1.46-1.24-3.35-2.19-3.58 C137.19,216.56,130.11,222.02,133.89,224.97z"></path> <path class="st19" d="M33.52,267.03c-0.01,0-0.03,0-0.04-0.01c-3.4-1.18-5.18-3.11-5.3-5.76c-0.12-2.66,1.56-5.14,4.17-6.16 l13.48-5.26c0.07-0.03,0.14,0.01,0.17,0.07c0.03,0.07-0.01,0.14-0.07,0.17l-13.48,5.26c-2.51,0.98-4.12,3.35-4.01,5.91 c0.11,2.53,1.83,4.39,5.12,5.53c0.07,0.02,0.1,0.1,0.08,0.16C33.63,267,33.58,267.03,33.52,267.03z"></path> <path class="st19" d="M50.04,248.48c-0.05,0-0.1-0.03-0.12-0.08c-0.03-0.07,0.01-0.14,0.07-0.17l1.75-0.68 c0.07-0.03,0.14,0.01,0.17,0.07c0.03,0.07-0.01,0.14-0.07,0.17l-1.75,0.68C50.08,248.47,50.06,248.48,50.04,248.48z"></path> <linearGradient id="SVGID_13_" gradientUnits="userSpaceOnUse" x1="89.8134" y1="145.1612" x2="95.7424" y2="167.0727"> <stop offset="0" style="stop-color:#FF928E"></stop> <stop offset="1" style="stop-color:#FEB3B1"></stop> </linearGradient> <path class="st22" d="M99.2,150.74c0,0,3.63,8.33,3.87,12.71c0.24,4.37,1.19,7.21-3.87,8.09c-5.06,0.88-9.32-1.64-11.63-6 c0,0-3.62-6.71-2.8-9.46C85.58,153.33,99.2,150.74,99.2,150.74z"></path> <linearGradient id="SVGID_14_" gradientUnits="userSpaceOnUse" x1="119.3903" y1="123.5143" x2="108.0477" y2="135.1146"> <stop offset="0" style="stop-color:#09005D"></stop> <stop offset="1" style="stop-color:#1A0F91"></stop> </linearGradient> <path class="st23" d="M89.3,162.41h0.64c0,0-2.63-5.4-0.32-6.35c2.31-0.95,11.48-2.82,13.46-6.07c1.91-3.14,0.21-7.19-2.34-8.32 c-0.16-0.07-0.35,0-0.43,0.16l-0.21,0.4c-0.14,0.27-0.55,0.23-0.63-0.06l0,0c-0.08-0.28-0.46-0.34-0.62-0.09 c-0.61,0.97-2.25,2.55-6.64,3.37c-6.24,1.15-10.36,3.68-10.47,7.99c-0.01,0.27-0.3,0.42-0.53,0.28c-0.46-0.28-1.2-0.41-2.18,0.42 c-1.71,1.44-1.01,5.18,2.74,8.25c0.18,0.15,0.18,0.42-0.02,0.55c-0.68,0.44-1.7,1.5,0.93,2.9c2.69,1.44,4.28,1.28,4.88,1.13 c0.16-0.04,0.27-0.19,0.26-0.36l-0.24-3.82c-0.01-0.2,0.14-0.36,0.34-0.36H89.3z"></path> <linearGradient id="SVGID_15_" gradientUnits="userSpaceOnUse" x1="83.0651" y1="146.9872" x2="88.9942" y2="168.8987"> <stop offset="0" style="stop-color:#FF928E"></stop> <stop offset="1" style="stop-color:#FEB3B1"></stop> </linearGradient> <path class="st24" d="M89.46,163.21c0,0-1.38-5.32-3.77-3.83c-2.39,1.49,1.24,5.96,3.16,6.16L89.46,163.21z"></path> <g> <path class="st12" d="M205.73,155.93c0,5.93-4.38,10.73-11.58,10.73c-6.78,0-11.16-4.8-11.16-10.73c0-6.07,4.52-10.73,11.44-10.73 C201.35,145.19,205.59,149.85,205.73,155.93z M179.76,223.53l3.43-43.73c0.21-2.64,2.41-4.67,5.05-4.67h11.72 c2.8,0,5.06,2.27,5.06,5.06v43.73c0,2.8-2.27,5.06-5.06,5.06H184.8C181.85,228.99,179.52,226.48,179.76,223.53z"></path> </g> </svg> 