<?xml version="1.0" encoding="UTF-8"?> <!-- Generator: Adobe Illustrator 25.1.0, SVG Export Plug-In . SVG Version: 6.00 Build 0) --> <svg xmlns="http://www.w3.org/2000/svg" xmlns:xlink="http://www.w3.org/1999/xlink" version="1.1" id="Layer_1" x="0px" y="0px" viewBox="0 0 30 30" style="enable-background:new 0 0 30 30;" xml:space="preserve"> <style type="text/css"> .st0{fill:none;stroke:#F54A42;stroke-width:1.89;stroke-linecap:round;} .st1{fill:none;stroke:#F54A42;stroke-width:1.89;} .st2{fill:#F54A42;} </style> <symbol id="A" viewBox="-28.9 -32 57.7 64"> <g> <path class="st0" d="M23.3,16.1c0-1.3,1-2.3,2.3-2.3s2.3,1,2.3,2.3s-1,2.3-2.3,2.3S23.3,17.4,23.3,16.1z M-27.9,16.1 c0-1.3,1-2.3,2.3-2.3c0,0,0,0,0,0c1.3,0,2.3,1,2.3,2.3s-1,2.3-2.3,2.3C-26.9,18.5-27.9,17.4-27.9,16.1 C-27.9,16.2-27.9,16.1-27.9,16.1z M-2.3-28.7c0-1.3,1-2.3,2.3-2.4c1.3,0,2.3,1,2.4,2.3c0,0,0,0.1,0,0.1c0,1.3-1,2.3-2.3,2.4 C-1.2-26.3-2.3-27.4-2.3-28.7C-2.3-28.7-2.3-28.7-2.3-28.7z"></path> <path class="st1" d="M-7.5-24.2l-18.1,10.8l0,15 M25.6,10.6l0-24l-15.5-9.3 M-19.1,19.9L0,30.9l14.1-8.1 M25.6,10.6l0,1.7 M-19.1,19.9l-3.2-1.9 M-7.5-24.2l4.2-2.5"></path> </g> <path class="st2" d="M-13.1-2.4h8.5v16.9h4V-8.3h-12.5V-2.4z M0.5-8.3v22.9h4V-2.4h8.6v-6H0.5z"></path> </symbol> <use xlink:href="#A" width="57.7" height="64" x="-28.9" y="-32" transform="matrix(0.4662 0 0 0.4662 15.4426 14.9039)" style="overflow:visible;"></use> </svg> 