<?xml version="1.0" encoding="UTF-8"?> <svg xmlns="http://www.w3.org/2000/svg" xmlns:xlink="http://www.w3.org/1999/xlink" width="29pt" height="29pt" viewBox="0 0 29 29" version="1.1"><g id="surface1"><path style=" stroke:none;fill-rule:nonzero;fill:rgb(22.352941%,58.039216%,22.352941%);fill-opacity:1;" d="M 26.113281 28.84375 L 3.046875 28.84375 C 1.457031 28.84375 0.164062 27.550781 0.164062 25.957031 L 0.164062 2.890625 C 0.164062 1.300781 1.457031 0.0078125 3.046875 0.0078125 L 26.113281 0.0078125 C 27.707031 0.0078125 29 1.300781 29 2.890625 L 29 25.957031 C 29 27.550781 27.707031 28.84375 26.113281 28.84375 Z M 3.046875 0.964844 C 1.984375 0.964844 1.121094 1.828125 1.121094 2.890625 L 1.121094 25.957031 C 1.121094 27.023438 1.984375 27.882812 3.046875 27.882812 L 26.113281 27.882812 C 27.179688 27.882812 28.039062 27.023438 28.039062 25.957031 L 28.039062 2.890625 C 28.039062 1.828125 27.179688 0.964844 26.113281 0.964844 Z M 3.046875 0.964844 "></path><path style=" stroke:none;fill-rule:nonzero;fill:rgb(22.352941%,58.039216%,22.352941%);fill-opacity:1;" d="M 26.597656 3.375 C 26.597656 3.644531 26.382812 3.859375 26.113281 3.859375 C 25.847656 3.859375 25.632812 3.644531 25.632812 3.375 C 25.632812 3.109375 25.847656 2.890625 26.113281 2.890625 C 26.382812 2.890625 26.597656 3.109375 26.597656 3.375 Z M 26.597656 3.375 "></path><path style=" stroke:none;fill-rule:nonzero;fill:rgb(22.352941%,58.039216%,22.352941%);fill-opacity:1;" d="M 24.679688 3.375 C 24.679688 3.644531 24.464844 3.859375 24.195312 3.859375 C 23.929688 3.859375 23.714844 3.644531 23.714844 3.375 C 23.714844 3.109375 23.929688 2.890625 24.195312 2.890625 C 24.464844 2.890625 24.679688 3.109375 24.679688 3.375 Z M 24.679688 3.375 "></path><path style=" stroke:none;fill-rule:nonzero;fill:rgb(22.352941%,58.039216%,22.352941%);fill-opacity:1;" d="M 5.449219 4.820312 L 3.523438 4.820312 C 3.234375 4.820312 2.566406 4.699219 2.566406 3.613281 C 2.566406 2.527344 3.234375 2.410156 3.523438 2.410156 L 5.449219 2.410156 C 5.742188 2.410156 6.410156 2.527344 6.410156 3.613281 C 6.410156 4.699219 5.742188 4.820312 5.449219 4.820312 Z M 3.5625 3.894531 Z M 3.546875 3.851562 L 5.429688 3.851562 C 5.441406 3.769531 5.449219 3.695312 5.449219 3.613281 C 5.449219 3.53125 5.441406 3.449219 5.429688 3.375 L 3.546875 3.375 C 3.53125 3.449219 3.523438 3.53125 3.523438 3.613281 C 3.523438 3.695312 3.53125 3.777344 3.546875 3.851562 Z M 3.546875 3.851562 "></path><path style=" stroke:none;fill-rule:nonzero;fill:rgb(22.352941%,58.039216%,22.352941%);fill-opacity:1;" d="M 25.640625 26.441406 L 3.523438 26.441406 C 2.996094 26.441406 2.566406 26.011719 2.566406 25.484375 L 2.566406 7.21875 C 2.566406 6.691406 2.996094 6.261719 3.523438 6.261719 L 25.632812 6.261719 C 26.160156 6.261719 26.589844 6.691406 26.589844 7.21875 L 26.589844 25.484375 C 26.597656 26.011719 26.167969 26.441406 25.640625 26.441406 Z M 3.523438 7.21875 L 3.523438 25.484375 L 25.632812 25.484375 L 25.632812 7.21875 Z M 3.523438 7.21875 "></path><path style=" stroke:none;fill-rule:nonzero;fill:rgb(22.352941%,58.039216%,22.352941%);fill-opacity:1;" d="M 20.828125 3.851562 L 9.292969 3.851562 C 8.523438 3.875 7.875 3.265625 7.851562 2.492188 C 7.851562 2.460938 7.851562 2.4375 7.851562 2.410156 L 7.851562 0.492188 C 7.851562 0.222656 8.066406 0.0078125 8.335938 0.0078125 C 8.601562 0.0078125 8.820312 0.222656 8.820312 0.492188 L 8.820312 2.417969 C 8.796875 2.660156 8.976562 2.871094 9.214844 2.898438 C 9.242188 2.898438 9.273438 2.898438 9.300781 2.898438 L 20.835938 2.898438 C 21.082031 2.921875 21.289062 2.742188 21.320312 2.507812 C 21.320312 2.476562 21.320312 2.445312 21.320312 2.417969 L 21.320312 0.492188 C 21.320312 0.222656 21.535156 0.0078125 21.800781 0.0078125 C 22.070312 0.0078125 22.285156 0.222656 22.285156 0.492188 L 22.285156 2.417969 C 22.308594 3.191406 21.699219 3.835938 20.925781 3.859375 C 20.886719 3.851562 20.859375 3.851562 20.828125 3.851562 Z M 20.828125 3.851562 "></path><path style=" stroke:none;fill-rule:nonzero;fill:rgb(22.352941%,58.039216%,22.352941%);fill-opacity:1;" d="M 16.507812 15.386719 C 15.445312 15.386719 14.582031 14.523438 14.582031 13.457031 C 14.582031 12.394531 15.445312 11.53125 16.507812 11.53125 C 17.570312 11.53125 18.433594 12.394531 18.433594 13.457031 C 18.433594 14.523438 17.5625 15.386719 16.507812 15.386719 Z M 16.507812 12.507812 C 15.980469 12.507812 15.546875 12.9375 15.546875 13.464844 C 15.546875 13.996094 15.980469 14.425781 16.507812 14.425781 C 17.035156 14.425781 17.46875 13.996094 17.46875 13.464844 C 17.46875 12.9375 17.035156 12.507812 16.507812 12.507812 Z M 16.507812 12.507812 "></path><path style=" stroke:none;fill-rule:nonzero;fill:rgb(22.352941%,58.039216%,22.352941%);fill-opacity:1;" d="M 20.828125 14.910156 L 17.941406 14.910156 C 17.675781 14.910156 17.460938 14.691406 17.460938 14.425781 C 17.460938 14.15625 17.675781 13.941406 17.941406 13.941406 L 20.828125 13.941406 C 21.09375 13.941406 21.3125 13.726562 21.3125 13.457031 C 21.3125 13.191406 21.09375 12.976562 20.828125 12.976562 L 17.941406 12.976562 C 17.675781 12.976562 17.460938 12.761719 17.460938 12.492188 C 17.460938 12.226562 17.675781 12.007812 17.941406 12.007812 L 20.828125 12.007812 C 21.625 12.007812 22.269531 12.65625 22.269531 13.453125 C 22.269531 14.261719 21.625 14.910156 20.828125 14.910156 Z M 20.828125 14.910156 "></path><path style=" stroke:none;fill-rule:nonzero;fill:rgb(22.352941%,58.039216%,22.352941%);fill-opacity:1;" d="M 15.066406 14.910156 L 14.105469 14.910156 C 13.308594 14.910156 12.664062 14.261719 12.664062 13.464844 C 12.664062 12.671875 13.308594 12.023438 14.105469 12.023438 L 15.066406 12.023438 C 15.332031 12.023438 15.546875 12.238281 15.546875 12.507812 C 15.546875 12.773438 15.332031 12.992188 15.066406 12.992188 L 14.105469 12.992188 C 13.839844 12.992188 13.621094 13.207031 13.621094 13.472656 C 13.621094 13.742188 13.839844 13.957031 14.105469 13.957031 L 15.066406 13.957031 C 15.332031 13.957031 15.546875 14.171875 15.546875 14.441406 C 15.546875 14.707031 15.324219 14.910156 15.066406 14.910156 Z M 15.066406 14.910156 "></path><path style=" stroke:none;fill-rule:nonzero;fill:rgb(22.352941%,58.039216%,22.352941%);fill-opacity:1;" d="M 18.425781 21.15625 C 17.363281 21.15625 16.5 20.292969 16.5 19.230469 C 16.5 18.164062 17.363281 17.304688 18.425781 17.304688 C 19.488281 17.304688 20.351562 18.164062 20.351562 19.230469 C 20.351562 20.292969 19.488281 21.15625 18.425781 21.15625 Z M 18.425781 18.269531 C 17.898438 18.269531 17.46875 18.703125 17.46875 19.230469 C 17.46875 19.757812 17.898438 20.1875 18.425781 20.1875 C 18.953125 20.1875 19.386719 19.757812 19.386719 19.230469 C 19.386719 18.703125 18.953125 18.269531 18.425781 18.269531 Z M 18.425781 18.269531 "></path><path style=" stroke:none;fill-rule:nonzero;fill:rgb(22.352941%,58.039216%,22.352941%);fill-opacity:1;" d="M 20.828125 20.671875 L 19.867188 20.671875 C 19.601562 20.671875 19.386719 20.457031 19.386719 20.1875 C 19.386719 19.921875 19.601562 19.707031 19.867188 19.707031 L 20.828125 19.707031 C 21.09375 19.707031 21.3125 19.488281 21.3125 19.222656 C 21.3125 18.953125 21.09375 18.738281 20.828125 18.738281 L 19.867188 18.738281 C 19.601562 18.738281 19.386719 18.523438 19.386719 18.253906 C 19.386719 17.988281 19.601562 17.773438 19.867188 17.773438 L 20.828125 17.773438 C 21.625 17.773438 22.269531 18.417969 22.269531 19.214844 C 22.269531 20.011719 21.625 20.671875 20.828125 20.671875 Z M 20.828125 20.671875 "></path><path style=" stroke:none;fill-rule:nonzero;fill:rgb(22.352941%,58.039216%,22.352941%);fill-opacity:1;" d="M 16.984375 20.671875 L 14.097656 20.671875 C 13.304688 20.671875 12.65625 20.023438 12.65625 19.230469 C 12.65625 18.433594 13.304688 17.785156 14.097656 17.785156 L 16.984375 17.785156 C 17.25 17.785156 17.46875 18.003906 17.46875 18.269531 C 17.46875 18.539062 17.25 18.753906 16.984375 18.753906 L 14.097656 18.753906 C 13.832031 18.753906 13.613281 18.96875 13.613281 19.238281 C 13.613281 19.503906 13.832031 19.71875 14.097656 19.71875 L 16.984375 19.71875 C 17.25 19.71875 17.46875 19.9375 17.46875 20.203125 C 17.46875 20.472656 17.25 20.671875 16.984375 20.671875 Z M 16.984375 20.671875 "></path><path style=" stroke:none;fill-rule:nonzero;fill:rgb(22.352941%,58.039216%,22.352941%);fill-opacity:1;" d="M 11.222656 14.910156 L 7.859375 14.910156 C 7.59375 14.910156 7.375 14.691406 7.375 14.425781 C 7.375 14.15625 7.59375 13.941406 7.859375 13.941406 L 11.222656 13.941406 C 11.488281 13.941406 11.703125 14.15625 11.703125 14.425781 C 11.703125 14.691406 11.480469 14.910156 11.222656 14.910156 Z M 11.222656 14.910156 "></path><path style=" stroke:none;fill-rule:nonzero;fill:rgb(22.352941%,58.039216%,22.352941%);fill-opacity:1;" d="M 10.261719 12.507812 C 10.261719 12.773438 10.046875 12.992188 9.777344 12.992188 C 9.511719 12.992188 9.292969 12.773438 9.292969 12.507812 C 9.292969 12.242188 9.511719 12.023438 9.777344 12.023438 C 10.046875 12.023438 10.261719 12.242188 10.261719 12.507812 Z M 10.261719 12.507812 "></path><path style=" stroke:none;fill-rule:nonzero;fill:rgb(22.352941%,58.039216%,22.352941%);fill-opacity:1;" d="M 8.335938 12.507812 C 8.335938 12.773438 8.121094 12.992188 7.851562 12.992188 C 7.585938 12.992188 7.367188 12.773438 7.367188 12.507812 C 7.367188 12.242188 7.585938 12.023438 7.851562 12.023438 C 8.121094 12.023438 8.335938 12.242188 8.335938 12.507812 Z M 8.335938 12.507812 "></path><path style=" stroke:none;fill-rule:nonzero;fill:rgb(22.352941%,58.039216%,22.352941%);fill-opacity:1;" d="M 11.222656 20.671875 L 7.859375 20.671875 C 7.59375 20.671875 7.375 20.457031 7.375 20.1875 C 7.375 19.921875 7.59375 19.707031 7.859375 19.707031 L 11.222656 19.707031 C 11.488281 19.707031 11.703125 19.921875 11.703125 20.1875 C 11.703125 20.457031 11.480469 20.671875 11.222656 20.671875 Z M 11.222656 20.671875 "></path><path style=" stroke:none;fill-rule:nonzero;fill:rgb(22.352941%,58.039216%,22.352941%);fill-opacity:1;" d="M 10.261719 18.269531 C 10.261719 18.535156 10.046875 18.753906 9.777344 18.753906 C 9.511719 18.753906 9.292969 18.535156 9.292969 18.269531 C 9.292969 18.003906 9.511719 17.785156 9.777344 17.785156 C 10.046875 17.785156 10.261719 18.003906 10.261719 18.269531 Z M 10.261719 18.269531 "></path><path style=" stroke:none;fill-rule:nonzero;fill:rgb(22.352941%,58.039216%,22.352941%);fill-opacity:1;" d="M 8.335938 18.269531 C 8.335938 18.535156 8.121094 18.753906 7.851562 18.753906 C 7.585938 18.753906 7.367188 18.535156 7.367188 18.269531 C 7.367188 18.003906 7.585938 17.785156 7.851562 17.785156 C 8.121094 17.785156 8.335938 18.003906 8.335938 18.269531 Z M 8.335938 18.269531 "></path></g></svg> 