<?xml version="1.0" encoding="UTF-8"?> <!-- Generator: Adobe Illustrator 23.0.3, SVG Export Plug-In . SVG Version: 6.00 Build 0) --> <svg xmlns="http://www.w3.org/2000/svg" xmlns:xlink="http://www.w3.org/1999/xlink" version="1.1" id="Layer_1" x="0px" y="0px" viewBox="0 0 501 438" style="enable-background:new 0 0 501 438;" xml:space="preserve"> <style type="text/css"> .st0{fill-rule:evenodd;clip-rule:evenodd;fill:#FC415E;} .st1{fill:#E1E1E1;} .st2{fill:#F5F5F5;} .st3{fill:#FFFFFF;} .st4{fill:#F0F0F0;} .st5{fill:#ECECEC;} .st6{fill:#E7E7E7;} .st7{fill:#FAFAFA;} .st8{fill:#007CFF;} .st9{opacity:0.2;} .st10{opacity:0.7;fill:#FFFFFF;} .st11{opacity:0.4;} </style> <path id="XMLID_664_" class="st0" d="M496.51,206.67C478.16,103.93,385.47,0.91,200.99,32.39S9.36,266.26,14.76,326.3 c5.4,60.04,59.44,84.29,129.55,55.59s104.09-34.77,167.51-7.73C375.23,401.21,518.04,327.11,496.51,206.67z"></path> <g> <rect x="101.81" y="147.52" class="st1" width="157.87" height="139.08"></rect> <rect x="98.95" y="159.42" class="st2" width="157.87" height="127.18"></rect> <rect x="119.99" y="180.79" class="st3" width="113.47" height="84.44"></rect> <rect x="78.12" y="159.42" transform="matrix(-1 -1.224647e-16 1.224647e-16 -1 177.0698 446.0167)" class="st4" width="20.82" height="127.18"></rect> <rect x="78.12" y="159.42" transform="matrix(-1 -1.224647e-16 1.224647e-16 -1 177.0698 326.933)" class="st5" width="20.82" height="8.1"></rect> <rect x="78.12" y="147.52" transform="matrix(-1 -1.224647e-16 1.224647e-16 -1 334.9368 306.9377)" class="st6" width="178.69" height="11.9"></rect> <rect x="98.95" y="159.42" transform="matrix(-1 -1.224647e-16 1.224647e-16 -1 245.9794 323.7932)" class="st7" width="48.09" height="4.96"></rect> <rect x="147.03" y="159.42" class="st5" width="48.09" height="4.96"></rect> <rect x="79.69" y="169.17" class="st6" width="7.29" height="7.29"></rect> <rect x="90.1" y="169.17" class="st6" width="7.29" height="7.29"></rect> <rect x="90.1" y="179.58" transform="matrix(-1 -1.224647e-16 1.224647e-16 -1 187.4806 366.4444)" class="st6" width="7.29" height="7.29"></rect> <rect x="79.69" y="179.58" transform="matrix(-1 -1.224647e-16 1.224647e-16 -1 166.659 366.4444)" class="st6" width="7.29" height="7.29"></rect> <rect x="79.69" y="189.99" class="st6" width="7.29" height="7.29"></rect> <rect x="90.1" y="189.99" class="st6" width="7.29" height="7.29"></rect> <rect x="90.1" y="200.4" transform="matrix(-1 -1.224647e-16 1.224647e-16 -1 187.4806 408.0875)" class="st6" width="7.29" height="7.29"></rect> <rect x="79.69" y="200.4" transform="matrix(-1 -1.224647e-16 1.224647e-16 -1 166.659 408.0875)" class="st6" width="7.29" height="7.29"></rect> <rect x="79.69" y="210.81" class="st6" width="7.29" height="7.29"></rect> <rect x="90.1" y="210.81" class="st6" width="7.29" height="7.29"></rect> <rect x="90.1" y="221.22" transform="matrix(-1 -1.224647e-16 1.224647e-16 -1 187.4806 449.7307)" class="st6" width="7.29" height="7.29"></rect> <rect x="79.69" y="221.22" transform="matrix(-1 -1.224647e-16 1.224647e-16 -1 166.659 449.7307)" class="st6" width="7.29" height="7.29"></rect> <rect x="79.69" y="252.45" transform="matrix(-1 -1.224647e-16 1.224647e-16 -1 163.8374 509.3738)" class="st6" width="4.47" height="4.47"></rect> <rect x="92.92" y="252.45" transform="matrix(-1 -1.224647e-16 1.224647e-16 -1 190.3022 509.3738)" class="st6" width="4.47" height="4.47"></rect> <rect x="86.3" y="252.45" transform="matrix(-1 -1.224647e-16 1.224647e-16 -1 177.0698 509.3738)" class="st6" width="4.47" height="4.47"></rect> <rect x="86.51" y="238.45" transform="matrix(-1 -1.224647e-16 1.224647e-16 -1 183.8451 487.7384)" class="st6" width="10.83" height="10.83"></rect> <rect x="79.69" y="231.63" transform="matrix(-1 -1.224647e-16 1.224647e-16 -1 170.2037 474.0969)" class="st3" width="10.83" height="10.83"></rect> <g> <ellipse transform="matrix(0.1602 -0.9871 0.9871 0.1602 -37.3535 374.3254)" class="st2" cx="201.31" cy="209.11" rx="18.18" ry="18.18"></ellipse> <rect x="185.69" y="230.87" transform="matrix(-1.836970e-16 1 -1 -1.836970e-16 438.1444 35.5311)" class="st2" width="31.23" height="11.93"></rect> </g> </g> <g> <g> <g> <path class="st8" d="M234.26,265.8l-33.07,33.07c0,0-20.39-22.86-47.37-20.27c-9.98-21.91-21.38-68.6-24.53-81.92l45.04,45.04 c-1.45,2.65-1.05,6.01,1.19,8.25c2.72,2.72,7.11,2.72,9.83,0c2.72-2.72,2.73-7.12,0.01-9.84c-2.23-2.23-5.61-2.62-8.26-1.17 l-45.04-45.04c13.32,3.14,60.01,14.55,81.92,24.53C211.41,245.41,234.26,265.8,234.26,265.8z"></path> <path class="st9" d="M213.98,218.44c-21.9-9.98-68.6-21.39-81.93-24.53l45.04,45.04c2.65-1.45,6.03-1.07,8.27,1.17 c2.72,2.72,2.7,7.13-0.02,9.84l32.37,32.37l16.55-16.55C234.26,265.79,211.41,245.41,213.98,218.44z"></path> </g> <g> <path class="st8" d="M325.52,390.14L325.52,390.14c-5.8,5.8-15.3,5.8-21.1,0l-97-97l21.1-21.1l97,97 C331.33,374.85,331.33,384.34,325.52,390.14z"></path> <path class="st10" d="M325.52,390.14L325.52,390.14c-5.8,5.8-15.3,5.8-21.1,0l-97-97l21.1-21.1l97,97 C331.33,374.85,331.33,384.34,325.52,390.14z"></path> </g> <path class="st8" d="M240.71,281.23l-24.1,24.1c-1.06,1.06-2.8,1.06-3.87,0l-6.82-6.82c-1.06-1.06-1.06-2.8,0-3.87l24.1-24.1 c1.06-1.06,2.8-1.06,3.87,0l6.82,6.82C241.77,278.43,241.77,280.17,240.71,281.23z"></path> <g> <g> <path class="st8" d="M240.56,270.69l-34.49,34.49c-1.11,1.11-2.94,1.11-4.05,0l-7.14-7.14c-1.11-1.11-1.11-2.94,0-4.05 l34.49-34.49c1.11-1.11,2.94-1.11,4.05,0l7.14,7.14C241.68,267.75,241.68,269.58,240.56,270.69z"></path> <path class="st11" d="M240.56,270.69l-34.49,34.49c-1.11,1.11-2.94,1.11-4.05,0l-7.14-7.14c-1.11-1.11-1.11-2.94,0-4.05 l34.49-34.49c1.11-1.11,2.94-1.11,4.05,0l7.14,7.14C241.68,267.75,241.68,269.58,240.56,270.69z"></path> </g> <rect x="205" y="283.82" transform="matrix(0.7071 -0.7071 0.7071 0.7071 -145.2671 232.752)" class="st3" width="6.66" height="15.83"></rect> <rect x="213.46" y="277.32" transform="matrix(-0.7071 0.7071 -0.7071 -0.7071 568.4215 335.0271)" class="st3" width="2.73" height="15.83"></rect> </g> </g> <g> <path class="st8" d="M121.66,405.22c-60.36-60.36-60.36-158.58,0-218.94c60.36-60.36,158.58-60.36,218.94,0l-1.79,1.79 c-59.37-59.37-155.98-59.37-215.35,0c-59.37,59.37-59.37,155.98,0,215.35L121.66,405.22z"></path> <rect x="-30.98" y="185.91" transform="matrix(0.7071 -0.7071 0.7071 0.7071 -96.4599 141.4864)" class="st8" width="307.09" height="2.54"></rect> <g> <rect x="111.09" y="175.71" transform="matrix(0.7071 -0.7071 0.7071 0.7071 -96.4599 141.4864)" class="st3" width="22.95" height="22.95"></rect> <path class="st8" d="M122.56,205.2l-18.02-18.02l18.02-18.02l18.02,18.02L122.56,205.2z M108.13,187.18l14.43,14.43l14.43-14.43 l-14.43-14.43L108.13,187.18z"></path> </g> <g> <rect x="111.09" y="392.85" transform="matrix(0.7071 -0.7071 0.7071 0.7071 -250.0035 205.0862)" class="st3" width="22.95" height="22.95"></rect> <path class="st8" d="M122.56,422.34l-18.02-18.02l18.02-18.02l18.02,18.02L122.56,422.34z M108.13,404.32l14.43,14.43 l14.43-14.43l-14.43-14.43L108.13,404.32z"></path> </g> <g> <rect x="328.7" y="175.24" transform="matrix(0.7071 -0.7071 0.7071 0.7071 -32.3885 295.2253)" class="st3" width="22.95" height="22.95"></rect> <path class="st8" d="M340.17,204.73l-18.02-18.02l18.02-18.02l18.02,18.02L340.17,204.73z M325.74,186.71l14.43,14.43 l14.43-14.43l-14.43-14.43L325.74,186.71z"></path> </g> <g> <circle class="st3" cx="231.6" cy="78.14" r="11.47"></circle> <path class="st8" d="M231.6,90.88c-3.4,0-6.6-1.33-9.01-3.73c-4.97-4.97-4.97-13.05,0-18.02c2.41-2.41,5.61-3.73,9.01-3.73 c3.4,0,6.6,1.33,9.01,3.73l0,0c2.41,2.41,3.73,5.61,3.73,9.01c0,3.4-1.33,6.6-3.73,9.01C238.2,89.55,235.01,90.88,231.6,90.88z M231.6,67.93c-2.73,0-5.29,1.06-7.22,2.99c-3.98,3.98-3.98,10.45,0,14.43c3.98,3.98,10.45,3.98,14.43,0 c1.93-1.93,2.99-4.49,2.99-7.22c0-2.73-1.06-5.29-2.99-7.22l0,0C236.89,68.99,234.33,67.93,231.6,67.93z"></path> </g> <g> <circle class="st3" cx="13.99" cy="295.75" r="11.47"></circle> <path class="st8" d="M13.99,308.49c-3.26,0-6.52-1.24-9.01-3.73c-4.97-4.97-4.97-13.05,0-18.02c4.97-4.97,13.05-4.97,18.02,0l0,0 c4.97,4.97,4.97,13.05,0,18.02C20.51,307.24,17.25,308.49,13.99,308.49z M13.99,285.55c-2.61,0-5.23,0.99-7.22,2.98 c-3.98,3.98-3.98,10.45,0,14.43c3.98,3.98,10.45,3.98,14.43,0c3.98-3.98,3.98-10.45,0-14.43 C19.21,286.55,16.6,285.55,13.99,285.55z"></path> </g> </g> </g> </svg> 