<?xml version="1.0" encoding="UTF-8"?> <svg xmlns="http://www.w3.org/2000/svg" width="45" height="45" viewBox="0 0 45 45" fill="none"><circle cx="22.4535" cy="22.4535" r="22.4535" fill="#EFF5FF"></circle><g clip-path="url(#clip0_422_462)"><path d="M16.6 13.287L17.6068 11.2735C18.8448 11.0572 19.4321 11.147 19.9559 12.2803V13.9582L17.2712 13.6226L16.6 13.287Z" fill="#FFCA00"></path><path d="M17.2712 30.0667V29.3955H19.6204V30.0667L18.6136 32.0802L17.2712 30.0667Z" fill="#FFCA00"></path><path d="M27.339 11.6091V32.0802" stroke="#FFCA00" stroke-linecap="round"></path><path d="M16.2584 30.4238L16.2623 30.4315L16.2673 30.4386L18.0448 32.9935C18.0449 32.9938 18.0451 32.994 18.0453 32.9942C18.1462 33.143 18.2984 33.1886 18.4329 33.1886C18.5888 33.1886 18.7256 33.091 18.8052 33.0126L18.8135 33.0044L18.8201 32.9949L20.5985 30.4386L20.6035 30.4315L20.6074 30.4238C20.6089 30.4209 20.6104 30.4178 20.612 30.4147C20.644 30.3519 20.692 30.2579 20.692 30.1572V12.6481C20.692 11.4214 19.6738 10.4219 18.4329 10.4219H18.4329C17.192 10.4219 16.1738 11.4216 16.1738 12.6481V30.1572C16.1738 30.2579 16.2218 30.3519 16.2538 30.4147C16.2554 30.4178 16.2569 30.4209 16.2584 30.4238ZM17.1351 28.4915V14.7343H17.9521V28.4915H17.1351ZM18.9136 14.6992H19.7305V28.4564H18.9136V14.6992ZM18.4329 11.3725C19.1482 11.3725 19.7305 11.9487 19.7305 12.6482V13.7488H17.1352V12.6482C17.1352 11.9488 17.7176 11.3725 18.4329 11.3725ZM19.7307 30.0482L18.4329 31.9007L17.1353 30.0482V29.4421H19.7307V30.0482Z" fill="#2176FF" stroke="#2176FF" stroke-width="0.25"></path><path d="M27.9557 10.4219H23.7232C23.5887 10.4219 23.4666 10.4666 23.3777 10.5542C23.2886 10.6419 23.2426 10.7631 23.2426 10.8971V32.4686C23.2426 32.6026 23.2885 32.7237 23.3777 32.8115C23.4666 32.8991 23.5887 32.9437 23.7232 32.9437H27.9557C28.0902 32.9437 28.2123 32.8991 28.3012 32.8115C28.3904 32.7237 28.4364 32.6026 28.4364 32.4686V10.8971C28.4364 10.6594 28.2443 10.4219 27.9557 10.4219ZM27.475 32.0285H24.2039V30.9478H26.0707C26.2052 30.9478 26.3273 30.9031 26.4162 30.8156C26.5054 30.7278 26.5514 30.6067 26.5514 30.4726C26.5514 30.3386 26.5054 30.2174 26.4162 30.1297C26.3273 30.0421 26.2052 29.9975 26.0707 29.9975H24.2039V28.7417H25.5015C25.636 28.7417 25.7581 28.697 25.8471 28.6095C25.9362 28.5217 25.9822 28.4006 25.9822 28.2665C25.9822 28.1325 25.9362 28.0114 25.8471 27.9236C25.7581 27.836 25.6361 27.7914 25.5015 27.7914H24.2039V26.5356H25.5015C25.636 26.5356 25.7581 26.491 25.8471 26.4034C25.9362 26.3156 25.9822 26.1945 25.9822 26.0605C25.9822 25.9264 25.9362 25.8053 25.8471 25.7175C25.7581 25.6299 25.6361 25.5853 25.5015 25.5853H24.2039V24.3995H26.0707C26.2052 24.3995 26.3273 24.3548 26.4162 24.2673C26.5054 24.1795 26.5514 24.0584 26.5514 23.9243C26.5514 23.7903 26.5054 23.6691 26.4162 23.5814C26.3273 23.4938 26.2052 23.4492 26.0707 23.4492H24.2039V22.1934H25.5015C25.636 22.1934 25.7581 22.1487 25.8471 22.0612C25.9362 21.9734 25.9822 21.8523 25.9822 21.7182C25.9822 21.5842 25.9362 21.4631 25.8471 21.3753C25.7581 21.2877 25.6361 21.2431 25.5015 21.2431H24.2039V19.9873H25.5015C25.636 19.9873 25.7581 19.9427 25.8471 19.8551C25.9362 19.7673 25.9822 19.6462 25.9822 19.5122C25.9822 19.3781 25.9362 19.257 25.8471 19.1692C25.7581 19.0816 25.6361 19.037 25.5015 19.037H24.2039V17.8512H26.0707C26.2052 17.8512 26.3273 17.8065 26.4162 17.719C26.5054 17.6312 26.5514 17.5101 26.5514 17.376C26.5514 17.242 26.5054 17.1208 26.4162 17.0331C26.3273 16.9455 26.2052 16.9009 26.0707 16.9009H24.2039V15.6451H25.5015C25.636 15.6451 25.7581 15.6004 25.8471 15.5129C25.9362 15.4251 25.9822 15.304 25.9822 15.1699C25.9822 15.0359 25.9362 14.9148 25.8471 14.827C25.7581 14.7394 25.6361 14.6948 25.5015 14.6948H24.2039V13.4035H25.5015C25.636 13.4035 25.7581 13.3589 25.8471 13.2713C25.9362 13.1835 25.9822 13.0624 25.9822 12.9284C25.9822 12.7943 25.9362 12.6732 25.8471 12.5854C25.7581 12.4979 25.6361 12.4532 25.5015 12.4532H24.2039V11.3725H27.475V32.0285Z" fill="#2176FF" stroke="#2176FF" stroke-width="0.25"></path></g><defs><clipPath id="clip0_422_462"><rect width="20.8067" height="24.1627" fill="white" transform="translate(11.9017 10.2667)"></rect></clipPath></defs></svg> 