<?xml version="1.0" encoding="UTF-8"?> <svg xmlns="http://www.w3.org/2000/svg" xmlns:xlink="http://www.w3.org/1999/xlink" width="29pt" height="29pt" viewBox="0 0 29 29" version="1.1"><g id="surface1"><path style=" stroke:none;fill-rule:nonzero;fill:rgb(25.098039%,76.862745%,100%);fill-opacity:1;" d="M 2.898438 22.714844 L 4.832031 22.714844 L 4.832031 23.683594 L 2.898438 23.683594 Z M 2.898438 22.714844 "></path><path style=" stroke:none;fill-rule:nonzero;fill:rgb(25.098039%,76.862745%,100%);fill-opacity:1;" d="M 5.800781 22.714844 L 7.25 22.714844 L 7.25 23.683594 L 5.800781 23.683594 Z M 5.800781 22.714844 "></path><path style=" stroke:none;fill-rule:nonzero;fill:rgb(25.098039%,76.862745%,100%);fill-opacity:1;" d="M 2.898438 25.132812 L 6.285156 25.132812 L 6.285156 26.101562 L 2.898438 26.101562 Z M 2.898438 25.132812 "></path><path style=" stroke:none;fill-rule:nonzero;fill:rgb(25.098039%,76.862745%,100%);fill-opacity:1;" d="M 7.25 25.132812 L 12.082031 25.132812 L 12.082031 26.101562 L 7.25 26.101562 Z M 7.25 25.132812 "></path><path style=" stroke:none;fill-rule:nonzero;fill:rgb(25.098039%,76.862745%,100%);fill-opacity:1;" d="M 24.167969 22.714844 L 26.101562 22.714844 L 26.101562 23.683594 L 24.167969 23.683594 Z M 24.167969 22.714844 "></path><path style=" stroke:none;fill-rule:nonzero;fill:rgb(25.098039%,76.862745%,100%);fill-opacity:1;" d="M 21.75 22.714844 L 23.199219 22.714844 L 23.199219 23.683594 L 21.75 23.683594 Z M 21.75 22.714844 "></path><path style=" stroke:none;fill-rule:nonzero;fill:rgb(25.098039%,76.862745%,100%);fill-opacity:1;" d="M 22.714844 25.132812 L 26.101562 25.132812 L 26.101562 26.101562 L 22.714844 26.101562 Z M 22.714844 25.132812 "></path><path style=" stroke:none;fill-rule:nonzero;fill:rgb(25.098039%,76.862745%,100%);fill-opacity:1;" d="M 16.917969 25.132812 L 21.75 25.132812 L 21.75 26.101562 L 16.917969 26.101562 Z M 16.917969 25.132812 "></path><path style=" stroke:none;fill-rule:nonzero;fill:rgb(25.098039%,76.862745%,100%);fill-opacity:1;" d="M 11.117188 19.816406 L 12.082031 19.816406 L 12.082031 20.785156 L 11.117188 20.785156 Z M 11.117188 19.816406 "></path><path style=" stroke:none;fill-rule:nonzero;fill:rgb(25.098039%,76.862745%,100%);fill-opacity:1;" d="M 13.050781 19.816406 L 14.015625 19.816406 L 14.015625 20.785156 L 13.050781 20.785156 Z M 13.050781 19.816406 "></path><path style=" stroke:none;fill-rule:nonzero;fill:rgb(25.098039%,76.862745%,100%);fill-opacity:1;" d="M 14.984375 19.816406 L 15.949219 19.816406 L 15.949219 20.785156 L 14.984375 20.785156 Z M 14.984375 19.816406 "></path><path style=" stroke:none;fill-rule:nonzero;fill:rgb(25.098039%,76.862745%,100%);fill-opacity:1;" d="M 16.917969 19.816406 L 17.882812 19.816406 L 17.882812 20.785156 L 16.917969 20.785156 Z M 16.917969 19.816406 "></path><path style=" stroke:none;fill-rule:nonzero;fill:rgb(25.098039%,76.862745%,100%);fill-opacity:1;" d="M 27.550781 0 L 1.449219 0 C 0.648438 0 0 0.648438 0 1.449219 L 0 27.550781 C 0 28.351562 0.648438 29 1.449219 29 L 27.550781 29 C 28.351562 29 29 28.351562 29 27.550781 L 29 1.449219 C 29 0.648438 28.351562 0 27.550781 0 Z M 28.035156 1.449219 L 28.035156 2.898438 L 9.964844 2.898438 L 8.996094 0.964844 L 27.550781 0.964844 C 27.816406 0.964844 28.035156 1.183594 28.035156 1.449219 Z M 1.449219 0.964844 L 7.917969 0.964844 L 8.886719 2.898438 L 0.964844 2.898438 L 0.964844 1.449219 C 0.964844 1.183594 1.183594 0.964844 1.449219 0.964844 Z M 27.550781 28.035156 L 1.449219 28.035156 C 1.183594 28.035156 0.964844 27.816406 0.964844 27.550781 L 0.964844 3.867188 L 28.035156 3.867188 L 28.035156 27.550781 C 28.035156 27.816406 27.816406 28.035156 27.550781 28.035156 Z M 27.550781 28.035156 "></path><path style=" stroke:none;fill-rule:nonzero;fill:rgb(25.098039%,76.862745%,100%);fill-opacity:1;" d="M 2.898438 1.933594 C 2.898438 2.199219 2.683594 2.417969 2.417969 2.417969 C 2.148438 2.417969 1.933594 2.199219 1.933594 1.933594 C 1.933594 1.667969 2.148438 1.449219 2.417969 1.449219 C 2.683594 1.449219 2.898438 1.667969 2.898438 1.933594 Z M 2.898438 1.933594 "></path><path style=" stroke:none;fill-rule:nonzero;fill:rgb(25.098039%,76.862745%,100%);fill-opacity:1;" d="M 4.351562 1.933594 C 4.351562 2.199219 4.132812 2.417969 3.867188 2.417969 C 3.601562 2.417969 3.382812 2.199219 3.382812 1.933594 C 3.382812 1.667969 3.601562 1.449219 3.867188 1.449219 C 4.132812 1.449219 4.351562 1.667969 4.351562 1.933594 Z M 4.351562 1.933594 "></path><path style=" stroke:none;fill-rule:nonzero;fill:rgb(25.098039%,76.862745%,100%);fill-opacity:1;" d="M 5.800781 1.933594 C 5.800781 2.199219 5.582031 2.417969 5.316406 2.417969 C 5.050781 2.417969 4.832031 2.199219 4.832031 1.933594 C 4.832031 1.667969 5.050781 1.449219 5.316406 1.449219 C 5.582031 1.449219 5.800781 1.667969 5.800781 1.933594 Z M 5.800781 1.933594 "></path><path style=" stroke:none;fill-rule:nonzero;fill:rgb(25.098039%,76.862745%,100%);fill-opacity:1;" d="M 19.332031 15.464844 L 19.332031 10.148438 C 19.332031 9.972656 19.238281 9.816406 19.089844 9.726562 L 14.738281 7.308594 C 14.589844 7.226562 14.410156 7.226562 14.269531 7.308594 L 9.917969 9.726562 C 9.761719 9.816406 9.667969 9.972656 9.667969 10.148438 L 9.667969 15.464844 C 9.667969 15.628906 9.75 15.777344 9.882812 15.867188 L 12.78125 17.800781 C 12.863281 17.855469 12.953125 17.882812 13.050781 17.882812 L 15.949219 17.882812 C 16.046875 17.882812 16.136719 17.855469 16.21875 17.800781 L 19.117188 15.867188 C 19.25 15.777344 19.332031 15.628906 19.332031 15.464844 Z M 14.5 8.285156 L 17.855469 10.148438 L 14.5 12.015625 L 11.144531 10.148438 Z M 15.800781 16.917969 L 13.191406 16.917969 L 10.625 15.207031 L 10.625 10.96875 L 14.253906 12.984375 C 14.402344 13.066406 14.582031 13.066406 14.722656 12.984375 L 18.351562 10.96875 L 18.351562 15.207031 Z M 15.800781 16.917969 "></path></g></svg> 