<?xml version="1.0" encoding="UTF-8"?> <svg xmlns="http://www.w3.org/2000/svg" xmlns:xlink="http://www.w3.org/1999/xlink" width="29pt" height="29pt" viewBox="0 0 29 29" version="1.1"><g id="surface1"><path style=" stroke:none;fill-rule:nonzero;fill:rgb(99.607843%,85.098039%,29.411765%);fill-opacity:1;" d="M 6.632812 5.726562 C 6.90625 5.726562 7.125 5.503906 7.125 5.234375 C 7.125 4.96875 6.902344 4.742188 6.632812 4.742188 C 6.363281 4.742188 6.140625 4.96875 6.140625 5.234375 C 6.140625 5.511719 6.359375 5.726562 6.632812 5.726562 Z M 6.632812 5.726562 "></path><path style=" stroke:none;fill-rule:nonzero;fill:rgb(99.607843%,85.098039%,29.411765%);fill-opacity:1;" d="M 4.921875 5.726562 C 5.199219 5.726562 5.414062 5.503906 5.414062 5.234375 C 5.414062 4.96875 5.191406 4.742188 4.921875 4.742188 C 4.65625 4.742188 4.433594 4.96875 4.433594 5.234375 C 4.433594 5.511719 4.648438 5.726562 4.921875 5.726562 Z M 4.921875 5.726562 "></path><path style=" stroke:none;fill-rule:nonzero;fill:rgb(99.607843%,85.098039%,29.411765%);fill-opacity:1;" d="M 3.210938 5.726562 C 3.488281 5.726562 3.703125 5.503906 3.703125 5.234375 C 3.703125 4.96875 3.480469 4.742188 3.210938 4.742188 C 2.945312 4.742188 2.722656 4.96875 2.722656 5.234375 C 2.722656 5.511719 2.9375 5.726562 3.210938 5.726562 Z M 3.210938 5.726562 "></path><path style=" stroke:none;fill-rule:nonzero;fill:rgb(99.607843%,85.098039%,29.411765%);fill-opacity:1;" d="M 24.113281 12.007812 C 24.640625 12.007812 25.066406 11.585938 25.066406 11.058594 C 25.066406 10.527344 24.640625 10.105469 24.113281 10.105469 C 23.765625 10.105469 23.460938 10.296875 23.296875 10.582031 L 15.839844 10.582031 L 16.492188 11.769531 C 20.308594 12.640625 23.222656 15.933594 23.59375 19.972656 L 23.445312 19.972656 C 23.339844 19.972656 23.253906 20.054688 23.253906 20.167969 L 23.253906 21.496094 C 23.253906 21.601562 23.332031 21.691406 23.445312 21.691406 L 24.785156 21.691406 C 24.886719 21.691406 24.976562 21.609375 24.976562 21.496094 L 24.976562 20.152344 C 24.976562 20.046875 24.894531 19.957031 24.785156 19.957031 L 24.5625 19.957031 C 24.257812 16.21875 21.964844 13.050781 18.761719 11.527344 L 23.296875 11.527344 C 23.460938 11.816406 23.765625 12.007812 24.113281 12.007812 Z M 24.113281 12.007812 "></path><path style=" stroke:none;fill-rule:nonzero;fill:rgb(99.607843%,85.098039%,29.411765%);fill-opacity:1;" d="M 12.507812 11.757812 L 13.160156 10.566406 L 5.703125 10.566406 C 5.539062 10.285156 5.234375 10.089844 4.886719 10.089844 C 4.359375 10.089844 3.933594 10.515625 3.933594 11.042969 C 3.933594 11.570312 4.359375 11.992188 4.886719 11.992188 C 5.234375 11.992188 5.539062 11.800781 5.703125 11.519531 L 10.238281 11.519531 C 7.042969 13.035156 4.75 16.210938 4.4375 19.949219 L 4.214844 19.949219 C 4.113281 19.949219 4.023438 20.03125 4.023438 20.144531 L 4.023438 21.476562 C 4.023438 21.578125 4.105469 21.667969 4.214844 21.667969 L 5.554688 21.667969 C 5.660156 21.667969 5.746094 21.585938 5.746094 21.476562 L 5.746094 20.152344 C 5.746094 20.046875 5.667969 19.957031 5.554688 19.957031 L 5.40625 19.957031 C 5.769531 15.921875 8.691406 12.625 12.507812 11.757812 Z M 12.507812 11.757812 "></path><path style=" stroke:none;fill-rule:nonzero;fill:rgb(99.607843%,85.098039%,29.411765%);fill-opacity:1;" d="M 15.085938 10.605469 C 15.078125 10.589844 15.066406 10.582031 15.058594 10.566406 C 15.042969 10.542969 15.027344 10.523438 15.011719 10.507812 C 15 10.492188 14.984375 10.476562 14.96875 10.460938 C 14.953125 10.449219 14.9375 10.433594 14.925781 10.417969 C 14.902344 10.402344 14.878906 10.386719 14.855469 10.375 C 14.84375 10.367188 14.835938 10.359375 14.828125 10.351562 C 14.820312 10.351562 14.820312 10.351562 14.820312 10.34375 C 14.796875 10.328125 14.769531 10.320312 14.746094 10.3125 C 14.730469 10.304688 14.714844 10.296875 14.691406 10.292969 C 14.671875 10.285156 14.648438 10.285156 14.625 10.277344 C 14.605469 10.269531 14.582031 10.269531 14.558594 10.261719 C 14.539062 10.261719 14.523438 10.261719 14.5 10.261719 C 14.476562 10.261719 14.457031 10.261719 14.433594 10.261719 C 14.410156 10.261719 14.394531 10.269531 14.375 10.277344 C 14.351562 10.285156 14.328125 10.285156 14.308594 10.292969 C 14.292969 10.296875 14.277344 10.304688 14.261719 10.3125 C 14.238281 10.320312 14.210938 10.335938 14.1875 10.34375 C 14.179688 10.34375 14.179688 10.34375 14.179688 10.351562 C 14.164062 10.359375 14.15625 10.367188 14.144531 10.375 C 14.121094 10.386719 14.097656 10.402344 14.074219 10.417969 C 14.0625 10.433594 14.046875 10.449219 14.03125 10.460938 C 14.015625 10.476562 14 10.492188 13.988281 10.507812 C 13.972656 10.527344 13.957031 10.550781 13.941406 10.574219 C 13.933594 10.589844 13.925781 10.597656 13.921875 10.609375 L 10.9375 15.988281 C 10.683594 16.417969 10.605469 16.929688 10.707031 17.429688 L 11.839844 22.539062 L 11.660156 24.300781 L 17.363281 24.300781 L 17.183594 22.539062 L 18.316406 17.414062 C 18.417969 16.925781 18.335938 16.410156 18.089844 15.988281 Z M 16.984375 17.132812 L 15.90625 22.019531 L 13.09375 22.019531 L 12.023438 17.148438 C 11.988281 16.976562 12.015625 16.804688 12.105469 16.640625 L 14.023438 13.183594 L 14.023438 16.070312 C 13.621094 16.253906 13.339844 16.664062 13.339844 17.140625 C 13.339844 17.785156 13.859375 18.316406 14.507812 18.316406 C 15.148438 18.316406 15.675781 17.785156 15.675781 17.140625 C 15.675781 16.664062 15.390625 16.253906 14.992188 16.070312 L 14.992188 13.183594 L 16.917969 16.648438 C 16.992188 16.796875 17.011719 16.976562 16.984375 17.132812 Z M 16.984375 17.132812 "></path><path style=" stroke:none;fill-rule:nonzero;fill:rgb(99.607843%,85.098039%,29.411765%);fill-opacity:1;" d="M 26.703125 2.683594 L 2.296875 2.683594 C 1.085938 2.683594 0.0976562 3.671875 0.0976562 4.878906 L 0.0976562 24.105469 C 0.0976562 25.320312 1.085938 26.300781 2.296875 26.300781 L 26.710938 26.300781 C 27.921875 26.300781 28.910156 25.3125 28.910156 24.105469 L 28.910156 4.886719 C 28.902344 3.671875 27.914062 2.683594 26.703125 2.683594 Z M 2.296875 4.03125 L 26.710938 4.03125 C 27.179688 4.03125 27.566406 4.410156 27.566406 4.886719 L 27.566406 6.453125 L 1.441406 6.453125 L 1.441406 4.894531 C 1.441406 4.417969 1.820312 4.03125 2.296875 4.03125 Z M 26.703125 24.96875 L 2.296875 24.96875 C 1.828125 24.96875 1.441406 24.589844 1.441406 24.113281 L 1.441406 7.414062 L 27.558594 7.414062 L 27.558594 24.121094 C 27.558594 24.582031 27.179688 24.96875 26.703125 24.96875 Z M 26.703125 24.96875 "></path></g></svg> 