<?xml version="1.0" encoding="UTF-8"?> <svg xmlns="http://www.w3.org/2000/svg" xmlns:xlink="http://www.w3.org/1999/xlink" width="29pt" height="29pt" viewBox="0 0 29 29" version="1.1"><g id="surface1"><path style=" stroke:none;fill-rule:nonzero;fill:rgb(100%,25.098039%,50.588235%);fill-opacity:1;" d="M 14.648438 26.761719 C 15.042969 26.761719 15.363281 26.441406 15.363281 26.046875 C 15.363281 25.652344 15.042969 25.335938 14.648438 25.335938 C 14.253906 25.335938 13.933594 25.652344 13.933594 26.046875 C 13.941406 26.441406 14.253906 26.761719 14.648438 26.761719 Z M 14.648438 26.761719 "></path><path style=" stroke:none;fill-rule:nonzero;fill:rgb(100%,25.098039%,50.588235%);fill-opacity:1;" d="M 21.964844 0 L 7.339844 0 C 5.949219 0 4.820312 1.128906 4.820312 2.519531 L 4.820312 26.480469 C 4.820312 27.871094 5.949219 29 7.339844 29 L 21.964844 29 C 23.355469 29 24.488281 27.871094 24.488281 26.480469 L 24.488281 2.519531 C 24.488281 1.128906 23.355469 0 21.964844 0 Z M 23.339844 26.480469 C 23.339844 27.238281 22.722656 27.855469 21.964844 27.855469 L 7.339844 27.855469 C 6.582031 27.855469 5.964844 27.238281 5.964844 26.480469 L 5.964844 24.242188 L 23.339844 24.25 Z M 23.339844 23.101562 L 5.964844 23.097656 L 5.964844 2.519531 C 5.964844 1.761719 6.582031 1.144531 7.339844 1.144531 L 21.964844 1.144531 C 22.722656 1.144531 23.339844 1.761719 23.339844 2.519531 Z M 23.339844 23.101562 "></path><path style=" stroke:none;fill-rule:nonzero;fill:rgb(100%,25.098039%,50.588235%);fill-opacity:1;" d="M 19.578125 3.523438 L 18.1875 3.523438 C 16.992188 3.523438 16.023438 4.492188 16.023438 5.6875 L 16.023438 17.59375 L 18.144531 20.425781 C 18.316406 20.65625 18.589844 20.789062 18.878906 20.789062 C 19.167969 20.789062 19.445312 20.65625 19.617188 20.425781 L 21.734375 17.59375 L 21.734375 5.6875 C 21.742188 4.492188 20.777344 3.523438 19.578125 3.523438 Z M 20.597656 16.402344 C 20.152344 16.664062 19.601562 16.65625 19.164062 16.382812 C 18.992188 16.285156 18.78125 16.285156 18.605469 16.382812 C 18.164062 16.648438 17.617188 16.65625 17.167969 16.402344 L 17.167969 7.660156 L 20.589844 7.660156 L 20.589844 16.402344 Z M 18.886719 19.496094 L 17.546875 17.710938 C 18.003906 17.773438 18.472656 17.703125 18.886719 17.527344 C 19.207031 17.667969 19.554688 17.742188 19.90625 17.742188 C 20.011719 17.742188 20.121094 17.734375 20.226562 17.71875 Z M 17.175781 6.515625 L 17.175781 5.6875 C 17.175781 5.125 17.628906 4.667969 18.195312 4.667969 L 19.585938 4.667969 C 20.144531 4.667969 20.597656 5.125 20.597656 5.679688 L 20.597656 6.507812 L 17.175781 6.507812 Z M 17.175781 6.515625 "></path><path style=" stroke:none;fill-rule:nonzero;fill:rgb(100%,25.098039%,50.588235%);fill-opacity:1;" d="M 12.992188 3.449219 L 8.953125 3.449219 C 8.1875 3.449219 7.5625 4.074219 7.5625 4.839844 L 7.5625 19.394531 C 7.5625 20.160156 8.1875 20.785156 8.953125 20.785156 L 12.992188 20.785156 C 13.757812 20.785156 14.382812 20.160156 14.382812 19.394531 L 14.382812 4.839844 C 14.382812 4.074219 13.757812 3.449219 12.992188 3.449219 Z M 12.992188 19.644531 L 8.953125 19.644531 C 8.820312 19.644531 8.707031 19.535156 8.707031 19.398438 L 8.707031 4.839844 C 8.707031 4.707031 8.820312 4.59375 8.953125 4.59375 L 12.992188 4.59375 C 13.125 4.59375 13.234375 4.707031 13.234375 4.839844 L 13.234375 5.925781 L 11.90625 5.925781 C 11.585938 5.925781 11.332031 6.1875 11.332031 6.5 C 11.332031 6.820312 11.59375 7.070312 11.90625 7.070312 L 13.234375 7.070312 L 13.234375 8.738281 L 10.976562 8.738281 C 10.65625 8.738281 10.402344 8.996094 10.402344 9.308594 C 10.402344 9.621094 10.664062 9.882812 10.976562 9.882812 L 13.234375 9.882812 L 13.234375 11.546875 L 11.90625 11.546875 C 11.585938 11.546875 11.332031 11.808594 11.332031 12.121094 C 11.332031 12.433594 11.59375 12.691406 11.90625 12.691406 L 13.234375 12.691406 L 13.234375 14.359375 L 10.976562 14.359375 C 10.65625 14.359375 10.402344 14.617188 10.402344 14.929688 C 10.402344 15.25 10.664062 15.503906 10.976562 15.503906 L 13.234375 15.503906 L 13.234375 17.167969 L 11.90625 17.167969 C 11.585938 17.167969 11.332031 17.429688 11.332031 17.742188 C 11.332031 18.0625 11.59375 18.316406 11.90625 18.316406 L 13.234375 18.316406 L 13.234375 19.398438 C 13.234375 19.535156 13.125 19.644531 12.992188 19.644531 Z M 12.992188 19.644531 "></path></g></svg> 