<?xml version="1.0" encoding="UTF-8"?> <!-- Generator: Adobe Illustrator 25.1.0, SVG Export Plug-In . SVG Version: 6.00 Build 0) --> <svg xmlns="http://www.w3.org/2000/svg" xmlns:xlink="http://www.w3.org/1999/xlink" version="1.1" id="Layer_1" x="0px" y="0px" viewBox="0 0 48 37" style="enable-background:new 0 0 48 37;" xml:space="preserve"> <style type="text/css"> .st0{fill:#C134D1;} </style> <g> <path class="st0" d="M24,0c-1.4,0-2.5,0.9-3,2.1h-9.3V1.3c0-0.6-0.5-1.2-1.2-1.2H6.7C6,0.1,5.5,0.6,5.5,1.3v3.9 c0,0.6,0.5,1.2,1.2,1.2h3.9c0.6,0,1.2-0.5,1.2-1.2V4.4h4.9c-3.4,2.4-5.7,6.3-5.7,10.8v0.6c-1.2,0.5-2.1,1.6-2.1,3 c0,1.8,1.5,3.2,3.2,3.2c1.8,0,3.2-1.5,3.2-3.2c0-1.4-0.9-2.5-2.1-3v-0.6c0-5,3.4-9.2,8-10.4c0.5,1,1.6,1.7,2.8,1.7 c1.2,0,2.3-0.7,2.8-1.7c4.6,1.2,8,5.4,8,10.4v0.6c-1.2,0.5-2.1,1.6-2.1,3c0,1.8,1.5,3.2,3.2,3.2c1.8,0,3.2-1.5,3.2-3.2 c0-1.4-0.9-2.5-2.1-3v-0.6c0-4.5-2.2-8.4-5.7-10.8h4.9v0.8c0,0.6,0.5,1.2,1.2,1.2h3.9c0.6,0,1.2-0.5,1.2-1.2V1.3 c0-0.6-0.5-1.2-1.2-1.2h-3.9c-0.6,0-1.2,0.5-1.2,1.2v0.8H27C26.5,0.9,25.4,0,24,0z M24,2.3c0.5,0,0.9,0.4,0.9,0.9c0,0,0,0,0,0 c0,0.5-0.4,0.9-0.9,0.9c-0.5,0-0.9-0.4-0.9-0.9C23.1,2.7,23.5,2.3,24,2.3L24,2.3z M7.8,2.4h1.5V3c0,0.1,0,0.3,0,0.4V4H7.8V2.4z M38.6,2.4h1.5V4h-1.5V3.4c0-0.1,0-0.3,0-0.4V2.4z M24,7.7c-0.4,0-0.8,0.2-1,0.6L15.6,23c-0.2,0.4-0.2,0.8,0.1,1.1l2.6,4.1 c-0.6,0.1-1.1,0.7-1,1.3c0.1,0.6,0.6,1,1.1,1h0.8v5.3c0,0.6,0.5,1.2,1.2,1.2h7.1c0.6,0,1.2-0.5,1.2-1.2v-5.3h0.8 c0.6,0,1.2-0.5,1.2-1.1c0-0.6-0.4-1.1-1-1.2l2.6-4.1c0.2-0.3,0.2-0.8,0.1-1.1L25,8.4C24.8,8,24.4,7.7,24,7.7L24,7.7z M25.2,13.8 l4.8,9.7l-3.1,4.8h-5.8L18,23.4l4.8-9.7v6c0,0.6,0.5,1.2,1.1,1.2c0.6,0,1.2-0.5,1.2-1.1c0,0,0,0,0,0L25.2,13.8z M12.1,17.9 c0.5,0,0.9,0.4,0.9,0.9c0,0.5-0.4,0.9-0.9,0.9c-0.5,0-0.9-0.4-0.9-0.9C11.2,18.3,11.6,17.9,12.1,17.9z M35.9,17.9 c0.5,0,0.9,0.4,0.9,0.9c0,0.5-0.4,0.9-0.9,0.9c-0.5,0-0.9-0.4-0.9-0.9C35,18.3,35.4,17.9,35.9,17.9z M21.6,30.5h4.8v4.2h-4.8V30.5z "></path> </g> </svg> 