<?xml version="1.0" encoding="UTF-8"?> <svg xmlns="http://www.w3.org/2000/svg" xmlns:xlink="http://www.w3.org/1999/xlink" width="36pt" height="30pt" viewBox="0 0 36 30" version="1.1"><g id="surface1"><path style=" stroke:none;fill-rule:nonzero;fill:rgb(95.294118%,48.235294%,12.54902%);fill-opacity:1;" d="M 30.988281 25.253906 C 32.015625 25.253906 32.804688 24.421875 32.804688 23.445312 L 32.804688 1.808594 C 32.804688 0.832031 31.964844 0 30.988281 0 L 4.816406 0 C 3.839844 0 3 0.832031 3 1.808594 L 3 23.445312 C 3 24.464844 3.839844 25.253906 4.816406 25.253906 L 13.289062 25.253906 L 13.289062 28.777344 L 11.664062 28.777344 C 11.386719 28.777344 11.199219 28.964844 11.199219 29.242188 C 11.199219 29.519531 11.386719 29.707031 11.664062 29.707031 C 17.25 29.707031 18.136719 29.707031 24.195312 29.707031 C 24.472656 29.707031 24.660156 29.519531 24.660156 29.242188 C 24.660156 28.964844 24.472656 28.777344 24.195312 28.777344 L 22.566406 28.777344 L 22.566406 25.253906 Z M 4.816406 0.929688 L 30.988281 0.929688 C 31.453125 0.929688 31.875 1.351562 31.875 1.816406 L 31.875 20.296875 L 3.929688 20.296875 L 3.929688 1.808594 C 3.929688 1.351562 4.351562 0.929688 4.816406 0.929688 Z M 3.929688 23.445312 L 3.929688 21.21875 L 31.875 21.21875 L 31.875 23.445312 C 31.875 23.953125 31.453125 24.328125 30.988281 24.328125 C 21.113281 24.328125 13.386719 24.328125 4.816406 24.328125 C 4.351562 24.328125 3.929688 23.953125 3.929688 23.445312 Z M 21.585938 28.785156 L 14.226562 28.785156 L 14.226562 25.261719 L 21.628906 25.261719 L 21.628906 28.785156 Z M 21.585938 28.785156 "></path><path style=" stroke:none;fill-rule:nonzero;fill:rgb(95.294118%,48.235294%,12.54902%);fill-opacity:1;" d="M 15.855469 23.257812 L 19.90625 23.257812 C 20.183594 23.257812 20.371094 23.070312 20.371094 22.792969 C 20.371094 22.515625 20.183594 22.328125 19.90625 22.328125 L 15.855469 22.328125 C 15.578125 22.328125 15.390625 22.515625 15.390625 22.792969 C 15.390625 23.070312 15.621094 23.257812 15.855469 23.257812 Z M 15.855469 23.257812 "></path><path style=" stroke:none;fill-rule:nonzero;fill:rgb(95.294118%,48.235294%,12.54902%);fill-opacity:1;" d="M 9.570312 7.988281 L 11.339844 8.640625 L 11.339844 14.445312 C 11.339844 15.421875 12.832031 15.796875 13.34375 15.886719 C 14.316406 16.117188 15.621094 16.207031 17.023438 16.207031 C 18.328125 16.207031 22.65625 16.066406 22.65625 14.398438 L 22.65625 8.640625 L 24.382812 7.988281 L 25.589844 7.988281 L 25.589844 15.089844 C 25.589844 15.367188 25.777344 15.554688 26.054688 15.554688 C 26.332031 15.554688 26.519531 15.367188 26.519531 15.089844 L 26.519531 7.523438 C 26.519531 7.246094 26.332031 7.058594 26.054688 7.058594 L 24.375 7.058594 L 17.203125 4.363281 C 17.113281 4.320312 16.972656 4.320312 16.882812 4.363281 L 9.613281 7.101562 C 9.425781 7.148438 9.335938 7.335938 9.335938 7.523438 C 9.335938 7.710938 9.425781 7.890625 9.570312 7.988281 Z M 21.71875 14.4375 C 21.628906 14.761719 19.949219 15.324219 16.972656 15.324219 C 13.996094 15.324219 12.359375 14.765625 12.269531 14.4375 L 12.269531 9.007812 L 16.835938 10.726562 C 16.882812 10.726562 16.925781 10.769531 17.023438 10.769531 C 17.113281 10.769531 17.113281 10.769531 17.210938 10.726562 L 21.726562 9.007812 L 21.726562 14.4375 Z M 17.015625 5.296875 L 21.71875 7.058594 L 17.574219 7.058594 C 17.296875 7.058594 17.109375 7.246094 17.109375 7.523438 C 17.109375 7.800781 17.296875 7.988281 17.574219 7.988281 L 21.71875 7.988281 L 17.015625 9.75 L 11.054688 7.523438 Z M 17.015625 5.296875 "></path></g></svg> 