<?xml version="1.0" encoding="UTF-8"?> <svg xmlns="http://www.w3.org/2000/svg" width="45" height="45" viewBox="0 0 45 45" fill="none"><circle cx="22.4535" cy="22.4535" r="22.4535" fill="#F5F9FF"></circle><path d="M28.861 12.7525H31.5457V15.4373H28.861V12.7525Z" fill="#FFCA00"></path><path d="M28.861 16.7796H31.5457V19.4644H28.861V16.7796Z" fill="#FFCA00"></path><path d="M24.8339 12.7525H27.5186V15.4373H24.8339V12.7525Z" fill="#FFCA00"></path><path d="M24.8339 16.7796H27.5186V19.4644H24.8339V16.7796Z" fill="#FFCA00"></path><path d="M30.2034 22.1491V26.1762H14.0949V15.4373H22.1492V14.0949H14.0949C13.7389 14.0949 13.3975 14.2363 13.1457 14.4881C12.894 14.7398 12.7526 15.0813 12.7526 15.4373V26.1762C12.7526 26.5323 12.894 26.8737 13.1457 27.1254C13.3975 27.3772 13.7389 27.5186 14.0949 27.5186H19.4644V30.2034H16.7797V31.5457H27.5186V30.2034H24.8339V27.5186H30.2034C30.5594 27.5186 30.9008 27.3772 31.1526 27.1254C31.4043 26.8737 31.5457 26.5323 31.5457 26.1762V22.1491H30.2034ZM23.4915 30.2034H20.8068V27.5186H23.4915V30.2034Z" fill="#297AFB" stroke="#2176FF" stroke-width="0.25"></path></svg> 