<?xml version="1.0" encoding="UTF-8"?> <!-- Generator: Adobe Illustrator 25.1.0, SVG Export Plug-In . SVG Version: 6.00 Build 0) --> <svg xmlns="http://www.w3.org/2000/svg" xmlns:xlink="http://www.w3.org/1999/xlink" version="1.1" id="Layer_1" x="0px" y="0px" viewBox="0 0 48 37" style="enable-background:new 0 0 48 37;" xml:space="preserve"> <style type="text/css"> .st0{fill:#9B61E3;} </style> <g> <rect x="32.1" y="3.5" class="st0" width="2.3" height="2.3"></rect> <rect x="28.6" y="3.5" class="st0" width="2.3" height="2.3"></rect> <rect x="25.2" y="3.5" class="st0" width="2.3" height="2.3"></rect> <rect x="9" y="3.5" class="st0" width="12.1" height="2.3"></rect> <path class="st0" d="M39.7,10.3h-1.8V3.5c0-1.9-1.6-3.5-3.5-3.5H9C7.1,0,5.5,1.6,5.5,3.5v21.4c0,1.9,1.6,3.5,3.5,3.5h16.6v5.9 c0,1.5,1.2,2.8,2.8,2.8h11.4c1.5,0,2.8-1.2,2.8-2.8V13.1C42.5,11.6,41.3,10.4,39.7,10.3z M9,2.3h25.4c0.6,0,1.2,0.5,1.2,1.2v3.5 H7.8V3.5C7.8,2.8,8.3,2.3,9,2.3z M9,26c-0.6,0-1.2-0.5-1.2-1.2V9.2h27.8v1.1h-7.2c-1.5,0-2.8,1.2-2.8,2.8V26H9z M33.5,32.4 c0-0.3,0.3-0.6,0.6-0.6s0.6,0.3,0.6,0.6S34.4,33,34,33S33.5,32.7,33.5,32.4z M40.2,34.2c0,0.3-0.2,0.5-0.5,0.5c0,0,0,0,0,0h-4 c1.3-0.9,1.6-2.8,0.6-4c-0.9-1.3-2.8-1.6-4-0.6s-1.6,2.8-0.6,4c0.2,0.2,0.4,0.4,0.6,0.6h-4c-0.3,0-0.5-0.2-0.5-0.5c0,0,0,0,0,0 V13.1c0-0.3,0.2-0.5,0.5-0.5l0,0h11.4c0.3,0,0.5,0.2,0.5,0.5l0,0V34.2z"></path> <rect x="30.9" y="13.3" class="st0" width="6.4" height="2.3"></rect> </g> </svg> 