<?xml version="1.0" encoding="UTF-8"?> <!-- Generator: Adobe Illustrator 23.0.3, SVG Export Plug-In . SVG Version: 6.00 Build 0) --> <svg xmlns="http://www.w3.org/2000/svg" xmlns:xlink="http://www.w3.org/1999/xlink" version="1.1" id="Layer_1" x="0px" y="0px" viewBox="0 0 476 376" style="enable-background:new 0 0 476 376;" xml:space="preserve"> <style type="text/css"> .st0{fill:#FC415E;} .st1{fill:#F2BE9B;} .st2{fill:#1F2E3B;} .st3{fill:#FB7484;} .st4{fill:#EDB48D;} .st5{fill:#21283A;} .st6{fill:#FFFFFF;} .st7{fill:#C8CDEB;} .st8{fill:#B8C0E0;} .st9{fill:#D9DFFD;} .st10{fill:#ABB3D6;} .st11{fill:#8794CA;} .st12{opacity:0.23;fill:#C8C8C8;} .st13{fill:#EBEDFD;} .st14{fill:#81B7FB;} .st15{fill:#8592C8;} .st16{fill:none;stroke:#FFFFFF;stroke-width:2.2127;stroke-linecap:round;stroke-linejoin:round;stroke-miterlimit:10;} .st17{fill:#83B9FD;} .st18{fill:#6138FD;} .st19{fill:#7067C9;} .st20{fill:#EC657D;} .st21{fill:#0077FF;} .st22{opacity:0.44;fill:#0061C9;} .st23{opacity:0.44;fill:#C8C8C8;} .st24{fill:#283042;} .st25{fill:#393F5C;} .st26{fill:none;stroke:#F2BE9B;stroke-width:4.0246;stroke-linejoin:round;stroke-miterlimit:10;} .st27{fill:#0070D1;} </style> <path class="st0" d="M425.18,356.34c-2.66,0-5.31,0-7.97,0c-8.17-3.94-16.47-7.64-24.5-11.85c-41.06-21.55-84.64-29.6-130.51-23.3 c-33.15,4.56-66.15,10.28-99.18,15.74c-24.27,4.01-48.5,7.37-73.21,4.52c-31.79-3.67-55.55-18.63-68.85-48.37 c-3.31-7.39-6-15.08-8.56-22.77C-5.4,216.98,1.97,167.06,33.02,120.43c13.37-20.07,28.5-38.72,45.54-55.81 c31.1-31.21,68.37-50.9,111.55-59.33c10.2-1.99,20.6-3.03,30.9-4.5c7.64,0,15.27,0,22.91,0c1.45,0.27,2.89,0.7,4.36,0.8 c62.5,4.42,116.03,29.84,162.11,71.12c35.89,32.15,53.19,74.4,60.51,121.14c1.97,12.57,2.75,25.32,4.08,37.99c0,4.98,0,9.96,0,14.94 c-0.29,2.28-0.73,4.55-0.86,6.84c-1.11,20.51-5.24,40.39-12.26,59.7C454.98,332.25,445.36,348.79,425.18,356.34z"></path> <g> <polygon class="st1" points="207.64,366.83 207.9,371.56 202.79,371.56 202.11,367 "></polygon> <polygon class="st1" points="178.98,367.07 178.04,372.07 172.61,371.89 173.33,367.07 "></polygon> <path class="st2" d="M207.6,371.56h3.35c1.91,0,4.02,0.64,4.52,2.93l0.25,1.51h-13.31c0,0-0.88-2.54,0.35-4.44H207.6z"></path> <path class="st2" d="M177.38,371.56h3.35c1.91,0,4.02,0.64,4.52,2.93l0.25,1.51h-13.31c0,0-0.88-2.54,0.35-4.44H177.38z"></path> <g> <g> <path class="st3" d="M272.05,90.13c0,0-9.65,2.55-7.64,12.07l2.68,6.97l50.01-0.94l-9.47-17.59c-2.78-5.15-8.43-8.07-14.24-7.35 l-13.96,1.74L272.05,90.13z"></path> <g> <g> <g> <path class="st4" d="M284.21,91.22L284.21,91.22c-1.73,0.92-3.88,0.29-4.82-1.43l-5.77-10.48l6.31-3.37l5.73,10.41 C286.61,88.09,285.96,90.28,284.21,91.22z"></path> <path class="st1" d="M277.48,89.79L277.48,89.79c-4.25,2.35-9.59,0.81-11.94-3.44l-5.29-9.56l15.38-8.51l5.29,9.56 C283.27,82.09,281.73,87.44,277.48,89.79z"></path> </g> </g> <path class="st5" d="M278.21,77.33c0,0-2.87,0.23-3.69-3.09c-0.82-3.32-5.26-2.42-5.26-2.42l4.19-4.45c0,0,6.59-2.52,6.64,6.55 L278.21,77.33z"></path> <path class="st5" d="M274.2,72.08l-11.64,6.45c-1.55,0.86-3.48,0.77-4.91-0.31c-1.68-1.27-2.55-3.13-1.19-6.58 c2.01-5.09,3.75-1.4,3.75-1.4s12.26-10.06,14.31-0.65L274.2,72.08z"></path> <ellipse transform="matrix(0.9967 -0.0813 0.0813 0.9967 -5.2214 23.0203)" class="st1" cx="279.96" cy="75.6" rx="2.76" ry="2.76"></ellipse> </g> <path class="st6" d="M269.52,87.13l6.1-3.54c0,0,1.11,2.49-2.3,4.2C270.64,89.14,269.52,87.13,269.52,87.13z"></path> </g> <g> <g> <rect x="222.36" y="278.61" class="st7" width="44.84" height="28.14"></rect> <path class="st8" d="M275.85,306.71h-65.74c-5.89,0-10.67,4.78-10.67,10.67l0,0h87.08l0,0 C286.52,311.49,281.74,306.71,275.85,306.71z"></path> <path class="st9" d="M366.18,280.49h-236.8c-4.72,0-8.55-3.83-8.55-8.55V111.3c0-4.72,3.83-8.55,8.55-8.55h236.8 c4.72,0,8.55,3.83,8.55,8.55v160.64C374.73,276.66,370.9,280.49,366.18,280.49z"></path> <path class="st7" d="M356.88,280.49h-236.8c-4.72,0-8.55-3.83-8.55-8.55V111.3c0-4.72,3.83-8.55,8.55-8.55h236.8 c4.72,0,8.55,3.83,8.55,8.55v160.64C365.43,276.66,361.6,280.49,356.88,280.49z"></path> <rect x="129.57" y="119.75" class="st6" width="218.5" height="138.31"></rect> <rect x="129.57" y="119.75" class="st10" width="2.66" height="138.31"></rect> <path class="st11" d="M242.27,276.33c-4.11,0-7.45-3.34-7.45-7.45c0-4.11,3.34-7.45,7.45-7.45c4.11,0,7.45,3.34,7.45,7.45 C249.72,272.99,246.38,276.33,242.27,276.33z M242.27,262.79c-3.36,0-6.09,2.73-6.09,6.09c0,3.36,2.73,6.09,6.09,6.09 c3.36,0,6.09-2.73,6.09-6.09C248.36,265.52,245.63,262.79,242.27,262.79z"></path> </g> <polygon class="st12" points="222.36,280.49 267.2,306.75 267.2,280.49 "></polygon> <g> <path class="st13" d="M236.79,168.26h-91.43c-0.95,0-1.71-0.77-1.71-1.71V136.9c0-0.95,0.77-1.71,1.71-1.71h91.43 c0.95,0,1.71,0.77,1.71,1.71v29.65C238.5,167.5,237.73,168.26,236.79,168.26z"></path> <path class="st13" d="M207.93,184.87h-61.6c-1.48,0-2.68-1.2-2.68-2.68l0,0c0-1.48,1.2-2.68,2.68-2.68h61.6 c1.48,0,2.68,1.2,2.68,2.68l0,0C210.61,183.67,209.41,184.87,207.93,184.87z"></path> <path class="st13" d="M186.84,196.84h-40.52c-1.48,0-2.68-1.2-2.68-2.68l0,0c0-1.48,1.2-2.68,2.68-2.68h40.52 c1.48,0,2.68,1.2,2.68,2.68l0,0C189.52,195.64,188.32,196.84,186.84,196.84z"></path> <path class="st13" d="M186.84,209.39h-40.52c-1.48,0-2.68-1.2-2.68-2.68l0,0c0-1.48,1.2-2.68,2.68-2.68h40.52 c1.48,0,2.68,1.2,2.68,2.68l0,0C189.52,208.19,188.32,209.39,186.84,209.39z"></path> <path class="st13" d="M332.99,242.03h-79.23c-1.11,0-2.01-0.9-2.01-2.01V137.2c0-1.11,0.9-2.01,2.01-2.01h79.23 c1.11,0,2.01,0.9,2.01,2.01v102.82C335,241.13,334.1,242.03,332.99,242.03z"></path> <circle class="st14" cx="160.57" cy="151.99" r="10.19"></circle> </g> <g> <path class="st15" d="M225.27,148.75h-43.4c-0.34,0-0.62-0.28-0.62-0.62c0-0.34,0.28-0.62,0.62-0.62h43.4 c0.34,0,0.62,0.28,0.62,0.62C225.89,148.47,225.61,148.75,225.27,148.75z"></path> <path class="st15" d="M225.27,156.47h-43.4c-0.34,0-0.62-0.28-0.62-0.62c0-0.34,0.28-0.62,0.62-0.62h43.4 c0.34,0,0.62,0.28,0.62,0.62C225.89,156.19,225.61,156.47,225.27,156.47z"></path> </g> <line class="st16" x1="265.16" y1="209.21" x2="298.08" y2="209.21"></line> <line class="st16" x1="265.16" y1="221.75" x2="320.04" y2="221.75"></line> <g> <path class="st17" d="M262.88,154.09v35.4c0,2.7,2.19,4.89,4.89,4.89h49.55c2.7,0,4.89-2.18,4.89-4.89v-35.4 c0-2.7-2.19-4.89-4.89-4.89h-49.55C265.07,149.2,262.88,151.39,262.88,154.09z"></path> <path class="st18" d="M269.45,166.71c0,6.2,5.03,11.22,11.22,11.22c6.2,0,11.22-5.02,11.22-11.22c0-6.2-5.03-11.22-11.22-11.22 C274.48,155.48,269.45,160.51,269.45,166.71z"></path> <path class="st6" d="M262.88,185.94v3.54c0,2.7,2.19,4.89,4.89,4.89h49.55c2.7,0,4.89-2.18,4.89-4.89v-3.54l-17.67-17.67l-12,12 l-12-12L262.88,185.94z"></path> </g> </g> <g> <path class="st6" d="M97.61,212.4l-0.64-1.84l-0.64,1.84c-0.54,1.55-1.83,2.86-3.57,3.64l0,0l0,0c1.74,0.77,3.03,2.09,3.57,3.64 l0.64,1.84l0.64-1.84c0.54-1.55,1.83-2.86,3.57-3.64l0,0l0,0C99.44,215.26,98.16,213.95,97.61,212.4z"></path> <path class="st6" d="M432.54,158.98l-1.08-3.09l-1.08,3.09c-0.91,2.6-3.07,4.8-5.99,6.1l0,0l0,0c2.92,1.3,5.08,3.5,5.99,6.1 l1.08,3.09l1.08-3.09c0.91-2.6,3.07-4.8,5.99-6.1l0,0l0,0C435.61,163.78,433.45,161.58,432.54,158.98z"></path> </g> <g> <path class="st7" d="M230.07,235.64l-2.65-5.62c-0.34-0.72-1.11-1.15-1.9-1.06l-8.74,0.99c-1.33,0.15-2.6-0.61-3.1-1.85 l-1.33-3.32c-0.56-1.39,0.01-2.99,1.32-3.71c0.9-0.5,1.82-1.01,1.99-1.09l0.5,0.99c-0.16,0.08-1.06,0.58-1.94,1.07 c-0.82,0.45-1.18,1.46-0.83,2.33l1.33,3.32c0.31,0.78,1.11,1.26,1.94,1.16l8.74-0.99c1.27-0.14,2.48,0.54,3.03,1.69l2.65,5.62 L230.07,235.64z"></path> <path class="st19" d="M230.13,211.16l-15.56,6.29c-0.95,0.39-1.39,1.49-0.97,2.42l1.19,2.63c0.39,0.87,1.39,1.28,2.29,0.94 l15.71-5.94c0.98-0.37,1.44-1.48,1.01-2.43l-1.34-2.98C232.06,211.21,231.03,210.8,230.13,211.16z"></path> <path class="st11" d="M229.35,232.76L229.35,232.76c-0.78,0.39-1.15,1.29-0.87,2.12l3.29,9.55c0.54,1.56,2.36,2.25,3.79,1.45l0,0 c1.28-0.72,1.74-2.33,1.02-3.61l-4.95-8.8C231.18,232.66,230.17,232.35,229.35,232.76z"></path> </g> <path class="st20" d="M178.04,302.1l-14.68-16.49c-1.16-1.51-1.29-3.57-0.33-5.21l13.32-19.29l8.09,4.72l-11.73,16.58l12.77,13.99 L178.04,302.1z"></path> <g> <path class="st1" d="M229.84,243.49c1.79,1.55,4.49,1.35,6.04-0.43c1.55-1.79,1.35-4.49-0.43-6.04 c-1.79-1.55-4.49-1.35-6.04,0.43C227.86,239.24,228.06,241.94,229.84,243.49z"></path> <path class="st1" d="M229.66,246.97l2.91-3.36c0.76-0.88,0.67-2.22-0.21-2.98l0,0c-0.88-0.76-2.22-0.67-2.98,0.21l-2.92,3.36 c-0.76,0.88-0.67,2.22,0.21,2.98l0,0C227.56,247.94,228.9,247.85,229.66,246.97z"></path> </g> <g> <polygon class="st4" points="184.65,259.43 192.09,259.35 191.75,245.12 184.38,245.21 "></polygon> <path class="st1" d="M190.15,253.98L190.15,253.98c4.58-0.06,8.24-3.81,8.18-8.39l-0.13-10.3l-16.58,0.21l0.13,10.3 C181.82,250.37,185.57,254.04,190.15,253.98z"></path> <path class="st5" d="M193.36,240.83l0.1,7.57c0.04,3.02-2.25,5.5-5.1,5.54l-1.5,0.02c-4.99,0.06-9.1-4.17-9.16-9.46l-0.09-6.84 l15.57-0.2L193.36,240.83z"></path> <path class="st5" d="M192.6,239.87c0,0,3.93,0.16,6.28-0.33c3.06-0.63,4.18-6.69,1.74-8.65c-0.11-0.09-0.22-0.17-0.34-0.26 c-2.89-2.02-6.68,2.28-6.6,2.53C193.76,233.41,192.6,239.87,192.6,239.87z"></path> <path class="st5" d="M196.47,234.61c0,0-6.64-5.75-14.07-2.03c0,0-2.46,0.6-4.8,5.07l14.64,3.35L196.47,234.61z"></path> <path class="st1" d="M190.83,244.75c0.02,1.34,1.12,2.41,2.46,2.39c1.34-0.02,2.41-1.12,2.39-2.46 c-0.02-1.34-1.12-2.41-2.46-2.39C191.88,242.31,190.81,243.41,190.83,244.75z"></path> <path class="st1" d="M197.28,245.71h1.21c0.67,0,1.21-0.54,1.21-1.21l0,0c0-0.67-0.54-1.21-1.21-1.21h-1.21V245.71z"></path> </g> <path class="st3" d="M193.91,258.52h-11.93c-5.96,0-8.01,4.92-6.98,10.17l2.25,12.78l1.05,12.1h21.44l2.21-26.47 C202.02,262.38,200.29,258.52,193.91,258.52z"></path> <path class="st21" d="M199.74,293.57l7.78,39.61l0.12,33.64l-5.54,0.17l-5.03-32.63l-10.34-28.25l0.61,28.96l-8.36,31.99h-5.65 l4.35-31.99l-3.47-24.67c0,0-0.87-10.91,4.1-16.84H199.74z"></path> <rect x="181.12" y="302.02" transform="matrix(-1 -1.224647e-16 1.224647e-16 -1 372.3513 611.7192)" class="st21" width="10.11" height="7.68"></rect> <path class="st22" d="M186.65,309.7h-5.52c0,0,5.05,5.59,5.92,11.17L186.65,309.7z"></path> <path class="st3" d="M193.85,267.99l-0.8-9.33l19.9-1.71l12.4-14.6l7.14,6.07l-13.65,16.07c-0.8,0.94-1.94,1.53-3.17,1.63 L193.85,267.99z"></path> <polygon class="st23" points="201.94,267.3 196.49,267.64 200.94,279.23 "></polygon> <path class="st3" d="M181.29,236.4c0,1.88-1.53,3.41-3.41,3.41s-3.41-1.53-3.41-3.41s1.53-3.41,3.41-3.41 S181.29,234.52,181.29,236.4z"></path> <path class="st24" d="M178.89,234.91c0,0-7.49-4.71-10.28,5.24c-2.61,9.31,4.83,20.57,6.27,29.09c0.17,0.99,1.05,1.7,2.05,1.7 h8.12c1.22,0,2.18-1.03,2.1-2.25c-0.29-3.99-2.34-11.67-8.43-21.03c0,0-6.49-8.84,0.14-9.98 C178.85,237.68,180.35,236,178.89,234.91z"></path> <g> <path class="st11" d="M437.02,348.44c-0.72,0-1.36-0.43-1.51-1.07L386.3,148.55c-0.18-0.73,0.35-1.45,1.19-1.6 c0.83-0.17,1.66,0.31,1.84,1.03l49.21,198.82c0.18,0.73-0.35,1.45-1.19,1.6C437.24,348.43,437.13,348.44,437.02,348.44z"></path> <path class="st11" d="M400.98,348.44c-0.72,0-1.36-0.43-1.51-1.07l-49.39-198.82c-0.18-0.73,0.35-1.45,1.19-1.6 c0.84-0.17,1.66,0.31,1.84,1.03l49.39,198.82c0.18,0.73-0.35,1.45-1.19,1.6C401.19,348.43,401.08,348.44,400.98,348.44z"></path> <path class="st11" d="M390.45,160.24h-36.22c-0.86,0-1.55-0.6-1.55-1.35s0.7-1.35,1.55-1.35h36.22c0.86,0,1.55,0.6,1.55,1.35 S391.31,160.24,390.45,160.24z"></path> <path class="st11" d="M394.39,176.14h-36.22c-0.86,0-1.55-0.6-1.55-1.35s0.7-1.35,1.55-1.35h36.22c0.86,0,1.55,0.6,1.55,1.35 S395.25,176.14,394.39,176.14z"></path> <path class="st11" d="M398.34,192.04h-36.22c-0.86,0-1.55-0.6-1.55-1.35s0.7-1.35,1.55-1.35h36.22c0.86,0,1.55,0.6,1.55,1.35 S399.2,192.04,398.34,192.04z"></path> <path class="st11" d="M402.29,207.94h-36.22c-0.86,0-1.55-0.6-1.55-1.35c0-0.74,0.7-1.35,1.55-1.35h36.22 c0.86,0,1.55,0.6,1.55,1.35C403.84,207.33,403.14,207.94,402.29,207.94z"></path> <path class="st11" d="M406.23,223.84h-36.22c-0.86,0-1.55-0.6-1.55-1.35c0-0.74,0.7-1.35,1.55-1.35h36.22 c0.86,0,1.55,0.6,1.55,1.35C407.78,223.23,407.09,223.84,406.23,223.84z"></path> <path class="st11" d="M410.18,239.74h-36.22c-0.86,0-1.55-0.6-1.55-1.35c0-0.74,0.7-1.35,1.55-1.35h36.22 c0.86,0,1.55,0.6,1.55,1.35C411.73,239.13,411.04,239.74,410.18,239.74z"></path> <path class="st11" d="M414.12,255.64H377.9c-0.86,0-1.55-0.6-1.55-1.35c0-0.74,0.7-1.35,1.55-1.35h36.22 c0.86,0,1.55,0.6,1.55,1.35C415.67,255.03,414.98,255.64,414.12,255.64z"></path> <path class="st11" d="M418.07,271.54h-36.22c-0.86,0-1.55-0.6-1.55-1.35c0-0.74,0.7-1.35,1.55-1.35h36.22 c0.86,0,1.55,0.6,1.55,1.35C419.62,270.93,418.93,271.54,418.07,271.54z"></path> <path class="st11" d="M422.01,287.44h-36.22c-0.86,0-1.55-0.6-1.55-1.35s0.7-1.35,1.55-1.35h36.22c0.86,0,1.55,0.6,1.55,1.35 S422.87,287.44,422.01,287.44z"></path> <path class="st11" d="M425.96,303.34h-36.22c-0.86,0-1.55-0.6-1.55-1.35s0.7-1.35,1.55-1.35h36.22c0.86,0,1.55,0.6,1.55,1.35 S426.82,303.34,425.96,303.34z"></path> <path class="st11" d="M429.91,319.24h-36.22c-0.86,0-1.55-0.6-1.55-1.35c0-0.74,0.7-1.35,1.55-1.35h36.22 c0.86,0,1.55,0.6,1.55,1.35C431.46,318.64,430.76,319.24,429.91,319.24z"></path> </g> <path class="st2" d="M379.31,260.05l6.09-1.11l2.71,9.99l-17.33,1.08l-0.25-1.35c-0.12-1.39,0.62-2.64,1.9-3.2l8.22-1.47 L379.31,260.05z"></path> <g> <g> <polygon class="st4" points="402.99,176.68 395.67,176.65 395.56,160.79 402.88,160.83 "></polygon> <path class="st1" d="M393.94,172.1L393.94,172.1c-4.96,0.05-9.03-3.94-9.07-8.91l-0.1-11.17l17.98-0.17l0.1,11.17 C402.89,167.99,398.9,172.05,393.94,172.1z"></path> <path class="st5" d="M402.72,160.06l-2.56,0.07c-0.7,0.02-1.24-0.6-1.12-1.29c0.3-1.86,0.63-5.04-0.58-5.4 c-1.72-0.51-10.83,2.05-14-0.27c-4.46-3.26-1.39-8.68,2.57-8.98c3.96-0.3,3.46,4.3,8.08,4.13c4.62-0.17,11.6-2.09,8.81,10.22 L402.72,160.06z"></path> </g> <path class="st1" d="M405.9,160.52c0.01,1.56-1.24,2.84-2.8,2.85c-1.56,0.01-2.84-1.24-2.85-2.8c-0.01-1.56,1.24-2.84,2.8-2.85 C404.61,157.7,405.88,158.96,405.9,160.52z"></path> </g> <g> <path class="st2" d="M415.19,277.5l6.13-0.86l3.06,10.53l-17.36,0.36l-0.19-1.36c-0.06-1.4,0.73-2.61,2.03-3.12l7.79-1.06 L415.19,277.5z"></path> <path class="st25" d="M388.21,212.4l-17.5,5.43c-3.09,0.51-5.02,3.62-4.12,6.62l10.96,36.97l10.46-1.07l-9.38-33.83l25.75-5.6 c3.79-0.34,6.69-3.51,6.69-7.31v-1.2H388.21z"></path> <polygon class="st25" points="407.01,216.85 411.08,242.67 422.76,278.78 413.68,279.42 400.79,243.69 393.09,216.85 "></polygon> </g> <path class="st21" d="M395.12,175.03L395.12,175.03c-5,0.02-9.05,4.57-9.05,10.17l2.14,27.2l25,1.07l-2.14-29.07 c0-5.16-3.73-9.35-8.33-9.36L395.12,175.03z"></path> <path class="st6" d="M387.06,165.16l6.51-0.08c0,0-0.24,2.72-3.76,2.53C387.04,167.46,387.06,165.16,387.06,165.16z"></path> <g> <path class="st1" d="M341.45,187.66c-2.12,1.96-5.43,1.84-7.4-0.28c-1.96-2.12-1.84-5.43,0.28-7.4c2.12-1.96,5.43-1.84,7.4,0.28 C343.7,182.38,343.57,185.7,341.45,187.66z"></path> </g> <polyline class="st26" points="397.1,182.77 372.78,193.41 338.78,183.82 "></polyline> <path class="st27" d="M381.66,182l5.87,12.37l10.71-5.96c2.88-1.6,3.86-5.27,2.16-8.09l0,0c-1.43-2.38-4.33-3.42-6.94-2.49 L381.66,182z"></path> <g> <path class="st5" d="M386.08,163.07c-1.87,0-3.4-1.52-3.4-3.4c0-1.87,1.52-3.4,3.4-3.4c1.87,0,3.4,1.52,3.4,3.4 C389.48,161.55,387.96,163.07,386.08,163.07z M386.08,157.18c-1.38,0-2.5,1.12-2.5,2.5c0,1.38,1.12,2.5,2.5,2.5 c1.38,0,2.5-1.12,2.5-2.5C388.58,158.3,387.46,157.18,386.08,157.18z"></path> <path class="st5" d="M393.37,163.07c-1.87,0-3.4-1.52-3.4-3.4c0-1.87,1.52-3.4,3.4-3.4c1.87,0,3.4,1.52,3.4,3.4 C396.77,161.55,395.24,163.07,393.37,163.07z M393.37,157.18c-1.38,0-2.5,1.12-2.5,2.5c0,1.38,1.12,2.5,2.5,2.5 c1.38,0,2.5-1.12,2.5-2.5C395.87,158.3,394.75,157.18,393.37,157.18z"></path> <rect x="388.76" y="158" class="st5" width="1.77" height="0.9"></rect> <rect x="395.87" y="158.78" class="st5" width="2.84" height="0.9"></rect> </g> <path class="st1" d="M259,102.82c0,0-1.07-3.87-7.41-3.54c-6.34,0.32-8.38,4.4-6.34,6.98c2.04,2.58,7.41,0.84,10.85-3.5 L259,102.82z"></path> <path class="st1" d="M302.82,102.82c0,0-1.07-3.87-7.41-3.54c-6.34,0.32-8.38,4.4-6.34,6.98c2.04,2.58,7.41,0.84,10.85-3.5 L302.82,102.82z"></path> </g> </g> </svg> 