<?xml version="1.0" encoding="UTF-8"?> <!-- Generator: Adobe Illustrator 23.0.3, SVG Export Plug-In . SVG Version: 6.00 Build 0) --> <svg xmlns="http://www.w3.org/2000/svg" xmlns:xlink="http://www.w3.org/1999/xlink" version="1.1" id="Layer_1" x="0px" y="0px" viewBox="0 0 638 482" style="enable-background:new 0 0 638 482;" xml:space="preserve"> <style type="text/css"> .st0{fill:url(#SVGID_1_);} .st1{fill:url(#SVGID_2_);} .st2{fill:#6AAFE8;} .st3{fill:url(#SVGID_3_);} .st4{fill:url(#SVGID_4_);} .st5{fill:url(#SVGID_5_);} .st6{fill:url(#SVGID_6_);} .st7{fill:url(#SVGID_7_);} .st8{fill:#FFFFFF;} .st9{fill:url(#SVGID_8_);} .st10{fill:url(#SVGID_9_);} .st11{fill:url(#SVGID_10_);} .st12{fill:url(#SVGID_11_);} .st13{fill:#1487E3;} .st14{fill:#78C2FF;} .st15{fill:#EF4335;} .st16{fill:#424773;} .st17{fill:#292C47;} .st18{fill:#EEA886;} .st19{fill:#754836;} .st20{fill:#E2D2CA;} .st21{fill:#FFD740;} .st22{fill:#A1D4FF;} .st23{fill:url(#SVGID_12_);} .st24{fill:url(#SVGID_13_);} .st25{fill:#4D78EB;} .st26{fill:#E0E0E0;} .st27{fill:#FF8761;} .st28{opacity:0.76;} .st29{fill:#4AAFFF;} .st30{fill:#1A598C;} .st31{fill:#2273B5;} .st32{fill:#3788CC;} .st33{fill:#414773;} .st34{fill:#2D314F;} .st35{fill:#2B3B57;} .st36{fill:#353A3D;} .st37{fill:#D4D8E8;} .st38{fill:#E55353;} .st39{fill:#6069A8;} .st40{fill:#202338;} .st41{fill:#464240;} .st42{fill:#EB4747;} .st43{fill:#325BB3;} .st44{fill:#A77860;} .st45{fill:#5E5853;} .st46{fill:#91887F;} .st47{fill:#EDDAD3;} .st48{fill:#6E6760;} .st49{fill:#807066;} </style> <g> <linearGradient id="SVGID_1_" gradientUnits="userSpaceOnUse" x1="135.2138" y1="258.1395" x2="488.4229" y2="258.1395"> <stop offset="0" style="stop-color:#40D5E6"></stop> <stop offset="1" style="stop-color:#5577FF"></stop> </linearGradient> <path class="st0" d="M144.8,375.89h317.94V149.86c0-5.23-4.24-9.47-9.47-9.47H154.28c-5.23,0-9.47,4.24-9.47,9.47V375.89z"></path> </g> <g> <linearGradient id="SVGID_2_" gradientUnits="userSpaceOnUse" x1="156.0438" y1="242.5038" x2="450.9402" y2="242.5038"> <stop offset="0" style="stop-color:#404B61"></stop> <stop offset="0.486" style="stop-color:#3C4860"></stop> <stop offset="1" style="stop-color:#2F3E5C"></stop> </linearGradient> <polygon class="st1" points="156.04,333.08 450.94,333.08 450.94,151.92 156.04,151.92 "></polygon> </g> <g> <path class="st2" d="M125.07,152.76H50.06l0.13-0.67c1.2-6.18,6.66-10.66,12.96-10.66c0.91,0,1.82,0.09,2.7,0.28 c3.91-7.43,11.5-12.02,19.92-12.02c7.17,0,13.94,3.44,18.18,9.23c1.54-0.47,3.15-0.71,4.78-0.71c8.16,0,14.99,5.85,16.23,13.9 L125.07,152.76z M51.44,151.64h72.31c-1.41-7.06-7.75-12.31-15.01-12.31c-1.65,0-3.27,0.26-4.82,0.78l-0.4,0.13l-0.24-0.34 c-4.01-5.69-10.55-9.09-17.5-9.09c-8.14,0-15.47,4.52-19.12,11.8l-0.2,0.4l-0.43-0.11c-0.93-0.23-1.9-0.35-2.87-0.35 C57.61,142.55,52.79,146.33,51.44,151.64z"></path> </g> <g> <path class="st2" d="M400.55,60.43l-0.25-0.13c-26.62-13.59-23.04-39.91-23.01-40.18l0.07-0.48h0.48c16.92,0,22.24-5.45,22.3-5.51 l0.41-0.44l0.41,0.44c0.05,0.05,5.37,5.51,22.29,5.51h0.48l0.07,0.48c0.04,0.26,3.61,26.58-23.01,40.18L400.55,60.43z M378.35,20.76c-0.34,3.56-1.46,26.16,22.2,38.4c23.66-12.25,22.54-34.84,22.2-38.4c-14.69-0.09-20.68-4.18-22.2-5.48 C399.02,16.58,393.04,20.67,378.35,20.76z"></path> </g> <g> <g> <linearGradient id="SVGID_3_" gradientUnits="userSpaceOnUse" x1="545.1978" y1="351.3873" x2="621.0745" y2="351.3873"> <stop offset="0" style="stop-color:#3076A1"></stop> <stop offset="1" style="stop-color:#639C38"></stop> </linearGradient> <path class="st3" d="M546.21,410.23c-4.01-18.31,4.65-22.88,13.02-27.3c6.84-3.61,13.3-7.02,12.96-17.81 c-0.46-14.31,9.29-19.51,17.89-24.1c6.4-3.42,12.44-6.64,13.34-13.15c2.17-15.66,16.62-35.13,16.76-35.32l0.9,0.67 c-0.14,0.19-14.42,19.43-16.55,34.81c-0.98,7.07-7.27,10.43-13.92,13.99c-8.72,4.65-17.73,9.47-17.3,23.08 c0.37,11.49-6.71,15.23-13.56,18.84c-8.37,4.42-16.28,8.59-12.45,26.07L546.21,410.23z"></path> </g> <g> <linearGradient id="SVGID_4_" gradientUnits="userSpaceOnUse" x1="538.6068" y1="340.3256" x2="637.674" y2="340.3256"> <stop offset="0" style="stop-color:#3076A1"></stop> <stop offset="1" style="stop-color:#639C38"></stop> </linearGradient> <path class="st4" d="M550.6,405.56c-0.19,0-0.38-0.01-0.58-0.02c-3.62-0.27-7.17-3.02-11.17-8.66l-0.25-0.35l0.28-0.33 c0.06-0.08,6.48-7.89,4.12-22.56c-0.55-3.42-1.28-6.04-1.87-8.15c-0.86-3.07-1.43-5.1-0.48-6.72c1.21-2.05,4.48-3.13,13.68-5.32 c9.8-2.34,13.08-13.38,15.97-23.12c2.72-9.18,5.3-17.83,12.93-17.57c7.01,0.27,17.65-10.72,27.04-20.4 c8.72-8.98,16.94-17.45,22.2-17.28c1.26,0.05,2.33,0.58,3.17,1.57c4.69,5.58,0.31,14.05-3.91,22.24 c-3.61,6.99-7.02,13.59-4.82,17.94c2.76,5.47,3.14,10.42,1.12,14.31c-2.4,4.61-7.99,7.58-16.62,8.83 c-7.89,1.14-8.74,9.75-9.65,18.86c-1.05,10.63-2.25,22.68-15.49,23.83c-9.83,0.85-16.46,7.75-22.31,13.84 C559.32,401.36,555.28,405.56,550.6,405.56z M540.01,396.58c3.64,5.05,6.95,7.61,10.1,7.85c4.4,0.33,8.41-3.85,13.06-8.69 c5.98-6.23,12.77-13.3,23.02-14.18c12.31-1.07,13.41-12.13,14.47-22.82c0.95-9.56,1.84-18.59,10.6-19.86 c8.25-1.2,13.56-3.97,15.79-8.24c1.85-3.56,1.47-8.16-1.12-13.29c-2.45-4.86,1.08-11.71,4.83-18.96c4.06-7.86,8.26-16,4.05-21.01 c-0.63-0.76-1.4-1.14-2.35-1.17c-4.75-0.16-12.82,8.14-21.35,16.94c-9.89,10.2-20.12,20.74-27.6,20.74c-0.1,0-0.19,0-0.29,0 c-6.76-0.25-9.11,7.64-11.82,16.76c-2.98,10.04-6.35,21.41-16.79,23.89c-8.33,1.98-11.97,3.09-12.97,4.8 c-0.71,1.21-0.22,2.95,0.59,5.85c0.6,2.13,1.34,4.78,1.9,8.27C546.3,387.1,541.28,394.87,540.01,396.58z"></path> </g> <g> <linearGradient id="SVGID_5_" gradientUnits="userSpaceOnUse" x1="515.8458" y1="325.3377" x2="579.7472" y2="325.3377"> <stop offset="0" style="stop-color:#3076A1"></stop> <stop offset="1" style="stop-color:#639C38"></stop> </linearGradient> <path class="st5" d="M551.01,401.73c-0.13,0-0.26-0.01-0.39-0.02c-5.94-0.54-10.51-13.55-14.92-26.13 c-2.1-5.97-4.07-11.61-6-15.22c-1.49-2.81-3.39-5.73-5.23-8.56c-4.89-7.54-9.95-15.33-8.3-22.17c0.87-3.6,3.45-6.59,7.89-9.16 c9.73-5.61,8.24-8.78,4.96-15.72c-2.41-5.09-5.71-12.07-5.83-23.04c-0.05-4.72-0.16-8.8-0.26-12.4c-0.31-11.57-0.47-17.37,2-19.48 c1.02-0.87,2.45-1.09,4.5-0.7c3.5,0.67,5.02,3.5,6.62,6.49c2.05,3.82,4.37,8.15,11.36,9.62c6.57,1.37,12.89,3.25,14.63,7.61 c1.23,3.07,0.07,7.1-3.55,12.34c-0.88,1.27-1.18,2.35-0.92,3.3c0.57,2.11,3.84,3.63,7.64,5.4c5.39,2.52,12.1,5.65,14,12.13 c1.53,5.23-0.24,11.75-5.42,19.93c-12.25,19.36-11.76,32.49-11.32,44.08c0.32,8.58,0.63,16.69-4.55,25.75 C555.64,399.78,553.37,401.73,551.01,401.73z M527.67,250.07c-0.87,0-1.53,0.21-2.02,0.62c-2.06,1.75-1.9,7.73-1.61,18.59 c0.1,3.6,0.21,7.69,0.26,12.41c0.12,10.73,3.36,17.58,5.72,22.58c3.25,6.89,5.22,11.04-5.41,17.16c-4.17,2.4-6.58,5.16-7.37,8.45 c-1.53,6.37,3.39,13.96,8.16,21.3c1.85,2.85,3.76,5.8,5.28,8.65c1.97,3.69,3.96,9.37,6.07,15.38c4.1,11.68,8.75,24.91,13.97,25.39 c1.99,0.18,4.09-1.63,6.23-5.37c5.02-8.78,4.73-16.37,4.4-25.15c-0.44-11.75-0.94-25.06,11.5-44.71 c4.99-7.9,6.73-14.12,5.29-19.02c-1.76-6-7.95-8.89-13.4-11.43c-4.04-1.89-7.54-3.51-8.24-6.12c-0.35-1.29,0-2.67,1.08-4.23 c3.38-4.9,4.51-8.59,3.43-11.29c-1.55-3.88-7.86-5.68-13.82-6.93c-7.51-1.57-10.07-6.35-12.12-10.18 c-1.54-2.87-2.87-5.35-5.84-5.92C528.64,250.12,528.13,250.07,527.67,250.07z"></path> </g> <g> <linearGradient id="SVGID_6_" gradientUnits="userSpaceOnUse" x1="533.607" y1="339.1557" x2="552.9812" y2="339.1557"> <stop offset="0" style="stop-color:#3076A1"></stop> <stop offset="1" style="stop-color:#639C38"></stop> </linearGradient> <path class="st6" d="M551.13,408.67l-1.07-0.34c5.99-18.92-4.84-61.38-8.07-71.71c-1.59-5.08-0.12-12.73,1.3-20.13 c1.83-9.55,3.73-19.43-1.1-23.13c-9.07-6.95-8.59-23.04-8.57-23.72l1.12,0.04c0,0.16-0.48,16.19,8.13,22.79 c5.38,4.12,3.42,14.35,1.52,24.23c-1.39,7.26-2.83,14.77-1.33,19.58C547.05,349.07,557.1,389.79,551.13,408.67z"></path> </g> <linearGradient id="SVGID_7_" gradientUnits="userSpaceOnUse" x1="489.7564" y1="342.9958" x2="552.3045" y2="342.9958"> <stop offset="0" style="stop-color:#3076A1"></stop> <stop offset="1" style="stop-color:#639C38"></stop> </linearGradient> <path class="st7" d="M505.85,285.76c-2.49-6.33-12.23-5.37-11.33,3.58c0.89,8.95,7.16,18.49-2.39,33.7 c-9.54,15.21,12.23,18.19,19.98,27.73c7.75,9.54,10.44,22.66,17,31.01c6.56,8.35,11.03,28.33,16.4,20.87 c5.37-7.45,0.32-17.15,0.91-30.57c0.6-13.42,12.54-21.91,0.6-30.56c-11.95-8.65-23.96-11.3-20.01-30.8 C528.74,302.12,513.6,305.44,505.85,285.76z"></path> <g> <path class="st8" d="M554.2,404.38c-0.07-0.4-6.7-39.7-21.54-50.48c-15.14-10.98-17.89-21.13-23.18-45.06l1.09-0.24 c5.22,23.63,7.93,33.65,22.74,44.4c15.22,11.04,21.72,49.56,21.99,51.2L554.2,404.38z"></path> </g> <linearGradient id="SVGID_8_" gradientUnits="userSpaceOnUse" x1="531.6368" y1="484.7127" x2="584.2615" y2="280.0616"> <stop offset="0" style="stop-color:#3076A1"></stop> <stop offset="1" style="stop-color:#639C38"></stop> </linearGradient> <path class="st9" d="M540.8,402.97c0,0,4.41-10.91-3.62-26.42c-8.03-15.51-14.53-13.12,4.83-25.05 c19.35-11.93,0.12-49.51,16.6-54.28c16.48-4.77,30.79-65.59,43.32-57.85c12.53,7.74-4.18,37.57,4.77,46.52 c8.95,8.95,10.14,20.33-8.35,29.55c-18.49,9.22,13.12,44.41-11.93,55.15C561.37,381.33,568.55,423.43,540.8,402.97z"></path> <g> <path class="st8" d="M548.46,414.55c-0.03-0.14-2.72-14.11,5.79-32.16c8.67-18.39,12.82-38.49,11.1-53.77 c-0.93-8.28,4.37-11.51,9.5-14.64c5.05-3.08,10.27-6.27,9.98-14.43c-0.26-7.37,2.86-24.64,2.99-25.37l1.1,0.2 c-0.03,0.18-3.23,17.88-2.97,25.13c0.31,8.81-5.19,12.17-10.52,15.42c-5.05,3.08-9.82,6-8.97,13.56 c1.74,15.48-2.45,35.81-11.2,54.38c-8.34,17.69-5.73,31.32-5.71,31.46L548.46,414.55z"></path> </g> <path class="st8" d="M568.7,337.46c5.63-5.23,13.07-5.98,11.52,1.77c-1.55,7.75-6.87,9.97-4.21,14.84 c2.66,4.87,7.09,9.74-0.44,15.72c-7.53,5.98-11.74,6.64-13.95,17.94c-2.21,11.29-1.77,19.01-11.52,19.49 c-9.75,0.48-5.98-13.73-2.88-20.16c0,0,4.65-7.33,1.55-16.95c-3.1-9.62-9.08-14.82,3.54-18.09 C564.94,348.76,564.91,340.99,568.7,337.46z"></path> <g> <linearGradient id="SVGID_9_" gradientUnits="userSpaceOnUse" x1="550.7654" y1="378.6266" x2="573.8886" y2="378.6266"> <stop offset="0" style="stop-color:#3076A1"></stop> <stop offset="1" style="stop-color:#639C38"></stop> </linearGradient> <path class="st10" d="M550.8,414.45c-0.03-1.38-0.7-33.92,5.38-39.4c6.21-5.59,7.41-15.48,7.57-20.87 c0.21-7.03,9.29-11.2,9.67-11.37l0.46,1.02c-0.09,0.04-8.83,4.06-9.02,10.39c-0.2,6.81-1.74,16.09-7.94,21.67 c-5.71,5.14-5.02,38.2-5.01,38.54L550.8,414.45z"></path> </g> <linearGradient id="SVGID_10_" gradientUnits="userSpaceOnUse" x1="530.9097" y1="420.3175" x2="573.659" y2="420.3175"> <stop offset="0" style="stop-color:#FF9340"></stop> <stop offset="1" style="stop-color:#FFCE45"></stop> </linearGradient> <polygon class="st11" points="573.66,401.17 563.56,439.47 541,439.47 530.91,401.17 "></polygon> <linearGradient id="SVGID_11_" gradientUnits="userSpaceOnUse" x1="530.9097" y1="420.3175" x2="573.659" y2="420.3175"> <stop offset="0" style="stop-color:#C97332"></stop> <stop offset="1" style="stop-color:#FFCE45"></stop> </linearGradient> <path class="st12" d="M573.66,401.17c0,0-22.22,4.17-22.22,38.3H541l-10.09-38.3H573.66z"></path> </g> <g> <rect x="146.24" y="301.08" class="st13" width="29.71" height="3.36"></rect> </g> <g> <polygon class="st14" points="140.04,208.26 92.62,208.26 92.62,147.62 93.74,147.62 93.74,207.14 140.04,207.14 "></polygon> </g> <g> <polygon class="st14" points="340.76,168.3 339.64,168.3 339.64,105.77 399.99,105.77 399.99,53.18 401.11,53.18 401.11,106.89 340.76,106.89 "></polygon> </g> <g> <polygon class="st14" points="535.72,237.96 472.93,237.96 472.93,236.84 534.6,236.84 534.6,200.38 535.72,200.38 "></polygon> </g> <g> <path class="st15" d="M66.28,288.63c0,0-1.34,18.86,2.34,21.12c2.31,1.41,11.52,6.19,11.24,7.08c-0.27,0.89-5.2,7.96-5.2,7.96 s-17.68-11.65-18.26-15.31c-0.56-3.59,0.87-27.62,3.3-28.73c1.82-0.83,2.78-0.14,5.08,1.56C68.01,284.7,66.28,288.63,66.28,288.63z "></path> </g> <g> <g> <g> <path class="st16" d="M64.23,425.92c0,0-0.55,3.82-0.62,4.39c-0.07,0.57-6.12-0.34-6.12-0.34L57,425.43 C57,425.43,63.47,425.38,64.23,425.92z"></path> </g> </g> </g> <g> <g> <g> <path class="st17" d="M63.67,429.83c0,0,1.92,2.3,3.77,3.3c1.85,1,4.77,1.4,5.86,2.44c0.79,0.75,2.88,3.97-4.82,3.91 c-7.7-0.07-11.41,0.46-12.23-0.78c-0.83-1.24,1.19-9.13,1.19-9.13S59.27,430.22,63.67,429.83z"></path> </g> </g> </g> <g> <g> <g> <path class="st16" d="M94.5,425.92c0,0-0.55,3.82-0.62,4.39s-6.12-0.34-6.12-0.34l-0.49-4.54 C87.28,425.43,93.75,425.38,94.5,425.92z"></path> </g> </g> </g> <g> <g> <g> <path class="st17" d="M93.95,429.83c0,0,1.92,2.3,3.77,3.3c1.85,1,8.68,1.83,9.77,2.86c0.79,0.75,2.11,3.76-8.72,3.48 c-7.7-0.2-11.41,0.46-12.24-0.78c-0.82-1.24,1.19-9.13,1.19-9.13S89.44,430.27,93.95,429.83z"></path> </g> </g> </g> <g> <g> <g> <path class="st17" d="M66.4,327.84c0,0-5.68,9.03-5.26,17.19c0.42,8.16-0.51,16.88-1.36,25.41c-0.95,9.51-3.54,29.29-3.69,34.37 c-0.14,5.09,0.18,24.22,0.18,24.22l9.86-0.07c0,0,3.5-38.65,5.2-42.67c1.69-4.02,8.66-33.05,8.94-36.27 C80.55,346.81,66.4,327.84,66.4,327.84z"></path> </g> </g> </g> <g> <g> <g> <path class="st17" d="M96.32,329.06c0,0,2.25,22.19,2.81,27.19c0.56,5,0.18,26.64,0.46,29.77c0.28,3.12-1.89,36.15-2.42,42.44 l-10.84-0.07c0,0-0.75-26.72-0.75-39.7c0-12.98-3.33-28.09-7.15-36.66c-3.82-8.57-12.55-8.77-14.9-24.66 C63.54,327.38,93.14,324.02,96.32,329.06z"></path> </g> </g> </g> <g> <g> <g> <path class="st18" d="M72.4,251.7c0,0,6.77-4.52,11.53,0.32c4.76,4.85,7.09,16.24,3.68,18.51c-3.42,2.27-9.21,2.87-11.96-0.22 c-2.75-3.08-5.69-7.79-6.41-11.23C68.52,255.66,70.69,253.15,72.4,251.7z"></path> </g> </g> </g> <g> <g> <g> <path class="st18" d="M85.31,271.3c0,0-0.09,4.76,0.44,5.77c0.53,1.01-9.88,1.04-9.88,1.04s-0.84-5.52-2.45-10.18 C71.81,263.27,85.31,271.3,85.31,271.3z"></path> </g> </g> </g> <g> <g> <g> <path class="st19" d="M73.67,267.86c0,0,0.97,0.99,3.72-0.13c2.75-1.12,5.34-5.74,6.43-6.44c1.1-0.7,0.94-1.4,0.94-1.4l1,0.91 l1.28-0.22c0,0-1.96-3.12-0.54-4.92c1.41-1.8-4.4-10.57-12.8-5.21c0,0-6.57,3.59-5.38,7.53 C69.53,261.93,71.63,266.24,73.67,267.86z"></path> </g> </g> </g> <g> <g> <g> <path class="st20" d="M86.36,276.96c0,0-0.03-1.94-0.91-2.12c-0.88-0.19-9.7-1.03-10.78-0.61v2.26 C74.67,276.48,76.75,277.76,86.36,276.96z"></path> </g> </g> </g> <g> <g> <g> <path class="st18" d="M84.23,258.48c-0.32-0.63-2.48-2.15-2.65,0.06c-0.17,2.21,2.12,4.58,2.98,4.13 C85.42,262.22,85.04,260.09,84.23,258.48z"></path> </g> </g> </g> <g> <g> <g> <path class="st19" d="M70.45,252.87c0,0-9.69,2.6,2.83,14.62L70.45,252.87z"></path> </g> </g> </g> <g> <g> <path class="st18" d="M156.98,304.36l-9.87-0.09c0.85-0.5,2.23-1.39,1.92-1.79c-0.44-0.58-3.23,0.69-4.37,0.81 c-1.04,0.11-2.79-0.03-4.11,0.46l-3.12,1.33l2.86,2.64c0,0,5.16,0.74,6.67,0.85c2.46,0.17,9.97-2.75,10.1-3.2 C157.29,304.56,156.98,304.36,156.98,304.36z"></path> </g> </g> <g> <g> <g> <path class="st15" d="M99.24,279.64c-6.28-1.1-12.88-2.69-12.88-2.69l-11.69-0.48c0,0-10.73,2.36-14.95,4.27 c-0.4,0.18-0.4,9.57-1.5,12.03l3.5,7.39c0,0,2.02,14.64,2.44,21.15c0.19,2.99-4.17,28.03-4.17,28.03s4.68,1.38,12.66,2.26 c7.98,0.88,27.91-0.32,28.04-1.26c0.13-0.94-3.86-35.09-4.04-36.86c-0.27-2.71,0.78-15.25,0.78-15.25 c1.5,2.02,10.2,9.59,14.44,12c3.02,1.71,10.42,0.67,12.6,0.44c4.72-0.48,17.76-1.42,18.01-1.88c0.2-0.28-0.75-5.03-1.3-5.21 c-0.48-0.16-17.31-0.99-21.53-0.77c-1.71,0.09-7.3-6.15-7.3-6.15S102.71,281.2,99.24,279.64z"></path> </g> </g> </g> <g> <polygon class="st21" points="27.35,232.39 58.25,232.39 58.25,254.78 58.25,259.5 53.53,254.78 27.35,254.78 "></polygon> </g> <g> <g> <g> <path class="st2" d="M524.94,161.11h-30.02v-30.02h30.02V161.11z M495.92,160.11h28.02v-28.02h-28.02V160.11z"></path> </g> <g> <path class="st2" d="M599.66,142.1h-68.71v-7.34h68.71V142.1z M531.94,141.1h66.71v-5.34h-66.71V141.1z"></path> </g> <g> <path class="st2" d="M599.66,176.23H494.92v-7.34h104.74V176.23z M495.92,175.23h102.74v-5.34H495.92V175.23z"></path> </g> <g> <path class="st2" d="M561.63,190.32h-66.71v-7.34h66.71V190.32z M495.92,189.32h64.71v-5.34h-64.71V189.32z"></path> </g> <g> <path class="st2" d="M577.48,156.1h-46.53v-7.34h46.53V156.1z M531.94,155.1h44.53v-5.34h-44.53V155.1z"></path> </g> </g> <g> <path class="st2" d="M611.58,206.28H482.99v-91.15h128.59V206.28z M483.99,205.28h126.59v-89.15H483.99V205.28z"></path> </g> </g> <g> <polygon class="st2" points="437.65,74.31 428.03,74.31 428.03,73.19 436.53,73.19 436.53,64.7 437.65,64.7 "></polygon> </g> <g> <polygon class="st2" points="372.96,74.31 363.34,74.31 363.34,64.7 364.46,64.7 364.46,73.19 372.96,73.19 "></polygon> </g> <g> <polygon class="st2" points="364.46,9.62 363.34,9.62 363.34,0 372.95,0 372.95,1.12 364.46,1.12 "></polygon> </g> <g> <polygon class="st2" points="437.65,9.62 436.53,9.62 436.53,1.13 428.03,1.13 428.03,0 437.65,0 "></polygon> </g> <g> <rect x="436.53" y="23.98" class="st2" width="1.12" height="26.35"></rect> </g> <g> <rect x="363.34" y="23.98" class="st2" width="1.12" height="26.35"></rect> </g> <g> <path class="st14" d="M93.18,148.18c-2.27,0-4.12-1.85-4.12-4.12c0-2.27,1.85-4.12,4.12-4.12c2.27,0,4.12,1.85,4.12,4.12 C97.3,146.33,95.45,148.18,93.18,148.18z M93.18,141.07c-1.65,0-3,1.34-3,3c0,1.65,1.34,3,3,3c1.65,0,3-1.34,3-3 C96.18,142.41,94.83,141.07,93.18,141.07z"></path> </g> <g> <path class="st14" d="M400.55,53.74c-2.27,0-4.12-1.85-4.12-4.12c0-2.27,1.85-4.12,4.12-4.12c2.27,0,4.12,1.85,4.12,4.12 C404.67,51.89,402.82,53.74,400.55,53.74z M400.55,46.63c-1.65,0-3,1.34-3,3c0,1.65,1.35,3,3,3c1.65,0,3-1.34,3-3 C403.55,47.97,402.2,46.63,400.55,46.63z"></path> </g> <g> <path class="st14" d="M535.16,201.14c-2.27,0-4.12-1.85-4.12-4.12c0-2.27,1.85-4.12,4.12-4.12c2.27,0,4.12,1.85,4.12,4.12 C539.27,199.29,537.43,201.14,535.16,201.14z M535.16,194.02c-1.65,0-3,1.34-3,3c0,1.65,1.35,3,3,3c1.65,0,3-1.34,3-3 C538.15,195.37,536.81,194.02,535.16,194.02z"></path> </g> <g> <path class="st22" d="M120.49,33.83H92.23V5.57h28.27V33.83z M93.35,32.71h26.02V6.69H93.35V32.71z"></path> </g> <g> <rect x="105.8" y="13.27" class="st22" width="1.12" height="13.18"></rect> </g> <g> <rect x="99.77" y="19.3" class="st22" width="13.17" height="1.12"></rect> </g> <g> <path class="st22" d="M551.24,67.93h-40.4V39.09h40.4V67.93z M511.96,66.81h38.16v-26.6h-38.16V66.81z"></path> </g> <g> <polygon class="st22" points="531.04,56.56 511.04,40.08 511.76,39.21 531.04,55.1 550.33,39.21 551.04,40.08 "></polygon> </g> <g> <rect x="542.87" y="49.19" transform="matrix(0.7255 -0.6882 0.6882 0.7255 108.0506 390.3734)" class="st22" width="1.12" height="21.07"></rect> </g> <g> <rect x="508.11" y="59.16" transform="matrix(0.6877 -0.726 0.726 0.6877 118.6343 395.2132)" class="st22" width="21.07" height="1.12"></rect> </g> <g> <path class="st22" d="M191.02,96.9l-0.42-1.1c-0.38-0.05-0.75-0.13-1.11-0.25l-0.86,0.8l-2.49-1.77l0.48-1.07 c-0.23-0.3-0.43-0.62-0.6-0.96l-1.18-0.04l-0.51-3.01l1.1-0.42c0.05-0.38,0.13-0.75,0.25-1.11l-0.8-0.86l1.77-2.49l1.07,0.48 c0.3-0.23,0.62-0.43,0.96-0.6l0.04-1.18l3.01-0.51l0.42,1.1c0.38,0.05,0.75,0.13,1.11,0.25l0.86-0.8l2.49,1.77l-0.48,1.07 c0.23,0.3,0.43,0.62,0.6,0.96l1.18,0.04l0.51,3.01l-1.1,0.42c-0.05,0.38-0.14,0.75-0.25,1.11l0.81,0.86l-1.77,2.49l-1.07-0.48 c-0.3,0.23-0.62,0.43-0.96,0.6l-0.04,1.18L191.02,96.9z M189.3,94.58l0.25,0.09c0.45,0.17,0.91,0.28,1.39,0.32l0.26,0.02l0.36,0.94 l1.66-0.28l0.03-1.01l0.24-0.11c0.44-0.2,0.84-0.45,1.21-0.76l0.2-0.17l0.92,0.41l0.97-1.37l-0.69-0.73l0.09-0.25 c0.17-0.44,0.28-0.91,0.32-1.39l0.02-0.26l0.94-0.36l-0.28-1.66L196.2,88l-0.11-0.24c-0.2-0.44-0.45-0.85-0.76-1.21l-0.17-0.2 l0.41-0.92l-1.37-0.97l-0.74,0.69l-0.25-0.09c-0.45-0.17-0.92-0.28-1.39-0.32l-0.26-0.02l-0.36-0.94l-1.65,0.28l-0.03,1.01 l-0.24,0.11c-0.44,0.2-0.85,0.45-1.21,0.76l-0.2,0.17l-0.92-0.41l-0.97,1.37l0.69,0.73l-0.1,0.25c-0.17,0.44-0.28,0.91-0.32,1.39 l-0.02,0.26l-0.94,0.36l0.28,1.66l1.01,0.03l0.11,0.24c0.2,0.44,0.45,0.85,0.76,1.21l0.17,0.2l-0.41,0.92l1.37,0.97L189.3,94.58z M191.38,93.18c-0.68,0-1.35-0.21-1.92-0.62c-1.49-1.06-1.84-3.14-0.78-4.63c1.06-1.49,3.14-1.84,4.63-0.78 c0.72,0.51,1.2,1.28,1.35,2.16c0.15,0.87-0.06,1.75-0.57,2.48c-0.51,0.72-1.28,1.2-2.16,1.35 C191.75,93.17,191.57,93.18,191.38,93.18z M191.39,87.38c-0.78,0-1.54,0.36-2.03,1.04c-0.38,0.54-0.54,1.2-0.42,1.85 c0.11,0.65,0.47,1.23,1.01,1.61l0,0c0.54,0.38,1.2,0.54,1.85,0.43c0.65-0.11,1.23-0.47,1.61-1.01c0.38-0.54,0.54-1.2,0.43-1.85 c-0.11-0.65-0.47-1.23-1.01-1.61C192.39,87.53,191.89,87.38,191.39,87.38z"></path> </g> <g> <path class="st22" d="M167.68,100.42l-0.94-2.45c-1.01-0.11-2-0.34-2.95-0.67l-1.91,1.8l-5.2-3.7l1.07-2.4 c-0.63-0.79-1.17-1.65-1.6-2.56l-2.62-0.08l-1.06-6.29l2.45-0.94c0.11-1.01,0.34-2,0.68-2.95l-1.8-1.91l3.7-5.2l2.4,1.07 c0.79-0.63,1.65-1.17,2.56-1.6l0.08-2.62l6.29-1.06l0.94,2.45c1.01,0.11,1.99,0.34,2.95,0.68l1.91-1.8l5.2,3.7l-1.07,2.4 c0.63,0.79,1.17,1.65,1.6,2.56l2.62,0.08l1.06,6.29l-2.45,0.94c-0.11,1.01-0.34,1.99-0.68,2.95l1.8,1.91l-3.7,5.2l-2.39-1.07 c-0.79,0.63-1.65,1.17-2.56,1.6l-0.08,2.62L167.68,100.42z M163.54,96l0.33,0.13c1.07,0.41,2.18,0.66,3.32,0.76l0.35,0.03 l0.86,2.25l4.48-0.75l0.08-2.4l0.32-0.14c1.05-0.47,2.02-1.08,2.89-1.81l0.27-0.23l2.2,0.98l2.63-3.7l-1.64-1.75l0.13-0.33 c0.41-1.06,0.66-2.18,0.76-3.32l0.03-0.35l2.25-0.86l-0.76-4.48l-2.4-0.08l-0.14-0.32c-0.47-1.05-1.08-2.02-1.81-2.89l-0.23-0.27 l0.98-2.19l-3.7-2.63l-1.75,1.64l-0.33-0.13c-1.07-0.41-2.18-0.66-3.32-0.76l-0.35-0.03l-0.86-2.25l-4.48,0.75l-0.08,2.4 l-0.32,0.14c-1.05,0.47-2.02,1.08-2.89,1.81l-0.27,0.23l-2.19-0.98l-2.63,3.7l1.64,1.75l-0.13,0.33c-0.41,1.06-0.66,2.18-0.76,3.32 l-0.03,0.35l-2.25,0.86l0.75,4.48l2.4,0.08l0.14,0.32c0.47,1.05,1.08,2.02,1.81,2.89l0.23,0.27l-0.98,2.19l3.7,2.63L163.54,96z M168.25,91.88c-1.45,0-2.92-0.44-4.2-1.34c-3.26-2.32-4.02-6.86-1.7-10.12c2.32-3.26,6.86-4.02,10.12-1.7 c3.26,2.32,4.02,6.86,1.7,10.12C172.75,90.82,170.52,91.88,168.25,91.88z M168.27,78.5c-1.92,0-3.81,0.9-5,2.57 c-0.95,1.34-1.32,2.96-1.05,4.58c0.27,1.61,1.16,3.03,2.49,3.98c2.76,1.96,6.59,1.31,8.55-1.44c0.95-1.33,1.32-2.96,1.05-4.57 c-0.27-1.62-1.16-3.03-2.49-3.98C170.74,78.87,169.5,78.5,168.27,78.5z"></path> </g> <g> <g> <g> <path class="st14" d="M20.96,106.32c-11.53,0-20.92-9.38-20.92-20.92h1.12c0,10.92,8.88,19.8,19.8,19.8 c10.92,0,19.8-8.88,19.8-19.8c0-10.92-8.88-19.8-19.8-19.8v-1.12c11.53,0,20.92,9.38,20.92,20.92 C41.88,96.93,32.5,106.32,20.96,106.32z M20.96,103.41c-9.93,0-18.01-8.08-18.01-18.01c0-9.93,8.08-18.01,18.01-18.01 s18.01,8.08,18.01,18.01h-1.12c0-9.31-7.58-16.89-16.89-16.89c-9.31,0-16.89,7.58-16.89,16.89c0,9.31,7.58,16.89,16.89,16.89 V103.41z"></path> </g> </g> </g> <g> <polygon class="st14" points="18.4,92.33 10.85,84.78 11.65,83.99 18.4,90.74 30.28,78.87 31.07,79.66 "></polygon> </g> <linearGradient id="SVGID_12_" gradientUnits="userSpaceOnUse" x1="303.8221" y1="329.3207" x2="303.8221" y2="525.1617"> <stop offset="0" style="stop-color:#40D5E6"></stop> <stop offset="1" style="stop-color:#5577FF"></stop> </linearGradient> <polygon class="st23" points="462.73,341.89 303.82,341.89 144.92,341.89 110.14,471.88 304.86,471.88 497.51,471.88 "></polygon> <path class="st8" d="M156.94,364.69h19.53c0.82,0,1.43,0.63,1.28,1.32l-1.89,8.49c-0.12,0.52-0.65,0.9-1.28,0.9h-19.86 c-0.83,0-1.45-0.66-1.27-1.35l2.22-8.49C155.8,365.06,156.33,364.69,156.94,364.69z"></path> <polygon class="st8" points="185.42,364.69 200.18,364.69 198.22,375.41 183.17,375.41 "></polygon> <polygon class="st8" points="207.56,364.69 222.32,364.69 220.78,375.41 205.73,375.42 "></polygon> <polygon class="st8" points="229.7,364.69 244.47,364.69 243.34,375.41 228.3,375.41 "></polygon> <polygon class="st8" points="251.85,364.69 266.61,364.69 265.91,375.41 250.86,375.41 "></polygon> <polygon class="st8" points="273.99,364.69 288.75,364.69 288.47,375.41 273.43,375.42 "></polygon> <polygon class="st8" points="451.18,364.69 429.04,364.69 431.42,375.41 453.99,375.41 "></polygon> <polygon class="st8" points="421.65,364.69 406.89,364.69 408.86,375.41 423.9,375.41 "></polygon> <polygon class="st8" points="399.51,364.69 384.75,364.69 386.29,375.41 401.34,375.42 "></polygon> <polygon class="st8" points="377.37,364.69 362.61,364.69 363.73,375.41 378.77,375.41 "></polygon> <polygon class="st8" points="355.23,364.69 340.47,364.69 341.17,375.41 356.21,375.41 "></polygon> <polygon class="st8" points="333.08,364.69 318.32,364.69 318.6,375.41 333.65,375.42 "></polygon> <polygon class="st8" points="296.13,364.69 310.89,364.69 311.14,375.41 296.13,375.41 "></polygon> <polygon class="st8" points="150.44,383.39 181.29,383.39 179.53,394.45 148.1,394.45 "></polygon> <polygon class="st8" points="455.99,383.39 417.86,383.39 420.04,394.45 458.89,394.45 "></polygon> <polygon class="st8" points="410.24,383.39 394.99,383.39 396.73,394.45 412.27,394.45 "></polygon> <polygon class="st8" points="387.36,383.39 372.11,383.39 373.41,394.45 388.96,394.45 "></polygon> <polygon class="st8" points="364.49,383.39 349.23,383.39 350.1,394.45 365.64,394.45 "></polygon> <polygon class="st8" points="341.61,383.39 326.36,383.39 326.79,394.45 342.33,394.45 "></polygon> <polygon class="st8" points="145.84,403.1 177.37,403.1 175.07,414.08 142.96,414.08 "></polygon> <polygon class="st8" points="185.26,403.1 201.02,403.1 199.15,414.08 183.1,414.08 "></polygon> <polygon class="st8" points="208.91,403.1 224.67,403.1 327.15,403.1 327.59,414.08 207.18,414.08 "></polygon> <polygon class="st8" points="335.05,403.1 350.81,403.1 351.68,414.08 335.62,414.08 "></polygon> <polygon class="st8" points="358.7,403.1 374.47,403.1 375.76,414.08 359.71,414.08 "></polygon> <polygon class="st8" points="382.35,403.1 398.12,403.1 399.84,414.08 383.79,414.08 "></polygon> <polygon class="st8" points="406,403.1 421.77,403.1 423.93,414.08 407.87,414.08 "></polygon> <polygon class="st8" points="429.65,403.1 461.19,403.1 464.06,414.08 431.95,414.08 "></polygon> <polygon class="st8" points="318.76,383.39 303.64,383.39 303.64,394.45 319.05,394.45 "></polygon> <polygon class="st8" points="295.89,383.39 280.64,383.39 280.2,394.45 295.74,394.45 "></polygon> <polygon class="st8" points="273.01,383.39 257.76,383.39 256.89,394.45 272.43,394.45 "></polygon> <polygon class="st8" points="250.13,383.39 234.88,383.39 233.58,394.45 249.12,394.45 "></polygon> <polygon class="st8" points="227.26,383.39 212,383.39 210.27,394.45 225.81,394.45 "></polygon> <polygon class="st8" points="204.38,383.39 189.13,383.39 186.95,394.45 202.5,394.45 "></polygon> <polygon class="st8" points="157.66,357.96 160.17,348.39 167.33,348.39 164.99,357.96 "></polygon> <polygon class="st8" points="174.5,348.39 188.83,348.39 186.83,357.96 172.24,357.96 "></polygon> <polygon class="st8" points="196,348.39 210.34,348.39 208.71,357.96 194.12,357.96 "></polygon> <polygon class="st8" points="217.51,348.39 231.84,348.39 230.59,357.96 216,357.96 "></polygon> <polygon class="st8" points="239.01,348.39 253.34,348.39 252.46,357.96 237.88,357.96 "></polygon> <polygon class="st8" points="260.51,348.39 274.84,348.39 274.34,357.96 259.76,357.96 "></polygon> <polygon class="st8" points="282.01,348.39 296.34,348.39 296.22,357.96 281.64,357.96 "></polygon> <polygon class="st8" points="303.51,348.39 317.85,348.39 318.1,357.96 303.51,357.96 "></polygon> <polygon class="st8" points="325.01,348.39 339.35,348.39 339.98,357.96 325.39,357.96 "></polygon> <polygon class="st8" points="346.52,348.39 360.85,348.39 361.85,357.96 347.27,357.96 "></polygon> <polygon class="st8" points="368.02,348.39 382.35,348.39 383.73,357.96 369.15,357.96 "></polygon> <polygon class="st8" points="389.52,348.39 403.86,348.39 405.61,357.96 391.02,357.96 "></polygon> <polygon class="st8" points="411.02,348.39 425.36,348.39 427.49,357.96 412.9,357.96 "></polygon> <polygon class="st8" points="432.52,348.39 446.86,348.39 449.37,357.96 434.78,357.96 "></polygon> <linearGradient id="SVGID_13_" gradientUnits="userSpaceOnUse" x1="-69.4033" y1="476.9396" x2="317.9669" y2="476.9396"> <stop offset="0" style="stop-color:#40D5E6"></stop> <stop offset="1" style="stop-color:#5577FF"></stop> </linearGradient> <path class="st24" d="M487.39,482H120.26c-5.59,0-10.12-4.53-10.12-10.12l0,0h387.37l0,0C497.51,477.47,492.98,482,487.39,482z"></path> <path class="st25" d="M348.85,429.87c-0.38-2.29-2.36-3.97-4.68-3.97h-40.35h-40.35c-2.32,0-4.3,1.68-4.68,3.97l-5.04,30.51 c-0.48,2.89,1.75,5.51,4.68,5.51h45.4h45.4c2.93,0,5.15-2.62,4.68-5.51L348.85,429.87z"></path> <g> <g> <rect x="175.95" y="167.29" class="st26" width="32.85" height="3.36"></rect> </g> <g> <rect x="218" y="192.62" class="st26" width="23.72" height="3.36"></rect> </g> <g> <rect x="245.42" y="192.62" class="st13" width="15.74" height="3.36"></rect> </g> <g> <rect x="176.33" y="256.32" class="st13" width="15.74" height="3.36"></rect> </g> <g> <rect x="264.27" y="192.62" class="st26" width="38" height="3.36"></rect> </g> <g> <rect x="176.33" y="243.56" class="st26" width="24.42" height="3.36"></rect> </g> <g> <rect x="210.37" y="268.98" class="st26" width="14.91" height="3.36"></rect> </g> <g> <rect x="176.33" y="268.98" class="st13" width="29.54" height="3.36"></rect> </g> <g> <rect x="176.33" y="281.65" class="st26" width="16.29" height="3.36"></rect> </g> <g> <rect x="215.2" y="167.29" class="st14" width="23.32" height="3.36"></rect> </g> <g> <rect x="215.2" y="205.29" class="st13" width="23.32" height="3.36"></rect> </g> <g> <rect x="203.54" y="217.95" class="st26" width="9.96" height="3.36"></rect> </g> <g> <rect x="193.57" y="230.8" class="st14" width="22.38" height="3.36"></rect> </g> <g> <rect x="219.34" y="230.8" class="st13" width="30.9" height="3.36"></rect> </g> <g> <rect x="176.33" y="218.05" class="st13" width="23.32" height="3.36"></rect> </g> <g> <rect x="176.33" y="230.8" class="st13" width="13.84" height="3.36"></rect> </g> <g> <rect x="218.2" y="218.05" class="st27" width="13.06" height="3.36"></rect> </g> <g> <rect x="176.72" y="294.31" class="st27" width="13.05" height="3.36"></rect> </g> <g> <rect x="176.23" y="192.62" class="st14" width="23.32" height="3.36"></rect> </g> <g> <rect x="196.86" y="256.32" class="st14" width="23.32" height="3.36"></rect> </g> <g> <rect x="197.15" y="281.65" class="st14" width="23.32" height="3.36"></rect> </g> <g> <rect x="238.58" y="281.65" class="st14" width="23.32" height="3.36"></rect> </g> <g> <rect x="176.23" y="205.29" class="st14" width="33.25" height="3.36"></rect> </g> <g> <rect x="332.02" y="167.29" class="st14" width="23.32" height="3.36"></rect> </g> <g> <rect x="248.94" y="294.31" class="st14" width="23.32" height="3.36"></rect> </g> <g> <rect x="362.6" y="167.29" class="st14" width="15.61" height="3.36"></rect> </g> <g> <rect x="415.42" y="179.96" class="st14" width="15.61" height="3.36"></rect> </g> <g> <rect x="244.8" y="167.29" class="st13" width="29.71" height="3.36"></rect> </g> <g> <rect x="360.57" y="179.96" class="st13" width="29.71" height="3.36"></rect> </g> <g> <rect x="324.13" y="192.62" class="st13" width="29.71" height="3.36"></rect> </g> <g> <rect x="285.44" y="205.29" class="st13" width="29.71" height="3.36"></rect> </g> <g> <rect x="357.58" y="192.62" class="st14" width="21.12" height="3.36"></rect> </g> <g> <rect x="296.49" y="167.29" class="st27" width="29.71" height="3.36"></rect> </g> <g> <rect x="262.58" y="205.29" class="st27" width="17.42" height="3.36"></rect> </g> <g> <rect x="248.94" y="256.51" class="st27" width="17.42" height="3.36"></rect> </g> <g> <rect x="280" y="167.29" class="st26" width="10.88" height="3.36"></rect> </g> <g> <rect x="244.8" y="205.29" class="st26" width="10.88" height="3.36"></rect> </g> <g> <rect x="397.45" y="179.96" class="st26" width="10.88" height="3.36"></rect> </g> <g> <rect x="175.95" y="179.96" class="st13" width="17.02" height="3.36"></rect> </g> <g> <rect x="221.35" y="243.65" class="st13" width="13.43" height="3.36"></rect> </g> <g> <rect x="197.15" y="179.96" class="st13" width="5.49" height="3.36"></rect> </g> <g> <rect x="309.93" y="179.96" class="st26" width="45.41" height="3.36"></rect> </g> <g> <rect x="266.36" y="281.65" class="st26" width="45.41" height="3.36"></rect> </g> <g> <rect x="206.68" y="179.96" class="st27" width="5.61" height="3.36"></rect> </g> <g> <rect x="290.88" y="179.96" class="st13" width="14.86" height="3.36"></rect> </g> <g> <rect x="305.74" y="192.62" class="st27" width="14.86" height="3.36"></rect> </g> <g> <rect x="229.34" y="294.31" class="st27" width="14.86" height="3.36"></rect> </g> <g> <rect x="255.34" y="179.96" class="st13" width="31.61" height="3.36"></rect> </g> <g> <rect x="225.92" y="256.51" class="st13" width="18.47" height="3.36"></rect> </g> <g> <rect x="224.73" y="281.65" class="st13" width="9.24" height="3.36"></rect> </g> <g> <rect x="239.98" y="179.96" class="st14" width="10.88" height="3.36"></rect> </g> <g> <rect x="203.37" y="192.62" class="st27" width="10.88" height="3.36"></rect> </g> <g> <rect x="205.54" y="243.65" class="st27" width="10.88" height="3.36"></rect> </g> <g> <rect x="216.88" y="179.96" class="st13" width="18.95" height="3.36"></rect> </g> </g> <g class="st28"> <path class="st8" d="M495.05,314.2H356.22c-2.22,0-4.01-1.8-4.01-4.01v-96.67c0-2.22,1.8-4.01,4.01-4.01h138.83 c2.22,0,4.01,1.8,4.01,4.01v96.67C499.06,312.4,497.26,314.2,495.05,314.2z"></path> </g> <g> <g> <path class="st29" d="M483.48,270.66h-24.2c-0.85,0-1.54-0.69-1.54-1.54v-4.19c0-0.85,0.69-1.54,1.54-1.54h24.2 c0.85,0,1.54,0.69,1.54,1.54v4.19C485.01,269.97,484.33,270.66,483.48,270.66z"></path> </g> </g> <g> <g> <path class="st29" d="M483.48,284.28h-24.2c-0.85,0-1.54-0.69-1.54-1.54v-4.19c0-0.85,0.69-1.54,1.54-1.54h24.2 c0.85,0,1.54,0.69,1.54,1.54v4.2C485.01,283.59,484.33,284.28,483.48,284.28z"></path> </g> </g> <g> <g> <path class="st29" d="M483.47,297.9h-24.2c-0.85,0-1.54-0.69-1.54-1.54v-4.19c0-0.85,0.69-1.54,1.54-1.54h24.2 c0.85,0,1.54,0.69,1.54,1.54v4.19C485.01,297.21,484.32,297.9,483.47,297.9z"></path> </g> </g> <g> <g> <g> <path class="st29" d="M444.54,247.15c-6.07-16.97-22.29-27.39-39.38-26.88c-4.14,0.12-8.33,0.89-12.44,2.36 c-12.45,4.45-21.38,14.37-25.05,26.09c-2.54,8.12-2.56,17.1,0.53,25.73c0.31,0.86,0.64,1.7,1,2.53 c1.62,3.74,3.75,7.12,6.28,10.09c10.61,12.47,28.21,17.74,44.54,11.9C441.1,291.43,452.08,268.23,444.54,247.15z M416.61,289.42 c-12.24,4.38-25.44,0.43-33.39-8.92c-1.9-2.23-3.49-4.76-4.71-7.57c-0.27-0.62-0.52-1.25-0.75-1.89 c-2.31-6.47-2.3-13.21-0.39-19.29c2.75-8.79,9.44-16.22,18.78-19.56c3.08-1.1,6.22-1.68,9.33-1.77 c12.81-0.39,24.97,7.43,29.53,20.15C440.64,266.37,432.41,283.77,416.61,289.42z"></path> </g> </g> <g> <g> <path class="st30" d="M377.36,251.75l-9.68-3.02c3.67-11.72,12.6-21.63,25.05-26.09c4.11-1.47,8.3-2.23,12.44-2.36l0.3,10.14 c-3.1,0.09-6.24,0.67-9.33,1.77C386.8,235.53,380.11,242.96,377.36,251.75z"></path> </g> </g> <g> <g> <path class="st31" d="M378.51,272.93l-9.3,4.05c-0.36-0.83-0.69-1.67-1-2.53c-3.09-8.63-3.07-17.61-0.53-25.73l9.68,3.02 c-1.91,6.09-1.92,12.82,0.39,19.29C377.99,271.68,378.24,272.31,378.51,272.93z"></path> </g> </g> <g> <g> <path class="st32" d="M375.49,287.07c-2.53-2.97-4.66-6.35-6.28-10.09l9.3-4.05c1.22,2.8,2.81,5.34,4.71,7.57L375.49,287.07z"></path> </g> </g> </g> <g> <g> <path class="st18" d="M419.9,284.85c0,0-1.96-3.44,1.15-12.65c3.01-8.91,13.44-8.1,16.75-2.39c3.31,5.71,2.2,9.25-2.68,15.69 C430.24,291.94,421.93,287.79,419.9,284.85z"></path> </g> </g> <g> <g> <path class="st18" d="M444.12,443.28c0,0,0.52,3.78,0.58,4.35c0.06,0.57,5.74-0.34,5.74-0.34l0.46-4.5 C450.9,442.8,444.83,442.75,444.12,443.28z"></path> </g> </g> <g> <g> <path class="st33" d="M444.64,447.15c0,0-1.8,2.28-3.54,3.27c-1.74,0.99-4.47,1.39-5.5,2.42c-0.74,0.74-2.7,3.94,4.52,3.87 c7.22-0.06,10.7,0.45,11.48-0.77c0.77-1.23-1.12-9.04-1.12-9.04S448.71,447.4,444.64,447.15z"></path> </g> </g> <g> <g> <path class="st18" d="M404.83,443.28c0,0,0.52,3.78,0.58,4.35c0.06,0.57,5.74-0.34,5.74-0.34l0.46-4.5 C411.61,442.8,405.54,442.75,404.83,443.28z"></path> </g> </g> <g> <g> <path class="st33" d="M405.35,447.15c0,0-1.8,2.28-3.54,3.27c-1.74,0.99-8.14,1.81-9.17,2.84c-0.74,0.74-1.98,3.73,8.18,3.45 c7.22-0.2,10.7,0.45,11.48-0.77c0.77-1.23-1.12-9.04-1.12-9.04S408.95,447.3,405.35,447.15z"></path> </g> </g> <g> <g> <path class="st34" d="M442.21,349.11c0,0,2.91,9.04,2.53,16.83c-0.38,7.79,1.5,16.32,2.28,24.46c0.86,9.07,4.38,30.55,4.51,35.41 c0.13,4.85-0.55,20.35-0.55,20.35l-7.05,0.17c0,0-5.92-37.55-7.45-41.38c-1.53-3.83-9.13-31.15-9.39-34.21 C426.83,367.67,442.21,349.11,442.21,349.11z"></path> </g> </g> <g> <g> <path class="st34" d="M412.99,348.17c0,0-4.28,23.9-4.79,28.67c-0.51,4.77-0.85,23.08-1.11,26.06c-0.25,2.98-1.7,39-3.07,43.43 h7.86c0,0,8.07-26.18,8.07-38.57s5.34-26.93,8.79-35.11c3.45-8.17,11.34-8.37,13.46-23.53 C442.21,349.11,415.86,343.36,412.99,348.17z"></path> </g> </g> <g> <g> <path class="st18" d="M422.75,287.28c0,0,0.89,2.58,0,4.42c-0.89,1.84,11.32,0.74,11.32,0.74s-0.55-3.8,1.04-6.93 C436.71,282.37,422.75,287.28,422.75,287.28z"></path> </g> </g> <g> <g> <path class="st35" d="M442.77,351.08c0,0-4.39,4.51-30.18-0.7l0.39-2.21l29.31,1.1L442.77,351.08z"></path> </g> </g> <g> <g> <path class="st18" d="M420.91,292.29c0,0-4.51,0.46-5.8,0.71c-1.29,0.24-9.96-1.55-11.74-1.74c-1.78-0.18-9.37-5.38-9.61-6 c-0.24-0.61-4.62-11.68-4.86-14.07c-0.25-2.39-4.26-1.16-3.91,0.49c0.64,3.09,1.47,10.57,1.92,12.74c0.49,2.34,1.8,7.65,2.54,8.3 c0.74,0.65,7.57,5.85,14.26,8.06c6.69,2.21,11.72,5.46,11.72,5.46h32.96c0,0,12.82-18.33,13.1-21.09 c0.28-2.76-8.95-21.11-10.79-23.41c-1.84-2.3-4.5,0.75-4.5,0.75s5.52,16.18,6.25,18.48c0.74,2.3-6.41,12.41-8.38,12.44 c-1.96,0.03-7-0.61-9.24-0.71c-2.24-0.09-4.6-1.07-4.6-1.07L420.91,292.29z"></path> </g> </g> <g> <g> <path class="st21" d="M406.7,304.54c0,0,4.04,2.68,4.4,7.28c0.37,4.6,1.84,11.87,2.58,14.36c0.74,2.49-0.64,20.52-0.83,21.81 c-0.18,1.29,25.51,4.35,29.45,1.29c0,0,1.1-16.84,1.56-21.63c0.46-4.79,2.67-16.38,3.41-17.95c0.74-1.56,9.66-14.09,10.03-15.74 c0,0-4.62-7.36-7.93-7.45c0,0-5.26,6.17-6.98,6.44c-1.72,0.28-12.23-1.65-12.23-1.67c0,0-1.15,1.56-7.25-0.28 c0,0-7.27,0.82-8.45,0.97c-1.43,0.18-11.38-1.25-11.38-1.25s-3.99,6.74-3.29,10.14L406.7,304.54z"></path> </g> </g> <g> <g> <path class="st18" d="M389.12,272.64c0,0-0.9-4.27,0.18-5.49c0.62-0.7,2.1-2.54,2.24-2.81c0.14-0.27,1.73-1.19,1.73-1.63 c0-0.44-1.56-0.98-2.92,0.27c-1.36,1.25-2.2,1.53-2.75,1.39c-0.54-0.14-1.32-4.64-1.39-5.76c-0.07-1.12-0.5-4.07-1.2-3.86 c-0.7,0.2-0.66,1.49-0.66,1.49s-0.81-2.24-1.36-1.8c-0.54,0.44-0.48,1.53-0.48,1.53s-1.02-1.25-1.29-0.34 c-0.27,0.92,0,1.73,0,1.73s-1.05-0.58-1.12,0.85c-0.07,1.42,0.31,5.59,1.05,7.09c0.75,1.49,3.54,5.39,3.87,6.92 C385.38,273.72,389.12,272.64,389.12,272.64z"></path> </g> </g> <g> <g> <path class="st18" d="M447.07,265.15c0,0-3.07-5.16-4.11-5.62c-1.04-0.46-2.51-0.72-3.8-1.64c-1.29-0.92-2.99-1.69-2.9-1.99 c0.09-0.31,1.61-0.18,3.24,0.52c1.63,0.7,2.34,0.36,2.49,0c0.15-0.37-0.87-2.97-1.36-3.58c-0.49-0.61-3.99-4.13-3.41-4.65 c0.58-0.52,2.85,1.41,3.22,1.81c0,0-1.81-3.8-1.1-3.99c0.7-0.18,2.02,1.17,2.02,1.17s-0.15-3.25,3.34,2.03 c0,0-0.74-1.75,0.34-1.17c1.07,0.58,2.12,3.87,2.45,5.52c0.34,1.66,1.87,6.93,3.17,8.21 C451.98,263.03,447.07,265.15,447.07,265.15z"></path> </g> </g> <g> <g> <path class="st36" d="M435.12,285.5c0,0-1.62,0.14-5.05-1.04c-3.44-1.19-3.69-7.19-4.44-6.48c-1.52,1.45-2.95,0.45-3.52-0.41 c0,0,1.68-2.21,0.9-3.27c-0.78-1.06-2.04-1.84-2.04-1.84s2.42-11.65,13.41-6.34C447.27,272.33,435.12,285.5,435.12,285.5z"></path> </g> </g> <g> <g> <path class="st37" d="M422.75,291.7l0.39-1.68c0,0,7.02-0.14,10.85,0.41l0.4,2.01C434.39,292.44,429.49,294.66,422.75,291.7z"></path> </g> </g> <g> <g> <path class="st18" d="M424.49,276.5c0.64-1.06,2.99-1.77,3.27,1.23c0.21,2.33-4.21,4.87-4.25,2.7 C423.46,278.26,424.06,277.21,424.49,276.5z"></path> </g> </g> <g> <g> <path class="st38" d="M388.96,271.67c0,0-2.53,0.06-3.76,1.17c0,0-0.08,0.7,0.2,1.26c0,0,2.2-1.02,3.88-1.22 C389.28,272.88,389.25,271.96,388.96,271.67z"></path> </g> </g> <g> <g> <path class="st36" d="M385.97,272.3c-0.23,0.55,0.03,1.19,0.58,1.43c0.55,0.23,1.19-0.03,1.43-0.58c0.23-0.55-0.03-1.19-0.58-1.43 C386.84,271.48,386.21,271.74,385.97,272.3z"></path> </g> </g> <g> <g> <g> <path class="st39" d="M323.76,182.29c0,0,3.62,6.14,5.15,7.14c2.08,1.36,0.78,2.74-0.21,2.74c-0.99,0-6.02,0.36-7.13-0.9 s-1.66-5.03-2.69-6.02c-1.03-0.99-2.1-4.91,0.5-5.86C321.68,178.55,323.76,182.29,323.76,182.29z"></path> </g> </g> </g> <g> <g> <g> <path class="st40" d="M322.19,179.59c0,0,4.15,7.19,4.86,8.25c0.71,1.06-1.35,1.06-2.62,0.56c-1.28-0.5-4.49-5.66-4.95-6.6 c-0.55-1.12-0.1-2.4-0.1-2.4L322.19,179.59z"></path> </g> </g> </g> <g> <g> <g> <polygon class="st39" points="317.99,183.46 318.95,190.83 319.46,190.85 319.3,185.55 "></polygon> </g> </g> </g> <g> <g> <g> <path class="st39" d="M287.86,182.29c0,0,3.62,6.14,5.15,7.14c2.08,1.36,0.78,2.74-0.21,2.74c-0.99,0-6.02,0.36-7.13-0.9 c-1.11-1.26-1.66-5.03-2.69-6.02c-1.03-0.99-2.13-5.01,0.5-5.86C285.8,178.65,287.86,182.29,287.86,182.29z"></path> </g> </g> </g> <g> <g> <g> <path class="st40" d="M286.51,179.61c0,0,3.93,7.17,4.64,8.23c0.71,1.06-1.35,1.06-2.62,0.56c-1.28-0.5-4.49-5.66-4.95-6.6 c-0.55-1.12-0.1-2.4-0.1-2.4L286.51,179.61z"></path> </g> </g> </g> <g> <g> <g> <polygon class="st39" points="282.09,183.46 283.05,190.83 283.56,190.85 283.4,185.55 "></polygon> </g> </g> </g> <g> <g> <g> <path class="st40" d="M271.8,126.44l32.76,14.93c0,0,3.66,1.19,4.07,5.25c1.28,12.67,10.76,32.78,10.76,32.78 c3.04,1.49,2.81,0.2,2.81,0.2c-1.92-6.15-4.25-31.51-5.08-41.71c-0.18-2.16-0.29-3.64-0.31-4.11c-0.02-0.32-0.37-0.74-0.97-1.23 c-4.5-3.65-22.99-11.19-22.99-11.19C278.95,120.99,271.8,126.44,271.8,126.44z"></path> </g> </g> </g> <g> <g> <g> <path class="st40" d="M265.63,132.85c1.01,8.86,13.65,7.84,13.65,7.84h15.32c0,0-4.02,8.95-5.58,16.51 c-1.65,8.02-5.54,22.2-5.54,22.2s0.25,0.48,3.03,0.21c0,0,12.03-23.97,16.63-29.99c0.99-1.3,3.83-8.33,4.32-12.53 c0.17-1.41,0.06-2.5-0.46-2.95c-0.53-0.44-1.75-1.28-3.38-2.31c-4.8-3.03-13.13-7.68-17.78-8.73c-6.22-1.4-16.05-4.02-16.05-4.02 S264.61,124,265.63,132.85z"></path> </g> </g> </g> <g> <path class="st41" d="M276.05,64.65c0,0-2.29-4.35-1.18-8.99c1.12-4.64,5.42-9.25,11.72-7.13c6.3,2.12,11.39,7.01,7.61,12.67 c-3.78,5.66,3.42,8.21,1.58,10.9c-1.83,2.69-1.14,5.5-0.36,6.13c0.78,0.63,3.28,2.86,3,5.5c-0.28,2.64-12.22-7.7-12.22-7.7 S279.71,62.96,276.05,64.65z"></path> </g> <g> <path class="st42" d="M295.25,120.28c0,0-0.95,4.61-25.41-1.21C269.83,119.07,278.04,116.35,295.25,120.28z"></path> </g> <g> <g> <path class="st43" d="M269.56,120.37c-0.38,0.72-0.76,1.45-1.14,2.17c8.94,0.26,17.89,0.52,26.83,0.78 c-1.41-4.74-0.96-11.15-0.71-16.02c0.3-5.95,3.59-10.08,3.24-16.1c1.77,0.29,2.07,0.34,3.85,0.61 c-2.71-7.72-3.64-11.55-12.06-14.52c-2.74-0.97-4.54-1.16-7.51-0.91c-9.75,0.8-12.69,0.92-17.48,9.75 c7.5,1.19,6.26,3.89,8.54,11.34c1.11,3.64,2.27,7.69,1.67,11.53C274.2,112.78,269.56,116.92,269.56,120.37z"></path> </g> </g> <g> <g> <path class="st18" d="M285.12,79.17c-3.99-0.75-3.14-2.97-3.14-2.97s0.18-1.25,0.26-2.84c0.02-0.41,0.03-0.83,0.03-1.27 c0-0.66-0.03-1.33-0.11-1.96c-0.33-2.68,7.24-1.08,7.24-1.08s-0.44,5.42,0.61,7.04C291.04,77.71,289.11,79.92,285.12,79.17z"></path> </g> </g> <g> <g> <path class="st18" d="M277.5,76.18c0,0,8.05,9.29,11.02,11.45c0,0,3.42-3.09,1.31-11.25C289.84,76.38,285.95,74.43,277.5,76.18z"></path> </g> </g> <g> <path class="st18" d="M277.72,53.81c0,0-4.18,8.05-0.04,15.68c4.15,7.63,12.29-3.32,12.82-4.61c0.53-1.29,3.32-8.55-2.23-10.76 C282.72,51.92,278.91,51.62,277.72,53.81z"></path> </g> <g> <path class="st41" d="M279.11,56.67c0,0-2.88,3.78-3.22,6.57c0,0-1.15-5.28,2.09-10.35c3.24-5.07,11.47-0.24,12.58,1.79 c1.1,2.03,4.34,3.81-1.1,12.52C289.47,67.19,279.7,60.41,279.11,56.67z"></path> </g> <g> <path class="st44" d="M285.79,70.3c0,0-0.73,1.59-3.56,3.06c0.02-0.41,0.03-0.83,0.03-1.27C282.26,72.09,284.18,71.86,285.79,70.3z "></path> </g> <g> <path class="st18" d="M243.55,113.12c0,0-1.99,0.88-2.93,0.48c-0.94-0.4-2.4-0.48-2.86-0.48c-0.61,0-2.54-0.69-2.51,0.06 c0.03,0.75,3.12,1.28,3.76,1.51c0.63,0.23-1.89,1.62-2.13,2.24c-0.23,0.62,2.62,4.67,4.22,3.51c1.61-1.15,2.48-3.46,2.8-3.61 c0.33-0.15,1.21-0.79,1.21-0.79L243.55,113.12z"></path> </g> <g> <path class="st18" d="M237.19,116.58c0,0-4.66,3.86-4.73,4.39c-0.07,0.52,0.17,0.77,0.62,0.42c0.45-0.34,4.62-3.6,4.62-3.6 s-4.67,5.51-4.83,5.92c-0.09,0.24,0.36,0.74,0.62,0.58c0.26-0.16,5.23-5.35,5.23-5.35s-4.35,5.16-4.37,5.54 c-0.02,0.34,0.5,0.7,0.85,0.34c0.35-0.36,4.68-4.91,4.68-4.91s-2.91,3.96-2.73,4.31c0.11,0.21,0.48,0.66,1.19-0.39 c0.72-1.05,2.68-3.33,2.68-3.33L237.19,116.58z"></path> </g> <g> <g> <path class="st15" d="M293,140.69h-13.72c0,0-12.64,1.01-13.65-7.84c-1.01-8.85,4.16-13.77,4.16-13.77s6.68,1.78,12.51,3.19 c2.92-0.62,6.44-1.02,10.54-0.92c0,0,24.71,8.17,23.97,12.47C316.8,133.81,306.47,128.28,293,140.69z"></path> </g> </g> <g> <polygon class="st45" points="284.07,125.36 310.23,124.97 297.02,131.68 "></polygon> </g> <g> <path class="st43" d="M292.2,122.02c0,0-5.89,2.28-13.1,0.22l-0.34-2.69l14.85,0.83L292.2,122.02z"></path> </g> <g> <polygon class="st46" points="297.02,131.68 284.07,126.66 284.07,125.36 298.05,130.4 "></polygon> </g> <g> <g> <path class="st47" d="M292.11,123.26c-0.07,0.97,0.91,1.66,1.8,1.28l1.52-0.65c0.46-0.19,0.72-0.68,0.64-1.17 c-0.63-3.96-1.99-19.36,0-22c0.73-0.98,1.19-1.83,1.45-2.58c1.31,3.38,2.94,7.72,3.59,10.06l12.36,16.44l4.14,1.05 c-5.17-12.46-9.33-19.06-9.33-19.06c-0.81-2.17-3.13-8.75-5.18-14.6c-1.3-3.7-2.49-7.11-3.13-8.94c-0.32-0.93-0.96-1.71-1.81-2.22 c-1.91-1.14-5.1-2.95-8-4.35c-0.01-0.01-0.02-0.01-0.03-0.02c-0.09-0.04-0.18-0.09-0.28-0.13c0,0,0,0-0.01,0c0,0,0,0,0,0 c5.5,8.32,3.35,31.82,2.27,46.85C292.11,123.24,292.11,123.25,292.11,123.26z"></path> </g> <g> <path class="st47" d="M271.69,77.09c-1.76,0.27-6.13,4.51-8.45,8.79c-2.65,4.89-5.34,10.45-7.36,12.28 c-3.71,3.37-14.11,15.26-14.61,14.97c-0.19-0.11,2.85,3.55,3.24,3.72c0.19,0.09,17.09-14.55,18.71-16.79 c1.54-2.11,5.65-10.99,6.88-10.79c0,0,0,0,0,0.01c0,0,0,0,0,0c0.09,0.2,1.59,3.45,3.01,8.19c0.02,0.08,0.05,0.16,0.07,0.24 c0.98,3.31,0.89,6.9,0.36,10.94c-0.4,3.05-2.67,8.03-4.04,10.45c-0.17,0.29-0.12,0.85,0.06,1.27v0c0.11,0.25,0.26,0.46,0.45,0.53 l4.96,1.84l1.17,0.43c0.84,0.31,1.72,0.15,2.38-0.33c0.54-0.39,0.93-0.99,1.02-1.72c1.1-8.48,2.5-17.15,3.61-20.42 c4.88-14.33-1.91-25.09-1.91-25.09S273.24,76.51,271.69,77.09z"></path> </g> </g> <g> <polygon class="st48" points="297.02,131.68 304.8,110.43 329.89,110.84 322.47,130.42 "></polygon> </g> <g> <path class="st49" d="M312.83,119.83c-0.76,1.53-0.53,3.2,0.52,3.72c1.05,0.53,2.52-0.29,3.29-1.82c0.77-1.53,0.54-3.2-0.52-3.72 C315.07,117.49,313.6,118.3,312.83,119.83z"></path> </g> <g> <path class="st41" d="M286.39,61.83c0,0,1.61,2.5,0.12,4.66c-1.49,2.16,0.37,4.28,0.7,6.56c0.32,2.28-6.2,8.35,1.05,11.4 c7.25,3.05,9.56-1.99,7.71-4.77c-1.85-2.78-3.16-5.03-3.32-8.99C292.49,66.73,291.19,60.55,286.39,61.83z"></path> </g> <g> <polygon class="st14" points="233.87,31.83 264.77,31.83 264.77,54.23 264.77,58.94 260.06,54.23 233.87,54.23 "></polygon> </g> </svg> 