<?xml version="1.0" encoding="UTF-8"?> <svg xmlns="http://www.w3.org/2000/svg" xmlns:xlink="http://www.w3.org/1999/xlink" width="29pt" height="29pt" viewBox="0 0 29 29" version="1.1"><g id="surface1"><path style=" stroke:none;fill-rule:nonzero;fill:rgb(100%,25.098039%,50.588235%);fill-opacity:1;" d="M 14.542969 28.84375 C 10.03125 28.84375 5.515625 28.84375 1.003906 28.84375 C 0.839844 28.84375 0.667969 28.84375 0.519531 28.792969 C 0.261719 28.703125 0.148438 28.472656 0.125 28.203125 C 0.117188 28.136719 0.125 28.070312 0.125 27.996094 C 0.125 18.992188 0.125 9.992188 0.125 0.988281 C 0.125 0.847656 0.132812 0.691406 0.179688 0.558594 C 0.320312 0.148438 0.796875 0.0078125 1.144531 0.269531 C 1.226562 0.328125 1.300781 0.410156 1.367188 0.476562 C 8.214844 7.300781 15.074219 14.136719 21.921875 20.960938 C 24.1875 23.222656 26.449219 25.476562 28.71875 27.734375 C 28.925781 27.945312 28.96875 28.183594 28.894531 28.441406 C 28.828125 28.679688 28.589844 28.828125 28.285156 28.828125 C 27.90625 28.835938 27.527344 28.828125 27.148438 28.828125 C 22.945312 28.84375 18.746094 28.84375 14.542969 28.84375 Z M 1.414062 6.707031 C 1.480469 6.722656 1.515625 6.730469 1.5625 6.730469 C 2 6.730469 2.4375 6.722656 2.878906 6.738281 C 3.25 6.746094 3.523438 7.019531 3.523438 7.367188 C 3.523438 7.71875 3.257812 7.980469 2.878906 7.984375 C 2.46875 7.992188 2.050781 7.992188 1.636719 7.984375 C 1.464844 7.984375 1.382812 8.054688 1.382812 8.222656 C 1.382812 9.273438 1.382812 10.320312 1.382812 11.371094 C 1.382812 11.554688 1.449219 11.636719 1.660156 11.636719 C 2.328125 11.621094 2.996094 11.628906 3.671875 11.628906 C 4.097656 11.628906 4.363281 11.875 4.363281 12.253906 C 4.363281 12.648438 4.113281 12.878906 3.679688 12.878906 C 3.011719 12.878906 2.34375 12.886719 1.664062 12.878906 C 1.488281 12.878906 1.382812 12.917969 1.390625 13.117188 C 1.390625 14.171875 1.390625 15.230469 1.390625 16.292969 C 1.390625 16.484375 1.480469 16.539062 1.664062 16.539062 C 2.058594 16.53125 2.453125 16.53125 2.855469 16.539062 C 3.25 16.539062 3.53125 16.796875 3.539062 17.15625 C 3.539062 17.519531 3.257812 17.785156 2.839844 17.785156 C 2.460938 17.785156 2.082031 17.800781 1.703125 17.777344 C 1.457031 17.765625 1.390625 17.867188 1.390625 18.089844 C 1.398438 19.101562 1.398438 20.121094 1.390625 21.132812 C 1.390625 21.371094 1.480469 21.4375 1.710938 21.4375 C 2.363281 21.421875 3.019531 21.429688 3.671875 21.4375 C 3.777344 21.4375 3.882812 21.445312 3.976562 21.476562 C 4.269531 21.570312 4.410156 21.847656 4.363281 22.175781 C 4.320312 22.457031 4.050781 22.679688 3.734375 22.679688 C 3.054688 22.6875 2.371094 22.695312 1.695312 22.671875 C 1.449219 22.664062 1.382812 22.753906 1.382812 22.976562 C 1.390625 24.417969 1.382812 25.871094 1.382812 27.3125 C 1.382812 27.503906 1.441406 27.578125 1.652344 27.578125 C 2.972656 27.574219 4.296875 27.574219 5.621094 27.578125 C 5.84375 27.578125 5.898438 27.496094 5.890625 27.296875 C 5.882812 26.644531 5.882812 25.988281 5.890625 25.335938 C 5.890625 24.886719 6.128906 24.621094 6.519531 24.628906 C 6.914062 24.628906 7.136719 24.875 7.136719 25.320312 C 7.136719 25.980469 7.144531 26.644531 7.136719 27.304688 C 7.136719 27.519531 7.210938 27.585938 7.421875 27.578125 C 8.460938 27.574219 9.503906 27.574219 10.542969 27.578125 C 10.730469 27.578125 10.804688 27.527344 10.796875 27.335938 C 10.78125 26.925781 10.78125 26.507812 10.796875 26.09375 C 10.804688 25.726562 11.09375 25.453125 11.445312 25.460938 C 11.777344 25.46875 12.039062 25.734375 12.046875 26.101562 C 12.054688 26.492188 12.0625 26.886719 12.046875 27.289062 C 12.039062 27.503906 12.113281 27.585938 12.34375 27.585938 C 13.371094 27.574219 14.386719 27.578125 15.414062 27.578125 C 15.496094 27.578125 15.578125 27.574219 15.683594 27.566406 C 15.691406 27.453125 15.695312 27.363281 15.695312 27.273438 C 15.695312 26.628906 15.695312 25.988281 15.695312 25.339844 C 15.695312 24.949219 15.921875 24.671875 16.238281 24.640625 C 16.671875 24.597656 16.953125 24.835938 16.960938 25.28125 C 16.976562 25.953125 16.96875 26.621094 16.960938 27.296875 C 16.960938 27.503906 17.007812 27.601562 17.25 27.601562 C 18.285156 27.585938 19.320312 27.585938 20.34375 27.601562 C 20.558594 27.601562 20.632812 27.535156 20.628906 27.328125 C 20.621094 26.933594 20.605469 26.53125 20.632812 26.144531 C 20.648438 25.972656 20.730469 25.78125 20.851562 25.644531 C 21.015625 25.460938 21.25 25.429688 21.488281 25.542969 C 21.757812 25.660156 21.875 25.875 21.882812 26.160156 C 21.890625 26.546875 21.898438 26.933594 21.882812 27.320312 C 21.875 27.542969 21.941406 27.609375 22.175781 27.609375 C 23.585938 27.601562 24.992188 27.601562 26.40625 27.601562 C 26.488281 27.601562 26.570312 27.585938 26.730469 27.578125 C 18.285156 19.125 9.882812 10.753906 1.480469 2.371094 C 1.457031 2.386719 1.433594 2.402344 1.414062 2.410156 C 1.414062 3.84375 1.414062 5.273438 1.414062 6.707031 Z M 1.414062 6.707031 "></path><path style=" stroke:none;fill-rule:nonzero;fill:rgb(100%,25.098039%,50.588235%);fill-opacity:1;" d="M 12.6875 0 C 13.546875 0 14.226562 0.34375 14.796875 0.929688 C 16.828125 3.035156 18.859375 5.136719 20.886719 7.242188 C 23.089844 9.519531 25.289062 11.792969 27.476562 14.074219 C 27.625 14.226562 27.734375 14.441406 27.789062 14.648438 C 28.195312 16.3125 28.5625 17.988281 28.976562 19.652344 C 29.105469 20.144531 28.738281 20.648438 28.144531 20.492188 C 27.171875 20.226562 26.1875 19.972656 25.207031 19.71875 C 24.546875 19.542969 23.882812 19.355469 23.214844 19.199219 C 22.953125 19.132812 22.746094 19.007812 22.558594 18.820312 C 19.847656 16.003906 17.125 13.191406 14.410156 10.375 C 12.902344 8.804688 11.390625 7.242188 9.875 5.671875 C 8.683594 4.4375 8.699219 2.789062 9.910156 1.582031 C 10.1875 1.308594 10.460938 1.042969 10.746094 0.773438 C 11.300781 0.253906 11.957031 -0.015625 12.6875 0 Z M 26.242188 14.632812 C 26.160156 14.542969 26.101562 14.46875 26.039062 14.402344 C 25.667969 14.015625 25.296875 13.636719 24.933594 13.25 C 21.792969 9.992188 18.648438 6.746094 15.511719 3.480469 C 15.339844 3.300781 15.242188 3.316406 15.078125 3.480469 C 14.21875 4.351562 13.339844 5.207031 12.460938 6.054688 C 12.277344 6.230469 12.261719 6.328125 12.449219 6.519531 C 15.949219 10.140625 19.453125 13.769531 22.953125 17.390625 C 23.023438 17.46875 23.101562 17.527344 23.199219 17.617188 C 24.21875 16.621094 25.222656 15.636719 26.242188 14.632812 Z M 10.261719 3.652344 C 10.292969 3.816406 10.304688 3.992188 10.367188 4.148438 C 10.535156 4.632812 10.9375 4.9375 11.28125 5.28125 C 11.308594 5.308594 11.457031 5.273438 11.511719 5.226562 C 12.441406 4.328125 13.355469 3.421875 14.277344 2.519531 C 14.386719 2.417969 14.402344 2.335938 14.285156 2.222656 C 14.121094 2.066406 13.972656 1.902344 13.816406 1.746094 C 13.175781 1.101562 12.253906 1.085938 11.601562 1.710938 C 11.300781 1.992188 11.011719 2.289062 10.722656 2.582031 C 10.425781 2.871094 10.277344 3.226562 10.261719 3.652344 Z M 27.511719 19.019531 C 27.265625 17.957031 27.03125 16.953125 26.800781 15.949219 C 26.769531 15.941406 26.738281 15.933594 26.703125 15.925781 C 25.980469 16.699219 25.265625 17.472656 24.554688 18.242188 C 25.476562 18.484375 26.457031 18.738281 27.511719 19.019531 Z M 27.511719 19.019531 "></path><path style=" stroke:none;fill-rule:nonzero;fill:rgb(100%,25.098039%,50.588235%);fill-opacity:1;" d="M 7.390625 18.328125 C 7.390625 17.191406 7.398438 16.0625 7.390625 14.925781 C 7.390625 14.617188 7.480469 14.382812 7.761719 14.246094 C 8.015625 14.128906 8.296875 14.195312 8.535156 14.433594 C 10.855469 16.746094 13.175781 19.058594 15.496094 21.371094 C 15.691406 21.5625 15.773438 21.78125 15.667969 22.046875 C 15.554688 22.328125 15.339844 22.472656 15.050781 22.472656 C 12.722656 22.480469 10.386719 22.480469 8.058594 22.472656 C 7.652344 22.472656 7.390625 22.195312 7.390625 21.78125 C 7.390625 20.632812 7.390625 19.480469 7.390625 18.328125 Z M 13.429688 21.191406 C 13.40625 21.199219 13.382812 21.207031 13.363281 21.214844 C 11.800781 19.628906 10.238281 18.046875 8.65625 16.449219 C 8.648438 16.539062 8.632812 16.621094 8.632812 16.699219 C 8.632812 18.097656 8.640625 19.503906 8.625 20.902344 C 8.625 21.15625 8.707031 21.230469 8.953125 21.230469 C 10.351562 21.222656 11.757812 21.230469 13.152344 21.222656 C 13.25 21.214844 13.339844 21.199219 13.429688 21.191406 Z M 13.429688 21.191406 "></path><path style=" stroke:none;fill-rule:nonzero;fill:rgb(100%,25.098039%,50.588235%);fill-opacity:1;" d="M 15.398438 5.679688 C 15.5625 5.792969 15.757812 5.875 15.890625 6.007812 C 16.960938 7.117188 18.015625 8.238281 19.074219 9.355469 C 20.410156 10.765625 21.75 12.171875 23.082031 13.585938 C 23.191406 13.703125 23.296875 13.859375 23.332031 14.015625 C 23.402344 14.292969 23.246094 14.558594 23 14.679688 C 22.738281 14.804688 22.464844 14.746094 22.226562 14.507812 C 21.324219 13.5625 20.425781 12.609375 19.527344 11.667969 C 18.007812 10.066406 16.492188 8.476562 14.976562 6.878906 C 14.925781 6.824219 14.871094 6.765625 14.835938 6.699219 C 14.699219 6.5 14.679688 6.285156 14.796875 6.066406 C 14.917969 5.851562 15.101562 5.726562 15.398438 5.679688 Z M 15.398438 5.679688 "></path></g></svg> 