<?xml version="1.0" encoding="UTF-8"?> <!-- Generator: Adobe Illustrator 25.1.0, SVG Export Plug-In . SVG Version: 6.00 Build 0) --> <svg xmlns="http://www.w3.org/2000/svg" xmlns:xlink="http://www.w3.org/1999/xlink" version="1.1" id="Layer_1" x="0px" y="0px" viewBox="0 0 48 40" style="enable-background:new 0 0 48 40;" xml:space="preserve"> <style type="text/css"> .st0{display:none;} .st1{display:inline;} .st2{fill:#FF4081;} .st3{display:inline;fill:#FFD740;} .st4{display:inline;fill:#40C4FF;} .st5{display:inline;fill:#9B5C8F;} .st6{display:inline;fill:#5E8E3E;} .st7{fill:#F37B20;} .st8{display:inline;fill:#FF4081;} .st9{display:none;fill:#FFD740;} .st10{display:inline;fill-rule:evenodd;clip-rule:evenodd;fill:#9B5C8F;} .st11{display:inline;fill:#F37B20;} .st12{fill:#FFD740;} .st13{fill:#5E8E3E;} .st14{fill:#9B5C8F;} .st15{fill-rule:evenodd;clip-rule:evenodd;fill:#40C4FF;} </style> <g class="st0"> <g class="st1"> <path class="st2" d="M38.7,34.2H14.4c-0.3,0-0.4-0.2-0.4-0.3s-0.1-0.3,0-0.4l2.1-2.2h4.7h10.7h4.5c1,0,1.9-0.8,2-1.8l1.6-14.9 c0.1-0.6-0.1-1.1-0.5-1.5c-0.2-0.2-0.4-0.3-0.6-0.4c0-0.1,0-0.2,0-0.4c0-5.6-2.2-10-5-10s-5,4.4-5,10c0,0.1,0,0.1,0,0.2h-1.2 c0.1-1.3,0.2-2.3,0.2-2.8c0-0.6-0.2-1.2-0.6-1.8c1-0.9,2.2-3.2,2.8-4.2c0.1-0.2,0.1-0.4,0-0.5s-0.2-0.3-0.4-0.3 c-1.1-0.3-2.5,0.5-3.4,1.2c-0.4-1.9-1.7-3.7-1.8-3.8C24,0.1,23.7,0,23.4,0c-0.3,0.1-0.5,0.3-0.5,0.5l-0.6,3.6l-2-1.6 c-0.2-0.1-0.4-0.2-0.6-0.1c-0.2,0.1-0.4,0.2-0.4,0.4c-0.6,2.1,1.5,4.2,2.4,5.1c-0.5,0.6-0.7,1.2-0.7,2c0,0.4,0.1,1.4,0.3,2.6H21 l-0.3-1c-0.3-1.1-1.3-2-2.7-2l-2-7.7c-0.1-0.3-0.4-0.5-0.8-0.5l-2.7,0.6C12.6,2,12.5,2,12.4,2c-0.1,0-0.1,0.1-0.2,0.2c0,0,0,0,0,0 l0,0c0,0.1-0.1,0.2-0.1,0.2s0,0.2,0,0.2l2,7.7c-0.6,0.3-1.1,0.8-1.3,1.4L9.7,5.5C9.6,5.3,9.4,5.2,9.1,5.2H3.7 c-0.4,0-0.7,0.3-0.7,0.6s0.3,0.6,0.7,0.6h5l3.5,6.9l2.6,17.5c0,0,0,0,0,0.1l-1.8,1.8c-0.4,0.5-0.5,1.2-0.2,1.8s0.9,1,1.6,1h1 c-0.3,0.5-0.5,1-0.5,1.7c0,1.6,1.4,2.9,3,2.9s3-1.3,3-2.9c0-0.6-0.2-1.2-0.5-1.7h10.9c-0.3,0.5-0.5,1-0.5,1.7c0,1.6,1.3,2.9,3,2.9 s3-1.3,3-2.9c0-0.6-0.2-1.2-0.5-1.7h2.5c0.4,0,0.7-0.3,0.7-0.6C39.3,34.5,39,34.2,38.7,34.2z M31,30.1h-9.5l-0.3-4.4h10L31,30.1z M31.2,24.4H21.1l-0.4-5h10.8L31.2,24.4z M36.8,29.4c0,0.4-0.4,0.6-0.7,0.6h-3.8l0.2-4.4h4.8L36.8,29.4z M37.4,24.4h-4.8l0.3-5 h5.1L37.4,24.4z M38.3,14c0.1,0.1,0.2,0.4,0.2,0.6l-0.4,3.6h-5.2l0.2-4.4h4.6C37.9,13.7,38.1,13.8,38.3,14z M33.6,3.6 c1.8,0,3.8,3.6,3.8,8.8c0,0.1,0,0.1,0,0.2h-4.8h-2.7c0-0.1,0-0.1,0-0.2C29.8,7.2,31.8,3.6,33.6,3.6z M20.6,4.4l1.8,1.4 C22.5,6,22.8,6,23,5.9c0.2-0.1,0.4-0.3,0.4-0.5l0.5-3c0.5,0.9,0.9,2,0.7,2.9c0,0.3,0.1,0.5,0.4,0.7c0.2,0.1,0.5,0.1,0.8-0.1 c0.6-0.6,1.5-1.2,2.2-1.6c-0.8,1.4-1.6,2.5-2,2.8c-0.5-0.3-1.1-0.5-1.8-0.5c-0.5,0-1.1,0.2-1.5,0.4C22.1,6.6,21,5.5,20.6,4.4z M26,12.5h-3.3c-0.2-1.1-0.3-2.1-0.4-2.6c0-1,0.8-1.9,1.9-1.9c0,0,0,0,0,0c1.1,0,1.9,0.8,2,1.8C26.2,10.3,26.1,11.3,26,12.5z M31.8,13.7l-0.2,4.4h-11l-0.3-4.4H31.8z M20.2,30.1H16l-0.7-4.4h4.5L20.2,30.1z M15,2.7l0.6,2.1l-1.4,0.3L13.6,3L15,2.7z M15.1,11.4c0.4-0.1,0.6-0.4,0.5-0.8l-1.1-4.3L15.9,6l1.1,4.3c0.1,0.3,0.4,0.5,0.8,0.4c0.8-0.2,1.5,0.3,1.8,1l0,0l0.2,0.7l-0.1,0 h-0.1h-5.5C14.2,12,14.6,11.5,15.1,11.4z M13.6,13.7H19l0.3,4.4h-5.1C14.2,17.9,13.6,13.4,13.6,13.7z M14.4,19.4h5l0.4,5.1h-4.6 L14.4,19.4z M17.9,38.8c-0.9,0-1.7-0.7-1.7-1.7s0.8-1.7,1.7-1.7c0.9,0,1.7,0.7,1.7,1.7S18.8,38.8,17.9,38.8z M33.7,38.8 c-0.9,0-1.7-0.7-1.7-1.7s0.8-1.7,1.7-1.7s1.7,0.7,1.7,1.7S34.6,38.8,33.7,38.8z"></path> <path class="st2" d="M32.5,8.3h2.2c0.4,0,0.7-0.3,0.7-0.6c0-0.3-0.3-0.6-0.7-0.6h-2.2c-0.4,0-0.6,0.3-0.6,0.6 C31.8,8,32.1,8.3,32.5,8.3z"></path> <path class="st2" d="M32.5,11.8h2.2c0.4,0,0.7-0.3,0.7-0.6s-0.3-0.6-0.7-0.6h-2.2c-0.4,0-0.6,0.3-0.6,0.6S32.1,11.8,32.5,11.8z"></path> </g> </g> <g class="st0"> <rect x="38.3" y="33.3" class="st3" width="1.3" height="1.3"></rect> <rect x="29" y="33.3" class="st3" width="1.3" height="1.3"></rect> <path class="st3" d="M44.8,28.2l-6-5.3c-0.1-0.1-0.3-0.2-0.4-0.2h-2v-2c0-0.4-0.3-0.7-0.7-0.7h-5.3v-6.6l0.7,0 c1.2,0.9,2.5,1.3,4,1.3c3.7,0,6.7-3,6.7-6.6s-3-6.7-6.7-6.7c-1.8,0-3.5,0.7-4.7,1.9C30.3,1.5,28.8,0,27,0H8.3C6.5,0,5,1.5,5,3.3 v33.3C5,38.5,6.5,40,8.3,40H27c1.6,0,3-1.2,3.3-2.7c1.3-0.2,2.4-1.3,2.7-2.6h2.8c0.3,1.5,1.7,2.7,3.3,2.7l0,0c1.6,0,3-1.1,3.3-2.7 H43c1.1,0,2-0.9,2-2v-4C45,28.5,44.9,28.3,44.8,28.2z M39,26h1.3l2.2,2H39L39,26z M35,28H25v-6.7h10V28z M36.4,2.8 c2.8,0.8,4.5,3.7,3.8,6.5c-0.8,2.8-3.7,4.5-6.5,3.8c-0.7-0.2-1.4-0.5-2-1C31.5,12,31.4,12,31.2,12c0,0,0,0,0,0l-2.4,0.1l1.1-1.7 C30,10.2,30,10,30,9.8C29,7,30.4,4,33.2,3C34.2,2.6,35.3,2.6,36.4,2.8z M13,1.3h9.3v1.3H13V1.3z M27,38.7H8.3c-1.1,0-2-0.9-2-2V3.3 c0-1.1,0.9-2,2-2h3.3v1.3C11.7,3.4,12.3,4,13,4h9.3c0.7,0,1.3-0.6,1.3-1.3V1.3H27c1.1,0,2,0.9,2,2v1.8c-0.7,1.5-0.9,3.2-0.4,4.8 l-1.7,2.6c-0.1,0.2-0.1,0.5,0,0.7c0.1,0.2,0.4,0.4,0.6,0.3l1.5-0.1V20h-4.7c-0.4,0-0.7,0.3-0.7,0.7v12c0,1.1,0.9,2,2,2h0.7 c0.3,1.3,1.2,2.3,2.5,2.6C28.6,38.1,27.9,38.7,27,38.7z M31.6,34c0,1.1-0.9,2-2,2s-2-0.9-2-2l0,0c0-1.1,0.9-2,2-2 C30.8,32,31.6,32.9,31.6,34L31.6,34z M40.4,35.4C40,35.8,39.5,36,39,36l0,0c-1.1,0-2-0.9-2-2s0.9-2,2-2l0,0c1.1,0,2,0.9,2,2 C41,34.5,40.8,35,40.4,35.4L40.4,35.4z M43,33.3h-0.7c-0.3-1.5-1.7-2.7-3.3-2.7l0,0c-1.6,0-3,1.1-3.3,2.7h-2.8 c-0.3-1.6-1.7-2.7-3.3-2.7c-1.6,0-3,1.1-3.3,2.7h-0.7c-0.4,0-0.7-0.3-0.7-0.7v-3.3h10.7c0.4,0,0.7-0.3,0.7-0.7V24h1.8l0.8,0.7 c-0.7,0.1-1.2,0.6-1.2,1.3v2c0,0.7,0.6,1.3,1.3,1.3h4.7v3.3C43.7,33,43.3,33.3,43,33.3z"></path> <rect x="17" y="33.3" class="st3" width="5.3" height="1.3"></rect> <rect x="14.3" y="33.3" class="st3" width="1.3" height="1.3"></rect> <rect x="18.3" y="30.7" class="st3" width="4" height="1.3"></rect> <rect x="19.7" y="28" class="st3" width="2.7" height="1.3"></rect> <rect x="15.7" y="30.7" class="st3" width="1.3" height="1.3"></rect> <path class="st3" d="M24.3,16v-2c0-0.4-0.3-0.7-0.7-0.7H23V12h0.7c0.4,0,0.7-0.3,0.7-0.7V10c0-1.8-1.5-3.3-3.3-3.3h-6.7 C12.5,6.7,11,8.2,11,10v1.3c0,0.4,0.3,0.7,0.7,0.7h0.7v1.3h-0.7c-0.4,0-0.7,0.3-0.7,0.7v2c0,0.7,0.6,1.3,1.3,1.3H23 C23.7,17.3,24.3,16.7,24.3,16z M12.3,10c0-1.1,0.9-2,2-2v1.3h1.3V8H17v1.3h1.3V8h1.3v1.3H21V8c1.1,0,2,0.9,2,2v0.7H12.3V10z M13.7,12h8v1.3h-8V12z M23,16H12.3v-1.3H23V16z"></path> <rect x="34.3" y="6" class="st3" width="4" height="1.3"></rect> <rect x="31.6" y="8.7" class="st3" width="6.7" height="1.3"></rect> <rect x="31.6" y="6" class="st3" width="1.3" height="1.3"></rect> </g> <g class="st0"> <path class="st4" d="M26.2,9.9V9.2h-1.3v0.7c-1.3,0.3-2.3,1.3-2.6,2.6h-0.7v1.3h7.9v-1.3h-0.7C28.5,11.2,27.5,10.2,26.2,9.9z M25.6,11.1c0.8,0,1.6,0.5,1.9,1.3h-3.7C24,11.7,24.7,11.1,25.6,11.1z"></path> <path class="st4" d="M9.8,40h14.4c0.4,0,0.7-0.3,0.7-0.7v-1.5c2.1-0.8,3.6-2.8,3.9-5.1h4c1.5,0,2.6-1.2,2.6-2.6v-6.6 c1.6-0.2,2.8-1.6,2.6-3.2c-0.1-0.8-0.5-1.5-1.1-2c1.3-1,1.5-2.8,0.5-4.1c-0.5-0.6-1.2-1-2-1.1V2.6c0-1.4-1.2-2.6-2.6-2.6H18.4 c-1.5,0-2.6,1.2-2.6,2.6v3.3c-0.1,0-0.2,0-0.3,0c-1.6,0-2.9,1.3-2.9,2.9L9.2,27.4c0,0,0,0.1,0,0.1v11.8C9.2,39.7,9.5,40,9.8,40z M35.4,22.3V19c0.9,0.2,1.5,1,1.3,1.9C36.5,21.6,36,22.1,35.4,22.3z M36.7,16.1c0,0.8-0.5,1.5-1.3,1.6v-3.2 C36.2,14.6,36.7,15.3,36.7,16.1z M18.4,1.3h14.4c0.7,0,1.3,0.6,1.3,1.3v27.5c0,0.7-0.6,1.3-1.3,1.3H20.1l1.1-2h10.9 c0.4,0,0.7-0.3,0.7-0.7V3.3c0-0.4-0.3-0.7-0.7-0.7H19c-0.4,0-0.7,0.3-0.7,0.7v18.4L17,23.1V2.6C17,1.9,17.6,1.3,18.4,1.3z M25.4,22.3c0,0,0-0.1,0-0.1c0.1-0.3,0.1-0.6,0.1-0.9c0-0.6-0.2-1.1-0.5-1.6h3.1c0.4,0,0.7,0.3,0.7,0.7v2c0,0.4-0.3,0.7-0.7,0.7H25 L25.4,22.3z M24.2,24.3h3.9c1.1,0,2-0.9,2-2v-2c0-1.1-0.9-2-2-2h-5.6c-1,0-1.9,0.5-2.4,1.3l-0.5,0.6V3.9h11.8v24.3H22L24.2,24.3z M10.5,27.6L13.8,9c0,0,0-0.1,0-0.1c0-0.9,0.7-1.6,1.6-1.6c0.1,0,0.2,0,0.3,0v17.3l-0.5,0.5l1,0.9l5-5.5c0,0,0,0,0.1-0.1 c0.3-0.5,0.8-0.7,1.4-0.7c0.9,0,1.6,0.7,1.6,1.6c0,0.1,0,0.3,0,0.4l-5.8,10.1c-0.1,0.1-0.1,0.2-0.1,0.3c0,1.4-0.7,2.8-1.8,3.7 L16,36.2l0.8,1l0.5-0.4c1.3-1,2.1-2.5,2.3-4.1h7.9c-0.2,1.8-1.5,3.3-3.2,3.9L24,36.8c-0.3,0.1-0.5,0.3-0.5,0.6v1.3H10.5V27.6z"></path> <rect x="21" y="21.6" transform="matrix(0.6024 -0.7982 0.7982 0.6024 -9.493 26.2863)" class="st4" width="1.3" height="2.2"></rect> </g> <g class="st0"> <path class="st5" d="M23,33.6h-5.2c-0.7,0-1.3,0.6-1.3,1.3v1.3c0,0.7,0.6,1.3,1.3,1.3H23c0.7,0,1.3-0.6,1.3-1.3v-1.3 C24.3,34.2,23.7,33.6,23,33.6z M17.9,36.2v-1.3H23v1.3H17.9z"></path> <path class="st5" d="M25,15.5h-1.3v-3.9h-1.3v3.9c0,0.7,0.6,1.3,1.3,1.3v4.5c-0.7,0-1.3,0.6-1.3,1.3v2.6c0,0.7,0.6,1.3,1.3,1.3H25 c0.7,0,1.3-0.6,1.3-1.3v-2.6c0-0.7-0.6-1.3-1.3-1.3v-4.5c0.7,0,1.3-0.6,1.3-1.3v-3.9H25V15.5z M25,25.2h-1.3v-2.6H25V25.2z"></path> <path class="st5" d="M31.4,14.2c0-1.4-0.9-2.6-1.9-2.6s-1.9,1.1-1.9,2.6c-0.1,1,0.4,1.9,1.3,2.4v4.7c-0.7,0-1.3,0.6-1.3,1.3v2.6 c0,0.7,0.6,1.3,1.3,1.3h1.3c0.7,0,1.3-0.6,1.3-1.3v-2.6c0-0.7-0.6-1.3-1.3-1.3v-4.7C31,16.1,31.5,15.2,31.4,14.2z M30.1,25.2h-1.3 v-2.6h1.3C30.1,22.6,30.1,25.2,30.1,25.2z M29.5,12.9c0.3,0,0.6,0.5,0.6,1.3s-0.4,1.3-0.6,1.3s-0.6-0.5-0.6-1.3 S29.2,12.9,29.5,12.9z"></path> <path class="st5" d="M37.9,18.7c0-4.3-2.5-8.2-6.5-10V2.6c0-1.4-1.2-2.6-2.6-2.6H12.1c-1.4,0-2.6,1.2-2.6,2.6v34.9 c0,1.4,1.2,2.6,2.6,2.6h16.8c1.4,0,2.6-1.2,2.6-2.6v-8.7C35.3,26.9,37.9,23,37.9,18.7z M25.3,1.3L24,2.6h-7.2l-1.3-1.3H25.3z M12.1,1.3h1.7l2.4,2.4c0.1,0.1,0.3,0.2,0.5,0.2h7.8c0.2,0,0.3-0.1,0.5-0.2l2.4-2.4h1.7c0.7,0,1.3,0.6,1.3,1.3v2.6H10.8V2.6 C10.8,1.9,11.3,1.3,12.1,1.3z M28.8,38.7H12.1c-0.7,0-1.3-0.6-1.3-1.3v-5.2h19.4v5.2C30.1,38.2,29.5,38.7,28.8,38.7z M30.1,31H10.8 V6.5h19.4v1.8c-5.8-1.8-11.9,1.5-13.7,7.2s1.5,11.9,7.3,13.7c2.1,0.6,4.4,0.6,6.5,0C30.1,29.2,30.1,31,30.1,31z M26.9,28.4 c-5.4,0-9.7-4.3-9.7-9.7S21.6,9,26.9,9s9.7,4.3,9.7,9.7C36.6,24.1,32.2,28.4,26.9,28.4z"></path> </g> <g class="st0"> <path class="st6" d="M43.7,0.2H4.7c-0.5,0-1,0.4-1,1v7v0.1V12c0,1.2,0.8,2.2,1.9,2.6v24.3c0,0.5,0.4,1,1,1H12h10.6h19.2 c0.5,0,1-0.4,1-1V14.7c1.1-0.5,1.9-1.5,1.9-2.6V8.2V1.1C44.7,0.6,44.3,0.2,43.7,0.2z M5.6,2.1h37.1v6.1v3.8c0,0.5-0.7,1-1.5,1 c-0.8,0-1.5-0.5-1.5-1V8.2c0-0.5-0.4-1-1-1c-0.5,0-1,0.4-1,1v3.8c0,0.5-0.7,1-1.5,1c-0.8,0-1.5-0.5-1.5-1V8.2c0-0.5-0.4-1-1-1 c-0.5,0-1,0.4-1,1v3.8c0,0.5-0.7,1-1.5,1s-1.5-0.5-1.5-1V8.2c0-0.5-0.4-1-1-1s-1,0.4-1,1v3.8c0,0.5-0.7,1-1.5,1 c-0.8,0-1.5-0.5-1.5-1v-0.1V8.2V8.1c0-0.5-0.4-1-1-1c-0.5,0-1,0.4-1,1v0.1V12c0,0.5-0.7,1-1.5,1s-1.5-0.5-1.5-1V8.1 c0-0.5-0.4-1-1-1s-1,0.4-1,1v3.8c0,0.5-0.7,1-1.5,1s-1.5-0.5-1.5-1V8.1c0-0.5-0.4-1-1-1c-0.5,0-1,0.4-1,1v3.8c0,0.5-0.7,1-1.5,1 s-1.5-0.5-1.5-1V8.1c0-0.5-0.4-1-1-1s-1,0.4-1,1v3.8c0,0.5-0.7,1-1.5,1s-1.5-0.5-1.5-1V8.2V8.1V2.1L5.6,2.1z M12.9,37.9V22.7h8.7 v15.2H12.9L12.9,37.9z M23.6,37.9V21.8c0-0.5-0.4-1-1-1H12c-0.5,0-1,0.4-1,1v16.2H7.6V14.8c0.8-0.1,1.5-0.4,2-0.9 c0.6,0.6,1.5,0.9,2.4,0.9s1.8-0.3,2.4-0.9c0.6,0.6,1.5,0.9,2.4,0.9s1.8-0.3,2.4-0.9c0.6,0.6,1.5,0.9,2.4,0.9c0.9,0,1.8-0.3,2.4-0.8 c0.6,0.6,1.5,1,2.5,1c1,0,1.8-0.3,2.4-0.9c0.6,0.5,1.5,0.9,2.5,0.9c1,0,1.8-0.3,2.4-0.9c0.6,0.6,1.5,0.9,2.4,0.9s1.8-0.3,2.4-0.9 c0.5,0.5,1.2,0.8,2,0.9v22.9H23.6z"></path> <path class="st6" d="M37,17.2h-8.9c-0.5,0-1,0.4-1,1V27c0,0.5,0.4,1,1,1H37c0.5,0,1-0.4,1-1v-8.9C37.9,17.6,37.5,17.2,37,17.2z M29.1,19.1h2.5V26h-2.5V19.1z M36,26h-2.5v-6.9H36V26z"></path> </g> <g class="st0"> <g class="st1"> <path class="st7" d="M39.3,33.6c0.4,0,0.7-0.5,0.6-0.9c-0.8-1.6-2.5-2.6-4.3-2.6c-2,0-3.6,1-4.3,2.7H15.2 c-0.8-1.6-2.5-2.7-4.3-2.7s-3.4,1-4.3,2.6c-0.2,0.4,0.1,0.9,0.6,0.9h3l0.8,1.3l-0.8,1.3H7.3c-0.4,0-0.7,0.5-0.6,0.9 c0.8,1.6,2.5,2.6,4.3,2.6c1.9,0,3.5-1,4.3-2.7h16c0.7,1.5,2.1,2.7,4.3,2.7c1.8,0,3.4-1,4.3-2.6c0.2-0.4-0.1-0.9-0.6-0.9h-3 L35.6,35l0.8-1.3L39.3,33.6L39.3,33.6L39.3,33.6z M10.9,38.5c-0.9,0-1.9-0.4-2.5-1h2c0.2,0,0.4-0.1,0.5-0.3l1.2-1.9 c0.1-0.2,0.1-0.4,0-0.7L11,32.7c-0.1-0.2-0.3-0.3-0.5-0.3h-2c0.7-0.6,1.5-1,2.5-1C15.6,31.4,15.5,38.5,10.9,38.5z M15.6,35.8 c0.1-0.6,0.1-1.2,0-1.7h15.2c-0.1,0.6-0.1,1.1,0,1.7L15.6,35.8z M35.5,32.7l-1.2,1.9c-0.1,0.2-0.1,0.4,0,0.7l1.2,1.9 c0.1,0.2,0.3,0.3,0.5,0.3h2.1c-0.6,0.6-1.5,1-2.5,1c-4.8,0-4.6-7.1,0-7.1c0.9,0,1.8,0.4,2.5,1H36C35.8,32.4,35.6,32.5,35.5,32.7z"></path> </g> <g class="st1"> <path class="st7" d="M38.2,11.1c-0.6-3.4-3.7-5.7-6.5-5.6c-2.8-7.2-13.2-7.1-15.8,0.2C12,5,8.4,7.6,7.9,11.3 c-2.5,0.9-4.1,3.1-4.1,5.8c0,3.4,2.8,6.1,6.1,6.1h1.7c0.4,0,0.6-0.2,0.6-0.6S12,22,11.6,22H9.9C7.2,22,5,19.7,5,17.1 c0-2.2,1.4-4.1,3.6-4.8C8.8,12.3,9,12,9,11.8c0.2-3.3,3.5-5.8,7.1-4.7c0.3,0.1,0.7-0.1,0.7-0.4c1.9-6.8,11.6-7,13.8-0.2 c0.1,0.3,0.4,0.4,0.7,0.4c2.4-0.4,5.4,1.7,5.8,4.9c0,0.2,0.2,0.5,0.5,0.6c2.3,0.4,4,2.5,4,4.8c0,2.7-2.2,4.9-4.9,4.9h-1.7 c-0.4,0-0.6,0.2-0.6,0.6s0.2,0.6,0.6,0.6h1.7c3.4,0,6.1-2.7,6.1-6.1C42.8,14.3,40.9,11.9,38.2,11.1z"></path> </g> <g class="st1"> <path class="st7" d="M18.4,7.8c0.3,0.1,0.7-0.1,0.7-0.4c1.2-4.4,7.7-4.6,9.1-0.1c0.1,0.3,0.4,0.5,0.8,0.4c0.3-0.1,0.5-0.4,0.4-0.8 C27.6,1.1,19.5,1.3,17.9,7C17.9,7.3,18.1,7.6,18.4,7.8z"></path> </g> <g class="st1"> <path class="st7" d="M13.4,18.5c-0.4,0-0.6,0.2-0.6,0.6v3.6c0,0.4,0.2,0.6,0.6,0.6h1.7c0.2,0.6,0.4,1,0.6,1.5l-1.2,1.2 c-0.2,0.2-0.2,0.6,0,0.9l2.6,2.6c0.1,0.1,0.2,0.2,0.4,0.2l0,0c0.2,0,0.3-0.1,0.4-0.2l1.2-1.2c0.5,0.2,1,0.5,1.5,0.6v1.7 c0,0.4,0.2,0.6,0.6,0.6h3.7c0.4,0,0.6-0.2,0.6-0.6v-1.7c0.6-0.2,1-0.4,1.5-0.6l1.2,1.2c0.1,0.1,0.2,0.2,0.4,0.2s0.3-0.1,0.4-0.2 l2.6-2.6c0.1-0.1,0.2-0.2,0.2-0.4s-0.1-0.3-0.2-0.4L30.7,25c0.2-0.5,0.5-1,0.6-1.5h1.7c0.4,0,0.6-0.2,0.6-0.6v-3.6 c0-0.4-0.2-0.6-0.6-0.6h-1.7c-0.2-0.6-0.4-1-0.6-1.5l1.2-1.2c0.1-0.1,0.2-0.2,0.2-0.4s-0.1-0.3-0.2-0.4l-2.6-2.6 c-0.2-0.2-0.6-0.2-0.9,0l-1.2,1.2c-0.5-0.2-1-0.5-1.5-0.6v-1.7c0-0.4-0.2-0.6-0.6-0.6h-3.7c-0.4,0-0.6,0.2-0.6,0.6V13 c-0.6,0.2-1,0.4-1.5,0.6L18,12.4c-0.2-0.2-0.6-0.2-0.9,0L14.5,15c-0.2,0.2-0.2,0.6,0,0.9l1.2,1.2c-0.2,0.5-0.5,1-0.6,1.5h-1.7 L13.4,18.5L13.4,18.5z M16.2,19.2c0.2-0.7,0.4-1.4,0.9-2.1c0.1-0.2,0.1-0.6-0.1-0.7l-1.1-1.1l1.7-1.7l1.1,1.1 c0.2,0.2,0.5,0.2,0.7,0.1c0.7-0.4,1.4-0.7,2.1-0.9c0.3-0.1,0.5-0.3,0.5-0.6v-1.5h2.4v1.5c0,0.3,0.2,0.6,0.5,0.6 c0.7,0.2,1.4,0.4,2.1,0.9c0.2,0.1,0.6,0.1,0.7-0.1l1.1-1.1l1.7,1.7l-1.1,1.1c-0.2,0.2-0.2,0.5-0.1,0.7c0.4,0.7,0.7,1.4,0.9,2.1 c0.1,0.3,0.3,0.5,0.6,0.5h1.5v2.4H31c-0.3,0-0.6,0.2-0.6,0.5c-0.2,0.7-0.5,1.4-0.9,2.1c-0.1,0.2-0.1,0.6,0.1,0.7l1.1,1.1l-1.7,1.7 l-1.1-1.1c-0.2-0.2-0.5-0.2-0.7-0.1c-0.6,0.4-1.4,0.7-2.1,0.9c-0.3,0.1-0.5,0.3-0.5,0.6v1.5H22v-1.5c0-0.3-0.2-0.6-0.5-0.6 c-0.7-0.2-1.4-0.4-2.1-0.9c-0.2-0.1-0.6-0.1-0.7,0.1l-1.1,1.1l-1.7-1.7l1.1-1.1c0.2-0.2,0.2-0.5,0.1-0.7c-0.4-0.7-0.7-1.4-0.9-2.1 c-0.1-0.3-0.3-0.5-0.6-0.5H14v-2.4h1.5C15.9,19.7,16.1,19.5,16.2,19.2z"></path> </g> <g class="st1"> <path class="st7" d="M23.2,25.9c2.7,0,4.9-2.2,4.9-4.9S26,16,23.2,16s-4.9,2.2-4.9,4.9S20.5,25.9,23.2,25.9z M23.2,17.2 c2,0,3.7,1.7,3.7,3.7s-1.7,3.7-3.7,3.7s-3.7-1.7-3.7-3.7S21.2,17.2,23.2,17.2z"></path> </g> </g> <g class="st0"> <path class="st8" d="M12.4,40h21.9c1.3,0,2.4-1.1,2.4-2.4c0-8.2,0-28,0-34.9c0-1.3-1.1-2.4-2.4-2.4H12.4c-1.3,0-2.4,1.1-2.4,2.4 v34.9C10.1,38.9,11.1,40,12.4,40z M11.7,2.6c0-0.4,0.3-0.8,0.8-0.8h21.9c0.4,0,0.8,0.3,0.8,0.8v3.1H11.7V2.6z M11.7,7.4h23.4V32 H11.7V7.4z M11.7,33.7h23.4v3.9c0,0.4-0.3,0.8-0.8,0.8H12.4c-0.4,0-0.8-0.3-0.8-0.8C11.7,37.5,11.7,33.7,11.7,33.7z"></path> <path class="st8" d="M23.4,15.9c-2.1,0-3.9,1.7-3.9,3.9s1.7,3.9,3.9,3.9s3.9-1.7,3.9-3.9S25.5,15.9,23.4,15.9z M23.4,21.9 c-1.2,0-2.2-1-2.2-2.2c0-1.2,1-2.2,2.2-2.2c1.2,0,2.2,1,2.2,2.2C25.6,20.9,24.6,21.9,23.4,21.9z"></path> <path class="st8" d="M32,17.5L29.9,17c0-0.1,0-0.1-0.1-0.2l1.1-1.8c0.2-0.3,0.2-0.8-0.1-1l-1.9-1.9c-0.2-0.2-0.7-0.3-1-0.1 l-1.8,1.1c-0.1,0-0.1,0-0.2-0.1L25.5,11c-0.1-0.4-0.4-0.7-0.8-0.7H22c-0.4,0-0.8,0.2-0.8,0.7l-0.5,2.1c-0.1,0-0.1,0-0.2,0.1 l-1.7-1.1c-0.3-0.2-0.8-0.2-1,0.1L15.9,14c-0.2,0.2-0.3,0.7-0.1,1l1.1,1.8c0,0.1-0.1,0.1-0.1,0.2l-2,0.6c-0.4,0.1-0.7,0.4-0.7,0.8 v2.7c0,0.4,0.2,0.8,0.7,0.8l2.1,0.5c0,0.1,0.1,0.1,0.1,0.2l-1.1,1.8c-0.2,0.3-0.2,0.8,0.1,1l1.9,1.9c0.2,0.2,0.7,0.3,1,0.1l1.8-1.1 c0.1,0,0.1,0,0.2,0.1l0.5,2.1c0.1,0.4,0.4,0.7,0.8,0.7h2.6c0.4,0,0.8-0.2,0.8-0.7l0.5-2.1c0.1,0,0.1,0,0.2-0.1l1.7,1.1 c0.3,0.2,0.8,0.2,1-0.1l1.9-1.9c0.2-0.2,0.3-0.7,0.1-1l-1.1-1.8c0-0.1,0.1-0.1,0.1-0.2l2.1-0.5c0.4-0.1,0.7-0.4,0.7-0.8v-2.7 C32.7,17.9,32.3,17.6,32,17.5z M31,20.3l-1.8,0.4c-0.2,0.1-0.5,0.2-0.6,0.6c-0.1,0.2-0.2,0.5-0.3,0.8c0,0.1-0.1,0.2-0.1,0.2v0.1 l0,0l0,0l0,0l0,0l0,0c0,0.2,0,0.2,0.1,0.4c0,0,0,0,0,0.1l1,1.7l-1,1l-1.6-1c-0.2-0.2-0.6-0.2-0.8,0s-0.5,0.2-0.8,0.3 s-0.5,0.3-0.6,0.6l-0.4,1.9h-1.4l-0.4-1.8c-0.1-0.2-0.2-0.5-0.6-0.6c-0.2-0.1-0.6-0.2-0.8-0.3c-0.2-0.2-0.6-0.1-0.8,0l-1.7,1 l-0.9-1l1-1.7c0.2-0.2,0.2-0.6,0-0.8s-0.2-0.5-0.3-0.8c0-0.1,0-0.1-0.1-0.2c-0.1-0.2-0.3-0.4-0.6-0.4l-1.8-0.4V19l1.8-0.4 c0.2-0.1,0.5-0.2,0.6-0.6c0.1-0.2,0.2-0.5,0.3-0.8c0.2-0.2,0.1-0.6,0-0.8l-1-1.7l1-1l1.6,1c0.2,0.2,0.6,0.2,0.8,0s0.5-0.2,0.8-0.3 s0.5-0.3,0.6-0.6l0.4-1.9H24l0.4,1.8c0.1,0.2,0.2,0.5,0.6,0.6c0.2,0.1,0.5,0.2,0.8,0.3c0.2,0.2,0.6,0.1,0.8,0l1.7-1l1,1l-1,1.7 c-0.2,0.2-0.2,0.6,0,0.8s0.2,0.5,0.3,0.8s0.3,0.5,0.6,0.6l1.8,0.4V20.3z"></path> <path class="st8" d="M21.6,36.9h3.5c0.5,0,0.8-0.3,0.8-0.8s-0.3-0.8-0.8-0.8h-3.5c-0.5,0-0.8,0.3-0.8,0.8 C20.8,36.6,21.2,36.9,21.6,36.9z"></path> </g> <path class="st9" d="M32,0H14.2c-2,0-3.6,1.6-3.6,3.6v32.9c0,2,1.6,3.6,3.6,3.6H32c2,0,3.6-1.6,3.6-3.6V3.6C35.6,1.6,34,0,32,0z M12.4,6.2h21.3v24.9H12.4V6.2z M14.2,1.8H32c1,0,1.8,0.8,1.8,1.8v0.9H12.4V3.6C12.4,2.6,13.2,1.8,14.2,1.8z M32,38.2H14.2 c-1,0-1.8-0.8-1.8-1.8v-3.6h21.3v3.6C33.8,37.4,33,38.2,32,38.2z M24,35.4c0,0,0,0.1,0,0.2c0,0.2-0.1,0.4-0.3,0.6s-0.4,0.3-0.6,0.3 c-0.1,0-0.2,0-0.4-0.1c-0.1,0-0.2-0.1-0.3-0.2c-0.1-0.1-0.1-0.2-0.2-0.3c-0.1-0.1-0.1-0.2-0.1-0.4c0,0,0-0.1,0-0.2s0-0.1,0-0.2 c0,0,0-0.1,0.1-0.1c0,0,0-0.1,0.1-0.1s0.1-0.1,0.1-0.1c0,0,0.1,0,0.1-0.1c0,0,0.1,0,0.2,0c0.3,0,0.6,0,0.8,0.2c0,0,0.1,0.1,0.1,0.1 c0,0,0,0.1,0.1,0.1C23.9,35.2,24,35.3,24,35.4z M26.2,20.9c0,1.4-0.9,2.6-2.2,3v1c0,0.5-0.4,0.9-0.9,0.9s-0.9-0.4-0.9-0.9v-1 c-1.3-0.4-2.2-1.6-2.2-3c0-0.5,0.4-0.9,0.9-0.9s0.9,0.4,0.9,0.9c0,0.8,0.6,1.3,1.3,1.3c0.8,0,1.3-0.6,1.3-1.3s-0.6-1.3-1.3-1.3 c-1.7,0-3.1-1.4-3.1-3.1c0-1.4,0.9-2.6,2.2-3v-1c0-0.5,0.4-0.9,0.9-0.9S24,12,24,12.4v1c1.3,0.4,2.2,1.6,2.2,3 c0,0.5-0.4,0.9-0.9,0.9s-0.9-0.4-0.9-0.9c0-0.8-0.6-1.3-1.3-1.3c-0.8,0-1.3,0.6-1.3,1.3s0.6,1.3,1.3,1.3 C24.9,17.8,26.2,19.2,26.2,20.9z"></path> <g class="st0"> <path class="st4" d="M34.5,34.3c-0.2,0-0.4-0.1-0.5-0.2l-2.1-2.1c-0.3-0.3-0.3-0.7,0-1c0.3-0.3,0.7-0.3,1,0l0,0l1.6,1.6l3.8-3.8 c0.3-0.3,0.7-0.3,1,0s0.3,0.7,0,1L35,34.1C34.8,34.2,34.7,34.3,34.5,34.3z"></path> <path class="st4" d="M30.2,40h-20c-2,0-3.6-1.6-3.6-3.6V15.7c0-0.4,0.3-0.7,0.7-0.7S8,15.3,8,15.7v20.7c0,1.2,1,2.1,2.1,2.1l0,0h20 h0.2c-3.9-2.6-5-7.9-2.4-11.9c0.5-0.7,1-1.3,1.7-1.9c0.8-0.6,1.7-1.1,2.6-1.5V8.6c0-0.4,0.3-0.7,0.7-0.7s0.7,0.3,0.7,0.7v15.3 c0,0.3-0.2,0.6-0.5,0.7c-3.8,1.1-6,5.1-4.9,8.9c0.6,2,2,3.7,4,4.5c0.4,0.2,0.5,0.6,0.4,0.9c0,0.1-0.1,0.2-0.2,0.3 C31.8,39.7,31,40,30.2,40z"></path> <path class="st4" d="M7.3,10c-0.4,0-0.7-0.3-0.7-0.7V3.6c0-2,1.6-3.6,3.6-3.6h20c2,0,3.6,1.6,3.6,3.6v2.1c0,0.4-0.3,0.7-0.7,0.7 s-0.7-0.3-0.7-0.7V3.6c0-1.2-1-2.1-2.1-2.1h-20c-1.2,0-2.1,1-2.1,2.1v5.7C8,9.7,7.7,10,7.3,10z"></path> <path class="st4" d="M7.3,13.6c-0.4,0-0.7-0.3-0.7-0.7v-0.7c0-0.4,0.3-0.7,0.7-0.7S8,11.8,8,12.1v0.7C8,13.2,7.7,13.6,7.3,13.6z"></path> <path class="st4" d="M28.2,35.7H17.3c-0.4,0-0.7-0.3-0.7-0.7s0.3-0.7,0.7-0.7h9.8c-1.2-3.3-0.2-7,2.4-9.3V5h-4 c-0.5,0-0.9,0.2-1.2,0.5c-0.6,0.6-1.4,0.9-2.2,0.9h-3.7c-0.8,0-1.6-0.3-2.2-0.9C15.8,5.2,15.3,5,14.9,5h-4v29.3h3.6 c0.4,0,0.7,0.3,0.7,0.7s-0.3,0.7-0.7,0.7h-3.6c-0.8,0-1.4-0.6-1.4-1.4V5c0-0.8,0.6-1.4,1.4-1.4h4c0.8,0,1.6,0.3,2.2,0.9 C17.4,4.8,17.9,5,18.3,5H22c0.5,0,0.9-0.2,1.2-0.5c0.6-0.6,1.4-0.9,2.2-0.9h4c0.8,0,1.4,0.6,1.4,1.4v20.4c0,0.2-0.1,0.4-0.3,0.5 C29,27.3,28,29.3,28,31.4c0,1.1,0.3,2.2,0.8,3.2c0.2,0.3,0,0.8-0.3,1C28.4,35.7,28.3,35.7,28.2,35.7z"></path> <path class="st4" d="M26.6,27.9H13.8c-0.4,0-0.7-0.3-0.7-0.7v-10c0-0.4,0.3-0.7,0.7-0.7h12.9c0.4,0,0.7,0.3,0.7,0.7v10 C27.3,27.5,27,27.9,26.6,27.9z M14.5,26.4h11.4v-8.6H14.5V26.4z"></path> <path class="st4" d="M26.6,17.9H13.8c-0.3,0-0.5-0.2-0.6-0.4s-0.1-0.5,0.1-0.8l2.9-3.6c0.1-0.2,0.3-0.3,0.6-0.3h7.1 c0.2,0,0.4,0.1,0.6,0.3l2.9,3.6c0.2,0.2,0.2,0.5,0.1,0.8C27.1,17.7,26.9,17.9,26.6,17.9z M15.2,16.4h9.9l-1.7-2.1H17L15.2,16.4z"></path> <path class="st4" d="M20.2,20c-0.4,0-0.7-0.3-0.7-0.7v-5.7c0-0.4,0.3-0.7,0.7-0.7s0.7,0.3,0.7,0.7v5.7C20.9,19.7,20.6,20,20.2,20z"></path> <path class="st4" d="M18,25h-1.4c-0.4,0-0.7-0.3-0.7-0.7s0.3-0.7,0.7-0.7H18c0.4,0,0.7,0.3,0.7,0.7C18.8,24.7,18.4,25,18,25z"></path> <path class="st4" d="M35.2,40c-1.2,0-2.4-0.2-3.5-0.7c-1.8-0.8-3.3-2.2-4.2-4c-1.8-3.6-0.9-7.9,2.1-10.5c1.5-1.3,3.5-2,5.5-2 c2.3,0,4.5,0.9,6.2,2.6c0.2,0.3,0.2,0.8-0.1,1c-0.3,0.2-0.6,0.2-0.9,0c-1.3-1.4-3.2-2.2-5.1-2.1c-0.7,0-1.3,0.1-1.9,0.3 c-1,0.3-1.8,0.7-2.6,1.4C29,27.3,28,29.3,28,31.4c0,1.1,0.3,2.2,0.8,3.2c0.8,1.5,2,2.6,3.5,3.3c0.9,0.4,1.9,0.6,2.9,0.6 c3.9,0,7.1-3.2,7.1-7.1c0-1-0.2-1.9-0.5-2.8c0-0.1-0.1-0.2-0.1-0.3c0-0.4,0.4-0.7,0.8-0.7c0.2,0,0.5,0.2,0.6,0.4 c1.9,4.3-0.2,9.4-4.5,11.3C37.5,39.8,36.3,40,35.2,40z"></path> </g> <g transform="translate(0,-952.36216)" class="st0"> <path class="st10" d="M27.4,952.4c-7.1,0-13.1,4.7-15,11.2H5.4c-1.3,0-2.4,1.1-2.4,2.4V990c0,1.3,1.1,2.4,2.4,2.4h13.8 c1.3,0,2.4-1.1,2.4-2.4v-7.3c1.8,0.7,3.8,1.1,5.8,1.1c8.7,0,15.7-7,15.7-15.7C43,959.4,36,952.4,27.4,952.4L27.4,952.4z M27.4,953.7c8,0,14.4,6.4,14.4,14.4s-6.4,14.4-14.4,14.4S13,976,13,968.1C12.9,960.1,19.4,953.7,27.4,953.7L27.4,953.7z M22.3,959.9c-0.4,0-0.6,0.3-0.6,0.7v1h-1c-0.8,0-1.5,0.7-1.5,1.5v11.7c0,0.8,0.7,1.5,1.5,1.5H34c0.8,0,1.5-0.7,1.5-1.5V963 c0-0.8-0.7-1.5-1.5-1.5h-1v-1c0-0.4-0.3-0.7-0.6-0.7c0,0,0,0,0,0c-0.4,0-0.6,0.3-0.6,0.7v1H28v-1c0-0.4-0.3-0.7-0.6-0.7 c0,0,0,0,0,0c-0.4,0-0.6,0.3-0.6,0.7v1H23v-1C23,960.2,22.7,959.9,22.3,959.9C22.3,959.9,22.3,959.9,22.3,959.9z M20.7,962.9h1v1 c0,0.4,0.3,0.7,0.6,0.7c0.4,0,0.6-0.3,0.6-0.6c0,0,0,0,0,0v-1h3.7v1c0,0.4,0.3,0.7,0.6,0.7c0.4,0,0.6-0.3,0.6-0.6c0,0,0,0,0,0v-1 h3.7v1c0,0.4,0.3,0.7,0.6,0.7c0.4,0,0.7-0.3,0.7-0.6c0,0,0,0,0,0v-1h1c0.1,0,0.2,0.1,0.2,0.2v1.9H20.5V963 C20.5,962.9,20.5,962.9,20.7,962.9z M5.4,964.8H12c-0.1,0.7-0.2,1.5-0.3,2.2c-0.1,0-0.2,0-0.2,0H8.9c-0.4,0-0.6,0.3-0.6,0.6 c0,0.4,0.3,0.7,0.6,0.7c0,0,0,0,0,0h2.6c0.1,0,0.1,0,0.2,0c0.1,6,3.6,11.2,8.6,13.8v7.9c0,0.6-0.5,1.1-1.1,1.1H5.4 c-0.6,0-1.1-0.5-1.1-1.1v-24.1C4.3,965.3,4.8,964.8,5.4,964.8z M20.5,966.2h13.8v8.5c0,0.1-0.1,0.2-0.2,0.2H20.7 c-0.1,0-0.2-0.1-0.2-0.2C20.5,974.8,20.5,966.2,20.5,966.2z M21.5,967.2v2.5H24v-2.5H21.5z M26.1,967.2v2.5h2.5v-2.5H26.1z M30.7,967.2v2.5h2.5v-2.5H30.7z M21.5,971.4v2.5H24v-2.5H21.5z M26.1,971.4v2.5h2.5v-2.5H26.1z M30.7,971.4v2.5h2.5v-2.5H30.7z M12.3,987.2c-0.6,0-1.1,0.5-1.1,1.1s0.5,1.1,1.1,1.1s1.1-0.5,1.1-1.1S12.9,987.2,12.3,987.2z"></path> </g> <g class="st0"> <path class="st6" d="M42.6,6.7H8.4C8,6.7,7.6,7,7.6,7.5S8,8.3,8.4,8.3h33.3v27.5c0,1.4-1.1,2.5-2.5,2.5V15c0-1.4-1.1-2.5-2.5-2.5 H10.1c-1.4,0-2.5,1.1-2.5,2.5v23.3c-1.4,0-2.5-1.1-2.5-2.5V4.2c0-1.4,1.1-2.5,2.5-2.5h31.7c1.3-0.1,2.4,0.9,2.5,2.2 c0,0.1,0,0.2,0,0.2c0,0.5,0.4,0.8,0.8,0.8c0.5,0,0.8-0.4,0.8-0.8C43.5,2,41.8,0.1,39.6,0c-0.1,0-0.2,0-0.3,0H7.6 C5.3,0,3.5,1.9,3.4,4.2v31.7c0,2.3,1.9,4.2,4.2,4.2h27.5c0.5,0,0.8-0.4,0.8-0.8c0-0.5-0.4-0.8-0.8-0.8H9.3V20.8h28.3v18.3 c0,0.5,0.4,0.8,0.8,0.8h0.8c2.3,0,4.2-1.9,4.2-4.2V7.5C43.5,7,43.1,6.7,42.6,6.7z M37.6,19.2H9.3V15c0-0.5,0.4-0.8,0.8-0.8h26.7 c0.5,0,0.8,0.4,0.8,0.8L37.6,19.2L37.6,19.2z"></path> <path class="st6" d="M8.4,3.3C8,3.3,7.6,3.7,7.6,4.2S8,5,8.4,5h1.7c0.5,0,0.8-0.4,0.8-0.8s-0.4-0.8-0.8-0.8 C10.1,3.3,8.4,3.3,8.4,3.3z"></path> <path class="st6" d="M13.4,3.3c-0.5,0-0.8,0.4-0.8,0.8S13,5,13.4,5h1.7c0.5,0,0.8-0.4,0.8-0.8s-0.4-0.8-0.8-0.8 C15.1,3.3,13.4,3.3,13.4,3.3z"></path> <path class="st6" d="M37.6,3.3c-0.5,0-0.8,0.4-0.8,0.8S37.2,5,37.6,5h1.7c0.5,0,0.8-0.4,0.8-0.8s-0.4-0.8-0.8-0.8 C39.3,3.3,37.6,3.3,37.6,3.3z"></path> <path class="st6" d="M13.4,15.8h-1.7c-0.5,0-0.8,0.4-0.8,0.8s0.4,0.8,0.8,0.8h1.7c0.5,0,0.8-0.4,0.8-0.8 C14.3,16.2,13.9,15.8,13.4,15.8z"></path> <path class="st6" d="M18.5,15.8h-1.7c-0.5,0-0.8,0.4-0.8,0.8s0.4,0.8,0.8,0.8h1.7c0.5,0,0.8-0.4,0.8-0.8 C19.3,16.2,18.9,15.8,18.5,15.8z"></path> <path class="st6" d="M35.1,15.8h-1.7c-0.5,0-0.8,0.4-0.8,0.8s0.4,0.8,0.8,0.8h1.7c0.5,0,0.8-0.4,0.8-0.8 C36,16.2,35.6,15.8,35.1,15.8z"></path> <path class="st6" d="M20.7,26.1c-0.3-0.3-0.9-0.3-1.2,0l-3.3,3.3c-0.3,0.3-0.3,0.9,0,1.2l3.3,3.3c0.3,0.3,0.9,0.3,1.2,0 c0.3-0.3,0.3-0.8,0-1.2L18,30l2.7-2.7C21,26.9,21,26.4,20.7,26.1z"></path> <path class="st6" d="M26.2,33.9c0.3,0.3,0.9,0.3,1.2,0l3.3-3.3c0.3-0.3,0.3-0.9,0-1.2l-3.3-3.3c-0.3-0.3-0.9-0.3-1.2,0 c-0.3,0.3-0.3,0.8,0,1.2l2.8,2.7l-2.7,2.7C25.9,33.1,25.9,33.6,26.2,33.9z"></path> </g> <g class="st0"> <path class="st11" d="M42.9,26.4c-0.8-0.9-2-1.2-3.1-0.8l-9.9,4.2c-0.4,0.2-0.6,0.6-0.4,1s0.6,0.6,1,0.4l9.9-4.2 c0.4-0.2,0.9,0,1.2,0.3c0.2,0.2,0.2,0.5,0.2,0.8c0,0.3-0.2,0.5-0.5,0.7c-4.3,2.8-14.2,8.4-14.6,8.7c0,0,0,0,0,0l0,0 c-1.2,0.7-2.5,0.9-4.2,0.6c-0.1,0-1.8-0.2-7.8-1L12,36.9V26.1c0.4,0,0.8,0,1,0h0.1c3.7-0.2,7.3,0.5,11.1,1.2c0.5,0.1,1,0.2,1.5,0.3 c0.5,0.1,0.9,0.5,0.9,1.1c0,0,0,0.1,0,0.1c0,0.3-0.2,0.5-0.3,0.6c-0.2,0.2-0.5,0.3-0.8,0.3h-7.6c-0.5,0-0.8,0.4-0.8,0.8 c0,0.5,0.4,0.8,0.8,0.8h7.6c0.7,0,1.4-0.3,1.9-0.8c0.4-0.4,0.7-1,0.8-1.5c0-0.1,0-0.2,0-0.4c0-1.3-0.9-2.4-2.2-2.6 c-0.5-0.1-1-0.2-1.5-0.3c-3.7-0.8-7.6-1.5-11.5-1.3h-0.1c-0.2,0-0.6,0-1,0c-0.1-0.3-0.4-0.6-0.8-0.6h-6c-0.4,0-0.8,0.4-0.8,0.8 v13.5c0,0.5,0.4,0.8,0.8,0.8h6c0.3,0,0.6-0.2,0.7-0.5l2.7,0.3c3.2,0.4,7.5,0.9,7.7,1c0.6,0.1,1.2,0.2,1.7,0.2c1.3,0,2.5-0.3,3.6-1 c0,0,0,0,0,0c0.1,0,10.3-5.8,14.7-8.7c0.6-0.4,1-1.1,1.2-1.8C43.6,27.8,43.4,27,42.9,26.4z M10.3,37.4H6V25.5h4.4L10.3,37.4 L10.3,37.4z"></path> <path class="st11" d="M17.5,11.4c0,0,0.1,0,0.1,0c0.3,0.1,0.5,0.1,0.8,0.1c0.1,0,0.1,0,0.2,0c0.1,0.8,0.2,1.5,0.5,2.2 c-0.1,0.1-0.3,0.2-0.4,0.3l-0.4,0.3c-0.1,0.1-0.1,0.1-0.1,0.1c-0.3,0.2-0.4,0.6-0.2,1c0.5,1,1.2,2,2,2.9c0.3,0.3,0.7,0.3,1,0.1l0,0 c0.2-0.2,0.5-0.3,0.7-0.5c0.1,0,0.1-0.1,0.2-0.1c0.6,0.5,1.2,0.9,1.9,1.2c0,0.1,0,0.3-0.1,0.4c0,0.2-0.1,0.4-0.1,0.6c0,0,0,0,0,0.1 c-0.1,0.4,0.2,0.8,0.5,0.9c0.5,0.2,1.1,0.4,1.7,0.5s1.1,0.2,1.7,0.2h0c0.4,0,0.7-0.3,0.8-0.6c0,0,0,0,0-0.1c0-0.2,0.1-0.4,0.1-0.6 c0-0.1,0-0.3,0.1-0.4c0.7-0.1,1.5-0.2,2.2-0.5c0,0.1,0.1,0.1,0.1,0.2c0.1,0.2,0.3,0.5,0.5,0.7c0,0,0,0.1,0.1,0.1 c0.2,0.3,0.6,0.4,1,0.2c1.1-0.5,2-1.1,2.9-2c0.3-0.3,0.3-0.7,0.1-1c0,0-0.1-0.1-0.1-0.2l-0.3-0.4c-0.1-0.1-0.2-0.3-0.3-0.4 c0.5-0.6,0.9-1.2,1.2-1.9c0.1,0,0.1,0,0.2,0c0.3,0.1,0.5,0.1,0.8,0.2c0,0,0.1,0,0.2,0c0.4,0,0.7-0.2,0.8-0.5 c0.2-0.6,0.3-1.1,0.5-1.7c0.1-0.6,0.2-1.2,0.2-1.8c0-0.4-0.2-0.7-0.6-0.8c0,0,0,0-0.1,0l-0.4-0.1c-0.2-0.1-0.5-0.1-0.7-0.1 c-0.1-0.7-0.2-1.4-0.5-2.2c0.3-0.2,0.6-0.4,0.9-0.6c0.3-0.2,0.5-0.7,0.3-1c-0.5-1.1-1.2-2.1-2-2.9c-0.3-0.3-0.7-0.3-1-0.1 c-0.2,0.1-0.4,0.3-0.6,0.4c-0.1,0.1-0.2,0.2-0.4,0.2c-0.6-0.5-1.2-0.9-1.9-1.2c0,0,0,0,0-0.1l0-0.2c0,0,0,0,0-0.1l0-0.2 c0-0.2,0.1-0.3,0.1-0.5c0.1-0.4-0.1-0.8-0.5-0.9c-0.5-0.2-1.1-0.3-1.7-0.4S28.5,0,28,0c-0.4,0-0.8,0.3-0.8,0.7 c0,0.2-0.1,0.3-0.1,0.5l0,0.2c0,0,0,0,0,0.1l0,0.2c0,0,0,0,0,0.1c-0.7,0.1-1.5,0.2-2.2,0.5c-0.1-0.1-0.2-0.2-0.2-0.4 c-0.1-0.2-0.3-0.4-0.4-0.6c-0.2-0.3-0.6-0.4-1-0.3c-1.1,0.5-2,1.2-2.9,2c-0.3,0.3-0.3,0.7-0.1,1c0.2,0.3,0.4,0.6,0.6,0.9 c-0.5,0.6-0.9,1.2-1.2,1.8c-0.2-0.1-0.5-0.1-0.7-0.1l-0.5-0.1c-0.4-0.1-0.8,0.2-0.9,0.5c-0.2,0.6-0.4,1.1-0.5,1.7 c-0.1,0.6-0.2,1.2-0.2,1.8C16.9,11,17.1,11.3,17.5,11.4z M18.6,9.2c0-0.3,0.1-0.6,0.2-0.8c0.3,0.1,0.6,0.1,0.9,0.2 c0.1,0,0.3,0.1,0.4,0c0.3,0,0.6-0.2,0.7-0.5c0.4-0.9,0.9-1.7,1.6-2.4c0.2-0.2,0.3-0.6,0.2-0.8c0-0.1-0.1-0.2-0.2-0.4l-0.1-0.2 c-0.1-0.2-0.2-0.3-0.3-0.5c0.4-0.3,0.9-0.7,1.4-0.9c0.2,0.2,0.3,0.5,0.5,0.7c0.1,0.2,0.2,0.3,0.3,0.3c0.2,0.2,0.5,0.2,0.8,0.1 c0.9-0.4,1.8-0.6,2.8-0.6c0.3,0,0.6-0.2,0.7-0.5c0-0.1,0.1-0.2,0.1-0.3c0-0.2,0.1-0.4,0.1-0.5l0-0.2c0,0,0,0,0-0.1v0 c0.3,0,0.5,0.1,0.8,0.1c0.3,0,0.5,0.1,0.8,0.2v0c0,0,0,0,0,0.1l0,0.2C30,2.5,30,2.7,30,2.9c0,0.1,0,0.2,0,0.3 c0,0.3,0.2,0.6,0.5,0.7c0.9,0.4,1.7,0.9,2.4,1.5c0.2,0.2,0.5,0.3,0.7,0.2c0.2,0,0.3-0.1,0.4-0.2c0.2-0.2,0.5-0.3,0.7-0.5 c0.3,0.4,0.7,0.9,0.9,1.3c-0.2,0.1-0.3,0.2-0.5,0.3L35,6.7c-0.1,0.1-0.2,0.2-0.3,0.3c-0.2,0.2-0.3,0.6-0.2,0.9 c0.4,0.9,0.6,1.8,0.6,2.8c0,0.3,0.2,0.6,0.5,0.7c0.1,0.1,0.2,0.1,0.4,0.1c0.3,0.1,0.6,0.1,0.8,0.1c0,0.3-0.1,0.6-0.1,0.8 s-0.1,0.5-0.2,0.8c-0.1,0-0.2,0-0.2,0c-0.2-0.1-0.5-0.1-0.8-0.1c0,0-0.1,0-0.1,0c-0.4-0.1-0.7,0.2-0.8,0.5 c-0.4,0.9-0.9,1.7-1.6,2.4c-0.2,0.2-0.3,0.6-0.2,0.9c0,0.1,0.1,0.2,0.1,0.2c0.2,0.2,0.3,0.5,0.5,0.8c-0.4,0.4-0.9,0.6-1.3,0.9 c0,0-0.1-0.1-0.1-0.1c-0.1-0.2-0.3-0.4-0.4-0.6c0-0.1-0.1-0.2-0.2-0.2c-0.2-0.2-0.6-0.3-0.9-0.2c-0.9,0.4-1.9,0.6-2.8,0.6 c-0.3,0-0.6,0.2-0.7,0.5c0,0.1-0.1,0.2-0.1,0.4c0,0.3-0.1,0.6-0.1,0.9l0,0c-0.3,0-0.5-0.1-0.8-0.1c-0.3,0-0.5-0.1-0.8-0.2l0,0 c0-0.3,0.1-0.6,0.2-0.9c0-0.1,0-0.2,0-0.4c0-0.3-0.2-0.6-0.5-0.7c-0.9-0.4-1.7-0.9-2.4-1.6c-0.2-0.2-0.6-0.3-0.9-0.2 c-0.1,0-0.2,0.1-0.2,0.1c-0.2,0.1-0.4,0.3-0.6,0.4c0,0-0.1,0.1-0.1,0.1c-0.4-0.4-0.6-0.9-0.9-1.3c0.2-0.2,0.5-0.4,0.8-0.5 c0.1-0.1,0.1-0.1,0.2-0.2c0.2-0.2,0.3-0.6,0.2-0.9c-0.4-0.9-0.6-1.9-0.6-2.8c0-0.4-0.2-0.7-0.6-0.8c0,0-0.1,0-0.1,0 c-0.2-0.1-0.5-0.1-0.8-0.1c-0.1,0-0.1,0-0.2,0C18.6,9.7,18.6,9.4,18.6,9.2z"></path> <path class="st11" d="M24.2,14.2c0.5,0.5,1.1,0.9,1.9,1.2c0.2,0.1,0.5,0.1,0.8,0.2c0.2,0.1,0.5,0.1,0.8,0.1c0,0,0.1,0,0.1,0 c0.7,0,1.4-0.1,2-0.4c0.5-0.2,0.9-0.5,1.3-0.9c0.5-0.5,1-1.1,1.2-1.9c0.1-0.2,0.2-0.5,0.2-0.8l0,0c0-0.3,0.1-0.5,0.1-0.8 c0-0.7-0.1-1.5-0.5-2.1c-0.2-0.5-0.5-0.9-0.9-1.3c-0.5-0.5-1.1-0.9-1.9-1.2c-0.2-0.1-0.5-0.2-0.8-0.2c-0.2-0.1-0.5-0.1-0.8-0.1 c-0.7,0-1.5,0.1-2.1,0.4c-0.5,0.2-0.9,0.5-1.3,0.9c-0.5,0.5-1,1.1-1.2,1.9C23.1,9.5,23,9.7,23,10c0,0.2-0.1,0.5-0.1,0.8 c0,0.8,0.1,1.5,0.5,2.2C23.5,13.4,23.8,13.8,24.2,14.2z M24.5,10.3c0-0.2,0.1-0.4,0.1-0.5c0.2-0.5,0.5-0.9,0.8-1.2 c0.2-0.2,0.5-0.4,0.9-0.6c0.4-0.2,0.9-0.3,1.4-0.3c0,0,0,0,0.1,0c0.2,0,0.4,0,0.5,0.1s0.3,0.1,0.5,0.1C29.2,8,29.6,8.2,30,8.6 c0.2,0.2,0.5,0.6,0.6,0.9c0.2,0.4,0.3,0.9,0.3,1.4c0,0.2,0,0.4,0,0.5c0,0.2-0.1,0.4-0.1,0.5c-0.2,0.5-0.5,0.9-0.8,1.2 c-0.2,0.2-0.5,0.4-0.9,0.6c-0.5,0.2-1,0.3-1.4,0.3c-0.2,0-0.3,0-0.5-0.1c-0.2,0-0.3-0.1-0.5-0.1c-0.5-0.2-0.9-0.4-1.2-0.8 c-0.2-0.2-0.4-0.5-0.6-0.9c-0.2-0.4-0.3-0.9-0.3-1.4C24.5,10.6,24.5,10.4,24.5,10.3z"></path> </g> <g class="st0"> <path class="st8" d="M42.8,4V1.7H44V0.4H31.3v1.3h1.3V4l0.3,0.2c0,0,0.5,0.3,1.2,0.5c-0.6,0.8-0.9,1.7-0.9,2.7c0,1.5,0.8,2.9,2,3.7 c-2.3,1-3.9,3.2-3.9,5.9v3.8c0,1.4,1.2,2.5,2.5,2.5V31h-20l-8.9,4.5l8.9,4.5h25.7c2.5,0,4.5-2,4.5-4.5c0-1.8-1-3.3-2.5-4v-8.1 c1.4,0,2.5-1.1,2.5-2.5V17c0-2.6-1.6-4.9-3.9-5.9c1.2-0.8,2-2.2,2-3.7c0-1-0.3-2-0.9-2.7c0.7-0.3,1.2-0.5,1.2-0.5L42.8,4z M9.5,36.4l-1.8-0.9l1.8-0.9V36.4z M13.4,38.3l-2.6-1.3v-3l2.6-1.3V38.3z M35.2,12.5l1.6,1.9l-0.8,0.8l-1.1-2.5 C35,12.7,35.1,12.6,35.2,12.5z M36.4,12.1c0.4-0.1,0.8-0.1,1.2-0.1s0.8,0.1,1.2,0.1l-1.2,1.4L36.4,12.1z M32.5,38.7H14.6v-2.5h17.9 V38.7z M32.5,34.9H14.6v-2.5h17.9V34.9z M35.1,38.7h-1.3v-6.4h1.3V38.7z M42.8,35.5c0,1.8-1.4,3.2-3.2,3.2h-3.2v-6.4h3.2 C41.3,32.3,42.8,33.8,42.8,35.5z M42.8,17v3.8c0,0.7-0.6,1.3-1.3,1.3V17h-1.3v14.1c-0.2,0-0.4,0-0.6,0h-1.3V20.8H37v10.2h-1.9V17 h-1.3v5.1c-0.7,0-1.3-0.6-1.3-1.3V17c0-1.3,0.5-2.5,1.3-3.4l1.7,3.9l2.1-2.1l2.1,2.1l1.7-3.9C42.2,14.5,42.8,15.7,42.8,17z M40.4,12.7l-1.1,2.5l-0.8-0.8l1.6-1.9C40.2,12.6,40.3,12.7,40.4,12.7z M37.6,10.6c-1.8,0-3.2-1.4-3.2-3.2c0-0.9,0.3-1.7,1-2.3 c0.7,0.2,1.5,0.4,2.2,0.4s1.5-0.2,2.2-0.4c0.6,0.6,1,1.4,1,2.3C40.8,9.2,39.4,10.6,37.6,10.6z M41.5,3.2c-0.7,0.3-2.5,1-3.8,1 c-1.3,0-3.1-0.7-3.8-1V1.7h7.7V3.2z"></path> <rect x="7" y="3" class="st8" width="1.3" height="1.3"></rect> <rect x="9.5" y="3" class="st8" width="1.3" height="1.3"></rect> <rect x="12.1" y="3" class="st8" width="1.3" height="1.3"></rect> <path class="st8" d="M12.1,25.3c0,1.1,0.9,1.9,1.9,1.9h3.7l5.9,3v-3h1.9c1.1,0,1.9-0.9,1.9-1.9v-3.2H30V0.4H4.4v21.7h7.7V25.3z M26.1,25.3c0,0.4-0.3,0.6-0.6,0.6h-3.2v2.2L18,25.9h-4c-0.4,0-0.6-0.3-0.6-0.6v-5.1c0-0.4,0.3-0.6,0.6-0.6h11.5 c0.4,0,0.6,0.3,0.6,0.6L26.1,25.3L26.1,25.3z M13.4,18.4v-6.5h1.3v6.4H14C13.8,18.3,13.6,18.3,13.4,18.4z M18.5,18.3v-3.8h1.3v3.8 H18.5z M23.6,18.3V9.3h1.3v8.9C24.9,18.3,23.6,18.3,23.6,18.3z M5.7,1.7h23v3.8h-23V1.7z M5.7,20.8V6.8h23v14.1h-1.3v-0.6 c0-0.8-0.5-1.5-1.3-1.8V8.1h-3.8v10.2H21v-5.1h-3.8v5.1h-1.3v-7.7h-3.8v9.6v0.6H5.7z"></path> <rect x="14.6" y="20.8" class="st8" width="10.2" height="1.3"></rect> <rect x="14.6" y="23.4" class="st8" width="7.7" height="1.3"></rect> <rect x="23.6" y="23.4" class="st8" width="1.3" height="1.3"></rect> <path class="st8" d="M7,19.6h3.8v-5.1H7V19.6z M8.3,15.7h1.3v2.5H8.3V15.7z"></path> </g> <g class="st0"> <g class="st1"> <g> <g> <g> <path class="st12" d="M31.2,40H16.1c-2.8,0-5.1-2.3-5.1-5.1V5.1C11,2.3,13.3,0,16.1,0h15.1c2.8,0,5.1,2.3,5.1,5.1v29.7 C36.3,37.7,34,40,31.2,40z M16.1,1.3c-2.1,0-3.8,1.7-3.8,3.8v29.7c0,2.1,1.7,3.8,3.8,3.8h15.1c2.1,0,3.7-1.7,3.8-3.8V5.1 c-0.1-2.1-1.7-3.8-3.9-3.8C31.2,1.3,16.1,1.3,16.1,1.3z"></path> </g> <g> <rect x="11.7" y="6.8" class="st12" width="24" height="1.3"></rect> </g> <g> <rect x="11.7" y="31.9" class="st12" width="24" height="1.3"></rect> </g> </g> <g> <path class="st12" d="M23.7,38.1c-1.2,0-2.1-0.9-2.1-2.1s0.9-2.1,2.1-2.1s2.1,0.9,2.1,2.1S24.9,38.1,23.7,38.1z M23.7,35.1 c-0.5,0-0.8,0.3-0.8,0.8s0.3,0.8,0.8,0.8s0.8-0.3,0.8-0.8S24.1,35.1,23.7,35.1z"></path> </g> <g> <path class="st12" d="M26.9,4.7h-6.3c-0.4,0-0.7-0.3-0.7-0.7s0.3-0.7,0.7-0.7h6.3c0.4,0,0.7,0.3,0.7,0.7S27.2,4.7,26.9,4.7z"></path> </g> </g> <g> <g> <path class="st12" d="M32.7,25.9c-0.1,0-0.1,0-0.1,0c-0.7-0.2-1.5-0.4-2.2-0.6c-3.1-0.9-5-1.3-6.1,0.3c-0.1,0.2-0.3,0.3-0.5,0.3 s-0.4-0.1-0.5-0.3c-1.5-1.7-3.6-1.7-8.3,0.2c-0.2,0.1-0.5,0.1-0.7-0.1c-0.2-0.1-0.3-0.4-0.3-0.6l1.5-10.3c0-0.2,0.2-0.4,0.4-0.5 c2.1-1,4.7-1.7,7.7-0.2c2.3-1.6,5.1-0.8,7.9,0.1c0.3,0.1,0.4,0.3,0.5,0.5l1.5,10.3c0,0.2-0.1,0.5-0.2,0.6 C33,25.8,32.9,25.9,32.7,25.9z M26.5,23.1c1.3,0,2.8,0.4,4.2,0.8c0.4,0.1,0.8,0.2,1.2,0.3l-1.3-8.9c-2.5-0.9-4.9-1.4-6.5,0 c-0.2,0.2-0.5,0.2-0.7,0.1c-2.5-1.5-4.7-0.9-6.6-0.1l-1.3,8.7c3-1.1,6-1.9,8.1,0.1C24.4,23.4,25.4,23.1,26.5,23.1z"></path> </g> <g> <path class="st12" d="M23.7,25.9c-0.4,0-0.7-0.3-0.7-0.7V14.9c0-0.4,0.3-0.7,0.7-0.7s0.7,0.3,0.7,0.7v10.3 C24.3,25.6,24.1,25.9,23.7,25.9z"></path> </g> <g> <g> <path class="st12" d="M21.3,18.7h-3.5c-0.4,0-0.7-0.3-0.7-0.7s0.3-0.7,0.7-0.7h3.5c0.4,0,0.7,0.3,0.7,0.7S21.7,18.7,21.3,18.7z "></path> </g> <g> <path class="st12" d="M21.3,21.1h-3.5c-0.4,0-0.7-0.3-0.7-0.7s0.3-0.7,0.7-0.7h3.5c0.4,0,0.7,0.3,0.7,0.7S21.7,21.1,21.3,21.1z "></path> </g> </g> <g> <g> <path class="st12" d="M29.5,18.7h-3.5c-0.4,0-0.7-0.3-0.7-0.7s0.3-0.7,0.7-0.7h3.5c0.4,0,0.7,0.3,0.7,0.7S29.9,18.7,29.5,18.7z "></path> </g> <g> <path class="st12" d="M29.5,21.1h-3.5c-0.4,0-0.7-0.3-0.7-0.7s0.3-0.7,0.7-0.7h3.5c0.4,0,0.7,0.3,0.7,0.7S29.9,21.1,29.5,21.1z "></path> </g> </g> </g> </g> </g> <g class="st0"> <path class="st4" d="M8.4,34.1v-14H7v14.1c0,1.8,1.5,3.3,3.3,3.3h14.7v-1.3H10.4C9.3,36.2,8.4,35.2,8.4,34.1z"></path> <path class="st4" d="M40.5,28.8V14.7c0-1.9-1.5-3.4-3.3-3.4H24.4v1.3h12.7c1.1,0,2,0.9,2,2v14.1H40.5z"></path> <path class="st4" d="M37.8,28.8V14.7c0-0.4-0.3-0.7-0.7-0.7H23.8v1.3h12.7v13.4H37.8z"></path> <path class="st4" d="M11,21.4H9.7v12.7c0,0.4,0.3,0.7,0.7,0.7h14.7v-1.3H11V21.4z"></path> <rect x="23.1" y="19.4" class="st4" width="1.3" height="1.3"></rect> <path class="st4" d="M31.1,24.1v-0.7h0.7c0.4,0,0.7-0.3,0.7-0.7v-2.7c0-0.3-0.2-0.5-0.5-0.6l-8-2.7c-0.1,0-0.3,0-0.4,0l-2.7,0.9 l0.4,1.3l2.5-0.8l7.4,2.5v1.5H16.4v-0.7H15v1.3c0,0.4,0.3,0.7,0.7,0.7h0.7v4.7h-0.7c-0.4,0-0.7,0.3-0.7,0.7v2.7 c0,0.4,0.3,0.7,0.7,0.7h14.1v-1.4H16.4v-1.3h13.4v-1.3h-1.3v-4.7h1.3v0.7C29.8,24.1,31.1,24.1,31.1,24.1z M21.8,23.4v4.7h-1.3v-4.7 H21.8z M17.7,28.1v-4.7h1.3v4.7H17.7z M23.1,28.1v-4.7h1.3v4.7H23.1z M27.1,28.1h-1.3v-4.7h1.3V28.1z"></path> <path class="st4" d="M23.1,10c0-5.5-4.5-10-10.1-10S3,4.5,3,10s4.5,10,10,10C18.6,20.1,23.1,15.6,23.1,10z M12.1,18.7 c-0.6-1-1.1-2.1-1.5-3.3h5c-0.4,1.2-0.9,2.2-1.5,3.3C13.4,18.8,12.7,18.8,12.1,18.7z M4.4,10.7h4c0,1.1,0.2,2.2,0.4,3.3H5.3 C4.8,13,4.5,11.9,4.4,10.7z M21.7,9.4h-4c0-1.1-0.2-2.2-0.4-3.3h3.5C21.3,7.1,21.6,8.2,21.7,9.4L21.7,9.4z M21.7,10.7 c-0.1,1.2-0.4,2.3-1,3.3h-3.5c0.2-1.1,0.4-2.2,0.4-3.4C17.7,10.7,21.7,10.7,21.7,10.7z M16.4,9.4H9.7c0-1.1,0.2-2.2,0.5-3.3h5.8 C16.2,7.1,16.3,8.2,16.4,9.4L16.4,9.4z M8.4,9.4h-4c0.1-1.2,0.4-2.3,1-3.3h3.5C8.6,7.1,8.4,8.2,8.4,9.4z M9.7,10.7h6.7 c0,1.1-0.2,2.2-0.5,3.3h-5.8C9.9,13,9.8,11.8,9.7,10.7z M15.8,18.3c0.5-0.9,0.9-1.9,1.2-2.9h2.9C18.8,16.8,17.4,17.8,15.8,18.3z M19.9,4.7h-2.9c-0.3-1-0.7-2-1.2-2.9C17.4,2.3,18.8,3.3,19.9,4.7z M14,1.4c0.6,1,1.1,2.1,1.5,3.3h-5c0.4-1.2,0.9-2.2,1.5-3.3 C12.7,1.3,13.4,1.3,14,1.4z M10.3,1.8C9.8,2.7,9.4,3.7,9.1,4.7H6.2C7.2,3.3,8.7,2.3,10.3,1.8z M6.2,15.4h2.9c0.3,1,0.7,2,1.2,2.9 C8.7,17.8,7.2,16.8,6.2,15.4z"></path> <path class="st4" d="M41.5,30.1c-0.6-0.1-1.2,0.1-1.6,0.5c0,0,0,0,0,0c-0.8-0.7-1.9-0.7-2.7,0c-0.5-0.5-1.3-0.6-2-0.4v-3.4 c0-1-0.7-1.9-1.7-2c-1.1-0.2-2.1,0.5-2.3,1.6c0,0.1,0,0.2,0,0.3V35l-1.8-1.1c-0.5-0.3-1.2-0.3-1.8-0.1l-0.1,0 c-0.9,0.5-1.3,1.6-0.8,2.5c0.1,0.3,0.3,0.5,0.6,0.7l4.2,3c0.1,0.1,0.2,0.1,0.4,0.1h10.7c0.4,0,0.7-0.3,0.7-0.7v-7.3 C43.2,31.2,42.5,30.3,41.5,30.1z M41.8,38.8H32L28,36c-0.2-0.2-0.3-0.5-0.1-0.7c0-0.1,0.1-0.1,0.2-0.2l0.1,0c0.2-0.1,0.3-0.1,0.5,0 l2.8,1.7c0.3,0.2,0.7,0.1,0.9-0.2c0.1-0.1,0.1-0.2,0.1-0.3v-9.4c0-0.4,0.3-0.7,0.7-0.7c0,0,0.1,0,0.1,0c0.3,0.1,0.6,0.4,0.5,0.7 v5.3c0,0.4,0.3,0.7,0.7,0.7s0.7-0.3,0.7-0.7s0.3-0.7,0.7-0.7s0.7,0.3,0.7,0.7c0,0.4,0.3,0.7,0.7,0.7s0.7-0.3,0.7-0.7 s0.3-0.7,0.7-0.7s0.7,0.3,0.7,0.7c0,0.4,0.3,0.7,0.7,0.7s0.7-0.3,0.7-0.7c0-0.2,0.1-0.4,0.2-0.5c0.2-0.1,0.3-0.2,0.5-0.1 c0.3,0.1,0.6,0.4,0.5,0.7L41.8,38.8L41.8,38.8z"></path> <path class="st4" d="M41.4,7.3c0.2-0.1,0.4-0.3,0.4-0.6v-6c0-0.4-0.3-0.7-0.7-0.7c-0.1,0-0.2,0-0.2,0.1l-0.8,0.3 c-1.5,0.6-3.2,0.7-4.8,0.3c-1.9-0.5-3.9-0.3-5.6,0.4l-0.8,0.3c-0.2,0.1-0.4,0.4-0.4,0.6v6c0,0.4,0.3,0.7,0.7,0.7 c0.1,0,0.2,0,0.2-0.1l0.8-0.3C31.7,7.7,33.4,7.6,35,8c1.9,0.5,3.9,0.3,5.7-0.4L41.4,7.3z M40.5,6.2l-0.4,0.2 c-1.5,0.6-3.2,0.7-4.8,0.3c-1.8-0.5-3.8-0.3-5.5,0.3V2.5l0.4-0.2C31.7,1.7,33.4,1.6,35,2c1.8,0.5,3.8,0.4,5.5-0.3V6.2z"></path> <rect x="23.1" y="4.7" class="st4" width="1.3" height="1.3"></rect> <rect x="25.8" y="4.7" class="st4" width="1.3" height="1.3"></rect> <rect x="32.5" y="8.7" class="st4" width="1.3" height="1.3"></rect> </g> <g class="st0"> <path class="st5" d="M32.9,28l-1.5,0.8c-0.4-0.3-0.8-0.5-1.2-0.7v-1.7h-3.9v1.7c-0.4,0.2-0.9,0.4-1.2,0.7l0,0v-3.7 c0-1.8-3.7-2.6-7.1-2.6s-7.1,0.8-7.1,2.6v11.6c0,1.8,3.7,2.6,7.1,2.6c3.3,0,6.8-0.7,7.1-2.3l0.1,0c0.4,0.3,0.8,0.5,1.2,0.7v1.7h3.9 v-1.7c0.4-0.2,0.9-0.4,1.2-0.7l1.4,0.8l1.9-3.4l-1.5-0.8c0.1-0.5,0.1-1,0-1.4l1.5-0.8L32.9,28z M23.6,28l-1,1.7 c-1.5,0.5-3.1,0.7-4.8,0.7c-3.8,0-5.7-1-5.8-1.3v-2.3c0,0,0,0,0,0c0.2,0.1,0.3,0.1,0.5,0.2c0.1,0,0.1,0,0.1,0 c0.1,0,0.3,0.1,0.4,0.1c0.1,0,0.1,0,0.2,0.1c0.1,0,0.3,0.1,0.4,0.1c0.1,0,0.1,0,0.2,0c0.2,0,0.4,0.1,0.6,0.1l0.1,0 c0.2,0,0.5,0.1,0.7,0.1l0.2,0c0.2,0,0.4,0,0.5,0c0.1,0,0.2,0,0.2,0c0.2,0,0.4,0,0.5,0l0.2,0c0.2,0,0.5,0,0.7,0s0.5,0,0.7,0l0.2,0 c0.2,0,0.4,0,0.5,0c0.1,0,0.2,0,0.2,0c0.2,0,0.4,0,0.5,0l0.2,0c0.2,0,0.5-0.1,0.7-0.1l0.1,0c0.2,0,0.4-0.1,0.6-0.1 c0.1,0,0.1,0,0.2,0c0.1,0,0.3-0.1,0.4-0.1c0.1,0,0.1,0,0.2-0.1c0.1,0,0.3-0.1,0.4-0.1c0,0,0.1,0,0.1,0c0.2-0.1,0.3-0.1,0.5-0.2 c0,0,0,0,0,0V28L23.6,28z M17.9,23.8c0.2,0,0.5,0,0.7,0c0.1,0,0.1,0,0.2,0c0.1,0,0.3,0,0.4,0c0.1,0,0.2,0,0.3,0c0.1,0,0.2,0,0.3,0 c0.1,0,0.2,0,0.4,0c0.1,0,0.1,0,0.2,0c0.2,0,0.3,0,0.5,0.1l0,0c1.8,0.3,2.7,0.8,2.8,1.1c0,0,0,0,0,0s0,0,0,0c0,0,0,0,0,0 c0,0,0,0,0,0c0,0,0,0,0,0c0,0,0,0-0.1,0.1c0,0,0,0-0.1,0c0,0-0.1,0-0.1,0.1c0,0,0,0-0.1,0c0,0-0.1,0-0.1,0.1l-0.1,0 c0,0-0.1,0-0.2,0.1c0,0-0.1,0-0.1,0c-0.1,0-0.1,0-0.2,0.1c0,0-0.1,0-0.1,0c-0.1,0-0.1,0-0.2,0.1c0,0-0.1,0-0.1,0 c-0.1,0-0.1,0-0.2,0.1c-0.1,0-0.1,0-0.2,0c-0.1,0-0.2,0-0.2,0.1c-0.1,0-0.1,0-0.2,0c-0.1,0-0.2,0-0.2,0c-0.1,0-0.2,0-0.2,0 s-0.2,0-0.3,0s-0.2,0-0.3,0c-0.1,0-0.2,0-0.3,0c-0.1,0-0.2,0-0.3,0c-0.1,0-0.2,0-0.3,0c-0.1,0-0.3,0-0.5,0c-0.1,0-0.1,0-0.2,0 c-0.2,0-0.5,0-0.7,0c-0.5,0-0.9,0-1.3,0c-2.9-0.2-4.4-0.9-4.5-1.2C12.2,24.8,14.1,23.8,17.9,23.8z M12.1,30.6c1.4,0.7,3.7,1,5.8,1 c1.3,0,2.6-0.1,3.8-0.4l-0.1,0.1l1.5,0.8c0,0.2,0,0.5,0,0.7c0,0.2,0,0.3,0,0.4c-1.7,0.6-3.4,0.9-5.2,0.8c-3.8,0-5.7-1-5.8-1.3l0,0 C12.1,32.9,12.1,30.6,12.1,30.6z M12.1,36.8v-2.3c1.4,0.7,3.7,1,5.8,1c1.4,0,2.8-0.1,4.1-0.4l1.2,2.1c-0.8,0.4-2.6,0.9-5.3,0.9 C14.1,38.1,12.2,37.1,12.1,36.8z M32,32c0.2,0.6,0.2,1.2,0,1.8l-0.1,0.5l1.1,0.7L32.4,36l-1.1-0.7l-0.4,0.3c-0.4,0.4-1,0.7-1.5,0.9 l-0.5,0.1v1.3h-1.3v-1.3l-0.5-0.1c-0.6-0.2-1.1-0.5-1.5-0.9l-0.4-0.3L24.1,36l-0.6-1.1l1.1-0.7l-0.1-0.5c-0.1-0.6-0.1-1.2,0-1.8 l0.1-0.5l-1.1-0.7l0.6-1.1l1.1,0.7l0.4-0.3c0.4-0.4,1-0.7,1.5-0.9l0.5-0.1v-1.3h1.3V29l0.5,0.1c0.6,0.2,1.1,0.5,1.5,0.9l0.4,0.3 l1.1-0.7l0.7,1.1l-1.1,0.7L32,32z"></path> <path class="st5" d="M28.2,30.3c-1.4,0-2.6,1.2-2.6,2.6s1.2,2.6,2.6,2.6s2.6-1.2,2.6-2.6S29.7,30.3,28.2,30.3z M28.2,34.2 c-0.7,0-1.3-0.6-1.3-1.3s0.6-1.3,1.3-1.3s1.3,0.6,1.3,1.3S29,34.2,28.2,34.2z"></path> <path class="st5" d="M26.3,0.5h-7.8v12.9h7.8V0.5z M25,1.8v7.8h-5.2V1.8H25z M22.4,12.2h-2.6v-1.3H25v1.3H22.4z"></path> <path class="st5" d="M23.1,11.5c0-0.2-0.1-0.3-0.2-0.5c-0.2-0.1-0.4-0.2-0.6-0.2c0,0-0.1,0-0.1,0c0,0-0.1,0-0.1,0.1 c0,0-0.1,0.1-0.1,0.1c-0.1,0.1-0.2,0.3-0.2,0.5c0,0.4,0.3,0.6,0.6,0.6C22.8,12.2,23.1,11.9,23.1,11.5z"></path> <polygon class="st5" points="10.1,14.8 8.8,14.8 8.8,18.6 21.8,18.6 21.8,21.2 23.1,21.2 23.1,18.6 36,18.6 36,14.8 34.7,14.8 34.7,17.3 23.1,17.3 23.1,14.8 21.8,14.8 21.8,17.3 10.1,17.3 "></polygon> <path class="st5" d="M6.9,12.2H5.6v1.3h7.8v-1.3h-1.3v-1.3H16V0.5H3v10.4h3.9V12.2z M10.8,12.2H8.2v-1.3h2.6V12.2z M4.3,1.8h10.4V7 H4.3V1.8z M4.3,9.6V8.3h10.4v1.3H4.3z"></path> <path class="st5" d="M28.9,13.5h12.9V0.5H28.9V13.5z M40.5,12.2H30.2V5.7h10.4V12.2z M30.2,1.8h10.4v2.6H30.2V1.8z"></path> <path class="st5" d="M31.8,2.6c0,0-0.1,0-0.1-0.1c0,0-0.1,0-0.1,0c-0.2,0-0.4,0-0.6,0.2c-0.1,0.1-0.1,0.1-0.1,0.2 c-0.1,0.2,0,0.5,0.1,0.7c0.1,0.1,0.1,0.1,0.2,0.1c0.2,0.1,0.3,0.1,0.5,0c0.1,0,0.1-0.1,0.2-0.1c0.1-0.1,0.2-0.3,0.2-0.5 S32.1,2.8,31.8,2.6C31.9,2.6,31.9,2.6,31.8,2.6z"></path> <path class="st5" d="M33.9,2.6c-0.3-0.2-0.7-0.2-0.9,0c-0.1,0.1-0.1,0.1-0.1,0.2c0,0.1,0,0.2,0,0.2c0,0.1,0,0.2,0,0.2 s0.1,0.2,0.1,0.2c0.2,0.2,0.5,0.2,0.7,0.1c0.1,0,0.2-0.1,0.2-0.1C34,3.5,34,3.4,34,3.4c0.1-0.2,0.1-0.3,0-0.5 C34,2.8,33.9,2.7,33.9,2.6z"></path> <path class="st5" d="M35.8,2.6c-0.1-0.1-0.1-0.1-0.2-0.1c-0.1,0-0.2-0.1-0.4,0c0,0-0.1,0-0.1,0c0,0-0.1,0-0.1,0.1 c0,0-0.1,0-0.1,0.1c-0.1,0.1-0.1,0.1-0.1,0.2c-0.1,0.2-0.1,0.3,0,0.5c0,0.1,0.1,0.2,0.1,0.2C35,3.6,35,3.6,35.1,3.7 c0.1,0,0.2,0,0.2,0c0.2,0,0.3-0.1,0.5-0.2c0.1-0.1,0.1-0.1,0.1-0.2C36,3.2,36,3,36,2.8C35.9,2.8,35.9,2.7,35.8,2.6z"></path> </g> <g class="st0"> <path class="st6" d="M4.1,25.4c0.3,0,0.6-0.3,0.6-0.6v-1c0-3.4,1.8-6.2,4.5-7.2c-0.4-0.2-0.8-0.5-1.1-0.9c-2.8,1.4-4.6,4.5-4.6,8.1 v1C3.5,25.1,3.8,25.4,4.1,25.4z"></path> <path class="st6" d="M15.4,16.4c2.9,0.9,4.9,3.8,4.9,7.4v1c0,0.3,0.3,0.6,0.6,0.6s0.6-0.3,0.6-0.6v-1c0-3.8-2.1-7-5-8.3 C16.1,15.9,15.8,16.2,15.4,16.4z"></path> <path class="st6" d="M12.2,6.8c-2.6,0-4.7,2.1-4.7,4.7s2.1,4.7,4.7,4.7s4.7-2.1,4.7-4.6S14.8,6.8,12.2,6.8z M12.2,14.9 c-1.9,0-3.4-1.5-3.4-3.4s1.5-3.4,3.4-3.4s3.4,1.5,3.4,3.4S14.1,14.9,12.2,14.9z"></path> <path class="st6" d="M26.8,29.1c0-1.9-1.5-3.4-3.4-3.4S20,27.2,20,29.1c0,1.4,0.9,2.6,2.1,3.1c-2.2,0.2-4,1.4-4.9,3.2 c-0.9-1.8-2.6-3-4.9-3.2c1.2-0.5,2.1-1.7,2.1-3.1c0-1.9-1.5-3.4-3.4-3.4s-3.4,1.5-3.4,3.4c0,1.4,0.9,2.6,2.1,3.1 c-3.3,0.3-5.5,2.7-5.5,6V39c0,0.3,0.3,0.6,0.6,0.6c0.3,0,0.6-0.3,0.6-0.6v-0.7c0-2.9,1.9-4.8,4.9-4.8h1.3c3,0,4.9,1.9,4.9,4.8V39 l0,0c0,0.3,0.3,0.6,0.6,0.6s0.6-0.3,0.6-0.6l0,0v-0.7c0-2.9,1.9-4.8,4.9-4.8H24c3,0,4.9,1.9,4.9,4.8V39l0,0c0,0.3,0.3,0.6,0.6,0.6 s0.6-0.3,0.6-0.6l0,0v-0.7c0-2.9,1.9-4.8,4.9-4.8h1.3c3,0,4.9,1.9,4.9,4.8V39c0,0.3,0.3,0.6,0.6,0.6s0.6-0.3,0.6-0.6v-0.7 c0-3.3-2.2-5.8-5.5-6c1.2-0.5,2.1-1.7,2.1-3.1c0-1.9-1.5-3.4-3.4-3.4s-3.4,1.5-3.4,3.4c0,1.4,0.8,2.6,2.1,3.1 c-2.2,0.2-4,1.4-4.9,3.2c-0.9-1.8-2.6-3-4.9-3.2C25.9,31.7,26.8,30.5,26.8,29.1z M11,31.3c-1.2,0-2.2-1-2.2-2.2S9.8,27,11,27 s2.2,1,2.2,2.2S12.2,31.3,11,31.3z M33.6,29.1c0-1.2,1-2.2,2.2-2.2c1.2,0,2.2,1,2.2,2.2s-1,2.2-2.2,2.2 C34.6,31.3,33.6,30.3,33.6,29.1z M23.4,31.3c-1.2,0-2.2-1-2.2-2.2s1-2.2,2.2-2.2s2.2,1,2.2,2.2S24.5,31.3,23.4,31.3z"></path> <path class="st6" d="M24.3,16.4v1.9c0,0.3,0.3,0.6,0.6,0.6s0.6-0.3,0.6-0.6v-1.9c0-0.3-0.3-0.6-0.6-0.6 C24.6,15.8,24.3,16.1,24.3,16.4z"></path> <path class="st6" d="M27.4,14.6v3.7c0,0.3,0.3,0.6,0.6,0.6s0.6-0.3,0.6-0.6v-3.7c0-0.3-0.3-0.6-0.6-0.6S27.4,14.2,27.4,14.6z"></path> <path class="st6" d="M30.5,12.1v6.2c0,0.3,0.3,0.6,0.6,0.6s0.6-0.3,0.6-0.6v-6.2c0-0.3-0.3-0.6-0.6-0.6 C30.8,11.5,30.5,11.7,30.5,12.1z"></path> <path class="st6" d="M33.6,9.6v8.7c0,0.3,0.3,0.6,0.6,0.6s0.6-0.3,0.6-0.6V9.6c0-0.3-0.3-0.6-0.6-0.6S33.6,9.3,33.6,9.6z"></path> <path class="st6" d="M37.9,18.3V7.1c0-0.3-0.3-0.6-0.6-0.6s-0.6,0.3-0.6,0.6v11.2c0,0.3,0.3,0.6,0.6,0.6 C37.7,18.9,37.9,18.6,37.9,18.3z"></path> <path class="st6" d="M23.8,15c0.1,0.1,0.3,0.2,0.5,0.2c0.1,0,0.3-0.1,0.4-0.1l9.7-8.3l0,0c-0.1,0.3,0.2,0.7,0.5,0.7 c0,0,0.1,0,0.1,0c0.3,0,0.5-0.2,0.6-0.5L36,4.8c0-0.2,0-0.4-0.2-0.6C35.7,4,35.4,4,35.2,4.1l-2.1,0.7c-0.3,0.1-0.5,0.5-0.4,0.8 C32.9,5.8,33.1,6,33.3,6l-9.5,8.1C23.6,14.3,23.6,14.7,23.8,15z"></path> <path class="st6" d="M18.7,6.8c0,0.1,0,0.2,0,0.3v0c0,0.3,0.3,0.6,0.6,0.6s0.6-0.3,0.6-0.6c0-0.1,0-0.2,0-0.2 c0-0.3-0.2-0.6-0.6-0.7C19,6.2,18.8,6.4,18.7,6.8z"></path> <path class="st6" d="M19.5,8.4c-0.3,0.2-0.4,0.6-0.2,0.9c0.1,0.1,0.1,0.2,0.2,0.3c0.1,0.2,0.3,0.2,0.5,0.2c0.1,0,0.2,0,0.4-0.1 c0.3-0.2,0.3-0.6,0.1-0.9c0-0.1-0.1-0.1-0.1-0.2C20.2,8.3,19.8,8.2,19.5,8.4z"></path> <path class="st6" d="M19.7,4.5c-0.1,0.1-0.1,0.2-0.2,0.3c-0.2,0.3-0.1,0.7,0.1,0.9c0.1,0.1,0.2,0.1,0.4,0.1c0.2,0,0.4-0.1,0.5-0.3 c0-0.1,0.1-0.1,0.2-0.2c0.2-0.3,0.2-0.7-0.1-0.9C20.3,4.2,19.9,4.2,19.7,4.5z"></path> <path class="st6" d="M20.8,10c-0.1,0.3,0,0.7,0.3,0.8c0.1,0.1,0.2,0.1,0.3,0.1c0.1,0,0.1,0,0.2,0c0.3,0,0.5-0.2,0.6-0.4 c0.1-0.3-0.1-0.7-0.4-0.8c-0.1,0-0.2-0.1-0.2-0.1C21.3,9.6,21,9.7,20.8,10z"></path> <path class="st6" d="M21.7,4.5c0.1,0,0.1,0,0.2,0c0.1,0,0.2-0.1,0.2-0.1c0.3-0.1,0.5-0.4,0.5-0.7c-0.1-0.3-0.4-0.5-0.7-0.5 c-0.1,0-0.2,0.1-0.4,0.1c-0.3,0.1-0.5,0.5-0.4,0.8C21.2,4.3,21.4,4.5,21.7,4.5z"></path> <path class="st6" d="M24.3,3.4c-0.1,0-0.2-0.1-0.3-0.1c-0.3-0.1-0.7,0.1-0.8,0.4c-0.1,0.3,0.1,0.7,0.4,0.8c0.1,0,0.2,0.1,0.2,0.1 s0.2,0.1,0.2,0.1c0.2,0,0.5-0.1,0.6-0.4C24.8,3.9,24.6,3.5,24.3,3.4z"></path> <path class="st6" d="M22.9,10.6c0.1,0.3,0.3,0.5,0.6,0.5c0,0,0.1,0,0.1,0c0.1,0,0.2-0.1,0.4-0.1c0.3-0.1,0.5-0.5,0.4-0.8 c-0.1-0.3-0.5-0.5-0.8-0.4c-0.1,0-0.2,0.1-0.2,0.1C23,9.9,22.8,10.3,22.9,10.6z"></path> <path class="st6" d="M24.9,9.8C25,9.9,25.2,10,25.3,10c0.2,0,0.3-0.1,0.5-0.2c0.1-0.1,0.2-0.2,0.2-0.3c0.2-0.3,0.1-0.7-0.1-0.9 c-0.3-0.2-0.7-0.1-0.9,0.1c0,0.1-0.1,0.1-0.1,0.2C24.6,9.2,24.6,9.6,24.9,9.8z"></path> <path class="st6" d="M26,4.8c-0.2-0.3-0.6-0.3-0.9-0.1c-0.3,0.2-0.3,0.6-0.1,0.9c0,0.1,0.1,0.1,0.1,0.2C25.2,5.9,25.4,6,25.7,6 c0.1,0,0.2,0,0.3-0.1c0.3-0.2,0.4-0.6,0.2-0.8C26.1,4.9,26.1,4.8,26,4.8z"></path> <path class="st6" d="M26.1,6.5c-0.3,0-0.6,0.3-0.6,0.6c0,0.1,0,0.2,0,0.2c0,0.3,0.2,0.6,0.6,0.7c0,0,0,0,0.1,0 c0.3,0,0.6-0.2,0.6-0.6c0-0.1,0-0.2,0-0.4v0C26.8,6.8,26.5,6.5,26.1,6.5z"></path> <path class="st6" d="M12.2,17.4c-0.4,0-0.7,0-1-0.1l-0.8,4.4c-0.1,0.4,0.1,0.9,0.6,1.2l0.9,0.6l0.1,0c0.2,0.1,0.4,0.1,0.6,0.1 s0.5,0,0.6-0.1l0.9-0.6c0.4-0.2,0.7-0.8,0.5-1.2l-1-4.4c-0.4,0.1-0.8,0.2-1.2,0.2l1,4.4l-0.8,0.5c0,0-0.1,0-0.1,0l-0.8-0.5l0.8-4.4 C12.3,17.4,12.3,17.4,12.2,17.4z"></path> <path class="st6" d="M42,0H13.4c-0.7,0-1.2,0.6-1.2,1.4v4.2c0.4,0,0.8,0.1,1.2,0.1V1.4c0-0.1,0-0.1,0-0.1h28.4c0,0,0,0,0,0.1v20.2 c0,0.1,0,0.1,0,0.1H22.5c0.1,0.4,0.1,0.8,0.2,1.2H42c0.7,0,1.2-0.6,1.2-1.4V1.4C43.2,0.6,42.6,0,42,0z"></path> </g> <g class="st0"> <path class="st11" d="M41.3,33.7c1.4,0,2.4-1.1,2.4-2.4V2.4c0-1.3-1.1-2.4-2.4-2.4H6.4C5.1,0,4,1.1,4,2.4v28.9 c0,1.4,1.1,2.4,2.4,2.4h11.3v4.7h-2.2c-0.4,0-0.6,0.2-0.6,0.6s0.2,0.6,0.6,0.6c7.4,0,8.6,0,16.7,0c0.4,0,0.6-0.2,0.6-0.6 s-0.2-0.6-0.6-0.6h-2.2v-4.7C30.1,33.7,41.3,33.7,41.3,33.7z M6.4,1.2h34.9c0.6,0,1.2,0.6,1.2,1.2v24.6H5.2V2.4 C5.2,1.8,5.8,1.2,6.4,1.2z M5.2,31.3v-3h37.3v3c0,0.7-0.6,1.2-1.2,1.2c-13.2,0-23.5,0-34.9,0C5.8,32.4,5.2,31.9,5.2,31.3z M28.8,38.4H19v-4.7h9.9L28.8,38.4L28.8,38.4z"></path> <path class="st11" d="M21.1,31h5.4c0.4,0,0.6-0.2,0.6-0.6s-0.2-0.6-0.6-0.6h-5.4c-0.4,0-0.6,0.2-0.6,0.6S20.8,31,21.1,31z"></path> <path class="st11" d="M12.8,10.6l2.4,0.9v7.7c0,1.3,2,1.8,2.7,1.9c1.3,0.3,3,0.4,4.9,0.4c1.7,0,7.5-0.2,7.5-2.4v-7.7l2.3-0.9h1.6 v9.5c0,0.4,0.2,0.6,0.6,0.6s0.6-0.2,0.6-0.6V10c0-0.4-0.2-0.6-0.6-0.6h-2.2l-9.6-3.6c-0.1-0.1-0.3-0.1-0.4,0l-9.7,3.6 c-0.2,0.1-0.4,0.3-0.4,0.6S12.6,10.5,12.8,10.6z M29,19.2c-0.1,0.4-2.4,1.2-6.3,1.2s-6.1-0.7-6.3-1.2V12l6.1,2.3 c0.1,0,0.1,0.1,0.2,0.1c0.1,0,0.1,0,0.2-0.1l6-2.3L29,19.2L29,19.2z M22.7,7.1L29,9.4h-5.5c-0.4,0-0.6,0.2-0.6,0.6s0.2,0.6,0.6,0.6 H29L22.7,13l-7.9-3L22.7,7.1z"></path> </g> <g class="st0"> <path class="st8" d="M38.7,5.5C37.2,2.2,34,0,30.4,0c-3.1,0-6.1,1.7-7.7,4.3c-1.6-1.3-3.6-2-5.6-2c-5,0-9,4-9,9v2H6.5 c-3,0-5.5,2.5-5.5,5.5c0,2.8,2,5,4.7,5.4v13.4c0,1.3,1.1,2.3,2.3,2.3h35.2v-1.6h-3.9V24.2c4.8-0.4,8.6-4.4,8.6-9.4 C48,9.7,43.8,5.5,38.7,5.5z M14.3,38.4h-3.1v-5.5h3.1V38.4z M22.1,38.4H19V29h3.1C22.2,29,22.2,38.4,22.1,38.4z M30,38.4h-3.1V25.1 H30V38.4z M34.7,38.4v-18h3.1v18L34.7,38.4L34.7,38.4z M39.4,22.7v-3.1c0-0.4-0.3-0.8-0.8-0.8h-4.7c-0.4,0-0.8,0.4-0.8,0.8v18.8 h-1.6V24.3c0-0.4-0.4-0.8-0.8-0.8h-4.7c-0.4,0-0.8,0.4-0.8,0.8v14.1h-1.6V28.2c0-0.4-0.4-0.8-0.8-0.8h-4.7c-0.4,0-0.8,0.4-0.8,0.8 v10.2h-1.6v-6.3c0-0.4-0.4-0.8-0.8-0.8h-4.7c-0.4,0-0.8,0.4-0.8,0.8v6.3H8.1c-0.4,0-0.8-0.3-0.8-0.8V24.3h3.9v-1.6H6.5 c-2.2,0-3.9-1.8-3.9-3.9s1.8-3.9,3.9-3.9h2.3c0.4,0,0.8-0.4,0.8-0.8v-2.7c0-4.1,3.3-7.4,7.4-7.4c2,0,3.9,0.8,5.3,2.2 c0.2,0.2,0.4,0.3,0.7,0.2c0.2,0,0.5-0.2,0.6-0.4c1.2-2.6,3.9-4.3,6.8-4.3c3.1,0,6,2,7,5C37.5,6.8,37.8,7,38.1,7h0.5 c4.3,0,7.8,3.5,7.8,7.8C46.4,18.9,43.3,22.3,39.4,22.7z"></path> <path class="st8" d="M38.6,9.4V11c1.7,0,3.1,1.4,3.1,3.1h1.6C43.3,11.5,41.2,9.4,38.6,9.4z"></path> <rect x="41.7" y="15.7" class="st8" width="1.6" height="1.6"></rect> <path class="st8" d="M33.9,6.9c-0.1-0.2-0.2-0.5-0.5-0.6s-0.5-0.1-0.7,0.1l-5.5,3.9c-0.3,0.2-0.4,0.6-0.3,0.9 c0.1,0.3,0.4,0.5,0.8,0.5h0.9c-2.4,3.3-6.4,5.2-10.5,5l-4.5-0.3c-0.2,0-0.4,0.1-0.6,0.2s-0.2,0.4-0.2,0.6v6.3 c0,0.2,0.1,0.4,0.2,0.6c0.1,0.1,0.3,0.2,0.5,0.2c0,0,0,0,0,0l6.6-0.3c6.1-0.3,11.3-4.7,12.6-10.7l0-0.2l1.4,0.9 c0.3,0.2,0.6,0.2,0.9,0c0.3-0.2,0.4-0.5,0.3-0.8L33.9,6.9z M32.8,11.1C32.5,11,32.3,10.9,32,11c-0.2,0.1-0.4,0.3-0.5,0.6l-0.3,1.4 c-1.1,5.3-5.7,9.2-11.2,9.5l-5.8,0.3v-4.6l3.6,0.2c5.2,0.3,10.2-2.4,12.7-6.9c0.1-0.2,0.1-0.5,0-0.8c-0.1-0.2-0.3-0.4-0.6-0.4 l2.6-1.8l0.8,3.2L32.8,11.1z"></path> </g> <g class="st0"> <path class="st3" d="M43.3,32h-1.4V13.2c0-1.9-1.6-3.5-3.5-3.5h-2.1v1.4h2.1c1.2,0,2.1,0.9,2.1,2.1V32h-1.4V13.2 c0-0.4-0.3-0.7-0.7-0.7h-2.1v1.4h1.4V32H11.3V13.9h1.4v-1.4h-2.1c-0.4,0-0.7,0.3-0.7,0.7V32H8.5V13.2c0-1.1,0.9-2.1,2.1-2.1h2.1 V9.8h-2.1c-1.9,0-3.5,1.6-3.5,3.5V32H5.7C5.3,32,5,32.3,5,32.7v2.8C5,37.4,6.6,39,8.5,39h32c1.9,0,3.5-1.6,3.5-3.5v-2.8 C44,32.3,43.7,32,43.3,32z M28.7,33.4v0.7c0,0.4-0.3,0.7-0.7,0.7h-7c-0.4,0-0.7-0.3-0.7-0.7v-0.7H28.7z M42.6,35.5 c0,1.2-0.9,2.1-2.1,2.1l0,0h-32c-1.2,0-2.1-0.9-2.1-2.1l0,0v-2.1h12.5v0.7c0,1.2,0.9,2.1,2.1,2.1h7c1.1,0,2.1-0.9,2.1-2.1v-0.7 h12.5V35.5z M12.7,26.5v1.4h23.7v-1.4h-0.7V0.7c0-0.4-0.3-0.7-0.7-0.7H14.1c-0.4,0-0.7,0.3-0.7,0.7v25.8L12.7,26.5L12.7,26.5z M34.2,1.4v4.2H14.8V1.4H34.2z M14.8,7h19.5v19.5H14.8V7z M12.7,29.2h1.4v1.4h-1.4V29.2z M15.4,30.6v-1.4h1.4v1.4H15.4z M18.2,30.6 v-1.4h1.4v1.4H18.2z M21,30.6v-1.4h1.4v1.4H21z M23.8,30.6v-1.4h1.4v1.4H23.8z M26.6,30.6v-1.4H28v1.4H26.6z M29.4,30.6v-1.4h1.4 v1.4H29.4z M32.2,30.6v-1.4h1.4v1.4H32.2z M35,29.2h1.4v1.4H35V29.2z M24.5,9.1c-4.2,0-7.7,3.4-7.7,7.7s3.4,7.7,7.7,7.7 s7.7-3.4,7.7-7.7S28.7,9.1,24.5,9.1z M24.5,23c-3.5,0-6.3-2.8-6.3-6.3s2.8-6.3,6.3-6.3s6.3,2.8,6.3,6.3S28,23,24.5,23L24.5,23z M25.2,13.2h1.4v1.4h-2.8V16h2.1c0.4,0,0.7,0.3,0.7,0.7v2.8c0,0.4-0.3,0.7-0.7,0.7h-0.7v1.4h-1.4v-1.4h-1.4v-1.4h2.8v-1.4h-2.1 c-0.4,0-0.7-0.3-0.7-0.7v-2.8c0-0.4,0.3-0.7,0.7-0.7h0.7v-1.4h1.4V13.2z M17.5,4.2h-1.4V2.8h1.4V4.2z M20.3,4.2h-1.4V2.8h1.4V4.2z M23.1,4.2h-1.4V2.8h1.4V4.2z M32.9,4.2h-6.3V2.8h6.3V4.2z"></path> </g> <g transform="translate(0,-161.53336)" class="st0"> <path class="st4" d="M13.7,162.2c-2,0-3.7,1.7-3.7,3.7v29.6c0,2,1.7,3.7,3.7,3.7h15.1c0.4,0,0.6-0.3,0.6-0.6c0-0.4-0.3-0.6-0.6-0.6 c0,0,0,0,0,0H13.7c-1.4,0-2.4-1.1-2.4-2.4v-2.2h16.1c0.4,0,0.6-0.3,0.6-0.6c0-0.4-0.3-0.6-0.6-0.6c0,0,0,0,0,0H11.3v-26.1 c0-1.4,1.1-2.4,2.4-2.4h15.5c1.4,0,2.4,1.1,2.4,2.4V182c0,0.4,0.3,0.6,0.6,0.6s0.6-0.3,0.6-0.6v0v-16.2c0-2-1.7-3.7-3.7-3.7 L13.7,162.2z M19.9,165.9c-0.4,0-0.6,0.3-0.6,0.6c0,0.4,0.3,0.6,0.6,0.6c0,0,0,0,0,0H23c0.4,0,0.6-0.3,0.6-0.6 c0-0.4-0.3-0.6-0.6-0.6c0,0,0,0,0,0H19.9z M14.3,171.2c-0.4,0-0.6,0.3-0.6,0.6v4.1c0,0.4,0.3,0.6,0.6,0.6c0.4,0,0.6-0.3,0.6-0.6 c0,0,0,0,0,0v-3.5h3.5c0.4,0,0.6-0.3,0.6-0.6c0-0.4-0.3-0.6-0.6-0.6c0,0,0,0,0,0H14.3z M24.5,171.2c-0.4,0-0.6,0.3-0.6,0.6 s0.3,0.6,0.6,0.6c0,0,0,0,0,0H28v3.5c0,0.4,0.3,0.6,0.6,0.6s0.6-0.3,0.6-0.6c0,0,0,0,0,0v-4.1c0-0.4-0.3-0.6-0.6-0.6H24.5z M17.3,173.8c-0.5,0-0.9,0.4-0.9,0.9v2.3c0,0.5,0.4,0.9,0.9,0.9h2.3c0.5,0,0.9-0.4,0.9-0.9v-2.3c0-0.5-0.4-0.9-0.9-0.9H17.3z M23.3,173.8c-0.5,0-0.9,0.4-0.9,0.9v2.3c0,0.5,0.4,0.9,0.9,0.9h2.3c0.5,0,0.9-0.4,0.9-0.9v-2.3c0-0.5-0.4-0.9-0.9-0.9H23.3z M17.6,175h1.6v1.6h-1.6V175z M23.6,175h1.6v1.6h-1.6V175z M15.4,178.6c-0.4,0-0.6,0.3-0.6,0.6c0,0.4,0.3,0.6,0.6,0.6c0,0,0,0,0,0 h12.1c0.4,0,0.6-0.3,0.6-0.6c0-0.4-0.3-0.6-0.6-0.6c0,0,0,0,0,0H15.4z M17.3,180.7c-0.5,0-0.9,0.4-0.9,0.9v2.3 c0,0.5,0.4,0.9,0.9,0.9h2.3c0.5,0,0.9-0.4,0.9-0.9v-2.3c0-0.5-0.4-0.9-0.9-0.9H17.3z M23.4,180.7c-0.5,0-0.9,0.4-0.9,0.9v2.3 c0,0.4,0.3,0.6,0.6,0.6s0.6-0.3,0.6-0.6c0,0,0,0,0,0V182h1.9c0.4,0,0.6-0.3,0.6-0.6s-0.3-0.6-0.6-0.6c0,0,0,0,0,0L23.4,180.7 L23.4,180.7z M14.3,181.9c-0.4,0-0.6,0.3-0.6,0.6v4.1c0,0.4,0.3,0.6,0.6,0.6h4.1c0.4,0,0.6-0.3,0.6-0.6c0-0.4-0.3-0.6-0.6-0.6 c0,0,0,0,0,0h-3.5v-3.5C14.9,182.2,14.7,181.9,14.3,181.9C14.3,181.9,14.3,181.9,14.3,181.9z M17.6,182h1.6v1.6h-1.6V182z M32.8,183.1c-0.3,0-0.6,0.3-0.6,0.6c0,0.2,0.1,0.4,0.2,0.5c0,0,3.1,2.4,4.7,3.2c0.1,0,0.4,0.5,0.6,1.1s0.4,1.5,0.6,2.4 c0.3,1.7,0.4,3.3,0.4,3.3l0,0.1l1.1,2.7c0.1,0.5-0.1,1-0.6,1.5c-0.5,0.5-1.3,1-2.3,1.4c-0.9,0.3-1.9,0.4-2.7,0.3 c-0.8-0.1-1.4-0.4-1.8-1.1c-0.1-0.6-0.2-1.6-1.6-2.6c-0.3-0.2-0.7-0.2-0.9,0.1s-0.2,0.7,0.1,0.9l0,0c1.2,0.9,1,1.2,1.1,2l0,0.1 l0,0.1c0.6,1,1.6,1.5,2.7,1.7c1.1,0.2,2.2,0,3.3-0.4s2.1-0.9,2.8-1.7c0.7-0.7,1.2-1.7,0.9-2.7l0,0l-1-2.6c0-0.1-0.1-1.6-0.4-3.3 c-0.2-0.9-0.4-1.8-0.6-2.6s-0.5-1.5-1.2-1.8c-1.4-0.8-4.5-3.1-4.5-3.1C33.1,183.1,33,183.1,32.8,183.1L32.8,183.1z M27.7,183.7 L27.7,183.7c-0.5,0-1,0.2-1.4,0.6c-0.8,0.8-0.6,1.9,0,2.7l2.1,2.8c0.4,0.7,0.2,6.5,5.4,6.5c0.3,0,0.6-0.3,0.6-0.6 c0-0.4-0.3-0.6-0.6-0.6c0,0,0,0,0,0c-4.4,0-3.1-3.8-4.3-5.9c0,0,0-0.1,0-0.1l-2.2-2.8c-0.3-0.4-0.3-0.8-0.1-1.1 c0.3-0.3,0.7-0.3,1,0l3,3c0.1,0.1,0.2,0.1,0.3,0.2c0,0,2.2,0.5,2.8,1.7c0.2,0.3,0.5,0.4,0.8,0.3s0.4-0.5,0.3-0.8c0,0,0,0,0-0.1 c-1-1.8-3.1-2.2-3.5-2.3l-2.9-2.9C28.7,183.9,28.2,183.7,27.7,183.7L27.7,183.7z M23.3,186c-0.4,0-0.6,0.3-0.6,0.7 c0,0.3,0.3,0.6,0.6,0.6h1.4c0.4,0,0.6-0.3,0.6-0.6c0-0.4-0.3-0.6-0.6-0.6c0,0,0,0,0,0H23.3C23.4,186,23.4,186,23.3,186z M21.5,194.3c-0.7,0-1.4,0.6-1.4,1.4c0,0.7,0.6,1.4,1.4,1.4c0.7,0,1.4-0.6,1.4-1.4C22.8,194.9,22.2,194.3,21.5,194.3L21.5,194.3z"></path> </g> <g class="st0"> <path class="st5" d="M42.9,27.3l-2.7-0.6c0,0-0.1,0-0.1-0.1c0,0,0-0.1,0-0.1l1.6-2.3c0.2-0.3,0.2-0.6-0.1-0.8l-2.5-2.5 c-0.2-0.2-0.6-0.3-0.8-0.1L36,22.4c-0.1,0-0.2,0-0.2,0c0,0,0,0,0-0.1l-0.6-2.7c-0.1-0.3-0.3-0.5-0.6-0.5h-1v-7.8 c1.3,0.1,2.5,0.5,3.6,1.1c0.3,0.1,0.6,0.1,0.8-0.1l0,0c0.6-0.6,1.3-0.9,2.1-0.9h0c0.8,0,1.5,0.3,2.1,0.9c0.1,0.1,0.3,0.2,0.5,0.2 c0.1,0,0.1,0,0.2,0c0.2-0.1,0.4-0.3,0.5-0.5c0.8-5.7-3.2-11.1-8.9-11.9S23.3,3.3,22.5,9c-0.1,1-0.1,2,0,2.9c0,0.4,0.4,0.6,0.7,0.6 c0.1,0,0.3-0.1,0.4-0.2c0.5-0.6,1.3-0.9,2.1-0.9h0c0.8,0,1.6,0.3,2.1,0.9l0,0c0.2,0.2,0.5,0.3,0.8,0.1c1.1-0.6,2.3-1,3.6-1.1v7.8 h-1c-0.3,0-0.6,0.2-0.6,0.5L30,22.3c0,0,0,0.1-0.1,0.1c0,0-0.1,0-0.1,0l-2.3-1.6c-0.3-0.2-0.6-0.1-0.8,0.1l-1.1,1.1 c-1.1-1-2.2-2-3.4-2.8c-0.1-0.1-0.2-0.1-0.4-0.1l3.8-4.9c0.2-0.3,0.2-0.7-0.1-0.9c-0.2-0.1-0.4-0.2-0.6-0.1l-4,1l0.9-2.1 c0.1-0.3,0-0.7-0.4-0.9c-0.2-0.1-0.4-0.1-0.5,0l-4.3,1.8l-3.6-2.4c-0.3-0.2-0.7-0.1-0.9,0.2c-0.1,0.2-0.1,0.4-0.1,0.6l0.8,2 l-3.3-0.9c-0.4-0.1-0.7,0.1-0.8,0.4c-0.1,0.2,0,0.4,0.1,0.6l3.9,5.5h-0.1c-0.1,0-0.3,0-0.4,0.1c-2,1.5-8.1,6.1-8.1,11 c0,8.2,7.5,9.2,13.1,9.2c3.9,0,6.9-0.6,9-1.7l0.5,0.5c0.2,0.2,0.6,0.3,0.8,0.1l2.3-1.6c0.1,0,0.2,0,0.2,0c0,0,0,0,0,0.1l0.6,2.7 c0.1,0.3,0.3,0.5,0.6,0.5h3.3c0.3,0,0.6-0.2,0.6-0.5l0.6-2.7c0,0,0-0.1,0.1-0.1s0.1,0,0.2,0l2.3,1.6c0.3,0.2,0.6,0.2,0.8-0.1 l2.5-2.5c0.2-0.2,0.3-0.6,0.1-0.8l-1.6-2.3c0,0,0-0.1,0-0.2c0,0,0.1-0.1,0.1-0.1l2.7-0.6c0.3-0.1,0.5-0.3,0.5-0.6V28 C43.4,27.6,43.2,27.4,42.9,27.3z M42.1,10.6C42.1,10.6,42.1,10.6,42.1,10.6c-0.6-0.2-1.3-0.4-2-0.4c-0.7,0-1.4,0.2-2,0.5v0 c0-3.7-0.9-6.8-2.3-8.7C39.6,3.2,42.1,6.7,42.1,10.6z M25.7,10.1c-0.7,0-1.4,0.2-2,0.5c0,0,0-0.1,0-0.1c0-3.9,2.5-7.4,6.2-8.7 c-1.4,1.9-2.3,5-2.3,8.7v0C27,10.3,26.3,10.1,25.7,10.1z M28.9,10.6c0-5.4,2.1-9.2,3.9-9.2s3.9,3.8,3.9,9.2v0.2 c-2.5-1.1-5.4-1.1-7.9,0C28.9,10.8,28.9,10.6,28.9,10.6z M23.3,14.9l-3.2,4.2h-1.3l1.4-3.4L23.3,14.9z M16.1,14.4 c0.2,0.1,0.4,0.1,0.6,0.1l3.1-1.3l-2.5,6h-1.1l-2.4-6.2L16.1,14.4z M10.9,14.3l2.4,0.7l1.6,4.1h-0.7L10.9,14.3z M17.1,38.1 c-8.2,0-11.8-2.4-11.8-7.9c0-2.8,2.5-6.1,7.4-9.9h1.5l-1.5,5c-0.2,0.8,0.2,1.7,1.1,2c0.6,0.2,1.2,0,1.6-0.4l1.5-1.5L16,24.5 L14.5,26c-0.1,0.1-0.3,0.1-0.4,0C14,26,14,25.8,14,25.7l1.6-5.3h1.6l1.2,5.4l1.3-0.3l-1.1-5.1h2.9c1.1,0.8,2.1,1.7,3.1,2.6 l-0.4,0.4C24,23.6,24,24,24.1,24.2l1.6,2.3c0,0,0,0.1,0,0.1s-0.1,0.1-0.1,0.1l-2.7,0.6c-0.3,0.1-0.5,0.3-0.5,0.6v3.3 c0,0.3,0.2,0.6,0.5,0.6l2.7,0.6c0,0,0.1,0,0.1,0.1s0,0.1,0,0.2L24.1,35c-0.2,0.3-0.1,0.6,0.1,0.8l1,1 C23.3,37.7,20.6,38.1,17.1,38.1z M42.1,30.7l-2.2,0.5c-0.8,0.2-1.3,1-1.1,1.8c0,0.2,0.1,0.4,0.2,0.5l1.2,1.8l-1.7,1.7l-1.8-1.2 c-0.7-0.5-1.6-0.3-2,0.4c-0.1,0.2-0.2,0.3-0.2,0.5L34,38.8h-2.2l-0.5-2.2c-0.2-0.8-1-1.3-1.8-1.1c-0.2,0-0.4,0.1-0.5,0.2l-1.8,1.2 l-1.7-1.7l1.2-1.8c0.5-0.7,0.3-1.6-0.4-2c-0.2-0.1-0.3-0.2-0.5-0.2l-2.2-0.5v-2.2l2.2-0.5c0.8-0.2,1.3-1,1.1-1.8 c0-0.2-0.1-0.4-0.2-0.5L25.5,24l1.7-1.7l1.8,1.2c0.7,0.5,1.6,0.3,2-0.4c0.1-0.2,0.2-0.3,0.2-0.5l0.5-2.2H34l0.5,2.2 c0.2,0.8,1,1.3,1.8,1.1c0.2,0,0.4-0.1,0.5-0.2l1.8-1.2l1.7,1.7L39,25.8c-0.5,0.7-0.3,1.6,0.4,2c0.2,0.1,0.3,0.2,0.5,0.2l2.2,0.5 L42.1,30.7z"></path> <path class="st5" d="M35.7,28c0.3,0.5,0.4,1.1,0.4,1.6h1.3c0-0.8-0.2-1.6-0.6-2.3L35.7,28z"></path> <path class="st5" d="M32.9,32.9c-1.8,0-3.3-1.5-3.3-3.3c0-1.8,1.5-3.3,3.3-3.3c0.7,0,1.3,0.2,1.8,0.5l0.7-1.1 c-2.1-1.4-5-0.8-6.4,1.3c-1.4,2.1-0.8,5,1.3,6.4s5,0.8,6.4-1.3c0-0.1,0.1-0.2,0.2-0.2l-1.1-0.7C35.1,32.3,34,32.9,32.9,32.9z"></path> <path class="st5" d="M17.8,29h-1.3v0.8c-1,0.4-1.6,1.5-1.2,2.5c0.3,0.8,1,1.3,1.9,1.3c0.4,0,0.7,0.3,0.7,0.7c0,0.4-0.3,0.7-0.7,0.7 h-2v1.3h1.3v0.7h1.3v-0.8c1-0.4,1.6-1.5,1.2-2.5c-0.3-0.8-1-1.3-1.9-1.3c-0.4,0-0.7-0.3-0.7-0.7c0-0.4,0.3-0.7,0.7-0.7h2v-1.3h-1.3 V29z"></path> </g> <g class="st0"> <g class="st1"> <g> <path class="st13" d="M20.8,8.1c0-0.4-0.3-0.7-0.7-0.7c-0.4,0-0.6,0.3-0.6,0.7c0,0.4,0.3,0.7,0.6,0.7C20.5,8.8,20.8,8.5,20.8,8.1 z"></path> <path class="st13" d="M26.9,8.1c0-0.4-0.3-0.7-0.6-0.7c-0.4,0-0.6,0.3-0.6,0.7c0,0.4,0.3,0.7,0.6,0.7S26.9,8.5,26.9,8.1z"></path> <path class="st13" d="M23.9,8.1c0-0.4-0.3-0.7-0.7-0.7c-0.4,0-0.6,0.3-0.6,0.7c0,0.4,0.3,0.7,0.6,0.7C23.5,8.8,23.9,8.5,23.9,8.1 z"></path> <path class="st13" d="M29.5,35.2h-20V12.1H16v21c0,0.4,0.3,0.7,0.6,0.7c0.4,0,0.6-0.3,0.6-0.7v-21h19.3c0.4,0,0.7-0.3,0.7-0.6 s-0.3-0.6-0.7-0.6H8.8c-0.4,0-0.6,0.3-0.6,0.6V36c0,0.4,0.3,0.7,0.6,0.7h20.6c0.4,0,0.6-0.3,0.6-0.7 C30.1,35.6,29.8,35.2,29.5,35.2z"></path> <path class="st13" d="M40.3,4.8c0-0.4-0.3-0.7-0.7-0.7H8.8c-0.4,0-0.6,0.3-0.6,0.7v4c0,0.4,0.3,0.6,0.6,0.6s0.6-0.3,0.6-0.6V5.5 H16v3.4c0,0.4,0.3,0.6,0.6,0.6c0.4,0,0.6-0.3,0.6-0.6V5.5h21.6v21.6c0,0.4,0.3,0.6,0.7,0.6s0.7-0.3,0.7-0.6L40.3,4.8z"></path> <path class="st13" d="M14.3,15.8c0-0.4-0.3-0.6-0.6-0.6h-2c-0.4,0-0.6,0.3-0.6,0.6c0,0.4,0.3,0.6,0.6,0.6h2 C14.1,16.5,14.3,16.2,14.3,15.8z"></path> <path class="st13" d="M11.6,17.7c-0.4,0-0.6,0.3-0.6,0.6s0.3,0.6,0.6,0.6h0.8c0.4,0,0.6-0.3,0.6-0.6s-0.3-0.6-0.6-0.6H11.6z"></path> <path class="st13" d="M36.9,32.5l2-0.8c0.2-0.1,0.4-0.3,0.4-0.6c0-0.2-0.2-0.5-0.4-0.6l-7.1-3.3c-0.2-0.1-0.5-0.1-0.7,0.1 c-0.2,0.2-0.2,0.5-0.2,0.7l2.8,7.3c0.1,0.2,0.3,0.4,0.6,0.4h0c0.2,0,0.5-0.2,0.6-0.4l1-2l2.9,3c0.2,0.2,0.3,0.2,0.5,0.2 s0.3-0.1,0.5-0.2c0.2-0.2,0.3-0.7,0-0.9L36.9,32.5z M34.4,33.4l-1.6-4.3l4.2,2l-1.5,0.6c-0.2,0.1-0.2,0.2-0.3,0.3L34.4,33.4z"></path> <path class="st13" d="M30.8,23.6c-0.4,0.1-0.5,0.5-0.4,0.8l0.4,1.2c0.1,0.3,0.4,0.5,0.6,0.5c0.1,0,0.1,0,0.2,0 c0.4-0.1,0.5-0.5,0.4-0.8l-0.4-1.2C31.5,23.8,31.2,23.5,30.8,23.6z"></path> <path class="st13" d="M35.6,27.9c0.1,0,0.2,0,0.2,0l1.3-0.4c0.4-0.1,0.5-0.5,0.4-0.8c-0.1-0.4-0.5-0.5-0.8-0.4l-1.2,0.4 c-0.4,0.1-0.5,0.5-0.4,0.8C35.1,27.7,35.4,27.9,35.6,27.9z"></path> <path class="st13" d="M29,28.6L28,28.9c-0.4,0.1-0.5,0.5-0.4,0.8c0.1,0.3,0.4,0.5,0.6,0.5c0.1,0,0.1,0,0.2,0l0.9-0.3 c0.4-0.1,0.5-0.5,0.4-0.8C29.7,28.6,29.3,28.5,29,28.6z"></path> <path class="st13" d="M30.1,27.2c0.2-0.3,0-0.7-0.3-0.9l-1-0.6c-0.3-0.2-0.7,0-0.9,0.3c-0.2,0.3,0,0.7,0.3,0.9l1,0.6 c0.1,0,0.2,0.1,0.3,0.1C29.8,27.5,30,27.4,30.1,27.2z"></path> <path class="st13" d="M33.6,24.3l-0.6,1c-0.2,0.3,0,0.7,0.3,0.9c0.1,0,0.2,0.1,0.3,0.1c0.2,0,0.5-0.1,0.6-0.4l0.6-1 c0.2-0.3,0-0.7-0.3-0.9C34.2,23.9,33.8,24,33.6,24.3z"></path> <path class="st13" d="M30.9,30.8c-0.3-0.2-0.7,0-0.9,0.3l-0.6,1.2c-0.2,0.3,0,0.7,0.3,0.9c0.1,0,0.2,0.1,0.3,0.1 c0.2,0,0.5-0.2,0.6-0.4l0.6-1.2C31.3,31.4,31.2,31,30.9,30.8z"></path> </g> </g> <path class="st6" d="M28.2,19.6c-1.7,0-3-1.3-3-3s1.3-3,3-3s3,1.3,3,3C31.2,18.3,29.8,19.6,28.2,19.6z M28.2,14.9 c-0.9,0-1.7,0.8-1.7,1.7s0.8,1.7,1.7,1.7s1.7-0.8,1.7-1.7C30,15.6,29.2,14.9,28.2,14.9z"></path> <path class="st6" d="M36.6,19.2h-3.8c-0.4,0-0.7-0.3-0.7-0.6v-3.9c0-0.4,0.3-0.6,0.7-0.6h3.8c0.4,0,0.7,0.3,0.7,0.6v3.9 C37.2,18.9,36.9,19.2,36.6,19.2z M33.3,17.9h2.6v-2.6h-2.6V17.9z"></path> <path class="st6" d="M23.2,19.5c-0.1,0-0.2,0-0.3-0.1l-1.1-0.6l-1.1,0.6c-0.2,0.1-0.5,0.1-0.6,0c-0.2-0.1-0.3-0.4-0.2-0.6l0.2-1.3 l-0.9-0.9c-0.2-0.2-0.2-0.4-0.1-0.6c0.1-0.2,0.3-0.4,0.5-0.4l1.3-0.2l0.6-1.2c0.1-0.2,0.3-0.4,0.6-0.4s0.5,0.1,0.6,0.4l0.6,1.2 l1.3,0.2c0.2,0,0.4,0.2,0.5,0.4s0,0.5-0.1,0.6l-0.9,0.9l0.2,1.3c0,0.2-0.1,0.5-0.2,0.6C23.5,19.4,23.4,19.5,23.2,19.5z M21.8,17.5 c0.1,0,0.2,0,0.3,0.1l0.3,0.1l-0.1-0.3c0-0.2,0-0.4,0.2-0.5l0.2-0.2l-0.3,0c-0.2,0-0.4-0.1-0.5-0.4l-0.1-0.3l-0.1,0.2 c-0.1,0.2-0.2,0.3-0.5,0.4l-0.3,0l0.2,0.2c0.1,0.1,0.2,0.4,0.2,0.5l-0.1,0.3l0.3-0.1C21.6,17.5,21.7,17.5,21.8,17.5z"></path> </g> <g class="st0"> <path class="st8" d="M13.7,39.9h17.5c2.1,0,3.7-1.7,3.7-3.7V3.7c0-2.1-1.7-3.7-3.7-3.7H13.7C11.7,0,10,1.7,10,3.7v32.4 C10,38.2,11.7,39.9,13.7,39.9z M31.2,38.6H13.7c-0.9,0-1.7-0.5-2.2-1.2h21.8C32.9,38.2,32.1,38.6,31.2,38.6z M26.8,1.2l-0.5,1.2 c-0.1,0.2-0.3,0.4-0.6,0.4h-6.5c-0.2,0-0.5-0.2-0.6-0.4l-0.5-1.2H26.8z M11.2,3.7c0-1.4,1.1-2.5,2.5-2.5h3l0.8,1.7 c0.3,0.7,1,1.1,1.7,1.1h6.5c0.7,0,1.4-0.4,1.7-1.1l0.8-1.7h3c1.4,0,2.5,1.1,2.5,2.5v32.4H11.2V3.7z"></path> <path class="st8" d="M21.5,10.6h0.3v0.3c0,0.3,0.3,0.6,0.6,0.6s0.6-0.3,0.6-0.6v-0.3h0.3c0.3,0,0.6-0.3,0.6-0.6s-0.3-0.6-0.6-0.6 h-0.3V9c0-0.3-0.3-0.6-0.6-0.6S21.8,8.7,21.8,9v0.3h-0.3c-0.3,0-0.6,0.3-0.6,0.6C20.9,10.3,21.2,10.6,21.5,10.6z"></path> <path class="st8" d="M32.1,28h-1.2v-1.9c0-2.8-1.8-5.3-4.5-6.2c-0.3-0.3-0.6-0.6-0.9-1c1.3-1.2,2-2.9,1.9-4.7c0-0.4,0-0.7-0.1-1.1 c0.1-0.9,0.1-1.7,0.1-2.6c0-1.2-0.4-2.3-1.2-3c-0.4-0.3-0.9-0.6-1.4-0.7c-0.8-0.3-1.6-0.4-2.4-0.4c-0.5,0-1,0-1.4,0.1 c-0.4,0.1-0.7,0.2-1.1,0.3c-0.5,0.2-1,0.4-1.4,0.7c-0.8,0.7-1,2.1-1.1,3.2c0,0.9,0,1.7,0,2.6c0,0.3-0.1,0.6-0.1,1 c0,1.8,0.7,3.4,1.9,4.6c-0.3,0.4-0.6,0.7-0.9,1c-2.6,0.9-4.4,3.4-4.4,6.2v1.9h-1.3c-0.3,0-0.6,0.3-0.6,0.6s0.3,0.6,0.6,0.6h19.3 c0.3,0,0.6-0.3,0.6-0.6C32.8,28.3,32.5,28,32.1,28z M18.7,10.9c0.1-1.6,0.5-2.1,0.7-2.3c0.3-0.2,0.6-0.4,1-0.5 C20.7,8,21,7.9,21.2,7.9c0.4-0.1,0.8-0.1,1.2-0.1c0.7,0,1.3,0.1,1.9,0.3c0.4,0.1,0.7,0.3,1,0.5c0.5,0.4,0.7,1.1,0.8,2.1 c0,0.4,0,1.2,0,1.8c-1.2-0.2-2.5-0.3-3.8-0.4c-0.1,0-0.2,0-0.3,0c-1.1,0-2.3,0.1-3.4,0.4C18.7,11.8,18.7,11.1,18.7,10.9z M18.7,14.3c0-0.2,0-0.3,0-0.5c1.1-0.2,2.2-0.4,3.4-0.4c0.1,0,0.2,0,0.3,0c1.3,0,2.5,0.2,3.8,0.4c0,0.2,0,0.3,0,0.5 c0,2.6-1.7,4.7-3.7,4.7S18.7,16.9,18.7,14.3z M25.3,20.7l-2.8,3l-2.9-3.1c0.3-0.3,0.5-0.6,0.8-0.9c1.3,0.7,2.8,0.7,4.1,0 C24.8,20.1,25,20.4,25.3,20.7z M29.6,28H15.3v-1.9c0-2.1,1.3-4,3.2-4.9l3.5,3.7c0.1,0.1,0.3,0.2,0.5,0.2l0,0c0.2,0,0.3-0.1,0.5-0.2 l3.5-3.7c1.9,0.8,3.2,2.7,3.2,4.9L29.6,28L29.6,28z"></path> <path class="st8" d="M31.2,18.4c0,1.1-0.2,2.1-0.6,3.2c0.3,0.4,0.6,0.8,0.8,1.3c2.1-4.2,1-9.3-2.7-12.2c0,0,0,0,0,0.1 c0,0.4,0,1,0,1.6C30.3,13.9,31.2,16.1,31.2,18.4z"></path> <path class="st8" d="M14.3,21.5c-1.2-3.2-0.5-6.8,1.9-9.3c0-0.9,0-1.5,0-1.5c0-0.1,0-0.1,0-0.2c-3.7,2.9-4.8,8.1-2.7,12.3 C13.8,22.4,14,22,14.3,21.5z"></path> </g> <g class="st0"> <g class="st1"> <g> <path class="st12" d="M41.9,30.9H3.7c-1.5,0-2.7-1.2-2.7-2.7V2.7C1,1.2,2.2,0,3.7,0h38.2c1.5,0,2.7,1.2,2.7,2.7v25.5 C44.6,29.7,43.5,30.9,41.9,30.9z M3.7,1.8c-0.5,0-0.9,0.4-0.9,0.9v25.5c0,0.5,0.4,0.9,0.9,0.9h38.2c0.5,0,0.9-0.4,0.9-0.9V2.7 c0-0.5-0.4-0.9-0.9-0.9C41.9,1.8,3.7,1.8,3.7,1.8z"></path> </g> </g> <g class="st1"> <g> <path class="st12" d="M43.7,23.6H1.9c-0.5,0-0.9-0.4-0.9-0.9c0-0.5,0.4-0.9,0.9-0.9h41.8c0.5,0,0.9,0.4,0.9,0.9 C44.6,23.3,44.3,23.6,43.7,23.6z"></path> </g> </g> <g class="st1"> <g> <path class="st12" d="M31,40c-0.5,0-0.9-0.4-0.9-0.9c0-1.5-1.2-2.7-2.7-2.7h-9.1c-1.5,0-2.7,1.2-2.7,2.7c0,0.5-0.4,0.9-0.9,0.9 s-0.9-0.4-0.9-0.9c0-2.5,2-4.5,4.5-4.5h9.1c2.5,0,4.5,2,4.5,4.5C31.9,39.6,31.5,40,31,40z"></path> </g> </g> <g class="st1"> <g> <path class="st12" d="M24.6,36.4H21c-0.5,0-0.9-0.4-0.9-0.9V30c0-0.5,0.4-0.9,0.9-0.9h3.6c0.5,0,0.9,0.4,0.9,0.9v5.5 C25.5,36,25.2,36.4,24.6,36.4z M21.9,34.5h1.8v-3.6h-1.8V34.5z"></path> </g> </g> <g class="st1"> <g> <path class="st12" d="M13.7,18.2c-0.6,0-0.9-0.4-0.9-0.9V6.4c0-0.6,0.4-0.9,0.9-0.9s0.9,0.4,0.9,0.9v10.9 C14.6,17.8,14.3,18.2,13.7,18.2z"></path> </g> </g> <g class="st1"> <g> <path class="st12" d="M19.2,12.7H8.3c-0.6,0-0.9-0.4-0.9-0.9s0.4-0.9,0.9-0.9h10.9c0.5,0,0.9,0.4,0.9,0.9S19.7,12.7,19.2,12.7z"></path> </g> </g> <g class="st1"> <g> <path class="st12" d="M37.4,7.3H24.6c-0.5,0-0.9-0.4-0.9-0.9s0.4-0.9,0.9-0.9h12.7c0.5,0,0.9,0.4,0.9,0.9S37.9,7.3,37.4,7.3z"></path> </g> </g> <g class="st1"> <g> <path class="st12" d="M37.4,10.9H24.6c-0.5,0-0.9-0.4-0.9-0.9s0.4-0.9,0.9-0.9h12.7c0.5,0,0.9,0.4,0.9,0.9S37.9,10.9,37.4,10.9z"></path> </g> </g> <g class="st1"> <g> <path class="st12" d="M37.4,14.6H24.6c-0.5,0-0.9-0.4-0.9-0.9s0.4-0.9,0.9-0.9h12.7c0.5,0,0.9,0.4,0.9,0.9S37.9,14.6,37.4,14.6z"></path> </g> </g> <g class="st1"> <g> <path class="st12" d="M37.4,18.2H24.6c-0.5,0-0.9-0.4-0.9-0.9s0.4-0.9,0.9-0.9h12.7c0.5,0,0.9,0.4,0.9,0.9 C38.3,17.8,37.9,18.2,37.4,18.2z"></path> </g> </g> </g> <g class="st0"> <circle class="st4" cx="23.7" cy="4" r="1.3"></circle> <path class="st4" d="M35,5.3h-4c0-1.5-1.2-2.7-2.7-2.7h-0.9c-0.7-2.1-3-3.2-5.1-2.4c-1.1,0.4-2,1.3-2.4,2.4H19 c-1.5,0-2.7,1.2-2.7,2.7h-4C10.5,5.3,9,6.8,9,8.7v28c0,1.8,1.5,3.3,3.3,3.3H35c1.8,0,3.3-1.5,3.3-3.3v-28C38.3,6.8,36.8,5.3,35,5.3 z M17.7,5.3C17.7,4.6,18.3,4,19,4h2l0.1-0.5c0.3-1.4,1.7-2.4,3.1-2.1c1,0.2,1.9,1,2.1,2.1L26.4,4h2c0.7,0,1.3,0.6,1.3,1.3v2h-12 V5.3z M37,36.7c0,1.1-0.9,2-2,2H12.3c-1.1,0-2-0.9-2-2v-28c0-1.1,0.9-2,2-2h4v0.7c0,0.7,0.6,1.3,1.3,1.3h12c0.7,0,1.3-0.6,1.3-1.3 V6.7h4c1.1,0,2,0.9,2,2L37,36.7L37,36.7z"></path> <path class="st4" d="M19,10.7h9.3c0.4,0,0.7-0.3,0.7-0.7s-0.3-0.7-0.7-0.7H19c-0.4,0-0.7,0.3-0.7,0.7S18.6,10.7,19,10.7z"></path> <path class="st4" d="M33,23.3h-4.2l-3.1-7.9l-3.9,10.3l-1.9-7.7l-2.6,5.2h-2.9c-0.4,0-0.7,0.3-0.7,0.7s0.3,0.7,0.7,0.7h3.8l1.4-2.8 l2.1,8.3l4.1-11.1l2.2,5.5H33c0.4,0,0.7-0.3,0.7-0.7C33.7,23.6,33.4,23.3,33,23.3z"></path> </g> <g class="st0"> <g class="st1"> <path class="st14" d="M25.7,38.9c-1.8,0-3.1-0.3-3.5-0.3c-1.4,0-3-0.7-4.9-1.5c-3.5-1.5-7.5-3.2-10.5-0.3 c-0.2,0.2-0.4,0.2-0.7,0.2c-0.2,0-0.4-0.2-0.6-0.5l-3.1-7.7c-0.1-0.3,0-0.7,0.3-0.9c0.8-0.5,8.3-5.3,10.8-5.7 c3.5-0.5,9.3,2.5,11,3.5c1.7,1,3.3,1.1,4.8,1.3c1.7,0.2,3.4,0.4,4.9,1.6c0.1,0.1,0.2,0.2,0.3,0.3c1.9-1.7,6.7-5.9,9.1-5.6 c0.5,0.1,0.9,0.3,1.2,0.7c0.4,0.4,0.7,1.4,1.1,2.9c0.1,0.3,0,0.6-0.3,0.8c-0.1,0-5.8,3.9-8,6.3C33.7,38.1,28.9,38.9,25.7,38.9z M22.3,37.1c0.1,0,0.1,0,0.2,0c0.1,0,8.3,1.9,14.1-4.2c2-2.1,6.4-5.2,7.8-6.2c-0.3-1.3-0.6-1.6-0.7-1.7c0,0-0.1-0.1-0.1-0.1 c0,0,0-0.1-0.1-0.1C42,24.6,37.7,28,35,30.5c0,0-0.1,0.1-0.2,0.1c0,0,0,0,0,0c-1,2.2-7.5,3.3-9,3c-0.8-0.2-1.6-0.5-2.3-0.9 c-0.8-0.4-1.6-0.8-2.4-0.7c-0.4,0-0.8-0.3-0.8-0.7c0-0.4,0.3-0.8,0.7-0.8c1.1-0.1,2.2,0.4,3.2,0.9c0.7,0.3,1.3,0.6,1.9,0.8 c1,0.2,5.2-0.6,6.9-1.7c0.3-0.2,0.4-0.4,0.4-0.4l0,0c0,0,0-0.1-0.2-0.2c-1.1-1-2.5-1.1-4-1.3c-1.6-0.2-3.4-0.4-5.4-1.5 c-4.1-2.3-8-3.6-10-3.3c-1.7,0.3-7.1,3.5-9.7,5.2l2.5,6.1c3.6-2.6,7.9-0.8,11.3,0.8C19.6,36.4,21.1,37.1,22.3,37.1 C22.3,37.1,22.3,37.1,22.3,37.1z"></path> </g> <g class="st1"> <path class="st14" d="M8.8,35.4c-0.3,0-0.6-0.2-0.7-0.5l-3.3-7.6c-0.2-0.4,0-0.8,0.4-1c0.4-0.2,0.8,0,1,0.4l3.3,7.6 c0.2,0.4,0,0.8-0.4,1C9,35.4,8.9,35.4,8.8,35.4z"></path> </g> <g class="st1"> <path class="st14" d="M18.6,31.9C18.6,31.9,18.6,31.9,18.6,31.9c-0.1,0-1-0.1-2.3,0c-0.4,0-0.8-0.3-0.8-0.7c0-0.4,0.3-0.8,0.7-0.8 c1.4-0.1,2.4,0,2.4,0c0.4,0,0.7,0.4,0.7,0.8C19.3,31.6,19,31.9,18.6,31.9z"></path> </g> <g class="st1"> <path class="st14" d="M39.6,22.2H19.1v-15L29.4,0l10.2,6.9L39.6,22.2L39.6,22.2z M20.7,20.6h17.4V7.7l-8.7-5.9l-8.7,6.1 C20.7,7.9,20.7,20.6,20.7,20.6z"></path> </g> <g class="st1"> <rect x="37" y="15.7" class="st14" width="0.5" height="2.3"></rect> </g> <g class="st1"> <rect x="37" y="18.6" class="st14" width="0.5" height="0.7"></rect> </g> <g class="st1"> <path class="st14" d="M30.9,16h-3v-3.6h-3.6v-3h3.6V5.7h3v3.6h3.6v3h-3.6C30.9,12.4,30.9,16,30.9,16z M28.9,15h1v-3.6h3.6v-1h-3.6 V6.8h-1v3.6h-3.6v1h3.6C28.9,11.4,28.9,15,28.9,15z"></path> </g> </g> <g class="st0"> <path class="st6" d="M7.7,2C6.2,2,5,3.2,5,4.7s1.2,2.7,2.7,2.7s2.7-1.2,2.7-2.7S9.1,2,7.7,2z M7.7,6C6.9,6,6.3,5.4,6.3,4.7 s0.6-1.3,1.3-1.3C8.4,3.3,9,3.9,9,4.7S8.4,6,7.7,6z"></path> <path class="st6" d="M16.3,4.7c0-1.5-1.2-2.7-2.7-2.7S11,3.2,11,4.7s1.2,2.7,2.7,2.7S16.3,6.1,16.3,4.7z M12.3,4.7 c0-0.7,0.6-1.3,1.3-1.3S15,3.9,15,4.7S14.4,6,13.7,6S12.3,5.4,12.3,4.7z"></path> <path class="st6" d="M19.7,7.3c1.5,0,2.7-1.2,2.7-2.7S21.1,2,19.7,2C18.2,2,17,3.2,17,4.7S18.2,7.3,19.7,7.3z M19.7,3.3 c0.7,0,1.3,0.6,1.3,1.3S20.4,6,19.7,6s-1.3-0.6-1.3-1.3S18.9,3.3,19.7,3.3z"></path> <path class="st6" d="M3,0v8v1.3V40h9.3H43V9.3V0H3z M4.3,1.3h37.3V8H12.3h-8V1.3z M4.3,38.7V9.3H11v29.3L4.3,38.7L4.3,38.7z M41.7,38.7H12.3V9.3h29.3L41.7,38.7L41.7,38.7z"></path> <path class="st6" d="M9,12H6.3c-0.4,0-0.7,0.3-0.7,0.7s0.3,0.7,0.7,0.7H9c0.4,0,0.7-0.3,0.7-0.7S9.4,12,9,12z"></path> <path class="st6" d="M9,15.3H6.3c-0.4,0-0.7,0.3-0.7,0.7c0,0.4,0.3,0.7,0.7,0.7H9c0.4,0,0.7-0.3,0.7-0.7C9.7,15.6,9.4,15.3,9,15.3z "></path> <path class="st6" d="M9,18.7H6.3c-0.4,0-0.7,0.3-0.7,0.7S6,20,6.3,20H9c0.4,0,0.7-0.3,0.7-0.7S9.4,18.7,9,18.7z"></path> <path class="st6" d="M9,22H6.3c-0.4,0-0.7,0.3-0.7,0.7s0.3,0.7,0.7,0.7H9c0.4,0,0.7-0.3,0.7-0.7S9.4,22,9,22z"></path> <path class="st6" d="M9,25.3H6.3c-0.4,0-0.7,0.3-0.7,0.7s0.3,0.7,0.7,0.7H9c0.4,0,0.7-0.3,0.7-0.7S9.4,25.3,9,25.3z"></path> <path class="st6" d="M9,28.7H6.3c-0.4,0-0.7,0.3-0.7,0.7S6,30,6.3,30H9c0.4,0,0.7-0.3,0.7-0.7S9.4,28.7,9,28.7z"></path> <path class="st6" d="M9,32H6.3c-0.4,0-0.7,0.3-0.7,0.7s0.3,0.7,0.7,0.7H9c0.4,0,0.7-0.3,0.7-0.7S9.4,32,9,32z"></path> <path class="st6" d="M9,35.3H6.3c-0.4,0-0.7,0.3-0.7,0.7s0.3,0.7,0.7,0.7H9c0.4,0,0.7-0.3,0.7-0.7S9.4,35.3,9,35.3z"></path> <path class="st6" d="M25.7,12H15v10.7h10.7V12z M21,21.3c0-0.4-0.3-0.7-0.7-0.7s-0.7,0.3-0.7,0.7H17c0-0.4-0.3-0.7-0.7-0.7V18 c0.4,0,0.7-0.3,0.7-0.7s-0.3-0.7-0.7-0.7V14c0.4,0,0.7-0.3,0.7-0.7h2.7c0,0.4,0.3,0.7,0.7,0.7c0.4,0,0.7-0.3,0.7-0.7h2.7 c0,0.4,0.3,0.7,0.7,0.7v2.7c-0.4,0-0.7,0.3-0.7,0.7S24,18,24.3,18v2.7c-0.4,0-0.7,0.3-0.7,0.7L21,21.3L21,21.3z"></path> <path class="st6" d="M39,12H28.3v10.7H39V12z M37.7,21.3h-8v-8h8V21.3z"></path> <path class="st6" d="M25.7,36V25.3H15V36H25.7z M16.3,26.7h8v8h-8V26.7z"></path> <path class="st6" d="M39,25.3H28.3V36H39V25.3z M37.7,34.7h-8v-8h8V34.7z"></path> <circle class="st6" cx="22.3" cy="15.3" r="0.7"></circle> <circle class="st6" cx="20.3" cy="17.3" r="0.7"></circle> <circle class="st6" cx="22.3" cy="19.3" r="0.7"></circle> <circle class="st6" cx="18.3" cy="15.3" r="0.7"></circle> <circle class="st6" cx="18.3" cy="19.3" r="0.7"></circle> </g> <g class="st0"> <path class="st11" d="M41.8,20.7c-0.3,0-0.5,0-0.7,0.1c-0.2-0.8-1-1.4-1.9-1.4c-0.3,0-0.5,0-0.7,0.1c-0.2-0.8-1-1.4-1.9-1.4 c-0.2,0-0.4,0-0.7,0.1v-0.5l1.8-1.8L36.9,15L36,15.9v-2.3c0-1.1-0.9-1.9-1.9-1.9s-1.9,0.9-1.9,1.9v2.3L31.3,15l-0.9,0.9l1.7,1.8 v7.1l-0.4-1.9c-0.2-1-1-1.6-2-1.6c-1.1,0-2.1,0.9-2.1,2.1v0.3c0,0.2,0,0.3,0.1,0.5l1.8,7c0.1,0.5,0.3,0.9,0.6,1.2l1.7,2.1 c0.3,0.3,0.4,0.8,0.4,1.2V40h10.3v-4.7c0-0.2,0-0.5,0.1-0.7l0.9-2.3c0.2-0.4,0.2-0.8,0.2-1.2v-8.5C43.8,21.5,42.9,20.7,41.8,20.7z M42.5,31.1c0,0.2,0,0.5-0.1,0.7l-0.9,2.3c-0.2,0.4-0.2,0.8-0.2,1.2v3.4h-7.8v-3c0-0.7-0.2-1.5-0.7-2l-1.7-2.1 c-0.2-0.2-0.3-0.5-0.4-0.7l-1.8-7c0-0.1,0-0.1,0-0.2v-0.3c0-0.4,0.4-0.8,0.8-0.8c0.4,0,0.7,0.2,0.8,0.6l1.1,5.2h1.8V13.6 c0-0.4,0.3-0.6,0.7-0.6s0.7,0.3,0.7,0.6v14.8H36V20c0-0.4,0.3-0.6,0.7-0.6s0.7,0.3,0.7,0.6v8.4h1.3v-7.1c0-0.4,0.3-0.6,0.7-0.6 s0.7,0.3,0.7,0.6v7.1h1.3v-5.8c0-0.4,0.3-0.6,0.7-0.6s0.7,0.3,0.7,0.6L42.5,31.1L42.5,31.1z"></path> <rect x="8.9" y="16.8" class="st11" width="1.3" height="1.3"></rect> <path class="st11" d="M40.2,14.2c-0.2,0-0.3-0.1-0.3-0.3c0-0.1,0-0.1,0.1-0.2l1-1c1-0.9,1.5-2.2,1.5-3.6V8.9c0-2.8-2.3-5.1-5-5.1 h-0.2c-1.1,0-2.2,0.4-3.1,1.1c-0.9-0.7-2-1.1-3.1-1.1h-0.2c-2.8,0-5.1,2.3-5.1,5.1v0.2c0,1.4,0.5,2.6,1.5,3.6l1,1 c0,0.1,0.1,0.1,0.1,0.2c0,0.1-0.1,0.3-0.3,0.3h-3.6V2.6c0-1.4-1.2-2.6-2.6-2.6H6.3C4.9,0,3.8,1.2,3.8,2.6v29.7 c0,1.4,1.2,2.6,2.6,2.6h15.5c1.4,0,2.6-1.2,2.6-2.6V15.5H28c0.9,0,1.6-0.7,1.6-1.6c0-0.4-0.2-0.8-0.5-1.1l-1-1 c-0.7-0.7-1.1-1.7-1.1-2.7V8.9c0-2.1,1.7-3.8,3.8-3.8H31c1,0,2,0.4,2.7,1.1l0.5,0.5l0.5-0.5c0.7-0.7,1.7-1.1,2.7-1.1h0.2 c2.1,0,3.8,1.7,3.8,3.8v0.2c0,1-0.4,1.9-1.1,2.7l-1,1c-0.3,0.3-0.5,0.7-0.5,1.1c0,0.9,0.7,1.6,1.6,1.6h3.6v-1.3H40.2z M6.3,1.3 h15.5c0.7,0,1.3,0.6,1.3,1.3v2.6H5V2.6C5,1.9,5.6,1.3,6.3,1.3z M21.8,33.6H6.3C5.6,33.6,5,33,5,32.3v-2.6h18.1v2.6 C23.1,33,22.5,33.6,21.8,33.6z M23.1,28.4H5v-22h18.1v7.8h-1.7L20,18l-2.5-8.8l-3.8,7.6h-2.2v1.3h3l2.7-5.3l2.7,9.3l2.5-6.6h0.8 L23.1,28.4L23.1,28.4z"></path> <rect x="6.3" y="16.8" class="st11" width="1.3" height="1.3"></rect> <rect x="10.2" y="31" class="st11" width="7.7" height="1.3"></rect> </g> <g id="comp_x5F_204-magento" class="st0"> <g class="st1"> <g> <path class="st7" d="M22.9,40.1c-0.1,0-0.3,0-0.4-0.1l-7.1-4.1c-0.3-0.2-0.4-0.4-0.4-0.7l0-19.2c0-0.3,0.2-0.6,0.4-0.7l4.7-2.7 c0.3-0.1,0.6-0.1,0.8,0c0.3,0.1,0.4,0.4,0.4,0.7v18.7l1.5,0.9l1.5-0.9V13.2c0-0.3,0.2-0.6,0.4-0.7c0.3-0.1,0.6-0.1,0.8,0l4.8,2.7 c0.3,0.1,0.4,0.4,0.4,0.7v19.2c0,0.3-0.2,0.6-0.4,0.7l-7.1,4.1C23.2,40,23,40.1,22.9,40.1z M16.6,34.6l6.3,3.6l6.3-3.6V16.4 l-3.1-1.8v17.7c0,0.3-0.2,0.6-0.4,0.7l-2.4,1.4c-0.3,0.2-0.6,0.2-0.8,0l-2.4-1.4c-0.3-0.2-0.4-0.4-0.4-0.7V14.6l-3.1,1.8 L16.6,34.6z M25.3,32.4L25.3,32.4L25.3,32.4z M11,33.2c-0.1,0-0.3,0-0.4-0.1l-4.8-2.7c-0.3-0.1-0.4-0.4-0.4-0.7V10.4 c0-0.3,0.2-0.6,0.4-0.7l16.6-9.6c0.3-0.2,0.6-0.2,0.8,0L40,9.7c0.3,0.1,0.4,0.4,0.4,0.7v19.2c0,0.3-0.2,0.6-0.4,0.7l-4.8,2.7 c-0.3,0.2-0.6,0.2-0.8,0c-0.3-0.2-0.4-0.4-0.4-0.7V13.7L22.9,7.3l-11.1,6.4l0,18.7c0,0.3-0.2,0.6-0.4,0.7 C11.3,33.2,11.2,33.2,11,33.2z M7.1,29.1l3.1,1.8l0-17.7c0-0.3,0.2-0.6,0.4-0.7l11.9-6.9c0.3-0.2,0.6-0.2,0.8,0l11.9,6.9 c0.3,0.1,0.4,0.4,0.4,0.7v17.7l3.1-1.8V10.9L22.9,1.8L7.1,10.9V29.1z"></path> </g> </g> </g> <g id="Woo_Commerce" class="st0"> <g id="_Group_" class="st1"> <g id="_Path_"> <path class="st14" d="M31,34.5c-0.2,0-0.4,0-0.5-0.2l-6.1-3.8H5.2c-2.7,0-4.9-2.2-4.9-4.9V11.7c0-2.7,2.2-4.9,4.9-4.9h37.6 c2.7,0,5,2.2,5,4.9v13.9c0,2.7-2.2,4.9-5,4.9H30.2l1.6,2.4c0.3,0.4,0.2,0.9-0.1,1.2C31.5,34.4,31.2,34.5,31,34.5z M5.2,8.7 c-1.6,0-3,1.3-3,3v13.9c0,1.6,1.3,3,3,3h19.4c0.2,0,0.4,0,0.5,0.1l2.5,1.5l-0.1-0.1c-0.2-0.3-0.2-0.7,0-1s0.5-0.5,0.9-0.5h14.5 c1.6,0,3-1.3,3-3V11.7c0-1.6-1.3-3-3-3L5.2,8.7L5.2,8.7z"></path> </g> <g id="_Path_2"> <path class="st14" d="M7.2,26.5c-1.1,0-1.2,0-2.4-10.4c-0.2-1.7-0.4-3.2-0.5-4.4c-0.1-0.5,0.3-1,0.8-1.1c0.5-0.1,1,0.3,1.1,0.9 c0.2,1.1,0.3,2.7,0.5,4.4c0.2,2.1,0.6,4.9,0.9,6.8c0.5-1,1-2.2,1.5-3.3c3.1-6.8,3.2-6.8,4-6.8c0.9,0,1.1,0.6,1.6,3 c0.5,1.9,1.3,5.4,2.4,7.4c0.2-3.6,0.9-10.2,3.1-13c0.3-0.4,1-0.5,1.4-0.2s0.5,1,0.2,1.4c-2,2.5-2.8,10.1-2.8,14.2 c0,0.3-0.2,0.7-0.5,0.8c-0.3,0.2-0.6,0.2-1,0c-2.4-1.2-3.7-5.7-4.8-10.3c-0.6,1.2-1.3,2.8-1.9,4.2C8.1,26.5,8,26.5,7.2,26.5z"></path> </g> <g id="_Path_3"> <path class="st14" d="M25.9,26.5c-1,0-1.9-0.5-2.6-1.3c-1.1-1.3-1.5-3.5-1-5.9c0.7-3.8,3.3-6.7,5.9-6.7c1,0,1.9,0.4,2.6,1.3 c1.1,1.3,1.5,3.5,1,5.9C31,23.6,28.4,26.5,25.9,26.5z M28.2,14.7c-1.4,0-3.4,2.1-4,5.1c-0.3,1.8-0.1,3.4,0.6,4.2 c0.3,0.4,0.6,0.5,1.1,0.5c1.4,0,3.4-2.1,4-5.1c0.3-1.8,0.1-3.4-0.6-4.2C28.9,14.9,28.6,14.7,28.2,14.7z"></path> </g> <g id="_Path_4"> <path class="st14" d="M37.7,26.5c-1,0-1.9-0.5-2.6-1.3c-1.1-1.3-1.5-3.5-1-5.9c0.7-3.8,3.3-6.7,5.9-6.7c1,0,1.9,0.4,2.6,1.3 c1.1,1.3,1.5,3.5,1,5.9C42.9,23.6,40.3,26.5,37.7,26.5z M40,14.7c-1.4,0-3.4,2.1-4,5.1c-0.3,1.8-0.1,3.4,0.6,4.2 c0.3,0.4,0.7,0.5,1.1,0.5c1.4,0,3.4-2.1,4-5.1c0.3-1.8,0.1-3.4-0.6-4.2C40.8,14.9,40.5,14.7,40,14.7z"></path> </g> </g> </g> <g class="st0"> <g transform="translate(-360.000000, -135.000000)" class="st1"> <path class="st15" d="M382,160.9v1.6l3.5,3.5h5l3.5-3.5v-5l-3.5-3.5h-5l-1.8,1.8l-3.5-5.2l-6.9,10.4L382,160.9L382,160.9z M383.7,160.9v0.9l2.5,2.5h3.6l2.5-2.5v-3.6l-2.5-2.5h-3.6l-1.5,1.5l2.4,3.7H383.7z M363,135h43.1v39.7H363V135z M364.7,136.7 h39.7v5.2h-39.7V136.7z M364.7,143.6h39.7v29.3h-39.7V143.6z M366.5,138.4h1.7v1.7h-1.7V138.4z M369.9,138.4h1.7v1.7h-1.7V138.4z M373.4,138.4h1.7v1.7h-1.7V138.4z M380.2,153.6l3.7,5.5h-7.4L380.2,153.6z"></path> </g> </g> <path class="st12" d="M0.3,2.8c0,1.3,1.1,2.4,2.4,2.4h4.7c0.4,0,0.8-0.1,1.2-0.3l1.2,6l3,15c-1,0.3-1.9,1.2-2.1,2.2 c-0.4,1.7,0.6,3.4,2.3,3.9v2.5c0,0.4,0.4,0.8,0.8,0.8h1.2c-0.6,1-0.6,2.2,0,3.2c0.9,1.5,2.8,2,4.3,1.2c1.5-0.9,2-2.8,1.1-4.3h16.7 c-0.6,1-0.6,2.2,0,3.2c0.9,1.5,2.8,2,4.3,1.2c1.5-0.9,2-2.8,1.2-4.3h1.2c0.4,0,0.8-0.4,0.8-0.8v-3.2c0-0.4-0.3-0.8-0.8-0.8H13.7 c-0.9,0-1.6-0.7-1.6-1.6s0.7-1.6,1.6-1.6h30c0.4,0,0.7-0.3,0.8-0.6l3.2-15.8c0-0.1,0-0.1,0-0.2c0-0.4-0.3-0.8-0.8-0.8H35.4 c0.5-1.5,0.5-3.2,0-4.8c-1.3-3.7-5.4-5.6-9.1-4.3S20.7,6.2,22,9.9H11.2L9.8,2.7c0-1.3-1.1-2.3-2.4-2.3H2.6C1.3,0.5,0.3,1.5,0.3,2.8z M39.8,35.2c0.9,0,1.6,0.7,1.6,1.6s-0.7,1.6-1.6,1.6c-0.9,0-1.6-0.7-1.6-1.6C38.2,36,38.9,35.2,39.8,35.2z M17.7,35.2 c0.9,0,1.6,0.7,1.6,1.6s-0.7,1.6-1.6,1.6s-1.6-0.7-1.6-1.6C16.1,36,16.8,35.2,17.7,35.2z M14.5,32.1H43v1.6H14.5V32.1z M22.8,11.5 c0.4,0.5,0.8,1,1.3,1.4l0.2,4.9h-5.6l-1-6.3C17.8,11.5,22.8,11.5,22.8,11.5z M31.2,25.8h-4.8L26,19.4h5.4L31.2,25.8z M33,19.4h5.5 l-1,6.3h-4.8L33,19.4z M25.9,17.9L25.7,14c1.9,0.9,4.1,0.9,6,0l-0.2,3.8H25.9z M24.7,25.8h-4.8l-1-6.3h5.4L24.7,25.8z M34.3,7.6 c0,3.1-2.5,5.5-5.5,5.5s-5.5-2.5-5.5-5.5S25.7,2,28.7,2S34.3,4.5,34.3,7.6z M34.7,11.5h5l-1,6.3h-5.6l0.2-4.9 C33.9,12.6,34.3,12.1,34.7,11.5z M46,11.5l-1.3,6.3h-4.4l0.9-6.3C41.3,11.5,46,11.5,46,11.5z M43.1,25.8h-4l1-6.3h4.3L43.1,25.8z M13.1,19.4h4.3l1,6.3h-4L13.1,19.4z M11.5,11.5h4.7l1,6.3h-4.4L11.5,11.5z M1.9,2.8C1.9,2.4,2.2,2,2.6,2h4.7c0.4,0,0.8,0.3,0.8,0.8 S7.8,3.6,7.4,3.6H2.6C2.2,3.6,1.9,3.3,1.9,2.8z"></path> <path class="st12" d="M32.4,8.9c0.3-0.3,0.3-0.8,0-1.1c-0.3-0.3-0.8-0.3-1.1,0l-1,1l-3.4-4.1c-0.3-0.3-0.8-0.4-1.1-0.1 c-0.3,0.3-0.4,0.8-0.1,1.1l4,4.7c0.1,0.2,0.4,0.3,0.6,0.3c0,0,0,0,0,0c0.2,0,0.4-0.1,0.6-0.2L32.4,8.9z"></path> </svg> 