<svg xmlns="http://www.w3.org/2000/svg" xmlns:xlink="http://www.w3.org/1999/xlink" viewBox="0 0 784 710.44"><defs><style>.cls-1,.cls-2,.cls-32{fill:#fff;}.cls-1{opacity:0.07;}.cls-2,.cls-3,.cls-5,.cls-6{stroke:#000;stroke-width:0.05px;}.cls-10,.cls-11,.cls-12,.cls-13,.cls-14,.cls-15,.cls-19,.cls-2,.cls-20,.cls-21,.cls-22,.cls-23,.cls-24,.cls-25,.cls-26,.cls-27,.cls-3,.cls-5,.cls-6,.cls-7,.cls-8,.cls-9{stroke-miterlimit:10;}.cls-3{fill:#bad1f6;}.cls-4{fill:url(#linear-gradient);}.cls-5{fill:#dbeaff;}.cls-39,.cls-6{fill:#172182;}.cls-10,.cls-12,.cls-14,.cls-19,.cls-20,.cls-21,.cls-22,.cls-23,.cls-24,.cls-25,.cls-26,.cls-27,.cls-31,.cls-7,.cls-8,.cls-9{fill:none;}.cls-12,.cls-13,.cls-7{stroke:#e72e9b;}.cls-7{stroke-width:4px;}.cls-14,.cls-15,.cls-8{stroke:#b7cff5;}.cls-8,.cls-9{stroke-width:3px;}.cls-10,.cls-11,.cls-9{stroke:#3a68ff;}.cls-10,.cls-11,.cls-12,.cls-14{stroke-width:2px;}.cls-11{fill:#3a68ff;}.cls-13,.cls-34{fill:#e72e9b;}.cls-15{fill:#b7cff5;}.cls-16{fill:#edeef6;}.cls-17{fill:url(#linear-gradient-2);}.cls-18{fill:#91beff;}.cls-19{stroke:#2442bc;}.cls-20{stroke:#fff;}.cls-21{stroke-width:29px;stroke:url(#linear-gradient-3);}.cls-22{stroke-width:16px;stroke:url(#linear-gradient-4);}.cls-23{stroke-width:13px;stroke:url(#linear-gradient-5);}.cls-24{stroke-width:25px;stroke:url(#linear-gradient-6);}.cls-25{stroke-width:30px;stroke:url(#linear-gradient-7);}.cls-26{stroke-width:43px;stroke:url(#linear-gradient-8);}.cls-27{stroke-width:40px;stroke:url(#linear-gradient-9);}.cls-28{fill:#9aa9d7;}.cls-29{fill:#ff0094;}.cls-30{fill:#73aaff;}.cls-33{fill:#192c87;}.cls-35{fill:#c72c94;}.cls-36{fill:#578cce;}.cls-37{fill:#95bde5;}.cls-38{fill:#356aba;}.cls-40{fill:#2848bd;}.cls-41{fill:#c2dbff;}.cls-42{fill:#d8e9ff;}.cls-43{fill:#cae0ff;}.cls-44{fill:#f8fbff;}.cls-45{fill:#598ed0;}</style><linearGradient id="linear-gradient" x1="408" y1="459.18" x2="473" y2="459.18" gradientUnits="userSpaceOnUse"><stop offset="0" stop-color="#c2dbff"/><stop offset="0.29" stop-color="#c6ddfe"/><stop offset="0.58" stop-color="#d2e2fb"/><stop offset="0.86" stop-color="#e5ecf5"/><stop offset="1" stop-color="#f2f2f2"/></linearGradient><linearGradient id="linear-gradient-2" x1="513.03" y1="380.3" x2="513.4" y2="380.3" gradientUnits="userSpaceOnUse"><stop offset="0" stop-color="#c2dbff"/><stop offset="0.27" stop-color="#c8defd"/><stop offset="0.64" stop-color="#dae6f9"/><stop offset="1" stop-color="#f2f2f2"/></linearGradient><linearGradient id="linear-gradient-3" x1="927" y1="-1042.83" x2="956" y2="-1042.83" gradientTransform="translate(-663.45 -608.45) rotate(90)" gradientUnits="userSpaceOnUse"><stop offset="0" stop-color="#f0f"/><stop offset="0.06" stop-color="#d0f"/><stop offset="0.16" stop-color="#a0f"/><stop offset="0.26" stop-color="#7c00ff"/><stop offset="0.37" stop-color="#5600ff"/><stop offset="0.48" stop-color="#3700ff"/><stop offset="0.59" stop-color="#1f00ff"/><stop offset="0.71" stop-color="#0d00ff"/><stop offset="0.84" stop-color="#0300ff"/><stop offset="1" stop-color="blue"/></linearGradient><linearGradient id="linear-gradient-4" x1="932.16" y1="-1059.88" x2="948.16" y2="-1059.88" xlink:href="#linear-gradient-3"/><linearGradient id="linear-gradient-5" x1="929.66" y1="-1076.88" x2="942.66" y2="-1076.88" xlink:href="#linear-gradient-3"/><linearGradient id="linear-gradient-6" x1="911.66" y1="-1093.88" x2="936.66" y2="-1093.88" xlink:href="#linear-gradient-3"/><linearGradient id="linear-gradient-7" x1="898.16" y1="-1112.88" x2="928.16" y2="-1112.88" xlink:href="#linear-gradient-3"/><linearGradient id="linear-gradient-8" x1="879.66" y1="-1129.88" x2="922.66" y2="-1129.88" xlink:href="#linear-gradient-3"/><linearGradient id="linear-gradient-9" x1="878.16" y1="-1145.88" x2="918.16" y2="-1145.88" xlink:href="#linear-gradient-3"/></defs><g id="Layer_2" data-name="Layer 2"><g id="Layer_3" data-name="Layer 3"><path class="cls-1" d="M71.47,191.06a170.88,170.88,0,0,1,32.7-27.16c35.91-22.84,77-36.86,115.9-53.63,41-17.67,81.68-36,123.51-51.65,49.18-18.36,99.21-35.1,150.75-45.45C541.82,3.63,604-11.32,649,13.92c40.55,22.74,64.34,69.65,81.46,110.9,47.56,114.59,79.41,263.08,25,384-22.94,51-57.28,90.53-94.87,120.47C606.56,672.36,550.42,701.68,487,696.12A1019.45,1019.45,0,0,1,239.9,642.83c-45.59-16-91-36.24-132.81-66.05-34.66-24.69-68.92-57.32-89.56-103.72-20.41-45.87-22-99.43-10-149.79C18.94,275.47,37.8,226.79,71.47,191.06Z"/><path class="cls-2" d="M626.37,582.9,525,546.07l27.06-9.84s59.78,21.72,73.86,21.15c0,0,40.08-.58,47.08-10.58a38.8,38.8,0,0,0,20.21-9l3.79-3,30.75,11.29-100,37.36,1,127,99-36.83V548.52"/><polygon class="cls-3" points="525 545.8 628 582.8 628 707.8 525 672.48 525 545.8"/><path class="cls-4" d="M408,454.8v-2.68l29,10.68s6.63,1,7.82,0l26.18-9s0,1,2,1l-29,11s-5.49,1-7.24,0Z"/><path class="cls-5" d="M346,237.8l227-81s5-5,10,7V306.19s3,7.61-13,13.61l-217,79s-4.24,5-14.12-7l1.65-137.42S338,248.8,346,237.8Z"/><polygon class="cls-6" points="350 245.8 575 162.8 575 307.83 350 389.18 350 245.8"/><path class="cls-7" d="M534,243.8c10.1-6.63,12.83-19.88,7-29-5-7.8-15.43-11.32-25-7.92"/><path class="cls-8" d="M521,205.8a21.67,21.67,0,0,0-4.29,1c-10.53,3.54-17.3,14.74-17.62,25-.08,2.61-.17,5.66,1.65,9,4.57,8.28,16.66,9.82,17.46,9.91.5.06.91.09,1.19.11"/><path class="cls-9" d="M519.22,251.21s9.3-.54,15.08-8.22"/><polyline class="cls-10" points="528.5 249.3 531.5 258.3 536.5 257.3"/><polygon class="cls-11" points="540.49 252.8 540.49 258.1 557.53 252.8 557.53 246.74 540.49 252.8"/><polyline class="cls-12" points="536.14 212.8 540 202.8 545 200.8"/><polygon class="cls-13" points="547.5 197.8 562.5 191.8 562.5 197.2 547.5 203.06 547.5 197.8"/><polyline class="cls-14" points="502.5 221.3 498.5 215.3 493.5 217.3"/><polygon class="cls-15" points="474.83 222.3 490.4 216.3 490.4 222.3 474.83 227.31 474.83 222.3"/><path class="cls-16" d="M595,396.8a.23.23,0,0,1,0,.16c-.16.57-3-.48-5,.84a3.57,3.57,0,0,0-1,1c-1,1.25-5.11,1.36-18-3a17,17,0,0,1-12-13c-1.28-.59-2.62-1.25-4-2-1.83-1-3.49-2-5-3a22.93,22.93,0,0,0-7.65.51,23.24,23.24,0,0,0-10.23,5.51s.88,4,2.88,5c0,0,9-6,11-3a11.61,11.61,0,0,1,6,10l-5.5-.75c-3.18-.43-6.35-.84-9.5-1.25,1.78,1.94,3.84,4.13,4,4a8.21,8.21,0,0,0-.85-1.77C542,398.4,556.31,406.7,565,403.8l22,9a28.41,28.41,0,0,1-9.08,18.5C569,439.8,505,435.83,505,435.83s-18-10-20-9,5,9,5,9a32.4,32.4,0,0,1-20-5,8,8,0,0,0-10,10c.15.11,2.58,1.85,2.2,2.76a.61.61,0,0,1-.2.24h7.1c-2.64.77-4.92,2.27-5.1,4-.23,2.29,3.19,5.48,9,6l28-4s46,4,46.51,6-116.72,44.76-116.72,44.76L256.58,435.83,426,374.8l-5,19s0,5.52,2.85,9.4L421,401.83l4.9,3.42a9.06,9.06,0,0,1-2-2.05L446,413.8s3,1,10-2l51-18-20-9s-8-10-4-12l5-22,53-19,64,25S594,394.8,595,396.8Z"/><path class="cls-16" d="M425.9,405.25l-4.9-3.42,2.85,1.37A9.06,9.06,0,0,0,425.9,405.25Z"/><path class="cls-16" d="M540.14,396a1.52,1.52,0,0,1-.14-.21l0-.05A2.24,2.24,0,0,1,540.14,396Z"/><path class="cls-17" d="M430.5,369.3l59-20-6,23s-5,6,8,13l14,8-51,18s-12,0-13-3l-15-6s-5-4-1-12Z"/><path class="cls-18" d="M430,369.8l-4,2-5,23s-1,8,4.5,10.5l21.5,9.5s7,0,10-2l49-17v-3.5l-48,17.5s-4,5-14,0l-19-7s-2.21-3-.6-10.5Z"/><path d="M539.42,396.78c-2.36-.85-4.69-1.76-7-2.69L529,392.74c-.73-.3-2.51-.67-2.94-1.28A1.73,1.73,0,0,1,526,391a6.07,6.07,0,0,1,0-2.2,5.78,5.78,0,0,1,.45-1.31c.64-1.3,4.1-3.67,9.66-3.3,3.75.25,7.69.42,11.15,1.81a11.46,11.46,0,0,1,4.43,2.93,7.93,7.93,0,0,1,1.67,3.94c.11.68.53,3.59-.5,3.9-.17.05-.21,0-.38,0-1,.22-.42,3.43-1.48,4-1.34.74-3.87-3.48-7-3a3.89,3.89,0,0,0-2,1c-1.34-2.07-2.16-3-2.47-2.88C539.39,396,539.35,396.27,539.42,396.78Z"/><path d="M540.65,392.3s11-1.64,8.18-5.57a59.77,59.77,0,0,0-7.57-2c-6-1.16-10.28-2.06-12.58.18a7.94,7.94,0,0,0-1.68,2.9s1.35-2.71,1.35-2.71h0c-.39.25-2.05,1.39-2.08,3,0,1.48,1.27,2.51,2.73,3.67a16.83,16.83,0,0,0,6,3"/><path class="cls-19" d="M374.89,275c6.27,3.54,11.29-1.83,14.95-6.43,2.92-3.65,6.51-6.85,8.82-11,2.82-5,.7-9.84,2.65-14.76,1.33-3.36,5.38-4.55,8.63-3.34s6,2.85,9,.6c4.49-3.28,6.69-10.88,13.49-8.6,5.45,1.83,8.17,7.25,13,9.92,1.89,1.05,3.9,1.33,5.83,2.14,2.63,1.12,3.25,3.49,5.07,5.49A11.14,11.14,0,0,0,466,252.9c8-1,8.66-11.58,13.59-16.18a6.7,6.7,0,0,1,6.4-1.83"/><path class="cls-20" d="M376.24,292.8s7.26.5,8.26-17.5,0-1.6,0-1.58c.35-5.8,2.68-16.8,8.44-20,2.69-1.46,4.94.42,7.18,1.86,3.51,2.25,5.77,5.09,8.61,8,1.34,1.39,2.28,1.88,4.1.72,5.63-3.61,5.34-10.55,9.35-15.26a9.21,9.21,0,0,1,7.38-3.34,11.27,11.27,0,0,1,6.11,1.82c1.24.93,1.92,2.43,3.1,3.47a13,13,0,0,0,10.48,2.71c2.46-.35,3.35-1.65,5.16-3.18,3.51-3,9.62-7.61,14.44-5,0,0,8.65,8.67,16.65,5.67"/><line class="cls-21" x1="381" y1="333.04" x2="377.75" y2="333.04"/><line class="cls-22" x1="398.05" y1="331.71" x2="394.8" y2="331.71"/><line class="cls-23" x1="415.05" y1="327.71" x2="411.8" y2="327.71"/><line class="cls-24" x1="432.05" y1="315.71" x2="428.8" y2="315.71"/><line class="cls-25" x1="451.05" y1="304.71" x2="447.8" y2="304.71"/><line class="cls-26" x1="468.05" y1="292.71" x2="464.8" y2="292.71"/><line class="cls-27" x1="484.05" y1="289.71" x2="480.8" y2="289.71"/><polygon class="cls-28" points="257 445.8 257 435.7 431 499.8 471 486.8 468 494.8 434 507.8 257 445.8"/><polygon class="cls-29" points="710 164.8 719 166.8 711 196.8 702 194.8 710 164.8"/><polygon class="cls-29" points="721 177.8 729 179.8 724 199.8 715 197.8 721 177.8"/><rect class="cls-30" x="727.32" y="192.67" width="12.37" height="8.25" transform="translate(364.68 860.67) rotate(-75.96)"/><polyline class="cls-31" points="258 363.8 257.91 363.67 252.62 355.74 252 354.8"/><ellipse class="cls-30" cx="257" cy="363.3" rx="21" ry="20.5"/><path class="cls-32" d="M270.37,347.49l-4.73,7.69a11.48,11.48,0,0,0-15.36-.82l-5.47-7.75a21.4,21.4,0,0,1,25.56.88Z"/><circle class="cls-33" cx="257.5" cy="362.8" r="11"/><polyline class="cls-31" points="759.48 328.53 759.6 328.42 767.01 322.42 767.88 321.72"/><ellipse class="cls-29" cx="759.89" cy="327.48" rx="20.5" ry="21" transform="translate(-27.15 72.06) rotate(-5.33)"/><path class="cls-32" d="M776.87,339.33l-8.1-4a11.48,11.48,0,0,0-.61-15.37l7.21-6.16a21.39,21.39,0,0,1,1.5,25.53Z"/><circle class="cls-33" cx="760.43" cy="327.94" r="11"/><polygon class="cls-30" points="257.58 475.63 266.58 477.63 258.58 507.63 249.58 505.63 257.58 475.63"/><polygon class="cls-30" points="268.58 488.63 276.58 490.63 271.58 510.63 262.58 508.63 268.58 488.63"/><rect class="cls-29" x="274.89" y="503.51" width="12.37" height="8.25" transform="translate(-279.57 657.2) rotate(-75.96)"/><polygon points="433.43 465.8 397.05 451.8 512 405.8 548 423.8 433.43 465.8"/><path class="cls-34" d="M613.16,269.8l2,8s-9.18-3-10.2-12c0,0,0-15,17.34-22,0,0,19.38-9,31.62-3,0,0,14.28,3,21.42,16a36.82,36.82,0,0,1,4.08,30s-2,15-12.24,22c.74,1.51-4.17,2.7-7.14,4-1.31.57-12.89,1.08-13.78,0l-11.72-11s2-14-1-17c0,0-3.06-6-8.16-1,.51-.51-1.14-3.44-1.37-3.95-1.1-2.42-2.07-4.94-3.3-7.3-.92-1.76-2.31-3.75-4.51-3.75C616.22,268.8,613.16,268.8,613.16,269.8Z"/><path class="cls-35" d="M654,312.8s3-24-6-27c0,0-10-11-12-10s-10-15-8-14-15-7-16-1c0,0-6,5-3,10,1.46,2.43,2.88,6.62,6,7a4.72,4.72,0,0,0,1,0l-2-6a2.68,2.68,0,0,1,1-1,3.46,3.46,0,0,1,2.17-.26c1.61.29,4.9,5.57,8.23,13.26,0,0,5.38-5.26,7,1.87,0,0,4.61,4.13,1.61,15.13l12,10Z"/><path class="cls-36" d="M616,276.8l-2-4c-.89-1.79,1.1-6.29,6-2,0,0,5,7,6,13-1.13-1.93,5.49-5.57,6.7,0,0,0,5.3,10,1.3,17l13,11v5l1,2c-1.66,2.23-3.33,4.57-5,7q-2.1,3-4,6c.3,1,1.33,5-1,8a5.58,5.58,0,0,1-1,1c-3.56,2.6-10.6-1.75-11-2l5.5-5.33V319.59a7.92,7.92,0,0,1-9.5-.79c-5-4-8-21-8-21s-2-11,2-13C616,284.8,615,276.8,616,276.8Z"/><path class="cls-37" d="M615.42,274.52c6.43,2.72,7.58,12.28,7.58,12.28A13.6,13.6,0,0,0,619.21,301S619,311.8,624,315.8c0,0,0,3,5,4l2.48-.36,4.52-.64v11.1s-3,8.9-4,8.9v1l-1.25.68s-4.55-1.59-4.65-1.64l-.1,0,5.5-5.33V319.93s-5.77,3.7-10.13-1.72-7-18.47-7.19-19.44-1.18-13,1.82-14c0,0-1-8,0-8Z"/><path class="cls-38" d="M628,290.8s-.5-6.29,2.75-5.15c0,0,2.25,1.15,2.25,6.15,0,0,0,6-1,6A7.94,7.94,0,0,1,628,290.8Z"/><path class="cls-31" d="M647,313.43s13.36,2.37,19.68-.63c0,0,2.32,2,2.32,3s-2,6-20,3C649,318.8,646,318.07,647,313.43Z"/><path class="cls-34" d="M638.24,340.48a16.72,16.72,0,0,1-.62-5.34c.43-8.79,7.9-14.3,9.38-15.34a30.89,30.89,0,0,0,22-4s17.57-.11,23.79,3.94A30,30,0,0,1,712,333.8s5,7-3,16c0,0-6,10-1,16,0,0,8,8,10,12,0,0,4,11,1,17,0,0,0,7-8,11,0,0-7,7-17,5,0,0-12-1-20-10,0,0-21-4-21-5s-12-2-12-11c0,0-2-2,0-11,0,0,6-10,10-12,0,0,1-8-5-11Z"/><path class="cls-35" d="M652,321.8a35.58,35.58,0,0,1,14,22s7,31,3,37c0,0-1,16-3,17,0,0-14,3-24-13,0,0-2-16,10-23,0,0,3.59-4.58-3.2-10.29a21.19,21.19,0,0,1-8.73-22Z"/><path class="cls-39" d="M620,349.8a48.14,48.14,0,0,1,4,9c5.17,15.87.6,30.4-2,37l-4,9-8,18s16.72,21.46,16.86,39.73c0,0,1.14,26.27-7.86,38.27,0,0-3,13,28,11,0,0,9-7,7-21,0,0-2-29,2-37,0,0,17-34,13-39l23,1s1-3.28,0-4.64-13-3.36-18-10.36c-13.73-2.73-23.91-6.62-28-10a15.51,15.51,0,0,1-4-5,13.42,13.42,0,0,1-1-7,26.48,26.48,0,0,1,2-7,27.35,27.35,0,0,1,9-11,28.07,28.07,0,0,0-2-6,29.41,29.41,0,0,0-9.58-11.42c-2.51-.46-10.86-1.69-17.42,3.42A17,17,0,0,0,620,349.8Z"/><path class="cls-40" d="M626,338.8a68.16,68.16,0,0,0-18,13,13.27,13.27,0,0,1,4.72-1.75,13.51,13.51,0,0,1,7.1.75s1.49-5,7.84-5.49a31,31,0,0,1,6.05-1c4.26-.28,6.84.45,7.29-.48.24-.5-.09-1.53-3-4a12.87,12.87,0,0,1-12-1Z"/><path class="cls-40" d="M669,414.8c2.87-.08,5.88-.09,9,0,5,.14,9.73.5,14.1,1,0,0-.9,31.68,0,31.34S705,476.8,704,490.8c0,0-2,20-54,21-2.06.6-2.74.33-3,0-.94-1.22,2.72-4.59,5-10a26.41,26.41,0,0,0,2-9c-3.25-12.05-4.25-25.94,2-39,.34-.72.53-1.06,1-2A136.14,136.14,0,0,0,669,414.8Z"/><path class="cls-37" d="M602,357.8s6.25-11.4,19.62-6.7a30.88,30.88,0,0,1,5.22,19c-.84,10.74,0,.7,0,.7s-1.43,18.76-4.63,24.4c0,0-9.19,26.64-12.19,27.64,0,0-8,18-11,19,0,0-5,13-8,14,0,0-28,4-29,3q-7.9-.45-15.82-1c-3.9-.27-7.8-.56-11.7-.91-2.16-.2-5.2,0-7.22-.93-3.23-1.44-6.58-1.79-10-2.15a79.46,79.46,0,0,1-8.13-.86c-2.6-.27-5.2-.57-7.81-.84a25.52,25.52,0,0,0-2.62-.25c-2.27,0-4.34,1.26-6.6,1.44a20.26,20.26,0,0,1-4.92-.28c-2.8-.47-5.34,1.3-7.93,2-2.82.79-5.73,1.27-8.58,2-2.36.58-4.77.67-6.62-1.18a9.29,9.29,0,0,1-2.62-5,5.42,5.42,0,0,1,1.39-3.91c.58-.78,2-1.86,1.84-3-.17-1.41-1.82-.39-2.52-.1a6,6,0,0,1-5,.19,1.51,1.51,0,0,1-.94-1.24c0-.56.53-1,1-1.27a25.89,25.89,0,0,1,5.65-2.55,13.66,13.66,0,0,0-2.71.89,29.38,29.38,0,0,1,12.45-4c2.2-.25,4.41-.34,6.61-.37,1.08,0,2.15-.17,3.23-.15s2,.7,3,.49c1.5-.32.76-1.69,0-2.37a15.24,15.24,0,0,0-5.07-2.43c.24.08,1.52-.64,1.85-.73a9.21,9.21,0,0,1,2.16-.29,10.46,10.46,0,0,1,3.37.71,17.39,17.39,0,0,1,3.51,1.37c1,.58,1.54,1.55,2.5,2.08s1.79.71,2.65,1.14,1.38,1.35,2,1.59a4.48,4.48,0,0,0,1.36-.07l5.83-.33,19.9-1.12L548.49,434l17.07-1c1.13-.06,2.31-.05,3.44-.19a20.55,20.55,0,0,0,3.56-.78,8.22,8.22,0,0,0,2.47-1.11,3.06,3.06,0,0,0,.93-1.65,8.67,8.67,0,0,1,1.45-2.3,48.22,48.22,0,0,0,3.63-5.45,19.22,19.22,0,0,0,1.06-3.13c.27-.77,1.12-1.56,1-2.41-.34-1.77-2.73-2.16-4.16-2.54a43.6,43.6,0,0,1-7.24-2.65c-2.67-1.25-5.34-2.52-8-3.7a13.19,13.19,0,0,0-3.8-.61,23,23,0,0,1-6.58-1.32,7.34,7.34,0,0,0-2-.75c-.62-.08-.88-.08-1.67-.15a17.39,17.39,0,0,1-2.61-.45,8.3,8.3,0,0,1-3-1,4.31,4.31,0,0,0-1.08-.75,4.77,4.77,0,0,0-.92-.25,5.17,5.17,0,0,1-1.76-.94c-2.1-1.5-3.28-2.45-3.4-3.73a1.39,1.39,0,0,1,.67-1.4c.7-.33,1.76.13,2.49.31,1,.24,1.93.48,2.9.7,1.15.27,2.28.6,3.44.82.68.13,1.6.45,2.23,0,1.28-.84.86-3.17.1-4.19a24.48,24.48,0,0,0-2.29-2.49A25.43,25.43,0,0,0,541.7,387a7.88,7.88,0,0,0-4.15-1.53c-1.54.05-2.66,1.2-4,1.71a4.31,4.31,0,0,1-2.35.26,1.39,1.39,0,0,1-.92-.52,1.59,1.59,0,0,1,0-1.35c1.29-4,4.39-5.71,8.15-6.9a36.62,36.62,0,0,1,9.13-1.94c2.25-.13,5.33,0,7.42,1a13.22,13.22,0,0,1,2.44,2,31.74,31.74,0,0,1,4.26,4.64,14.9,14.9,0,0,1,1.63,2.85,22.06,22.06,0,0,0,1.24,3.35,13.86,13.86,0,0,0,1.6,2.12c2.31,2.52,5.58,3,8.76,3.53l8.88,1.57,5.26.93s6-21,7-21S596,364.8,602,357.8Z"/><path class="cls-41" d="M702.11,495.22A44.38,44.38,0,0,1,691,503.8c-2.11,1.14-6,3-15,5a134.65,134.65,0,0,1-23,3c-.56.59-7.07,7.73-4.87,16.8a17.59,17.59,0,0,0,5.87,9.2,190.53,190.53,0,0,0,20,1c6.88,0,13.24-.41,19-1a41.12,41.12,0,0,0,11.06-18.29Z"/><path class="cls-18" d="M395,609.8s9,15,21,15c0,0,36-34,47-46,0,0,19-23,22-29,0,0,11-20.81,11-21,0-3,8-11,10-9l1,71a29.76,29.76,0,0,0,19,5V546.07l17-6.27,1-7s6,1,8,3c0,0,62,26,84,21,0,0,30-1,38-10,0,0,16.41-3.1,20.21-9,0,0-33.22,1-33.71,0-1.06-2-6-.24-8.85-2.83-4.28-3.87-3.91-10.6-3.65-13.12,1.63-2.77,5.42-9.28,5.17-9.79a.6.6,0,0,0-.17-.21c-.12-.09-.28-.12-1,0h-1c-.53,0-6.4-.6-27-2.88a6.64,6.64,0,0,1-2.49-1.44c-1.25-1.15-2.5-3.18-2.5-6.68,0,0-44-1-83-14,0,0-25-4-29-6l-18,5s-23,18-24,16c0,0-14,28-18,32Z"/><path class="cls-18" d="M529,471.8l33-13a47.07,47.07,0,0,1,7.25-1.63,47.65,47.65,0,0,1,16.75.63,24.51,24.51,0,0,1,9,2,25.74,25.74,0,0,1,12,11c4.14,6.79,5,13,2.41,15.38a4.42,4.42,0,0,1-2.78,1.08Z"/><path class="cls-41" d="M581.65,457.07,591,455.8l2.9-3.22,33,9.95A66.14,66.14,0,0,1,624,489.8l-17-3a16.93,16.93,0,0,0,2.09-10.19C607.82,467.07,596.84,458.7,581.65,457.07Z"/><path class="cls-31" d="M507,478.8l22-7,81,15.46,12,2.54a21.67,21.67,0,0,1-4.75,10.94S528,488.8,507,478.8Z"/><polygon class="cls-42" points="465.2 486.27 460 496.8 529 471.8 513 468.8 465.2 486.27"/><polygon class="cls-43" points="516.13 468.8 529 471.8 560.1 458.96 544.6 457.68 516.13 468.8"/><path class="cls-44" d="M514,453.56s21.25,4,24.13,4.12L465.2,486.27s10.56-16.47,24.18-17.47c0,0,14.62-1,17.62,0C507,468.8,507,453.32,514,453.56Z"/><path class="cls-41" d="M460,496.8s-48,87-51,87c0,0-12,19-14,18.52s0,7.48,0,7.48l59.35-87.69L465,501.8s23.22-14.07,22.11-14.54S460,496.8,460,496.8Z"/><path class="cls-45" d="M394.11,610.74,392,613.8s-1,1,0,3c0,0,11.1,8,12.05,8h8.06Z"/><path class="cls-45" d="M509.44,592.29A16.7,16.7,0,0,0,526,600.8v-5S509.87,593.78,509.44,592.29Z"/><path class="cls-32" d="M394.11,610.74s-.11-1.94-2.11.06,1.06-.91,1.06-.91S383,617.8,383,616.8c0,0-17,3-17,2l-17.32.2s-3.68-.2-4.68,4.8c0,0,10,11,21,11,0,0,3,2,17,1,0,0,18,12,28,6,0,0,2,0,4-4v-13H403.46s-11.46-7-11.46-8-1.46-2.22.77-4.11Z"/><path class="cls-32" d="M509,593.8s9,9,17,7v20.78s-14-.91-17-5.84c0,0-18,2.06-21-1.94,0,0-7-4-8-11,0,0-1-6,4-5,0,0,16.92,2.25,19,.62C503,598.42,510,595.8,509,593.8Z"/><path class="cls-18" d="M526,621.8v4.12c-2,.9-19-4.9-19-4.9-2,1-16-1-16-1-8-3-13-18-13-18,1-2,2-.93,2-.93s-1.95,18.69,28.54,14.7.5,0,.5,0S511,620.8,526,621.8Z"/><path class="cls-18" d="M344.52,622.08S349,638.8,382,635.8c0,0,22.14,15.59,31.57,2.79l.43,5.77s0,4.44-10,4.44h-1l-34-9s-22-6-26-14c0,0,0-4.31,1-4.16s.73,0,.73,0"/></g></g></svg>