<?xml version="1.0" encoding="utf-8"?>
<!-- Generator: Adobe Illustrator 24.3.0, SVG Export Plug-In . SVG Version: 6.00 Build 0)  -->
<svg version="1.1" id="Layer_1" xmlns="http://www.w3.org/2000/svg" xmlns:xlink="http://www.w3.org/1999/xlink" x="0px" y="0px"
	 viewBox="0 0 595.3 841.9" style="enable-background:new 0 0 595.3 841.9;" xml:space="preserve">
<style type="text/css">
	.st0{opacity:0.79;fill:#EF4523;enable-background:new    ;}
	.st1{fill:#2EC5F3;enable-background:new    ;}
	.st2{opacity:0.65;fill:#E2E31F;enable-background:new    ;}
	.st3{opacity:0.65;fill:#B14A9B;enable-background:new    ;}
</style>
<path class="st0" d="M6.6,158.4c-0.2-48.2,31-87.9,70.2-88.1l436.7-3.1c38.8-0.3,70.8,38.5,71.1,87.1c0.2,48.2-31,87.9-70.2,88.1
	l-436.7,3.1C38.9,245.8,6.9,207,6.6,158.4z"/>
<path class="st1" d="M13.1,705.9c-0.2-48.2,30.7-87.9,69.5-88.2l431.8-3.1c38.4-0.3,70,38.5,70.3,87.1c0.2,48.2-30.7,87.9-69.5,88.2
	L83.3,793C44.9,793.3,13.3,754.1,13.1,705.9z"/>
<path class="st2" d="M211.1,526.5c-28.3-34.3-32.1-85.7-7.2-97.1l264-327.2c22.4-47.3,64.4-43.2,92.7-8.9
	c28.3,34.3,32.1,85.7,8.5,115l-264,327.2C281.4,564.9,239.4,560.8,211.1,526.5z"/>
<path class="st3" d="M369.7,343.5c27,34.7,26.7,90.6-0.6,124.9L131.3,767.5c-27.3,34.3-71.2,34-98.2-0.7
	c-27-34.7-26.7-90.6,0.6-124.9l237.8-299.1C298.8,308.4,342.7,308.8,369.7,343.5z"/>
</svg>
