<svg xmlns="http://www.w3.org/2000/svg" viewBox="0 0 136.06 73.61"><defs><style>.cls-1{fill:#6ee348;}.cls-2{fill:#fff;}.cls-3{fill:#e72e9b;}</style></defs><g id="Layer_2" data-name="Layer 2"><g id="Layer_1-2" data-name="Layer 1"><path class="cls-1" d="M136.06,68H0a68,68,0,0,1,136.06,0Z"/><path class="cls-2" d="M125.5,67.79H12.11a56.7,56.7,0,0,1,113.39,0Z"/><polygon class="cls-3" points="104.73 33.83 64.65 61.17 73.65 69.73 104.73 33.83"/><circle class="cls-3" cx="69.68" cy="65.65" r="7.96"/><polyline class="cls-2" points="2 64.42 2.36 64.43 9.12 64.54"/><polyline class="cls-2" points="10 59.74 3.07 59.49 2.68 59.48"/><polyline class="cls-2" points="11.24 54.97 4.12 54.6 3.72 54.57"/><polyline class="cls-2" points="12.81 50.26 5.55 49.76 5.13 49.73"/><polyline class="cls-2" points="14.54 45.95 7.32 45.08 6.89 45.03"/><polyline class="cls-2" points="17.11 40.77 9.94 39.52 9.49 39.45"/><polyline class="cls-2" points="20.38 35.41 13.46 33.58 13.02 33.47"/><polyline class="cls-2" points="23.69 30.89 17.15 28.56 16.71 28.4"/><polyline class="cls-2" points="28.41 25.58 22.31 22.78 21.9 22.58"/><polyline class="cls-2" points="33.63 20.83 28.05 17.66 27.65 17.43"/><polyline class="cls-2" points="39.91 16.3 34.85 12.82 34.49 12.56"/><polyline class="cls-2" points="41.78 8.58 42.08 8.87 46.13 12.86"/><polyline class="cls-2" points="52.22 10.36 49.56 5.83 49.38 5.51"/><polyline class="cls-2" points="126.37 64.5 133.13 64.39 133.49 64.37"/><polyline class="cls-2" points="132.8 59.44 132.42 59.45 125.48 59.7"/><polyline class="cls-2" points="131.77 54.53 131.37 54.55 124.25 54.92"/><polyline class="cls-2" points="130.36 49.69 129.94 49.72 122.68 50.22"/><polyline class="cls-2" points="128.6 44.99 128.16 45.04 120.94 45.91"/><polyline class="cls-2" points="125.99 39.41 125.55 39.48 118.37 40.73"/><polyline class="cls-2" points="122.46 33.43 122.03 33.54 115.11 35.37"/><polyline class="cls-2" points="118.77 28.36 118.34 28.52 111.8 30.85"/><polyline class="cls-2" points="113.58 22.54 113.17 22.73 107.08 25.53"/><polyline class="cls-2" points="107.83 17.38 107.44 17.62 101.86 20.78"/><polyline class="cls-2" points="101 12.52 100.64 12.78 95.58 16.25"/><polyline class="cls-2" points="89.35 12.82 93.41 8.83 93.7 8.53"/><polyline class="cls-2" points="86.11 5.46 85.92 5.78 83.27 10.31"/></g></g></svg>